<svg xmlns="http://www.w3.org/2000/svg" width="800" height="887" viewBox="0 0 800 887">
  <g id="Group_2581" data-name="Group 2581" transform="translate(-3815 17844)">
    <g id="Rectangle_2495" data-name="Rectangle 2495" transform="translate(3815 -17844)" fill="#f9fafc" stroke="#707070" stroke-width="1">
      <rect width="800" height="887" stroke="none"/>
      <rect x="0.5" y="0.5" width="799" height="886" fill="none"/>
    </g>
    <text id="Zen_Yoga_Meditation" data-name="Zen Yoga &amp; Meditation" transform="translate(3855 -17776)" fill="rgba(0,0,0,0.87)" font-size="30" font-family="SourceSansPro-Bold, Source Sans Pro" font-weight="700"><tspan x="11.415" y="30">Zen Yoga &amp; Meditation</tspan></text>
    <line id="Line_1028" data-name="Line 1028" y1="1" x2="600" transform="translate(3915.5 -17667.5)" fill="none" stroke="silver" stroke-width="1"/>
    <line id="Line_1029" data-name="Line 1029" y1="1" x2="600" transform="translate(3915.5 -17589.5)" fill="none" stroke="silver" stroke-width="1"/>
    <line id="Line_1031" data-name="Line 1031" y1="1" x2="600" transform="translate(3917.5 -17325.5)" fill="none" stroke="silver" stroke-width="1"/>
    <line id="Line_1030" data-name="Line 1030" y1="1" x2="600" transform="translate(3915.5 -17501.5)" fill="none" stroke="silver" stroke-width="1"/>
    <line id="Line_1032" data-name="Line 1032" y1="1" x2="600" transform="translate(3916.5 -17413.5)" fill="none" stroke="silver" stroke-width="1"/>
    <line id="Line_1033" data-name="Line 1033" y1="1" x2="600" transform="translate(3918.5 -17237.5)" fill="none" stroke="silver" stroke-width="1"/>
    <line id="Line_1034" data-name="Line 1034" y1="1" x2="600" transform="translate(3919.5 -17149.5)" fill="none" stroke="silver" stroke-width="1"/>
    <text id="Policy_Info" data-name="Policy Info" transform="translate(3916 -17643)" fill="rgba(0,0,0,0.87)" font-size="20" font-family="SourceSansPro-Regular, Source Sans Pro"><tspan x="0" y="20">Policy Info</tspan></text>
    <text id="Owners" transform="translate(3918 -17379)" fill="rgba(0,0,0,0.87)" font-size="20" font-family="SourceSansPro-Regular, Source Sans Pro"><tspan x="0" y="20">Owners</tspan></text>
    <text id="Locations" transform="translate(3916 -17555)" fill="rgba(0,0,0,0.87)" font-size="20" font-family="SourceSansPro-Regular, Source Sans Pro"><tspan x="0" y="20">Locations</tspan></text>
    <text id="Payroll" transform="translate(3917 -17467)" fill="rgba(0,0,0,0.87)" font-size="20" font-family="SourceSansPro-Regular, Source Sans Pro"><tspan x="0" y="20">Payroll</tspan></text>
    <text id="Claims" transform="translate(3919 -17291)" fill="rgba(0,0,0,0.87)" font-size="20" font-family="SourceSansPro-Regular, Source Sans Pro"><tspan x="0" y="20">Claims</tspan></text>
    <text id="Documents" transform="translate(3920 -17203)" fill="rgba(0,0,0,0.87)" font-size="20" font-family="SourceSansPro-Regular, Source Sans Pro"><tspan x="0" y="20">Documents</tspan></text>
    <text id="Complete" transform="translate(4146 -17550)" fill="rgba(0,0,0,0.87)" font-size="16" font-family="SourceSansPro-Regular, Source Sans Pro"><tspan x="0" y="16">Complete</tspan></text>
    <text id="Complete-2" data-name="Complete" transform="translate(4146 -17638)" fill="rgba(0,0,0,0.87)" font-size="16" font-family="SourceSansPro-Regular, Source Sans Pro"><tspan x="0" y="16">Complete</tspan></text>
    <text id="Complete-3" data-name="Complete" transform="translate(4147 -17462)" fill="rgba(0,0,0,0.87)" font-size="16" font-family="SourceSansPro-Regular, Source Sans Pro"><tspan x="0" y="16">Complete</tspan></text>
    <text id="Complete-4" data-name="Complete" transform="translate(4147 -17374)" fill="rgba(0,0,0,0.87)" font-size="16" font-family="SourceSansPro-Regular, Source Sans Pro"><tspan x="0" y="16">Complete</tspan></text>
    <text id="Complete-5" data-name="Complete" transform="translate(4149 -17286)" fill="rgba(0,0,0,0.87)" font-size="16" font-family="SourceSansPro-Regular, Source Sans Pro"><tspan x="0" y="16">Complete</tspan></text>
    <text id="Complete-6" data-name="Complete" transform="translate(4150 -17198)" fill="rgba(0,0,0,0.87)" font-size="16" font-family="SourceSansPro-Regular, Source Sans Pro"><tspan x="0" y="16">Complete</tspan></text>
    <g id="Group_2571" data-name="Group 2571" transform="translate(955 -2072)">
      <rect id="bg" width="80" height="40" rx="20" transform="translate(3481 -15488)" fill="rgba(149,153,179,0.2)"/>
      <text id="Revisit" transform="translate(3521 -15463)" fill="#29339b" font-size="12" font-family="Graphik-Medium, Graphik" font-weight="500" letter-spacing="0.004em"><tspan x="-19.146" y="0">Revisit</tspan></text>
    </g>
    <g id="Group_2575" data-name="Group 2575" transform="translate(955 -2160)">
      <rect id="bg-2" data-name="bg" width="80" height="40" rx="20" transform="translate(3481 -15488)" fill="rgba(149,153,179,0.2)"/>
      <text id="Revisit-2" data-name="Revisit" transform="translate(3521 -15463)" fill="#29339b" font-size="12" font-family="Graphik-Medium, Graphik" font-weight="500" letter-spacing="0.004em"><tspan x="-19.146" y="0">Revisit</tspan></text>
    </g>
    <g id="Group_2572" data-name="Group 2572" transform="translate(956 -1984)">
      <rect id="bg-3" data-name="bg" width="80" height="40" rx="20" transform="translate(3481 -15488)" fill="rgba(149,153,179,0.2)"/>
      <text id="Revisit-3" data-name="Revisit" transform="translate(3521 -15463)" fill="#29339b" font-size="12" font-family="Graphik-Medium, Graphik" font-weight="500" letter-spacing="0.004em"><tspan x="-19.146" y="0">Revisit</tspan></text>
    </g>
    <g id="Group_2576" data-name="Group 2576" transform="translate(956 -1896)">
      <rect id="bg-4" data-name="bg" width="80" height="40" rx="20" transform="translate(3481 -15488)" fill="rgba(149,153,179,0.2)"/>
      <text id="Revisit-4" data-name="Revisit" transform="translate(3521 -15463)" fill="#29339b" font-size="12" font-family="Graphik-Medium, Graphik" font-weight="500" letter-spacing="0.004em"><tspan x="-19.146" y="0">Revisit</tspan></text>
    </g>
    <g id="Group_2573" data-name="Group 2573" transform="translate(958 -1808)">
      <rect id="bg-5" data-name="bg" width="80" height="40" rx="20" transform="translate(3481 -15488)" fill="rgba(149,153,179,0.2)"/>
      <text id="Revisit-5" data-name="Revisit" transform="translate(3521 -15463)" fill="#29339b" font-size="12" font-family="Graphik-Medium, Graphik" font-weight="500" letter-spacing="0.004em"><tspan x="-19.146" y="0">Revisit</tspan></text>
    </g>
    <g id="Group_2574" data-name="Group 2574" transform="translate(959 -1720)">
      <rect id="bg-6" data-name="bg" width="80" height="40" rx="20" transform="translate(3481 -15488)" fill="rgba(149,153,179,0.2)"/>
      <text id="Revisit-6" data-name="Revisit" transform="translate(3521 -15463)" fill="#29339b" font-size="12" font-family="Graphik-Medium, Graphik" font-weight="500" letter-spacing="0.004em"><tspan x="-19.146" y="0">Revisit</tspan></text>
    </g>
    <g id="Group_2578" data-name="Group 2578" transform="translate(11 -2087)">
      <rect id="bg-7" data-name="bg" width="178" height="52" rx="26" transform="translate(4115 -15001)" fill="#29339b"/>
      <text id="Submit_Audit" data-name="Submit Audit" transform="translate(4204 -14968)" fill="#fff" font-size="16" font-family="Graphik-Semibold, Graphik" font-weight="600" letter-spacing="0.004em"><tspan x="-50.744" y="0">Submit Audit</tspan></text>
    </g>
    <path id="Path_3427" data-name="Path 3427" d="M267.411,108.613c-37.278-2.409-77.29,2.011-111.8,18.083-16.951,7.894-40.3,23.106-38.036,46.458,2.035,21,24.236,33.715,40.348,40.59,39.371,16.8,89.286,18.282,129.63,4.639,15.2-5.138,31.8-13.222,43.245-25.548,15.4-16.591,8.6-40.717-6.3-54.508-19.672-18.307-48.126-22.965-73.244-23.238-22.933-.248-44.6,5.315-65.124,16.183l-.363-.718a140.168,140.168,0,0,1,107.024-14.287c18.347,4.921,37.506,15.007,47.284,33.322a42.129,42.129,0,0,1-8.367,51.379c-32.076,30.053-77.01,36.809-117.976,33.425-21.8-1.8-43.68-6.73-63.561-16.789-16.05-8.12-35.131-21.676-37.767-42.309-4.863-38.064,43.336-55.386,69.532-61.766a250.6,250.6,0,0,1,49.639-6.684q11.069-.429,22.15.026C256.911,107,266.15,106.184,267.411,108.613Z" transform="translate(3983.675 -17232.633)" fill="#29d9c2"/>
  </g>
</svg>
