<svg xmlns="http://www.w3.org/2000/svg" xmlns:xlink="http://www.w3.org/1999/xlink" width="634" height="555" viewBox="0 0 634 555">
  <defs>
    <filter id="Rectangle_2413" x="27" y="151" width="147" height="49" filterUnits="userSpaceOnUse">
      <feOffset dy="3" input="SourceAlpha"/>
      <feGaussianBlur stdDeviation="3" result="blur"/>
      <feFlood flood-opacity="0.161"/>
      <feComposite operator="in" in2="blur"/>
      <feComposite in="SourceGraphic"/>
    </filter>
    <filter id="Rectangle_2414" x="27" y="64" width="147" height="49" filterUnits="userSpaceOnUse">
      <feOffset dy="3" input="SourceAlpha"/>
      <feGaussianBlur stdDeviation="3" result="blur-2"/>
      <feFlood flood-opacity="0.161"/>
      <feComposite operator="in" in2="blur-2"/>
      <feComposite in="SourceGraphic"/>
    </filter>
    <filter id="Rectangle_2415" x="27" y="238" width="279" height="49" filterUnits="userSpaceOnUse">
      <feOffset dy="3" input="SourceAlpha"/>
      <feGaussianBlur stdDeviation="3" result="blur-3"/>
      <feFlood flood-opacity="0.161"/>
      <feComposite operator="in" in2="blur-3"/>
      <feComposite in="SourceGraphic"/>
    </filter>
    <filter id="Rectangle_2416" x="27" y="325" width="279" height="49" filterUnits="userSpaceOnUse">
      <feOffset dy="3" input="SourceAlpha"/>
      <feGaussianBlur stdDeviation="3" result="blur-4"/>
      <feFlood flood-opacity="0.161"/>
      <feComposite operator="in" in2="blur-4"/>
      <feComposite in="SourceGraphic"/>
    </filter>
    <filter id="Rectangle_2417" x="27" y="412" width="279" height="105" filterUnits="userSpaceOnUse">
      <feOffset dy="3" input="SourceAlpha"/>
      <feGaussianBlur stdDeviation="3" result="blur-5"/>
      <feFlood flood-opacity="0.161"/>
      <feComposite operator="in" in2="blur-5"/>
      <feComposite in="SourceGraphic"/>
    </filter>
  </defs>
  <g id="Group_2401" data-name="Group 2401" transform="translate(-3673 13439)">
    <g id="Group_2398" data-name="Group 2398">
      <g id="Rectangle_2412" data-name="Rectangle 2412" transform="translate(3673 -13439)" fill="#fff" stroke="#707070" stroke-width="1">
        <rect width="634" height="555" stroke="none"/>
        <rect x="0.5" y="0.5" width="633" height="554" fill="none"/>
      </g>
      <g id="Group_2397" data-name="Group 2397">
        <text id="Total_Stock" data-name="Total Stock" transform="translate(3709 -13290)" fill="rgba(0,0,0,0.87)" font-size="12" font-family="SourceSansPro-SemiBold, Source Sans Pro" font-weight="600" opacity="0.5"><tspan x="0" y="0">Total Stock</tspan></text>
        <text id="_" data-name="%" transform="translate(3815 -13261)" fill="rgba(0,0,0,0.87)" font-size="14" font-family="Roboto-Regular, Roboto" opacity="0.5"><tspan x="0" y="0">%</tspan></text>
        <text id="_51" data-name="51" transform="translate(3728 -13261)" fill="rgba(0,0,0,0.87)" font-size="14" font-family="SourceSansPro-Regular, Source Sans Pro"><tspan x="0" y="0">51</tspan></text>
        <g transform="matrix(1, 0, 0, 1, 3673, -13439)" filter="url(#Rectangle_2413)">
          <g id="Rectangle_2413-2" data-name="Rectangle 2413" transform="translate(36 157)" fill="none" stroke="#e50a45" stroke-width="2">
            <rect width="129" height="31" rx="5" stroke="none"/>
            <rect x="1" y="1" width="127" height="29" rx="4" fill="none"/>
          </g>
        </g>
        <text id="Total_stock_owned_must_equal_100_" data-name="Total stock owned must equal 100%" transform="translate(3879 -13275)" fill="#e50a45" font-size="12" font-family="SourceSansPro-SemiBold, Source Sans Pro" font-weight="600"><tspan x="0" y="12">Total stock owned must equal 100%</tspan></text>
        <text id="Work_Description_must_be_at_least_100_characters" data-name="Work Description must be at least 100 characters" transform="translate(4016 -12984)" fill="#e50a45" font-size="12" font-family="SourceSansPro-SemiBold, Source Sans Pro" font-weight="600"><tspan x="0" y="12">Work Description must be at least 100 characters</tspan></text>
        <path id="exclamation-circle-solid" d="M23,15.5A7.5,7.5,0,1,1,15.5,8,7.5,7.5,0,0,1,23,15.5Zm-7.5,1.512A1.391,1.391,0,1,0,16.891,18.4,1.391,1.391,0,0,0,15.5,17.012Zm-1.321-5,.224,4.113a.363.363,0,0,0,.362.343h1.468a.363.363,0,0,0,.362-.343l.224-4.113a.363.363,0,0,0-.362-.383H14.542a.363.363,0,0,0-.362.383Z" transform="translate(3847 -13283)" fill="#e50a45"/>
        <path id="exclamation-circle-solid-2" data-name="exclamation-circle-solid" d="M23,15.5A7.5,7.5,0,1,1,15.5,8,7.5,7.5,0,0,1,23,15.5Zm-7.5,1.512A1.391,1.391,0,1,0,16.891,18.4,1.391,1.391,0,0,0,15.5,17.012Zm-1.321-5,.224,4.113a.363.363,0,0,0,.362.343h1.468a.363.363,0,0,0,.362-.343l.224-4.113a.363.363,0,0,0-.362-.383H14.542a.363.363,0,0,0-.362.383Z" transform="translate(3984 -12992)" fill="#e50a45"/>
        <text id="Total_Gross_Wages" data-name="Total Gross Wages" transform="translate(3709 -13377)" fill="rgba(0,0,0,0.87)" font-size="12" font-family="SourceSansPro-SemiBold, Source Sans Pro" font-weight="600" opacity="0.5"><tspan x="0" y="0">Total Gross Wages</tspan></text>
        <text id="_2" data-name="$" transform="translate(3717 -13348)" fill="rgba(0,0,0,0.87)" font-size="14" font-family="Roboto-Regular, Roboto" opacity="0.5"><tspan x="0" y="0">$</tspan></text>
        <text id="_134_000" data-name="134,000" transform="translate(3738 -13348)" fill="rgba(0,0,0,0.87)" font-size="14" font-family="SourceSansPro-Regular, Source Sans Pro"><tspan x="0" y="0">134,000</tspan></text>
        <g transform="matrix(1, 0, 0, 1, 3673, -13439)" filter="url(#Rectangle_2414)">
          <g id="Rectangle_2414-2" data-name="Rectangle 2414" transform="translate(36 70)" fill="none" stroke="rgba(0,0,0,0.5)" stroke-width="1">
            <rect width="129" height="31" rx="5" stroke="none"/>
            <rect x="0.5" y="0.5" width="128" height="30" rx="4.5" fill="none"/>
          </g>
        </g>
        <g id="small-down" transform="translate(3951 -13182)">
          <path id="Path_26" data-name="Path 26" d="M8.1,11.6,2.6,6.041,4.026,4.6,8.1,8.718,12.174,4.6,13.6,6.041Z" transform="translate(-2.6 -4.6)" fill="#a4afb7"/>
        </g>
        <text id="Wages_Location" data-name="Wages Location" transform="translate(3709 -13203)" fill="rgba(0,0,0,0.87)" font-size="12" font-family="SourceSansPro-SemiBold, Source Sans Pro" font-weight="600" opacity="0.5"><tspan x="0" y="0">Wages Location</tspan></text>
        <text id="_123_Main_St._Kansas_City_MO_66411" data-name="123 Main St. Kansas City, MO 66411" transform="translate(3718 -13174)" fill="rgba(0,0,0,0.87)" font-size="14" font-family="SourceSansPro-Regular, Source Sans Pro"><tspan x="0" y="0">123 Main St. Kansas City, MO 66411</tspan></text>
        <g transform="matrix(1, 0, 0, 1, 3673, -13439)" filter="url(#Rectangle_2415)">
          <g id="Rectangle_2415-2" data-name="Rectangle 2415" transform="translate(36 244)" fill="none" stroke="rgba(0,0,0,0.5)" stroke-width="1">
            <rect width="261" height="31" rx="5" stroke="none"/>
            <rect x="0.5" y="0.5" width="260" height="30" rx="4.5" fill="none"/>
          </g>
        </g>
        <g id="small-down-2" data-name="small-down" transform="translate(3951 -13095)">
          <path id="Path_26-2" data-name="Path 26" d="M8.1,11.6,2.6,6.041,4.026,4.6,8.1,8.718,12.174,4.6,13.6,6.041Z" transform="translate(-2.6 -4.6)" fill="#a4afb7"/>
        </g>
        <text id="Wages_Class_Code" data-name="Wages Class Code" transform="translate(3709 -13116)" fill="rgba(0,0,0,0.87)" font-size="12" font-family="SourceSansPro-SemiBold, Source Sans Pro" font-weight="600" opacity="0.5"><tspan x="0" y="0">Wages Class Code</tspan></text>
        <text id="_4328_-_Example_Class_Code" data-name="4328 - Example Class Code" transform="translate(3718 -13087)" fill="rgba(0,0,0,0.87)" font-size="14" font-family="SourceSansPro-Regular, Source Sans Pro"><tspan x="0" y="0">4328 - Example Class Code</tspan></text>
        <g transform="matrix(1, 0, 0, 1, 3673, -13439)" filter="url(#Rectangle_2416)">
          <g id="Rectangle_2416-2" data-name="Rectangle 2416" transform="translate(36 331)" fill="none" stroke="rgba(0,0,0,0.5)" stroke-width="1">
            <rect width="261" height="31" rx="5" stroke="none"/>
            <rect x="0.5" y="0.5" width="260" height="30" rx="4.5" fill="none"/>
          </g>
        </g>
        <text id="Work_Description" data-name="Work Description" transform="translate(3709 -13029)" fill="rgba(0,0,0,0.87)" font-size="12" font-family="SourceSansPro-SemiBold, Source Sans Pro" font-weight="600" opacity="0.5"><tspan x="0" y="0">Work Description</tspan></text>
        <g transform="matrix(1, 0, 0, 1, 3673, -13439)" filter="url(#Rectangle_2417)">
          <g id="Rectangle_2417-2" data-name="Rectangle 2417" transform="translate(36 418)" fill="none" stroke="#e50a45" stroke-width="2">
            <rect width="261" height="87" rx="5" stroke="none"/>
            <rect x="1" y="1" width="259" height="85" rx="4" fill="none"/>
          </g>
        </g>
        <text id="Lorem_ipsum_dolor_sit_amet." data-name="Lorem ipsum dolor sit amet." transform="translate(3717 -13008)" fill="rgba(0,0,0,0.87)" font-size="14" font-family="SourceSansPro-Regular, Source Sans Pro"><tspan x="0" y="14">Lorem ipsum dolor sit amet.</tspan></text>
      </g>
    </g>
    <g id="Group_2399" data-name="Group 2399" transform="translate(3655.538 -13092.278)">
      <path id="Path_3409" data-name="Path 3409" d="M523.394,38.232c-.663-2.929-8.124-3.933-11.217-4.042-4.135-.147-12.268-.438-12.309-.85-.064-.666,8.936-1.869,9.645-2.008,1.57-.307,12.1-1.644,12.25-3.612.186-2.18-8.794-2.38-9.955-2.442,2.728.316,6.071.378,8.564,1.648,1.154.561-.482,1.051-1.018,1.228-5.148,1.707-10.927,1.755-16.242,2.85-1.721.361-4.541.608-5.9,1.859-.895.959-.041,1.811,1.027,2.133,5.238,1.461,10.96.869,16.307,1.66.877.13,5.728.9,5.459,2.367-.191.9-2.106,1.307-2.856,1.477-10.531,2.387-21.039,2.6-31.041,7.173-8.91,4.077-16.646,11.37-17.164,21.684l-6.484-.008,9.6,16.046,9.641-16.02-6.331-.009c-.106-17.326,25.093-22.291,38.063-24.48C516.687,44.336,524.408,42.512,523.394,38.232Z" fill="blue"/>
    </g>
    <g id="Group_2400" data-name="Group 2400" transform="translate(4101 -13302)">
      <path id="Path_3410" data-name="Path 3410" d="M333.465,170.713,347.7,162.2l-.006,5.457a137.408,137.408,0,0,1,23.746,3c10.373,2.2,20.32,6.254,30.68,8.332-6.518-8.1-15.5-13.641-19.031-23.949-3.334-9.606,1.757-20.292,12.847-20.028-11.73.361-15.283,12.1-10.553,21.412,2.616,5.147,6.717,9.419,11.065,13.142,2.187,1.872,4.4,3.712,6.477,5.712,1.283,1.239,3.244,2.879,3.376,4.808.372,4.59-8.748,1.549-10.615,1.1-6.185-1.5-12.351-3.069-18.6-4.282a140.781,140.781,0,0,0-29.4-2.832l-.008,5.2Z" transform="translate(-333.465 -135.007)" fill="blue"/>
    </g>
  </g>
</svg>
