<svg xmlns="http://www.w3.org/2000/svg" xmlns:xlink="http://www.w3.org/1999/xlink" width="584" height="493" viewBox="0 0 584 493">
  <defs>
    <filter id="Rectangle_2407" x="31" y="140" width="277" height="49" filterUnits="userSpaceOnUse">
      <feOffset dy="3" input="SourceAlpha"/>
      <feGaussianBlur stdDeviation="3" result="blur"/>
      <feFlood flood-opacity="0.161"/>
      <feComposite operator="in" in2="blur"/>
      <feComposite in="SourceGraphic"/>
    </filter>
    <filter id="Rectangle_2408" x="324" y="140" width="231" height="49" filterUnits="userSpaceOnUse">
      <feOffset dy="3" input="SourceAlpha"/>
      <feGaussianBlur stdDeviation="3" result="blur-2"/>
      <feFlood flood-opacity="0.161"/>
      <feComposite operator="in" in2="blur-2"/>
      <feComposite in="SourceGraphic"/>
    </filter>
    <filter id="Rectangle_2406" x="31" y="55" width="156" height="49" filterUnits="userSpaceOnUse">
      <feOffset dy="3" input="SourceAlpha"/>
      <feGaussianBlur stdDeviation="3" result="blur-3"/>
      <feFlood flood-opacity="0.161"/>
      <feComposite operator="in" in2="blur-3"/>
      <feComposite in="SourceGraphic"/>
    </filter>
    <filter id="Rectangle_2410" x="238" y="55" width="113" height="49" filterUnits="userSpaceOnUse">
      <feOffset dy="3" input="SourceAlpha"/>
      <feGaussianBlur stdDeviation="3" result="blur-4"/>
      <feFlood flood-opacity="0.161"/>
      <feComposite operator="in" in2="blur-4"/>
      <feComposite in="SourceGraphic"/>
    </filter>
    <filter id="Rectangle_2409" x="29" y="221" width="526" height="108" filterUnits="userSpaceOnUse">
      <feOffset dy="3" input="SourceAlpha"/>
      <feGaussianBlur stdDeviation="3" result="blur-5"/>
      <feFlood flood-opacity="0.161"/>
      <feComposite operator="in" in2="blur-5"/>
      <feComposite in="SourceGraphic"/>
    </filter>
  </defs>
  <g id="Group_2395" data-name="Group 2395" transform="translate(-3673 14515)">
    <g id="Group_2393" data-name="Group 2393">
      <g id="Rectangle_2411" data-name="Rectangle 2411" transform="translate(3673 -14515)" fill="#fff" stroke="#707070" stroke-width="1">
        <rect width="584" height="493" stroke="none"/>
        <rect x="0.5" y="0.5" width="583" height="492" fill="none"/>
      </g>
      <g id="Group_2392" data-name="Group 2392">
        <g id="small-down" transform="translate(3944 -14356)">
          <path id="Path_26" data-name="Path 26" d="M8.1,11.6,2.6,6.041,4.026,4.6,8.1,8.718,12.174,4.6,13.6,6.041Z" transform="translate(-2.6 -4.6)" fill="#a4afb7"/>
        </g>
        <text id="Wages_Location" data-name="Wages Location" transform="translate(3713 -14377)" fill="rgba(0,0,0,0.87)" font-size="12" font-family="SourceSansPro-SemiBold, Source Sans Pro" font-weight="600" opacity="0.5"><tspan x="0" y="0">Wages Location</tspan></text>
        <text id="_123_Main_St._Kansas_City_MO_66411" data-name="123 Main St. Kansas City, MO 66411" transform="translate(3722 -14348)" fill="rgba(0,0,0,0.87)" font-size="14" font-family="SourceSansPro-Regular, Source Sans Pro"><tspan x="0" y="0">123 Main St. Kansas City, MO 66411</tspan></text>
        <text id="Wages_Class_Code" data-name="Wages Class Code" transform="translate(4006 -14377)" fill="rgba(0,0,0,0.87)" font-size="12" font-family="SourceSansPro-SemiBold, Source Sans Pro" font-weight="600" opacity="0.5"><tspan x="0" y="0">Wages Class Code</tspan></text>
        <text id="_4328_-_Example_Class_Code" data-name="4328 - Example Class Code" transform="translate(4015 -14348)" fill="rgba(0,0,0,0.87)" font-size="14" font-family="SourceSansPro-Regular, Source Sans Pro"><tspan x="0" y="0">4328 - Example Class Code</tspan></text>
        <g transform="matrix(1, 0, 0, 1, 3673, -14515)" filter="url(#Rectangle_2407)">
          <g id="Rectangle_2407-2" data-name="Rectangle 2407" transform="translate(40 146)" fill="none" stroke="rgba(0,0,0,0.5)" stroke-width="1">
            <rect width="259" height="31" rx="5" stroke="none"/>
            <rect x="0.5" y="0.5" width="258" height="30" rx="4.5" fill="none"/>
          </g>
        </g>
        <g transform="matrix(1, 0, 0, 1, 3673, -14515)" filter="url(#Rectangle_2408)">
          <g id="Rectangle_2408-2" data-name="Rectangle 2408" transform="translate(333 146)" fill="none" stroke="rgba(0,0,0,0.5)" stroke-width="1">
            <rect width="213" height="31" rx="5" stroke="none"/>
            <rect x="0.5" y="0.5" width="212" height="30" rx="4.5" fill="none"/>
          </g>
        </g>
        <text id="Total_Gross_Wages" data-name="Total Gross Wages" transform="translate(3713 -14462)" fill="rgba(0,0,0,0.87)" font-size="12" font-family="SourceSansPro-SemiBold, Source Sans Pro" font-weight="600" opacity="0.5"><tspan x="0" y="0">Total Gross Wages</tspan></text>
        <text id="Total_Stock" data-name="Total Stock" transform="translate(3920 -14462)" fill="rgba(0,0,0,0.87)" font-size="12" font-family="SourceSansPro-SemiBold, Source Sans Pro" font-weight="600" opacity="0.5"><tspan x="0" y="0">Total Stock</tspan></text>
        <text id="_" data-name="$" transform="translate(3721 -14433)" fill="rgba(0,0,0,0.87)" font-size="14" font-family="Roboto-Regular, Roboto" opacity="0.5"><tspan x="0" y="0">$</tspan></text>
        <text id="_2" data-name="%" transform="translate(3984 -14433)" fill="rgba(0,0,0,0.87)" font-size="14" font-family="Roboto-Regular, Roboto" opacity="0.5"><tspan x="0" y="0">%</tspan></text>
        <text id="_134_000" data-name="134,000" transform="translate(3753 -14433)" fill="rgba(0,0,0,0.87)" font-size="14" font-family="SourceSansPro-Regular, Source Sans Pro"><tspan x="0" y="0">134,000</tspan></text>
        <text id="_51" data-name="51" transform="translate(3941 -14433)" fill="rgba(0,0,0,0.87)" font-size="14" font-family="SourceSansPro-Regular, Source Sans Pro"><tspan x="0" y="0">51</tspan></text>
        <g transform="matrix(1, 0, 0, 1, 3673, -14515)" filter="url(#Rectangle_2406)">
          <g id="Rectangle_2406-2" data-name="Rectangle 2406" transform="translate(40 61)" fill="none" stroke="rgba(0,0,0,0.5)" stroke-width="1">
            <rect width="138" height="31" rx="5" stroke="none"/>
            <rect x="0.5" y="0.5" width="137" height="30" rx="4.5" fill="none"/>
          </g>
        </g>
        <g transform="matrix(1, 0, 0, 1, 3673, -14515)" filter="url(#Rectangle_2410)">
          <g id="Rectangle_2410-2" data-name="Rectangle 2410" transform="translate(247 61)" fill="none" stroke="#e50a45" stroke-width="2">
            <rect width="95" height="31" rx="5" stroke="none"/>
            <rect x="1" y="1" width="93" height="29" rx="4" fill="none"/>
          </g>
        </g>
        <text id="Total_stock_owned_must_equal_100_" data-name="Total stock owned must equal 100%" transform="translate(3741 -14142)" fill="#e50a45" font-size="12" font-family="SourceSansPro-SemiBold, Source Sans Pro" font-weight="600"><tspan x="0" y="12">Total stock owned must equal 100%</tspan></text>
        <text id="Work_Description_must_be_at_least_100_characters" data-name="Work Description must be at least 100 characters" transform="translate(3741 -14113)" fill="#e50a45" font-size="12" font-family="SourceSansPro-SemiBold, Source Sans Pro" font-weight="600"><tspan x="0" y="12">Work Description must be at least 100 characters</tspan></text>
        <path id="exclamation-circle-solid" d="M23,15.5A7.5,7.5,0,1,1,15.5,8,7.5,7.5,0,0,1,23,15.5Zm-7.5,1.512A1.391,1.391,0,1,0,16.891,18.4,1.391,1.391,0,0,0,15.5,17.012Zm-1.321-5,.224,4.113a.363.363,0,0,0,.362.343h1.468a.363.363,0,0,0,.362-.343l.224-4.113a.363.363,0,0,0-.362-.383H14.542a.363.363,0,0,0-.362.383Z" transform="translate(3705 -14150)" fill="#e50a45"/>
        <path id="exclamation-circle-solid-2" data-name="exclamation-circle-solid" d="M23,15.5A7.5,7.5,0,1,1,15.5,8,7.5,7.5,0,0,1,23,15.5Zm-7.5,1.512A1.391,1.391,0,1,0,16.891,18.4,1.391,1.391,0,0,0,15.5,17.012Zm-1.321-5,.224,4.113a.363.363,0,0,0,.362.343h1.468a.363.363,0,0,0,.362-.343l.224-4.113a.363.363,0,0,0-.362-.383H14.542a.363.363,0,0,0-.362.383Z" transform="translate(3705 -14121)" fill="#e50a45"/>
        <text id="Work_Description" data-name="Work Description" transform="translate(3713 -14295)" fill="rgba(0,0,0,0.87)" font-size="12" font-family="SourceSansPro-SemiBold, Source Sans Pro" font-weight="600" opacity="0.5"><tspan x="0" y="0">Work Description</tspan></text>
        <g transform="matrix(1, 0, 0, 1, 3673, -14515)" filter="url(#Rectangle_2409)">
          <g id="Rectangle_2409-2" data-name="Rectangle 2409" transform="translate(38 227)" fill="none" stroke="#e50a45" stroke-width="2">
            <rect width="508" height="90" rx="5" stroke="none"/>
            <rect x="1" y="1" width="506" height="88" rx="4" fill="none"/>
          </g>
        </g>
        <text id="Lorem_ipsum_dolor_sit_amet." data-name="Lorem ipsum dolor sit amet." transform="translate(3719 -14273)" fill="rgba(0,0,0,0.87)" font-size="14" font-family="SourceSansPro-Regular, Source Sans Pro"><tspan x="0" y="14">Lorem ipsum dolor sit amet.</tspan></text>
      </g>
    </g>
    <path id="Path_3407" data-name="Path 3407" d="M218.395,251.18c50.884,2.751,105.5-2.3,152.612-20.651,23.138-9.015,55.007-26.388,51.919-53.055-2.778-23.982-33.082-38.5-55.075-46.354-53.741-19.187-121.876-20.878-176.945-5.3-20.743,5.867-43.413,15.1-59.029,29.176-21.022,18.947-11.735,46.5,8.6,62.249,26.853,20.906,65.692,26.226,99.978,26.539A212.236,212.236,0,0,0,329.344,225.3l.495.82C285.515,247.81,232.8,253.452,183.75,242.441c-25.044-5.62-51.2-17.138-64.542-38.054-12.9-20.219-7.881-43.544,11.422-58.675,43.784-34.321,105.119-42.037,161.037-38.172,29.758,2.057,59.624,7.686,86.761,19.173,21.908,9.273,47.954,24.754,51.551,48.318,6.638,43.47-59.153,63.251-94.911,70.537a405.288,405.288,0,0,1-67.757,7.633q-15.109.49-30.234-.03C232.727,253.019,220.116,253.954,218.395,251.18Z" transform="translate(3578.938 -14296.633)" fill="#2116ea"/>
    <g id="Group_2394" data-name="Group 2394" transform="translate(4189.342 -13855.784) rotate(180)">
      <path id="Path_3408" data-name="Path 3408" d="M158.342,252.164l-21.868-13.077.012,8.127c-22.283,1.337-45.371,5.1-64.494,17.2-18.255,11.56-26.866,29.634-26.671,50.8,1.419-20.928,11.266-38.006,30.452-47.637,18.656-9.369,40.108-11.111,60.725-10.769l.012,8.5Z" transform="translate(0 0)" fill="#2116ea"/>
    </g>
  </g>
</svg>
