<svg xmlns="http://www.w3.org/2000/svg" width="800" height="500" viewBox="0 0 800 500">
  <defs>
    <style>

      @import url('https://fonts.googleapis.com/css2?family=Source+Sans+Pro:wght@600&amp;display=swap');
      
      .cls-1 {
        fill: #f9fafc;
        stroke: #707070;
      }

      .cls-2 {
        fill: #aab0bb;
      }

      .cls-3, .cls-4 {
        fill: #e2e6eb;
      }

      .cls-3 {
        stroke: #e50a45;
        stroke-width: 2px;
      }

      .cls-5, .cls-6 {
        fill: #e50a45;
      }

      .cls-6 {
        font-size: 18px;
        font-family: Source Sans Pro;
        font-weight: 600;
        letter-spacing: 0.004em;
      }

      .cls-7 {
        stroke: none;
      }

      .cls-8 {
        fill: none;
      }
    </style>
  </defs>
  <g id="Group_2519" data-name="Group 2519" transform="translate(-6949 15348)">
    <g id="Rectangle_2474" data-name="Rectangle 2474" class="cls-1" transform="translate(6949 -15348)">
      <rect class="cls-7" width="800" height="500"/>
      <rect class="cls-8" x="0.5" y="0.5" width="799" height="499"/>
    </g>
    <rect id="Rectangle_2475" data-name="Rectangle 2475" class="cls-2" width="250" height="28" rx="14" transform="translate(7034 -15293)"/>
    <rect id="Rectangle_2476" data-name="Rectangle 2476" class="cls-2" width="250" height="28" rx="14" transform="translate(7034 -15183)"/>
    <rect id="Rectangle_2479" data-name="Rectangle 2479" class="cls-2" width="250" height="28" rx="14" transform="translate(7034 -15073)"/>
    <g id="Rectangle_2477" data-name="Rectangle 2477" class="cls-3" transform="translate(7034 -15257)">
      <rect class="cls-7" width="500" height="26" rx="13"/>
      <rect class="cls-8" x="1" y="1" width="498" height="24" rx="12"/>
    </g>
    <g id="Rectangle_2478" data-name="Rectangle 2478" class="cls-3" transform="translate(7034 -15147)">
      <rect class="cls-7" width="500" height="26" rx="13"/>
      <rect class="cls-8" x="1" y="1" width="498" height="24" rx="12"/>
    </g>
    <rect id="Rectangle_2480" data-name="Rectangle 2480" class="cls-4" width="500" height="26" rx="13" transform="translate(7034 -15037)"/>
    <g id="Group_2517" data-name="Group 2517">
      <path id="exclamation-circle-solid" class="cls-5" d="M38,23A15,15,0,1,1,23,8,15,15,0,0,1,38,23ZM23,26.024a2.782,2.782,0,1,0,2.782,2.782A2.782,2.782,0,0,0,23,26.024Zm-2.642-10,.449,8.226a.726.726,0,0,0,.725.686h2.936a.726.726,0,0,0,.725-.686l.449-8.226a.726.726,0,0,0-.725-.765H21.083a.726.726,0,0,0-.725.765Z" transform="translate(7026 -14985)"/>
      <text id="Lorem_Ipsum_dolor_sit_amet." data-name="Lorem Ipsum dolor sit amet." class="cls-6" transform="translate(7076 -14974)"><tspan x="0" y="18">Lorem Ipsum dolor sit amet.</tspan></text>
    </g>
    <g id="Group_2518" data-name="Group 2518" transform="translate(0 53)">
      <path id="exclamation-circle-solid-2" data-name="exclamation-circle-solid" class="cls-5" d="M38,23A15,15,0,1,1,23,8,15,15,0,0,1,38,23ZM23,26.024a2.782,2.782,0,1,0,2.782,2.782A2.782,2.782,0,0,0,23,26.024Zm-2.642-10,.449,8.226a.726.726,0,0,0,.725.686h2.936a.726.726,0,0,0,.725-.686l.449-8.226a.726.726,0,0,0-.725-.765H21.083a.726.726,0,0,0-.725.765Z" transform="translate(7026 -14985)"/>
      <text id="Lorem_Ipsum_dolor_sit_amet.-2" data-name="Lorem Ipsum dolor sit amet." class="cls-6" transform="translate(7076 -14974)"><tspan x="0" y="18">Lorem Ipsum dolor sit amet.</tspan></text>
    </g>
  </g>
</svg>
