<svg xmlns="http://www.w3.org/2000/svg" width="104.703" height="30.469" viewBox="0 0 104.703 30.469">
  <g id="Group_2396" data-name="Group 2396" transform="translate(-4556 14408)">
    <path id="eye-regular" d="M22.852,70.348a8.8,8.8,0,0,1,2.479.4,4.4,4.4,0,0,0-.574,2.142A4.443,4.443,0,0,0,29.2,77.33a4.4,4.4,0,0,0,2.142-.574,8.864,8.864,0,1,1-8.49-6.408ZM.277,78.076A25.449,25.449,0,0,1,22.852,64,25.453,25.453,0,0,1,45.428,78.077a2.567,2.567,0,0,1,0,2.316A25.449,25.449,0,0,1,22.852,94.469,25.453,25.453,0,0,1,.277,80.392a2.567,2.567,0,0,1,0-2.316ZM22.852,90.66A21.584,21.584,0,0,0,41.731,79.234,21.584,21.584,0,0,0,22.852,67.809,21.584,21.584,0,0,0,3.973,79.234,21.583,21.583,0,0,0,22.852,90.66Z" transform="translate(4615 -14472)" fill="#080808"/>
    <path id="eye-regular-2" data-name="eye-regular" d="M22.852,70.348a8.8,8.8,0,0,1,2.479.4,4.4,4.4,0,0,0-.574,2.142A4.443,4.443,0,0,0,29.2,77.33a4.4,4.4,0,0,0,2.142-.574,8.864,8.864,0,1,1-8.49-6.408ZM.277,78.076A25.449,25.449,0,0,1,22.852,64,25.453,25.453,0,0,1,45.428,78.077a2.567,2.567,0,0,1,0,2.316A25.449,25.449,0,0,1,22.852,94.469,25.453,25.453,0,0,1,.277,80.392a2.567,2.567,0,0,1,0-2.316ZM22.852,90.66A21.584,21.584,0,0,0,41.731,79.234,21.584,21.584,0,0,0,22.852,67.809,21.584,21.584,0,0,0,3.973,79.234,21.583,21.583,0,0,0,22.852,90.66Z" transform="translate(4556 -14472)" fill="#080808"/>
  </g>
</svg>
