<svg xmlns="http://www.w3.org/2000/svg" width="1739" height="1007" viewBox="0 0 1739 1007">
  <g id="Group_1995" data-name="Group 1995" transform="translate(2948 18990)">
    <g id="Rectangle_1665" data-name="Rectangle 1665" transform="translate(-2948 -18990)" fill="#fff" stroke="#707070" stroke-width="1">
      <rect width="1739" height="1007" stroke="none"/>
      <rect x="0.5" y="0.5" width="1738" height="1006" fill="none"/>
    </g>
    <g id="Group_1994" data-name="Group 1994" transform="translate(-2956 -18985)">
      <line id="Line_101" data-name="Line 101" y2="939" transform="translate(884.5 29.5)" fill="none" stroke="#2116ea" stroke-width="1"/>
      <line id="Line_102" data-name="Line 102" x1="1549" transform="translate(110 499)" fill="none" stroke="#2116ea" stroke-width="1"/>
      <text id="_I_d_like_to_see_the_status_for_a_completed_audit._" data-name="“I’d like to see the status for a completed audit.”" transform="translate(913 49)" font-size="24" font-family="Asure-Regular, Asure"><tspan x="0" y="24">“I’d like to see the status for a completed audit.”</tspan></text>
      <text id="_I_liked_how_the_audit_process_was_clear_and_easy_to_fill._" data-name="“I liked how the audit process was clear and easy to fill.”" transform="translate(331 49)" font-size="24" font-family="Asure-Regular, Asure"><tspan x="0" y="24">“I liked how the audit process was clear and </tspan><tspan x="0" y="50">easy to fill.”</tspan></text>
      <text id="_I_m_glad_I_don_t_have_to_mail_in_all_my_audit_paperwork_this_year._" data-name="“I’m glad I don’t have to mail in all my audit paperwork this year.”" transform="translate(331 160)" font-size="24" font-family="Asure-Regular, Asure"><tspan x="0" y="24">“I’m glad I don’t have to mail in all my audit </tspan><tspan x="0" y="50">paperwork this year.”</tspan></text>
      <text id="_It_s_nice_to_be_able_to_do_this_online_now._" data-name="“It’s nice to be able to do this online now.”" transform="translate(331 379)" font-size="24" font-family="Asure-Regular, Asure"><tspan x="0" y="24">“It’s nice to be able to do this online now.”</tspan></text>
      <text id="_I_m_glad_it_tells_me_what_info_will_be_needed_before_starting_the_audit._" data-name="“I’m glad it tells me what info will be needed before starting the audit.”" transform="translate(331 270)" font-size="24" font-family="Asure-Regular, Asure"><tspan x="0" y="24">“I’m glad it tells me what info will be needed </tspan><tspan x="0" y="50">before starting the audit.”</tspan></text>
      <text id="_The_site_should_highlight_what_is_missing_erroneous_instead_of_leaving_the_user_to_guess_why_the_next_step_can_t_be_achieved._" data-name="“The site should highlight what is missing/erroneous instead of leaving the user to guess why the next step can’t be achieved.“" transform="translate(913 127)" font-size="24" font-family="Asure-Regular, Asure"><tspan x="0" y="24">“The site should highlight what is missing/</tspan><tspan x="0" y="50">erroneous instead of leaving the user to guess </tspan><tspan x="0" y="76">why the next step can’t be achieved.“</tspan></text>
      <text id="_I_wish_the_fields_weren_t_so_confusing_when_reporting_for_a_business_owner_who_never_actually_received_a_paycheck._I_had_to_call_to_get_help._" data-name="“I wish the fields weren’t so confusing when reporting for a business owner who never actually received a paycheck. I had to call to get help.”" transform="translate(913 246)" font-size="24" font-family="Asure-Regular, Asure"><tspan x="0" y="24">“I wish the fields weren’t so confusing when </tspan><tspan x="0" y="50">reporting for a business owner who never </tspan><tspan x="0" y="76">actually received a paycheck. I had to call to get </tspan><tspan x="0" y="102">help.”</tspan></text>
      <text id="_I_would_like_to_have_been_able_to_print_out_the_audit_I_submitted_for_my_records._" data-name="“I would like to have been able to print out the audit I submitted for my records.”" transform="translate(913 380)" font-size="24" font-family="Asure-Regular, Asure"><tspan x="0" y="24">“I would like to have been able to print </tspan><tspan x="0" y="50">out the audit I submitted for my records.”</tspan></text>
      <text id="_Be_able_to_go_back_to_the_last_page_you_completed_when_you_login_a_second_time._" data-name="“Be able to go back to the last page you completed when you login a second time.”" transform="translate(906 549)" font-size="24" font-family="Asure-Regular, Asure"><tspan x="0" y="24">“Be able to go back to the last page you </tspan><tspan x="0" y="50">completed when you login a second time.”</tspan></text>
      <text id="_Add_information_on_previous_audits._" data-name="“Add information on previous audits.”" transform="translate(906 800)" font-size="24" font-family="Asure-Regular, Asure"><tspan x="0" y="24">“Add information on previous audits.”</tspan></text>
      <text id="_Give_me_estimated_timing_of_audit_completion._" data-name="“Give me estimated timing of audit completion.”" transform="translate(906 879)" font-size="24" font-family="Asure-Regular, Asure"><tspan x="0" y="24">“Give me estimated timing of audit completion.”</tspan></text>
      <text id="_Add_help_links._The_system_is_very_non-reactive_with_very_little_feedback._There_is_no_indication_of_something_missing_or_incomplete._" data-name="“Add help links. The system is very non-reactive with very little feedback. There is no indication of something missing or incomplete.” " transform="translate(906 663)" font-size="24" font-family="Asure-Regular, Asure"><tspan x="0" y="24">“Add help links. The system is very non-reactive </tspan><tspan x="0" y="50">with very little feedback. There is no indication </tspan><tspan x="0" y="76">of something missing or incomplete.” </tspan></text>
      <text id="_Why_is_there_is_no_indication_what_the_problem_is_when_the_site_wants_more_information_There_are_no_explanations_as_to_what_detail_is_requested_either._" data-name="“Why is there is no indication what the problem is when the site wants more information? There are no explanations as to what detail is requested either.”" transform="translate(314 689)" font-size="24" font-family="Asure-Regular, Asure"><tspan x="0" y="24">“Why is there is no indication what the problem is </tspan><tspan x="0" y="50">when the site wants more information? There are </tspan><tspan x="0" y="76">no explanations as to what detail is requested </tspan><tspan x="0" y="102">either.”</tspan></text>
      <text id="_Why_wasn_t_my_information_saved_even_though_I_clicked_on_Save_and_Verify_each_time_" data-name="“Why wasn’t my information saved even though I clicked on Save and Verify each time?”" transform="translate(314 558)" font-size="24" font-family="Asure-Regular, Asure"><tspan x="0" y="24">“Why wasn’t my information saved even though I </tspan><tspan x="0" y="50">clicked on Save and Verify each time?”</tspan></text>
      <text id="_I_answered_all_the_questions_so_why_won_t_it_let_me_submit_" data-name="“I answered all the questions, so why won’t it let me submit?”" transform="translate(314 831)" font-size="24" font-family="Asure-Regular, Asure"><tspan x="0" y="24">“I answered all the questions, so why won’t it </tspan><tspan x="0" y="50">let me submit?”</tspan></text>
      <g id="Group_1990" data-name="Group 1990" transform="translate(-67 -441)">
        <path id="plus" d="M90.4,40.767H60.265a1.773,1.773,0,0,1-1.772-1.772V8.862a8.862,8.862,0,1,0-17.725,0V38.995a1.773,1.773,0,0,1-1.772,1.772H8.862a8.862,8.862,0,1,0,0,17.725H38.995a1.773,1.773,0,0,1,1.772,1.772V90.4a8.862,8.862,0,0,0,17.725,0V60.265a1.773,1.773,0,0,1,1.772-1.772H90.4a8.862,8.862,0,0,0,0-17.725Zm0,0" transform="translate(164 571)" fill="#2116ea"/>
        <text id="Likes" transform="translate(160 701)" fill="#2116ea" font-size="40" font-family="Graphik-Bold, Graphik" font-weight="700"><tspan x="0" y="44">Likes</tspan></text>
      </g>
      <g id="Group_1991" data-name="Group 1991" transform="translate(-313 57)">
        <g id="question" transform="translate(351 571)">
          <ellipse id="Ellipse_460" data-name="Ellipse 460" cx="13" cy="12.5" rx="13" ry="12.5" transform="translate(119 82)" fill="#2116ea"/>
          <path id="Path_2773" data-name="Path 2773" d="M132.972,0A33.009,33.009,0,0,0,100,32.972v3.17h25.363v-3.17a7.609,7.609,0,1,1,12.525,5.806L120.29,53.74V76.512h25.363V65.466l8.661-7.363A32.971,32.971,0,0,0,132.972,0Z" fill="#2116ea"/>
        </g>
        <text id="Questions" transform="translate(381 702)" fill="#2116ea" font-size="40" font-family="Graphik-Bold, Graphik" font-weight="700"><tspan x="0" y="44">Questions</tspan></text>
      </g>
      <g id="Group_1993" data-name="Group 1993" transform="translate(411 -441)">
        <g id="greek" transform="translate(1154 574.609)">
          <path id="Path_2764" data-name="Path 2764" d="M92.725,99.65H6.8A6.8,6.8,0,0,1,.722,89.8L43.684,4.142a6.8,6.8,0,0,1,12.157,0L98.8,89.8a6.8,6.8,0,0,1-6.078,9.849ZM17.818,86.05H81.707L49.763,22.359Z" fill="#2116ea"/>
        </g>
        <text id="Wishes" transform="translate(1131 706)" fill="#2116ea" font-size="40" font-family="Graphik-Bold, Graphik" font-weight="700"><tspan x="0" y="44">Wishes</tspan></text>
      </g>
      <g id="Group_1992" data-name="Group 1992" transform="translate(787 61)">
        <g id="idea_1_" data-name="idea (1)" transform="translate(768 567)">
          <path id="Path_2774" data-name="Path 2774" d="M14.856,16.623a3.608,3.608,0,0,1-3.606-3.606V3.606a3.606,3.606,0,0,1,7.213,0v9.41A3.608,3.608,0,0,1,14.856,16.623Z" transform="translate(42.847)" fill="#2116ea"/>
          <path id="Path_2775" data-name="Path 2775" d="M21.426,17.166a3.609,3.609,0,0,1-2.549-6.16l6.655-6.655a3.608,3.608,0,0,1,5.1,5.1L23.98,16.108A3.617,3.617,0,0,1,21.426,17.166Z" transform="translate(67.874 12.546)" fill="#2116ea"/>
          <path id="Path_2776" data-name="Path 2776" d="M33.56,18.463h-9.41a3.606,3.606,0,0,1,0-7.213h9.41a3.606,3.606,0,1,1,0,7.213Z" transform="translate(78.24 42.847)" fill="#2116ea"/>
          <path id="Path_2777" data-name="Path 2777" d="M28.082,31.692a3.578,3.578,0,0,1-2.549-1.058l-6.655-6.655a3.608,3.608,0,0,1,5.1-5.1l6.655,6.655a3.609,3.609,0,0,1-2.553,6.16Z" transform="translate(67.874 67.87)" fill="#2116ea"/>
          <path id="Path_2778" data-name="Path 2778" d="M6.9,31.692a3.609,3.609,0,0,1-2.549-6.16l6.655-6.655a3.608,3.608,0,1,1,5.1,5.1L9.454,30.634A3.6,3.6,0,0,1,6.9,31.692Z" transform="translate(12.55 67.87)" fill="#2116ea"/>
          <path id="Path_2779" data-name="Path 2779" d="M13.017,18.463H3.606a3.606,3.606,0,0,1,0-7.213h9.41a3.606,3.606,0,0,1,0,7.213Z" transform="translate(0 42.847)" fill="#2116ea"/>
          <path id="Path_2780" data-name="Path 2780" d="M13.556,17.166a3.578,3.578,0,0,1-2.549-1.058L4.352,9.453a3.608,3.608,0,0,1,5.1-5.1l6.655,6.655a3.609,3.609,0,0,1-2.553,6.16Z" transform="translate(12.55 12.546)" fill="#2116ea"/>
          <path id="Path_2781" data-name="Path 2781" d="M37.852,21v6.011a8.455,8.455,0,0,1-8.415,8.415H17.415C13.376,35.426,9,32.348,9,25.616V21Z" transform="translate(34.277 79.98)" fill="#2116ea"/>
          <path id="Path_2782" data-name="Path 2782" d="M59.871,12.5a33.663,33.663,0,1,0-41.45,53.039A14.52,14.52,0,0,1,23.9,74.719v.048a.818.818,0,0,1,.337-.048H53.091a.433.433,0,0,1,.24.048v-.048A16.039,16.039,0,0,1,59.486,65.1,33.679,33.679,0,0,0,59.871,12.5ZM56.7,41.059a3.633,3.633,0,0,1-3.606-3.606A13.216,13.216,0,0,0,39.867,24.229a3.606,3.606,0,0,1,0-7.213A20.481,20.481,0,0,1,60.3,37.453,3.633,3.633,0,0,1,56.7,41.059Z" transform="translate(19.038 19.048)" fill="#2116ea"/>
          <path id="Path_2783" data-name="Path 2783" d="M8.93,19.5h.337a.818.818,0,0,0-.337.048Z" transform="translate(34.011 74.268)" fill="#2116ea"/>
          <path id="Path_2784" data-name="Path 2784" d="M15.24,19.5v.048A.433.433,0,0,0,15,19.5Z" transform="translate(57.129 74.268)" fill="#2116ea"/>
        </g>
        <text id="Ideas" transform="translate(772 701)" fill="#2116ea" font-size="40" font-family="Graphik-Bold, Graphik" font-weight="700"><tspan x="0" y="44">Ideas</tspan></text>
      </g>
    </g>
  </g>
</svg>
