<svg xmlns="http://www.w3.org/2000/svg" width="405" height="827" viewBox="0 0 405 827">
  <g id="Group_2471" data-name="Group 2471" transform="translate(-3321 11690)">
    <g id="Rectangle_2440" data-name="Rectangle 2440" transform="translate(3321 -11690)" fill="#fff" stroke="#707070" stroke-width="1">
      <rect width="405" height="827" stroke="none"/>
      <rect x="0.5" y="0.5" width="404" height="826" fill="none"/>
    </g>
    <g id="Group_2470" data-name="Group 2470" transform="translate(-13)">
      <g id="Group_2455" data-name="Group 2455" transform="translate(-1346 37)">
        <g id="Rectangle_2425" data-name="Rectangle 2425" transform="translate(4805 -11690)" fill="#fff" stroke="#707070" stroke-width="1">
          <rect width="250" height="753" stroke="none"/>
          <rect x="0.5" y="0.5" width="249" height="752" fill="none"/>
        </g>
        <g id="Group_2432" data-name="Group 2432" transform="translate(-1 -1)">
          <text id="Completed_2_days_ago" data-name="Completed 2 days ago" transform="translate(4890 -11516)" fill="rgba(0,0,0,0.87)" font-size="14" font-family="SourceSansPro-Regular, Source Sans Pro" opacity="0.5"><tspan x="0" y="0">Completed 2 days ago</tspan></text>
          <text id="To_Do" data-name="To Do" transform="translate(4890 -11184)" fill="rgba(0,0,0,0.87)" font-size="14" font-family="SourceSansPro-Regular, Source Sans Pro" opacity="0.5"><tspan x="0" y="0">To Do</tspan></text>
          <text id="Policy_Info" data-name="Policy Info" transform="translate(4891 -11536)" fill="rgba(0,0,0,0.87)" font-size="16" font-family="SourceSansPro-SemiBold, Source Sans Pro" font-weight="600"><tspan x="0" y="0">Policy Info</tspan></text>
          <text id="Claims" transform="translate(4891 -11204)" fill="rgba(0,0,0,0.87)" font-size="16" font-family="SourceSansPro-SemiBold, Source Sans Pro" font-weight="600"><tspan x="0" y="0">Claims</tspan></text>
          <text id="Completed_8_hours_ago" data-name="Completed 8 hours ago" transform="translate(4890 -11434)" fill="rgba(0,0,0,0.87)" font-size="14" font-family="SourceSansPro-Regular, Source Sans Pro" opacity="0.5"><tspan x="0" y="0">Completed 8 hours ago</tspan></text>
          <text id="To_Do-2" data-name="To Do" transform="translate(4890 -11102)" fill="rgba(0,0,0,0.87)" font-size="14" font-family="SourceSansPro-Regular, Source Sans Pro" opacity="0.5"><tspan x="0" y="0">To Do</tspan></text>
          <text id="Locations" transform="translate(4891 -11454)" fill="rgba(0,0,0,0.87)" font-size="16" font-family="SourceSansPro-SemiBold, Source Sans Pro" font-weight="600"><tspan x="0" y="0">Locations</tspan></text>
          <text id="Documents" transform="translate(4891 -11122)" fill="rgba(0,0,0,0.87)" font-size="16" font-family="SourceSansPro-SemiBold, Source Sans Pro" font-weight="600"><tspan x="0" y="0">Documents</tspan></text>
          <text id="Completed_4_hours_ago" data-name="Completed 4 hours ago" transform="translate(4890 -11352)" fill="rgba(0,0,0,0.87)" font-size="14" font-family="SourceSansPro-Regular, Source Sans Pro" opacity="0.5"><tspan x="0" y="0">Completed 4 hours ago</tspan></text>
          <text id="To_Do-3" data-name="To Do" transform="translate(4890 -11020)" fill="rgba(0,0,0,0.87)" font-size="14" font-family="SourceSansPro-Regular, Source Sans Pro" opacity="0.5"><tspan x="0" y="0">To Do</tspan></text>
          <text id="Payroll" transform="translate(4891 -11372)" fill="rgba(0,0,0,0.87)" font-size="16" font-family="SourceSansPro-SemiBold, Source Sans Pro" font-weight="600"><tspan x="0" y="0">Payroll</tspan></text>
          <text id="Review_Submit" data-name="Review &amp; Submit" transform="translate(4891 -11040)" fill="rgba(0,0,0,0.87)" font-size="16" font-family="SourceSansPro-SemiBold, Source Sans Pro" font-weight="600"><tspan x="0" y="0">Review &amp; Submit</tspan></text>
          <text id="Started_2_hours_ago" data-name="Started 2 hours ago" transform="translate(4890 -11270)" fill="rgba(0,0,0,0.87)" font-size="14" font-family="SourceSansPro-Regular, Source Sans Pro" opacity="0.5"><tspan x="0" y="0">Started 2 hours ago</tspan></text>
          <text id="Owners" transform="translate(4891 -11290)" fill="rgba(0,0,0,0.87)" font-size="16" font-family="SourceSansPro-SemiBold, Source Sans Pro" font-weight="600"><tspan x="0" y="0">Owners</tspan></text>
          <rect id="Line" width="1" height="38" transform="translate(4860 -11343)" fill="#e9e9f0"/>
          <rect id="Line-2" data-name="Line" width="1" height="38" transform="translate(4861 -11261)" fill="#e9e9f0"/>
          <rect id="Line-3" data-name="Line" width="1" height="38" transform="translate(4860 -11426)" fill="#e9e9f0"/>
          <rect id="Line-4" data-name="Line" width="1" height="38" transform="translate(4860 -11509)" fill="#e9e9f0"/>
          <g id="Ellipse" transform="translate(4842 -11302)" fill="#fff" stroke="#29339b" stroke-width="2">
            <circle cx="19" cy="19" r="19" stroke="none"/>
            <circle cx="19" cy="19" r="18" fill="none"/>
          </g>
          <g id="Ellipse-2" data-name="Ellipse" transform="translate(4842 -11385)" fill="#29339b" stroke="#29339b" stroke-width="2">
            <circle cx="19" cy="19" r="19" stroke="none"/>
            <circle cx="19" cy="19" r="18" fill="none"/>
          </g>
          <g id="Ellipse-3" data-name="Ellipse" transform="translate(4842 -11467)" fill="#29339b" stroke="#29339b" stroke-width="2">
            <circle cx="19" cy="19" r="19" stroke="none"/>
            <circle cx="19" cy="19" r="18" fill="none"/>
          </g>
          <g id="Ellipse-4" data-name="Ellipse" transform="translate(4842 -11550)" fill="#29339b" stroke="#29339b" stroke-width="2">
            <circle cx="19" cy="19" r="19" stroke="none"/>
            <circle cx="19" cy="19" r="18" fill="none"/>
          </g>
          <rect id="Line-5" data-name="Line" width="1" height="38" transform="translate(4860 -11094)" fill="#e9e9f0"/>
          <rect id="Line-6" data-name="Line" width="1" height="38" transform="translate(4860 -11177)" fill="#e9e9f0"/>
          <g id="Ellipse-5" data-name="Ellipse" transform="translate(4842 -11053)" fill="#fff" stroke="#29339b" stroke-width="2">
            <circle cx="19" cy="19" r="19" stroke="none"/>
            <circle cx="19" cy="19" r="18" fill="none"/>
          </g>
          <g id="Ellipse-6" data-name="Ellipse" transform="translate(4842 -11135)" fill="#fff" stroke="#29339b" stroke-width="2">
            <circle cx="19" cy="19" r="19" stroke="none"/>
            <circle cx="19" cy="19" r="18" fill="none"/>
          </g>
          <g id="Ellipse-7" data-name="Ellipse" transform="translate(4842 -11218)" fill="#fff" stroke="#29339b" stroke-width="2">
            <circle cx="19" cy="19" r="19" stroke="none"/>
            <circle cx="19" cy="19" r="18" fill="none"/>
          </g>
          <text id="My_Audit" data-name="My Audit" transform="translate(4842 -11588)" fill="rgba(0,0,0,0.87)" font-size="20" font-family="SourceSansPro-SemiBold, Source Sans Pro" font-weight="600"><tspan x="0" y="0">My Audit</tspan></text>
          <text id="_48_Complete_" data-name="48% Complete " transform="translate(4818 -11648)" fill="rgba(0,0,0,0.87)" font-size="12" font-family="SourceSansPro-Regular, Source Sans Pro"><tspan x="0" y="0">48% Complete </tspan></text>
          <rect id="Rectangle_2426" data-name="Rectangle 2426" width="200" height="5" rx="2.5" transform="translate(4818 -11673)" fill="#f0f2f8"/>
          <rect id="Rectangle_2427" data-name="Rectangle 2427" width="99" height="5" rx="2.5" transform="translate(4818 -11673)" fill="#29339b"/>
          <path id="home" d="M22.595,13.312,11.3,4.543,0,13.312V9.737L11.3.967l11.3,8.77Zm-2.824-.318v8.473H14.122V15.818H8.473v5.649H2.824V12.994L11.3,6.639Z" transform="translate(4849.451 -11459.967)" fill="#fff"/>
          <path id="coins-regular" d="M14.047,0C9.394,0,5.619,1.572,5.619,3.512V5.821C2.349,6.3,0,7.6,0,9.131v9.833c0,1.94,3.775,3.512,8.428,3.512s8.428-1.572,8.428-3.512V16.65c3.27-.483,5.619-1.778,5.619-3.305V3.512C22.476,1.572,18.7,0,14.047,0Zm.7,18.8c-.439.514-2.651,1.567-6.321,1.567S2.546,19.315,2.107,18.8V17.067a15.41,15.41,0,0,0,6.321,1.194,15.41,15.41,0,0,0,6.321-1.194Zm0-4.214c-.439.514-2.651,1.567-6.321,1.567S2.546,15.1,2.107,14.587V12.616a13.172,13.172,0,0,0,6.321,1.431,13.223,13.223,0,0,0,6.321-1.431ZM8.428,11.94c-3.49,0-6.321-.944-6.321-2.107S4.938,7.726,8.428,7.726s6.321.944,6.321,2.107S11.918,11.94,8.428,11.94Zm11.94,1.242a7.077,7.077,0,0,1-3.512,1.334V12.423a12.778,12.778,0,0,0,3.512-.975Zm0-4.214A7.077,7.077,0,0,1,16.857,10.3V9.131a1.7,1.7,0,0,0-.3-.917,11.411,11.411,0,0,0,3.81-1.22V8.968ZM14.047,6.321c-.219,0-.43-.013-.645-.022a16.717,16.717,0,0,0-3.968-.654c-1.049-.378-1.708-.878-1.708-1.431,0-1.163,2.831-2.107,6.321-2.107s6.321.944,6.321,2.107S17.537,6.321,14.047,6.321Z" transform="translate(4850 -11377)" fill="#fff"/>
          <path id="user-md-regular" d="M9.023,11.6a5.8,5.8,0,1,0-5.8-5.8A5.8,5.8,0,0,0,9.023,11.6Zm0-9.667A3.867,3.867,0,1,1,5.156,5.8,3.873,3.873,0,0,1,9.023,1.933Zm3.609,10.312a3.985,3.985,0,0,0-1.3.25,6.969,6.969,0,0,1-4.624,0,3.985,3.985,0,0,0-1.3-.25A5.415,5.415,0,0,0,0,17.659v2a.967.967,0,1,0,1.933,0v-2A3.476,3.476,0,0,1,5.156,14.2v2.014a2.256,2.256,0,1,0,1.289,0v-1.8a8.906,8.906,0,0,0,2.578.407,8.885,8.885,0,0,0,2.578-.407v1.462a2.681,2.681,0,0,0-1.933,2.6v1.176a.647.647,0,0,0,.189.455l.415.415a.323.323,0,0,0,.455,0l.455-.455a.323.323,0,0,0,0-.455l-.23-.23V18.368A1.3,1.3,0,0,1,12.459,17.1a1.341,1.341,0,0,1,1.071,1.341v.951l-.23.23a.323.323,0,0,0,0,.455l.455.455a.323.323,0,0,0,.455,0l.415-.415a.647.647,0,0,0,.189-.455V18.368a2.57,2.57,0,0,0-1.933-2.481v-1.68A3.473,3.473,0,0,1,16.1,17.663v1.994a.967.967,0,1,0,1.933,0v-2a5.4,5.4,0,0,0-5.406-5.414ZM6.767,18.368A.967.967,0,1,1,5.8,17.4.964.964,0,0,1,6.767,18.368Z" transform="translate(4852 -11210)" fill="#29339b"/>
          <path id="file-alt-regular" d="M12.656,10.9v1.23a.529.529,0,0,1-.527.527H4.746a.529.529,0,0,1-.527-.527V10.9a.529.529,0,0,1,.527-.527h7.383A.529.529,0,0,1,12.656,10.9Zm-.527,3.164H4.746a.529.529,0,0,0-.527.527v1.23a.529.529,0,0,0,.527.527h7.383a.529.529,0,0,0,.527-.527V14.59A.529.529,0,0,0,12.129,14.063ZM16.875,5.8V20.391A2.11,2.11,0,0,1,14.766,22.5H2.109A2.11,2.11,0,0,1,0,20.391V2.109A2.11,2.11,0,0,1,2.109,0h8.969a2.109,2.109,0,0,1,1.49.62l3.687,3.687A2.1,2.1,0,0,1,16.875,5.8ZM11.25,2.281V5.625h3.344L11.25,2.281Zm3.516,18.11V7.734H10.2A1.052,1.052,0,0,1,9.141,6.68V2.109H2.109V20.391Z" transform="translate(4853 -11542)" fill="#fff"/>
          <path id="cabinet-filing-regular" d="M18.625,0H1.927A1.927,1.927,0,0,0,0,1.927v16.7a1.927,1.927,0,0,0,1.927,1.927h16.7a1.927,1.927,0,0,0,1.927-1.927V1.927A1.927,1.927,0,0,0,18.625,0Zm0,18.625H1.927V11.239h16.7Zm0-9.313H1.927V1.927h16.7ZM6.422,7.065h.642a.642.642,0,0,0,.642-.642V6.1h5.138v.321a.642.642,0,0,0,.642.642h.642a.642.642,0,0,0,.642-.642V5.459a1.285,1.285,0,0,0-1.284-1.284H7.065A1.285,1.285,0,0,0,5.78,5.459v.963A.642.642,0,0,0,6.422,7.065Zm0,9.313h.642a.642.642,0,0,0,.642-.642v-.321h5.138v.321a.642.642,0,0,0,.642.642h.642a.642.642,0,0,0,.642-.642v-.963a1.285,1.285,0,0,0-1.284-1.284H7.065A1.285,1.285,0,0,0,5.78,14.772v.963A.642.642,0,0,0,6.422,16.377Z" transform="translate(4851 -11126)" fill="#29339b"/>
          <path id="briefcase-regular" d="M19.813,36.1H16.4V34.05A2.05,2.05,0,0,0,14.347,32H7.515a2.05,2.05,0,0,0-2.05,2.05V36.1H2.05A2.05,2.05,0,0,0,0,38.149V49.08a2.05,2.05,0,0,0,2.05,2.05H19.813a2.05,2.05,0,0,0,2.05-2.05V38.149A2.05,2.05,0,0,0,19.813,36.1Zm-12.3-2.05h6.832V36.1H7.515Zm-5.209,4.1H19.557a.256.256,0,0,1,.256.256v3.16H2.05v-3.16A.256.256,0,0,1,2.306,38.149ZM19.557,49.08H2.306a.256.256,0,0,1-.256-.256V43.615H8.2v1.025a1.025,1.025,0,0,0,1.025,1.025h3.416a1.025,1.025,0,0,0,1.025-1.025V43.615h6.149v5.209A.256.256,0,0,1,19.557,49.08Z" transform="translate(4850 -11325)" fill="#29339b"/>
          <path id="rocket-launch-regular" d="M1.429,14.1C.393,15.132-.118,17.721.023,20.476c2.767.142,5.35-.374,6.381-1.406A3.534,3.534,0,1,0,1.429,14.1ZM4.7,17.461a3.136,3.136,0,0,1-2.127.468A3.138,3.138,0,0,1,3.039,15.8,1.178,1.178,0,1,1,4.7,17.461ZM20.226.773a.727.727,0,0,0-.5-.5A14.532,14.532,0,0,0,16.433,0C12.3,0,9.822,2.21,7.971,5.125H3.8A2.108,2.108,0,0,0,2.082,6.186L.1,10.142a1.137,1.137,0,0,0-.1.429.961.961,0,0,0,.961.961H5.126A3.844,3.844,0,0,1,8.97,15.375v4.164a.961.961,0,0,0,.961.961,1.143,1.143,0,0,0,.429-.1l3.954-1.978a2.107,2.107,0,0,0,1.06-1.715V12.524C18.28,10.67,20.5,8.184,20.5,4.072A14.222,14.222,0,0,0,20.226.773ZM14.34,10.9a25.818,25.818,0,0,1-3.977,2.09A5.785,5.785,0,0,0,7.5,10.137,26.268,26.268,0,0,1,9.594,6.155c1.883-2.967,3.929-4.233,6.838-4.233a15.787,15.787,0,0,1,2.057.09,15.33,15.33,0,0,1,.087,2.06C18.577,6.966,17.31,9.009,14.34,10.9Zm.4-6.74a1.6,1.6,0,1,0,1.6,1.6A1.6,1.6,0,0,0,14.737,4.164Z" transform="translate(4851 -11044)" fill="#29339b"/>
          <g id="Group_2431" data-name="Group 2431" transform="translate(4806 -11690)">
            <rect id="Rectangle_2402" data-name="Rectangle 2402" width="251" height="70" transform="translate(0 369)" fill="rgba(27,59,111,0.05)"/>
            <rect id="Rectangle_2403" data-name="Rectangle 2403" width="11" height="70" transform="translate(0 369)" fill="#29339b"/>
          </g>
        </g>
      </g>
      <g id="Group_2469" data-name="Group 2469" transform="translate(-32)">
        <g id="Group_2465" data-name="Group 2465" transform="translate(3301 -11781)">
          <circle id="Ellipse_565" data-name="Ellipse 565" cx="29" cy="29" r="29" transform="translate(94 128)" fill="#29d9c2"/>
          <text id="_1" data-name="1" transform="translate(109 138)" fill="#fff" font-size="30" font-family="SourceSansPro-Bold, Source Sans Pro" font-weight="700" letter-spacing="0.003em"><tspan x="6.08" y="30">1</tspan></text>
        </g>
        <g id="Group_2466" data-name="Group 2466" transform="translate(3301 -11762)">
          <circle id="Ellipse_563" data-name="Ellipse 563" cx="29" cy="29" r="29" transform="translate(94 241)" fill="#29d9c2"/>
          <text id="_2" data-name="2" transform="translate(109 251)" fill="#fff" font-size="30" font-family="SourceSansPro-Bold, Source Sans Pro" font-weight="700" letter-spacing="0.003em"><tspan x="6.08" y="30">2</tspan></text>
        </g>
        <g id="Group_2467" data-name="Group 2467" transform="translate(3301 -11621)">
          <circle id="Ellipse_564" data-name="Ellipse 564" cx="29" cy="29" r="29" transform="translate(94 345)" fill="#29d9c2"/>
          <text id="_3" data-name="3" transform="translate(109 355)" fill="#fff" font-size="30" font-family="SourceSansPro-Bold, Source Sans Pro" font-weight="700" letter-spacing="0.003em"><tspan x="6.08" y="30">3</tspan></text>
        </g>
        <g id="Group_2468" data-name="Group 2468" transform="translate(3301 -11565)">
          <circle id="Ellipse_566" data-name="Ellipse 566" cx="29" cy="29" r="29" transform="translate(94 458)" fill="#29d9c2"/>
          <text id="_4" data-name="4" transform="translate(109 468)" fill="#fff" font-size="30" font-family="SourceSansPro-Bold, Source Sans Pro" font-weight="700" letter-spacing="0.003em"><tspan x="6.08" y="30">4</tspan></text>
        </g>
      </g>
      <path id="long-arrow-right-regular" d="M25.083,112.5l-1.666,1.666a1.019,1.019,0,0,0,.015,1.455l6.851,6.58H1.019A1.019,1.019,0,0,0,0,123.219V125.6a1.019,1.019,0,0,0,1.019,1.019H30.283l-6.851,6.58a1.018,1.018,0,0,0-.015,1.455l1.666,1.666a1.019,1.019,0,0,0,1.44,0L37.71,125.127a1.019,1.019,0,0,0,0-1.44L26.523,112.5a1.019,1.019,0,0,0-1.44,0Z" transform="translate(3428 -11745.201)" fill="#29d9c2"/>
      <path id="long-arrow-right-regular-2" data-name="long-arrow-right-regular" d="M25.083,112.5l-1.666,1.666a1.019,1.019,0,0,0,.015,1.455l6.851,6.58H1.019A1.019,1.019,0,0,0,0,123.219V125.6a1.019,1.019,0,0,0,1.019,1.019H30.283l-6.851,6.58a1.018,1.018,0,0,0-.015,1.455l1.666,1.666a1.019,1.019,0,0,0,1.44,0L37.71,125.127a1.019,1.019,0,0,0,0-1.44L26.523,112.5a1.019,1.019,0,0,0-1.44,0Z" transform="translate(3428 -11617.201)" fill="#29d9c2"/>
      <path id="long-arrow-right-regular-3" data-name="long-arrow-right-regular" d="M25.083,112.5l-1.666,1.666a1.019,1.019,0,0,0,.015,1.455l6.851,6.58H1.019A1.019,1.019,0,0,0,0,123.219V125.6a1.019,1.019,0,0,0,1.019,1.019H30.283l-6.851,6.58a1.018,1.018,0,0,0-.015,1.455l1.666,1.666a1.019,1.019,0,0,0,1.44,0L37.71,125.127a1.019,1.019,0,0,0,0-1.44L26.523,112.5a1.019,1.019,0,0,0-1.44,0Z" transform="translate(3428 -11370.201)" fill="#29d9c2"/>
      <path id="long-arrow-right-regular-4" data-name="long-arrow-right-regular" d="M25.083,112.5l-1.666,1.666a1.019,1.019,0,0,0,.015,1.455l6.851,6.58H1.019A1.019,1.019,0,0,0,0,123.219V125.6a1.019,1.019,0,0,0,1.019,1.019H30.283l-6.851,6.58a1.018,1.018,0,0,0-.015,1.455l1.666,1.666a1.019,1.019,0,0,0,1.44,0L37.71,125.127a1.019,1.019,0,0,0,0-1.44L26.523,112.5a1.019,1.019,0,0,0-1.44,0Z" transform="translate(3428 -11201.201)" fill="#29d9c2"/>
    </g>
  </g>
</svg>
