<svg xmlns="http://www.w3.org/2000/svg" xmlns:xlink="http://www.w3.org/1999/xlink" width="1145" height="603" viewBox="0 0 1145 603">
  <defs>
    <filter id="Rectangle_2410" x="226" y="185" width="147" height="49" filterUnits="userSpaceOnUse">
      <feOffset dy="3" input="SourceAlpha"/>
      <feGaussianBlur stdDeviation="3" result="blur"/>
      <feFlood flood-opacity="0.161"/>
      <feComposite operator="in" in2="blur"/>
      <feComposite in="SourceGraphic"/>
    </filter>
    <filter id="Rectangle_2406" x="226" y="98" width="147" height="49" filterUnits="userSpaceOnUse">
      <feOffset dy="3" input="SourceAlpha"/>
      <feGaussianBlur stdDeviation="3" result="blur-2"/>
      <feFlood flood-opacity="0.161"/>
      <feComposite operator="in" in2="blur-2"/>
      <feComposite in="SourceGraphic"/>
    </filter>
    <filter id="Rectangle_2407" x="226" y="272" width="279" height="49" filterUnits="userSpaceOnUse">
      <feOffset dy="3" input="SourceAlpha"/>
      <feGaussianBlur stdDeviation="3" result="blur-3"/>
      <feFlood flood-opacity="0.161"/>
      <feComposite operator="in" in2="blur-3"/>
      <feComposite in="SourceGraphic"/>
    </filter>
    <filter id="Rectangle_2408" x="226" y="359" width="279" height="49" filterUnits="userSpaceOnUse">
      <feOffset dy="3" input="SourceAlpha"/>
      <feGaussianBlur stdDeviation="3" result="blur-4"/>
      <feFlood flood-opacity="0.161"/>
      <feComposite operator="in" in2="blur-4"/>
      <feComposite in="SourceGraphic"/>
    </filter>
    <filter id="Rectangle_2409" x="226" y="446" width="401" height="85" filterUnits="userSpaceOnUse">
      <feOffset dy="3" input="SourceAlpha"/>
      <feGaussianBlur stdDeviation="3" result="blur-5"/>
      <feFlood flood-opacity="0.161"/>
      <feComposite operator="in" in2="blur-5"/>
      <feComposite in="SourceGraphic"/>
    </filter>
  </defs>
  <g id="Group_2490" data-name="Group 2490" transform="translate(-6111 12714)">
    <g id="Rectangle_2419" data-name="Rectangle 2419" transform="translate(6111 -12714)" fill="#fff" stroke="#707070" stroke-width="1">
      <rect width="1145" height="603" stroke="none"/>
      <rect x="0.5" y="0.5" width="1144" height="602" fill="none"/>
    </g>
    <g id="Group_2483" data-name="Group 2483" transform="translate(185)">
      <g id="Group_2414" data-name="Group 2414" transform="translate(5800 -12890)">
        <text id="Total_Stock" data-name="Total Stock" transform="translate(361 359)" fill="rgba(0,0,0,0.87)" font-size="12" font-family="SourceSansPro-SemiBold, Source Sans Pro" font-weight="600" opacity="0.5"><tspan x="0" y="0">Total Stock</tspan></text>
        <text id="_" data-name="%" transform="translate(467 388)" fill="rgba(0,0,0,0.87)" font-size="14" font-family="Roboto-Regular, Roboto" opacity="0.5"><tspan x="0" y="0">%</tspan></text>
        <text id="_51" data-name="51" transform="translate(380 388)" fill="rgba(0,0,0,0.87)" font-size="14" font-family="SourceSansPro-Regular, Source Sans Pro"><tspan x="0" y="0">51</tspan></text>
        <g transform="matrix(1, 0, 0, 1, 126, 176)" filter="url(#Rectangle_2410)">
          <g id="Rectangle_2410-2" data-name="Rectangle 2410" transform="translate(235 191)" fill="none" stroke="#e50a45" stroke-width="2">
            <rect width="129" height="31" rx="5" stroke="none"/>
            <rect x="1" y="1" width="127" height="29" rx="4" fill="none"/>
          </g>
        </g>
        <text id="Total_stock_owned_must_equal_100_" data-name="Total stock owned must equal 100%" transform="translate(531 374)" fill="#e50a45" font-size="12" font-family="SourceSansPro-SemiBold, Source Sans Pro" font-weight="600"><tspan x="0" y="12">Total stock owned must equal 100%</tspan></text>
        <path id="exclamation-circle-solid" d="M23,15.5A7.5,7.5,0,1,1,15.5,8,7.5,7.5,0,0,1,23,15.5Zm-7.5,1.512A1.391,1.391,0,1,0,16.891,18.4,1.391,1.391,0,0,0,15.5,17.012Zm-1.321-5,.224,4.113a.363.363,0,0,0,.362.343h1.468a.363.363,0,0,0,.362-.343l.224-4.113a.363.363,0,0,0-.362-.383H14.542a.363.363,0,0,0-.362.383Z" transform="translate(499 366)" fill="#e50a45"/>
      </g>
      <g id="Group_2415" data-name="Group 2415" transform="translate(5800 -12890)">
        <text id="Total_Gross_Wages" data-name="Total Gross Wages" transform="translate(361 272)" fill="rgba(0,0,0,0.87)" font-size="12" font-family="SourceSansPro-SemiBold, Source Sans Pro" font-weight="600" opacity="0.5"><tspan x="0" y="0">Total Gross Wages</tspan></text>
        <text id="_2" data-name="$" transform="translate(369 301)" fill="rgba(0,0,0,0.87)" font-size="14" font-family="Roboto-Regular, Roboto" opacity="0.5"><tspan x="0" y="0">$</tspan></text>
        <text id="_134_000" data-name="134,000" transform="translate(390 301)" fill="rgba(0,0,0,0.87)" font-size="14" font-family="SourceSansPro-Regular, Source Sans Pro"><tspan x="0" y="0">134,000</tspan></text>
        <g transform="matrix(1, 0, 0, 1, 126, 176)" filter="url(#Rectangle_2406)">
          <g id="Rectangle_2406-2" data-name="Rectangle 2406" transform="translate(235 104)" fill="none" stroke="rgba(0,0,0,0.5)" stroke-width="1">
            <rect width="129" height="31" rx="5" stroke="none"/>
            <rect x="0.5" y="0.5" width="128" height="30" rx="4.5" fill="none"/>
          </g>
        </g>
      </g>
      <g id="Group_2416" data-name="Group 2416" transform="translate(5800 -12890)">
        <g id="small-down" transform="translate(603 467)">
          <path id="Path_26" data-name="Path 26" d="M8.1,11.6,2.6,6.041,4.026,4.6,8.1,8.718,12.174,4.6,13.6,6.041Z" transform="translate(-2.6 -4.6)" fill="#a4afb7"/>
        </g>
        <text id="Wages_Location" data-name="Wages Location" transform="translate(361 446)" fill="rgba(0,0,0,0.87)" font-size="12" font-family="SourceSansPro-SemiBold, Source Sans Pro" font-weight="600" opacity="0.5"><tspan x="0" y="0">Wages Location</tspan></text>
        <text id="Select_a_Location" data-name="Select a Location" transform="translate(370 475)" fill="rgba(0,0,0,0.87)" font-size="14" font-family="SourceSansPro-Regular, Source Sans Pro"><tspan x="0" y="0">Select a Location</tspan></text>
        <g transform="matrix(1, 0, 0, 1, 126, 176)" filter="url(#Rectangle_2407)">
          <g id="Rectangle_2407-2" data-name="Rectangle 2407" transform="translate(235 278)" fill="none" stroke="rgba(0,0,0,0.5)" stroke-width="1">
            <rect width="261" height="31" rx="5" stroke="none"/>
            <rect x="0.5" y="0.5" width="260" height="30" rx="4.5" fill="none"/>
          </g>
        </g>
      </g>
      <g id="Group_2417" data-name="Group 2417" transform="translate(5800 -12890)">
        <g id="small-down-2" data-name="small-down" transform="translate(603 554)">
          <path id="Path_26-2" data-name="Path 26" d="M8.1,11.6,2.6,6.041,4.026,4.6,8.1,8.718,12.174,4.6,13.6,6.041Z" transform="translate(-2.6 -4.6)" fill="#a4afb7"/>
        </g>
        <text id="Wages_Class_Code" data-name="Wages Class Code" transform="translate(361 533)" fill="rgba(0,0,0,0.87)" font-size="12" font-family="SourceSansPro-SemiBold, Source Sans Pro" font-weight="600" opacity="0.5"><tspan x="0" y="0">Wages Class Code</tspan></text>
        <text id="Select_a_Class_Code" data-name="Select a Class Code" transform="translate(370 562)" fill="rgba(0,0,0,0.87)" font-size="14" font-family="SourceSansPro-Regular, Source Sans Pro"><tspan x="0" y="0">Select a Class Code</tspan></text>
        <g transform="matrix(1, 0, 0, 1, 126, 176)" filter="url(#Rectangle_2408)">
          <g id="Rectangle_2408-2" data-name="Rectangle 2408" transform="translate(235 365)" fill="none" stroke="rgba(0,0,0,0.5)" stroke-width="1">
            <rect width="261" height="31" rx="5" stroke="none"/>
            <rect x="0.5" y="0.5" width="260" height="30" rx="4.5" fill="none"/>
          </g>
        </g>
      </g>
      <g id="Group_2418" data-name="Group 2418" transform="translate(5800 -12890)">
        <text id="Work_Description" data-name="Work Description" transform="translate(361 620)" fill="rgba(0,0,0,0.87)" font-size="12" font-family="SourceSansPro-SemiBold, Source Sans Pro" font-weight="600" opacity="0.5"><tspan x="0" y="0">Work Description</tspan></text>
        <g transform="matrix(1, 0, 0, 1, 126, 176)" filter="url(#Rectangle_2409)">
          <g id="Rectangle_2409-2" data-name="Rectangle 2409" transform="translate(235 452)" fill="none" stroke="rgba(0,0,0,0.5)" stroke-width="1">
            <rect width="383" height="67" rx="5" stroke="none"/>
            <rect x="0.5" y="0.5" width="382" height="66" rx="4.5" fill="none"/>
          </g>
        </g>
        <text id="Lorem_ipsum_dolor_sit_amet_consectetur_adipiscing_elit_sed_do_eiusmod_tempor_incididunt_ut_labore_et_dolore_magna." data-name="Lorem ipsum dolor sit amet, consectetur adipiscing elit, sed do eiusmod tempor incididunt ut labore et dolore magna." transform="translate(369 641)" fill="rgba(0,0,0,0.87)" font-size="14" font-family="SourceSansPro-Regular, Source Sans Pro"><tspan x="0" y="14">Lorem ipsum dolor sit amet, consectetur adipiscing elit, sed do </tspan><tspan x="0" y="32">eiusmod tempor incididunt ut labore et dolore magna.</tspan></text>
      </g>
    </g>
    <g id="Group_2419" data-name="Group 2419" transform="translate(5798 -12872)">
      <text id="Gross_Wages_Total_Stock_-_Total_stock_owned_must_equal_100_Wages_Location_-_Select_an_answer_Wages_Class_Code_-_Select_an_answer_Work_Description" data-name="Gross Wages
Total Stock -  Total stock owned must equal 100%
Wages Location  -  Select an answer
Wages Class Code  -  Select an answer
Work Description" transform="translate(1157 347)" fill="rgba(0,0,0,0.87)" font-size="14" font-family="SourceSansPro-Regular, Source Sans Pro"><tspan x="0" y="14">Gross Wages</tspan><tspan x="0" y="64">Total Stock - </tspan><tspan y="64" xml:space="preserve" font-size="12" font-family="SourceSansPro-Italic, Source Sans Pro" font-style="italic"> Total stock owned must equal 100%</tspan><tspan x="0" y="114" xml:space="preserve">Wages Location  -  </tspan><tspan y="114" font-size="12" font-family="SourceSansPro-Italic, Source Sans Pro" font-style="italic">Select an answer</tspan><tspan x="0" y="164" xml:space="preserve">Wages Class Code  -  </tspan><tspan y="164" font-size="12" font-family="SourceSansPro-Italic, Source Sans Pro" font-style="italic">Select an answer</tspan><tspan x="0" y="214">Work Description</tspan></text>
      <path id="check-circle-solid_1_" data-name="check-circle-solid (1)" d="M23,15.5A7.5,7.5,0,1,1,15.5,8,7.5,7.5,0,0,1,23,15.5Zm-8.368,3.971L20.2,13.907a.484.484,0,0,0,0-.684l-.684-.684a.484.484,0,0,0-.684,0L14.29,17.076l-2.119-2.119a.484.484,0,0,0-.684,0l-.684.684a.484.484,0,0,0,0,.684l3.145,3.145a.484.484,0,0,0,.684,0Z" transform="translate(1235 339)" fill="lime"/>
      <path id="check-circle-solid_1_2" data-name="check-circle-solid (1)" d="M23,15.5A7.5,7.5,0,1,1,15.5,8,7.5,7.5,0,0,1,23,15.5Zm-8.368,3.971L20.2,13.907a.484.484,0,0,0,0-.684l-.684-.684a.484.484,0,0,0-.684,0L14.29,17.076l-2.119-2.119a.484.484,0,0,0-.684,0l-.684.684a.484.484,0,0,0,0,.684l3.145,3.145a.484.484,0,0,0,.684,0Z" transform="translate(1260 540)" fill="lime"/>
    </g>
    <line id="Line_992" data-name="Line 992" y2="50" transform="translate(6277.25 -12412.25) rotate(90)" fill="none" stroke="#e2e6eb" stroke-width="4"/>
    <line id="Line_993" data-name="Line 993" y2="50" transform="translate(6886.25 -12414.25) rotate(90)" fill="none" stroke="#e2e6eb" stroke-width="4"/>
    <path id="Path_3421" data-name="Path 3421" d="M369.976,0H0" transform="translate(6277 -12595.364) rotate(90)" fill="none" stroke="#e2e6eb" stroke-width="4"/>
    <path id="Path_3422" data-name="Path 3422" d="M203.922,0H0" transform="translate(6886 -12517.309) rotate(90)" fill="none" stroke="#e2e6eb" stroke-width="4"/>
    <g id="Group_2486" data-name="Group 2486" transform="translate(5756.407 -12545)">
      <g id="Group_1081" data-name="Group 1081" transform="translate(571.74 311.182) rotate(90)">
        <line id="Line_33" data-name="Line 33" y2="47.621" transform="translate(6.465 51.147) rotate(180)" fill="none" stroke="#e2e6eb" stroke-width="4"/>
        <path id="Path_45" data-name="Path 45" d="M1.634,13.191A1.635,1.635,0,0,1,.45,10.43L4.107,6.584.453,2.765A1.635,1.635,0,0,1,2.816.5L7.547,5.45a1.636,1.636,0,0,1,0,2.256L2.82,12.683A1.633,1.633,0,0,1,1.634,13.191Z" transform="translate(0 8) rotate(-90)" fill="#aab0bb"/>
      </g>
    </g>
    <g id="Group_2488" data-name="Group 2488" transform="translate(6365.407 -12633)">
      <g id="Group_1081-2" data-name="Group 1081" transform="translate(571.74 311.182) rotate(90)">
        <line id="Line_33-2" data-name="Line 33" y2="47.621" transform="translate(6.465 51.147) rotate(180)" fill="none" stroke="#e2e6eb" stroke-width="4"/>
        <path id="Path_45-2" data-name="Path 45" d="M1.634,13.191A1.635,1.635,0,0,1,.45,10.43L4.107,6.584.453,2.765A1.635,1.635,0,0,1,2.816.5L7.547,5.45a1.636,1.636,0,0,1,0,2.256L2.82,12.683A1.633,1.633,0,0,1,1.634,13.191Z" transform="translate(0 8) rotate(-90)" fill="#aab0bb"/>
      </g>
    </g>
    <g id="Group_2485" data-name="Group 2485" transform="translate(5756.407 -12911)">
      <g id="Group_1081-3" data-name="Group 1081" transform="translate(571.74 311.182) rotate(90)">
        <line id="Line_33-3" data-name="Line 33" y2="47.621" transform="translate(6.465 51.147) rotate(180)" fill="none" stroke="#e2e6eb" stroke-width="4"/>
        <path id="Path_45-3" data-name="Path 45" d="M1.634,13.191A1.635,1.635,0,0,1,.45,10.43L4.107,6.584.453,2.765A1.635,1.635,0,0,1,2.816.5L7.547,5.45a1.636,1.636,0,0,1,0,2.256L2.82,12.683A1.633,1.633,0,0,1,1.634,13.191Z" transform="translate(0 8) rotate(-90)" fill="#aab0bb"/>
      </g>
    </g>
    <g id="Group_2489" data-name="Group 2489" transform="translate(6365.407 -12833)">
      <g id="Group_1081-4" data-name="Group 1081" transform="translate(571.74 311.182) rotate(90)">
        <line id="Line_33-4" data-name="Line 33" y2="47.621" transform="translate(6.465 51.147) rotate(180)" fill="none" stroke="#e2e6eb" stroke-width="4"/>
        <path id="Path_45-4" data-name="Path 45" d="M1.634,13.191A1.635,1.635,0,0,1,.45,10.43L4.107,6.584.453,2.765A1.635,1.635,0,0,1,2.816.5L7.547,5.45a1.636,1.636,0,0,1,0,2.256L2.82,12.683A1.633,1.633,0,0,1,1.634,13.191Z" transform="translate(0 8) rotate(-90)" fill="#aab0bb"/>
      </g>
    </g>
    <g id="Group_2484" data-name="Group 2484" transform="translate(6059 -12569)">
      <circle id="Ellipse_565" data-name="Ellipse 565" cx="29" cy="29" r="29" transform="translate(94 128)" fill="#29d9c2"/>
      <text id="_1" data-name="1" transform="translate(109 138)" fill="#fff" font-size="30" font-family="SourceSansPro-Bold, Source Sans Pro" font-weight="700" letter-spacing="0.003em"><tspan x="6.08" y="30">1</tspan></text>
    </g>
    <g id="Group_2487" data-name="Group 2487" transform="translate(6668 -12571)">
      <circle id="Ellipse_565-2" data-name="Ellipse 565" cx="29" cy="29" r="29" transform="translate(94 128)" fill="#29d9c2"/>
      <text id="_2-2" data-name="2" transform="translate(109 138)" fill="#fff" font-size="30" font-family="SourceSansPro-Bold, Source Sans Pro" font-weight="700" letter-spacing="0.003em"><tspan x="6.08" y="30">2</tspan></text>
    </g>
  </g>
</svg>
