<svg xmlns="http://www.w3.org/2000/svg" width="748" height="764" viewBox="0 0 748 764">
  <g id="Group_2491" data-name="Group 2491" transform="translate(-5265 12714)">
    <g id="Rectangle_2441" data-name="Rectangle 2441" transform="translate(5265 -12714)" fill="#fff" stroke="#707070" stroke-width="1">
      <rect width="748" height="764" stroke="none"/>
      <rect x="0.5" y="0.5" width="747" height="763" fill="none"/>
    </g>
    <g id="Group_2472" data-name="Group 2472" transform="translate(1861 -676)">
      <g id="Rectangle_2418" data-name="Rectangle 2418" transform="translate(3583 -11996)" fill="#fff" stroke="#707070" stroke-width="1">
        <rect width="531" height="680" stroke="none"/>
        <rect x="0.5" y="0.5" width="530" height="679" fill="none"/>
      </g>
      <g id="Group_2406" data-name="Group 2406">
        <text id="Wait_before_you_go_" data-name="Wait, before you go… " transform="translate(3629 -11953)" fill="rgba(0,0,0,0.87)" font-size="30" font-family="SourceSansPro-Bold, Source Sans Pro" font-weight="700"><tspan x="0" y="30">Wait, before you go… </tspan></text>
        <text id="It_looks_like_you_re_not_quite_finished_with_this_section_but_that_s_okay_We_ve_saved_your_work_so_you_can_come_back_later_and_we_ll_remind_you_again_before_you_submit." data-name="It looks like you’re not quite finished with this section, but that’s okay!

We’ve saved your work so you can come back later, and we’ll remind you again before you submit." transform="translate(3629 -11881)" fill="rgba(0,0,0,0.87)" font-size="16" font-family="SourceSansPro-Regular, Source Sans Pro"><tspan x="0" y="16">It looks like you’re not quite finished with this section, but </tspan><tspan x="0" y="36">that’s okay!</tspan><tspan x="0" y="56"></tspan><tspan x="0" y="76">We’ve saved your work so you can come back later, and we’ll </tspan><tspan x="0" y="96">remind you again before you submit.</tspan></text>
        <text id="Do_you_want_to_move_to_the_next_section_" data-name="Do you want to move to the next section?" transform="translate(3629 -11468)" fill="rgba(0,0,0,0.87)" font-size="16" font-family="SourceSansPro-Regular, Source Sans Pro"><tspan x="0" y="16">Do you want to move to the next section?</tspan></text>
        <g id="Group_2402" data-name="Group 2402" transform="translate(-748 1075)">
          <rect id="bg" width="178" height="52" rx="26" transform="translate(4639 -12486)" fill="#29339b"/>
          <text id="Yes_next_please_" data-name="Yes, next please!" transform="translate(4728 -12453)" fill="#fff" font-size="16" font-family="Graphik-Semibold, Graphik" font-weight="600" letter-spacing="0.004em"><tspan x="-64.472" y="0">Yes, next please!</tspan></text>
          <rect id="bg-2" data-name="bg" width="154" height="52" rx="26" transform="translate(4385 -12486)" fill="rgba(149,153,179,0.2)"/>
          <text id="No_I_ll_stay" data-name="No, I’ll stay" transform="translate(4462 -12453)" fill="#29339b" font-size="16" font-family="Graphik-Semibold, Graphik" font-weight="600" letter-spacing="0.004em"><tspan x="-42.392" y="0">No, I’ll stay</tspan></text>
        </g>
        <g id="Group_2405" data-name="Group 2405">
          <text id="Gross_Wages_Total_Stock_-_Total_stock_owned_must_equal_100_Wages_Location_-_Select_an_answer_Wages_Class_Code_-_Select_an_answer_Work_Description" data-name="Gross Wages
Total Stock -  Total stock owned must equal 100%
Wages Location  -  Select an answer
Wages Class Code  -  Select an answer
Work Description" transform="translate(3655 -11730)" fill="rgba(0,0,0,0.87)" font-size="14" font-family="SourceSansPro-Regular, Source Sans Pro"><tspan x="0" y="14">Gross Wages</tspan><tspan x="0" y="64">Total Stock - </tspan><tspan y="64" xml:space="preserve" font-size="12" font-family="SourceSansPro-Italic, Source Sans Pro" font-style="italic"> Total stock owned must equal 100%</tspan><tspan x="0" y="114" xml:space="preserve">Wages Location  -  </tspan><tspan y="114" font-size="12" font-family="SourceSansPro-Italic, Source Sans Pro" font-style="italic">Select an answer</tspan><tspan x="0" y="164" xml:space="preserve">Wages Class Code  -  </tspan><tspan y="164" font-size="12" font-family="SourceSansPro-Italic, Source Sans Pro" font-style="italic">Select an answer</tspan><tspan x="0" y="214">Work Description</tspan></text>
          <path id="check-circle-solid_1_" data-name="check-circle-solid (1)" d="M23,15.5A7.5,7.5,0,1,1,15.5,8,7.5,7.5,0,0,1,23,15.5Zm-8.368,3.971L20.2,13.907a.484.484,0,0,0,0-.684l-.684-.684a.484.484,0,0,0-.684,0L14.29,17.076l-2.119-2.119a.484.484,0,0,0-.684,0l-.684.684a.484.484,0,0,0,0,.684l3.145,3.145a.484.484,0,0,0,.684,0Z" transform="translate(3735 -11738)" fill="lime"/>
          <path id="check-circle-solid_1_2" data-name="check-circle-solid (1)" d="M23,15.5A7.5,7.5,0,1,1,15.5,8,7.5,7.5,0,0,1,23,15.5Zm-8.368,3.971L20.2,13.907a.484.484,0,0,0,0-.684l-.684-.684a.484.484,0,0,0-.684,0L14.29,17.076l-2.119-2.119a.484.484,0,0,0-.684,0l-.684.684a.484.484,0,0,0,0,.684l3.145,3.145a.484.484,0,0,0,.684,0Z" transform="translate(3756 -11538)" fill="lime"/>
        </g>
      </g>
    </g>
    <line id="Line_987" data-name="Line 987" y2="50" transform="translate(5428.25 -12541.25) rotate(90)" fill="none" stroke="#e2e6eb" stroke-width="4"/>
    <line id="Line_991" data-name="Line 991" y2="50" transform="translate(5428.25 -12094.25) rotate(90)" fill="none" stroke="#e2e6eb" stroke-width="4"/>
    <path id="Path_3415" data-name="Path 3415" d="M88.975,0H0" transform="translate(5428 -12589.414) rotate(90)" fill="none" stroke="#e2e6eb" stroke-width="4"/>
    <path id="Path_3417" data-name="Path 3417" d="M88.975,0H0" transform="translate(5428 -12378.414) rotate(90)" fill="none" stroke="#e2e6eb" stroke-width="4"/>
    <path id="Path_3419" data-name="Path 3419" d="M55.44,0H0" transform="translate(5427 -12112.414) rotate(90)" fill="none" stroke="#e2e6eb" stroke-width="4"/>
    <line id="Line_990" data-name="Line 990" y2="50" transform="translate(5428.25 -12299.25) rotate(90)" fill="none" stroke="#e2e6eb" stroke-width="4"/>
    <path id="Path_3416" data-name="Path 3416" d="M139.921,0H0" transform="translate(5428 -12611.346) rotate(90)" fill="none" stroke="#e2e6eb" stroke-width="4"/>
    <path id="Path_3418" data-name="Path 3418" d="M203.966,0H0" transform="translate(5428 -12398.346) rotate(90)" fill="none" stroke="#e2e6eb" stroke-width="4"/>
    <path id="Path_3420" data-name="Path 3420" d="M77.978,0H0" transform="translate(5427 -12134.346) rotate(90)" fill="none" stroke="#e2e6eb" stroke-width="4"/>
    <g id="Group_1952" data-name="Group 1952" transform="translate(4907.407 -12791)">
      <g id="Group_1081" data-name="Group 1081" transform="translate(571.74 311.182) rotate(90)">
        <line id="Line_33" data-name="Line 33" y2="47.621" transform="translate(6.465 51.147) rotate(180)" fill="none" stroke="#e2e6eb" stroke-width="4"/>
        <path id="Path_45" data-name="Path 45" d="M1.634,13.191A1.635,1.635,0,0,1,.45,10.43L4.107,6.584.453,2.765A1.635,1.635,0,0,1,2.816.5L7.547,5.45a1.636,1.636,0,0,1,0,2.256L2.82,12.683A1.633,1.633,0,0,1,1.634,13.191Z" transform="translate(0 8) rotate(-90)" fill="#aab0bb"/>
      </g>
    </g>
    <g id="Group_2473" data-name="Group 2473" transform="translate(4907.407 -12514)">
      <g id="Group_1081-2" data-name="Group 1081" transform="translate(571.74 311.182) rotate(90)">
        <line id="Line_33-2" data-name="Line 33" y2="47.621" transform="translate(6.465 51.147) rotate(180)" fill="none" stroke="#e2e6eb" stroke-width="4"/>
        <path id="Path_45-2" data-name="Path 45" d="M1.634,13.191A1.635,1.635,0,0,1,.45,10.43L4.107,6.584.453,2.765A1.635,1.635,0,0,1,2.816.5L7.547,5.45a1.636,1.636,0,0,1,0,2.256L2.82,12.683A1.633,1.633,0,0,1,1.634,13.191Z" transform="translate(0 8) rotate(-90)" fill="#aab0bb"/>
      </g>
    </g>
    <g id="Group_2475" data-name="Group 2475" transform="translate(4907.407 -12376)">
      <g id="Group_1081-3" data-name="Group 1081" transform="translate(571.74 311.182) rotate(90)">
        <line id="Line_33-3" data-name="Line 33" y2="47.621" transform="translate(6.465 51.147) rotate(180)" fill="none" stroke="#e2e6eb" stroke-width="4"/>
        <path id="Path_45-3" data-name="Path 45" d="M1.634,13.191A1.635,1.635,0,0,1,.45,10.43L4.107,6.584.453,2.765A1.635,1.635,0,0,1,2.816.5L7.547,5.45a1.636,1.636,0,0,1,0,2.256L2.82,12.683A1.633,1.633,0,0,1,1.634,13.191Z" transform="translate(0 8) rotate(-90)" fill="#aab0bb"/>
      </g>
    </g>
    <g id="Group_1953" data-name="Group 1953" transform="translate(4907.407 -12927)">
      <g id="Group_1081-4" data-name="Group 1081" transform="translate(571.74 311.182) rotate(90)">
        <line id="Line_33-4" data-name="Line 33" y2="47.621" transform="translate(6.465 51.147) rotate(180)" fill="none" stroke="#e2e6eb" stroke-width="4"/>
        <path id="Path_45-4" data-name="Path 45" d="M1.634,13.191A1.635,1.635,0,0,1,.45,10.43L4.107,6.584.453,2.765A1.635,1.635,0,0,1,2.816.5L7.547,5.45a1.636,1.636,0,0,1,0,2.256L2.82,12.683A1.633,1.633,0,0,1,1.634,13.191Z" transform="translate(0 8) rotate(-90)" fill="#aab0bb"/>
      </g>
    </g>
    <g id="Group_2474" data-name="Group 2474" transform="translate(4907.407 -12714)">
      <g id="Group_1081-5" data-name="Group 1081" transform="translate(571.74 311.182) rotate(90)">
        <line id="Line_33-5" data-name="Line 33" y2="47.621" transform="translate(6.465 51.147) rotate(180)" fill="none" stroke="#e2e6eb" stroke-width="4"/>
        <path id="Path_45-5" data-name="Path 45" d="M1.634,13.191A1.635,1.635,0,0,1,.45,10.43L4.107,6.584.453,2.765A1.635,1.635,0,0,1,2.816.5L7.547,5.45a1.636,1.636,0,0,1,0,2.256L2.82,12.683A1.633,1.633,0,0,1,1.634,13.191Z" transform="translate(0 8) rotate(-90)" fill="#aab0bb"/>
      </g>
    </g>
    <g id="Group_2476" data-name="Group 2476" transform="translate(4906.407 -12450)">
      <g id="Group_1081-6" data-name="Group 1081" transform="translate(571.74 311.182) rotate(90)">
        <line id="Line_33-6" data-name="Line 33" y2="47.621" transform="translate(6.465 51.147) rotate(180)" fill="none" stroke="#e2e6eb" stroke-width="4"/>
        <path id="Path_45-6" data-name="Path 45" d="M1.634,13.191A1.635,1.635,0,0,1,.45,10.43L4.107,6.584.453,2.765A1.635,1.635,0,0,1,2.816.5L7.547,5.45a1.636,1.636,0,0,1,0,2.256L2.82,12.683A1.633,1.633,0,0,1,1.634,13.191Z" transform="translate(0 8) rotate(-90)" fill="#aab0bb"/>
      </g>
    </g>
    <g id="Group_2480" data-name="Group 2480" transform="translate(5210 -12698)">
      <circle id="Ellipse_565" data-name="Ellipse 565" cx="29" cy="29" r="29" transform="translate(94 128)" fill="#29d9c2"/>
      <text id="_1" data-name="1" transform="translate(109 138)" fill="#fff" font-size="30" font-family="SourceSansPro-Bold, Source Sans Pro" font-weight="700" letter-spacing="0.003em"><tspan x="6.08" y="30">1</tspan></text>
    </g>
    <g id="Group_2481" data-name="Group 2481" transform="translate(5210 -12569)">
      <circle id="Ellipse_563" data-name="Ellipse 563" cx="29" cy="29" r="29" transform="translate(94 241)" fill="#29d9c2"/>
      <text id="_2" data-name="2" transform="translate(109 251)" fill="#fff" font-size="30" font-family="SourceSansPro-Bold, Source Sans Pro" font-weight="700" letter-spacing="0.003em"><tspan x="6.08" y="30">2</tspan></text>
    </g>
    <g id="Group_2482" data-name="Group 2482" transform="translate(5210 -12468)">
      <circle id="Ellipse_564" data-name="Ellipse 564" cx="29" cy="29" r="29" transform="translate(94 345)" fill="#29d9c2"/>
      <text id="_3" data-name="3" transform="translate(109 355)" fill="#fff" font-size="30" font-family="SourceSansPro-Bold, Source Sans Pro" font-weight="700" letter-spacing="0.003em"><tspan x="6.08" y="30">3</tspan></text>
    </g>
  </g>
</svg>
