<svg xmlns="http://www.w3.org/2000/svg" width="1811" height="537" viewBox="0 0 1811 537">
  <g id="Group_2537" data-name="Group 2537" transform="translate(-479 14486)">
    <g id="Rectangle_2391" data-name="Rectangle 2391" transform="translate(479 -14486)" fill="#fff" stroke="#707070" stroke-width="1">
      <rect width="1811" height="537" stroke="none"/>
      <rect x="0.5" y="0.5" width="1810" height="536" fill="none"/>
    </g>
    <g id="Group_2536" data-name="Group 2536" transform="translate(-10 5)">
      <g id="Rectangle_1684" data-name="Rectangle 1684" transform="translate(547 -14277)" fill="rgba(41,51,155,0.1)" stroke="#29339b" stroke-width="2" stroke-dasharray="5">
        <rect width="107" height="63" rx="10" stroke="none"/>
        <rect x="1" y="1" width="105" height="61" rx="9" fill="none"/>
      </g>
      <text id="Audit_Intro" data-name="Audit Intro" transform="translate(567 -14250)" fill="rgba(0,0,0,0.87)" font-size="12" font-family="ProximaNova-Bold, Proxima Nova" font-weight="700"><tspan x="4.658" y="9">Audit Intro</tspan></text>
      <g id="Group_2323" data-name="Group 2323" transform="translate(696 -14677)">
        <line id="Line_26" data-name="Line 26" x2="30" transform="translate(138.092 432.646)" fill="none" stroke="#e2e6eb" stroke-width="4"/>
        <path id="Path_35" data-name="Path 35" d="M10.689,13.191A1.635,1.635,0,0,1,9.5,10.43l3.657-3.846L9.508,2.764A1.635,1.635,0,0,1,11.871.5L16.6,5.45a1.636,1.636,0,0,1,0,2.256l-4.731,4.976A1.633,1.633,0,0,1,10.689,13.191Z" transform="translate(154.592 426.182)" fill="#aab0bb"/>
      </g>
      <g id="Group_2324" data-name="Group 2324" transform="translate(531 -14676)">
        <line id="Line_26-2" data-name="Line 26" x2="30" transform="translate(138.092 432.646)" fill="none" stroke="#e2e6eb" stroke-width="4"/>
        <path id="Path_35-2" data-name="Path 35" d="M10.689,13.191A1.635,1.635,0,0,1,9.5,10.43l3.657-3.846L9.508,2.764A1.635,1.635,0,0,1,11.871.5L16.6,5.45a1.636,1.636,0,0,1,0,2.256l-4.731,4.976A1.633,1.633,0,0,1,10.689,13.191Z" transform="translate(154.592 426.182)" fill="#aab0bb"/>
      </g>
      <g id="Group_2325" data-name="Group 2325" transform="translate(1033.646 -14461.092) rotate(90)">
        <line id="Line_26-3" data-name="Line 26" x2="30" transform="translate(138.092 432.646)" fill="none" stroke="#e2e6eb" stroke-width="4"/>
        <path id="Path_35-3" data-name="Path 35" d="M10.689,13.191A1.635,1.635,0,0,1,9.5,10.43l3.657-3.846L9.508,2.764A1.635,1.635,0,0,1,11.871.5L16.6,5.45a1.636,1.636,0,0,1,0,2.256l-4.731,4.976A1.633,1.633,0,0,1,10.689,13.191Z" transform="translate(154.592 426.182)" fill="#aab0bb"/>
      </g>
      <path id="Path_3406" data-name="Path 3406" d="M0,164.307v939.764" transform="translate(731.318 -14372.545) rotate(-90)" fill="none" stroke="#e2e6eb" stroke-width="4"/>
      <line id="Line_977" data-name="Line 977" y2="47" transform="translate(1833.5 -14372.5)" fill="none" stroke="#e2e6eb" stroke-width="4"/>
      <line id="Line_976" data-name="Line 976" y2="47" transform="translate(897.5 -14374.5)" fill="none" stroke="#e2e6eb" stroke-width="4"/>
      <g id="Rectangle_2392" data-name="Rectangle 2392" transform="translate(888 -14277)" fill="rgba(41,51,155,0.1)" stroke="#29339b" stroke-width="2" stroke-dasharray="5">
        <rect width="107" height="63" rx="10" stroke="none"/>
        <rect x="1" y="1" width="105" height="61" rx="9" fill="none"/>
      </g>
      <g id="Rectangle_2393" data-name="Rectangle 2393" transform="translate(1059 -14277)" fill="rgba(41,51,155,0.1)" stroke="#29339b" stroke-width="2" stroke-dasharray="5">
        <rect width="107" height="63" rx="10" stroke="none"/>
        <rect x="1" y="1" width="105" height="61" rx="9" fill="none"/>
      </g>
      <g id="Rectangle_2395" data-name="Rectangle 2395" transform="translate(1230 -14277)" fill="rgba(41,51,155,0.1)" stroke="#29339b" stroke-width="2" stroke-dasharray="5">
        <rect width="107" height="63" rx="10" stroke="none"/>
        <rect x="1" y="1" width="105" height="61" rx="9" fill="none"/>
      </g>
      <g id="Rectangle_2396" data-name="Rectangle 2396" transform="translate(1401 -14277)" fill="rgba(41,51,155,0.1)" stroke="#29339b" stroke-width="2" stroke-dasharray="5">
        <rect width="107" height="63" rx="10" stroke="none"/>
        <rect x="1" y="1" width="105" height="61" rx="9" fill="none"/>
      </g>
      <g id="Rectangle_2401" data-name="Rectangle 2401" transform="translate(1572 -14277)" fill="rgba(41,51,155,0.1)" stroke="#29339b" stroke-width="2" stroke-dasharray="5">
        <rect width="107" height="63" rx="10" stroke="none"/>
        <rect x="1" y="1" width="105" height="61" rx="9" fill="none"/>
      </g>
      <g id="Rectangle_2397" data-name="Rectangle 2397" transform="translate(1732 -14277)" fill="rgba(41,51,155,0.1)" stroke="#29339b" stroke-width="2" stroke-dasharray="5">
        <rect width="107" height="63" rx="10" stroke="none"/>
        <rect x="1" y="1" width="105" height="61" rx="9" fill="none"/>
      </g>
      <g id="Group_2334" data-name="Group 2334" transform="translate(1652 3169)">
        <g id="Rectangle_2394" data-name="Rectangle 2394" transform="translate(-1105 -17567)" fill="#707070" stroke="#707070" stroke-width="2" stroke-dasharray="5">
          <rect width="107" height="63" rx="30" stroke="none"/>
          <rect x="1" y="1" width="105" height="61" rx="29" fill="none"/>
        </g>
        <text id="Login" transform="translate(-1094 -17540)" fill="#fff" font-size="12" font-family="ProximaNova-Bold, Proxima Nova" font-weight="700"><tspan x="27.982" y="9">Login</tspan></text>
      </g>
      <g id="Group_2332" data-name="Group 2332" transform="translate(1478 3299)">
        <g id="Rectangle_2399" data-name="Rectangle 2399" transform="translate(-760 -17575)" fill="#707070" stroke="#707070" stroke-width="2" stroke-dasharray="5">
          <rect width="107" height="63" rx="30" stroke="none"/>
          <rect x="1" y="1" width="105" height="61" rx="29" fill="none"/>
        </g>
        <text id="Start_Audit" data-name="Start Audit" transform="translate(-749 -17549)" fill="#fff" font-size="12" font-family="ProximaNova-Bold, Proxima Nova" font-weight="700"><tspan x="13.9" y="9">Start Audit</tspan></text>
      </g>
      <g id="Group_2333" data-name="Group 2333" transform="translate(1886 3359)">
        <g id="Rectangle_2400" data-name="Rectangle 2400" transform="translate(244 -17569)" fill="#707070" stroke="#707070" stroke-width="2" stroke-dasharray="5">
          <rect width="107" height="63" rx="30" stroke="none"/>
          <rect x="1" y="1" width="105" height="61" rx="29" fill="none"/>
        </g>
        <text id="Submit_Audit" data-name="Submit Audit" transform="translate(255 -17542)" fill="#fff" font-size="12" font-family="ProximaNova-Bold, Proxima Nova" font-weight="700"><tspan x="7.66" y="9">Submit Audit</tspan></text>
      </g>
      <text id="Enter_Policy_Information" data-name="Enter Policy Information" transform="translate(899 -14256)" fill="rgba(0,0,0,0.87)" font-size="12" font-family="ProximaNova-Bold, Proxima Nova" font-weight="700"><tspan x="10.792" y="9">Enter Policy </tspan><tspan x="11.482" y="23">Information</tspan></text>
      <text id="STEP_1" data-name="STEP 1" transform="translate(897 -14291)" fill="rgba(0,0,0,0.87)" font-size="10" font-family="ProximaNova-Medium, Proxima Nova" font-weight="500"><tspan x="0" y="8">STEP 1</tspan></text>
      <text id="AUDIT_STEPPER" data-name="AUDIT STEPPER" transform="translate(1368 -14395)" fill="rgba(0,0,0,0.87)" font-size="14" font-family="ProximaNova-Medium, Proxima Nova" font-weight="500"><tspan x="2.278" y="11">AUDIT STEPPER</tspan></text>
      <text id="STEP_2" data-name="STEP 2" transform="translate(1066 -14291)" fill="rgba(0,0,0,0.87)" font-size="10" font-family="ProximaNova-Medium, Proxima Nova" font-weight="500"><tspan x="0" y="8">STEP 2</tspan></text>
      <text id="STEP_3" data-name="STEP 3" transform="translate(1235 -14291)" fill="rgba(0,0,0,0.87)" font-size="10" font-family="ProximaNova-Medium, Proxima Nova" font-weight="500"><tspan x="0" y="8">STEP 3</tspan></text>
      <text id="STEP_4" data-name="STEP 4" transform="translate(1404 -14291)" fill="rgba(0,0,0,0.87)" font-size="10" font-family="ProximaNova-Medium, Proxima Nova" font-weight="500"><tspan x="0" y="8">STEP 4</tspan></text>
      <text id="STEP_5" data-name="STEP 5" transform="translate(1575 -14291)" fill="rgba(0,0,0,0.87)" font-size="10" font-family="ProximaNova-Medium, Proxima Nova" font-weight="500"><tspan x="0" y="8">STEP 5</tspan></text>
      <text id="STEP_6" data-name="STEP 6" transform="translate(1733 -14291)" fill="rgba(0,0,0,0.87)" font-size="10" font-family="ProximaNova-Medium, Proxima Nova" font-weight="500"><tspan x="0" y="8">STEP 6</tspan></text>
      <text id="Enter_Locations" data-name="Enter Locations" transform="translate(1070 -14250)" fill="rgba(0,0,0,0.87)" font-size="12" font-family="ProximaNova-Bold, Proxima Nova" font-weight="700"><tspan x="0.892" y="9">Enter Locations</tspan></text>
      <text id="Enter_Payroll" data-name="Enter Payroll" transform="translate(1241 -14250)" fill="rgba(0,0,0,0.87)" font-size="12" font-family="ProximaNova-Bold, Proxima Nova" font-weight="700"><tspan x="8.386" y="9">Enter Payroll</tspan></text>
      <text id="Enter_Owners" data-name="Enter Owners" transform="translate(1412 -14250)" fill="rgba(0,0,0,0.87)" font-size="12" font-family="ProximaNova-Bold, Proxima Nova" font-weight="700"><tspan x="5.968" y="9">Enter Owners</tspan></text>
      <text id="Enter_Claims" data-name="Enter Claims" transform="translate(1583 -14250)" fill="rgba(0,0,0,0.87)" font-size="12" font-family="ProximaNova-Bold, Proxima Nova" font-weight="700"><tspan x="8.596" y="9">Enter Claims</tspan></text>
      <text id="Upload_Documents" data-name="Upload Documents" transform="translate(1743 -14256)" fill="rgba(0,0,0,0.87)" font-size="12" font-family="ProximaNova-Bold, Proxima Nova" font-weight="700"><tspan x="23.386" y="9">Upload </tspan><tspan x="11.986" y="23">Documents</tspan></text>
      <g id="Group_2327" data-name="Group 2327" transform="translate(867 -14677)">
        <line id="Line_26-4" data-name="Line 26" x2="30" transform="translate(138.092 432.646)" fill="none" stroke="#e2e6eb" stroke-width="4"/>
        <path id="Path_35-4" data-name="Path 35" d="M10.689,13.191A1.635,1.635,0,0,1,9.5,10.43l3.657-3.846L9.508,2.764A1.635,1.635,0,0,1,11.871.5L16.6,5.45a1.636,1.636,0,0,1,0,2.256l-4.731,4.976A1.633,1.633,0,0,1,10.689,13.191Z" transform="translate(154.592 426.182)" fill="#aab0bb"/>
      </g>
      <g id="Group_2328" data-name="Group 2328" transform="translate(1038 -14677)">
        <line id="Line_26-5" data-name="Line 26" x2="30" transform="translate(138.092 432.646)" fill="none" stroke="#e2e6eb" stroke-width="4"/>
        <path id="Path_35-5" data-name="Path 35" d="M10.689,13.191A1.635,1.635,0,0,1,9.5,10.43l3.657-3.846L9.508,2.764A1.635,1.635,0,0,1,11.871.5L16.6,5.45a1.636,1.636,0,0,1,0,2.256l-4.731,4.976A1.633,1.633,0,0,1,10.689,13.191Z" transform="translate(154.592 426.182)" fill="#aab0bb"/>
      </g>
      <g id="Group_2329" data-name="Group 2329" transform="translate(1209 -14677)">
        <line id="Line_26-6" data-name="Line 26" x2="30" transform="translate(138.092 432.646)" fill="none" stroke="#e2e6eb" stroke-width="4"/>
        <path id="Path_35-6" data-name="Path 35" d="M10.689,13.191A1.635,1.635,0,0,1,9.5,10.43l3.657-3.846L9.508,2.764A1.635,1.635,0,0,1,11.871.5L16.6,5.45a1.636,1.636,0,0,1,0,2.256l-4.731,4.976A1.633,1.633,0,0,1,10.689,13.191Z" transform="translate(154.592 426.182)" fill="#aab0bb"/>
      </g>
      <g id="Group_2330" data-name="Group 2330" transform="translate(1380 -14677)">
        <line id="Line_26-7" data-name="Line 26" x2="30" transform="translate(138.092 432.646)" fill="none" stroke="#e2e6eb" stroke-width="4"/>
        <path id="Path_35-7" data-name="Path 35" d="M10.689,13.191A1.635,1.635,0,0,1,9.5,10.43l3.657-3.846L9.508,2.764A1.635,1.635,0,0,1,11.871.5L16.6,5.45a1.636,1.636,0,0,1,0,2.256l-4.731,4.976A1.633,1.633,0,0,1,10.689,13.191Z" transform="translate(154.592 426.182)" fill="#aab0bb"/>
      </g>
      <g id="Group_2340" data-name="Group 2340" transform="translate(1551 -14677)">
        <line id="Line_26-8" data-name="Line 26" x2="30" transform="translate(138.092 432.646)" fill="none" stroke="#e2e6eb" stroke-width="4"/>
        <path id="Path_35-8" data-name="Path 35" d="M10.689,13.191A1.635,1.635,0,0,1,9.5,10.43l3.657-3.846L9.508,2.764A1.635,1.635,0,0,1,11.871.5L16.6,5.45a1.636,1.636,0,0,1,0,2.256l-4.731,4.976A1.633,1.633,0,0,1,10.689,13.191Z" transform="translate(154.592 426.182)" fill="#aab0bb"/>
      </g>
      <g id="Group_2532" data-name="Group 2532" transform="translate(2387.646 -14333.093) rotate(90)">
        <line id="Line_26-9" data-name="Line 26" x2="30" transform="translate(138.092 432.646)" fill="none" stroke="#e2e6eb" stroke-width="4"/>
        <path id="Path_35-9" data-name="Path 35" d="M10.689,13.191A1.635,1.635,0,0,1,9.5,10.43l3.657-3.846L9.508,2.764A1.635,1.635,0,0,1,11.871.5L16.6,5.45a1.636,1.636,0,0,1,0,2.256l-4.731,4.976A1.633,1.633,0,0,1,10.689,13.191Z" transform="translate(154.592 426.182)" fill="#aab0bb"/>
      </g>
      <g id="Group_2533" data-name="Group 2533" transform="translate(1709 -14675)">
        <line id="Line_26-10" data-name="Line 26" x2="30" transform="translate(138.092 432.646)" fill="none" stroke="#e2e6eb" stroke-width="4"/>
        <path id="Path_35-10" data-name="Path 35" d="M10.689,13.191A1.635,1.635,0,0,1,9.5,10.43l3.657-3.846L9.508,2.764A1.635,1.635,0,0,1,11.871.5L16.6,5.45a1.636,1.636,0,0,1,0,2.256l-4.731,4.976A1.633,1.633,0,0,1,10.689,13.191Z" transform="translate(154.592 426.182)" fill="#aab0bb"/>
      </g>
      <g id="Rectangle_2491" data-name="Rectangle 2491" transform="translate(1901 -14275)" fill="#e50a45" stroke="#e50a45" stroke-width="2">
        <rect width="107" height="63" rx="5" stroke="none"/>
        <rect x="1" y="1" width="105" height="61" rx="4" fill="none"/>
      </g>
      <text id="Audit_Summary" data-name="Audit Summary" transform="translate(1910 -14249)" fill="#fff" font-size="12" font-family="ProximaNova-Bold, Proxima Nova" font-weight="700"><tspan x="2.614" y="9">Audit Summary</tspan></text>
      <g id="Rectangle_2492" data-name="Rectangle 2492" transform="translate(1901 -14144)" fill="#fff" stroke="#707070" stroke-width="2" stroke-dasharray="5">
        <rect width="107" height="63" stroke="none"/>
        <rect x="1" y="1" width="105" height="61" fill="none"/>
      </g>
      <g id="Rectangle_2493" data-name="Rectangle 2493" transform="translate(2135 -14074)" fill="#fff" stroke="#707070" stroke-width="2" stroke-dasharray="5">
        <rect width="107" height="63" stroke="none"/>
        <rect x="1" y="1" width="105" height="61" fill="none"/>
      </g>
      <text id="Do_all_steps_validate_" data-name="Do all steps validate?" transform="translate(1915 -14125)" fill="rgba(0,0,0,0.87)" font-size="12" font-family="ProximaNova-Bold, Proxima Nova" font-weight="700"><tspan x="7.802" y="9">Do all steps </tspan><tspan x="15.53" y="23">validate?</tspan></text>
      <text id="User_guided_back_to_incomplete_steps" data-name="User guided back
to incomplete steps" transform="translate(2141 -14062)" fill="rgba(0,0,0,0.87)" font-size="12" font-family="ProximaNova-Bold, Proxima Nova" font-weight="700"><tspan x="0.39" y="9">User guided back</tspan><tspan x="10.758" y="23">to incomplete </tspan><tspan x="33.42" y="37">steps</tspan></text>
      <line id="Line_1002" data-name="Line 1002" y2="50" transform="translate(2065.25 -14114.25) rotate(90)" fill="none" stroke="#e2e6eb" stroke-width="4"/>
      <path id="Path_3425" data-name="Path 3425" d="M88.975,0H0" transform="translate(2065 -14161.414) rotate(90)" fill="none" stroke="#e2e6eb" stroke-width="4"/>
      <line id="Line_1003" data-name="Line 1003" y2="50" transform="translate(2065.25 -14114.25) rotate(90)" fill="none" stroke="#e2e6eb" stroke-width="4"/>
      <path id="Path_3426" data-name="Path 3426" d="M145.006,0H0" transform="translate(2065 -14183.346) rotate(90)" fill="none" stroke="#e2e6eb" stroke-width="4"/>
      <g id="Group_2534" data-name="Group 2534" transform="translate(854 -15588)">
        <text id="No" transform="translate(1218 1557)" fill="rgba(0,0,0,0.87)" font-size="12" font-family="ProximaNova-Bold, Proxima Nova" font-weight="700"><tspan x="4.182" y="9">No</tspan></text>
        <g id="Group_1952" data-name="Group 1952" transform="translate(690.407 1230)">
          <g id="Group_1081" data-name="Group 1081" transform="translate(571.74 311.182) rotate(90)">
            <line id="Line_33" data-name="Line 33" y2="47.621" transform="translate(6.465 51.147) rotate(180)" fill="none" stroke="#e2e6eb" stroke-width="4"/>
            <path id="Path_45" data-name="Path 45" d="M1.634,13.191A1.635,1.635,0,0,1,.45,10.43L4.107,6.584.453,2.765A1.635,1.635,0,0,1,2.816.5L7.547,5.45a1.636,1.636,0,0,1,0,2.256L2.82,12.683A1.633,1.633,0,0,1,1.634,13.191Z" transform="translate(0 8) rotate(-90)" fill="#aab0bb"/>
          </g>
        </g>
      </g>
      <g id="Group_2535" data-name="Group 2535" transform="translate(854 -15644)">
        <text id="Yes" transform="translate(1218 1442)" fill="rgba(0,0,0,0.87)" font-size="12" font-family="ProximaNova-Bold, Proxima Nova" font-weight="700"><tspan x="2.694" y="9">Yes</tspan></text>
        <g id="Group_1953" data-name="Group 1953" transform="translate(690.407 1145)">
          <g id="Group_1081-2" data-name="Group 1081" transform="translate(571.74 311.182) rotate(90)">
            <line id="Line_33-2" data-name="Line 33" y2="47.621" transform="translate(6.465 51.147) rotate(180)" fill="none" stroke="#e2e6eb" stroke-width="4"/>
            <path id="Path_45-2" data-name="Path 45" d="M1.634,13.191A1.635,1.635,0,0,1,.45,10.43L4.107,6.584.453,2.765A1.635,1.635,0,0,1,2.816.5L7.547,5.45a1.636,1.636,0,0,1,0,2.256L2.82,12.683A1.633,1.633,0,0,1,1.634,13.191Z" transform="translate(0 8) rotate(-90)" fill="#aab0bb"/>
          </g>
        </g>
      </g>
    </g>
  </g>
</svg>
