<svg xmlns="http://www.w3.org/2000/svg" width="1495" height="450" viewBox="0 0 1495 450">
  <g id="Group_2013" data-name="Group 2013" transform="translate(2746 16375)">
    <g id="Rectangle_1659" data-name="Rectangle 1659" transform="translate(-2746 -16375)" fill="#fff" stroke="#707070" stroke-width="1">
      <rect width="1495" height="450" stroke="none"/>
      <rect x="0.5" y="0.5" width="1494" height="449" fill="none"/>
    </g>
    <g id="Group_2012" data-name="Group 2012" transform="translate(-2841 -16509)">
      <g id="Rectangle_1684" data-name="Rectangle 1684" transform="translate(366 391)" fill="#e50a45" stroke="#e50a45" stroke-width="1">
        <rect width="107" height="63" stroke="none"/>
        <rect x="0.5" y="0.5" width="106" height="62" fill="none"/>
      </g>
      <text id="Audit_Dashboard" data-name="Audit Dashboard" transform="translate(386 410)" fill="#fafafa" font-size="12" font-family="ProximaNova-Bold, Proxima Nova" font-weight="700"><tspan x="18.944" y="9">Audit </tspan><tspan x="3.698" y="23">Dashboard</tspan></text>
      <g id="Group_2004" data-name="Group 2004" transform="translate(346 -9)">
        <line id="Line_26" data-name="Line 26" x2="30" transform="translate(138.092 432.646)" fill="none" stroke="#e2e6eb" stroke-width="4"/>
        <path id="Path_35" data-name="Path 35" d="M10.689,13.191A1.635,1.635,0,0,1,9.5,10.43l3.657-3.846L9.508,2.764A1.635,1.635,0,0,1,11.871.5L16.6,5.45a1.636,1.636,0,0,1,0,2.256l-4.731,4.976A1.633,1.633,0,0,1,10.689,13.191Z" transform="translate(154.592 426.182)" fill="#aab0bb"/>
      </g>
      <g id="Group_2005" data-name="Group 2005" transform="translate(174 -8)">
        <line id="Line_26-2" data-name="Line 26" x2="30" transform="translate(138.092 432.646)" fill="none" stroke="#e2e6eb" stroke-width="4"/>
        <path id="Path_35-2" data-name="Path 35" d="M10.689,13.191A1.635,1.635,0,0,1,9.5,10.43l3.657-3.846L9.508,2.764A1.635,1.635,0,0,1,11.871.5L16.6,5.45a1.636,1.636,0,0,1,0,2.256l-4.731,4.976A1.633,1.633,0,0,1,10.689,13.191Z" transform="translate(154.592 426.182)" fill="#aab0bb"/>
      </g>
      <path id="Path_2933" data-name="Path 2933" d="M0,164.307V940.23" transform="translate(381.318 295.455) rotate(-90)" fill="none" stroke="#e2e6eb" stroke-width="4"/>
      <line id="Line_121" data-name="Line 121" y2="47" transform="translate(1319.5 296.5)" fill="none" stroke="#e2e6eb" stroke-width="4"/>
      <line id="Line_120" data-name="Line 120" y2="47" transform="translate(547.5 293.5)" fill="none" stroke="#e2e6eb" stroke-width="4"/>
      <g id="Rectangle_1685" data-name="Rectangle 1685" transform="translate(185 391)" fill="rgba(41,51,155,0.1)" stroke="#29339b" stroke-width="2" stroke-dasharray="5">
        <rect width="107" height="63" rx="10" stroke="none"/>
        <rect x="1" y="1" width="105" height="61" rx="9" fill="none"/>
      </g>
      <g id="Rectangle_1695" data-name="Rectangle 1695" transform="translate(1393 391)" fill="rgba(41,51,155,0.1)" stroke="#29339b" stroke-width="2" stroke-dasharray="5">
        <rect width="107" height="63" rx="10" stroke="none"/>
        <rect x="1" y="1" width="105" height="61" rx="9" fill="none"/>
      </g>
      <g id="Rectangle_1686" data-name="Rectangle 1686" transform="translate(538 391)" fill="rgba(41,51,155,0.1)" stroke="#29339b" stroke-width="2" stroke-dasharray="5">
        <rect width="107" height="63" rx="10" stroke="none"/>
        <rect x="1" y="1" width="105" height="61" rx="9" fill="none"/>
      </g>
      <g id="Rectangle_1688" data-name="Rectangle 1688" transform="translate(709 391)" fill="rgba(41,51,155,0.1)" stroke="#29339b" stroke-width="2" stroke-dasharray="5">
        <rect width="107" height="63" rx="10" stroke="none"/>
        <rect x="1" y="1" width="105" height="61" rx="9" fill="none"/>
      </g>
      <g id="Rectangle_1689" data-name="Rectangle 1689" transform="translate(880 391)" fill="rgba(41,51,155,0.1)" stroke="#29339b" stroke-width="2" stroke-dasharray="5">
        <rect width="107" height="63" rx="10" stroke="none"/>
        <rect x="1" y="1" width="105" height="61" rx="9" fill="none"/>
      </g>
      <g id="Rectangle_1690" data-name="Rectangle 1690" transform="translate(1051 391)" fill="rgba(41,51,155,0.1)" stroke="#29339b" stroke-width="2" stroke-dasharray="5">
        <rect width="107" height="63" rx="10" stroke="none"/>
        <rect x="1" y="1" width="105" height="61" rx="9" fill="none"/>
      </g>
      <g id="Rectangle_1691" data-name="Rectangle 1691" transform="translate(1222 391)" fill="rgba(41,51,155,0.1)" stroke="#29339b" stroke-width="2" stroke-dasharray="5">
        <rect width="107" height="63" rx="10" stroke="none"/>
        <rect x="1" y="1" width="105" height="61" rx="9" fill="none"/>
      </g>
      <text id="Start_Audit" data-name="Start Audit" transform="translate(196 416)" fill="rgba(0,0,0,0.87)" font-size="12" font-family="ProximaNova-Bold, Proxima Nova" font-weight="700"><tspan x="13.9" y="9">Start Audit</tspan></text>
      <text id="Submit_Audit" data-name="Submit Audit" transform="translate(1404 416)" fill="rgba(0,0,0,0.87)" font-size="12" font-family="ProximaNova-Bold, Proxima Nova" font-weight="700"><tspan x="7.66" y="9">Submit Audit</tspan></text>
      <text id="Enter_Policy_Information" data-name="Enter Policy Information" transform="translate(549 412)" fill="rgba(0,0,0,0.87)" font-size="12" font-family="ProximaNova-Bold, Proxima Nova" font-weight="700"><tspan x="10.792" y="9">Enter Policy </tspan><tspan x="11.482" y="23">Information</tspan></text>
      <text id="STEP_1" data-name="STEP 1" transform="translate(547 377)" fill="rgba(0,0,0,0.87)" font-size="10" font-family="ProximaNova-Medium, Proxima Nova" font-weight="500"><tspan x="0" y="8">STEP 1</tspan></text>
      <text id="AUDIT_STEPPER" data-name="AUDIT STEPPER" transform="translate(871 264)" fill="rgba(0,0,0,0.87)" font-size="14" font-family="ProximaNova-Medium, Proxima Nova" font-weight="500"><tspan x="2.278" y="11">AUDIT STEPPER</tspan></text>
      <text id="STEP_2" data-name="STEP 2" transform="translate(716 377)" fill="rgba(0,0,0,0.87)" font-size="10" font-family="ProximaNova-Medium, Proxima Nova" font-weight="500"><tspan x="0" y="8">STEP 2</tspan></text>
      <text id="STEP_3" data-name="STEP 3" transform="translate(885 377)" fill="rgba(0,0,0,0.87)" font-size="10" font-family="ProximaNova-Medium, Proxima Nova" font-weight="500"><tspan x="0" y="8">STEP 3</tspan></text>
      <text id="STEP_4" data-name="STEP 4" transform="translate(1054 377)" fill="rgba(0,0,0,0.87)" font-size="10" font-family="ProximaNova-Medium, Proxima Nova" font-weight="500"><tspan x="0" y="8">STEP 4</tspan></text>
      <text id="STEP_5" data-name="STEP 5" transform="translate(1223 377)" fill="rgba(0,0,0,0.87)" font-size="10" font-family="ProximaNova-Medium, Proxima Nova" font-weight="500"><tspan x="0" y="8">STEP 5</tspan></text>
      <text id="Enter_Locations" data-name="Enter Locations" transform="translate(720 418)" fill="rgba(0,0,0,0.87)" font-size="12" font-family="ProximaNova-Bold, Proxima Nova" font-weight="700"><tspan x="0.892" y="9">Enter Locations</tspan></text>
      <text id="Enter_Payroll" data-name="Enter Payroll" transform="translate(891 418)" fill="rgba(0,0,0,0.87)" font-size="12" font-family="ProximaNova-Bold, Proxima Nova" font-weight="700"><tspan x="8.386" y="9">Enter Payroll</tspan></text>
      <text id="Enter_Owners" data-name="Enter Owners" transform="translate(1062 418)" fill="rgba(0,0,0,0.87)" font-size="12" font-family="ProximaNova-Bold, Proxima Nova" font-weight="700"><tspan x="5.968" y="9">Enter Owners</tspan></text>
      <text id="Upload_Documents" data-name="Upload Documents" transform="translate(1233 412)" fill="rgba(0,0,0,0.87)" font-size="12" font-family="ProximaNova-Bold, Proxima Nova" font-weight="700"><tspan x="23.386" y="9">Upload </tspan><tspan x="11.986" y="23">Documents</tspan></text>
      <g id="Group_2006" data-name="Group 2006" transform="translate(517 -9)">
        <line id="Line_26-3" data-name="Line 26" x2="30" transform="translate(138.092 432.646)" fill="none" stroke="#e2e6eb" stroke-width="4"/>
        <path id="Path_35-3" data-name="Path 35" d="M10.689,13.191A1.635,1.635,0,0,1,9.5,10.43l3.657-3.846L9.508,2.764A1.635,1.635,0,0,1,11.871.5L16.6,5.45a1.636,1.636,0,0,1,0,2.256l-4.731,4.976A1.633,1.633,0,0,1,10.689,13.191Z" transform="translate(154.592 426.182)" fill="#aab0bb"/>
      </g>
      <g id="Group_2007" data-name="Group 2007" transform="translate(688 -9)">
        <line id="Line_26-4" data-name="Line 26" x2="30" transform="translate(138.092 432.646)" fill="none" stroke="#e2e6eb" stroke-width="4"/>
        <path id="Path_35-4" data-name="Path 35" d="M10.689,13.191A1.635,1.635,0,0,1,9.5,10.43l3.657-3.846L9.508,2.764A1.635,1.635,0,0,1,11.871.5L16.6,5.45a1.636,1.636,0,0,1,0,2.256l-4.731,4.976A1.633,1.633,0,0,1,10.689,13.191Z" transform="translate(154.592 426.182)" fill="#aab0bb"/>
      </g>
      <g id="Group_2008" data-name="Group 2008" transform="translate(859 -9)">
        <line id="Line_26-5" data-name="Line 26" x2="30" transform="translate(138.092 432.646)" fill="none" stroke="#e2e6eb" stroke-width="4"/>
        <path id="Path_35-5" data-name="Path 35" d="M10.689,13.191A1.635,1.635,0,0,1,9.5,10.43l3.657-3.846L9.508,2.764A1.635,1.635,0,0,1,11.871.5L16.6,5.45a1.636,1.636,0,0,1,0,2.256l-4.731,4.976A1.633,1.633,0,0,1,10.689,13.191Z" transform="translate(154.592 426.182)" fill="#aab0bb"/>
      </g>
      <g id="Group_2009" data-name="Group 2009" transform="translate(1030 -9)">
        <line id="Line_26-6" data-name="Line 26" x2="30" transform="translate(138.092 432.646)" fill="none" stroke="#e2e6eb" stroke-width="4"/>
        <path id="Path_35-6" data-name="Path 35" d="M10.689,13.191A1.635,1.635,0,0,1,9.5,10.43l3.657-3.846L9.508,2.764A1.635,1.635,0,0,1,11.871.5L16.6,5.45a1.636,1.636,0,0,1,0,2.256l-4.731,4.976A1.633,1.633,0,0,1,10.689,13.191Z" transform="translate(154.592 426.182)" fill="#aab0bb"/>
      </g>
      <g id="Group_2010" data-name="Group 2010" transform="translate(1201 -9)">
        <line id="Line_26-7" data-name="Line 26" x2="30" transform="translate(138.092 432.646)" fill="none" stroke="#e2e6eb" stroke-width="4"/>
        <path id="Path_35-7" data-name="Path 35" d="M10.689,13.191A1.635,1.635,0,0,1,9.5,10.43l3.657-3.846L9.508,2.764A1.635,1.635,0,0,1,11.871.5L16.6,5.45a1.636,1.636,0,0,1,0,2.256l-4.731,4.976A1.633,1.633,0,0,1,10.689,13.191Z" transform="translate(154.592 426.182)" fill="#aab0bb"/>
      </g>
    </g>
  </g>
</svg>
