<svg xmlns="http://www.w3.org/2000/svg" width="1495" height="450" viewBox="0 0 1495 450">
  <g id="Group_2342" data-name="Group 2342" transform="translate(1206 15967)">
    <g id="Rectangle_2391" data-name="Rectangle 2391" transform="translate(-1206 -15967)" fill="#fff" stroke="#707070" stroke-width="1">
      <rect width="1495" height="450" stroke="none"/>
      <rect x="0.5" y="0.5" width="1494" height="449" fill="none"/>
    </g>
    <g id="Group_2341" data-name="Group 2341">
      <g id="Group_2322" data-name="Group 2322" transform="translate(1324 1811)">
        <g id="Rectangle_1684" data-name="Rectangle 1684" transform="translate(-2462 -17569)" fill="#e50a45" stroke="#e50a45" stroke-width="1">
          <rect width="107" height="63" rx="10" stroke="none"/>
          <rect x="0.5" y="0.5" width="106" height="62" rx="9.5" fill="none"/>
        </g>
        <text id="Audit_Intro" data-name="Audit Intro" transform="translate(-2442 -17542)" fill="#fafafa" font-size="12" font-family="ProximaNova-Bold, Proxima Nova" font-weight="700"><tspan x="4.658" y="9">Audit Intro</tspan></text>
      </g>
      <g id="Group_2323" data-name="Group 2323" transform="translate(-989 -16158)">
        <line id="Line_26" data-name="Line 26" x2="30" transform="translate(138.092 432.646)" fill="none" stroke="#e2e6eb" stroke-width="4"/>
        <path id="Path_35" data-name="Path 35" d="M10.689,13.191A1.635,1.635,0,0,1,9.5,10.43l3.657-3.846L9.508,2.764A1.635,1.635,0,0,1,11.871.5L16.6,5.45a1.636,1.636,0,0,1,0,2.256l-4.731,4.976A1.633,1.633,0,0,1,10.689,13.191Z" transform="translate(154.592 426.182)" fill="#aab0bb"/>
      </g>
      <g id="Group_2324" data-name="Group 2324" transform="translate(-1154 -16157)">
        <line id="Line_26-2" data-name="Line 26" x2="30" transform="translate(138.092 432.646)" fill="none" stroke="#e2e6eb" stroke-width="4"/>
        <path id="Path_35-2" data-name="Path 35" d="M10.689,13.191A1.635,1.635,0,0,1,9.5,10.43l3.657-3.846L9.508,2.764A1.635,1.635,0,0,1,11.871.5L16.6,5.45a1.636,1.636,0,0,1,0,2.256l-4.731,4.976A1.633,1.633,0,0,1,10.689,13.191Z" transform="translate(154.592 426.182)" fill="#aab0bb"/>
      </g>
      <g id="Group_2325" data-name="Group 2325" transform="translate(-651.354 -15942.092) rotate(90)">
        <line id="Line_26-3" data-name="Line 26" x2="30" transform="translate(138.092 432.646)" fill="none" stroke="#e2e6eb" stroke-width="4"/>
        <path id="Path_35-3" data-name="Path 35" d="M10.689,13.191A1.635,1.635,0,0,1,9.5,10.43l3.657-3.846L9.508,2.764A1.635,1.635,0,0,1,11.871.5L16.6,5.45a1.636,1.636,0,0,1,0,2.256l-4.731,4.976A1.633,1.633,0,0,1,10.689,13.191Z" transform="translate(154.592 426.182)" fill="#aab0bb"/>
      </g>
      <path id="Path_3406" data-name="Path 3406" d="M0,164.307v939.764" transform="translate(-953.682 -15853.545) rotate(-90)" fill="none" stroke="#e2e6eb" stroke-width="4"/>
      <line id="Line_977" data-name="Line 977" y2="47" transform="translate(148.5 -15853.5)" fill="none" stroke="#e2e6eb" stroke-width="4"/>
      <line id="Line_976" data-name="Line 976" y2="47" transform="translate(-787.5 -15855.5)" fill="none" stroke="#e2e6eb" stroke-width="4"/>
      <g id="Rectangle_2392" data-name="Rectangle 2392" transform="translate(-797 -15758)" fill="rgba(41,51,155,0.1)" stroke="#29339b" stroke-width="2" stroke-dasharray="5">
        <rect width="107" height="63" rx="10" stroke="none"/>
        <rect x="1" y="1" width="105" height="61" rx="9" fill="none"/>
      </g>
      <g id="Rectangle_2393" data-name="Rectangle 2393" transform="translate(-626 -15758)" fill="rgba(41,51,155,0.1)" stroke="#29339b" stroke-width="2" stroke-dasharray="5">
        <rect width="107" height="63" rx="10" stroke="none"/>
        <rect x="1" y="1" width="105" height="61" rx="9" fill="none"/>
      </g>
      <g id="Rectangle_2395" data-name="Rectangle 2395" transform="translate(-455 -15758)" fill="rgba(41,51,155,0.1)" stroke="#29339b" stroke-width="2" stroke-dasharray="5">
        <rect width="107" height="63" rx="10" stroke="none"/>
        <rect x="1" y="1" width="105" height="61" rx="9" fill="none"/>
      </g>
      <g id="Rectangle_2396" data-name="Rectangle 2396" transform="translate(-284 -15758)" fill="rgba(41,51,155,0.1)" stroke="#29339b" stroke-width="2" stroke-dasharray="5">
        <rect width="107" height="63" rx="10" stroke="none"/>
        <rect x="1" y="1" width="105" height="61" rx="9" fill="none"/>
      </g>
      <g id="Rectangle_2401" data-name="Rectangle 2401" transform="translate(-113 -15758)" fill="rgba(41,51,155,0.1)" stroke="#29339b" stroke-width="2" stroke-dasharray="5">
        <rect width="107" height="63" rx="10" stroke="none"/>
        <rect x="1" y="1" width="105" height="61" rx="9" fill="none"/>
      </g>
      <g id="Rectangle_2397" data-name="Rectangle 2397" transform="translate(47 -15758)" fill="rgba(41,51,155,0.1)" stroke="#29339b" stroke-width="2" stroke-dasharray="5">
        <rect width="107" height="63" rx="10" stroke="none"/>
        <rect x="1" y="1" width="105" height="61" rx="9" fill="none"/>
      </g>
      <g id="Group_2334" data-name="Group 2334" transform="translate(-33 1688)">
        <g id="Rectangle_2394" data-name="Rectangle 2394" transform="translate(-1105 -17567)" fill="#707070" stroke="#707070" stroke-width="2" stroke-dasharray="5">
          <rect width="107" height="63" rx="30" stroke="none"/>
          <rect x="1" y="1" width="105" height="61" rx="29" fill="none"/>
        </g>
        <text id="Login" transform="translate(-1094 -17540)" fill="#fff" font-size="12" font-family="ProximaNova-Bold, Proxima Nova" font-weight="700"><tspan x="27.982" y="9">Login</tspan></text>
      </g>
      <g id="Group_2332" data-name="Group 2332" transform="translate(-207 1818)">
        <g id="Rectangle_2399" data-name="Rectangle 2399" transform="translate(-760 -17575)" fill="#707070" stroke="#707070" stroke-width="2" stroke-dasharray="5">
          <rect width="107" height="63" rx="30" stroke="none"/>
          <rect x="1" y="1" width="105" height="61" rx="29" fill="none"/>
        </g>
        <text id="Start_Audit" data-name="Start Audit" transform="translate(-749 -17549)" fill="#fff" font-size="12" font-family="ProximaNova-Bold, Proxima Nova" font-weight="700"><tspan x="13.9" y="9">Start Audit</tspan></text>
      </g>
      <g id="Group_2333" data-name="Group 2333" transform="translate(-197 1936)">
        <g id="Rectangle_2400" data-name="Rectangle 2400" transform="translate(244 -17569)" fill="#707070" stroke="#707070" stroke-width="2" stroke-dasharray="5">
          <rect width="107" height="63" rx="30" stroke="none"/>
          <rect x="1" y="1" width="105" height="61" rx="29" fill="none"/>
        </g>
        <text id="Submit_Audit" data-name="Submit Audit" transform="translate(255 -17542)" fill="#fff" font-size="12" font-family="ProximaNova-Bold, Proxima Nova" font-weight="700"><tspan x="7.66" y="9">Submit Audit</tspan></text>
      </g>
      <text id="Enter_Policy_Information" data-name="Enter Policy Information" transform="translate(-786 -15737)" fill="rgba(0,0,0,0.87)" font-size="12" font-family="ProximaNova-Bold, Proxima Nova" font-weight="700"><tspan x="10.792" y="9">Enter Policy </tspan><tspan x="11.482" y="23">Information</tspan></text>
      <text id="STEP_1" data-name="STEP 1" transform="translate(-788 -15772)" fill="rgba(0,0,0,0.87)" font-size="10" font-family="ProximaNova-Medium, Proxima Nova" font-weight="500"><tspan x="0" y="8">STEP 1</tspan></text>
      <text id="AUDIT_STEPPER" data-name="AUDIT STEPPER" transform="translate(-317 -15876)" fill="rgba(0,0,0,0.87)" font-size="14" font-family="ProximaNova-Medium, Proxima Nova" font-weight="500"><tspan x="2.278" y="11">AUDIT STEPPER</tspan></text>
      <text id="STEP_2" data-name="STEP 2" transform="translate(-619 -15772)" fill="rgba(0,0,0,0.87)" font-size="10" font-family="ProximaNova-Medium, Proxima Nova" font-weight="500"><tspan x="0" y="8">STEP 2</tspan></text>
      <text id="STEP_3" data-name="STEP 3" transform="translate(-450 -15772)" fill="rgba(0,0,0,0.87)" font-size="10" font-family="ProximaNova-Medium, Proxima Nova" font-weight="500"><tspan x="0" y="8">STEP 3</tspan></text>
      <text id="STEP_4" data-name="STEP 4" transform="translate(-281 -15772)" fill="rgba(0,0,0,0.87)" font-size="10" font-family="ProximaNova-Medium, Proxima Nova" font-weight="500"><tspan x="0" y="8">STEP 4</tspan></text>
      <text id="STEP_5" data-name="STEP 5" transform="translate(-110 -15772)" fill="rgba(0,0,0,0.87)" font-size="10" font-family="ProximaNova-Medium, Proxima Nova" font-weight="500"><tspan x="0" y="8">STEP 5</tspan></text>
      <text id="STEP_6" data-name="STEP 6" transform="translate(48 -15772)" fill="rgba(0,0,0,0.87)" font-size="10" font-family="ProximaNova-Medium, Proxima Nova" font-weight="500"><tspan x="0" y="8">STEP 6</tspan></text>
      <text id="Enter_Locations" data-name="Enter Locations" transform="translate(-615 -15731)" fill="rgba(0,0,0,0.87)" font-size="12" font-family="ProximaNova-Bold, Proxima Nova" font-weight="700"><tspan x="0.892" y="9">Enter Locations</tspan></text>
      <text id="Enter_Payroll" data-name="Enter Payroll" transform="translate(-444 -15731)" fill="rgba(0,0,0,0.87)" font-size="12" font-family="ProximaNova-Bold, Proxima Nova" font-weight="700"><tspan x="8.386" y="9">Enter Payroll</tspan></text>
      <text id="Enter_Owners" data-name="Enter Owners" transform="translate(-273 -15731)" fill="rgba(0,0,0,0.87)" font-size="12" font-family="ProximaNova-Bold, Proxima Nova" font-weight="700"><tspan x="5.968" y="9">Enter Owners</tspan></text>
      <text id="Enter_Claims" data-name="Enter Claims" transform="translate(-102 -15731)" fill="rgba(0,0,0,0.87)" font-size="12" font-family="ProximaNova-Bold, Proxima Nova" font-weight="700"><tspan x="8.596" y="9">Enter Claims</tspan></text>
      <text id="Upload_Documents" data-name="Upload Documents" transform="translate(58 -15737)" fill="rgba(0,0,0,0.87)" font-size="12" font-family="ProximaNova-Bold, Proxima Nova" font-weight="700"><tspan x="23.386" y="9">Upload </tspan><tspan x="11.986" y="23">Documents</tspan></text>
      <g id="Group_2327" data-name="Group 2327" transform="translate(-818 -16158)">
        <line id="Line_26-4" data-name="Line 26" x2="30" transform="translate(138.092 432.646)" fill="none" stroke="#e2e6eb" stroke-width="4"/>
        <path id="Path_35-4" data-name="Path 35" d="M10.689,13.191A1.635,1.635,0,0,1,9.5,10.43l3.657-3.846L9.508,2.764A1.635,1.635,0,0,1,11.871.5L16.6,5.45a1.636,1.636,0,0,1,0,2.256l-4.731,4.976A1.633,1.633,0,0,1,10.689,13.191Z" transform="translate(154.592 426.182)" fill="#aab0bb"/>
      </g>
      <g id="Group_2328" data-name="Group 2328" transform="translate(-647 -16158)">
        <line id="Line_26-5" data-name="Line 26" x2="30" transform="translate(138.092 432.646)" fill="none" stroke="#e2e6eb" stroke-width="4"/>
        <path id="Path_35-5" data-name="Path 35" d="M10.689,13.191A1.635,1.635,0,0,1,9.5,10.43l3.657-3.846L9.508,2.764A1.635,1.635,0,0,1,11.871.5L16.6,5.45a1.636,1.636,0,0,1,0,2.256l-4.731,4.976A1.633,1.633,0,0,1,10.689,13.191Z" transform="translate(154.592 426.182)" fill="#aab0bb"/>
      </g>
      <g id="Group_2329" data-name="Group 2329" transform="translate(-476 -16158)">
        <line id="Line_26-6" data-name="Line 26" x2="30" transform="translate(138.092 432.646)" fill="none" stroke="#e2e6eb" stroke-width="4"/>
        <path id="Path_35-6" data-name="Path 35" d="M10.689,13.191A1.635,1.635,0,0,1,9.5,10.43l3.657-3.846L9.508,2.764A1.635,1.635,0,0,1,11.871.5L16.6,5.45a1.636,1.636,0,0,1,0,2.256l-4.731,4.976A1.633,1.633,0,0,1,10.689,13.191Z" transform="translate(154.592 426.182)" fill="#aab0bb"/>
      </g>
      <g id="Group_2330" data-name="Group 2330" transform="translate(-305 -16158)">
        <line id="Line_26-7" data-name="Line 26" x2="30" transform="translate(138.092 432.646)" fill="none" stroke="#e2e6eb" stroke-width="4"/>
        <path id="Path_35-7" data-name="Path 35" d="M10.689,13.191A1.635,1.635,0,0,1,9.5,10.43l3.657-3.846L9.508,2.764A1.635,1.635,0,0,1,11.871.5L16.6,5.45a1.636,1.636,0,0,1,0,2.256l-4.731,4.976A1.633,1.633,0,0,1,10.689,13.191Z" transform="translate(154.592 426.182)" fill="#aab0bb"/>
      </g>
      <g id="Group_2340" data-name="Group 2340" transform="translate(-134 -16158)">
        <line id="Line_26-8" data-name="Line 26" x2="30" transform="translate(138.092 432.646)" fill="none" stroke="#e2e6eb" stroke-width="4"/>
        <path id="Path_35-8" data-name="Path 35" d="M10.689,13.191A1.635,1.635,0,0,1,9.5,10.43l3.657-3.846L9.508,2.764A1.635,1.635,0,0,1,11.871.5L16.6,5.45a1.636,1.636,0,0,1,0,2.256l-4.731,4.976A1.633,1.633,0,0,1,10.689,13.191Z" transform="translate(154.592 426.182)" fill="#aab0bb"/>
      </g>
      <g id="Group_2331" data-name="Group 2331" transform="translate(533.646 -15816.092) rotate(90)">
        <line id="Line_26-9" data-name="Line 26" x2="30" transform="translate(138.092 432.646)" fill="none" stroke="#e2e6eb" stroke-width="4"/>
        <path id="Path_35-9" data-name="Path 35" d="M10.689,13.191A1.635,1.635,0,0,1,9.5,10.43l3.657-3.846L9.508,2.764A1.635,1.635,0,0,1,11.871.5L16.6,5.45a1.636,1.636,0,0,1,0,2.256l-4.731,4.976A1.633,1.633,0,0,1,10.689,13.191Z" transform="translate(154.592 426.182)" fill="#aab0bb"/>
      </g>
    </g>
  </g>
</svg>
