<svg id="Female_Realtor" data-name="Female Realtor" xmlns="http://www.w3.org/2000/svg" xmlns:xlink="http://www.w3.org/1999/xlink" viewBox="0 0 215.19 210.94"><defs><style>.cls-1{fill:#fecde2;}.cls-2{fill:#f0c7ad;}.cls-3{fill:#2e3192;}.cls-4{fill:#bf8c6f;}.cls-5{clip-path:url(#clip-path);}.cls-6{fill:#eb80a8;fill-rule:evenodd;}.cls-7{fill:#bc7d54;}.cls-20,.cls-8{fill:#e07b88;}.cls-8{opacity:0.61;}.cls-9{fill:#f1e5e9;}.cls-10{fill:#00b5cc;}.cls-11{fill:#453530;}.cls-12{fill:#bca584;}.cls-13{fill:#cc2230;}.cls-14{fill:#fff;}.cls-15{fill:#592d04;}.cls-16{fill:#cb6639;}.cls-17{fill:#ac4435;}.cls-18{fill:#fc9b4c;}.cls-19{fill:#f7871e;}.cls-20{opacity:0.29;}.cls-21{fill:#763c24;}</style><clipPath id="clip-path" transform="translate(-8.31 -27.6)"><path class="cls-1" d="M100,143.35A8.13,8.13,0,0,1,99,146c-2.1,1.91-1.5,3.44-3,5.74a6.51,6.51,0,0,1,3.91.5,26.08,26.08,0,0,0,4.73.95c3.92.57,7.44.24,11.31.35,3,.19,6,.84,8.9.88,2.46-.08,10.93-1.19,12,1.8.63-3.15-2.18-7.11-3.66-9.7-.53-.93-.26-3.51-1.1-4.21-1.18-1.13-2.68,1-4.47,1.81-6,2.25-13.62,4.81-19.75,2-2.75-1.3-5-2.48-7.52-2.71Z"/></clipPath></defs><g id="Head"><g id="Ivory-2" data-name="Ivory"><path class="cls-2" d="M177.11,223.26s1.41,5.82,1.18,7.41-1.9,4.53-.58,5.88,4.76.72,7.47.81,3.91-1.44,7-.72a59.64,59.64,0,0,0,10.57,1.14c1.36-.08.93-.15,1.74,0a9.44,9.44,0,0,0,3.27,0,1.63,1.63,0,0,0,.76-1.75c-.17-.29-2.21-.34-2.93-.5s-3-1.32-4.5-1.91a24.18,24.18,0,0,1-5.22-3c-1.35-1.09-3.9-1.77-4.37-2.11a24.47,24.47,0,0,1-5-10.8l-10,2.25Z" transform="translate(-8.31 -27.6)"/><path d="M101.93,139.83a16.74,16.74,0,0,1-2,6.54,83.2,83.2,0,0,1-6.39,9.13,43.56,43.56,0,0,0-4.24,5.35c-1.7,2.63-17.3,22.74-18.4,25l-2.31,3.73-8.32,6.71s-6.71,3.82-9.31,6.53-13.61,15-13.61,15l5.52,6.79L60.46,213c3.56-2.38,8.64-8,13.05-10.19s34.65-28.85,35.58-29.11a4.4,4.4,0,0,1,3.4.68c1.19.76,5.26,2,9.25,3.06s16.44,5.06,23.74,5.91,14,.62,16.64,1.13a41.66,41.66,0,0,1,6,1.87s-.94,8,.42,12.47,7.47,18.17,8.06,22.33l10-2.13s-4.84-28-5.35-32.42-.59-10.35-2.38-12.47a16.22,16.22,0,0,0-7.49-4.47c-2.15-.51-8.49-3.29-10.36-4s-8-3.31-11.36-4.42c-2.59-.84-13.49-5.85-13.49-5.85l-.55-3.94S102.44,142.32,101.93,139.83Z" transform="translate(-8.31 -27.6)"/><path class="cls-2" d="M31,224.59a23.82,23.82,0,0,0-3.11,3.19c-.57,1-2.26,1.81-3,2.78a46.11,46.11,0,0,0-3.51,5.6c-.22.73.4,2.15,1,2.09a6.8,6.8,0,0,0,1.87,0,5.58,5.58,0,0,0,1.9.08s2.4.44,2.45.07c0,0,3.85.36,4-.21a8.94,8.94,0,0,0,0-3.28c-.22-1-.28-1.24-.28-1.24a22.58,22.58,0,0,0,2.43-2.1c1-1,1.64-2.37,2.63-3s6.28-4.44,6.28-4.44l-5.5-7.15S32.82,223.37,31,224.59Z" transform="translate(-8.31 -27.6)"/><path class="cls-2" d="M223.29,85.64c-.24-.1-1.57.58-1.57.58a1.12,1.12,0,0,0,0-.68c-.13-.26-1.44.34-3.27.42a63.36,63.36,0,0,1-8.44-.51c-.77-.21-7.25-.15-8.55-.38s-24.63.32-27.86.58A12.87,12.87,0,0,0,167.65,88s-16,3.14-17.65,3.22-4.84-.85-8.4-.85c-2.72,0-7.36,1.43-9.41,2.11-5-1.71-10.55-.5-12.66-5.08-2.38.3-6,.82-7,.87-.71,1-4.15,2.21-4.93,2.26a11.46,11.46,0,0,0-4.86.85l-.54.19c-.46.16-.9.3-1.32.43-1.83-.57-5.58-1.65-7.75-1.57a32.32,32.32,0,0,0-7.47,1,15.47,15.47,0,0,1-6.45,1c-2.15-.34-11.71-1.94-14.71-1.93a37.89,37.89,0,0,0-6.45-1.47c-1.92-.06-26.25,2.15-27.89,2.09s-5.32.23-7,0A20,20,0,0,0,18.36,91a68.44,68.44,0,0,1-8.09.28c-.85-.17-.74.31-.79.51,0,0-1.14-.14-1.16.14a.88.88,0,0,0,.7.85.69.69,0,0,0,.57.54,4,4,0,0,0,.85,0,1.35,1.35,0,0,0,.93.48c.74.14,3.28.34,3.28.34s-.51.28,0,.51,5.49,1,6.82,1.3,5.77.73,6.9.37,2.78-1,3.6-.85,10.89,2,16.53,2.12a114.19,114.19,0,0,0,13.16-.76,118.29,118.29,0,0,0,19.69,6.11c9.53,2.13,9.68,1,11.88,2.73.37.42,1.87,1.66,2.08,1.85,0,0,2.46,2.16,2.67,3.27a20.14,20.14,0,0,0,1.25-1.83l.06.1a1.5,1.5,0,0,1,.29.06,1.83,1.83,0,0,1,.13-.16,5.06,5.06,0,0,1,.55-.76,8.25,8.25,0,0,0,.87-1.73c.56-1.3,2.43-2.17,3.51-.82,1.91,2.39,3.55,4.92,5.31,7.28h0v0a29.78,29.78,0,0,0,5.29,5.64,16.84,16.84,0,0,1,2.53-2.66,10.07,10.07,0,0,1,1.07-.78,33.92,33.92,0,0,1,6.54-6.83,1.83,1.83,0,0,1,.65-.31,2,2,0,0,1,2.7.58,21.1,21.1,0,0,1,3,2.78c0-.28.05-.55.09-.82,1.37-1.51,6-6.59,7.2-7.22,1.36-.73,5-1.58,10.13-2s21.13-7,21.38-7,2.3.21,3.1.21,6.41-.34,10.91-.85,13.1-2.88,14.63-3.22,1.1-.23,2.68.11,2.15,0,5.94-.34,4.08-.73,4.08-.73.83-.1,1.91-.27,3.31-.72,4.18-1,3.33-.6,4.55-1S223.53,85.74,223.29,85.64Z" transform="translate(-8.31 -27.6)"/><path class="cls-3" d="M132.22,111.11c-5-5.2-2.63-16.12-2-18.73.09-.37.15-.58.15-.58-.22-.1-1.07-.75-1.74-.68-2,.19-1.17,8.59-2.36,12.94-1.31,4.75-8.13,11.23-10.25,12.83-2.07-1.73-9-8.51-10-13.33s.29-11.45-1.83-12.68a1.34,1.34,0,0,0-1.45.46s1.27,13-4.76,18.55c0,0-3.73,11.71,7.53,14,0,0,3,3.06-7,23.28l16.68,1.31,3.22.09,16.19.48c-8.93-16.29-8.67-24.56-8.67-24.56C136.15,122.21,132.22,111.11,132.22,111.11Z" transform="translate(-8.31 -27.6)"/><path class="cls-4" d="M116.31,113.2a14.66,14.66,0,0,1-1.4,2.66l1.17,1,1.32-1.09C116.56,116,116.31,113.2,116.31,113.2Z" transform="translate(-8.31 -27.6)"/><path class="cls-1" d="M100,143.35A8.13,8.13,0,0,1,99,146c-2.1,1.91-1.5,3.44-3,5.74a6.51,6.51,0,0,1,3.91.5,26.08,26.08,0,0,0,4.73.95c3.92.57,7.44.24,11.31.35,3,.19,6,.84,8.9.88,2.46-.08,10.93-1.19,12,1.8.63-3.15-2.18-7.11-3.66-9.7-.53-.93-.26-3.51-1.1-4.21-1.18-1.13-2.68,1-4.47,1.81-6,2.25-13.62,4.81-19.75,2-2.75-1.3-5-2.48-7.52-2.71Z" transform="translate(-8.31 -27.6)"/><g class="cls-5"><path class="cls-6" d="M102.64,143.76c-.54-.21-1.06-.43-1.61-.59.49,1.86,1.87,3.06,3.23,2.23-.07-.39-.16-.81-.27-1.24A9.86,9.86,0,0,1,102.64,143.76Z" transform="translate(-8.31 -27.6)"/><path class="cls-6" d="M99.79,143.58s0,0,0,.06a7.8,7.8,0,0,1-1.22,2.57,6.93,6.93,0,0,0-1.49,2.47C99.85,149.77,101,145.58,99.79,143.58Z" transform="translate(-8.31 -27.6)"/><path class="cls-6" d="M131,143.59c-.05-.44-.09-.88-.13-1.32a4.38,4.38,0,0,1,1.33-.11,1.18,1.18,0,0,1-.2-.27c-.35-.73-2.08.5-2.75.94a4.39,4.39,0,0,0,0,3.25,3,3,0,0,0,2.88.73C132.68,145,132.16,144,131,143.59Z" transform="translate(-8.31 -27.6)"/><path class="cls-6" d="M113.71,147.52c-.78-.14-1.17,1.61-1.61.81a4.53,4.53,0,0,1,.27-1.41,8,8,0,0,1-2.3-.3c.28,1.06.87,1.95,1.78,2.07-.38.87-.84,3.83.65,3.94.73-1.49,2.25-2.18,2.72-3.92C114.64,148.43,114,148.25,113.71,147.52Z" transform="translate(-8.31 -27.6)"/><path class="cls-6" d="M127.5,143.76c-.65.33-1.32.64-2,.91h0s0,0,0,.08a1.28,1.28,0,0,1-1.33.79c0-.14-.05-.26-.08-.36-.58.14-1.15.29-1.72.45a4.84,4.84,0,0,0,1.46,2.27c1.53-.49,2.38-1.65,4-2A5.7,5.7,0,0,0,127.5,143.76Z" transform="translate(-8.31 -27.6)"/><path class="cls-6" d="M101.54,146.31c1.18-.08,1.61.93,1.88,2.16-.2.3-.74.27-.77.74C101.85,148.85,101.65,147.64,101.54,146.31Z" transform="translate(-8.31 -27.6)"/><path class="cls-6" d="M120.17,146.32a14.94,14.94,0,0,1-3.67.54.43.43,0,0,0,0,.07c-.27.49.65,1.63-.37,2,.72,2.07,6.15,3.66,6.42-.26A12,12,0,0,0,120.17,146.32Zm-2,1.45c.8-.56,1.42-.19,1.51,1.19C118.93,149.51,118.31,149.15,118.22,147.77Z" transform="translate(-8.31 -27.6)"/><path class="cls-6" d="M107.19,149.79c.07,2-1.15,2.82-2,4,.11,0,.22,0,.33,0,.77,0,1.55.06,2.32.09.77-2.78,2-4.82-.67-7.06-1.07-.16-1.29.53-2.19.53C105,149.13,106.17,149.38,107.19,149.79Z" transform="translate(-8.31 -27.6)"/><path class="cls-6" d="M98.2,149.62c0,.95-.21,1.6-1.27,1.45C96.58,149.51,97.36,149.28,98.2,149.62Z" transform="translate(-8.31 -27.6)"/><path class="cls-6" d="M130.42,149.3c0,2.32-2.35,4.41-3.49,1.66-.34-1,.66-.75.71-1.4-.14-.68-1.23,0-1.45-.53a2.08,2.08,0,0,0,.15-1.35C128.06,146.06,129.55,147.69,130.42,149.3Z" transform="translate(-8.31 -27.6)"/><path class="cls-6" d="M97.66,152.17a7.84,7.84,0,0,1,2.2.38,11.28,11.28,0,0,1,.37-2.12c-.39-.3-1-.23-1.45-.53-.38,1.21,1.09,1.61.46,1.95-.83.17-1.18-1-1.69-.17a1.7,1.7,0,0,0,.07.49Z" transform="translate(-8.31 -27.6)"/><path class="cls-6" d="M105.51,152.94a2.86,2.86,0,0,1-3-2.39c.36-1.12,1.86-.75,2.5-.23C104.78,151.8,105.05,151.8,105.51,152.94Z" transform="translate(-8.31 -27.6)"/><path class="cls-6" d="M135.16,149.67c-.38-.82-.94-1.54-1.36-2.34a11.61,11.61,0,0,0-2.36.88c-.14,2.2,1.27,2.17,2.47,2.43-.23-.76-.57-1.49.41-1.7.14,1,.19,2-.35,2.37-.8.16-.92-.67-1.73-.51a2.42,2.42,0,0,1-.46,1c1.22,2.62,3.54,1.76,4.47-.26A13.56,13.56,0,0,1,135.16,149.67Z" transform="translate(-8.31 -27.6)"/><path class="cls-6" d="M125.54,154.08a3.81,3.81,0,0,1-.69.7H127c-.88-.73-1.5-1.38-.58-2.78-1.29-.35-.58-1.35-.83-2.92C122.77,147.9,123.22,154,125.54,154.08Z" transform="translate(-8.31 -27.6)"/><path class="cls-6" d="M128.77,154.8H129l.67,0a7.91,7.91,0,0,1,2.13-.27,2.75,2.75,0,0,0-2.88-.77C129.07,153.82,129,154.34,128.77,154.8Z" transform="translate(-8.31 -27.6)"/><path class="cls-6" d="M113.7,154.05c.65,0,1.3.06,1.94.1.57-.41,1.92-.06,2.26-.69.1-2.67-2-2.77-3.55-2A3.38,3.38,0,0,1,113.7,154.05Z" transform="translate(-8.31 -27.6)"/><path class="cls-6" d="M112,154a4.86,4.86,0,0,0-.07-1c-1.39-.85-2-.14-2.94.88C110,153.91,111,153.94,112,154Z" transform="translate(-8.31 -27.6)"/><path class="cls-6" d="M119.62,154.46c.75.12,1.51.19,2.28.24-.15-2-1.16-3.85-2.92-1.68a2.26,2.26,0,0,0,.33,1.41Z" transform="translate(-8.31 -27.6)"/></g><g id="Lola"><path class="cls-7" d="M128.88,62.11a6.32,6.32,0,0,0,.44-2.65c-.61-3-5.59-4.26-7.87-4.94-4.49-1.25-11-1.82-15,1.13-1.18.86-2.78,2.14-3.15,3.62-.5,1.72,1.16,2.53,2.58,2.9,2,.5,4.18.5,6.27.94a51.81,51.81,0,0,0,6.09,1.12c3.63.26,7.51.58,10.34-2" transform="translate(-8.31 -27.6)"/><path class="cls-4" d="M116.23,82.82a8.34,8.34,0,0,1-2.29-.34,24,24,0,0,1-.44,3.31s3.56-.69,4.86-3.18l0-.09A8.71,8.71,0,0,1,116.23,82.82Z" transform="translate(-8.31 -27.6)"/><path class="cls-2" d="M129.34,60.43h0c.24-4.6,0-11.18-8.92-14.19a26,26,0,0,0-4.08-1.08,25.52,25.52,0,0,0-4.08,1.06c-8.61,2.87-9.2,9.14-9,13.71a45.15,45.15,0,0,0-.09,7.56,10.92,10.92,0,0,0,.24,1.15s0-.09,0-.14a3.46,3.46,0,1,1,.63,2A29.8,29.8,0,0,0,112.81,82a6.05,6.05,0,0,0,1.1.45c0,.15,0,.31,0,.48a14.39,14.39,0,0,1-2.79,7.8c-.14.19,7.46.54,9,0a5.55,5.55,0,0,1,.81-.17A16.22,16.22,0,0,1,118.4,83c0-.15,0-.28,0-.42-1.3,2.49-4.86,3.18-4.86,3.18a24,24,0,0,0,.44-3.31,8.32,8.32,0,0,0,2.28.34,8.73,8.73,0,0,0,2.18-.3,5.83,5.83,0,0,0,1.24-.48,29.5,29.5,0,0,0,8.93-11.72,3.44,3.44,0,1,1,.49-1.75,3.42,3.42,0,0,1,0,.45,9.5,9.5,0,0,0,.34-1.46A44.67,44.67,0,0,0,129.34,60.43Zm-6.29-2.21c1.7-.24,5.85-.26,5.86,2.82a5.32,5.32,0,0,0-2.23-1.85c-3-.94-5.66,1.17-7.36-.47C119.32,58.72,121.35,58.46,123.05,58.22Zm-13.14.12,3.59,1.13c-2,1.32-4.17-1.2-7.33-.81a5.35,5.35,0,0,0-2.52,1.44C104.19,57.07,108.28,57.81,109.91,58.34Zm-.27,6.55c-1,.59-3.69-.42-4.2-1.37A10.74,10.74,0,0,1,105,62.1a2,2,0,0,1-1.28-.54.86.86,0,0,1-.39-.75s1.3.92,2,.44,3-1.51,4.75-.59a5.77,5.77,0,0,1,2.76,3.8.67.67,0,0,1,0,.17l-.22,0A6.82,6.82,0,0,0,109.64,64.89Zm13.18,9.32.09,0a6.56,6.56,0,0,1-2,2.26,21.28,21.28,0,0,1-2.29,2,4.93,4.93,0,0,1-2.47.3,4.9,4.9,0,0,1-2.46-.31,21.33,21.33,0,0,1-2.29-2,6.43,6.43,0,0,1-1.93-2.27l.09,0a2.69,2.69,0,0,0,1.44-.15c1.88-.55,3-1.32,3.6-1.13s1,.59,1.56.71c.55-.12,1-.54,1.57-.7s1.72.58,3.6,1.14A2.79,2.79,0,0,0,122.82,74.21Zm6.05-12.59a2,2,0,0,1-1.28.53,12.59,12.59,0,0,1-.49,1.43c-.51,1-3.19,1.94-4.21,1.35a6.93,6.93,0,0,0-3-.3l-.23,0,0-.17a5.79,5.79,0,0,1,2.77-3.79c1.75-.91,4,.13,4.75.62s2-.43,2-.43A.85.85,0,0,1,128.87,61.62Z" transform="translate(-8.31 -27.6)"/><polygon class="cls-7" points="112.56 47.37 112.5 48 112.57 47.37 112.56 47.37"/><polygon class="cls-7" points="103.23 47.35 103.29 47.98 103.23 47.35 103.23 47.35"/><path class="cls-8" d="M129,69a13.63,13.63,0,0,1-.45,1.3A3.41,3.41,0,0,0,129,69Z" transform="translate(-8.31 -27.6)"/><path class="cls-2" d="M125.62,65.11a3.45,3.45,0,1,0,2.95,5.21A13.63,13.63,0,0,0,129,69a3.42,3.42,0,0,0,0-.45A3.46,3.46,0,0,0,125.62,65.11Z" transform="translate(-8.31 -27.6)"/><path class="cls-8" d="M104,70.49a17.42,17.42,0,0,1-.62-1.85A3.47,3.47,0,0,0,104,70.49Z" transform="translate(-8.31 -27.6)"/><path class="cls-2" d="M106.84,72a3.45,3.45,0,1,0-3.44-3.46s0,.09,0,.14a17.42,17.42,0,0,0,.62,1.85A3.45,3.45,0,0,0,106.84,72Z" transform="translate(-8.31 -27.6)"/><path class="cls-9" d="M107.42,61.91a13.38,13.38,0,0,1-1.8.2,1.13,1.13,0,0,1,.28.64,2.18,2.18,0,0,0,1.78,1.9,3.35,3.35,0,0,0,1,.08,2.19,2.19,0,0,1-.33-.12A2.06,2.06,0,0,1,107.42,61.91Z" transform="translate(-8.31 -27.6)"/><path class="cls-9" d="M112.85,64.46a.86.86,0,0,1,0,.17A.67.67,0,0,0,112.85,64.46Z" transform="translate(-8.31 -27.6)"/><path class="cls-9" d="M111.94,63.09a4.5,4.5,0,0,0-.58-.56,1.47,1.47,0,0,1,0,.28,2.13,2.13,0,0,1-.21.85,2.26,2.26,0,0,1-.58.71,2.9,2.9,0,0,1,2.29.26s-.39-.59-.78-1.29A2,2,0,0,0,111.94,63.09Z" transform="translate(-8.31 -27.6)"/><path class="cls-9" d="M112.88,64.63l-.22,0Z" transform="translate(-8.31 -27.6)"/><path class="cls-10" d="M111.17,63.66a2.13,2.13,0,0,0,.21-.85,1,1,0,0,1-.1.37.8.8,0,0,0-.53-.11,1.17,1.17,0,0,1-.11.33A1.49,1.49,0,0,1,108,62.09a1.69,1.69,0,0,1,.21-.31l-.76.13a2.06,2.06,0,0,0,1,2.7,2.19,2.19,0,0,0,.33.12,14.37,14.37,0,0,0,1.87-.36A2.26,2.26,0,0,0,111.17,63.66Z" transform="translate(-8.31 -27.6)"/><path class="cls-11" d="M112.66,64.61l.22,0a2.9,2.9,0,0,0-2.29-.26,14.37,14.37,0,0,1-1.87.36,3.35,3.35,0,0,1-1-.08,2.18,2.18,0,0,1-1.78-1.9,1.13,1.13,0,0,0-.28-.64,4.8,4.8,0,0,1-.66,0,10.74,10.74,0,0,0,.48,1.42c.51.95,3.18,2,4.2,1.37A6.82,6.82,0,0,1,112.66,64.61Z" transform="translate(-8.31 -27.6)"/><path class="cls-12" d="M111.28,63.18a1,1,0,0,0,.1-.37,1.47,1.47,0,0,0,0-.28,4.24,4.24,0,0,0-.83-.51,1.27,1.27,0,0,1-1,.6.36.36,0,0,0,.34.48,7.52,7.52,0,0,0,.93,0A.8.8,0,0,1,111.28,63.18Z" transform="translate(-8.31 -27.6)"/><path class="cls-11" d="M103.68,61.56a1.62,1.62,0,0,1-.39-.75A.86.86,0,0,0,103.68,61.56Z" transform="translate(-8.31 -27.6)"/><path class="cls-11" d="M105,61.59c1.94-.15,5.12-1.77,6.91,1.52v0a2,2,0,0,1,.16.25c.39.7.78,1.29.78,1.29a.86.86,0,0,0,0-.17,5.77,5.77,0,0,0-2.76-3.8c-1.75-.92-4,.11-4.75.59s-2-.44-2-.44A3.09,3.09,0,0,0,105,61.59Z" transform="translate(-8.31 -27.6)"/><path d="M105.62,62.11a13.38,13.38,0,0,0,1.8-.2l.76-.13a1.69,1.69,0,0,0-.21.31,1.49,1.49,0,0,0,2.67,1.31,1.17,1.17,0,0,0,.11-.33,7.52,7.52,0,0,1-.93,0,.36.36,0,0,1-.34-.48,1.27,1.27,0,0,0,1-.6,4.24,4.24,0,0,1,.83.51,4.5,4.5,0,0,1,.58.56v0c-1.79-3.29-5-1.67-6.91-1.52a3.09,3.09,0,0,1-1.75-.78,1.62,1.62,0,0,0,.39.75,2,2,0,0,0,1.28.54A4.8,4.8,0,0,0,105.62,62.11Z" transform="translate(-8.31 -27.6)"/><path class="cls-9" d="M124.15,64.65a2.19,2.19,0,0,1-.33.12,3.09,3.09,0,0,0,1-.08,2.17,2.17,0,0,0,1.78-1.89,1.21,1.21,0,0,1,.28-.63,13.42,13.42,0,0,1-1.79-.22A2.07,2.07,0,0,1,124.15,64.65Z" transform="translate(-8.31 -27.6)"/><path class="cls-9" d="M119.88,64.63l-.23,0Z" transform="translate(-8.31 -27.6)"/><path class="cls-9" d="M122,64.4a1.91,1.91,0,0,1-.57-.71,1.93,1.93,0,0,1-.21-.84.9.9,0,0,1,0-.28,3.76,3.76,0,0,0-.59.57h0l-.15.22c-.4.7-.79,1.29-.79,1.29A2.92,2.92,0,0,1,122,64.4Z" transform="translate(-8.31 -27.6)"/><path class="cls-9" d="M119.65,64.65c0-.05,0-.11,0-.17Z" transform="translate(-8.31 -27.6)"/><path class="cls-10" d="M121.26,63.22a1.11,1.11,0,0,1-.09-.37,1.93,1.93,0,0,0,.21.84,1.91,1.91,0,0,0,.57.71,14.06,14.06,0,0,0,1.87.37,2.19,2.19,0,0,0,.33-.12,2.07,2.07,0,0,0,1-2.7l-.76-.12a1.61,1.61,0,0,1,.21.3,1.49,1.49,0,0,1-2.68,1.31,2.13,2.13,0,0,1-.11-.33A.71.71,0,0,0,121.26,63.22Z" transform="translate(-8.31 -27.6)"/><path class="cls-11" d="M126.92,62.17a1.21,1.21,0,0,0-.28.63,2.17,2.17,0,0,1-1.78,1.89,3.09,3.09,0,0,1-1,.08A14.06,14.06,0,0,1,122,64.4a2.92,2.92,0,0,0-2.3.25l.23,0a6.93,6.93,0,0,1,3,.3c1,.59,3.7-.4,4.21-1.35a12.59,12.59,0,0,0,.49-1.43A4.9,4.9,0,0,1,126.92,62.17Z" transform="translate(-8.31 -27.6)"/><path class="cls-12" d="M121.17,62.85a1.11,1.11,0,0,0,.09.37.71.71,0,0,1,.53-.11c.31,0,.67,0,.94,0a.37.37,0,0,0,.34-.48,1.28,1.28,0,0,1-1-.61,3.67,3.67,0,0,0-.84.52A.9.9,0,0,0,121.17,62.85Z" transform="translate(-8.31 -27.6)"/><path class="cls-11" d="M127.21,61.31c-.74-.49-3-1.53-4.75-.62a5.79,5.79,0,0,0-2.77,3.79c0,.06,0,.12,0,.17s.39-.59.79-1.29l.15-.22c1.81-3.28,5-1.65,6.92-1.49a3.1,3.1,0,0,0,1.75-.77S128,61.79,127.21,61.31Z" transform="translate(-8.31 -27.6)"/><path class="cls-11" d="M129.26,60.88a1.74,1.74,0,0,1-.39.74A.85.85,0,0,0,129.26,60.88Z" transform="translate(-8.31 -27.6)"/><path d="M127.51,61.65c-1.94-.16-5.11-1.79-6.92,1.49h0a3.76,3.76,0,0,1,.59-.57,3.67,3.67,0,0,1,.84-.52,1.28,1.28,0,0,0,1,.61.37.37,0,0,1-.34.48c-.27,0-.63,0-.94,0a2.13,2.13,0,0,0,.11.33,1.49,1.49,0,0,0,2.68-1.31,1.61,1.61,0,0,0-.21-.3l.76.12a13.42,13.42,0,0,0,1.79.22,4.9,4.9,0,0,0,.67,0,2,2,0,0,0,1.28-.53,1.74,1.74,0,0,0,.39-.74A3.1,3.1,0,0,1,127.51,61.65Z" transform="translate(-8.31 -27.6)"/><path d="M120.92,74.57l0,.4h0l-.07.63a10.07,10.07,0,0,0,1.61-.75,2.58,2.58,0,0,0,.37-.5.85.85,0,0,1,.09-.14l0,0c-.22.33-.8.34-1.62.39C121.18,74.58,121.05,74.57,120.92,74.57Z" transform="translate(-8.31 -27.6)"/><path class="cls-13" d="M116.2,78.71a4.93,4.93,0,0,0,2.47-.3,21.28,21.28,0,0,0,2.29-2,6.56,6.56,0,0,0,2-2.26l0,0a.85.85,0,0,0-.09.14,2.58,2.58,0,0,1-.37.5,10.07,10.07,0,0,1-1.61.75c-.51.23-1,.43-1.33.55a18.47,18.47,0,0,1-3.23.64h-.08a19.72,19.72,0,0,1-3.23-.66c-.33-.11-.83-.32-1.33-.55a10.22,10.22,0,0,1-1.6-.76,2.49,2.49,0,0,1-.37-.5l-.09-.14,0,0a6.43,6.43,0,0,0,1.93,2.27,21.33,21.33,0,0,0,2.29,2A4.9,4.9,0,0,0,116.2,78.71Z" transform="translate(-8.31 -27.6)"/><path class="cls-13" d="M111.5,74.55a24.33,24.33,0,0,0,2.52-.39,8.58,8.58,0,0,1,2.19.39,9.2,9.2,0,0,1,2.2-.38,24,24,0,0,0,2.51.4c.13,0,.26,0,.37,0,.82,0,1.4-.06,1.62-.39l-.09,0a2.79,2.79,0,0,1-1.44-.17c-1.88-.56-2.94-1.33-3.6-1.14s-1,.58-1.57.7c-.54-.12-1-.55-1.56-.71s-1.72.58-3.6,1.13a2.69,2.69,0,0,1-1.44.15l-.09,0c.22.34.8.35,1.62.41Z" transform="translate(-8.31 -27.6)"/><path d="M109.64,74.32a2.49,2.49,0,0,0,.37.5,10.22,10.22,0,0,0,1.6.76l-.07-.63h0l0-.4h-.36c-.82-.06-1.4-.07-1.62-.41l0,0Z" transform="translate(-8.31 -27.6)"/><path class="cls-14" d="M120.88,75h0l0-.4a24,24,0,0,1-2.51-.4,9.2,9.2,0,0,0-2.2.38,8.58,8.58,0,0,0-2.19-.39,24.33,24.33,0,0,1-2.52.39l0,.4h0l.07.63c.5.23,1,.44,1.33.55a19.72,19.72,0,0,0,3.23.66h.08a18.47,18.47,0,0,0,3.23-.64c.33-.12.82-.32,1.33-.55l.07-.63Z" transform="translate(-8.31 -27.6)"/><path class="cls-15" d="M113.5,59.47l-3.59-1.13c-1.63-.53-5.71-1.27-6.26,1.76a5.35,5.35,0,0,1,2.52-1.44C109.33,58.27,111.54,60.79,113.5,59.47Z" transform="translate(-8.31 -27.6)"/><path class="cls-15" d="M126.68,59.19A5.32,5.32,0,0,1,128.91,61c0-3.08-4.16-3.06-5.86-2.82s-3.72.5-3.72.5C121,60.36,123.64,58.25,126.68,59.19Z" transform="translate(-8.31 -27.6)"/><path class="cls-16" d="M103.05,64.61s.3-5.85,1.45-8.72c.77-1.93-.36-3.9,1.35-4.52s6.13,1.1,8.18,1.26,3.76-.56,5.36-.91,6.26-.56,6.78,1.31,1.54,2.48,2.21,4.45c.38,1.13,1.09,7.64,1.09,7.64a15.23,15.23,0,0,1,.79-4.43,13,13,0,0,0,.5-6.1c-.3-1.4-1.22-8.12-2.71-9.11s.2,0,.2,0,2.79,0,3.06-2.06c0,0-3.57.1-3.05-1.82a11.1,11.1,0,0,0-.4-5.27c-.2-.62.53-3.47-.5-4.92s-2.48-3.05-4.29-2.85c0,0-2.27-1-3.51,0,0,0-2.07-.61-2.8.79,0,0-.61-2.07-2.17-1.66s-1.81,1.13-1.81,1.13-1.55-.57-2.12.2,0,.57,0,.57-2.12-.37-2.8.41a8.07,8.07,0,0,0-1.24,1.49c-.1.31.82,1.14-.52,1.61s-2.18,1.08-3.53,4.54.35,6.36,1.38,6.62-.21.57-.21.57-3.58,6.14-3.18,9.25,1,4.86,1.85,5.69S103.05,64.61,103.05,64.61Z" transform="translate(-8.31 -27.6)"/><path class="cls-17" d="M105,42.58s.53-2.53,2.13-2.79a31,31,0,0,1,5.9-.29c1.91.1,5.37-.4,5.63-.77a6.11,6.11,0,0,0-4.63-1.35c-2.66.4-3.49,1.28-5,1.33S104.79,39.94,105,42.58Z" transform="translate(-8.31 -27.6)"/><path class="cls-17" d="M104.27,41.75s.78-3,2.54-3.62,5.28-2.15,6.63-2.51,6.4,1.72,7.64,3.79a10.07,10.07,0,0,0-3.15-3.16c-1.91-1.09-3.16-2.13-6.05-1.15a49.45,49.45,0,0,0-5,1.9C105.67,37.51,104.27,39.78,104.27,41.75Z" transform="translate(-8.31 -27.6)"/><path class="cls-17" d="M117.16,35.37s5.84,1.93,5.11,3.68a2.11,2.11,0,0,0-.77-2.33A11.79,11.79,0,0,0,117.16,35.37Z" transform="translate(-8.31 -27.6)"/><path class="cls-17" d="M117.16,35.37l-.26-1s.73-.31.88,0,.79-4.29,2.7-4.75c0,0-1.65,1.7-1.5,3.46s.3,1.62.3,1.62a27.75,27.75,0,0,1,1.46-4.31s-.47,2-.68,3.16a4.12,4.12,0,0,0,.25,2.17s2.73-7.44,5.54-6.09A3.44,3.44,0,0,0,122.6,32c-1,2.53-.78,2.22-.78,2.22s5.39-1.48,5.74-.6a20.33,20.33,0,0,0-4.5,1.09c-1,.6-1.83,1.7-2.94,1.35S117.16,35.37,117.16,35.37Z" transform="translate(-8.31 -27.6)"/><path class="cls-17" d="M113.81,31.07s1.39,2.74,2.58,3.16c0,0-2.19.05-2.31-.73S113.81,31.07,113.81,31.07Z" transform="translate(-8.31 -27.6)"/><path class="cls-17" d="M112.7,29s-.31,2.79.54,3.64c0,0-2.79-3-2.32-3.65S112.7,29,112.7,29Z" transform="translate(-8.31 -27.6)"/><path class="cls-17" d="M116.4,28.71a12.45,12.45,0,0,1,.3,4.09S118.1,30,116.4,28.71Z" transform="translate(-8.31 -27.6)"/><path class="cls-17" d="M123.33,28.73s-1.55.55-1.86,1.48C121.47,30.21,121,28.52,123.33,28.73Z" transform="translate(-8.31 -27.6)"/><path class="cls-17" d="M122.64,36.15s6.2,2.87,5.62,5.45C128.26,41.6,129.72,37.81,122.64,36.15Z" transform="translate(-8.31 -27.6)"/><path class="cls-17" d="M121.65,36.83s3.72,3,4.29,4.77,1.86,1,2.22,1a2.08,2.08,0,0,1-2-1.46C125.63,39.58,123.86,37,121.65,36.83Z" transform="translate(-8.31 -27.6)"/><path class="cls-17" d="M105.35,43.15s1.92-2.58,4-2.63A7.27,7.27,0,0,0,107,42.27s2-.35,3.25-.71,3.68-1.44,4.87-.82c0,0-2.35.25-3.22,1.11S106.33,44.13,105.35,43.15Z" transform="translate(-8.31 -27.6)"/><path class="cls-17" d="M113.78,42.73s4.5,1.52,7,.79,4.71-.9,5.38-.27c0,0-2.64-.38-3.57.27S117.24,45,113.78,42.73Z" transform="translate(-8.31 -27.6)"/><path class="cls-17" d="M115.07,42.6s4.76-.4,5.43,0C120.5,42.62,117.43,43.88,115.07,42.6Z" transform="translate(-8.31 -27.6)"/><path class="cls-17" d="M123.61,42.44s3.57-.48,3.25,1.33C126.86,43.77,127.69,40.68,123.61,42.44Z" transform="translate(-8.31 -27.6)"/><path class="cls-17" d="M127.27,44.6s2.54-.19,2.86-3.61C130.13,41,131.37,46.22,127.27,44.6Z" transform="translate(-8.31 -27.6)"/><path class="cls-17" d="M106.09,37.29s1.2-3.86,4.35-3.54c0,0-2.48-.68-3.72.71a2.33,2.33,0,0,0-2.43.22s1.91-.58,1.39,1-1.61,2.12-1.92,3.82-.89,3,.92,4,.15-.33.15-.33S103.08,41,106.09,37.29Z" transform="translate(-8.31 -27.6)"/><path class="cls-17" d="M108,49.62a6.46,6.46,0,0,1,2.19-4.76c2.23-1.75,2.46-1.7,2.46-1.7s-1.43,1.45-2.26,2.12A12.18,12.18,0,0,0,108,49.62Z" transform="translate(-8.31 -27.6)"/><path class="cls-17" d="M115.07,44.2s-.83.83-1.87,2-1.5,1.29-1.61,2.53a7.81,7.81,0,0,0,1,3.26s-1.1-2.85,0-4.14A26.86,26.86,0,0,0,115.07,44.2Z" transform="translate(-8.31 -27.6)"/><path class="cls-18" d="M116.88,44.21s1.64.42.33,1.65-1.94.88-2.36,2.25,0,4.06.4,4.27c0,0-.18-3.16.65-4.09S119.77,44.47,116.88,44.21Z" transform="translate(-8.31 -27.6)"/><path class="cls-18" d="M120,44.68a6.72,6.72,0,0,0-1.3,2c-.62,1.34-1.34,4.13-.91,4.75a6.19,6.19,0,0,0,.91-2.22C118.94,47.84,120.18,45.17,120,44.68Z" transform="translate(-8.31 -27.6)"/><path class="cls-18" d="M120.5,44.48a2.75,2.75,0,0,1,0,3.05,4,4,0,0,0,0,3.88c.16-.11-.46-2.18.21-2.9S122.77,45.57,120.5,44.48Z" transform="translate(-8.31 -27.6)"/><path class="cls-17" d="M123.48,43.72s1.2,7-.37,7.32c0,0,2.14-.72,1.63-3.92S123.48,43.72,123.48,43.72Z" transform="translate(-8.31 -27.6)"/><path class="cls-18" d="M106.11,51.06s-1.23-4.81,1.46-6.41A2.68,2.68,0,0,0,105,47.28,4.73,4.73,0,0,0,106.11,51.06Z" transform="translate(-8.31 -27.6)"/><path class="cls-17" d="M104.71,55.14s-4.45.82-4.11-2.8C100.6,52.34,100.39,54.39,104.71,55.14Z" transform="translate(-8.31 -27.6)"/><path class="cls-18" d="M104.72,53.78s-3.57-3-2.58-5.93C102.14,47.85,103,52.06,104.72,53.78Z" transform="translate(-8.31 -27.6)"/><path class="cls-19" d="M105.81,43.48s6,.71,8-.31,4.65-2.07,7.09-1.14a4.69,4.69,0,0,0-5.79-.87C111.66,43,110.37,43,105.81,43.48Z" transform="translate(-8.31 -27.6)"/><path class="cls-18" d="M112.77,43.5s1.11.67-.55,1.37c-2.32,1-4.56,5.22-2.91,6.51l3.2,1s-3.2-3-.66-5.22,3.13-2.34,2.84-3.65Z" transform="translate(-8.31 -27.6)"/><path class="cls-19" d="M115.69,44.2c-.57-1.49-.43.73-1.64,2.8s-1.21,5.56.62,5.65c0,0-2.06-2.44-.63-4S116.31,45.81,115.69,44.2Z" transform="translate(-8.31 -27.6)"/><path class="cls-19" d="M122.2,44.89s1.79.17.41,1.53-3.21,3.33-1.56,4.68a3.35,3.35,0,0,1,1.28-3C123.81,47.21,124.43,45.1,122.2,44.89Z" transform="translate(-8.31 -27.6)"/><path class="cls-18" d="M124.38,43.9s2.83,5,.66,7.73c-.39.48.46,1,1.21,1.66a7.14,7.14,0,0,1,2.1,3.31c0,.88.63,3.36.39,4.14s.77-1,1.08-3.62.33-4.24-.34-6S127.33,44.48,124.38,43.9Z" transform="translate(-8.31 -27.6)"/><path class="cls-19" d="M111.24,43.73s.06-.06-1.45,1.13-2.48,1.49-2.59,3.23a6.19,6.19,0,0,0,.35,2.74s-2.53-1.22-1.64-3.37,1.81-2.8,3.16-3.27A6.71,6.71,0,0,1,111.24,43.73Z" transform="translate(-8.31 -27.6)"/><path class="cls-19" d="M105.73,44.65c.57.21-1.78,1.54-1.48,3.36a8.91,8.91,0,0,0,1.47,3.36s-.21,1.62-1,1-3.06-3-2.28-4.51S103.48,43.81,105.73,44.65Z" transform="translate(-8.31 -27.6)"/><path class="cls-19" d="M114.1,27.6c-.44.41-1.47.36-1.39.78s2,5.12,3.68,5.85c0,0,.18-3.15.28-4s-1,1.08-1.2,0A7.4,7.4,0,0,0,114.1,27.6Z" transform="translate(-8.31 -27.6)"/><path class="cls-19" d="M125.54,29.39c.21.16-3.46-.53-4.44,3.92,0,0-1.35-2.05,0-3.1S124,28.19,125.54,29.39Z" transform="translate(-8.31 -27.6)"/><path class="cls-19" d="M124.72,31.1c-.65,0-1.86,1.34-.85,1.57a15.21,15.21,0,0,0,2.35.65C127,33.38,126.33,31.1,124.72,31.1Z" transform="translate(-8.31 -27.6)"/><path class="cls-19" d="M122.64,35.38s5.59,3,5.57,3.69A4.34,4.34,0,0,0,127,36.84C126,36.12,122.64,35.38,122.64,35.38Z" transform="translate(-8.31 -27.6)"/><path class="cls-19" d="M109.5,38.23a21.09,21.09,0,0,0,4.57-.85c1.22-.57,6.27,1.86,6.35,2.59l1-.18s-3.3-4-5.94-3.66A22.76,22.76,0,0,0,109.5,38.23Z" transform="translate(-8.31 -27.6)"/><path class="cls-19" d="M107.17,40.51a24.31,24.31,0,0,1,6-.29c2.12.37,5.81-.43,6-.81a28.61,28.61,0,0,0-3.25,0C114.26,39.5,109.1,39.11,107.17,40.51Z" transform="translate(-8.31 -27.6)"/><path class="cls-19" d="M119.75,41a2,2,0,0,0,2.46.63,6,6,0,0,1,3.65-.19s-1.16-1.73-2.25-1.42S120.54,41.74,119.75,41Z" transform="translate(-8.31 -27.6)"/><path class="cls-19" d="M110.25,29.51s1,4.76,4.53,4.54c0,0-4.14-3.29-3.84-4.53C110.94,29.52,111,28.8,110.25,29.51Z" transform="translate(-8.31 -27.6)"/><path class="cls-18" d="M101.3,49.88s1,4.43,3.42,4.23c0,0,.53,1.4-1,.8s-3.56-2.22-3.19-2.93A19.57,19.57,0,0,0,101.3,49.88Z" transform="translate(-8.31 -27.6)"/><path class="cls-18" d="M103.55,60.49s-3.11-5.1-3-6A7.9,7.9,0,0,1,103.55,60.49Z" transform="translate(-8.31 -27.6)"/><path class="cls-16" d="M128.35,56.38c-.13-.24,1.45-7.87-2.5-11.16,0,0,2.6.62,3.44,7.19.56,4.41-.11,6.57-.75,7.19C128.54,59.6,128.86,57.32,128.35,56.38Z" transform="translate(-8.31 -27.6)"/><path class="cls-16" d="M124.7,44.23A7.81,7.81,0,0,1,125.93,53l1,1.53s.93-3.35.68-4.82S126.05,44.23,124.7,44.23Z" transform="translate(-8.31 -27.6)"/><path class="cls-18" d="M107.19,31.05a7.78,7.78,0,0,0,3.19,2.23c2.13.84,3.55,1.13,3.7.94s-3-.93-3.63-2-1-3.25-1.92-2.59S107.19,30.17,107.19,31.05Z" transform="translate(-8.31 -27.6)"/><path class="cls-18" d="M119.56,28.53a2.87,2.87,0,0,1-.7,2.23,12.69,12.69,0,0,0-1.62,3.47,26.47,26.47,0,0,0,.45-3.55C117.64,29.84,116.82,27.78,119.56,28.53Z" transform="translate(-8.31 -27.6)"/><path class="cls-18" d="M122.64,35s4,1.32,5.06.4l.22-1.31s-2.21.94-3.2.65A3.27,3.27,0,0,0,122.64,35Z" transform="translate(-8.31 -27.6)"/><path class="cls-18" d="M105,42.39s-.18-2.19,2.57-3.37,6.81-3.25,8.84-2.85c0,0-.91-1.46-4.64,0s-5,1.69-6,2.65A3.39,3.39,0,0,0,105,42.39Z" transform="translate(-8.31 -27.6)"/><path class="cls-18" d="M105.76,34.69a21.58,21.58,0,0,0-2.39,4c-.34,1.21-.8,4.91,1.65,5.14a2.74,2.74,0,0,1-2.68-3C102.43,37.86,104,34.68,105.76,34.69Z" transform="translate(-8.31 -27.6)"/><path class="cls-18" d="M119.56,36.82s3.35,3.49,2.49,3.85c0,0,1.24-.67.76-1.3S120.56,37,119.56,36.82Z" transform="translate(-8.31 -27.6)"/><path class="cls-18" d="M124.72,38.06s3,2.68,2.82,3.54.61.47.67.24S128.48,39.69,124.72,38.06Z" transform="translate(-8.31 -27.6)"/><path class="cls-18" d="M125.86,43.49s1.26,2.87,3.66,1.74,2.57-2.41,2.72-3.07c0,0-1.12,2.12-2.18,2.39S128.43,45.74,125.86,43.49Z" transform="translate(-8.31 -27.6)"/><path class="cls-20" d="M125.62,65.11a3.45,3.45,0,1,0,2.95,5.21A13.63,13.63,0,0,0,129,69a3.42,3.42,0,0,0,0-.45A3.46,3.46,0,0,0,125.62,65.11Z" transform="translate(-8.31 -27.6)"/><path class="cls-20" d="M106.84,72a3.45,3.45,0,1,0-3.44-3.46s0,.09,0,.14a17.42,17.42,0,0,0,.62,1.85A3.45,3.45,0,0,0,106.84,72Z" transform="translate(-8.31 -27.6)"/></g><path class="cls-21" d="M115.53,70.11a1.39,1.39,0,0,0-.46-.28.65.65,0,0,0-.27-.15.7.7,0,0,0-.68.15.24.24,0,0,0,.14.37c.35.09.68-.07,1,0l.12.06s0,0,0,0S115.6,70.18,115.53,70.11Z" transform="translate(-8.31 -27.6)"/><path class="cls-21" d="M117,70.15H117l.11-.05c.35-.08.68.08,1,0a.24.24,0,0,0,.16-.37.75.75,0,0,0-.69-.16.67.67,0,0,0-.27.16,1.12,1.12,0,0,0-.46.28C116.84,70.06,116.91,70.15,117,70.15Z" transform="translate(-8.31 -27.6)"/></g></g></svg>