<svg xmlns="http://www.w3.org/2000/svg" xmlns:xlink="http://www.w3.org/1999/xlink" width="77" height="78" viewBox="0 0 77 78">
  <defs>
    <clipPath id="clip-path">
      <circle id="Ellipse_3" data-name="Ellipse 3" cx="38.5" cy="38.5" r="38.5" fill="none"/>
    </clipPath>
  </defs>
  <g id="Group_30" data-name="Group 30" transform="translate(-1761 -1414)">
    <g id="Layer_2" data-name="Layer 2" transform="translate(1750.46 1421.43)">
      <g id="Accessories" transform="translate(10.54 -7.43)">
        <g id="Group_22" data-name="Group 22" clip-path="url(#clip-path)">
          <path id="Path_1261" data-name="Path 1261" d="M31.244,48.4l-1.5,12.179s7.13,8.458,9.815,8.126,8.634-7.393,8.634-7.393L47.31,53.42Z" transform="translate(-0.694 -1.13)" fill="#7b5234"/>
          <path id="Path_1262" data-name="Path 1262" d="M47.494,55.87s-5.8,4.883-7.511,4.258-6.133-2.3-6.954-3.516c0,0,2.324,3.584,3.838,4.434a10.1,10.1,0,0,0,7.12.879,35.58,35.58,0,0,1,4.17-1.143Z" transform="translate(-0.771 -1.304)" fill="#3d2924"/>
          <path id="Path_1263" data-name="Path 1263" d="M55.576,28.2c0-1.143-.088-6.133-.313-7.266s-2.676-6.26-4.776-7.979-4.8-3.77-7.735-4.239c-1.738-.283-7.159,0-9.4,1.2a16.125,16.125,0,0,0-7.081,7.2c-2.49,4.532-.977,10.812-.6,12.794.127.674.127,1.778.244,4.092a44.533,44.533,0,0,1,.371,4.483,51.119,51.119,0,0,0,.43,6.2c.059,1.719.566,4.493,3.448,8.927,1.113,1.719,5.772,5.86,7.745,6.368a14.7,14.7,0,0,0,6.837-.488c.977-.654,2.6-3.389,3.584-4.668,1.729-2.227,4.512-5.713,4.883-7.286a27.815,27.815,0,0,0,.459-5.674c0-1.582,1.465-8.692,1.465-10.148h0A27.537,27.537,0,0,0,55.576,28.2Z" transform="translate(-0.581 -0.201)" fill="#7b5234"/>
          <path id="Path_1264" data-name="Path 1264" d="M26.068,35.444c-.146-.928-.606-4.678-2.1-4.444s-1.27,2.364-1.338,3.1.244,3.233.244,3.819.908,1.953.781,2.842c-.205,1.318,1.289,4.883,2.754,1.67a55.268,55.268,0,0,0-.342-6.983Z" transform="translate(-0.528 -0.723)" fill="#7b5234"/>
          <path id="Path_1265" data-name="Path 1265" d="M25.933,34.678c-.068-.391-1.113-2.578-1.836-2.578s-.977.2-.977.918a46.881,46.881,0,0,1,.3,5.606c0,.391,1.7,2.383,1.836,1.953s-1.377-1.133-1.436-2.051-.117-3.7-.107-4.424.332-.459.654-.254S25.933,34.678,25.933,34.678Z" transform="translate(-0.54 -0.749)" fill="#3d2924"/>
          <path id="Path_1266" data-name="Path 1266" d="M25.647,35.35c-.068.723.4.459-.332,1.445s-.664,1.123-.606,1.778,1.182,1.133,1.182,1.133-.85-1.66-.449-1.787.664-1.055.664-1.514A2.266,2.266,0,0,0,25.647,35.35Z" transform="translate(-0.576 -0.825)" fill="#3d2924"/>
          <path id="Path_1267" data-name="Path 1267" d="M55.5,35.167c.2-.977.693-4.883,2.246-4.708s1.309,2.5,1.367,3.262-.293,3.4-.293,4.024-.977,2.08-.85,2.93c.2,1.387-2.139,4.561-3.643,1.162C54.33,41.887,55.082,37.306,55.5,35.167Z" transform="translate(-1.268 -0.711)" fill="#7b5234"/>
          <path id="Path_1268" data-name="Path 1268" d="M55.75,34.356c.068-.41,1.192-2.7,1.953-2.686s1.045.205,1.035.977a49.742,49.742,0,0,0-.371,5.86c0,.42-1.817,2.491-1.953,1.953s1.465-1.172,1.533-2.139.156-3.907.166-4.649-.342-.488-.693-.283S55.75,34.356,55.75,34.356Z" transform="translate(-1.301 -0.739)" fill="#3d2924"/>
          <path id="Path_1269" data-name="Path 1269" d="M55.988,35.07c.068.762-.42.479.342,1.524s.684,1.182.615,1.875-1.26,1.172-1.26,1.172.918-1.729.5-1.865-.684-1.113-.684-1.6a2.315,2.315,0,0,1,.488-1.1Z" transform="translate(-1.295 -0.818)" fill="#3d2924"/>
          <path id="Path_1270" data-name="Path 1270" d="M49.924,37.05a3.135,3.135,0,1,0,2.7,4.678c0-.088.068-.166.1-.254.1-.283.2-.547.273-.791a4.181,4.181,0,0,0,0-.479,3.135,3.135,0,0,0-3.067-3.155Z" transform="translate(-1.091 -0.865)" fill="#df8b7b" opacity="0.28"/>
          <path id="Path_1271" data-name="Path 1271" d="M31.245,43.22a3.135,3.135,0,1,0-3.125-3.155v.166a14.5,14.5,0,0,0,.566,1.651,3.135,3.135,0,0,0,2.559,1.338Z" transform="translate(-0.656 -0.862)" fill="#df8b7b" opacity="0.28"/>
          <path id="Path_1272" data-name="Path 1272" d="M8.712,161.13s-9.913,8.936-8.6,12.7S10.333,169.471,8.712,161.13Z" transform="translate(0 -3.761)" fill="#686a6d"/>
          <path id="Path_1273" data-name="Path 1273" d="M44.877,301.957l2.188-6.387L58.2,298.764l.977,5.538-7.686,3.223-5.967-1.553S44.418,303.305,44.877,301.957Z" transform="translate(-1.045 -6.898)" fill="#686a6d"/>
          <path id="Path_1274" data-name="Path 1274" d="M41.15,140.36H30.983L22.594,169.4,7.68,165.148l-2.09,2.276s3.477,8.077,3.477,9.415,1.182,3.907.85,6.739,1.289,40.365,1.065,47.534.674,9.855,0,14.787.674,19.27,0,25.989-.674,15.685,0,19.27a81.652,81.652,0,0,0,2.823,9.5s7.071.488,8.79.859,5.049-3.184,5.049-3.184,0-.449,1.475-6.28-2.149-16.6-1.475-19.719,3.721-21.955,3.545-27.347,3.6-50.708,8.692-55.152c0,0,.547,18.41.117,23.342s1.651,20.608,2.4,23.3A60.846,60.846,0,0,1,44,248.135s-.977,19.26-1.6,24.192,1.094,19.719,1.6,22.4,1.348,5.938,1.348,5.938H55.937s5.079-5.04,4.883-10.421-.254-38.529,0-44.36,6.065-55.162,6.065-55.162S72.3,157.246,54.1,155.918Z" transform="translate(-0.13 -3.276)" fill="#5c5e60"/>
          <path id="Path_1275" data-name="Path 1275" d="M29.143,64.11c.234-.078-.049-3.809-.977-3.75C26.975,62.089,23,68.593,23,68.593l5.069,27.786L44.2,132.672,63.737,95.256s3.213-18.371,2.041-18.82S48.393,63.661,48.393,63.661l-8.927,4.932Z" transform="translate(-0.537 -1.409)" fill="#ebe3dc"/>
          <path id="Path_1276" data-name="Path 1276" d="M41.956,75.32H38.723s-.537,2.852-1.328,3.448-3.116,15.851-3.575,23.586l2.871,13.673,4.082,6.046,6.4-10.421-2.8-5.723s.557-17.238-.225-21.389S41.448,76.56,41.956,75.32Z" transform="translate(-0.789 -1.758)" fill="#c1272d"/>
          <path id="Path_1277" data-name="Path 1277" d="M5.758,171.892S-.962,177.127.991,167.38C.991,167.38.015,174.275,5.758,171.892Z" transform="translate(-0.015 -3.906)" fill="#141a20"/>
          <path id="Path_1278" data-name="Path 1278" d="M27.4,60.36a12.7,12.7,0,0,1-4.043,3.907c-2.188,1.055-20.227,8.194-23.1,7.686,0,0-10.333,39.662-10.743,51.314S-.186,171.66-.186,171.66.5,166.5,6.338,162.255c0,0-2.539-8.067,2.1-12.325L2.294,128.59s7.413-22.522,6.9-22.522,3.252,23.362,3.252,23.362L38.7,120.561s-8.321-22.17-9-28.665S25.549,61.757,27.4,60.36Z" transform="translate(0.245 -1.409)" fill="#686a6d"/>
          <path id="Path_1279" data-name="Path 1279" d="M11.959,125.4s1.172,5.86,0,8.673S7.5,149.772,6.773,154.421a34.427,34.427,0,0,0,0,9.239s1.68,18.557,10.958,15.793,19.533-23.928,20.656-35.267a179.041,179.041,0,0,0,.488-22.893S16.5,117.972,11.959,125.4Z" transform="translate(-0.151 -2.814)" fill="#686a6d"/>
          <path id="Path_1280" data-name="Path 1280" d="M38.659,123.572c1.68-2.52,5.391-17.638,6.9-21s3.545-31.087,3.907-33.109a56.051,56.051,0,0,0,0-7.725c1.358,3.194,5.4,4.7,9.444,5.86s17.7,6.837,17.7,6.837c3.711,9.415,7.266,53.335,7.266,53.335l-1.172,5.713c-2.324-.606-4.8-.772-7.022-1.738s-1.152-6.495-3.848-6.241c-.215,0-1.152-3.907-1.358-3.848l-3.809-8.565-2.7,17.472,4.717,38.48s-.166,7.061-12.14,11.72-13.82-11.72-15-18.488S36.969,126.092,38.659,123.572Z" transform="translate(-0.891 -1.441)" fill="#686a6d"/>
          <path id="Path_1281" data-name="Path 1281" d="M37.781,125.627c-.234-.693-1.563-3.985-1.9-4.571-3.643-6.133-7.393-13.175-11.466-21.487-.684-1.4-1.436-2.774-2.158-4.112a69.161,69.161,0,0,1-3.145-6.251A77.655,77.655,0,0,1,14.8,75.534v-.205l.2-.078c1.094-.41,2.246-.772,3.35-1.113.732-.225,1.485-.459,2.237-.713a19.18,19.18,0,0,1-2.012-.3,14.308,14.308,0,0,0-2.813-.332h-.625l.449-.43c1.045-.977,2.168-1.953,3.252-2.823l.732-.615a17.581,17.581,0,0,0,1.953-2.3c1.436-1.953,2.08-2.686,2.559-2.627l-.059.5v0a11.544,11.544,0,0,0-2.139,2.442,17.414,17.414,0,0,1-1.953,2.383l-.742.615c-.918.762-1.875,1.553-2.774,2.383a18.85,18.85,0,0,1,2.246.322,12.775,12.775,0,0,0,3.282.313l.107.488c-1.172.449-2.383.82-3.555,1.182s-2.1.654-3.116,1.025a78.26,78.26,0,0,0,4.229,13.38c.918,2.168,2.041,4.219,3.125,6.212.723,1.338,1.485,2.725,2.168,4.122,4.063,8.341,7.813,15.373,11.446,21.487.391.654,1.738,4.043,1.953,4.668l-.469.156Z" transform="translate(-0.345 -1.493)" fill="#999da3"/>
          <path id="Path_1282" data-name="Path 1282" d="M12.579,140.374a2.988,2.988,0,0,1-.879-.117,1.348,1.348,0,0,1-.82-.684l.449-.215a.869.869,0,0,0,.527.42c1.953.635,7.6-1.953,10.431-3.418v-.469a10.868,10.868,0,0,0-.313-4.737,38.246,38.246,0,0,1-10.646,2.51l-.059-.5A36.772,36.772,0,0,0,22.014,130.6l.215-.1.117.205c.752,1.416.6,3.526.479,5.225l-.059.742-.117.059c-.3.166-6.837,3.643-10.069,3.643Z" transform="translate(-0.254 -3.046)" fill="#999da3"/>
          <path id="Path_1283" data-name="Path 1283" d="M7.756,153.444l-.166-.459c2.735-1.758,2.539-2.608,1.953-5.137l-.137-.615.488-.1.137.606c.5,2.237.762,3.409-1.221,4.971.586-.146,1.182-.342,1.787-.537a20.976,20.976,0,0,1,3.057-.811,16.41,16.41,0,0,1,3.457,0c.713,0,1.436.078,2.168.068a21.652,21.652,0,0,1,.645-3.125,24.093,24.093,0,0,0,.654-3.174,30.57,30.57,0,0,1-5.508,1.045,15.891,15.891,0,0,1-1.953,0c-1.485,0-3.155-.107-3.985.547l-.313-.391c.977-.762,2.744-.7,4.317-.654a16.811,16.811,0,0,0,1.875,0,30.15,30.15,0,0,0,5.772-1.143l.352-.117v.371a21.769,21.769,0,0,1-.693,3.623,19.592,19.592,0,0,0-.654,3.272v.215h-.225a22.214,22.214,0,0,1-2.432-.059,15.352,15.352,0,0,0-3.35,0,19.384,19.384,0,0,0-2.979.791,19.173,19.173,0,0,1-3.028.791Z" transform="translate(-0.177 -3.371)" fill="#999da3"/>
          <path id="Path_1284" data-name="Path 1284" d="M56.358,152.774H55.83v-.205c-.381-2.637-.586-5.489-.772-8.419L55,143.3l.508.645c1.162,1.5,3.8,1.426,6.348,1.348a13.517,13.517,0,0,1,4.327.283l-.156.479a13.2,13.2,0,0,0-4.151-.264c-2.383.078-4.834.146-6.27-1.035.166,2.608.361,5.147.693,7.5a24.552,24.552,0,0,0,3.809-.381c2.2-.332,4.473-.674,6.524,0l-.156.479c-1.953-.615-4.151-.283-6.29.049a26.633,26.633,0,0,1-3.8.381Z" transform="translate(-1.284 -3.344)" fill="#999da3"/>
          <path id="Path_1285" data-name="Path 1285" d="M39.606,68.593s-8.37-7.55-10-8.233h-1.3s-.391,6.221,0,8.233a35.737,35.737,0,0,0,2.53,6.163S36.451,69.062,39.606,68.593Z" transform="translate(-0.657 -1.409)" fill="#f7f1eb"/>
          <path id="Path_1286" data-name="Path 1286" d="M49.09,60.88s-7.227,6.983-9.21,7.725c0,0,4.815,2.813,7.188,6.163C47.068,74.768,51.112,63.927,49.09,60.88Z" transform="translate(-0.931 -1.421)" fill="#f7f1eb"/>
          <path id="Path_1287" data-name="Path 1287" d="M41.733,70.473s-.508-1.953-3.76-1.455L35.16,71.255s3.2,1.8,3.282,3.584h3.291A20.852,20.852,0,0,0,41.733,70.473Z" transform="translate(-0.821 -1.609)" fill="#c1272d"/>
          <path id="Path_1288" data-name="Path 1288" d="M66.692,89.67s-6.3,2.783-8.878,2.627l-.674,1.738s8.985-.977,9.552-1.787S66.692,89.67,66.692,89.67Z" transform="translate(-1.334 -2.093)" fill="#999da3"/>
          <path id="Path_1289" data-name="Path 1289" d="M51.62,317.7v2.93s3.184,5.264,7.745,5.4a47.924,47.924,0,0,0,7.423,0v-2.676c0-.7-5.772.83-8.936-.6S52.636,320.269,51.62,317.7Z" transform="translate(-1.205 -7.415)" fill="#3c313a"/>
          <path id="Path_1290" data-name="Path 1290" d="M44.88,308.13v4.551s3.848,3.213,5.362,1.7a12.99,12.99,0,0,0-5.362-6.251Z" transform="translate(-1.047 -7.191)" fill="#3c313a"/>
          <path id="Path_1291" data-name="Path 1291" d="M44.865,302.11s-1.436,4.805,0,5.86,4.385,3.3,5.567,6.778,2.93,8.438,11.007,8.966c4.385.273,5.176-.752,5.176-.752s.674-4.239-1.182-7.266-3.037-3.135-3.545-4.336-2.3-6.749-2.754-6.925-4.493,0-6.68,0S44.865,305.694,44.865,302.11Z" transform="translate(-1.032 -7.051)" fill="#8f4c2f"/>
          <path id="Path_1292" data-name="Path 1292" d="M53.72,307.526l-.43-.6c1.192-.85,5.176-1.953,6.387-.615l-.547.488C58.32,305.915,54.784,306.8,53.72,307.526Z" transform="translate(-1.244 -7.134)" fill="#3c313a"/>
          <path id="Path_1293" data-name="Path 1293" d="M55.186,308.827l-.606-.42c.889-1.279,4.131-1.074,5.323-.645l-.254.693c-1.074-.391-3.907-.469-4.463.371Z" transform="translate(-1.274 -7.175)" fill="#3c313a"/>
          <path id="Path_1294" data-name="Path 1294" d="M55.335,311.033l-.205-.7.82-.254c1.611-.518,3.614-1.172,4.952.361l-.547.479c-.977-1.162-2.627-.645-4.18-.146l-.84.264Z" transform="translate(-1.287 -7.223)" fill="#3c313a"/>
          <path id="Path_1295" data-name="Path 1295" d="M57.583,310.234c0-1.26-.791-4.541-1.533-5.088l.439-.6c1.113.83,1.807,4.581,1.836,5.665h-.742Z" transform="translate(-1.308 -7.108)" fill="#3c313a"/>
          <path id="Path_1296" data-name="Path 1296" d="M27.635,309.18v3.526s-2.783,2.393-4.971,2.227l-1.641,4.258v2.237s-6.788,6.221-15.441,3.907l-.322-5.215Z" transform="translate(-0.123 -7.216)" fill="#3c313a"/>
          <path id="Path_1297" data-name="Path 1297" d="M27.6,302.11s-3.057,2.471-5.01,2.315-7.716,0-7.716,0H13.8s-1.69,4.395-2.871,5.567-5.616,5.215-5.333,6.221-1.953,6.046,2.3,6.553,11.124.332,12.472-3.194,1.953-7.7,6.407-9.913C29.794,308.156,27.127,304.307,27.6,302.11Z" transform="translate(-0.123 -7.051)" fill="#8f4c2f"/>
          <path id="Path_1298" data-name="Path 1298" d="M19.474,307.079a14.72,14.72,0,0,1-1.465-.449,5.489,5.489,0,0,0-3.555-.41l-.254-.684a6.055,6.055,0,0,1,4.043.4,13.074,13.074,0,0,0,1.4.42l-.166.723Z" transform="translate(-0.331 -7.127)" fill="#3c313a"/>
          <path id="Path_1299" data-name="Path 1299" d="M19.235,310.851c-1.895-.713-3.907-1.279-5.86-.664l-.225-.7c2.149-.684,4.395,0,6.309.674l-.254.693Z" transform="translate(-0.307 -7.216)" fill="#3c313a"/>
          <path id="Path_1300" data-name="Path 1300" d="M15.162,311.164c-.693-2.93-.518-4.727,2.393-6.124l.322.654c-2.51,1.211-2.647,2.617-1.953,5.3l-.723.166Z" transform="translate(-0.346 -7.119)" fill="#3c313a"/>
          <path id="Path_1301" data-name="Path 1301" d="M17.988,308.746c-.693-.449-2.735-1.377-3.643-1.055a.527.527,0,0,0-.361.352l-.7-.225a1.27,1.27,0,0,1,.82-.82c1.328-.469,3.75.791,4.278,1.123Z" transform="translate(-0.31 -7.163)" fill="#3c313a"/>
          <path id="Path_1302" data-name="Path 1302" d="M15.718,180.748a5.1,5.1,0,0,1-2.442-.625c-5.469-2.93-6.739-15.295-6.837-15.822l.5-.049c0,.127,1.3,12.609,6.534,15.431a5.362,5.362,0,0,0,5.206-.264c9.942-5.186,19.6-31.956,19.7-32.23l.469.166c-.4,1.113-9.767,27.229-19.934,32.5a7.091,7.091,0,0,1-3.233.889Z" transform="translate(-0.15 -3.435)" fill="#999da3"/>
          <path id="Path_1303" data-name="Path 1303" d="M41.72,130.96a2.1,2.1,0,1,1,1.491-.612A2.1,2.1,0,0,1,41.72,130.96Zm0-3.692a1.6,1.6,0,1,0,1.611,1.592,1.6,1.6,0,0,0-1.611-1.592Z" transform="translate(-0.925 -2.958)" fill="#999da3"/>
          <path id="Path_1304" data-name="Path 1304" d="M1.191,174.812a1.3,1.3,0,0,1-.439-.078c-.527-.225-.781-.85-.752-1.865.146-4.18,5.391-8.018,6.309-8.673-.186-1.338-1.289-10.372,1.328-15.246l.439.244c-2.7,5.01-1.24,14.992-1.24,15.089v.156l-.137.088c-.059,0-6.075,4.122-6.212,8.36,0,.537,0,1.211.439,1.377.9.381,3.184-1.514,4.4-2.793l.371.352c-.322.332-2.93,2.989-4.532,2.989Z" transform="translate(0 -3.476)" fill="#999da3"/>
          <path id="Path_1305" data-name="Path 1305" d="M39.6,120.626a77.853,77.853,0,0,1,5.792-10.958c1.318-2.207,2.676-4.493,3.819-6.71A51.831,51.831,0,0,1,54.4,95.311c.977-1.2,1.885-2.451,2.764-3.7a28.18,28.18,0,0,1,1.953-2.334c1.5-1.7,3.194-3.614,3.555-5.274-4.219-.566-8.2-4.434-11.124-7.276l-.85-.84h.674a24.29,24.29,0,0,0,8.663-1.426l-.273-.244c-2.813-2.53-5.665-5.323-5.5-6.915a1.045,1.045,0,0,1,.537-.83l.264.43a.557.557,0,0,0-.3.449c-.156,1.592,3.8,5.186,5.3,6.534.234.225.43.391.547.5l.264.254-.322.156a24.182,24.182,0,0,1-8.6,1.651c2.93,2.842,6.915,6.68,11.027,7.091h.254v.254c-.254,1.865-2.1,3.907-3.731,5.792a28.322,28.322,0,0,0-1.963,2.315c-.879,1.26-1.846,2.51-2.774,3.721a49.937,49.937,0,0,0-5.137,7.579c-1.152,2.217-2.52,4.512-3.838,6.729a77.927,77.927,0,0,0-5.753,10.89c-2.1,5.3-1.768,11.857-1.24,16.965.146,1.465.293,2.93.43,4.366.615,6.212,1.192,12.091,2.178,18.283.264,1.6.635,3.252.977,4.883a57.964,57.964,0,0,1,1.221,6.495c.186,1.68.977,5.782,3.829,7.569,5.538,3.418,8.311,1.953,13.839-.977l.147-.078a26.145,26.145,0,0,0,5.411-5.059h0c1.24-1.709,1.533-2.588,1.533-3.907L68,166.529c0-.439-.146-1.445-.176-1.826-.127-1.4-.342-4.424-.342-4.424.332,2.657.439,3.233.566,4.551,0,.371.146.82.146,1.25l.156.977a9.474,9.474,0,0,1,.1,3.985,6.837,6.837,0,0,1-1.24,2.539,22.991,22.991,0,0,1-5.567,5.186l-.147.078c-3.36,1.8-5.743,3.067-8.311,3.067a11.427,11.427,0,0,1-6.026-2.061c-3.1-1.9-3.907-6.192-4.063-7.94a59.8,59.8,0,0,0-1.211-6.446c-.361-1.6-.742-3.272-.977-4.883-.977-6.212-1.572-12.091-2.188-18.312-.146-1.445-.283-2.93-.439-4.366C37.793,132.658,37.461,126.037,39.6,120.626Z" transform="translate(-0.885 -1.551)" fill="#999da3"/>
          <path id="Path_1306" data-name="Path 1306" d="M52.047,71.638a26.906,26.906,0,0,1-1.055-3.819c0-.1-.361,0-.332.088a28.705,28.705,0,0,0,1.055,3.819c0,.1.361,0,.322-.088Z" transform="translate(-1.182 -1.582)" fill="#b3aab1"/>
          <path id="Path_1307" data-name="Path 1307" d="M6.984,169.163a6.212,6.212,0,0,0-.557-2.119c-.313-.625-.615-.693-.615-.693s-3.907,1.758-2.559,2.813a15.285,15.285,0,0,1,2.3,2.823v.059h0l.186.176h0A5.918,5.918,0,0,0,7.6,174.095a.488.488,0,0,0,.4.059c.488-.225-.479-2.237-.908-4.3C7.062,169.651,7.023,169.407,6.984,169.163Z" transform="translate(-0.069 -3.882)" fill="#7b5234"/>
          <path id="Path_1308" data-name="Path 1308" d="M81.118,122.115l28.265-17.8,8.927,11.974s-28.6,18.664-36.068,19.533S71.39,123.023,71.39,123.023Z" transform="translate(-1.666 -2.434)" fill="#686a6d"/>
          <path id="Path_1309" data-name="Path 1309" d="M109.629,106.41c.772,1.953,3.789,9.825,5.567,10.919s5.86-1.514,5.215-3.78-3.5-9.679-7.325-10.021S109.492,106.069,109.629,106.41Z" transform="translate(-2.557 -2.416)" fill="#141a20"/>
          <path id="Path_1310" data-name="Path 1310" d="M117.269,117.285a3.116,3.116,0,0,1-2.871-1.318c-1.895-2.735-5.45-8.507-3.907-11.427,2.022-3.907,7.93,2.149,8.38,4.961s2.256,5.567-1.084,7.735Z" transform="translate(-2.57 -2.41)" fill="none" stroke="#999da3" stroke-miterlimit="10" stroke-width="0.78"/>
          <path id="Path_1311" data-name="Path 1311" d="M144.195,100.97l-1.025.283c-.43-.977-5.02.606-5.967.723a8.643,8.643,0,0,1-4.561-.586c-1.817-.762-1.953-1.6-3.2-1.768a3.565,3.565,0,0,1,2.6-1.26,3.028,3.028,0,0,0,2.686-3.037c-.137-.9-2.217-.762-3.5-.205a11.817,11.817,0,0,1-3.955.977c-.977,0-5.04.088-6.456.674s-4.62,1.953-5.86,4.395c-.371.762-1.953,2.119-4.4,3.907-.352,3.106,1.338,6.065,2.871,8.673l7.071-6.7s11.046.205,13.058-.889,9.942-2.266,12.023-2.52C146.724,103.441,145.484,100.628,144.195,100.97Z" transform="translate(-2.579 -2.21)" fill="#7b5234"/>
          <path id="Path_1312" data-name="Path 1312" d="M44.776,48.171a29.6,29.6,0,0,1-3.321.127,8.2,8.2,0,0,0-1.826,0,24.514,24.514,0,0,1-4.17-.518,2.2,2.2,0,0,0,0,.928l1.582,1.24c1.074.9,2.412.762,3.506.859a7.55,7.55,0,0,0,2.93-.479c.264-.127,1.221-.977,1.748-1.387a3.33,3.33,0,0,0-.147-.84Z" transform="translate(-0.826 -1.115)" fill="#fff"/>
          <path id="Path_1313" data-name="Path 1313" d="M35.41,48.688a2.2,2.2,0,0,1,0-.928c-1.172-.205-2.11-.4-2.11-.4a7.687,7.687,0,0,1,2.11,1.328Z" transform="translate(-0.777 -1.105)" fill="#2d1c1c"/>
          <path id="Path_1314" data-name="Path 1314" d="M45.3,48.11a3.33,3.33,0,0,1,.147.84l.186-.137,1.738-1.123Z" transform="translate(-1.057 -1.113)" fill="#2d1c1c"/>
          <path id="Path_1315" data-name="Path 1315" d="M35.45,47.76a24.514,24.514,0,0,0,4.17.518,8.2,8.2,0,0,1,1.826,0,29.6,29.6,0,0,0,3.321-.127l.254-.059,2.071-.42s-1.338-.156-2.178-.166-3.711.186-4,.176h-.791c-.889-.107-2.471-.215-3.164-.215s-3.614-.117-3.614-.117S34.278,47.555,35.45,47.76Z" transform="translate(-0.778 -1.105)" fill="#d98286"/>
          <path id="Path_1316" data-name="Path 1316" d="M38.457,52.684a20.043,20.043,0,0,1,2.813.254c.4,0,2.871-.273,3.379-1.309s2.041-3.106,2.442-3.907l-1.738,1.123-.186.137c-.527.4-1.485,1.26-1.748,1.387a7.55,7.55,0,0,1-2.93.479c-1.094-.1-2.432,0-3.506-.859L35.4,48.728A7.686,7.686,0,0,0,33.33,47.4,20.382,20.382,0,0,1,35.1,50.125C35.156,50.486,36.68,52.674,38.457,52.684Z" transform="translate(-0.778 -1.106)" fill="#d98286"/>
          <path id="Straight" d="M39.333,34.68s1.367,6.358-1.953,7.569c0,0,2.676.615,3.3,1.836,0,0-.977-1.709-2.11-2C38.572,42.083,40.72,40.218,39.333,34.68Z" transform="translate(-0.872 -0.809)" fill="#4f3422"/>
          <path id="Path_1317" data-name="Path 1317" d="M35.549,33.88a2.559,2.559,0,0,1,.469.3,4.747,4.747,0,0,0-.527-.322Z" transform="translate(-0.828 -0.79)" fill="none"/>
          <path id="Path_1318" data-name="Path 1318" d="M32.828,33.37Z" transform="translate(-0.764 -0.779)" fill="none"/>
          <path id="Path_1319" data-name="Path 1319" d="M30.606,33.71a4.161,4.161,0,0,1,5.567.459l.7.791a8.194,8.194,0,0,0-.977-.8,2.559,2.559,0,0,0-.469-.3h-.059l-.156-.088a2.93,2.93,0,0,0-1.25-.342H32.637a2.363,2.363,0,0,0-.459.049,3.125,3.125,0,0,0-.977.43,3.614,3.614,0,0,0-1.328,1.133.254.254,0,0,1-.283-.127C29.99,34.657,30.322,33.973,30.606,33.71Z" transform="translate(-0.691 -0.767)"/>
          <path id="Path_1320" data-name="Path 1320" d="M35.215,35.246l.059-.1V35a1.445,1.445,0,0,0,.127-.566.645.645,0,0,0,0-.234h0a1.553,1.553,0,0,0-.088-.381h.146a4.746,4.746,0,0,1,.527.322,11.028,11.028,0,0,1,.977.8,3.291,3.291,0,0,1-1.953.469h0Z" transform="translate(-0.817 -0.789)" fill="#fff"/>
          <path id="Path_1321" data-name="Path 1321" d="M32.19,33.51Z" transform="translate(-0.751 -0.782)" fill="#fff"/>
          <path id="Path_1322" data-name="Path 1322" d="M30.749,34.242a3.907,3.907,0,0,1,1.387-.732v.127l-.088.2a.283.283,0,0,0,0,.088,1.045,1.045,0,0,0-.059.264V34.5a1.074,1.074,0,0,0,0,.176.488.488,0,0,0,0,.117,2.518,2.518,0,0,0,.078.254h0a1.309,1.309,0,0,0,.166.3c-1.182-.127-2.364-.352-2.364-.352C30,35.034,30.485,34.409,30.749,34.242Z" transform="translate(-0.697 -0.782)" fill="#fff"/>
          <path id="Path_1323" data-name="Path 1323" d="M35.217,35.28l-.127.2A1.338,1.338,0,0,0,35.217,35.28Z" transform="translate(-0.819 -0.823)" fill="#592d04"/>
          <path id="Path_1324" data-name="Path 1324" d="M32.08,35.08Z" transform="translate(-0.749 -0.819)" fill="#592d04"/>
          <path id="Path_1325" data-name="Path 1325" d="M32.21,33.507h0L32.7,33.4h.1l-.107.166C32.5,33.576,32.4,33.488,32.21,33.507Z" transform="translate(-0.752 -0.78)" fill="#592d04"/>
          <path id="Path_1326" data-name="Path 1326" d="M32,34.7a.488.488,0,0,0,0,.117A.488.488,0,0,1,32,34.7Z" transform="translate(-0.747 -0.81)" fill="#592d04"/>
          <path id="Path_1327" data-name="Path 1327" d="M32,34.407V34.3a1.582,1.582,0,0,0,0,.215Z" transform="translate(-0.747 -0.801)" fill="#592d04"/>
          <path id="Path_1328" data-name="Path 1328" d="M32.138,33.64l-.088.2Z" transform="translate(-0.748 -0.785)" fill="#592d04"/>
          <path id="Path_1329" data-name="Path 1329" d="M32,33.93a1.28,1.28,0,0,0-.059.264A1.045,1.045,0,0,1,32,33.93Z" transform="translate(-0.745 -0.792)" fill="#592d04"/>
          <path id="Path_1330" data-name="Path 1330" d="M35.33,35v.088C35.33,35.107,35.32,35.059,35.33,35Z" transform="translate(-0.824 -0.817)" fill="#592d04"/>
          <path id="Path_1331" data-name="Path 1331" d="M34.74,33.77c.234.107.293,0,.586,0a1.553,1.553,0,0,1,.088.381A3.076,3.076,0,0,0,34.74,33.77Z" transform="translate(-0.811 -0.788)" fill="#592d04"/>
          <path id="Path_1332" data-name="Path 1332" d="M32.14,33.637V33.51h0a.527.527,0,0,0,0,.127Z" transform="translate(-0.75 -0.782)" fill="#592d04"/>
          <path id="Path_1333" data-name="Path 1333" d="M35.33,34.986a1.338,1.338,0,0,0,.1-.4.391.391,0,0,0,0-.166A1.446,1.446,0,0,1,35.33,34.986Z" transform="translate(-0.825 -0.803)" fill="#592d04"/>
          <path id="Path_1334" data-name="Path 1334" d="M32,34.82a1.26,1.26,0,0,0,.078.254A2.518,2.518,0,0,1,32,34.82Z" transform="translate(-0.747 -0.813)" fill="#592d04"/>
          <path id="Path_1335" data-name="Path 1335" d="M35.08,35.49Z" transform="translate(-0.819 -0.828)" fill="#592d04"/>
          <path id="Path_1336" data-name="Path 1336" d="M32.256,35.4h0a1.309,1.309,0,0,1-.166-.3A1.5,1.5,0,0,0,32.256,35.4Z" transform="translate(-0.749 -0.819)" fill="#592d04"/>
          <path id="Path_1337" data-name="Path 1337" d="M32,34.2v0Z" transform="translate(-0.747 -0.798)" fill="#592d04"/>
          <path id="Path_1338" data-name="Path 1338" d="M32.05,33.84a.625.625,0,0,0,0,.088A.283.283,0,0,1,32.05,33.84Z" transform="translate(-0.748 -0.79)" fill="#592d04"/>
          <path id="Path_1339" data-name="Path 1339" d="M32,34.52a1.074,1.074,0,0,0,0,.176,1.074,1.074,0,0,1,0-.176Z" transform="translate(-0.747 -0.806)" fill="#592d04"/>
          <path id="Path_1340" data-name="Path 1340" d="M35.22,35.276a.781.781,0,0,0,.078-.156v.059Z" transform="translate(-0.822 -0.82)" fill="#592d04"/>
          <path id="Path_1341" data-name="Path 1341" d="M34.817,34.992a.977.977,0,0,0,.1-.273.6.6,0,0,1,.439.088.5.5,0,0,0,0-.146,1.338,1.338,0,0,1-.1.4v.088a.781.781,0,0,1-.078.156,1.338,1.338,0,0,1-.127.2H34.28A1.221,1.221,0,0,0,34.817,34.992Z" transform="translate(-0.8 -0.809)" fill="#592d04"/>
          <path id="Path_1342" data-name="Path 1342" d="M32.078,35.043A1.26,1.26,0,0,1,32,34.789a.488.488,0,0,1,0-.117,1.074,1.074,0,0,1,0-.176,1.582,1.582,0,0,1,0-.215v-.1a1.28,1.28,0,0,1,.059-.264.625.625,0,0,1,0-.088l.088-.2a.527.527,0,0,1,.068-.127,3.973,3.973,0,0,0,.479.049l-.146.254a1.24,1.24,0,0,0,.43,1.621l-.762-.068a1.5,1.5,0,0,1-.166-.3Z" transform="translate(-0.747 -0.782)" fill="#592d04"/>
          <path id="Path_1343" data-name="Path 1343" d="M35.43,34.2h0a.645.645,0,0,1,0,.234.391.391,0,0,1,0,.166,1.2,1.2,0,0,0,0-.186A1.6,1.6,0,0,0,35.43,34.2Z" transform="translate(-0.827 -0.798)" fill="#c6b198"/>
          <path id="Path_1344" data-name="Path 1344" d="M35.43,34.414a1.2,1.2,0,0,1,0,.186.5.5,0,0,1,0,.146.6.6,0,0,0-.439-.088h-.313a.781.781,0,0,0,0-.264.859.859,0,0,0-.1-.42,1.816,1.816,0,0,0,.186-.215,3.077,3.077,0,0,1,.674.42,1.6,1.6,0,0,1-.01.234Z" transform="translate(-0.807 -0.788)" fill="#c6b198"/>
          <path id="Path_1345" data-name="Path 1345" d="M34.592,34.674a2.5,2.5,0,0,1-.469,0,.3.3,0,0,1-.283-.4.918.918,0,0,0,.693-.283.859.859,0,0,1,.1.42A.781.781,0,0,1,34.592,34.674Z" transform="translate(-0.789 -0.793)" fill="#c6b198"/>
          <path id="Path_1346" data-name="Path 1346" d="M35.33,33.77l.156.088H35.34S35.33,33.78,35.33,33.77Z" transform="translate(-0.825 -0.788)"/>
          <path id="Path_1347" data-name="Path 1347" d="M37.027,34.981s-.547-.469-.977-.8a8.194,8.194,0,0,1,.977.8Z" transform="translate(-0.841 -0.798)"/>
          <path id="Path_1348" data-name="Path 1348" d="M31.168,33.88a3.125,3.125,0,0,1,.977-.43v.059h0a3.907,3.907,0,0,0-1.387.732c-.264.166-.732.791-.908.772a3.614,3.614,0,0,1,1.318-1.133Z" transform="translate(-0.697 -0.781)"/>
          <path id="Path_1349" data-name="Path 1349" d="M32.547,33.81a1.475,1.475,0,0,1,.176-.254h0l.107-.166h1.211a2.93,2.93,0,0,1,1.25.342h0c-.293-.068-.352.068-.586,0a1.817,1.817,0,0,1-.186.215.977.977,0,1,0,.059.684h.313a.977.977,0,0,1-.1.273,1.221,1.221,0,0,1-.527.537H33.045a1.24,1.24,0,0,1-.5-1.631Z" transform="translate(-0.757 -0.779)"/>
          <path id="Path_1350" data-name="Path 1350" d="M32.239,33.449A2.363,2.363,0,0,1,32.7,33.4l-.488.107Z" transform="translate(-0.752 -0.78)"/>
          <path id="Path_1351" data-name="Path 1351" d="M34.095,34.659a2.5,2.5,0,0,0,.469,0,1.024,1.024,0,1,1-.059-.674.918.918,0,0,1-.693.283.3.3,0,0,0,.283.391Z" transform="translate(-0.761 -0.779)"/>
          <path id="Path_1352" data-name="Path 1352" d="M32.55,33.814l.146-.254h0A1.475,1.475,0,0,0,32.55,33.814Z" transform="translate(-0.76 -0.783)"/>
          <path id="Path_1353" data-name="Path 1353" d="M45.739,33.9a3.819,3.819,0,0,0-.479.3c.166-.107.352-.225.537-.322Z" transform="translate(-1.056 -0.791)" fill="none"/>
          <path id="Path_1354" data-name="Path 1354" d="M48.48,33.42Z" transform="translate(-1.131 -0.78)" fill="none"/>
          <path id="Path_1355" data-name="Path 1355" d="M50.52,33.789a4.141,4.141,0,0,0-5.567.4l-.723.781a8.233,8.233,0,0,1,.977-.791,3.819,3.819,0,0,1,.479-.3h.059l.215-.1a2.813,2.813,0,0,1,1.25-.332h1.328a3.32,3.32,0,0,1,.449.059,3.418,3.418,0,0,1,.977.44A3.741,3.741,0,0,1,51.281,35.1a.264.264,0,0,0,.283-.137C51.155,34.746,50.842,34.072,50.52,33.789Z" transform="translate(-1.032 -0.768)"/>
          <path id="Path_1356" data-name="Path 1356" d="M46.018,35.276a.322.322,0,0,0-.059-.1v-.146a1.68,1.68,0,0,1-.117-.566.977.977,0,0,1,0-.234h0a1.6,1.6,0,0,1,.1-.371h-.146c-.186.1-.371.215-.537.322a9.945,9.945,0,0,0-.977.791,3.389,3.389,0,0,0,1.953.488h0Z" transform="translate(-1.033 -0.79)" fill="#fff"/>
          <path id="Path_1357" data-name="Path 1357" d="M49.11,33.57Z" transform="translate(-1.146 -0.783)" fill="#fff"/>
          <path id="Path_1358" data-name="Path 1358" d="M50.483,34.312a4,4,0,0,0-1.377-.742V33.7a1.162,1.162,0,0,1,.078.2v.088a1.25,1.25,0,0,1,0,.264.4.4,0,0,1,0,.107.332.332,0,0,1,0,.1.4.4,0,0,1,0,.107,1.2,1.2,0,0,1,0,.186.42.42,0,0,1,0,.107,1.954,1.954,0,0,1-.078.254h0a2.217,2.217,0,0,1-.166.3c1.172-.107,2.364-.322,2.364-.322C51.216,35.123,50.747,34.488,50.483,34.312Z" transform="translate(-1.142 -0.783)" fill="#fff"/>
          <path id="Path_1359" data-name="Path 1359" d="M46.06,35.31l.127.2Z" transform="translate(-1.075 -0.824)" fill="#592d04"/>
          <path id="Path_1360" data-name="Path 1360" d="M49.21,35.14Z" transform="translate(-1.148 -0.82)" fill="#592d04"/>
          <path id="Path_1361" data-name="Path 1361" d="M49.076,33.567h0a2.017,2.017,0,0,1-.479-.117H48.49l.107.166C48.783,33.636,48.89,33.548,49.076,33.567Z" transform="translate(-1.132 -0.781)" fill="#592d04"/>
          <path id="Path_1362" data-name="Path 1362" d="M49.31,34.77a.42.42,0,0,1,0,.107A.42.42,0,0,0,49.31,34.77Z" transform="translate(-1.151 -0.811)" fill="#592d04"/>
          <path id="Path_1363" data-name="Path 1363" d="M49.34,34.468a.332.332,0,0,0,0-.1.723.723,0,0,1,0,.205A.4.4,0,0,0,49.34,34.468Z" transform="translate(-1.152 -0.802)" fill="#592d04"/>
          <path id="Path_1364" data-name="Path 1364" d="M49.16,33.7a1.631,1.631,0,0,1,.078.2A1.162,1.162,0,0,0,49.16,33.7Z" transform="translate(-1.147 -0.787)" fill="#592d04"/>
          <path id="Path_1365" data-name="Path 1365" d="M49.27,34a1.251,1.251,0,0,1,0,.264A1.251,1.251,0,0,0,49.27,34Z" transform="translate(-1.15 -0.794)" fill="#592d04"/>
          <path id="Path_1366" data-name="Path 1366" d="M46,35.06v.088Z" transform="translate(-1.074 -0.818)" fill="#592d04"/>
          <path id="Path_1367" data-name="Path 1367" d="M46.544,33.81c-.234.1-.293,0-.586,0a1.6,1.6,0,0,0-.1.371,3.408,3.408,0,0,1,.684-.371Z" transform="translate(-1.07 -0.789)" fill="#592d04"/>
          <path id="Path_1368" data-name="Path 1368" d="M49.16,33.7V33.57h0A.811.811,0,0,1,49.16,33.7Z" transform="translate(-1.147 -0.783)" fill="#592d04"/>
          <path id="Path_1369" data-name="Path 1369" d="M46,35.046a1.4,1.4,0,0,1-.088-.4.723.723,0,0,1,0-.166,1.68,1.68,0,0,0,.088.566Z" transform="translate(-1.071 -0.805)" fill="#592d04"/>
          <path id="Path_1370" data-name="Path 1370" d="M49.288,34.88a1.953,1.953,0,0,1-.078.254A1.953,1.953,0,0,0,49.288,34.88Z" transform="translate(-1.148 -0.814)" fill="#592d04"/>
          <path id="Path_1371" data-name="Path 1371" d="M46.2,35.52Z" transform="translate(-1.078 -0.829)" fill="#592d04"/>
          <path id="Path_1372" data-name="Path 1372" d="M49,35.463h0a2.217,2.217,0,0,0,.166-.3,1.533,1.533,0,0,1-.166.3Z" transform="translate(-1.144 -0.821)" fill="#592d04"/>
          <path id="Path_1373" data-name="Path 1373" d="M49.32,34.26a.4.4,0,0,1,0,.107.4.4,0,0,0,0-.107Z" transform="translate(-1.151 -0.8)" fill="#592d04"/>
          <path id="Path_1374" data-name="Path 1374" d="M49.24,33.9v.088Z" transform="translate(-1.149 -0.791)" fill="#592d04"/>
          <path id="Path_1375" data-name="Path 1375" d="M49.33,34.58a1.2,1.2,0,0,1,0,.186,1.2,1.2,0,0,0,0-.186Z" transform="translate(-1.151 -0.807)" fill="#592d04"/>
          <path id="Path_1376" data-name="Path 1376" d="M46.059,35.306,46,35.15v.059A.322.322,0,0,1,46.059,35.306Z" transform="translate(-1.074 -0.82)" fill="#592d04"/>
          <path id="Path_1377" data-name="Path 1377" d="M46.447,34.992a.977.977,0,0,1-.1-.273.6.6,0,0,0-.439.088.694.694,0,0,1,0-.146,1.4,1.4,0,0,0,.088.4v.088l.078.156.127.2h.772A1.133,1.133,0,0,1,46.447,34.992Z" transform="translate(-1.071 -0.809)" fill="#592d04"/>
          <path id="Path_1378" data-name="Path 1378" d="M49.189,35.1a1.953,1.953,0,0,0,.078-.254.42.42,0,0,0,0-.107,1.2,1.2,0,0,0,0-.186.723.723,0,0,0,0-.205.4.4,0,0,0,0-.107,1.25,1.25,0,0,0,0-.264v-.088a1.631,1.631,0,0,0-.078-.2.811.811,0,0,0-.068-.127c-.186,0-.293.068-.479,0l.146.254a1.24,1.24,0,0,1-.5,1.611l.762-.059a1.533,1.533,0,0,0,.176-.3Z" transform="translate(-1.127 -0.783)" fill="#592d04"/>
          <path id="Path_1379" data-name="Path 1379" d="M45.86,34.22h0a.977.977,0,0,0,0,.234.723.723,0,0,0,0,.166,1.327,1.327,0,0,1,0-.2,1.748,1.748,0,0,1,0-.205Z" transform="translate(-1.07 -0.799)" fill="#c6b198"/>
          <path id="Path_1380" data-name="Path 1380" d="M45.84,34.435a1.328,1.328,0,0,0,0,.2.694.694,0,0,0,0,.146.6.6,0,0,1,.439-.088h.313a.82.82,0,0,1,0-.264A.908.908,0,0,1,46.7,34a1.758,1.758,0,0,1-.186-.205,3.408,3.408,0,0,0-.684.4A1.748,1.748,0,0,0,45.84,34.435Z" transform="translate(-1.07 -0.789)" fill="#c6b198"/>
          <path id="Path_1381" data-name="Path 1381" d="M46.679,34.713a3.907,3.907,0,0,0,.469,0,.3.3,0,0,0,.283-.4.9.9,0,0,1-.684-.3.908.908,0,0,0-.107.43.82.82,0,0,0,.039.273Z" transform="translate(-1.089 -0.794)" fill="#c6b198"/>
          <path id="Path_1382" data-name="Path 1382" d="M46,33.8l-.156.078h.146S46,33.81,46,33.8Z" transform="translate(-1.07 -0.789)"/>
          <path id="Path_1383" data-name="Path 1383" d="M44.23,34.981s.557-.469.977-.791a8.233,8.233,0,0,0-.977.791Z" transform="translate(-1.032 -0.798)"/>
          <path id="Path_1384" data-name="Path 1384" d="M50.077,33.989a3.418,3.418,0,0,0-.977-.439v.059h0a4,4,0,0,1,1.377.742c.264.176.732.811.908.791a3.741,3.741,0,0,0-1.309-1.152Z" transform="translate(-1.146 -0.783)"/>
          <path id="Path_1385" data-name="Path 1385" d="M48.686,33.87a1.172,1.172,0,0,0-.176-.254h0L48.4,33.45H47.192A2.813,2.813,0,0,0,46,33.792h0c.293-.068.352.068.586,0a1.758,1.758,0,0,0,.186.205.977.977,0,1,1-.068.693h-.313a.977.977,0,0,0,.1.273,1.133,1.133,0,0,0,.518.547h1.221a1.24,1.24,0,0,0,.459-1.641Z" transform="translate(-1.074 -0.781)"/>
          <path id="Path_1386" data-name="Path 1386" d="M49.049,33.509a3.32,3.32,0,0,0-.449-.059,3.1,3.1,0,0,1,.479.117Z" transform="translate(-1.134 -0.781)"/>
          <path id="Path_1387" data-name="Path 1387" d="M47.149,34.713a3.905,3.905,0,0,1-.469,0,.9.9,0,1,0,.107-.742.9.9,0,0,0,.684.3.3.3,0,0,1-.322.439Z" transform="translate(-1.089 -0.783)"/>
          <path id="Path_1388" data-name="Path 1388" d="M48.746,33.874,48.6,33.62h0a1.172,1.172,0,0,1,.147.254Z" transform="translate(-1.134 -0.785)"/>
          <path id="Path_1389" data-name="Path 1389" d="M36.374,30.962c.547-.361-.918-.928-2.237-1.27a13.673,13.673,0,0,0-4.18-.264c-1.524.391-1.8,2.559-1.8,3.028,0,0,1.065-1.318,1.953-1.309h3.829a6.7,6.7,0,0,0,2.432-.186Z" transform="translate(-0.657 -0.686)"/>
          <path id="Path_1390" data-name="Path 1390" d="M44.6,31.159c0-1.192,1.729-1.641,2.852-1.7a32.7,32.7,0,0,1,3.291.147c.264,0,2.237,1.4,2.237,1.729a10.03,10.03,0,0,0-2.442-.215,33.45,33.45,0,0,1-4.151.244C46.055,31.3,44.6,31.355,44.6,31.159Z" transform="translate(-1.041 -0.688)"/>
          <path id="Path_1391" data-name="Path 1391" d="M43.9,17.216a2.588,2.588,0,0,0-1.953.889,1.572,1.572,0,0,1-2.461.107,6.612,6.612,0,0,0-5.42-1.582c-1.875.488-4.532.1-5.323,1.953s-1.953,3.262-1.953,4.151,1.182,3.067.5,4.258a12.159,12.159,0,0,0-.889,4.541c0,.693-.166,4.356-.166,4.356s-1.113-5.342-2.1-5.342a5.323,5.323,0,0,0,.332-1.953,7.559,7.559,0,0,1-.205-1.514c0-.332-.391-2.237-.2-2.3s.4-.137.332-.664-.2-1.055-.459-1.055H23.67A3.233,3.233,0,0,0,24,22.471c.127-.332.391-1.192.127-1.455a1.817,1.817,0,0,1-.137-1.387c.127-.332.85-1.524.781-2.051A2.93,2.93,0,0,1,25.3,16c.2-.264,1.055-2.93,2.364-3.164s2.93-2.237,3.545-2.5,3.916-1.367,4.307-2.178,1.582-.127,2.764-.527a8.956,8.956,0,0,1,3.213-.059c.6,0,2.7-.137,2.7-.137s-.127.723.527.723,1.25-.264,1.445-.059.85.918,1.572.586c0,0-.781.977.2.928s1.953-.6,2.041,0a1.493,1.493,0,0,0,1.367,1.25c.645-.059-.068.723.2.723s1.182-.6,1.182.264.85,1.387,1.113.977c0,0,.791,1.778,1.318,1.846s1.045.586,1.045,1.778.791,2.041.977,3.028.977,4.024.654,5.274-.322,4.219-.518,5.147-1.289,1.533-1.289,2.451a11.212,11.212,0,0,1-1.24,3.184s.059-1.6.059-2.52.654-2.569.264-3.692-1.445-2.93-1.445-4.483.127-3.5-.977-4.024-1.69-1.836-2.364-2.237c-1.123-.664-2.373.791-3.75-.332A3.428,3.428,0,0,0,43.9,17.216Z" transform="translate(-0.552 -0.173)"/>
          <g id="Man_s_Glasses_2" data-name="Man&apos;s Glasses 2" transform="translate(23.684 28.88)">
            <path id="Path_1392" data-name="Path 1392" d="M56.3,31.748a1.885,1.885,0,0,1,.186-.459l-.127-1.719-1.485,1.123s1.074.088-3.662-.225-9.942,1.182-10.743,1.172-3.741-.977-7.55-1.318a34.564,34.564,0,0,0-7.091.2l-1.475-.527-.107.674a2.168,2.168,0,0,1,.273.322,4.463,4.463,0,0,1,.654,1.436,14.973,14.973,0,0,1,1.328.977,7,7,0,0,1,.537,1.953c.088.264.566,2.93,1.953,3.721,1.953,1.211,4.883,1.113,6.837.527s3.057-2.627,3.545-4.415S40.4,33.594,40.687,33.6s.977-.176,1.494,2.383,3.194,4.063,5.967,4.258a5.362,5.362,0,0,0,4.678-1.787c.557-.615,1.553-4.248,1.67-4.708s.977-.889.977-.889l.85-.908q-.005-.1-.02-.205ZM37.933,36.9a5.069,5.069,0,0,1-5.069,2.754c-3.2-.137-3.985-1.309-4.327-2.061s-1.279-4.268-.322-5.518a6.915,6.915,0,0,1,3.995-1.055,18.557,18.557,0,0,1,3.692.322c1.475.342,2.686,1.4,2.657,2.051a7.725,7.725,0,0,1-.625,3.506Zm14.65.84c-.352.752-1.143,1.953-4.346,2.012a5.108,5.108,0,0,1-5.049-2.823,7.677,7.677,0,0,1-.625-3.506c0-.664,1.192-1.7,2.666-2.022a18.557,18.557,0,0,1,3.7-.273,6.905,6.905,0,0,1,3.985,1.1c.977,1.26.01,4.766-.332,5.508Z" transform="translate(-24.25 -29.57)"/>
            <path id="Path_1393" data-name="Path 1393" d="M36.21,24.06v.156l1.875.137-.049.078L36.21,24.3l.029.176L38,24.617l-.029.068-1.719-.117.02.127,1.817.156.293-.693Z" transform="translate(-34.823 -22.185)" fill="#fff"/>
            <path id="Path_1394" data-name="Path 1394" d="M66.893,24.11l.01.156-1.709.176.049.078,1.66-.166-.02.176-1.611.166.029.078,1.572-.156-.01.127-1.66.2-.283-.684Z" transform="translate(-35.493 -22.186)" fill="#fff"/>
          </g>
        </g>
      </g>
    </g>
    <g id="Ellipse_5" data-name="Ellipse 5" transform="translate(1762 1417)" fill="none" stroke="#080808" stroke-width="2">
      <circle cx="37.5" cy="37.5" r="37.5" stroke="none"/>
      <circle cx="37.5" cy="37.5" r="36.5" fill="none"/>
    </g>
  </g>
</svg>
