<svg xmlns="http://www.w3.org/2000/svg" viewBox="0 0 157.43 318.94"><defs><style>.cls-1{fill:#7b5234;}.cls-2{fill:#3d2924;}.cls-3{fill:#df8b7b;opacity:0.28;}.cls-4{fill:#686a6d;}.cls-5{fill:#5c5e60;}.cls-6{fill:#ebe3dc;}.cls-7{fill:#c1272d;}.cls-8{fill:#141a20;}.cls-9{fill:#999da3;}.cls-10{fill:#f7f1eb;}.cls-11{fill:#3c313a;}.cls-12{fill:#8f4c2f;}.cls-13{fill:#b3aab1;}.cls-14,.cls-19{fill:none;}.cls-14{stroke:#999da3;stroke-miterlimit:10;stroke-width:0.78px;}.cls-15{fill:#fff;}.cls-16{fill:#2d1c1c;}.cls-17{fill:#d98286;}.cls-18{fill:#4f3422;}.cls-20{fill:#592d04;}.cls-21{fill:#c6b198;}</style></defs><g id="Layer_2" data-name="Layer 2"><g id="Male_Realtor" data-name="Male Realtor"><g id="Skin-Tone_Suits_Body_3_Poses" data-name="Skin-Tone + Suits  + Body 3 Poses"><g id="Ebony"><g id="Grey_Suit" data-name="Grey Suit"><g id="Presenting"><g id="Presenting-2" data-name="Presenting"><path class="cls-1" d="M41.81,41,40.27,53.44s7.3,8.66,10.06,8.32,8.83-7.57,8.83-7.57l-.9-8.08Z"/><path class="cls-2" d="M58.38,48.44s-5.94,5-7.7,4.36-6.28-2.35-7.12-3.6c0,0,2.38,3.67,3.94,4.54a10.33,10.33,0,0,0,7.29.9,36.43,36.43,0,0,1,4.27-1.17Z"/><path class="cls-1" d="M66.84,21.24a73.93,73.93,0,0,0-.32-7.44c-.23-1.17-2.73-6.41-4.89-8.17s-4.91-3.86-7.91-4.34c-1.78-.29-7.34,0-9.63,1.23a16.5,16.5,0,0,0-7.24,7.37c-2.55,4.64-1,11.07-.61,13.1.13.69.12,1.82.24,4.19a40.35,40.35,0,0,1,.38,4.59,54.47,54.47,0,0,0,.44,6.35c.06,1.76.59,4.6,3.53,9.14,1.15,1.76,5.91,6,7.94,6.52s6.38-.05,7-.5c1-.67,2.67-3.47,3.67-4.78,1.77-2.28,4.63-5.85,5-7.46A28.48,28.48,0,0,0,65,35.23c0-1.62,1.5-8.91,1.51-10.39v0C66.67,23.36,66.84,21.83,66.84,21.24Z"/><path class="cls-1" d="M36.68,28.12c-.18-.95-.61-4.79-2.13-4.6s-1.3,2.42-1.37,3.17.25,3.31.25,3.91.93,2,.79,2.91c-.21,1.35,1.33,5,2.83,1.71A55.23,55.23,0,0,0,36.68,28.12Z"/><path class="cls-2" d="M36.48,27.31c-.06-.4-1.13-2.64-1.87-2.64s-1,.2-1,.94a50.46,50.46,0,0,1,.31,5.74c0,.4,1.74,2.44,1.88,2s-1.42-1.16-1.48-2.1-.11-3.79-.11-4.53.34-.47.68-.26S36.48,27.31,36.48,27.31Z"/><path class="cls-2" d="M36.21,27.92c-.07.74.4.47-.35,1.48s-.68,1.15-.61,1.82,1.21,1.16,1.21,1.16-.87-1.7-.47-1.83.68-1.08.69-1.55A2.32,2.32,0,0,0,36.21,27.92Z"/><path class="cls-1" d="M66.07,27.85c.2-1,.7-5,2.3-4.82s1.33,2.56,1.4,3.34-.3,3.48-.31,4.12-1,2.13-.86,3.05c.2,1.42-2.19,4.67-3.74,1.19C64.86,34.73,65.63,30,66.07,27.85Z"/><path class="cls-2" d="M66.29,27c.07-.42,1.22-2.76,2-2.75s1.06.21,1.06,1a52.36,52.36,0,0,0-.39,6c0,.43-1.86,2.55-2,2.05s1.5-1.2,1.58-2.19.16-4,.16-4.76-.35-.5-.7-.29S66.29,27,66.29,27Z"/><path class="cls-2" d="M66.57,27.64c.06.78-.43.49.34,1.56s.71,1.21.63,1.92-1.28,1.2-1.28,1.2.93-1.77.51-1.91-.71-1.14-.71-1.64A2.45,2.45,0,0,1,66.57,27.64Z"/><path class="cls-3" d="M60.56,29.62a3.21,3.21,0,1,0,2.76,4.79c0-.09.07-.18.1-.26.11-.29.21-.56.28-.81a4.36,4.36,0,0,0,.06-.49A3.22,3.22,0,0,0,60.56,29.62Z"/><path class="cls-3" d="M41.85,35.94a3.21,3.21,0,1,0-3.19-3.23c0,.06,0,.11,0,.17a17.2,17.2,0,0,0,.56,1.67A3.22,3.22,0,0,0,41.85,35.94Z"/><g id="black"><path class="cls-4" d="M19.46,153.7s-10.16,9.15-8.82,13S21.12,162.24,19.46,153.7Z"/><path class="cls-4" d="M55.42,294.67l2.24-6.53,11.39,3.27,1,5.67-7.87,3.3-6.11-1.59S54.94,296.06,55.42,294.67Z"/><path class="cls-5" d="M52.56,132.93H42.13l-8.64,29.73-15.23-4.35-2.14,2.33s3.57,8.27,3.57,9.64,1.21,4,.86,6.9,1.33,41.33,1.1,48.67.69,10.09,0,15.14.69,19.73,0,26.61-.69,16.06,0,19.73a83.92,83.92,0,0,0,2.87,9.72s7.24.51,9,.89,5.17-3.27,5.17-3.27,0-.45,1.5-6.42-2.2-17-1.5-20.19,3.8-22.48,3.63-28S46,188.15,51.19,183.6c0,0,.57,18.85.13,23.9s1.68,21.1,2.46,23.86a63.1,63.1,0,0,1,1.64,11.93s-1,19.72-1.64,24.77S54.9,288.25,55.42,291s1.38,6.08,1.38,6.08H67.67s5.21-5.16,5-10.67-.27-39.45,0-45.42,6.21-56.48,6.21-56.48,5.55-34.28-13.08-35.64Z"/><path class="cls-6" d="M39.83,56.77c.23-.08,0-3.9-1-3.84-1.24,1.77-5.36,8.43-5.36,8.43l5.19,28.45L55.24,127l20-38.31s3.22-18.81,2.07-19.27S59.56,56.31,59.56,56.31l-9.15,5Z"/><path class="cls-7" d="M52.68,67.89h-3.3s-.55,2.92-1.36,3.53-3.19,16.23-3.67,24.19l2.95,14,4.17,6.19L58,105.17l-2.88-5.86s.58-17.65-.23-21.9S52.17,69.16,52.68,67.89Z"/><path class="cls-8" d="M16.41,164.6s-6.9,5.33-4.83-4.65C11.58,160,10.54,167,16.41,164.6Z"/><path class="cls-4" d="M38.85,52.93s-1.9,2.92-4.14,4S14,65.32,11.06,64.8c0,0-10.59,40.61-11,52.54S10.6,166.89,10.6,166.89s.69-5.28,6.67-9.64c0,0-2.6-8.25,2.15-12.61l-6.29-21.85s7.6-23.06,7.08-23.06,3.28,23.92,3.28,23.92l26.92-9.07s-8.51-22.71-9.2-29.36S37,54.36,38.85,52.93Z"/><path class="cls-4" d="M22.62,118.09s1.21,6,0,8.88S18.06,143,17.31,147.8a35.65,35.65,0,0,0,0,9.45s1.73,19,11.22,16.18,20.05-24.5,21.16-36.11a183.32,183.32,0,0,0,.5-23.44S27.28,110.48,22.62,118.09Z"/><path class="cls-4" d="M49.2,117.62c1.73-2.58,5.53-18.06,7.08-21.5s3.63-31.83,4-33.9a57.39,57.39,0,0,0,0-7.91c1.38,3.26,5.52,4.81,9.66,6s18.13,7,18.13,7C91.83,77,95.48,122,95.48,122l-1.2,5.85c-2.39-.62-4.92-.79-7.2-1.78s-1.18-6.65-3.93-6.39c-.23,0-1.19-4-1.39-3.94L77.85,107l-2.76,17.89,4.84,39.4s-.18,7.23-12.43,12.05-14.15-12.05-15.36-18.93S47.48,120.2,49.2,117.62Z"/><path class="cls-9" d="M48.86,119.67c-.23-.71-1.6-4.08-2-4.68-3.73-6.28-7.57-13.49-11.74-22-.69-1.43-1.46-2.84-2.21-4.21a70.76,70.76,0,0,1-3.21-6.4,79.51,79.51,0,0,1-4.41-14l-.05-.21L25.5,68c1.12-.42,2.29-.79,3.43-1.14.75-.23,1.52-.47,2.28-.73a19.46,19.46,0,0,1-2.05-.31,14.74,14.74,0,0,0-2.84-.33h-.64l.46-.44c1.06-1,2.21-2,3.32-2.89l.75-.63a17.25,17.25,0,0,0,2-2.36c1.48-2,2.13-2.75,2.62-2.69l0,.51,0-.26V57a11.78,11.78,0,0,0-2.17,2.49,17.83,17.83,0,0,1-2,2.44l-.75.63c-.95.78-1.93,1.59-2.85,2.44a19.46,19.46,0,0,1,2.31.33,13,13,0,0,0,3.35.32l.12.5c-1.2.46-2.44.84-3.64,1.21s-2.15.67-3.2,1a79.31,79.31,0,0,0,4.34,13.7c.94,2.22,2.08,4.32,3.19,6.36.75,1.37,1.52,2.79,2.22,4.22,4.17,8.54,8,15.74,11.73,22,.39.67,1.78,4.14,2,4.78l-.49.16Z"/><path class="cls-9" d="M23.16,133.18a3,3,0,0,1-.9-.12,1.4,1.4,0,0,1-.85-.7l.47-.22a.83.83,0,0,0,.54.43c2,.65,7.78-2,10.68-3.5l0-.48c.11-1.58.25-3.53-.33-4.85a39.16,39.16,0,0,1-10.9,2.57l0-.51a37.65,37.65,0,0,0,11-2.63l.22-.1.11.21c.77,1.45.62,3.61.49,5.35l0,.76-.13.06c-.31.17-7,3.73-10.3,3.73Z"/><path class="cls-9" d="M18.3,146.23l-.18-.47c2.8-1.8,2.61-2.67,2-5.26l-.14-.63.51-.1.13.62c.51,2.29.78,3.49-1.25,5.09.6-.15,1.21-.35,1.84-.55a21.15,21.15,0,0,1,3.13-.83,16.79,16.79,0,0,1,3.54,0c.72,0,1.46.08,2.21.07a25.24,25.24,0,0,1,.66-3.2,23.15,23.15,0,0,0,.67-3.25,31.18,31.18,0,0,1-5.63,1.07,16.44,16.44,0,0,1-2,0c-1.51-.05-3.22-.11-4.08.56l-.31-.4c1-.78,2.81-.72,4.41-.67a17.41,17.41,0,0,0,1.93,0,30.75,30.75,0,0,0,5.9-1.17L32,137l0,.38a21.33,21.33,0,0,1-.72,3.71,22.31,22.31,0,0,0-.67,3.35l0,.22h-.22a22.69,22.69,0,0,1-2.49-.06,15.72,15.72,0,0,0-3.43,0,20,20,0,0,0-3.06.81,19.52,19.52,0,0,1-3.09.81Z"/><path class="cls-9" d="M66.93,145.55h-.55l0-.21c-.38-2.7-.59-5.62-.79-8.63l0-.83.51.66c1.19,1.54,3.9,1.46,6.51,1.38a13.84,13.84,0,0,1,4.43.29l-.17.49a13.47,13.47,0,0,0-4.24-.27c-2.44.07-5,.15-6.43-1.06.18,2.67.38,5.27.71,7.68a25.38,25.38,0,0,0,3.91-.39c2.25-.34,4.57-.69,6.68,0l-.16.49c-2-.63-4.25-.29-6.44,0a27.41,27.41,0,0,1-3.89.39Z"/><path class="cls-10" d="M50.41,61.36s-8.56-7.73-10.24-8.43H38.85s-.41,6.37,0,8.43a35.78,35.78,0,0,0,2.59,6.31S47.19,61.84,50.41,61.36Z"/><path class="cls-10" d="M59.84,53.45s-7.4,7.15-9.43,7.91c0,0,4.93,2.88,7.37,6.31C57.78,67.67,61.91,56.6,59.84,53.45Z"/><path class="cls-7" d="M52.43,63.08s-.52-1.95-3.86-1.49l-2.88,2.29s3.29,1.84,3.37,3.67h3.37A21.35,21.35,0,0,0,52.43,63.08Z"/><path class="cls-9" d="M77.45,82.24S71,85.09,68.36,84.93l-.69,1.78s9.21-1,9.78-1.84S77.45,82.24,77.45,82.24Z"/><path class="cls-11" d="M62.16,310.27v3s3.26,5.39,7.93,5.53a49,49,0,0,0,7.59,0s0-1.39,0-2.74c0-.72-5.9.85-9.15-.61S63.2,312.9,62.16,310.27Z"/><path class="cls-11" d="M55.42,300.7v4.66s3.94,3.29,5.49,1.74A13.38,13.38,0,0,0,55.42,300.7Z"/><path class="cls-12" d="M55.42,294.67s-1.48,4.93,0,6,4.49,3.38,5.69,6.94,3,8.64,11.28,9.18c4.49.28,5.29-.77,5.29-.77s.69-4.34-1.21-7.44-3.1-3.21-3.62-4.44-2.36-6.91-2.82-7.09-4.6,0-6.85,0S55.42,298.35,55.42,294.67Z"/><path class="cls-11" d="M64.27,300.14l-.44-.61c1.21-.87,5.29-2,6.54-.63l-.56.5c-.83-.91-4.45,0-5.54.74Z"/><path class="cls-11" d="M65.74,301.43l-.62-.43c.91-1.31,4.23-1.1,5.44-.66l-.26.71c-1.1-.4-4-.48-4.56.38Z"/><path class="cls-11" d="M65.88,303.64l-.21-.72.83-.26c1.65-.54,3.71-1.2,5.08.37l-.57.49c-1-1.19-2.69-.66-4.27-.15l-.86.27Z"/><path class="cls-11" d="M68.16,302.94c0-1.29-.81-4.65-1.58-5.21l.45-.61c1.15.85,1.85,4.69,1.88,5.8l-.75,0Z"/><path class="cls-11" d="M38.7,301.75v3.61s-2.84,2.45-5.09,2.28L31.94,312v2.29s-7,6.37-15.82,4l-.33-5.34Z"/><path class="cls-12" d="M38.67,294.67s-3.12,2.54-5.18,2.38-7.9,0-7.9,0H24.52s-1.72,4.51-2.93,5.71-5.75,5.34-5.47,6.37-2,6.19,2.36,6.71,11.39.34,12.77-3.27,2-7.88,6.56-10.15C40.92,300.87,38.18,296.93,38.67,294.67Z"/><path class="cls-11" d="M30.14,299.69a13.62,13.62,0,0,1-1.5-.46,5.64,5.64,0,0,0-3.64-.42l-.26-.7a6.21,6.21,0,0,1,4.14.41,14,14,0,0,0,1.42.43l-.16.74Z"/><path class="cls-11" d="M29.91,303.46c-1.93-.73-4-1.31-6-.68l-.23-.72c2.2-.7,4.5,0,6.46.69l-.27.71Z"/><path class="cls-11" d="M25.71,303.88c-.71-3-.53-4.84,2.45-6.27l.32.67c-2.56,1.24-2.7,2.68-2,5.43l-.73.17Z"/><path class="cls-11" d="M28.64,301.36c-.72-.46-2.8-1.41-3.74-1.08a.58.58,0,0,0-.37.36l-.71-.23a1.29,1.29,0,0,1,.83-.84c1.37-.48,3.85.81,4.39,1.15l-.4.64Z"/><path class="cls-9" d="M26.47,174.12a5.25,5.25,0,0,1-2.5-.64c-5.6-3-6.9-15.66-6.95-16.2l.51-.05c0,.13,1.33,12.91,6.69,15.8a5.49,5.49,0,0,0,5.33-.27c10.18-5.31,20.06-32.72,20.16-33l.48.17c-.4,1.14-10,27.88-20.4,33.28a7.27,7.27,0,0,1-3.32.91Z"/><path class="cls-9" d="M52.31,123.63a2.15,2.15,0,1,1,2.16-2.15,2.15,2.15,0,0,1-2.16,2.15Zm0-3.78A1.64,1.64,0,1,0,54,121.48a1.64,1.64,0,0,0-1.64-1.63Z"/><path class="cls-9" d="M11.76,168a1.33,1.33,0,0,1-.45-.08c-.55-.23-.81-.87-.77-1.91.14-4.28,5.51-8.22,6.46-8.88-.19-1.37-1.33-10.62,1.35-15.61l.46.25c-2.77,5.13-1.3,15.35-1.28,15.45l0,.16-.13.09c-.06,0-6.22,4.22-6.37,8.56,0,.55,0,1.24.46,1.41.91.39,3.25-1.55,4.51-2.86l.37.36c-.33.34-3,3.06-4.63,3.06Z"/><path class="cls-9" d="M50.17,114.49a81.85,81.85,0,0,1,5.93-11.22c1.35-2.26,2.75-4.6,3.92-6.87a52.31,52.31,0,0,1,5.31-7.83c1-1.24,1.93-2.51,2.82-3.79a28.85,28.85,0,0,1,2-2.39c1.54-1.74,3.28-3.7,3.65-5.4-4.32-.58-8.4-4.54-11.4-7.45l-.88-.86.68,0a24.8,24.8,0,0,0,8.87-1.46L70.78,67c-2.88-2.59-5.8-5.45-5.64-7.08a1.11,1.11,0,0,1,.56-.86l.26.45a.57.57,0,0,0-.31.46c-.16,1.59,3.93,5.27,5.47,6.65l.57.51.26.26-.33.16a24.7,24.7,0,0,1-8.8,1.69c3,2.91,7.08,6.84,11.29,7.26l.26,0,0,.26c-.26,1.91-2.15,4-3.81,5.93-.75.85-1.46,1.65-2,2.34-.9,1.29-1.88,2.57-2.83,3.81a51.93,51.93,0,0,0-5.27,7.76c-1.17,2.27-2.57,4.62-3.93,6.89a80.87,80.87,0,0,0-5.89,11.15c-2.14,5.43-1.8,12.14-1.27,17.37l.45,4.47c.63,6.36,1.22,12.38,2.23,18.72.26,1.64.65,3.33,1,5a61.7,61.7,0,0,1,1.25,6.65c.18,1.72.94,5.92,3.91,7.75,5.68,3.5,8.52,2,14.18-1l.15-.08a26.72,26.72,0,0,0,5.53-5.18h0c1.28-1.75,1.58-2.65,1.57-4l-.35-2.89c0-.45-.15-1.48-.19-1.87-.13-1.43-.34-4.53-.34-4.53.33,2.72.44,3.31.57,4.66a11.77,11.77,0,0,1,.16,1.28l.15,1a9.53,9.53,0,0,1,.1,4.08,6.82,6.82,0,0,1-1.26,2.6,23.54,23.54,0,0,1-5.7,5.31l-.15.08c-3.45,1.84-5.88,3.14-8.52,3.14A11.75,11.75,0,0,1,58,175.05c-3.16-2-4-6.34-4.15-8.13a61.23,61.23,0,0,0-1.24-6.6c-.38-1.64-.76-3.35-1-5-1-6.36-1.6-12.38-2.23-18.75l-.45-4.47C48.33,126.81,48,120,50.17,114.49Z"/><path class="cls-13" d="M62.62,64.3a29,29,0,0,1-1.08-3.91c0-.1-.36,0-.33.09a29.36,29.36,0,0,0,1.07,3.91c0,.1.37,0,.34-.09Z"/></g><path class="cls-1" d="M17.62,161.8a6.87,6.87,0,0,0-.57-2.17c-.33-.64-.64-.71-.64-.71s-4,1.8-2.61,2.88a16.06,16.06,0,0,1,2.35,2.89l.05.06h0l.18.18,0,0a6.15,6.15,0,0,0,1.9,1.92.53.53,0,0,0,.42.06c.5-.23-.5-2.29-.93-4.4C17.7,162.3,17.65,162.05,17.62,161.8Z"/><path class="cls-4" d="M91.89,115.11l28.94-18.23L130,109.14s-29.28,19.11-36.93,20S81.92,116,81.92,116Z"/><path class="cls-8" d="M120.16,99.05c.8,2,3.89,10.06,5.71,11.18s6-1.55,5.33-3.87-3.57-9.91-7.49-10.26S120,98.7,120.16,99.05Z"/><path class="cls-14" d="M128,110.19a3.17,3.17,0,0,1-2.93-1.35c-2-2.8-5.59-8.71-4-11.7,2.07-4,8.12,2.2,8.59,5.08s2.3,5.7-1.11,7.91Z"/><path class="cls-1" d="M155.55,93.69l-1,.29c-.44-1-5.15.62-6.11.74a8.89,8.89,0,0,1-4.68-.6c-1.85-.78-2-1.64-3.27-1.81A3.62,3.62,0,0,1,143.1,91a3.1,3.1,0,0,0,2.76-3.11c-.14-.92-2.27-.78-3.58-.21a12.21,12.21,0,0,1-4.06,1c-1,0-5.16.09-6.6.69s-4.73,2-6,4.5c-.39.78-2.05,2.17-4.51,4-.37,3.18,1.36,6.21,2.94,8.88l7.23-6.86s11.31.21,13.38-.91,10.17-2.32,12.31-2.58C158.13,96.22,156.86,93.34,155.55,93.69Z"/></g></g></g></g></g><g id="Head"><g id="Mouth_Lips" data-name="Mouth/Lips"><g id="Smile"><g id="Smile-2" data-name="Smile"><g id="_30_Year_Casual" data-name="30 Year Casual"><path class="cls-15" d="M55.57,40.75a30.15,30.15,0,0,1-3.39.13,8.53,8.53,0,0,0-1.88,0A25,25,0,0,1,46,40.34a2.21,2.21,0,0,0,0,.95c.6.46,1.19.94,1.62,1.29,1.11.92,2.48.77,3.59.88a7.66,7.66,0,0,0,3-.49c.27-.13,1.25-1,1.79-1.42a2.7,2.7,0,0,0-.15-.86Z"/><path class="cls-16" d="M46,41.29a2.21,2.21,0,0,1,0-.95c-1.2-.21-2.16-.41-2.16-.41A7.88,7.88,0,0,1,46,41.29Z"/><path class="cls-16" d="M55.83,40.69a2.7,2.7,0,0,1,.15.86l.2-.14L58,40.26Z"/><path class="cls-17" d="M46,40.34a25,25,0,0,0,4.26.53,8.53,8.53,0,0,1,1.88,0,30.15,30.15,0,0,0,3.39-.13l.26-.06L58,40.26s-1.36-.16-2.22-.17-3.8.19-4.11.18h-.81c-.91-.11-2.53-.22-3.24-.22s-3.69-.12-3.69-.12S44.84,40.13,46,40.34Z"/><path class="cls-17" d="M49.12,45.38a20.52,20.52,0,0,1,2.88.26c.41,0,2.94-.28,3.45-1.34s2.1-3.18,2.5-4l-1.77,1.15-.2.14c-.54.41-1.52,1.29-1.79,1.42a7.66,7.66,0,0,1-3,.49c-1.11-.11-2.48,0-3.59-.88-.43-.35-1-.83-1.62-1.29a7.88,7.88,0,0,0-2.11-1.36,20.87,20.87,0,0,1,1.81,2.79C45.73,43.13,47.29,45.37,49.12,45.38Z"/></g></g></g></g><g id="Nose"><g id="Ebony-2" data-name="Ebony"><path id="Straight" class="cls-18" d="M49.92,27.25s1.39,6.51-2,7.75c0,0,2.74.63,3.38,1.88,0,0-1-1.75-2.17-2.05C49.13,34.83,51.34,32.92,49.92,27.25Z"/></g></g><g id="Eyes"><g id="Open_Eyes_-_Color" data-name="Open Eyes - Color"><g id="Brown"><g id="_Layer_" data-name="&lt;Layer&gt;"><path class="cls-19" d="M46.08,26.45a2.43,2.43,0,0,1,.49.31,4.21,4.21,0,0,0-.55-.33Z"/><path class="cls-19" d="M43.36,25.94v0h-.11Z"/><path d="M41.16,26.3a4.26,4.26,0,0,1,5.7.47l.73.81a8.39,8.39,0,0,0-1-.82,2.43,2.43,0,0,0-.49-.31l-.06,0-.16-.09A3.16,3.16,0,0,0,44.59,26l-1.24,0v0l-.12,0a2.31,2.31,0,0,0-.46.05,3.24,3.24,0,0,0-1.05.44,3.82,3.82,0,0,0-1.36,1.16.24.24,0,0,1-.28-.14C40.51,27.27,40.87,26.59,41.16,26.3Z"/><path class="cls-15" d="M45.75,27.85s0-.06.07-.1,0,0,0-.06a.94.94,0,0,0,0-.09A2,2,0,0,0,46,27a2.09,2.09,0,0,0,0-.24h0a1.59,1.59,0,0,0-.1-.39.44.44,0,0,1,.15.05,4.21,4.21,0,0,1,.55.33c.46.33,1,.8,1,.82a3.43,3.43,0,0,1-2,.48h0Z"/><path class="cls-15" d="M42.73,26.08h0Z"/><path class="cls-15" d="M41.3,26.83a4,4,0,0,1,1.43-.75.52.52,0,0,0-.06.13,1.54,1.54,0,0,0-.08.19l0,.09a2.33,2.33,0,0,0-.05.28s0,.07,0,.1,0,.07,0,.11,0,.07,0,.11,0,.12,0,.18a.5.5,0,0,1,0,.12,2.58,2.58,0,0,0,.08.26v0a3.07,3.07,0,0,0,.17.31c-1.21-.13-2.42-.36-2.42-.36C40.55,27.64,41,27,41.3,26.83Z"/><path class="cls-20" d="M45.75,27.85l-.13.2A1.37,1.37,0,0,0,45.75,27.85Z"/><path class="cls-20" d="M42.61,27.65v0Z"/><path class="cls-20" d="M42.74,26.08h0l.5-.11h.11l-.12.17C43,26.15,42.94,26.06,42.74,26.08Z"/><path class="cls-20" d="M42.51,27.27a.5.5,0,0,1,0,.12A.5.5,0,0,0,42.51,27.27Z"/><path class="cls-20" d="M42.48,27s0-.07,0-.11v.22S42.48,27,42.48,27Z"/><path class="cls-20" d="M42.67,26.21a1.54,1.54,0,0,0-.08.19A1.54,1.54,0,0,1,42.67,26.21Z"/><path class="cls-20" d="M42.56,26.49c0,.1,0,.19-.05.28A2.33,2.33,0,0,1,42.56,26.49Z"/><path class="cls-20" d="M45.87,27.6a.94.94,0,0,1,0,.09Z"/><path class="cls-20" d="M45.28,26.34c.24.11.3,0,.59,0a1.59,1.59,0,0,1,.1.39A3.72,3.72,0,0,0,45.28,26.34Z"/><path class="cls-20" d="M42.67,26.21a.52.52,0,0,1,.06-.13h0S42.69,26.16,42.67,26.21Z"/><path class="cls-20" d="M45.87,27.6a1.76,1.76,0,0,0,.1-.41s0-.1,0-.17A2,2,0,0,1,45.87,27.6Z"/><path class="cls-20" d="M42.53,27.39l.08.26A2.58,2.58,0,0,1,42.53,27.39Z"/><path class="cls-20" d="M45.61,28.06Z"/><path class="cls-20" d="M42.8,28h0a3.07,3.07,0,0,1-.17-.31A1.57,1.57,0,0,0,42.8,28Z"/><path class="cls-20" d="M42.51,26.77s0,.07,0,.1S42.5,26.8,42.51,26.77Z"/><path class="cls-20" d="M42.59,26.4l0,.09Z"/><path class="cls-20" d="M42.49,27.09c0,.06,0,.12,0,.18S42.5,27.15,42.49,27.09Z"/><path class="cls-20" d="M45.75,27.85l.09-.16s0,0,0,.06S45.77,27.81,45.75,27.85Z"/><path class="cls-20" d="M45.37,27.53a1.52,1.52,0,0,0,.09-.28.64.64,0,0,1,.46.09l0-.15a1.76,1.76,0,0,1-.1.41l0,.09-.09.16a1.37,1.37,0,0,1-.13.2h0l-.78,0A1.3,1.3,0,0,0,45.37,27.53Z"/><path class="cls-20" d="M42.61,27.65l-.08-.26a.5.5,0,0,0,0-.12c0-.06,0-.12,0-.18v-.22s0-.07,0-.1,0-.18.05-.28l0-.09a1.54,1.54,0,0,1,.08-.19c0-.05,0-.09.07-.13.2,0,.3.07.49.05l-.15.26a1.28,1.28,0,0,0,.5,1.66L42.8,28a1.57,1.57,0,0,1-.18-.31Z"/><path class="cls-21" d="M46,26.77h0A2.09,2.09,0,0,1,46,27c0,.07,0,.13,0,.17A1.23,1.23,0,0,0,46,27,1.64,1.64,0,0,0,46,26.77Z"/><path class="cls-21" d="M46,27a1.23,1.23,0,0,1,0,.19l0,.15a.64.64,0,0,0-.46-.09h-.31a1.17,1.17,0,0,0,0-.27.89.89,0,0,0-.11-.43,2,2,0,0,0,.2-.22,3.72,3.72,0,0,1,.69.43A1.64,1.64,0,0,1,46,27Z"/><path class="cls-21" d="M45.15,27.26a2.66,2.66,0,0,1-.49,0,.31.31,0,0,1-.28-.41.93.93,0,0,0,.7-.29.89.89,0,0,1,.11.43A1.17,1.17,0,0,1,45.15,27.26Z"/><path d="M45.86,26.34l.16.09a.44.44,0,0,0-.15-.05A.06.06,0,0,0,45.86,26.34Z"/><path d="M47.59,27.58s-.56-.49-1-.82A8.39,8.39,0,0,1,47.59,27.58Z"/><path d="M41.73,26.46A3.24,3.24,0,0,1,42.78,26s0,0,0,.06h0a4,4,0,0,0-1.43.75c-.27.17-.75.81-.93.79A3.82,3.82,0,0,1,41.73,26.46Z"/><path d="M43.08,26.39a1.51,1.51,0,0,1,.18-.26h0l.12-.17,1.24,0a3.16,3.16,0,0,1,1.27.36.06.06,0,0,1,0,0c-.29-.07-.35.07-.59,0a2,2,0,0,1-.2.22.94.94,0,0,0-.84-.53,1,1,0,1,0,0,1.91,1,1,0,0,0,.92-.68h.31a1.52,1.52,0,0,1-.09.28,1.3,1.3,0,0,1-.54.55l-.95,0h-.3A1.28,1.28,0,0,1,43.08,26.39Z"/><path d="M42.78,26a2.31,2.31,0,0,1,.46-.05l-.5.11S42.76,26,42.78,26Z"/><path d="M44.66,27.26a2.66,2.66,0,0,0,.49,0,1,1,0,0,1-.92.68,1,1,0,1,1,0-1.91.94.94,0,0,1,.84.53.93.93,0,0,1-.7.29A.31.31,0,0,0,44.66,27.26Z"/><path d="M43.08,26.39l.15-.26h0A1.51,1.51,0,0,0,43.08,26.39Z"/><path class="cls-19" d="M56.29,26.47a3.3,3.3,0,0,0-.49.31,5.71,5.71,0,0,1,.55-.33Z"/><path class="cls-19" d="M59,26l0,0h.1Z"/><path d="M61.21,26.38a4.26,4.26,0,0,0-5.71.41l-.73.8a7.57,7.57,0,0,1,1-.81,3.3,3.3,0,0,1,.49-.31l.06,0,.16-.08A2.85,2.85,0,0,1,57.79,26c.52,0,.91,0,1.24,0l0,0,.12,0a3.55,3.55,0,0,1,.47.06,3.5,3.5,0,0,1,1,.45A3.84,3.84,0,0,1,62,27.71c.05,0,.2,0,.29-.14C61.85,27.36,61.5,26.67,61.21,26.38Z"/><path class="cls-15" d="M56.6,27.88s-.05-.07-.06-.1,0,0,0-.06l0-.09a1.74,1.74,0,0,1-.13-.58,1.06,1.06,0,0,1,0-.24l0,0a2.34,2.34,0,0,1,.09-.38l-.14,0a5.71,5.71,0,0,0-.55.33c-.46.33-1,.79-1,.81a3.43,3.43,0,0,0,2,.5h0Z"/><path class="cls-15" d="M59.65,26.14h0Z"/><path class="cls-15" d="M61.06,26.9a3.94,3.94,0,0,0-1.41-.76s0,.09.05.13a1.19,1.19,0,0,1,.08.2l0,.09a2.56,2.56,0,0,1,0,.27s0,.07,0,.11,0,.07,0,.1,0,.07,0,.11,0,.12,0,.19l0,.11a1.12,1.12,0,0,1-.08.26v0a1.17,1.17,0,0,1-.17.31c1.21-.11,2.42-.33,2.42-.33C61.8,27.73,61.33,27.08,61.06,26.9Z"/><path class="cls-20" d="M56.6,27.88l.13.2A1.37,1.37,0,0,1,56.6,27.88Z"/><path class="cls-20" d="M59.74,27.71v0Z"/><path class="cls-20" d="M59.63,26.14h0c-.17,0-.33-.08-.5-.12H59l.11.17C59.33,26.21,59.44,26.12,59.63,26.14Z"/><path class="cls-20" d="M59.85,27.34l0,.11Z"/><path class="cls-20" d="M59.88,27s0-.07,0-.1v.21S59.88,27.08,59.88,27Z"/><path class="cls-20" d="M59.7,26.27a1.67,1.67,0,0,1,.08.2A1.19,1.19,0,0,0,59.7,26.27Z"/><path class="cls-20" d="M59.81,26.56a2.56,2.56,0,0,1,0,.27A2.56,2.56,0,0,0,59.81,26.56Z"/><path class="cls-20" d="M56.49,27.63l0,.09A.32.32,0,0,1,56.49,27.63Z"/><path class="cls-20" d="M57.09,26.37c-.24.11-.3,0-.6,0a2.34,2.34,0,0,0-.09.38A4.33,4.33,0,0,1,57.09,26.37Z"/><path class="cls-20" d="M59.7,26.27s0-.09-.05-.13h0Z"/><path class="cls-20" d="M56.49,27.63a1.89,1.89,0,0,1-.1-.41s0-.1,0-.17A1.74,1.74,0,0,0,56.49,27.63Z"/><path class="cls-20" d="M59.82,27.45a1.12,1.12,0,0,1-.08.26A1.12,1.12,0,0,0,59.82,27.45Z"/><path class="cls-20" d="M56.74,28.09Z"/><path class="cls-20" d="M59.56,28h0a1.17,1.17,0,0,0,.17-.31A2.27,2.27,0,0,1,59.56,28Z"/><path class="cls-20" d="M59.86,26.83s0,.07,0,.11S59.86,26.87,59.86,26.83Z"/><path class="cls-20" d="M59.78,26.47l0,.09Z"/><path class="cls-20" d="M59.87,27.15c0,.06,0,.13,0,.19S59.86,27.21,59.87,27.15Z"/><path class="cls-20" d="M56.6,27.88a.8.8,0,0,1-.08-.16s0,0,0,.06S56.58,27.84,56.6,27.88Z"/><path class="cls-20" d="M57,27.56a1.52,1.52,0,0,1-.09-.28.64.64,0,0,0-.46.09l0-.15a1.89,1.89,0,0,0,.1.41.32.32,0,0,0,0,.09.8.8,0,0,0,.08.16,1.37,1.37,0,0,0,.13.2h0q.39,0,.78,0A1.25,1.25,0,0,1,57,27.56Z"/><path class="cls-20" d="M59.74,27.71a1.12,1.12,0,0,0,.08-.26l0-.11c0-.06,0-.13,0-.19v-.21s0-.07,0-.11a2.56,2.56,0,0,0,0-.27l0-.09a1.67,1.67,0,0,0-.08-.2l-.07-.13c-.19,0-.3.07-.49.05l.15.26a1.28,1.28,0,0,1-.51,1.65l.78-.06a2.27,2.27,0,0,0,.17-.31Z"/><path class="cls-21" d="M56.4,26.79l0,0a1.06,1.06,0,0,0,0,.24c0,.07,0,.12,0,.17s0-.13,0-.2A1.81,1.81,0,0,1,56.4,26.79Z"/><path class="cls-21" d="M56.37,27c0,.07,0,.13,0,.2l0,.15a.64.64,0,0,1,.46-.09l.31,0a1.26,1.26,0,0,1,0-.27,1.06,1.06,0,0,1,.11-.44,2,2,0,0,1-.19-.22,4.33,4.33,0,0,0-.69.42A1.81,1.81,0,0,0,56.37,27Z"/><path class="cls-21" d="M57.21,27.3a4.16,4.16,0,0,0,.49,0A.31.31,0,0,0,58,26.9a1,1,0,0,1-.71-.31,1.06,1.06,0,0,0-.11.44A1.26,1.26,0,0,0,57.21,27.3Z"/><path d="M56.51,26.37l-.16.08.14,0S56.5,26.38,56.51,26.37Z"/><path d="M54.77,27.59s.57-.48,1-.81A7.57,7.57,0,0,0,54.77,27.59Z"/><path d="M60.64,26.53a3.5,3.5,0,0,0-1-.45l0,.06h0a3.94,3.94,0,0,1,1.41.76c.27.18.74.83.92.81A3.84,3.84,0,0,0,60.64,26.53Z"/><path d="M59.29,26.45a1.2,1.2,0,0,0-.18-.26h0L59,26c-.33,0-.72,0-1.24,0a2.85,2.85,0,0,0-1.28.34s0,0,0,0c.3-.07.36.07.6,0a2,2,0,0,0,.19.22,1,1,0,0,1,.85-.51,1,1,0,0,1,0,1.91,1,1,0,0,1-.91-.69l-.31,0a1.52,1.52,0,0,0,.09.28,1.25,1.25,0,0,0,.53.56h1.26A1.28,1.28,0,0,0,59.29,26.45Z"/><path d="M59.6,26.08a3.55,3.55,0,0,0-.47-.06c.17,0,.33.09.5.12Z"/><path d="M57.7,27.31a4.16,4.16,0,0,1-.49,0,1,1,0,0,0,.91.69,1,1,0,0,0,0-1.91,1,1,0,0,0-.85.51,1,1,0,0,0,.71.31A.31.31,0,0,1,57.7,27.31Z"/><path d="M59.29,26.45l-.15-.26h0A1.2,1.2,0,0,1,59.29,26.45Z"/></g></g></g></g><g id="Eye-Brows"><g id="Black-2" data-name="Black"><g id="_Layer_2" data-name="&lt;Layer&gt;"><path d="M47.11,23.59c.56-.37-1-.95-2.29-1.3A14.11,14.11,0,0,0,40.56,22c-1.55.4-1.83,2.62-1.84,3.1,0,0,1.09-1.35,2-1.34l3.91,0A6.9,6.9,0,0,0,47.11,23.59Z"/><path d="M55.14,23.77c0-1.22,1.76-1.68,2.91-1.74a33.72,33.72,0,0,1,3.38.15c.27,0,2.29,1.43,2.28,1.77a10.23,10.23,0,0,0-2.49-.22A34.4,34.4,0,0,1,57,24C56.62,23.91,55.14,24,55.14,23.77Z"/></g></g></g></g><g id="Hair_Style_Color" data-name="Hair Style &amp; Color"><g id="Black-3" data-name="Black"><g id="Very_Short" data-name="Very Short"><path d="M54.91,10a2.63,2.63,0,0,0-2,.91,1.62,1.62,0,0,1-2.53.11,6.75,6.75,0,0,0-5.54-1.62c-1.92.5-4.65.1-5.45,2s-2,3.34-2,4.25,1.21,3.14.5,4.36A12.62,12.62,0,0,0,37,24.7c0,.71-.17,4.46-.17,4.46s-1.15-5.47-2.15-5.47a5.29,5.29,0,0,0,.33-2,8.38,8.38,0,0,1-.2-1.55c0-.34-.4-2.29-.2-2.36s.4-.14.33-.68-.2-1.08-.47-1.08h-.27a2.74,2.74,0,0,0,.34-.6c.14-.34.4-1.22.14-1.49a1.9,1.9,0,0,1-.14-1.48c.14-.34.88-1.56.81-2.1a2.82,2.82,0,0,1,.54-1.62c.2-.27,1.07-3,2.42-3.24s3-2.29,3.63-2.56,4-1.42,4.44-2.23S48,.61,49.16.2a9.28,9.28,0,0,1,3.3-.07c.6,0,2.76-.13,2.76-.13s-.14.74.53.74S57,.47,57.23.68s.88.94,1.62.6c0,0-.81,1,.2,1s2-.61,2.09,0,.74,1.35,1.34,1.28-.07.74.2.74,1.21-.61,1.21.27.88,1.42,1.15,1c0,0,.8,1.82,1.34,1.89s1.08.6,1.08,1.82.8,2.09,1,3.1,1,4.12.67,5.4S68.8,22,68.6,23s-1.28,1.62-1.28,2.56a11.53,11.53,0,0,1-1.26,3.26s0-1.64,0-2.58.68-2.63.27-3.78-1.48-3-1.48-4.59.14-3.58-1-4.12-1.72-1.88-2.42-2.29c-1.14-.68-2.42.81-3.83-.34A3.52,3.52,0,0,0,54.91,10Z"/></g></g></g></g><g id="Accessories"><g id="Glasses"><g id="Man_s_Glasses_2" data-name="Man&apos;s Glasses 2"><g id="Man_s_Glasses_2-2" data-name="Man&apos;s Glasses 2"><path d="M67.6,24.37a2,2,0,0,1,.2-.47l-.14-1.76-1.52,1.15s1.11.09-3.74-.23-10.19,1.21-11.06,1.2-3.82-1-7.73-1.35a35.44,35.44,0,0,0-7.26.2l-1.46-.5-.11.69a2.28,2.28,0,0,1,.29.33,4.54,4.54,0,0,1,.66,1.47,13.92,13.92,0,0,1,1.36,1c.33.34.47,1.75.56,2s.58,2.95,2,3.81c2,1.24,5,1.14,7,.54S49.7,29.8,50.19,28s1.05-1.63,1.35-1.62,1-.18,1.52,2.44,3.27,4.16,6.11,4.36A5.47,5.47,0,0,0,64,31.32c.58-.63,1.6-4.35,1.72-4.82s1-.91,1-.91l.87-.93A2.45,2.45,0,0,0,67.6,24.37ZM48.8,29.65a5.2,5.2,0,0,1-5.19,2.82c-3.28-.14-4.08-1.34-4.43-2.11s-1.32-4.37-.34-5.65a7.11,7.11,0,0,1,4.09-1.08,19,19,0,0,1,3.79.33c1.51.35,2.74,1.43,2.71,2.1A7.88,7.88,0,0,1,48.8,29.65Zm15,.86c-.36.76-1.17,2-4.45,2.06a5.2,5.2,0,0,1-5.16-2.89,7.86,7.86,0,0,1-.61-3.59c0-.68,1.22-1.74,2.73-2.07a19,19,0,0,1,3.79-.28,7.07,7.07,0,0,1,4.08,1.13C65.14,26.16,64.15,29.74,63.79,30.51Z"/><polygon class="cls-15" points="36.21 24.06 36.21 24.22 38.13 24.36 38.08 24.44 36.21 24.31 36.24 24.49 38.04 24.63 38.01 24.7 36.25 24.58 36.27 24.71 38.13 24.87 38.43 24.16 36.21 24.06"/><polygon class="cls-15" points="66.94 24.11 66.95 24.27 65.2 24.45 65.25 24.53 66.95 24.36 66.93 24.54 65.28 24.71 65.31 24.79 66.92 24.63 66.91 24.76 65.21 24.96 64.92 24.26 66.94 24.11"/></g></g></g></g></g></svg>