<svg xmlns="http://www.w3.org/2000/svg" width="204.645" height="103.849" viewBox="0 0 204.645 103.849">
  <g id="Group_2534" data-name="Group 2534" transform="translate(-67.42 -264)">
    <g id="Layer_2" data-name="Layer 2" transform="translate(139.005 264)">
      <g id="Transport" transform="translate(-0.005)">
        <path id="Path_1071" data-name="Path 1071" d="M130.964,85.633H2.1a2.1,2.1,0,0,1-2.1-2.1V72.264A26.476,26.476,0,0,1,26.444,45.82H54.921a7.533,7.533,0,0,1,7.523,7.523V68.912H78.316C83.063,56.129,93.131,47.957,104.3,47.957c15.632,0,28.288,15.611,28.76,35.528a2.094,2.094,0,0,1-2.1,2.148ZM4.191,81.442H128.764c-1.226-16.585-11.671-29.336-24.464-29.336-9.744,0-18.576,7.659-22.515,19.519a2.1,2.1,0,0,1-1.991,1.435H60.348a2.1,2.1,0,0,1-2.1-2.1V53.343a3.342,3.342,0,0,0-3.332-3.332H26.444A22.285,22.285,0,0,0,4.191,72.264Z" transform="translate(0.005 2.186)" fill="#fff"/>
        <path id="Path_1072" data-name="Path 1072" d="M57.327,43.383H19.3a2.1,2.1,0,0,1-2.1-2.1v-3.7A10.089,10.089,0,0,1,27.279,27.51H49.344A10.079,10.079,0,0,1,59.423,37.589v3.7A2.1,2.1,0,0,1,57.327,43.383ZM21.391,39.192H55.232v-1.6A5.888,5.888,0,0,0,49.344,31.7H27.279a5.888,5.888,0,0,0-5.888,5.888Z" transform="translate(0.826 1.313)" fill="#fff"/>
        <path id="Path_1073" data-name="Path 1073" d="M2.1,75.758a2.1,2.1,0,0,1-2.1-2.1V24.284a7.491,7.491,0,1,1,14.972,0V53.442a2.1,2.1,0,0,1-.932,1.739A22.274,22.274,0,0,0,4.191,73.662a2.1,2.1,0,0,1-2.1,2.1ZM7.481,20.984a3.3,3.3,0,0,0-3.29,3.3V59.372a26.507,26.507,0,0,1,6.59-7.009V24.284a3.3,3.3,0,0,0-3.3-3.3Z" transform="translate(0.005 0.788)" fill="#fff"/>
        <path id="Path_1074" data-name="Path 1074" d="M93.366,13.62a2.1,2.1,0,0,1-2.1-1.792L90.736,8a4.484,4.484,0,0,0-4.4-3.814H78.855a2.1,2.1,0,1,1,0-4.191h7.481a8.686,8.686,0,0,1,8.549,7.407l.566,3.856A2.1,2.1,0,0,1,93.67,13.62,1.435,1.435,0,0,1,93.366,13.62Z" transform="translate(3.668 0)" fill="#fff"/>
        <path id="Path_1075" data-name="Path 1075" d="M30.637,100.041A18.461,18.461,0,0,1,12.25,81.957a2.093,2.093,0,0,1,2.1-2.137H46.929a2.1,2.1,0,0,1,2.1,2.1A18.461,18.461,0,0,1,30.637,100.041ZM16.629,84.011a14.2,14.2,0,0,0,28.005,0Z" transform="translate(0.59 3.808)" fill="#fff"/>
        <path id="Path_1076" data-name="Path 1076" d="M100.387,100.039A18.471,18.471,0,0,1,82,81.955a2.1,2.1,0,0,1,2.1-2.1H116.69a2.111,2.111,0,0,1,2.1,2.137,18.471,18.471,0,0,1-18.4,18.042Zm-14-16.03a14.2,14.2,0,0,0,28.005,0Z" transform="translate(3.918 3.81)" fill="#fff"/>
        <path id="Path_1077" data-name="Path 1077" d="M117.491,46.161a12.751,12.751,0,0,1,0-25.5h.262a2.1,2.1,0,0,1,2.033,2.1v21.31a2.1,2.1,0,0,1-2.1,2.1Zm-1.9-21.143a8.56,8.56,0,0,0,0,16.7Z" transform="translate(5.002 0.986)" fill="#fff"/>
        <path id="Path_1078" data-name="Path 1078" d="M91.375,55.867a2.1,2.1,0,0,1-2.1-2.525,54.481,54.481,0,0,0-2.326-30.708l-.566-1.477a9.171,9.171,0,0,1,17.141-6.527L106,21.146a58.567,58.567,0,0,1,2.755,32.081,2.1,2.1,0,0,1-2.7,1.593,18.985,18.985,0,0,0-13.756.859,1.949,1.949,0,0,1-.922.189Zm3.583-42.956A4.977,4.977,0,0,0,90.306,19.7l.566,1.477h0a58.578,58.578,0,0,1,3.206,29.388,23.05,23.05,0,0,1,10.949-.325,54.481,54.481,0,0,0-2.934-27.607l-2.462-6.475a5.008,5.008,0,0,0-4.673-3.206Z" transform="translate(4.098 0.416)" fill="#fff"/>
        <path id="Path_1079" data-name="Path 1079" d="M39.987,60.035H22.658a1.048,1.048,0,1,1,0-2.1H39.987a1.048,1.048,0,1,1,0,2.1Z" transform="translate(1.036 2.764)" fill="#fff"/>
        <path id="Path_1080" data-name="Path 1080" d="M39.987,65.915H22.658a1.048,1.048,0,0,1,0-2.1H39.987a1.048,1.048,0,0,1,0,2.1Z" transform="translate(1.036 3.045)" fill="#fff"/>
        <path id="Path_1081" data-name="Path 1081" d="M39.987,71.805H22.658a1.048,1.048,0,1,1,0-2.1H39.987a1.048,1.048,0,1,1,0,2.1Z" transform="translate(1.036 3.326)" fill="#fff"/>
      </g>
    </g>
    <line id="Line_11" data-name="Line 11" y2="30.856" transform="translate(115.42 311.141) rotate(90)" fill="none" stroke="#fff" stroke-linecap="round" stroke-linejoin="round" stroke-width="2"/>
    <line id="Line_12" data-name="Line 12" y2="40" transform="translate(108.42 324.141) rotate(90)" fill="none" stroke="#fff" stroke-linecap="round" stroke-linejoin="round" stroke-width="2"/>
    <line id="Line_13" data-name="Line 13" y2="30.856" transform="translate(123.42 334.141) rotate(90)" fill="none" stroke="#fff" stroke-linecap="round" stroke-linejoin="round" stroke-width="2"/>
  </g>
</svg>
