<svg xmlns="http://www.w3.org/2000/svg" xmlns:xlink="http://www.w3.org/1999/xlink" viewBox="0 0 62.68 284.3"><defs><style>.cls-1{fill:none;}.cls-2{fill:#edc4aa;}.cls-3{fill:#c18c72;}.cls-4{fill:#ca1e4f;opacity:0.1;}.cls-5{fill:#f0c7ad;}.cls-6{fill:#cea48d;}.cls-7{fill:#141622;}.cls-8{fill:#272b44;}.cls-9{fill:#d0d2d3;}.cls-10{fill:#fff;}.cls-11{fill:#c8d1ee;}.cls-12{fill:#b4bcd6;}.cls-13{fill:#dae2f2;}.cls-14{fill:#b7c5db;}.cls-15{fill:#c91e4f;}.cls-16{clip-path:url(#clip-path);}.cls-17{fill:#453530;}.cls-18{fill:#efe3e7;}.cls-19{fill:#42210b;}.cls-20{fill:#baa382;}.cls-21{clip-path:url(#clip-path-2);}.cls-22{fill:#42261e;}.cls-23{fill:#321908;}.cls-24{fill:#764c24;}</style><clipPath id="clip-path"><path id="SVGID" class="cls-1" d="M40.7,25.14a12.63,12.63,0,0,1,3.68-.92,24.93,24.93,0,0,1,5.57.46s-2.72-2.19-4.86-2.12S40.5,24.6,40.7,25.14Z"/></clipPath><clipPath id="clip-path-2"><path id="SVGID-2" data-name="SVGID" class="cls-1" d="M33.63,25.14A12.52,12.52,0,0,0,30,24.22a25,25,0,0,0-5.58.46s2.73-2.19,4.86-2.12S33.84,24.6,33.63,25.14Z"/></clipPath></defs><g id="Layer_2" data-name="Layer 2"><g id="Female_Realtor" data-name="Female Realtor"><g id="Skin_Tones_Outfits" data-name="Skin Tones + Outfits"><g id="Ivory"><g id="Business_Dress" data-name="Business Dress"><g id="Arms_Crossed" data-name="Arms Crossed"><g id="NavyBlue_outfit" data-name="NavyBlue outfit"><g id="NavyBlue_outfit-2" data-name="NavyBlue outfit"><g id="_Layer_" data-name="&lt;Layer&gt;"><g id="Layer_4_copy_26" data-name="Layer 4 copy 26"><g id="Business_Woman" data-name="Business Woman"><path class="cls-2" d="M33.48,42.3a6.05,6.05,0,0,0,1.1.45c0,.15,0,.31,0,.47a15.53,15.53,0,0,1-2.42,7.87,11.15,11.15,0,0,1-.78.95H42.23A9.63,9.63,0,0,1,41,50.42a16.14,16.14,0,0,1-2-7.08v-.55a5.25,5.25,0,0,0,1.23-.49,29.54,29.54,0,0,0,8.88-11.71h0c.18-.47.33-.91.44-1.29h0a8.24,8.24,0,0,0,.33-1.46,44.75,44.75,0,0,0,0-7.11h0C50.14,16.14,49.84,9.58,41,6.6a26.45,26.45,0,0,0-4.06-1.07A26.82,26.82,0,0,0,32.85,6.6c-8.58,2.89-9.15,9.14-9,13.69a45.57,45.57,0,0,0-.07,7.55A10.82,10.82,0,0,0,24.07,29a16.61,16.61,0,0,0,.62,1.84A29.65,29.65,0,0,0,33.48,42.3Z"/><path class="cls-3" d="M36.89,43.09a8.2,8.2,0,0,1-2.28-.34,25.3,25.3,0,0,1-.43,3.31s3.55-.69,4.83-3.19a.56.56,0,0,1,.05-.08A8.71,8.71,0,0,1,36.89,43.09Z"/><path class="cls-4" d="M46.21,25.41a3.44,3.44,0,1,0,3,5.18c.18-.47.33-.91.44-1.29a3.37,3.37,0,0,0-3.4-3.89Z"/><path class="cls-4" d="M27.5,32.28a3.44,3.44,0,1,0-3.44-3.43s0,.09,0,.13a16.61,16.61,0,0,0,.62,1.84A3.41,3.41,0,0,0,27.5,32.28Z"/></g><path class="cls-5" d="M21.2,52.49c4.26-1.46,7-1,8.74-1.12l.09-.1c1.57.24,4-3,5.66-2.91,2.52.12,5.42,1.89,6.42,2.58a2.79,2.79,0,0,0,1,.44c1.78.43,6.55,1.41,10.41,4.23-.75,1.19-2,1.68-2,3.15-.14,3.68-1.55,8.82-.55,12.22-2.29-2.11-1.91,4.65-3.75,5-4.56.9-10.18-5.45-12.07-1.18A38.44,38.44,0,0,0,32,78.11c-.61.85-1.2,1.72-1.79,2.6a1.18,1.18,0,0,1-.06-.43,7.6,7.6,0,0,0-.11-.87c-.1-.81-.14-1.62-.23-2.43-.28-2.58-1-5.09-1.21-7.67a7.36,7.36,0,0,0-.14-.84c0-.18.11-.37,0-.54-.91-2.29-6.39-4.07-10.08,0-.12.12,0,.34,0,.51a1.12,1.12,0,0,0-.52.49l-.23.47a1.28,1.28,0,0,0-.69.3,85.61,85.61,0,0,0-8,8l-.18-5S10.24,56.27,21.2,52.49Z"/><path class="cls-5" d="M2.6,84.36c2.88-9.06,9.33-23,10.28-24.11l6.37-2.91L18.2,69.41s-4.84,11.23-11,17.83C6.81,85.81,3.34,85.62,2.6,84.36Z"/><path class="cls-6" d="M7,86.7C11.26,82,15.9,70.8,17.12,69.15c1.37-1.87,4.76-5.41,4.93-6.61,0,0,2.1,2.43-.21,5.65-1.67,2.32-7.39,13.12-11.93,20.57C10.08,87.91,6.91,87.55,7,86.7Z"/><path class="cls-7" d="M6.82,178.55a17.79,17.79,0,0,0,2-.62h.43a29.06,29.06,0,0,0,3.37-.47c.63.06,1.26.1,1.88.14,2.89.15,5.76.1,8.63.42a96.36,96.36,0,0,1,13.63,2.79,2.17,2.17,0,0,1,.46.92s-22.16,3.24-32.53-2c0,0,.6-.43,1.59-1.11A4,4,0,0,0,6.82,178.55Z"/><path class="cls-5" d="M13.72,177c6.16-.11,12.08,1.82,18.12,2.41-2.72,7.09-6.33,17.44-6.41,19A14.47,14.47,0,0,0,29.52,209c6.78,7.32,8.59,25,9.08,30.54a42.51,42.51,0,0,0,2.61,11.62,63.78,63.78,0,0,1,2.92,9.29c.32,2.16.66,3.45,1.77,8s1.55,8.2-2.22,9.61C39,279.86,39,265.2,37.21,265.79c-2.24.74-4.52,10.43-9.71,11.44-4.84.94-4.36-3.74-4.36-3.74s3.66-4.57,3.84-5.75c.46-2.9,4.17-7,3.14-9.62-.38-.94-3.07-14-4.53-19.5s-11.07-30.51-12.18-32.68A29,29,0,0,1,11,201c-.76-2-2.35-14.65-3.42-23.69C9.71,177.28,11.8,177.05,13.72,177Z"/><path class="cls-7" d="M37.51,262.15s-2.11,6.89-4.45,9.3c-2.14,2.22-6.86,6.82-9.71,2.63l.27-1.2c-3.11,1.78-5.83,5.88-5.83,5.88a13.76,13.76,0,0,0,10.16.08c5.62-2.13,7.84-5.77,7.94-6.37l1.33,4,1.18-.66S38.52,264.17,37.51,262.15Z"/><path class="cls-6" d="M13.78,177l.38.1a175.45,175.45,0,0,0-.82,26.21c.25,2,1.8,3.93,3.05,5.5A10.45,10.45,0,0,1,18,211.07c.36,1,3.31,6.89,5.92,12.13,1.81,3.64,3.53,7.08,4.19,8.48,1.64,3.49,9.24,28.61,9.72,30.39.24.86.39,1.64.54,2.47s.56,5.14.54,5.38c-.49-1.73-.93-4.16-1.14-5.27-.15-.81-.29-1.58-.52-2.42-.69-2.5-8.12-27-9.69-30.29-.66-1.4-2.37-4.83-4.18-8.47-2.74-5.51-5.58-11.21-5.94-12.18a10.54,10.54,0,0,0-1.5-2.16c-1.29-1.62-2.9-3.64-3.17-5.8-.31-2.42-.38-16,.84-26.45Z"/><path class="cls-7" d="M44.13,260.47c0-.69,3.49,9.67,5,11.49s2.08,8.9-3.21,12.34a12.59,12.59,0,0,1-6.4-8.08,57.32,57.32,0,0,1-1.67-11c.06,0,1.74,12.26,6.55,11.66,0,0,3.54-1.47.54-8C45,268.9,44.11,262.89,44.13,260.47Z"/><path class="cls-8" d="M9.64,110.46a2.24,2.24,0,0,1,.56,1.43l.1,0a11.55,11.55,0,0,0,1.13.52c.94.35,1.89.67,2.85.93,2.37.62,4.19,5.3,6.91,5.23,6.08-.17,13.24-.62,18.66-2.41-2,4.17-.09-.12-.12-.15-1.12-1.12,0-17.89,0-17.89L46.38,90s7.32-6.47,1.86-17.49c-4-8-2.72-20.49-3.07-19.55C40.63,65.24,39.3,77.51,30.05,80.1,23,77.4,27.3,55.39,27.3,55.39s-2.79,1.47-6.12,9.52c-2.89,7-11.25,11-7.63,20.52,5.23,13.77.84,13.86-2.51,22.06C10.58,108.59,10.11,109.57,9.64,110.46Z"/><path class="cls-8" d="M9.1,110.4S-6.59,138,4.73,179.75c0,0,11.26-4.33,32.53,2,0,0,20.77-52.91,3.7-68.34C27.58,101.3,9.1,110.4,9.1,110.4Z"/><path class="cls-7" d="M11.19,107.55s2.68,6,10.9,8.44c5,1.48,15.22.57,17.2-2.15a6.25,6.25,0,0,1,0,4s-12.62,4.94-22.27,0-7.92-7.4-7.92-7.4Z"/><path class="cls-7" d="M46.7,84.91c-1.54,2.87-1.15,6.71-1.54,9.79-.57,4.22-2.3,8.63-2.49,12.86,0,1.53-.06,5.13-.82,6.47-1,1.73-2.25-.14-3.41-1.48-3.26-3.84.37-13.06,2.87-16.51,1.92-2.88,3.58-7.82,5.2-10.94Z"/><path class="cls-5" d="M47.33,95c.37-4.45-1.73-10-1.45-12,.52-3.7,4.57-11.94,2.14-13.47-1.56-1-3.6-17.87-2.1-17.44,1,.29,8.32,1.81,11.15,7.35,1.07,2.3,1.67,9.57,1.1,12.38-2.44,12.05-5.38,21.61-6.09,25.91C49.55,95.92,50.35,95.14,47.33,95Z"/><path class="cls-7" d="M43.91,89c-2.29,1.74-4.31,3.26-7.25,3.54-3.51.33-6.77-.94-8.85,2.81-.12.22-.61.1-.72-.09-2.65-5.06,7.24-4.83,9.93-4.83.28,0,.79.43.29.43-2.54,0-12-.26-9.53,4.38l-.71-.09a5.55,5.55,0,0,1,5.44-3.1A35.42,35.42,0,0,0,37.45,92c2.26-.35,4-1.94,5.77-3.27.21-.16.89.13.69.29Z"/><path class="cls-7" d="M15.27,84.11c-1,6,8.45,6,7.68,12,0,.31-.79.13-.74-.2.75-5.78-8.7-5.9-7.68-12,.05-.31.79-.13.74.2Z"/><path class="cls-7" d="M15.78,87.64c.25,1.82,3.5,1.81,4.86,2.32a3.84,3.84,0,0,1,2.82,4.13c0,.25-.76.09-.74-.2.18-2.9-2.06-3.6-4.45-4.16-1.24-.29-3-.68-3.23-2.18,0-.3.7-.17.74.09Z"/><path class="cls-8" d="M46.38,85.29c-1.79,1.79-2.31,6.91-2.82,9.73-.51,3.07-2,4.86-2.81,7.42-.77,2.3-.66,8.56-1.43,10.86l-1.73-1.11c-8.12.29,5.74-19.3,6.48-22.55Z"/><path class="cls-8" d="M16.18,89.64c-.77,2,1,4.61,1.28,6.65.77,5.38-2.05,8.19-5.63,11.52-2.82-3.33.25-7.16,1.28-10.49,1-2.3,1.73-6.09,2.45-9.55Z"/><path class="cls-7" d="M37.15,99.26c2.22-.25,3.66,2,5.87,1.36.27-.08.88.3.45.44a3.78,3.78,0,0,1-2.61,0c-1.15-.49-2.1-1.44-3.43-1.28-.31,0-.78-.41-.28-.47Z"/><path class="cls-7" d="M13.85,103.1a3.05,3.05,0,0,1,3.49,1.57c.56.91.82,2,1.31,2.94a7.08,7.08,0,0,0,5.55,3.74c.39,0,.59.54.08.48a8.15,8.15,0,0,1-5.08-2.47c-1.44-1.45-2.24-6.28-4.91-5.8-.28,0-.88-.38-.44-.46Z"/><path class="cls-7" d="M11.92,107.7c-1,1,6.61,5.44,7.66,5.86.49.19,0,.41-.28.28-1.12-.45-9.36-5-8.08-6.43.17-.18.88.09.7.29Z"/><path class="cls-7" d="M12.38,131.23c-1.11-.13,1.39.79,1.56.84a5.55,5.55,0,0,0,1.68.16,49.64,49.64,0,0,0,5,0c.21,0,.73.21.42.47-2,1.63-3.58,3.65-3.37,6.35,0,.37-.72.25-.75-.06-.22-2.85,1.46-5,3.55-6.71l.42.47c-3.4,0-6.73.24-9.89-1.2-.12-.06-.25-.17-.21-.31.19-.8.79-.63,1.48-.54.4.05.58.58.08.51Z"/><path class="cls-7" d="M7.13,153a16,16,0,0,0,7.17-4.9c.15-.21.51-.12.65,0,.86,1,2.29.92,3.07,1.92.3.37-.4.5-.62.23-.73-.94-2.25-1-3.07-1.92l.65,0a16.42,16.42,0,0,1-7.42,5.08c-.33.12-.87-.35-.43-.51Z"/><path class="cls-7" d="M30.42,153.88a17.65,17.65,0,0,1,5.27,2,17.94,17.94,0,0,1,4.24,4.32c.17.21-.55.11-.67,0a23.73,23.73,0,0,0-3.54-3.82,13.51,13.51,0,0,0-5.37-2.17c-.44-.11-.37-.36.07-.26Z"/><path class="cls-7" d="M32.56,152.58c4-.65,6.5,2.35,8.16,5.61.19.38-.56.39-.71.09-1.47-2.87-3.58-5.74-7.2-5.15-.37.06-.75-.47-.25-.55Z"/><path class="cls-7" d="M33.53,149.64a4.13,4.13,0,0,1,3.71,1c1.28,1.2,1.73,3,3.08,4.21.16.15-.54.07-.68-.05-1.86-1.64-2.42-5.34-5.5-4.82-.18,0-.82-.25-.61-.29Z"/><path class="cls-9" d="M34.55,62A1.2,1.2,0,0,0,37,62a1.21,1.21,0,0,0-1.21-1.2A1.2,1.2,0,0,0,34.55,62Z"/><path class="cls-10" d="M35.17,61.89a.67.67,0,1,0,.66-.6A.64.64,0,0,0,35.17,61.89Z"/><path class="cls-10" d="M36.47,62.65s-.65.74-1.27.27a.84.84,0,0,1-.34-1.14,2.58,2.58,0,0,0,.59.79A1.38,1.38,0,0,0,36.47,62.65Z"/><path class="cls-9" d="M35.06,59.34a1.2,1.2,0,0,0,1.2,1.2,1.21,1.21,0,0,0,1.2-1.21,1.2,1.2,0,0,0-2.4,0Z"/><path class="cls-10" d="M35.69,59.21a.62.62,0,0,0,.66.59.59.59,0,1,0,0-1.18A.62.62,0,0,0,35.69,59.21Z"/><path class="cls-10" d="M37,60s-.65.74-1.26.27a.83.83,0,0,1-.35-1.14,2.71,2.71,0,0,0,.59.8A1.38,1.38,0,0,0,37,60Z"/><path class="cls-9" d="M34.05,64.58a1.21,1.21,0,1,0,1.2-1.21A1.21,1.21,0,0,0,34.05,64.58Z"/><path class="cls-10" d="M34.68,64.45a.66.66,0,0,0,1.32,0,.62.62,0,0,0-.66-.58A.63.63,0,0,0,34.68,64.45Z"/><path class="cls-10" d="M36,65.21s-.65.75-1.27.27a.83.83,0,0,1-.34-1.14,2.53,2.53,0,0,0,.59.8A1.43,1.43,0,0,0,36,65.21Z"/><path class="cls-9" d="M32.6,62.14a1.06,1.06,0,0,0,1.06,1,1.05,1.05,0,1,0-1.06-1Z"/><path class="cls-10" d="M33.15,62a.58.58,0,1,0,.58-.52A.55.55,0,0,0,33.15,62Z"/><path class="cls-10" d="M34.29,62.7s-.57.65-1.11.23a.73.73,0,0,1-.3-1,2.33,2.33,0,0,0,.51.7A1.22,1.22,0,0,0,34.29,62.7Z"/><path class="cls-9" d="M33,59.1a1.05,1.05,0,1,0,1-1.05A1,1,0,0,0,33,59.1Z"/><path class="cls-10" d="M33.57,59a.57.57,0,0,0,.59.51.54.54,0,0,0,.57-.52.58.58,0,0,0-1.16,0Z"/><path class="cls-10" d="M34.71,59.66s-.57.64-1.11.23a.74.74,0,0,1-.3-1,2.35,2.35,0,0,0,.52.7A1.24,1.24,0,0,0,34.71,59.66Z"/><path class="cls-9" d="M32.16,64.31a1,1,0,0,0,1.05,1,1.05,1.05,0,1,0,0-2.1A1,1,0,0,0,32.16,64.31Z"/><path class="cls-10" d="M32.71,64.19a.58.58,0,0,0,1.15,0,.55.55,0,0,0-.58-.52A.54.54,0,0,0,32.71,64.19Z"/><path class="cls-10" d="M33.84,64.86s-.57.65-1.11.23a.72.72,0,0,1-.3-1,2.22,2.22,0,0,0,.52.69A1.19,1.19,0,0,0,33.84,64.86Z"/><path class="cls-9" d="M37.05,61.47a1,1,0,0,0,1.05,1,1.05,1.05,0,1,0,0-2.1A1,1,0,0,0,37.05,61.47Z"/><path class="cls-10" d="M37.6,61.35a.58.58,0,1,0,.57-.52A.54.54,0,0,0,37.6,61.35Z"/><path class="cls-10" d="M38.73,62s-.57.65-1.11.24a.74.74,0,0,1-.3-1,2.35,2.35,0,0,0,.52.7A1.24,1.24,0,0,0,38.73,62Z"/><path class="cls-9" d="M37.22,58.64a1,1,0,0,0,1.05,1,1.05,1.05,0,0,0,0-2.1A1.05,1.05,0,0,0,37.22,58.64Z"/><path class="cls-10" d="M37.77,58.52a.54.54,0,0,0,.58.51.52.52,0,1,0-.58-.51Z"/><path class="cls-10" d="M38.9,59.19s-.57.65-1.1.23-.4-.81-.31-1a2.22,2.22,0,0,0,.52.69A1.19,1.19,0,0,0,38.9,59.19Z"/><path class="cls-9" d="M36.33,64a1.05,1.05,0,1,0,1-1.05A1,1,0,0,0,36.33,64Z"/><path class="cls-10" d="M36.88,63.9a.58.58,0,0,0,1.16,0,.58.58,0,0,0-1.16,0Z"/><path class="cls-10" d="M38,64.57s-.57.65-1.11.23a.74.74,0,0,1-.3-1,2.23,2.23,0,0,0,.52.7A1.19,1.19,0,0,0,38,64.57Z"/><path class="cls-9" d="M30.2,63.77a.9.9,0,1,0,.89-.9A.9.9,0,0,0,30.2,63.77Z"/><path class="cls-10" d="M30.67,63.67a.5.5,0,1,0,.49-.44A.47.47,0,0,0,30.67,63.67Z"/><path class="cls-10" d="M31.64,64.24s-.49.55-.95.2-.34-.69-.25-.85a1.91,1.91,0,0,0,.44.6A1,1,0,0,0,31.64,64.24Z"/><path class="cls-9" d="M31.37,58.77a.9.9,0,1,0,.89-.9A.9.9,0,0,0,31.37,58.77Z"/><path class="cls-10" d="M31.84,58.67a.5.5,0,0,0,1,0,.5.5,0,0,0-1,0Z"/><path class="cls-10" d="M32.81,59.24s-.49.55-1,.2a.62.62,0,0,1-.25-.85,1.79,1.79,0,0,0,.44.59A1,1,0,0,0,32.81,59.24Z"/><path class="cls-9" d="M31,61.65a.9.9,0,1,0,.9-.9A.9.9,0,0,0,31,61.65Z"/><path class="cls-10" d="M31.43,61.55a.5.5,0,0,0,1,0,.46.46,0,0,0-.49-.44A.47.47,0,0,0,31.43,61.55Z"/><path class="cls-10" d="M32.4,62.12s-.48.56-.94.2a.61.61,0,0,1-.26-.85,1.91,1.91,0,0,0,.44.6A1,1,0,0,0,32.4,62.12Z"/><path class="cls-9" d="M38.72,60.76a.9.9,0,1,0,.89-.9A.89.89,0,0,0,38.72,60.76Z"/><path class="cls-10" d="M39.19,60.66a.46.46,0,0,0,.49.44.44.44,0,1,0-.49-.44Z"/><path class="cls-10" d="M40.16,61.23s-.49.56-.95.2a.62.62,0,0,1-.26-.85,2.09,2.09,0,0,0,.44.6A1.08,1.08,0,0,0,40.16,61.23Z"/><path class="cls-9" d="M38.84,57.69a.9.9,0,1,0,.89-.9A.9.9,0,0,0,38.84,57.69Z"/><path class="cls-10" d="M39.31,57.59a.46.46,0,0,0,.49.44.47.47,0,0,0,.5-.44.48.48,0,0,0-.5-.44A.47.47,0,0,0,39.31,57.59Z"/><path class="cls-10" d="M40.28,58.16s-.49.56-1,.21a.64.64,0,0,1-.26-.86,2.09,2.09,0,0,0,.44.6A1.08,1.08,0,0,0,40.28,58.16Z"/><path class="cls-9" d="M38.31,63.39a.89.89,0,0,0,.89.89.9.9,0,1,0-.89-.89Z"/><path class="cls-10" d="M38.77,63.29a.5.5,0,0,0,1,0,.47.47,0,0,0-.49-.44A.48.48,0,0,0,38.77,63.29Z"/><path class="cls-10" d="M39.74,63.86s-.48.55-.94.2a.61.61,0,0,1-.26-.85,2,2,0,0,0,.44.59A1,1,0,0,0,39.74,63.86Z"/><polygon class="cls-8" points="44.04 260 49.13 268.71 48.7 269.78 45 264.25 44.04 260"/><path class="cls-9" d="M30,57.7a.9.9,0,1,0,.89-.9A.88.88,0,0,0,30,57.7Z"/><path class="cls-10" d="M30.44,57.6a.48.48,0,0,0,.5.44.47.47,0,0,0,.49-.45.46.46,0,0,0-.49-.43A.47.47,0,0,0,30.44,57.6Z"/><path class="cls-10" d="M31.41,58.17s-.48.55-.94.2a.61.61,0,0,1-.26-.85,2,2,0,0,0,.44.59A1,1,0,0,0,31.41,58.17Z"/><path class="cls-9" d="M28.87,56.17a.9.9,0,1,0,.89-.9A.89.89,0,0,0,28.87,56.17Z"/><path class="cls-10" d="M29.34,56.07a.47.47,0,0,0,.49.44.46.46,0,0,0,.49-.45.47.47,0,0,0-.49-.44A.46.46,0,0,0,29.34,56.07Z"/><path class="cls-10" d="M30.3,56.64s-.48.55-.94.2A.62.62,0,0,1,29.1,56a2,2,0,0,0,.44.59A1,1,0,0,0,30.3,56.64Z"/><path class="cls-9" d="M28.19,54.4a.9.9,0,0,0,1.79,0,.9.9,0,0,0-.9-.89A.88.88,0,0,0,28.19,54.4Z"/><path class="cls-10" d="M28.66,54.3a.46.46,0,0,0,.49.44.47.47,0,0,0,.49-.44.46.46,0,0,0-.49-.44A.46.46,0,0,0,28.66,54.3Z"/><path class="cls-10" d="M29.62,54.87s-.48.56-.94.2a.62.62,0,0,1-.26-.85,2.09,2.09,0,0,0,.44.6A1.05,1.05,0,0,0,29.62,54.87Z"/><path class="cls-9" d="M28.07,52.67a.9.9,0,1,0,.9-.9A.91.91,0,0,0,28.07,52.67Z"/><path class="cls-10" d="M28.54,52.58a.5.5,0,1,0,.5-.45A.47.47,0,0,0,28.54,52.58Z"/><path class="cls-10" d="M29.51,53.15s-.48.55-.94.2a.63.63,0,0,1-.26-.86,2,2,0,0,0,.44.6A1.1,1.1,0,0,0,29.51,53.15Z"/><path class="cls-9" d="M28.88,51.12a.72.72,0,1,0,.71-.72A.73.73,0,0,0,28.88,51.12Z"/><path class="cls-10" d="M29.26,51a.39.39,0,1,0,.39-.35A.36.36,0,0,0,29.26,51Z"/><path class="cls-10" d="M30,51.49s-.38.44-.75.16a.5.5,0,0,1-.2-.67,1.6,1.6,0,0,0,.35.47A.78.78,0,0,0,30,51.49Z"/><path class="cls-9" d="M39.85,55.81a.88.88,0,0,0,.9.89.9.9,0,1,0-.9-.89Z"/><path class="cls-10" d="M40.32,55.71a.49.49,0,1,0,.49-.44A.46.46,0,0,0,40.32,55.71Z"/><path class="cls-10" d="M41.28,56.28s-.48.56-.94.2a.62.62,0,0,1-.26-.85,2.09,2.09,0,0,0,.44.6A1,1,0,0,0,41.28,56.28Z"/><path class="cls-9" d="M40.57,53.65a.9.9,0,1,0,.89-.9A.9.9,0,0,0,40.57,53.65Z"/><path class="cls-10" d="M41,53.55a.5.5,0,0,0,1,0,.5.5,0,0,0-1,0Z"/><path class="cls-10" d="M42,54.12s-.49.55-.95.2a.62.62,0,0,1-.26-.85,2,2,0,0,0,.45.6A1,1,0,0,0,42,54.12Z"/><path class="cls-9" d="M40.2,59.34a.88.88,0,0,0,.9.89.9.9,0,1,0-.9-.89Z"/><path class="cls-10" d="M40.67,59.24a.46.46,0,0,0,.49.44.46.46,0,0,0,.49-.44.49.49,0,0,0-1,0Z"/><path class="cls-10" d="M41.63,59.81s-.48.56-.94.2a.62.62,0,0,1-.26-.85,2.09,2.09,0,0,0,.44.6A1.05,1.05,0,0,0,41.63,59.81Z"/><path class="cls-9" d="M41.28,51.91a.71.71,0,0,0,1.42,0,.71.71,0,1,0-1.42,0Z"/><path class="cls-10" d="M41.65,51.83a.38.38,0,0,0,.4.35.39.39,0,0,0,.39-.36.38.38,0,0,0-.4-.34A.37.37,0,0,0,41.65,51.83Z"/><path class="cls-10" d="M42.42,52.28s-.39.44-.75.16-.27-.55-.2-.68a1.52,1.52,0,0,0,.34.48A.91.91,0,0,0,42.42,52.28Z"/><path class="cls-10" d="M46.52,49.1a8.33,8.33,0,0,1,3.17,3.14c1.26,2.2,1.67,6.69,2,7.62s1.49,2.42.33,2.45l-1.16,0a9.36,9.36,0,0,1-3.53-.1,8.46,8.46,0,0,0-2.5-.44,1.71,1.71,0,0,1-.76,2.82c-2.25.92-8.54,5.49-11.15,10.51s-3.86,7.49-3.86,7.49,3-10.07,7-14.36,6.58-11.47,6.94-12.7S46.23,50.39,46.52,49.1Z"/><path class="cls-9" d="M29.39,60.79a.9.9,0,0,0,.9.89.9.9,0,0,0,0-1.8A.91.91,0,0,0,29.39,60.79Z"/><path class="cls-10" d="M29.86,60.69a.5.5,0,0,0,1,0,.5.5,0,0,0-1,0Z"/><path class="cls-10" d="M30.83,61.26s-.49.55-.95.2a.62.62,0,0,1-.26-.85,2,2,0,0,0,.44.59A1,1,0,0,0,30.83,61.26Z"/><path class="cls-9" d="M27.84,59.77a.89.89,0,0,0,.89.89.9.9,0,1,0-.89-.89Z"/><path class="cls-10" d="M28.3,59.67a.49.49,0,0,0,.5.44.48.48,0,0,0,.49-.45.46.46,0,0,0-.49-.43A.47.47,0,0,0,28.3,59.67Z"/><path class="cls-10" d="M29.27,60.24s-.48.55-.94.2a.61.61,0,0,1-.26-.85,2,2,0,0,0,.44.59A1,1,0,0,0,29.27,60.24Z"/><path class="cls-9" d="M26.77,58.3a.9.9,0,1,0,.89-.9A.91.91,0,0,0,26.77,58.3Z"/><path class="cls-10" d="M27.24,58.21a.5.5,0,1,0,.49-.45A.47.47,0,0,0,27.24,58.21Z"/><path class="cls-10" d="M28.21,58.78s-.49.55-.95.2a.62.62,0,0,1-.25-.85,1.79,1.79,0,0,0,.44.59A1.1,1.1,0,0,0,28.21,58.78Z"/><path class="cls-9" d="M26,56.48a.9.9,0,1,0,.9-.91A.91.91,0,0,0,26,56.48Z"/><path class="cls-10" d="M26.43,56.38a.5.5,0,0,0,1,0,.47.47,0,0,0-.5-.44A.48.48,0,0,0,26.43,56.38Z"/><path class="cls-10" d="M27.4,57s-.49.55-.95.2a.62.62,0,0,1-.25-.85,1.79,1.79,0,0,0,.44.59A1.1,1.1,0,0,0,27.4,57Z"/><path class="cls-9" d="M42,56a.72.72,0,0,0,.72.71.71.71,0,0,0,.71-.71.72.72,0,0,0-.72-.71A.71.71,0,0,0,42,56Z"/><path class="cls-10" d="M42.42,55.91a.36.36,0,0,0,.39.35.37.37,0,0,0,.39-.35.38.38,0,0,0-.39-.35A.36.36,0,0,0,42.42,55.91Z"/><path class="cls-10" d="M43.18,56.37s-.38.44-.75.16a.51.51,0,0,1-.2-.68,1.6,1.6,0,0,0,.35.47A.83.83,0,0,0,43.18,56.37Z"/><path class="cls-9" d="M41.33,57.69a.71.71,0,0,0,.72.71A.71.71,0,0,0,42,57,.71.71,0,0,0,41.33,57.69Z"/><path class="cls-10" d="M41.7,57.61a.4.4,0,0,0,.79,0,.4.4,0,0,0-.79,0Z"/><path class="cls-10" d="M42.47,58.07s-.38.43-.75.16a.5.5,0,0,1-.2-.68,1.6,1.6,0,0,0,.35.47A.83.83,0,0,0,42.47,58.07Z"/><path class="cls-9" d="M42.75,54a.72.72,0,1,0,.71-.72A.73.73,0,0,0,42.75,54Z"/><path class="cls-10" d="M43.13,53.88a.39.39,0,1,0,.39-.35A.36.36,0,0,0,43.13,53.88Z"/><path class="cls-10" d="M43.89,54.33s-.38.44-.75.16a.5.5,0,0,1-.2-.67,1.6,1.6,0,0,0,.35.47A.78.78,0,0,0,43.89,54.33Z"/><path class="cls-9" d="M42.81,52.15a.71.71,0,1,0,.7-.71A.7.7,0,0,0,42.81,52.15Z"/><path class="cls-10" d="M43.18,52.07a.39.39,0,0,0,.78,0,.38.38,0,0,0-.39-.35A.37.37,0,0,0,43.18,52.07Z"/><path class="cls-10" d="M44,52.52s-.39.45-.75.17A.5.5,0,0,1,43,52a1.6,1.6,0,0,0,.35.47A.8.8,0,0,0,44,52.52Z"/><path class="cls-11" d="M44.33,64.51S40.71,72,38.79,74.78s-5.55,7.77-9.68,8c0,0,2.67-6.91,4.12-9S41.24,64.84,44.33,64.51Z"/><path class="cls-10" d="M46.52,49.1a8.33,8.33,0,0,1,3.17,3.14c1.26,2.2,1.67,6.69,2,7.62s1.49,2.42.33,2.45l-1.16,0a9.36,9.36,0,0,1-3.53-.1,8.46,8.46,0,0,0-2.5-.44,1.71,1.71,0,0,1-.76,2.82c-2.25.92-8.54,5.49-11.15,10.51s-3.86,7.49-3.86,7.49,3-10.07,7-14.36,6.58-11.47,6.94-12.7S46.23,50.39,46.52,49.1Z"/><path class="cls-11" d="M26.32,55.37a28.49,28.49,0,0,0,1.26,2.89c.13,0,.49,2.45,1,2.7s1.19,3.28,1.19,3.28L28.6,69.12l-.75,11s-.76.71-1.71-.27c-1.23-1.27-1.59-3.42-2.4-12.13s-.83-9.06-.83-9.06S25.06,54.77,26.32,55.37Z"/><path class="cls-12" d="M25.84,61.07c-.42.33-.5,1.18.92,4.16a17.18,17.18,0,0,1,.91,5.58c-.26,3-.64,5.47-1,7.18a3.14,3.14,0,0,1,.63.23A16.26,16.26,0,0,0,29,72.84c.71-5.46-.36-13-.68-13.12-.6-.18-1.27-3.13-1.39-3.11s-1-1.23-1-1.23l-1.93,0-1.19,2.51L23,59.8C24.21,60.33,25.59,60.55,25.84,61.07Z"/><path class="cls-10" d="M30.2,64.86c-1,0-2-.08-3-.1.16,1.13.72,6.48.61,7.24S26,80,26.22,80.2s2.08,3.12,2.85,2.42l1.68-4.76s.31-8.3.13-10.29A11.65,11.65,0,0,0,30.2,64.86Z"/><path class="cls-13" d="M28.7,67.32a.72.72,0,0,0,.77.67.74.74,0,0,0,.45-.92.65.65,0,1,0-1.22.25Z"/><path class="cls-14" d="M28.7,67.32a.57.57,0,1,0,1.1-.22.62.62,0,0,0-.68-.53A.61.61,0,0,0,28.7,67.32Z"/><path class="cls-13" d="M29.64,67.79s-.21-1.26-.49-1,.21,1.09.35,1.06Z"/><g id="Layer_14_copy_21" data-name="Layer 14 copy 21"><path class="cls-6" d="M9.08,78.85S7,76.1,6.43,76.14A7.21,7.21,0,0,1,4,75.3c-.26-.19-.35,0-.35,0A23.37,23.37,0,0,0,5.88,77c.58.3,2.54,1.62,2.46,2a3.64,3.64,0,0,0-.08.62l1.45.29Z"/><path class="cls-5" d="M5.42,76.68c1,1.2.84,1.82,1.7,2.72s2.1,1.29,2.93,2a9.27,9.27,0,0,0,3.16,2.19l-3,6.42s10.29.26,14.67.13c11.12-.31,14.93-3.44,15.72-3.45,2.42,0,5.38,1.84,5.38,1.84l-.93,4.29a1.27,1.27,0,0,1-.89,1.07c-.48.16-1.21.25-1.49.32-2.4.57-9.7,1.63-21.42,3.6C14.82,99,4.43,96.23,1.56,94.92c-.77-1.5-.45-3-.6-4.23C1.05,87,2.77,82.91,5.42,76.68Z"/><path class="cls-6" d="M9.81,86a50.22,50.22,0,0,1-2.55-4.36S2.68,81,1.88,80.24a32,32,0,0,0,4.66,2.82,1.34,1.34,0,0,1,.68.54C7.7,84.39,8.78,85.94,9.81,86Z"/><path class="cls-5" d="M0,77.86a2.53,2.53,0,0,1,1.73-.15c1.26.2,7.59,1.81,7.59,1.81s-2-2.72-2.86-2.9-3-.77-3-1.86a7.48,7.48,0,0,1,4,.91c1.51,1.07,2.84,1.64,3.57,2.17s2,1.54,2,2.72,1.7,5.49,1.8,6.75c.14,1.83,1.05,2.74,1.69,2.93-2-.09-4.31-.17-6.35-.18a34.58,34.58,0,0,1-2.6-4.41s-5.17-.72-5.33-1.75c0,0-.27-.87.12-1,0,0,4.32.89,5.09.16C7.54,83.09-.54,79.91,0,77.86Z"/><path class="cls-6" d="M3.15,79.44a29,29,0,0,1,3.61,1.49c.23.27,2.34,1.39,2.41.81a7.26,7.26,0,0,0-1.62-1.36C7,80.16,3.55,79,3.15,79.44Z"/><path class="cls-6" d="M15.16,89.83c-1.28,0-2.56,0-3.84,0a44.39,44.39,0,0,1-2.68-4l4.22-3.05s1.53.38,1.72,4.4A5.58,5.58,0,0,0,15.16,89.83Z"/><path class="cls-6" d="M10.21,90a50.22,50.22,0,0,1-2.55-4.36s-4.58-.71-5.38-1.42c0,0,3.16,2.14,4.14,2.14C6.42,86.37,8.82,89.9,10.21,90Z"/><path class="cls-5" d="M26.72,96.1a27.53,27.53,0,0,1,5.52-1,18.22,18.22,0,0,0,2.51-.73c9.07-.46,9.91-.71,9.91-.71,0-1.25,1.62-11.17,3.84-15.68.09,0-.53.26-.43.27a24.4,24.4,0,0,0,7.65-.39c.06,0,1.81-3.21,1.6-2.61-1.08,6.2-3.67,20.69-5.78,23.24-1,1.24-2,5-2,5-1.47,1.73-2.63-.16-9-1C37,102,24.81,101.35,18.84,98.12,19.3,97.94,26.26,96.22,26.72,96.1Z"/><path class="cls-6" d="M44.66,93.61s-.44,2.54.24,3.12A50.31,50.31,0,0,1,38,96.5c-1.64-.37-6.64-.36-9.07.63C27.22,97.84,20,98,20,98S36.24,94.08,39.8,94.5C40.57,94.59,44.33,94.23,44.66,93.61Z"/></g><path class="cls-8" d="M45,90.2a12.42,12.42,0,0,0-5.42-2.52,12.74,12.74,0,0,0-3.47-.58,55.71,55.71,0,0,0,4-6.47c1.13-2.09,2-4.33,3.19-6.39.38-.63.78-1.24,1.21-1.83L45.56,71a17.16,17.16,0,0,0,1.5-1.45,21.86,21.86,0,0,0,1.18,3c2.67,5.38,2.29,9.68,1.2,12.67a8.29,8.29,0,0,1-2.72,3.66C46.09,89.36,45.6,89.68,45,90.2Z"/></g><path class="cls-10" d="M26.69,64a7.82,7.82,0,0,1,.87,3.22c1.24-1.13,1.82-1.49,3.32.33-.49-3.35-2.41-8.4-2.31-9.27.26-2.53.5-9.23,1-10.45a8.11,8.11,0,0,0-3.18,1c-2.3,1.07-4.43,4.63-5.25,5.2s-2.62,1.1-1.69,1.8l.93.7a9.24,9.24,0,0,0,2.94,2c1.34.4,2.89,2.38,2.89,2.38S24.69,61.29,26.69,64Z"/></g></g></g></g></g></g></g><g id="Mouth_Lips" data-name="Mouth/Lips"><g id="Smiling"><path d="M41.71,34.85l-.05.4h0l-.07.63a9.66,9.66,0,0,0,1.61-.75,2.58,2.58,0,0,0,.37-.5l.09-.14,0,0c-.22.33-.8.34-1.62.39Z"/><path class="cls-15" d="M37,39a4.92,4.92,0,0,0,2.47-.3,20.4,20.4,0,0,0,2.31-2,6.45,6.45,0,0,0,1.95-2.26l0,0-.09.14a2.58,2.58,0,0,1-.37.5,9.66,9.66,0,0,1-1.61.75c-.51.23-1,.43-1.33.54a19.77,19.77,0,0,1-3.25.65h-.08a20,20,0,0,1-3.23-.68c-.33-.11-.83-.32-1.33-.55a11.22,11.22,0,0,1-1.6-.76,2.69,2.69,0,0,1-.38-.51l-.08-.14,0,0a6.44,6.44,0,0,0,1.93,2.28,21.33,21.33,0,0,0,2.29,2A5,5,0,0,0,37,39Z"/><path class="cls-15" d="M32.26,34.8a20.14,20.14,0,0,0,2.53-.38,9.55,9.55,0,0,1,2.19.39,9.2,9.2,0,0,1,2.21-.37,21.41,21.41,0,0,0,2.52.41h.36c.82-.05,1.4-.06,1.62-.39l-.08,0a2.67,2.67,0,0,1-1.45-.16c-1.88-.56-2.94-1.34-3.6-1.15s-1,.58-1.57.7c-.55-.13-1-.55-1.57-.72s-1.72.58-3.61,1.13a3,3,0,0,1-1.45.15l-.08,0c.21.34.8.35,1.62.4A2.16,2.16,0,0,0,32.26,34.8Z"/><path d="M30.39,34.57a2.69,2.69,0,0,0,.38.51,11.22,11.22,0,0,0,1.6.76l-.07-.63h0l0-.41a2.16,2.16,0,0,1-.36,0c-.82,0-1.41-.06-1.62-.4l0,0Z"/><path class="cls-10" d="M41.66,35.25h0l.05-.4a21.41,21.41,0,0,1-2.52-.41,9.2,9.2,0,0,0-2.21.37,9.55,9.55,0,0,0-2.19-.39,20.14,20.14,0,0,1-2.53.38l0,.41h0l.07.63c.5.23,1,.44,1.33.55a20,20,0,0,0,3.23.68H37a19.77,19.77,0,0,0,3.25-.65c.33-.11.82-.31,1.33-.54l.07-.63Z"/></g></g><g id="Nose_Type_Skin_Tone" data-name="Nose &gt; Type &gt; Skin Tone"><g id="Straight"><g id="Ivory-2" data-name="Ivory"><path id="_30_Business_Woman" data-name="30 Business Woman" class="cls-3" d="M35.69,22s1.55,6.32-1.73,7.63c0,0,2.69.53,3.35,1.73,0,0-1.07-1.68-2.17-1.94C35.14,29.44,37.24,27.52,35.69,22Z"/></g></g></g><g id="Eyes"><g id="Asian"><g id="Brown"><g id="Brown-2" data-name="Brown"><g class="cls-16"><path class="cls-17" d="M40.69,25.13a6.1,6.1,0,0,1,3.13-3.84c1.92-.89,4.3.26,5.09.78s2.21-.38,2.21-.38a.87.87,0,0,1-.44.76l0-.06a.82.82,0,0,1-.65.21c-.23,0-.69-.11-.76.11,0,0-.07.25,0,.25a9.64,9.64,0,0,1-.57,1.46c-.59,1-3.5,1.92-4.58,1.27a7.61,7.61,0,0,0-3.24-.4h-.23C40.66,25.25,40.68,25.19,40.69,25.13Z"/><path class="cls-18" d="M41.54,24a1.84,1.84,0,0,1,.19-.25,3.54,3.54,0,0,1,.64-.56c.31-.2.78-.44,1.16-.63a11.32,11.32,0,0,1,3.12.12,15.37,15.37,0,0,0,1.91.27,1.33,1.33,0,0,0-.32.65,2.33,2.33,0,0,1-2,1.91,4.13,4.13,0,0,1-1.11,0l-1.31-.28c-.2,0-.43-.11-.69-.16a6.66,6.66,0,0,0-2.91.24A6.12,6.12,0,0,0,41.54,24Z"/><path class="cls-19" d="M42.53,24.36a1.93,1.93,0,0,1-.18-.88c0-.29,0-.48,0-.48a6.58,6.58,0,0,1,3.46-.48l.82.16a2.13,2.13,0,0,1-1.17,2.76,1.65,1.65,0,0,1-.36.11,13.32,13.32,0,0,1-2-.44A2.12,2.12,0,0,1,42.53,24.36Z"/><path d="M48.56,23a15.37,15.37,0,0,1-1.91-.27l-.82-.16a1.85,1.85,0,0,1,.21.33,1.53,1.53,0,0,1-.81,2,1.64,1.64,0,0,1-2.12-.77,1.54,1.54,0,0,1-.1-.35,3.63,3.63,0,0,1-.12-.88,4.19,4.19,0,0,0-.52.3,3.54,3.54,0,0,0-.64.56l0,0c2.07-3.35,5.42-1.56,7.51-1.34a3.38,3.38,0,0,0,1.9-.74,1.72,1.72,0,0,1-.44.76,2.19,2.19,0,0,1-1.41.51A5.68,5.68,0,0,1,48.56,23Z"/><path class="cls-20" d="M42.43,23.87a1.11,1.11,0,0,1-.08-.39,1,1,0,0,1,0-.29,4.13,4.13,0,0,1,.92-.5,1.35,1.35,0,0,0,1.1.65.37.37,0,0,1-.38.49,8.91,8.91,0,0,1-1-.06A.85.85,0,0,0,42.43,23.87Z"/></g><path d="M40.75,24.9a6.88,6.88,0,0,1,1.78-1.83A5.05,5.05,0,0,1,45,22.12a3.71,3.71,0,0,1,1.4.19,4.64,4.64,0,0,1,1.17.63c.71.46,1.28,1,2.18.77a1.86,1.86,0,0,1-.6.29,1.5,1.5,0,0,1-.7,0,6.76,6.76,0,0,1-1.22-.5A6,6,0,0,0,46.2,23a3.51,3.51,0,0,0-1.12-.13,5.48,5.48,0,0,0-2.24.68A14.43,14.43,0,0,0,40.75,24.9Z"/><path d="M46.77,22.43a6.68,6.68,0,0,0,1.42.43,2.31,2.31,0,0,0,.74,0,1,1,0,0,0,.67-.3,1,1,0,0,1-.62.48,3.3,3.3,0,0,1-.81.15,7,7,0,0,1-1.64-.11Z"/><path d="M43.86,24.14A12.37,12.37,0,0,1,47.34,24a6.92,6.92,0,0,1,1.32.34,1.77,1.77,0,0,1,1,.85,1.73,1.73,0,0,0-1.07-.68c-.41-.1-1-.15-1.43-.23-1.23,0-1.56,0-3.87.05Z"/><g class="cls-21"><path class="cls-17" d="M33.65,25.13a6.14,6.14,0,0,0-3.13-3.84c-1.92-.89-4.31.26-5.09.78s-2.22-.38-2.22-.38a.88.88,0,0,0,.45.76l0-.06a.79.79,0,0,0,.65.21c.23,0,.68-.11.75.11,0,0,.08.25,0,.25a10.83,10.83,0,0,0,.57,1.46c.59,1,3.51,1.92,4.59,1.27a7.58,7.58,0,0,1,3.23-.4h.24C33.68,25.25,33.66,25.19,33.65,25.13Z"/><path class="cls-18" d="M32.79,24a1.71,1.71,0,0,0-.18-.25,3.54,3.54,0,0,0-.64-.56c-.32-.2-.78-.44-1.16-.63a11.32,11.32,0,0,0-3.12.12,15.91,15.91,0,0,1-1.91.27,1.33,1.33,0,0,1,.32.65,2.31,2.31,0,0,0,2,1.91,4.16,4.16,0,0,0,1.11,0l1.31-.28c.21,0,.44-.11.7-.16a6.61,6.61,0,0,1,2.9.24A6.36,6.36,0,0,1,32.79,24Z"/><path class="cls-19" d="M31.8,24.36a2.08,2.08,0,0,0,.19-.88c0-.29,0-.48,0-.48a6.58,6.58,0,0,0-3.46-.48l-.82.16a2.12,2.12,0,0,0,1.16,2.76,1.65,1.65,0,0,0,.36.11,13.17,13.17,0,0,0,2-.44A2.1,2.1,0,0,0,31.8,24.36Z"/><path d="M25.78,23a15.91,15.91,0,0,0,1.91-.27l.82-.16a1.46,1.46,0,0,0-.22.33,1.54,1.54,0,0,0,.82,2,1.63,1.63,0,0,0,2.11-.77,1.57,1.57,0,0,0,.11-.35,4.3,4.3,0,0,0,.12-.88,5.08,5.08,0,0,1,.52.3,3.54,3.54,0,0,1,.64.56v0c-2.06-3.35-5.41-1.56-7.5-1.34a3.42,3.42,0,0,1-1.91-.74,1.64,1.64,0,0,0,.45.76,2.17,2.17,0,0,0,1.4.51A5.87,5.87,0,0,0,25.78,23Z"/><path class="cls-20" d="M31.9,23.87a1,1,0,0,0,.09-.39,1.52,1.52,0,0,0,0-.29,4.63,4.63,0,0,0-.92-.5,1.35,1.35,0,0,1-1.11.65.38.38,0,0,0,.38.49,9.08,9.08,0,0,0,1-.06C31.59,23.76,31.81,23.77,31.9,23.87Z"/></g><path d="M33.58,24.9a6.73,6.73,0,0,0-1.78-1.83,5.05,5.05,0,0,0-2.51-.95,3.63,3.63,0,0,0-1.39.19,4.71,4.71,0,0,0-1.18.63c-.71.46-1.28,1-2.18.77a2,2,0,0,0,.6.29,1.55,1.55,0,0,0,.71,0,7,7,0,0,0,1.21-.5,6,6,0,0,1,1.08-.5,3.45,3.45,0,0,1,1.11-.13,5.48,5.48,0,0,1,2.25.68A14.34,14.34,0,0,1,33.58,24.9Z"/><path d="M27.57,22.43a6.86,6.86,0,0,1-1.42.43,2.37,2.37,0,0,1-.75,0,.94.94,0,0,1-.66-.3,1,1,0,0,0,.62.48,3.21,3.21,0,0,0,.81.15,6.88,6.88,0,0,0,1.63-.11Z"/><path d="M30.48,24.14A12.44,12.44,0,0,0,27,24a7.12,7.12,0,0,0-1.32.34,1.78,1.78,0,0,0-1,.85,1.68,1.68,0,0,1,1.06-.68c.41-.1,1-.15,1.43-.23,1.24,0,1.56,0,3.88.05Z"/></g></g></g></g><g id="Eye-Brows"><g id="Thin"><g id="Brunette"><path class="cls-22" d="M34.45,19.47c-2.08-.63-1.9-.57-3.47-1.06s-5.54-1.18-6.05,1.76a5.15,5.15,0,0,1,2.43-1.41C30.41,18.35,32.58,20.77,34.45,19.47Z"/><path class="cls-22" d="M47.2,19.07a5.23,5.23,0,0,1,2.18,1.78c0-3-4.06-2.92-5.7-2.68s-3.6.52-3.6.52C41.73,20.26,44.25,18.2,47.2,19.07Z"/></g></g></g><g id="Hair_Style_Color" data-name="Hair Style &amp; Color"><g id="Brunette_Hair" data-name="Brunette Hair"><g id="Curly_Hair" data-name="Curly Hair"><g id="_30_Business_Woman-2" data-name="30 Business Woman"><path class="cls-23" d="M37,5.41a26,26,0,0,1,4.08,1.08,3,3,0,0,1,.8.45c8,3.12,8.25,9.36,8,13.79h0a44.61,44.61,0,0,1,0,7.1,9.25,9.25,0,0,1-.33,1.46h0a.14.14,0,0,1,0,.06h.06a.23.23,0,0,1-.09.11c-.11.35-.23.72-.39,1.13h0A29.56,29.56,0,0,1,40.29,42.3s-.15.08-.41.19a6.4,6.4,0,0,1-.82.32v.53a16.17,16.17,0,0,0,2,7.08c.17.29.37.58.57.86,1.44,1,5.71,1.82,8.32,2.18a5.4,5.4,0,0,1,1.29-.57c1.18-2,1.28-5.31,1.8-9.87.62-5.45,4.1-8.9,4.1-12.61s3.73-1.46,3.11-5.05S56,12,52.4,8.5,37.74-.66,34.38.67c-1.7.67-4.17,4.56-6.19,8.22a15.65,15.65,0,0,1,4.72-2.43A25.37,25.37,0,0,1,37,5.41Z"/><path class="cls-23" d="M31.9,49.42a1.1,1.1,0,0,0,0,.25h0A1.14,1.14,0,0,1,31.9,49.42Z"/><path class="cls-23" d="M17.42,40.8c.36-.76,1.15-1.44,1.4,2.25.37,5.58,2.86,6.51,1.62,8.37a13.94,13.94,0,0,1-1.62,1.82c.39-.09.79-.17,1.18-.23l.41-.07,1.7-.25.55-.08c.34,0,.13.57.16.91.55,0,1.17-.07,1.85-.13,2.55-.43,6-1.24,7.29-2.13h0a2.07,2.07,0,0,0,.28-.38,15.66,15.66,0,0,0,2.29-7.66c0-.17,0-.33,0-.48a5.69,5.69,0,0,1-1.1-.44A29.75,29.75,0,0,1,24.7,30.82,15.58,15.58,0,0,1,24.07,29a10.92,10.92,0,0,1-.24-1.15,45.44,45.44,0,0,1,.07-7.54A21.86,21.86,0,0,1,24,16.62c-1.6,1.41-3.51,2.23-5.07,6.12-1.86,4.65-3.1,8.63-2.85,10.76C16.29,35.24,17.33,39.2,17.42,40.8Z"/><path class="cls-23" d="M17.33,41.46c.09-.07.11-.31.09-.66C17.24,41.19,17.16,41.6,17.33,41.46Z"/><path class="cls-23" d="M32,2.77a4.73,4.73,0,0,0-5.71,1.17c-2.74,2.86-3.48,6.11-3,8.58s2.36,10.4.5,11.83-1.12,9.1.87,10.53a69.84,69.84,0,0,1,.75-10.53c.74-3.51,1.24-6.11,1.61-8.06s1-5.59,3.48-6.11S32,2.77,32,2.77Z"/><path class="cls-23" d="M32.49,2.77S32.36,8.88,33,9s9.07-1.3,11.55,1.82c0,0,.87-4-2-5.46S36,2.9,35,3.16s2-1.43,3.73-1S37.46-.34,34.6.56,32.49,2.77,32.49,2.77Z"/><path class="cls-19" d="M31.25,9.27s1.24-6.76-3.86-6.37-4.22,7.67-4.34,9.36-.13,10.27-2.61,11.44-1.62,7.67-3,7.28-3.1,5.33-.12,6.11a4.15,4.15,0,0,0,2.61-3.51c.12-2.6,2.11-7.54,3.11-8.45s2.23-3.38,1.36-7.8-.87-12.74,2-12.61S30.75,4.2,31.25,9.27Z"/><path class="cls-19" d="M35,3.16s8.33.52,9.07,3,1.25,5.46.5,7.93.37,13.26,5.1,13.26,8,3.25,9.44,0c0,0-4.47.52-5.22-1s-5-2.6-5.09-5.59-.1-13.44-5.84-16.77C38.2,1.21,35,3.16,35,3.16Z"/><path class="cls-19" d="M47.94,11.41S47.4,21.1,52.87,22c4,.67,8.32,2.86,8.32,4.42,0,0-.37-4.29-3.73-5.72A18.4,18.4,0,0,1,47.94,11.41Z"/><path class="cls-19" d="M47.65,8.23s2.48,5.85,4.22,6.76S59,19.15,59,20.06c0,0,1.62-1.56-2.48-4.42S50.13,12.65,47.65,8.23Z"/><path class="cls-19" d="M51.62,36.31a19.3,19.3,0,0,0,.87,7.28c1.25,3.64.75,7.28-.87,8.45C51.62,52,55,50,55,48.4a10.27,10.27,0,0,0-.75-4.55C53.36,41.12,51.5,38.39,51.62,36.31Z"/><path class="cls-23" d="M51.75,29.81V36.7s.62-3,1.74-1.3,3,5.07,3,5.07-3-6.24-1-7.15S51.75,29.81,51.75,29.81Z"/><path class="cls-23" d="M42.8,3.16s4.72,2.47,5.72,4.68S56.1,16,57.09,15.38c0,0-7.08-5.46-7.45-7S46,3.29,42.8,3.16Z"/><path class="cls-19" d="M36.46.18s3.61-1,8.08,1.94,7.7,6.76,9.57,7S57.59,15,57.59,15,51,11.35,49.88,9,40.56,2.38,39.7,2.38,39,.43,36.46.18Z"/><path class="cls-19" d="M22.92,11c-.07-.51-1.49,7.8-3.73,8.06s-3.1,7.41-3.48,9.49-1.24,6-.24,5.85c0,0,1-3,2-3.38s.75-5.59,2.12-6.5S24.41,21.23,22.92,11Z"/><path class="cls-19" d="M45.66,8.1s1,4.81-.12,7.93,1.24,8.45,1.24,8.45-1.24-5.2-.13-7.28c0,0,.75,5.85,3.23,6.89a18.76,18.76,0,0,1-1.36-10C49.39,8.75,45.66,8.1,45.66,8.1Z"/><path class="cls-19" d="M49.39,27.47s4.84,5.59,9.44,4.94c0,0-4.6-2.73-4.72-4.16s5.09,1.43,5.59-.65c0,0-6.71-.65-8.08-2.47,0,0-.74,2.08.87,2.6S53,30.07,49.39,27.47Z"/><path class="cls-19" d="M60,29.42S55.48,31.11,62.68,41c0,0-2.48-5.33-2.36-7.41A16.07,16.07,0,0,0,60,29.42Z"/><path class="cls-19" d="M56.22,32.67s-5.09,2.21,5.22,13.65c0,0-3.23-8.45-2.86-11.31s-.12-2.73-.12-2.73S56.22,33.06,56.22,32.67Z"/><path class="cls-19" d="M52.24,37s-.62,2.08,1.62,5.85,2.73,7.54-6,11.31c0,0,8.69-.91,9.07-5.72S52,40.73,52.24,37Z"/><path class="cls-19" d="M51.37,39.69a32,32,0,0,0-.24,6.24c.24,2.86-.87,6.76-3.11,6.76,0,0,5,.39,5.09-4.55A18.51,18.51,0,0,0,51.37,39.69Z"/><path class="cls-24" d="M20.56,32.15s-1.62,4.42-3.35,5.46S15,44,15,44s2.11-4.42,3.1-3.77.5,4.55-1,5.72S14.84,54,18.32,54c0,0-1.49-1.69-.25-3.25s3.24-2.47,3-7.15S19.69,36.44,20.56,32.15Z"/><path class="cls-19" d="M22.42,27s-2.73,5.18-2.23,9.16,1.49,9.83,1,11.55-1.24,5.84-3.35,6.37A12,12,0,0,0,23.91,53c3.11-1.46,4.23-.13,4.23-2.39S25,41.73,25,39.74s-1.86-5.18-1.86-6.64S22.05,27.79,22.42,27Z"/><path class="cls-19" d="M50.38,28.12A10.86,10.86,0,0,0,48.25,37c1.07,5.34,4.26,10.46,2.13,11.91,0,0,2.77-2.11,1.39-6.79S48.25,33,50.38,28.12Z"/><path class="cls-19" d="M50,28.82s-1.7,4.31,1.39,11.88.64,11,.64,11a73.13,73.13,0,0,0,.32-11.8C52,32.91,51.55,32,50,28.82Z"/><path class="cls-19" d="M48.25,13s-1.7,10,4.58,12.7,7.77-.11,7.77-.11a12.78,12.78,0,0,0-5.53-3c-3.3-.78-6-2.67-7-9.35"/><path class="cls-24" d="M32.93,9.52s4.47-5,7.13-3.67C40.06,5.85,35,2.84,32.93,9.52Z"/><path class="cls-24" d="M22.18,37.13s5.32,11.6,2.12,14-4.36,3.07-4.36,3.07c3.85-1.45,2.84-1,5.64-2.16,1.7-.68,1.92-.11.85-4.78S24.84,38,22.18,37.13Z"/><path class="cls-24" d="M22.71,14.76s.42,7.46-1.92,8.12-4.47,5.57-4.15,8.47c0,0,2-5.79,4.15-6.13S24.62,18.43,22.71,14.76Z"/><path class="cls-24" d="M45,6.52s2.77,4.89,1.07,8.12S48.15,27.45,55,25.56c0,0-6.39-1.67-6.39-7.35S47.94,9.86,45,6.52Z"/><path class="cls-24" d="M52.3,31.46s-.32,4.9,2,8.46,5.11,7.8,2.66,10.8c0,0,3.09-1.78,1.92-6.23s-3.48-6-4.68-7.8A19.4,19.4,0,0,1,52.3,31.46Z"/><path class="cls-24" d="M49.64,27.56S59.1,36,61,31.12A2.5,2.5,0,0,0,59.7,27.6S57.94,30.57,49.64,27.56Z"/><path class="cls-19" d="M51.77,34s.1,4.9,2.23,7.13,3,7.46.85,8.9c0,0,3.94-2.45,2.35-5.9S51.66,37.69,51.77,34Z"/></g></g></g></g></g></g></svg>