<svg xmlns="http://www.w3.org/2000/svg" xmlns:xlink="http://www.w3.org/1999/xlink" width="75" height="75" viewBox="0 0 75 75">
  <defs>
    <clipPath id="clip-path">
      <circle id="Ellipse_4" data-name="Ellipse 4" cx="36.648" cy="36.648" r="36.648" fill="none"/>
    </clipPath>
    <clipPath id="clip-path-2">
      <path id="SVGID" d="M44.839,36.238A14.429,14.429,0,0,1,49.013,35.2a28.82,28.82,0,0,1,6.331.521s-3.1-2.482-5.513-2.408S44.616,35.634,44.839,36.238Z" transform="translate(-44.827 -33.308)" fill="none"/>
    </clipPath>
    <clipPath id="clip-path-3">
      <path id="SVGID-2" data-name="SVGID" d="M35.416,36.238A14.224,14.224,0,0,0,31.251,35.2a28.82,28.82,0,0,0-6.331.521s3.1-2.482,5.513-2.408S35.649,35.634,35.416,36.238Z" transform="translate(-24.92 -33.308)" fill="none"/>
    </clipPath>
  </defs>
  <g id="Group_27" data-name="Group 27" transform="translate(-537 -1407)">
    <g id="Ellipse_2" data-name="Ellipse 2" transform="translate(537 1407)" fill="#fff" stroke="#707070" stroke-width="1">
      <circle cx="37.5" cy="37.5" r="37.5" stroke="none"/>
      <circle cx="37.5" cy="37.5" r="37" fill="none"/>
    </g>
    <g id="Layer_2" data-name="Layer 2" transform="translate(532.16 1413.78)">
      <g id="Accessories" transform="translate(4.84 -5.78)">
        <g id="Group_26" data-name="Group 26" clip-path="url(#clip-path)">
          <g id="Business_Woman" data-name="Business Woman" transform="translate(22.403 11.649)">
            <path id="Path_1395" data-name="Path 1395" d="M35.163,54.264a6.359,6.359,0,0,0,1.246.493c0,.177,0,.363,0,.549A17.5,17.5,0,0,1,33.62,64.23a13.612,13.612,0,0,1-.874,1.078H45.12a11.519,11.519,0,0,1-1.357-1.859,18.361,18.361,0,0,1-2.241-8.032V54.8a6.108,6.108,0,0,0,1.395-.539A33.524,33.524,0,0,0,52.994,40.969h0c.2-.539.372-1.032.5-1.469h0a10.8,10.8,0,0,0,.372-1.655,50.788,50.788,0,0,0,0-8.07h0c.26-5.206-.084-12.653-10.134-16.037a28.876,28.876,0,0,0-4.648-1.209,29.062,29.062,0,0,0-4.648,1.209C24.732,17.02,24.091,24.123,24.314,29.283a51.774,51.774,0,0,0-.074,8.562,10.227,10.227,0,0,0,.27,1.3,19.774,19.774,0,0,0,.707,2.082,33.868,33.868,0,0,0,9.948,13.034Z" transform="translate(-24.097 -12.53)" fill="#edc4aa"/>
            <path id="Path_1396" data-name="Path 1396" d="M39.957,58.342a9.622,9.622,0,0,1-2.585-.372,28.5,28.5,0,0,1-.493,3.719s4.026-.79,5.485-3.616l.056-.1a9.5,9.5,0,0,1-2.464.372Z" transform="translate(-24.996 -15.725)" fill="#c18c72"/>
            <path id="Path_1397" data-name="Path 1397" d="M51.265,36.79a3.9,3.9,0,1,0,3.365,5.885c.2-.539.372-1.032.5-1.469a3.078,3.078,0,0,0,0-.511,3.9,3.9,0,0,0-3.868-3.9Z" transform="translate(-25.733 -14.236)" fill="#ca1e4f" opacity="0.1"/>
            <path id="Path_1398" data-name="Path 1398" d="M28.435,44.6a3.9,3.9,0,1,0-3.9-3.9v.158a19.775,19.775,0,0,0,.707,2.082,3.9,3.9,0,0,0,3.2,1.664Z" transform="translate(-24.128 -14.236)" fill="#ca1e4f" opacity="0.1"/>
          </g>
          <path id="Path_1399" data-name="Path 1399" d="M19.931,69.5c4.834-1.664,7.94-1.153,9.92-1.283l.1-.112c1.776.27,4.574-3.384,6.415-3.3,2.863.13,6.155,2.148,7.3,2.929a3.226,3.226,0,0,0,1.106.5c2.017.483,7.437,1.59,11.807,4.8-.846,1.348-2.259,1.859-2.315,3.579-.158,4.165-1.766,10-.632,13.862-2.6-2.4-2.166,5.281-4.249,5.69-5.178,1.023-11.556-6.182-13.7-1.329a40.282,40.282,0,0,0-3.514,3.719c-.7.93-1.367,1.952-2.027,2.956a1.4,1.4,0,0,1-.074-.493,7.438,7.438,0,0,0-.13-.985c-.112-.93-.158-1.859-.251-2.789-.325-2.929-1.088-5.773-1.385-8.7a6.3,6.3,0,0,0-.158-.93c0-.214.13-.428.056-.623-1.041-2.594-7.261-4.648-11.444,0-.13.149,0,.39-.046.586a1.237,1.237,0,0,0-.595.558l-.251.53a1.46,1.46,0,0,0-.781.344,95.757,95.757,0,0,0-9.111,9.111l-.167-5.7S7.529,73.781,19.931,69.5Z" transform="translate(-0.408 -4.557)" fill="#f0c7ad"/>
          <path id="Path_1400" data-name="Path 1400" d="M-1.67,106.431C1.6,96.149,8.928,80.3,10,79.07l7.233-3.3-1.2,13.694S10.546,102.22,3.5,109.694C3.109,108.086-.833,107.863-1.67,106.431Z" transform="translate(0.117 -5.328)" fill="#f0c7ad"/>
          <path id="Path_1401" data-name="Path 1401" d="M3.74,109.527c4.806-5.336,10.068-18.036,11.444-19.9,1.562-2.12,5.411-6.145,5.578-7.5,0,0,2.389,2.789-.242,6.406-1.859,2.64-8.367,14.875-13.527,23.344C7.2,110.9,3.6,110.5,3.74,109.527Z" transform="translate(-0.263 -5.774)" fill="#cea48d"/>
          <path id="Path_1402" data-name="Path 1402" d="M3.31,223.629a19.934,19.934,0,0,0,2.334-.669h.465a34.966,34.966,0,0,0,3.821-.53c.716.056,1.432.112,2.138.149,3.272.167,6.508.121,9.8.474a111.8,111.8,0,0,1,15.461,3.17,2.473,2.473,0,0,1,.521,1.051s-25.1,3.719-36.918-2.259l1.8-1.246a5.744,5.744,0,0,0,.576-.139Z" transform="translate(-0.065 -15.64)" fill="#141622"/>
          <path id="Path_1403" data-name="Path 1403" d="M11.385,221.85c6.991-.112,13.7,2.073,20.565,2.789-3.1,8.042-7.186,19.784-7.27,21.569a16.362,16.362,0,0,0,4.648,12.012c7.7,8.3,9.752,28.337,10.31,34.659A48.344,48.344,0,0,0,42.6,306.07a72.7,72.7,0,0,1,3.263,10.487c.372,2.454.753,3.914,2.017,9.139s1.766,9.3-2.519,10.905c-5.3,1.962-5.309-14.68-7.345-14-2.538.827-5.132,11.826-11.017,13.016-5.494,1.069-4.946-4.249-4.946-4.249s4.146-5.178,4.36-6.508c.521-3.282,4.732-7.93,3.551-10.914-.418-1.069-3.477-15.87-5.132-22.126S12.269,257.2,11.014,254.733a33.042,33.042,0,0,1-2.7-5.578c-.855-2.222-2.659-16.623-3.867-26.877C6.821,222.156,9.21,221.887,11.385,221.85Z" transform="translate(-0.313 -15.599)" fill="#f0c7ad"/>
          <path id="Path_1404" data-name="Path 1404" d="M39.3,325.77s-2.4,7.819-5.048,10.561c-2.436,2.519-7.791,7.735-11.017,2.984l.307-1.367c-3.589,1.98-6.675,6.629-6.675,6.629a15.618,15.618,0,0,0,11.537.093c6.368-2.408,8.9-6.508,9.009-7.233l1.515,4.518,1.339-.744S40.4,328.066,39.3,325.77Z" transform="translate(-1.186 -22.907)" fill="#141622"/>
          <path id="Path_1405" data-name="Path 1405" d="M11.9,221.759l.437.121c-1.357,11.8-1.274,26.961-.93,29.75.288,2.259,2.045,4.472,3.468,6.247a11.9,11.9,0,0,1,1.794,2.631c.4,1.069,3.719,7.809,6.712,13.75,2.064,4.137,4.007,8.042,4.751,9.632,1.859,3.96,10.487,32.465,11.045,34.482.26.985.428,1.859.6,2.789s.632,5.838.614,6.1c-.558-1.952-1.051-4.714-1.292-5.969-.167-.93-.335-1.8-.595-2.789-.772-2.845-9.213-30.587-11-34.4-.744-1.59-2.687-5.494-4.741-9.622-3.114-6.247-6.331-12.718-6.74-13.815a12.086,12.086,0,0,0-1.692-2.445c-1.469-1.859-3.3-4.137-3.607-6.591-.344-2.743-.428-18.12.93-30.02Z" transform="translate(-0.739 -15.583)" fill="#cea48d"/>
          <path id="Path_1406" data-name="Path 1406" d="M48.462,323.717c0-.781,3.97,10.97,5.69,13.016s2.361,10.106-3.635,14.01a14.28,14.28,0,0,1-7.261-9.176,64.537,64.537,0,0,1-1.906-12.43c.065,0,1.98,13.945,7.437,13.229,0,0,4.016-1.673.614-9.1C49.392,333.274,48.462,326.46,48.462,323.717Z" transform="translate(-2.908 -22.76)" fill="#141622"/>
          <path id="Path_1407" data-name="Path 1407" d="M6.92,135.672a2.519,2.519,0,0,1,.641,1.618l.112.065a12.465,12.465,0,0,0,1.292.586,33.464,33.464,0,0,0,3.226,1.051c2.7.716,4.751,6.024,7.847,5.941,6.9-.2,15.024-.707,21.169-2.733-2.259,4.732-.1-.139-.13-.177-1.274-1.264,0-20.3,0-20.3l7.54-9.241s8.311-7.345,2.12-19.858c-4.528-9.12-3.087-23.242-3.486-22.182-5.16,13.945-6.666,27.835-17.162,30.773-8.032-3.068-3.124-28.039-3.124-28.039S23.8,74.852,20.01,83.973c-3.272,7.912-12.765,12.476-8.655,23.242,5.941,15.619.93,15.721-2.854,25.027A36.135,36.135,0,0,1,6.92,135.672Z" transform="translate(-0.487 -4.949)" fill="#272b44"/>
          <path id="Path_1408" data-name="Path 1408" d="M5.543,140.258s-17.8,31.33-4.965,78.689c0,0,12.783-4.909,36.918,2.259,0,0,23.568-60.048,4.2-77.554C26.516,129.929,5.543,140.258,5.543,140.258Z" transform="translate(0.287 -9.6)" fill="#272b44"/>
          <path id="Path_1409" data-name="Path 1409" d="M8.621,137.06S11.67,143.893,21,146.636c5.7,1.673,17.283.641,19.523-2.445a7.066,7.066,0,0,1,0,4.5s-14.317,5.578-25.269,0-8.99-8.367-8.99-8.367Z" transform="translate(-0.431 -9.637)" fill="#141622"/>
          <path id="Path_1410" data-name="Path 1410" d="M51.344,109.42c-1.739,3.263-1.3,7.623-1.739,11.156-.651,4.788-2.612,9.8-2.789,14.6,0,1.739-.056,5.82-.93,7.345-1.088,1.962-2.557-.158-3.858-1.683-3.719-4.36.418-14.819,3.254-18.733,2.175-3.272,4.063-8.878,5.894-12.421Z" transform="translate(-2.851 -7.694)" fill="#141622"/>
          <path id="Path_1411" data-name="Path 1411" d="M52.764,118.089c.428-5.048-1.962-11.333-1.646-13.583.595-4.193,5.2-13.546,2.436-15.284-1.766-1.106-4.091-20.276-2.389-19.793,1.144.325,9.446,2.055,12.653,8.367,1.218,2.6,1.859,10.859,1.246,14.048-2.789,13.666-6.108,24.525-6.908,29.406C55.284,119.1,56.195,118.219,52.764,118.089Z" transform="translate(-3.556 -4.881)" fill="#f0c7ad"/>
          <path id="Path_1412" data-name="Path 1412" d="M47.278,114.414c-2.594,1.971-4.89,3.719-8.228,4.016-3.988.372-7.688-1.069-10.041,3.189-.139.251-.7.121-.818-.1-3.012-5.745,8.209-5.485,11.268-5.476.316,0,.93.483.325.483-2.873,0-13.564-.288-10.8,4.974l-.818-.056c1.422-2.566,3.31-3.5,6.173-3.524a38.9,38.9,0,0,0,5.578-.074c2.566-.4,4.565-2.2,6.554-3.719.232-.177,1.013.158.781.335Z" transform="translate(-1.947 -8.021)" fill="#141622"/>
          <path id="Path_1413" data-name="Path 1413" d="M13.729,108.419c-1.125,6.75,9.594,6.852,8.711,13.648-.046.353-.93.149-.837-.223.846-6.564-9.873-6.694-8.72-13.657C12.949,107.833,13.813,108.047,13.729,108.419Z" transform="translate(-0.9 -7.594)" fill="#141622"/>
          <path id="Path_1414" data-name="Path 1414" d="M14.357,112.725c.288,2.064,3.97,2.064,5.522,2.64a4.342,4.342,0,0,1,3.2,4.648c0,.279-.865.1-.846-.223.2-3.3-2.334-4.091-5.048-4.723-1.4-.335-3.431-.772-3.663-2.482,0-.344.8-.186.837.1Z" transform="translate(-0.951 -7.903)" fill="#141622"/>
          <path id="Path_1415" data-name="Path 1415" d="M50.8,109.89c-2.027,2.027-2.612,7.837-3.189,11.035-.586,3.486-2.324,5.513-3.2,8.423-.874,2.612-.744,9.715-1.618,12.328l-1.962-1.264c-9.222.335,6.508-21.9,7.354-25.585Z" transform="translate(-2.668 -7.727)" fill="#272b44"/>
          <path id="Path_1416" data-name="Path 1416" d="M14.437,115.039c-.874,2.324,1.162,5.225,1.45,7.549.874,6.1-2.324,9.3-6.387,13.071-3.2-3.775.288-8.135,1.45-11.909,1.162-2.612,1.962-6.908,2.789-10.84Z" transform="translate(-0.575 -7.939)" fill="#272b44"/>
          <path id="Path_1417" data-name="Path 1417" d="M40.49,126.938c2.519-.288,4.146,2.324,6.657,1.543.307-.093.995.344.511.493a4.2,4.2,0,0,1-2.956-.056c-1.3-.549-2.389-1.627-3.9-1.45-.353,0-.93-.465-.316-.53Z" transform="translate(-2.828 -8.924)" fill="#141622"/>
          <path id="Path_1418" data-name="Path 1418" d="M12.047,131.621a3.468,3.468,0,0,1,3.97,1.785c.632,1.032.93,2.25,1.478,3.328a8.032,8.032,0,0,0,6.3,4.239c.437.046.669.614.093.549a9.2,9.2,0,0,1-5.764-2.789c-1.636-1.646-2.547-7.131-5.578-6.582-.316.056-1-.428-.5-.521Z" transform="translate(-0.835 -9.247)" fill="#141622"/>
          <path id="Path_1419" data-name="Path 1419" d="M9.639,137.21c-1.088,1.2,7.5,6.173,8.7,6.647.549.223,0,.465-.325.325-1.274-.511-10.626-5.69-9.167-7.3C9.034,136.68,9.834,136.987,9.639,137.21Z" transform="translate(-0.611 -9.62)" fill="#141622"/>
          <path id="Path_1420" data-name="Path 1420" d="M10.135,165.945c-1.255-.158,1.58.93,1.776.93a6.21,6.21,0,0,0,1.906.177,53.135,53.135,0,0,0,5.708,0c.232,0,.827.242.474.53-2.231,1.859-4.063,4.146-3.821,7.205,0,.418-.818.288-.846-.074-.26-3.217,1.646-5.578,4.016-7.6l.474.53c-3.849,0-7.633.27-11.221-1.367-.13-.056-.279-.186-.242-.344.223-.93.93-.716,1.692-.614.456.056.651.651.084.586Z" transform="translate(-0.587 -11.617)" fill="#141622"/>
          <path id="Path_1421" data-name="Path 1421" d="M3.856,192.088c2.938-1.069,6.266-3.021,8.135-5.578.167-.232.576-.13.734.056.93,1.125,2.594,1.051,3.486,2.175.335.428-.465.576-.707.26-.837-1.06-2.547-1.088-3.486-2.175l.744.056c-1.952,2.659-5.355,4.648-8.423,5.773-.372.13-.985-.4-.483-.586Z" transform="translate(-0.258 -13.105)" fill="#141622"/>
          <path id="Path_1422" data-name="Path 1422" d="M32.259,193.61a20.229,20.229,0,0,1,5.987,2.231,20.64,20.64,0,0,1,4.816,4.909c.177.232-.641.121-.772,0a26.887,26.887,0,0,0-4.016-4.332,15.191,15.191,0,0,0-6.089-2.464c-.5-.121-.418-.409.074-.3Z" transform="translate(-2.239 -13.614)" fill="#141622"/>
          <path id="Path_1423" data-name="Path 1423" d="M34.883,191.992c4.555-.744,7.382,2.668,9.3,6.359.223.428-.632.446-.8.1-1.664-3.263-4.063-6.508-8.172-5.838-.418.065-.846-.53-.288-.623Z" transform="translate(-2.437 -13.493)" fill="#141622"/>
          <path id="Path_1424" data-name="Path 1424" d="M36.087,188.43a4.648,4.648,0,0,1,4.2,1.069c1.46,1.376,1.98,3.44,3.5,4.788.186.158-.6.074-.762-.056-2.11-1.859-2.743-6.071-6.238-5.476-.2,0-.93-.288-.7-.325Z" transform="translate(-2.534 -13.24)" fill="#141622"/>
          <path id="Path_1425" data-name="Path 1425" d="M37.33,81.376a1.357,1.357,0,1,0,.391-.972,1.367,1.367,0,0,0-.391.972Z" transform="translate(-2.625 -5.625)" fill="#d0d2d3"/>
          <path id="Path_1426" data-name="Path 1426" d="M38.1,81.269a.716.716,0,0,0,.753.669.725.725,0,0,0,.744-.679.753.753,0,0,0-1.5,0Z" transform="translate(-2.679 -5.667)" fill="#fff"/>
          <path id="Path_1427" data-name="Path 1427" d="M39.532,82.175s-.744.846-1.441.307a.93.93,0,0,1-.39-1.292,2.975,2.975,0,0,0,.669.93,1.618,1.618,0,0,0,1.162.056Z" transform="translate(-2.642 -5.709)" fill="#fff"/>
          <path id="Path_1428" data-name="Path 1428" d="M38,78.116a1.367,1.367,0,1,0,1.357-1.376A1.367,1.367,0,0,0,38,78.116Z" transform="translate(-2.672 -5.396)" fill="#d0d2d3"/>
          <path id="Path_1429" data-name="Path 1429" d="M38.72,78a.762.762,0,0,0,1.506,0,.725.725,0,0,0-.753-.669A.716.716,0,0,0,38.72,78Z" transform="translate(-2.723 -5.437)" fill="#fff"/>
          <path id="Path_1430" data-name="Path 1430" d="M40.152,78.925s-.734.846-1.432.316a.93.93,0,0,1-.4-1.3,2.891,2.891,0,0,0,.679.93A1.506,1.506,0,0,0,40.152,78.925Z" transform="translate(-2.686 -5.48)" fill="#fff"/>
          <path id="Path_1431" data-name="Path 1431" d="M36.73,84.507a1.357,1.357,0,1,0,.394-.966,1.367,1.367,0,0,0-.394.966Z" transform="translate(-2.583 -5.846)" fill="#d0d2d3"/>
          <path id="Path_1432" data-name="Path 1432" d="M37.49,84.4A.753.753,0,0,0,39,84.4a.7.7,0,0,0-.753-.66A.716.716,0,0,0,37.49,84.4Z" transform="translate(-2.636 -5.888)" fill="#fff"/>
          <path id="Path_1433" data-name="Path 1433" d="M38.932,85.305s-.744.846-1.441.307a.93.93,0,0,1-.39-1.292,2.975,2.975,0,0,0,.669.93,1.618,1.618,0,0,0,1.162.056Z" transform="translate(-2.6 -5.929)" fill="#fff"/>
          <path id="Path_1434" data-name="Path 1434" d="M35,81.547a1.2,1.2,0,1,0,1.195-1.094A1.2,1.2,0,0,0,35,81.547Z" transform="translate(-2.461 -5.657)" fill="#d0d2d3"/>
          <path id="Path_1435" data-name="Path 1435" d="M35.63,81.455a.623.623,0,0,0,.66.576.614.614,0,0,0,.651-.586.657.657,0,0,0-1.311.009Z" transform="translate(-2.505 -5.686)" fill="#fff"/>
          <path id="Path_1436" data-name="Path 1436" d="M36.872,82.245s-.641.734-1.255.27a.837.837,0,0,1-.344-1.134,2.64,2.64,0,0,0,.586.79,1.367,1.367,0,0,0,1.013.074Z" transform="translate(-2.473 -5.722)" fill="#fff"/>
          <path id="Path_1437" data-name="Path 1437" d="M35.47,77.829a1.2,1.2,0,1,0,1.19-1.2,1.2,1.2,0,0,0-1.19,1.2Z" transform="translate(-2.494 -5.388)" fill="#d0d2d3"/>
          <path id="Path_1438" data-name="Path 1438" d="M36.14,77.736a.623.623,0,0,0,.66.586.632.632,0,0,0,.66-.595.614.614,0,0,0-.66-.576.623.623,0,0,0-.66.586Z" transform="translate(-2.541 -5.425)" fill="#fff"/>
          <path id="Path_1439" data-name="Path 1439" d="M37.4,78.535s-.651.734-1.264.26A.818.818,0,0,1,35.8,77.67a2.64,2.64,0,0,0,.586.79A1.46,1.46,0,0,0,37.4,78.535Z" transform="translate(-2.51 -5.461)" fill="#fff"/>
          <path id="Path_1440" data-name="Path 1440" d="M34.41,84.181A1.2,1.2,0,1,0,35.6,83a1.2,1.2,0,0,0-1.19,1.181Z" transform="translate(-2.42 -5.836)" fill="#d0d2d3"/>
          <path id="Path_1441" data-name="Path 1441" d="M35.08,84.086a.66.66,0,0,0,1.311,0,.614.614,0,0,0-.651-.586.623.623,0,0,0-.66.586Z" transform="translate(-2.467 -5.871)" fill="#fff"/>
          <path id="Path_1442" data-name="Path 1442" d="M36.341,84.935s-.651.734-1.264.27a.822.822,0,0,1-.335-1.134,2.482,2.482,0,0,0,.586.79A1.367,1.367,0,0,0,36.341,84.935Z" transform="translate(-2.435 -5.911)" fill="#fff"/>
          <path id="Path_1443" data-name="Path 1443" d="M40.38,80.727a1.19,1.19,0,0,0,1.2,1.19,1.147,1.147,0,1,0-1.153-1.2Z" transform="translate(-2.839 -5.599)" fill="#d0d2d3"/>
          <path id="Path_1444" data-name="Path 1444" d="M41.05,80.625a.66.66,0,1,0,.66-.6.632.632,0,0,0-.66.6Z" transform="translate(-2.886 -5.627)" fill="#fff"/>
          <path id="Path_1445" data-name="Path 1445" d="M42.311,81.415s-.651.734-1.264.27A.837.837,0,0,1,40.7,80.55a2.557,2.557,0,0,0,.595.79A1.367,1.367,0,0,0,42.311,81.415Z" transform="translate(-2.855 -5.664)" fill="#fff"/>
          <path id="Path_1446" data-name="Path 1446" d="M40.59,77.259a1.2,1.2,0,1,0,1.19-1.2,1.2,1.2,0,0,0-1.19,1.2Z" transform="translate(-2.854 -5.348)" fill="#d0d2d3"/>
          <path id="Path_1447" data-name="Path 1447" d="M41.26,77.166a.623.623,0,0,0,.66.586.632.632,0,0,0,.66-.595.614.614,0,0,0-.66-.576.623.623,0,0,0-.66.586Z" transform="translate(-2.901 -5.385)" fill="#fff"/>
          <path id="Path_1448" data-name="Path 1448" d="M42.521,77.935s-.651.744-1.255.27-.456-.93-.344-1.125a2.64,2.64,0,0,0,.586.79,1.413,1.413,0,0,0,1.013.065Z" transform="translate(-2.87 -5.42)" fill="#fff"/>
          <path id="Path_1449" data-name="Path 1449" d="M39.5,83.829a1.2,1.2,0,1,0,1.19-1.2,1.2,1.2,0,0,0-1.19,1.2Z" transform="translate(-2.777 -5.81)" fill="#d0d2d3"/>
          <path id="Path_1450" data-name="Path 1450" d="M40.17,83.735a.632.632,0,0,0,.669.576.614.614,0,0,0,.651-.586.623.623,0,0,0-.66-.586A.632.632,0,0,0,40.17,83.735Z" transform="translate(-2.825 -5.846)" fill="#fff"/>
          <path id="Path_1451" data-name="Path 1451" d="M41.431,84.525s-.641.734-1.255.27a.827.827,0,0,1-.344-1.134,2.64,2.64,0,0,0,.586.79A1.367,1.367,0,0,0,41.431,84.525Z" transform="translate(-2.794 -5.883)" fill="#fff"/>
          <path id="Path_1452" data-name="Path 1452" d="M32,83.543a1.013,1.013,0,0,0,1.013,1.013,1.032,1.032,0,0,0,1.023-1.023A1.018,1.018,0,1,0,32,83.543Z" transform="translate(-2.25 -5.802)" fill="#d0d2d3"/>
          <path id="Path_1453" data-name="Path 1453" d="M32.6,83.462a.558.558,0,1,0,.558-.5.53.53,0,0,0-.558.5Z" transform="translate(-2.292 -5.833)" fill="#fff"/>
          <path id="Path_1454" data-name="Path 1454" d="M33.67,84.137s-.549.632-1.069.232-.39-.781-.3-.93a2.306,2.306,0,0,0,.5.679A1.162,1.162,0,0,0,33.67,84.137Z" transform="translate(-2.265 -5.867)" fill="#fff"/>
          <path id="Path_1455" data-name="Path 1455" d="M33.45,77.433a1.023,1.023,0,1,0,1.013-1.023,1.023,1.023,0,0,0-1.013,1.023Z" transform="translate(-2.352 -5.373)" fill="#d0d2d3"/>
          <path id="Path_1456" data-name="Path 1456" d="M34,77.352a.558.558,0,1,0,.558-.5.521.521,0,0,0-.558.5Z" transform="translate(-2.391 -5.404)" fill="#fff"/>
          <path id="Path_1457" data-name="Path 1457" d="M35.1,78.037s-.549.623-1.078.223a.707.707,0,0,1-.288-.93,2.194,2.194,0,0,0,.5.679,1.209,1.209,0,0,0,.865.028Z" transform="translate(-2.367 -5.437)" fill="#fff"/>
          <path id="Path_1458" data-name="Path 1458" d="M33,80.923a1.018,1.018,0,1,0,1.013-1.013A1.023,1.023,0,0,0,33,80.923Z" transform="translate(-2.32 -5.619)" fill="#d0d2d3"/>
          <path id="Path_1459" data-name="Path 1459" d="M33.53,80.872a.53.53,0,0,0,.558.5.549.549,0,0,0,.567-.5.539.539,0,0,0-.567-.5.53.53,0,0,0-.558.5Z" transform="translate(-2.358 -5.651)" fill="#fff"/>
          <path id="Path_1460" data-name="Path 1460" d="M34.6,81.557s-.549.623-1.069.223-.39-.781-.3-.93a2.194,2.194,0,0,0,.5.679A1.209,1.209,0,0,0,34.6,81.557Z" transform="translate(-2.331 -5.685)" fill="#fff"/>
          <path id="Path_1461" data-name="Path 1461" d="M42.42,79.916a1.032,1.032,0,1,0,.268-.781A1.032,1.032,0,0,0,42.42,79.916Z" transform="translate(-2.983 -5.541)" fill="#d0d2d3"/>
          <path id="Path_1462" data-name="Path 1462" d="M43,79.788a.558.558,0,1,0,.558-.558.558.558,0,0,0-.558.558Z" transform="translate(-3.024 -5.571)" fill="#fff"/>
          <path id="Path_1463" data-name="Path 1463" d="M44.071,80.467s-.558.632-1.078.232a.707.707,0,0,1-.288-.93,2.185,2.185,0,0,0,.5.669,1.209,1.209,0,0,0,.865.028Z" transform="translate(-2.998 -5.609)" fill="#fff"/>
          <path id="Path_1464" data-name="Path 1464" d="M42.57,76.123a1.013,1.013,0,1,0,.293-.723A1.023,1.023,0,0,0,42.57,76.123Z" transform="translate(-2.993 -5.281)" fill="#d0d2d3"/>
          <path id="Path_1465" data-name="Path 1465" d="M43.14,76.042a.539.539,0,0,0,.567.5.549.549,0,0,0,.558-.511.567.567,0,0,0-1.125,0Z" transform="translate(-3.033 -5.311)" fill="#fff"/>
          <path id="Path_1466" data-name="Path 1466" d="M44.211,76.717s-.549.632-1.069.232a.716.716,0,0,1-.3-.93,2.194,2.194,0,0,0,.5.679A1.162,1.162,0,0,0,44.211,76.717Z" transform="translate(-3.008 -5.345)" fill="#fff"/>
          <path id="Path_1467" data-name="Path 1467" d="M41.92,83.073a1.018,1.018,0,1,0,1-1.023,1.023,1.023,0,0,0-1,1.023Z" transform="translate(-2.947 -5.769)" fill="#d0d2d3"/>
          <path id="Path_1468" data-name="Path 1468" d="M42.49,82.958a.558.558,0,1,0,.558-.558.558.558,0,0,0-.558.558Z" transform="translate(-2.988 -5.794)" fill="#fff"/>
          <path id="Path_1469" data-name="Path 1469" d="M43.56,83.667s-.549.632-1.069.232-.39-.781-.3-.93a2.194,2.194,0,0,0,.5.679,1.162,1.162,0,0,0,.865.019Z" transform="translate(-2.961 -5.834)" fill="#fff"/>
          <path id="Path_1470" data-name="Path 1470" d="M53.76,317.36l5.773,9.9-.483,1.2-4.2-6.266Z" transform="translate(-8.28 -16.942)" fill="#272b44"/>
          <path id="Path_1471" data-name="Path 1471" d="M31.75,76.125a1.013,1.013,0,0,0,1.023,1.013,1.088,1.088,0,1,0-1.023-1.023Z" transform="translate(-2.232 -5.273)" fill="#d0d2d3"/>
          <path id="Path_1472" data-name="Path 1472" d="M32.32,76.053a.567.567,0,0,0,1.125,0,.521.521,0,0,0-.567-.493.53.53,0,0,0-.558.493Z" transform="translate(-2.273 -5.313)" fill="#fff"/>
          <path id="Path_1473" data-name="Path 1473" d="M33.389,76.725s-.549.632-1.069.232A.725.725,0,0,1,31.995,76a2.185,2.185,0,0,0,.5.669A1.209,1.209,0,0,0,33.389,76.725Z" transform="translate(-2.245 -5.344)" fill="#fff"/>
          <path id="Path_1474" data-name="Path 1474" d="M30.4,74.263a1.013,1.013,0,1,0,.293-.723A1.023,1.023,0,0,0,30.4,74.263Z" transform="translate(-2.138 -5.15)" fill="#d0d2d3"/>
          <path id="Path_1475" data-name="Path 1475" d="M31,74.182a.558.558,0,1,0,.558-.5.53.53,0,0,0-.558.5Z" transform="translate(-2.18 -5.181)" fill="#fff"/>
          <path id="Path_1476" data-name="Path 1476" d="M32.04,74.857s-.549.632-1.069.232-.39-.781-.3-.93a2.306,2.306,0,0,0,.5.679A1.162,1.162,0,0,0,32.04,74.857Z" transform="translate(-2.151 -5.215)" fill="#fff"/>
          <path id="Path_1477" data-name="Path 1477" d="M29.57,72.1a1.018,1.018,0,1,0,1-1.013A1.023,1.023,0,0,0,29.57,72.1Z" transform="translate(-2.079 -4.999)" fill="#d0d2d3"/>
          <path id="Path_1478" data-name="Path 1478" d="M30.14,72.018a.559.559,0,0,0,1.116,0,.558.558,0,0,0-1.116,0Z" transform="translate(-2.119 -5.025)" fill="#fff"/>
          <path id="Path_1479" data-name="Path 1479" d="M31.211,72.707s-.549.623-1.078.223a.707.707,0,0,1-.288-.93,2.194,2.194,0,0,0,.5.679,1.209,1.209,0,0,0,.865.028Z" transform="translate(-2.093 -5.063)" fill="#fff"/>
          <path id="Path_1480" data-name="Path 1480" d="M29.43,70a1.023,1.023,0,1,0,1.018-.925A1.023,1.023,0,0,0,29.43,70Z" transform="translate(-2.069 -4.857)" fill="#d0d2d3"/>
          <path id="Path_1481" data-name="Path 1481" d="M30,69.962a.567.567,0,1,0,.558-.5.549.549,0,0,0-.558.5Z" transform="translate(-2.109 -4.884)" fill="#fff"/>
          <path id="Path_1482" data-name="Path 1482" d="M31.072,70.6s-.549.632-1.069.232a.7.7,0,0,1-.288-.93,2.11,2.11,0,0,0,.493.669,1.209,1.209,0,0,0,.865.028Z" transform="translate(-2.084 -4.915)" fill="#fff"/>
          <path id="Path_1483" data-name="Path 1483" d="M30.42,68.112a.809.809,0,0,0,.809.8.8.8,0,0,0,.8-.809.809.809,0,1,0-1.608,0Z" transform="translate(-2.139 -4.726)" fill="#d0d2d3"/>
          <path id="Path_1484" data-name="Path 1484" d="M30.87,68.049a.465.465,0,1,0,.93,0,.428.428,0,0,0-.446-.4.418.418,0,0,0-.483.4Z" transform="translate(-2.171 -4.756)" fill="#fff"/>
          <path id="Path_1485" data-name="Path 1485" d="M31.723,68.586s-.437.5-.855.186A.576.576,0,0,1,30.635,68a1.738,1.738,0,0,0,.4.539A.93.93,0,0,0,31.723,68.586Z" transform="translate(-2.149 -4.781)" fill="#fff"/>
          <path id="Path_1486" data-name="Path 1486" d="M43.8,73.823a1,1,0,0,0,1.023,1.023A1.023,1.023,0,1,0,43.8,73.832Z" transform="translate(-3.08 -5.119)" fill="#d0d2d3"/>
          <path id="Path_1487" data-name="Path 1487" d="M44.37,73.743a.567.567,0,1,0,.562-.495A.567.567,0,0,0,44.37,73.743Z" transform="translate(-3.12 -5.15)" fill="#fff"/>
          <path id="Path_1488" data-name="Path 1488" d="M45.441,74.427s-.549.632-1.069.232a.716.716,0,0,1-.3-.93,2.185,2.185,0,0,0,.5.669,1.209,1.209,0,0,0,.865.028Z" transform="translate(-3.094 -5.184)" fill="#fff"/>
          <path id="Path_1489" data-name="Path 1489" d="M44.68,71.192a1.023,1.023,0,1,0,1.013-1.032,1.023,1.023,0,0,0-1.013,1.032Z" transform="translate(-3.142 -4.933)" fill="#d0d2d3"/>
          <path id="Path_1490" data-name="Path 1490" d="M45.26,71.1a.559.559,0,0,0,1.116,0,.558.558,0,0,0-1.116,0Z" transform="translate(-3.182 -4.96)" fill="#fff"/>
          <path id="Path_1491" data-name="Path 1491" d="M46.331,71.787s-.558.632-1.078.232a.707.707,0,0,1-.288-.93,2.185,2.185,0,0,0,.5.669A1.209,1.209,0,0,0,46.331,71.787Z" transform="translate(-3.157 -4.999)" fill="#fff"/>
          <path id="Path_1492" data-name="Path 1492" d="M44.23,78.14a1.023,1.023,0,1,0,1.018-.925A1.023,1.023,0,0,0,44.23,78.14Z" transform="translate(-3.11 -5.429)" fill="#d0d2d3"/>
          <path id="Path_1493" data-name="Path 1493" d="M44.8,78.052a.567.567,0,0,0,1.125,0,.549.549,0,0,0-.567-.5A.539.539,0,0,0,44.8,78.052Z" transform="translate(-3.15 -5.453)" fill="#fff"/>
          <path id="Path_1494" data-name="Path 1494" d="M45.89,78.737s-.549.623-1.069.232-.39-.79-.3-.93a2.185,2.185,0,0,0,.5.669,1.209,1.209,0,0,0,.865.028Z" transform="translate(-3.125 -5.487)" fill="#fff"/>
          <path id="Path_1495" data-name="Path 1495" d="M45.55,69.072a.809.809,0,0,0,.809.8.8.8,0,0,0,.8-.809.809.809,0,1,0-1.608,0Z" transform="translate(-3.203 -4.793)" fill="#d0d2d3"/>
          <path id="Path_1496" data-name="Path 1496" d="M46,68.969a.428.428,0,0,0,.446.4.437.437,0,0,0,.483-.4.428.428,0,0,0-.446-.4.418.418,0,0,0-.483.4Z" transform="translate(-3.234 -4.821)" fill="#fff"/>
          <path id="Path_1497" data-name="Path 1497" d="M46.853,69.546s-.437.5-.855.186a.567.567,0,0,1-.223-.772,1.664,1.664,0,0,0,.39.539A.93.93,0,0,0,46.853,69.546Z" transform="translate(-3.214 -4.849)" fill="#fff"/>
          <path id="Path_1498" data-name="Path 1498" d="M50.506,65.72a9.353,9.353,0,0,1,3.589,3.561c1.432,2.5,1.859,7.586,2.278,8.646s1.7,2.789.381,2.789h-1.32a10.6,10.6,0,0,1-4.007-.112,9.408,9.408,0,0,0-2.789-.493s1.692,2.157-.855,3.2-9.7,6.229-12.662,11.928-4.37,8.488-4.37,8.488,3.412-11.417,7.986-16.3,7.437-13.016,7.874-14.41S50.125,67.18,50.506,65.72Z" transform="translate(-2.162 -4.621)" fill="#fff"/>
          <path id="Path_1499" data-name="Path 1499" d="M31,79.923a1.032,1.032,0,0,0,1.023,1.013A1.014,1.014,0,1,0,31,79.923Z" transform="translate(-2.18 -5.549)" fill="#d0d2d3"/>
          <path id="Path_1500" data-name="Path 1500" d="M31.61,79.818a.558.558,0,1,0,.558-.558A.558.558,0,0,0,31.61,79.818Z" transform="translate(-2.223 -5.573)" fill="#fff"/>
          <path id="Path_1501" data-name="Path 1501" d="M32.681,80.5s-.549.632-1.078.232a.707.707,0,0,1-.288-.93,2.306,2.306,0,0,0,.5.679A1.162,1.162,0,0,0,32.681,80.5Z" transform="translate(-2.197 -5.611)" fill="#fff"/>
          <path id="Path_1502" data-name="Path 1502" d="M29.14,78.653a1.013,1.013,0,1,0,.293-.723A1.023,1.023,0,0,0,29.14,78.653Z" transform="translate(-2.049 -5.459)" fill="#d0d2d3"/>
          <path id="Path_1503" data-name="Path 1503" d="M29.71,78.572a.539.539,0,0,0,.567.5.5.5,0,1,0,0-1,.53.53,0,0,0-.567.5Z" transform="translate(-2.089 -5.489)" fill="#fff"/>
          <path id="Path_1504" data-name="Path 1504" d="M30.78,79.257s-.549.623-1.069.232-.39-.79-.3-.93a2.194,2.194,0,0,0,.5.679,1.209,1.209,0,0,0,.865.019Z" transform="translate(-2.062 -5.524)" fill="#fff"/>
          <path id="Path_1505" data-name="Path 1505" d="M27.84,76.923a1.023,1.023,0,1,0,2.036,0,1.018,1.018,0,0,0-2.036,0Z" transform="translate(-1.957 -5.338)" fill="#d0d2d3"/>
          <path id="Path_1506" data-name="Path 1506" d="M28.41,76.792a.539.539,0,0,0,.567.493.53.53,0,0,0,.558-.5.521.521,0,0,0-.567-.493.53.53,0,0,0-.558.5Z" transform="translate(-1.998 -5.364)" fill="#fff"/>
          <path id="Path_1507" data-name="Path 1507" d="M29.491,77.467s-.558.632-1.078.232a.707.707,0,0,1-.288-.93,2.278,2.278,0,0,0,.493.669,1.227,1.227,0,0,0,.874.028Z" transform="translate(-1.972 -5.398)" fill="#fff"/>
          <path id="Path_1508" data-name="Path 1508" d="M26.847,74.625a.593.593,0,1,0-.037,0Z" transform="translate(-1.885 -5.169)" fill="#d0d2d3"/>
          <path id="Path_1509" data-name="Path 1509" d="M27.43,74.548a.559.559,0,0,0,1.116,0,.558.558,0,1,0-1.116,0Z" transform="translate(-1.929 -5.203)" fill="#fff"/>
          <path id="Path_1510" data-name="Path 1510" d="M28.5,75.237s-.558.632-1.078.232a.707.707,0,0,1-.288-.93,2.185,2.185,0,0,0,.5.669A1.2,1.2,0,0,0,28.5,75.237Z" transform="translate(-1.903 -5.241)" fill="#fff"/>
          <path id="Path_1511" data-name="Path 1511" d="M46.48,74.069a.809.809,0,1,0,1.618,0,.827.827,0,0,0-.818-.809.8.8,0,0,0-.8.809Z" transform="translate(-3.268 -5.151)" fill="#d0d2d3"/>
          <path id="Path_1512" data-name="Path 1512" d="M46.93,73.965a.465.465,0,1,0,.465-.465A.465.465,0,0,0,46.93,73.965Z" transform="translate(-3.3 -5.168)" fill="#fff"/>
          <path id="Path_1513" data-name="Path 1513" d="M47.783,74.536s-.437.5-.846.186a.558.558,0,0,1-.232-.772,1.859,1.859,0,0,0,.39.539A.93.93,0,0,0,47.783,74.536Z" transform="translate(-3.279 -5.2)" fill="#fff"/>
          <path id="Path_1514" data-name="Path 1514" d="M45.61,76.139a.809.809,0,1,0,.809-.809.8.8,0,0,0-.809.809Z" transform="translate(-3.207 -5.297)" fill="#d0d2d3"/>
          <path id="Path_1515" data-name="Path 1515" d="M46.065,76.065a.418.418,0,0,0,.446.4.409.409,0,0,0,.418-.4.465.465,0,1,0-.93,0Z" transform="translate(-3.234 -5.316)" fill="#fff"/>
          <path id="Path_1516" data-name="Path 1516" d="M46.913,76.616s-.437.493-.846.177-.307-.623-.232-.762a1.729,1.729,0,0,0,.4.53.93.93,0,0,0,.679.056Z" transform="translate(-3.218 -5.346)" fill="#fff"/>
          <path id="Path_1517" data-name="Path 1517" d="M47.35,71.579a.809.809,0,1,0,.8-.809A.809.809,0,0,0,47.35,71.579Z" transform="translate(-3.329 -4.976)" fill="#d0d2d3"/>
          <path id="Path_1518" data-name="Path 1518" d="M47.8,71.514a.428.428,0,0,0,.446.39.418.418,0,0,0,.446-.4.465.465,0,0,0-.93,0Z" transform="translate(-3.358 -4.995)" fill="#fff"/>
          <path id="Path_1519" data-name="Path 1519" d="M48.653,72.056s-.437.493-.855.177a.567.567,0,0,1-.232-.762,1.738,1.738,0,0,0,.4.539A.93.93,0,0,0,48.653,72.056Z" transform="translate(-3.34 -5.025)" fill="#fff"/>
          <path id="Path_1520" data-name="Path 1520" d="M47.41,69.378a.809.809,0,1,0,.809-.818.827.827,0,0,0-.809.818Z" transform="translate(-3.334 -4.821)" fill="#d0d2d3"/>
          <path id="Path_1521" data-name="Path 1521" d="M47.866,69.3a.418.418,0,0,0,.446.4.428.428,0,0,0,.437-.4.465.465,0,1,0-.93,0Z" transform="translate(-3.362 -4.84)" fill="#fff"/>
          <path id="Path_1522" data-name="Path 1522" d="M48.713,69.846s-.437.5-.846.186a.558.558,0,0,1-.232-.772,1.859,1.859,0,0,0,.39.539A.93.93,0,0,0,48.713,69.846Z" transform="translate(-3.344 -4.87)" fill="#fff"/>
          <path id="Path_1523" data-name="Path 1523" d="M47.964,84.52S43.854,93,41.679,96.178s-6.294,8.813-10.989,9.111c0,0,3.031-7.847,4.648-10.227S44.459,84.892,47.964,84.52Z" transform="translate(-2.158 -5.943)" fill="#c8d1ee"/>
          <path id="Path_1524" data-name="Path 1524" d="M50.506,65.72a9.353,9.353,0,0,1,3.589,3.561c1.432,2.5,1.859,7.586,2.278,8.646s1.7,2.789.381,2.789h-1.32a10.6,10.6,0,0,1-4.007-.112,9.408,9.408,0,0,0-2.789-.493s1.692,2.157-.855,3.2-9.7,6.229-12.662,11.928-4.37,8.488-4.37,8.488,3.412-11.417,7.986-16.3,7.437-13.016,7.874-14.41S50.125,67.18,50.506,65.72Z" transform="translate(-2.162 -4.621)" fill="#fff"/>
          <path id="Path_1525" data-name="Path 1525" d="M26.989,73.365a34.007,34.007,0,0,0,1.432,3.272c.149,0,.558,2.789,1.1,3.068s1.348,3.719,1.348,3.719L29.583,89,28.727,101.5s-.855.8-1.934-.307c-1.4-1.441-1.8-3.886-2.724-13.769s-.93-10.227-.93-10.227S25.566,72.677,26.989,73.365Z" transform="translate(-1.627 -5.154)" fill="#c8d1ee"/>
          <path id="Path_1526" data-name="Path 1526" d="M26.443,79.833c-.474.381-.567,1.348,1.051,4.723.79,1.673.93,4.5,1.032,6.331-.3,3.375-.725,6.21-1.088,8.144a4.843,4.843,0,0,1,.707.26,18.594,18.594,0,0,0,1.915-6.1c.8-6.192-.409-14.773-.781-14.875-.679-.214-1.432-3.561-1.571-3.533s-1.116-1.395-1.116-1.395l-2.194.046L23.05,76.281l.186,2.12C24.6,79,26.155,79.247,26.443,79.833Z" transform="translate(-1.621 -5.16)" fill="#b4bcd6"/>
          <path id="Path_1527" data-name="Path 1527" d="M31.655,84.932c-1.125,0-2.25-.084-3.375-.1.177,1.274.809,7.345.7,8.209s-2.138,9.027-1.859,9.3,2.371,3.551,3.245,2.789l1.906-5.4s.353-9.408.149-11.677a12.867,12.867,0,0,0-.762-3.114Z" transform="translate(-1.905 -5.965)" fill="#fff"/>
          <path id="Path_1528" data-name="Path 1528" d="M30.187,87.919a.734.734,0,1,0,.511-1.051A.846.846,0,0,0,30.187,87.919Z" transform="translate(-2.12 -6.107)" fill="#dae2f2"/>
          <path id="Path_1529" data-name="Path 1529" d="M30.188,87.935a.641.641,0,1,0,.483-.846.688.688,0,0,0-.483.846Z" transform="translate(-2.121 -6.123)" fill="#b7c5db"/>
          <path id="Path_1530" data-name="Path 1530" d="M31.29,88.43s-.232-1.422-.558-1.162.242,1.227.4,1.2Z" transform="translate(-2.154 -6.134)" fill="#dae2f2"/>
          <path id="Path_1531" data-name="Path 1531" d="M5.775,101.69s-2.417-3.1-3.012-3.049a8.59,8.59,0,0,1-2.743-.93c-.307-.223-.4-.065-.4-.065A25,25,0,0,0,2.139,99.58c.651.335,2.882,1.859,2.789,2.3a3.272,3.272,0,0,0-.084.7l1.636.335Z" transform="translate(0.027 -6.862)" fill="#cea48d"/>
          <path id="Path_1532" data-name="Path 1532" d="M1.4,99.37c1.153,1.367.93,2.073,1.934,3.1s2.38,1.469,3.319,2.334,2.529,2.259,3.589,2.482l-3.356,7.279s11.677.3,16.66.149c12.607-.353,16.939-3.9,17.831-3.923,2.743,0,6.108,2.092,6.108,2.092l-1.06,4.872a1.422,1.422,0,0,1-1,1.209,16.872,16.872,0,0,1-1.692.363c-2.724.66-11.017,1.859-24.311,4.1-7.345,1.236-19.142-1.859-22.4-3.347-.883-1.7-.521-3.421-.679-4.8C-3.567,111.112-1.615,106.464,1.4,99.37Z" transform="translate(0.257 -6.987)" fill="#f0c7ad"/>
          <path id="Path_1533" data-name="Path 1533" d="M6.457,110.284s-2.836-4.444-2.919-4.946c0,0-5.2-.809-6.108-1.618a36.324,36.324,0,0,0,5.29,3.2,1.46,1.46,0,0,1,.772.623C4.059,108.434,5.286,110.191,6.457,110.284Z" transform="translate(0.181 -7.293)" fill="#cea48d"/>
          <path id="Path_1534" data-name="Path 1534" d="M-4.812,100.551a2.845,2.845,0,0,1,1.971-.167c1.432.223,8.609,2.055,8.609,2.055s-2.324-3.1-3.235-3.3S-.852,98.264-.861,97a8.268,8.268,0,0,1,4.546,1.032c1.711,1.218,3.226,1.859,4.063,2.454s2.3,1.748,2.3,3.087,1.934,6.238,2.045,7.67c.158,2.073,1.2,3.105,1.915,3.319-2.315-.1-4.89-.2-7.205-.2a40.569,40.569,0,0,1-2.947-5S-2,108.537-2.2,107.365c0,0-.3-.985.139-1.1,0,0,4.9,1,5.773.177C3.713,106.482-5.445,102.875-4.812,100.551Z" transform="translate(0.341 -6.82)" fill="#f0c7ad"/>
          <path id="Path_1535" data-name="Path 1535" d="M-1,102.731a33.9,33.9,0,0,1,4.1,1.692c.251.316,2.65,1.58,2.733.93a8.07,8.07,0,0,0-1.859-1.543C3.342,103.559-.544,102.22-1,102.731Z" transform="translate(0.07 -7.215)" fill="#cea48d"/>
          <path id="Path_1536" data-name="Path 1536" d="M13.11,114.828H8.741a52.729,52.729,0,0,1-3.031-4.5L10.5,106.87s1.729.418,1.952,4.983a6.182,6.182,0,0,0,.66,2.975Z" transform="translate(-0.402 -7.515)" fill="#cea48d"/>
          <path id="Path_1537" data-name="Path 1537" d="M6.949,115.144s-2.789-4.462-2.9-4.937c0,0-5.2-.818-6.108-1.618,0,0,3.589,2.436,4.7,2.426C2.644,111.016,5.368,115.023,6.949,115.144Z" transform="translate(0.145 -7.636)" fill="#cea48d"/>
          <path id="Path_1538" data-name="Path 1538" d="M27.1,121.28a30.68,30.68,0,0,1,6.257-1.181,21.559,21.559,0,0,0,2.854-.837c10.292-.521,11.249-.8,11.249-.8,0-1.422,1.859-12.681,4.36-17.8.1.056-.6.3-.5.307,4.565.2,4.5.251,8.693-.446.056,0,2.055-3.635,1.813-2.956-1.227,7.028-4.165,23.484-6.508,26.375-1.171,1.4-2.306,5.578-2.306,5.578-1.673,1.971-2.994-.186-10.227-1.116-4.035-.521-17.831-1.19-24.609-4.872C18.682,123.372,26.575,121.419,27.1,121.28Z" transform="translate(-1.278 -6.854)" fill="#f0c7ad"/>
          <path id="Path_1539" data-name="Path 1539" d="M47.565,120.05s-.5,2.873.27,3.533a55.838,55.838,0,0,1-7.819-.27c-1.859-.418-7.54-.4-10.292.725-1.952.8-10.124.995-10.124.995s18.4-4.453,22.452-3.979C42.926,121.156,47.193,120.747,47.565,120.05Z" transform="translate(-1.378 -8.441)" fill="#cea48d"/>
          <path id="Path_1540" data-name="Path 1540" d="M49.3,114.1a14.057,14.057,0,0,0-6.145-2.845,14.233,14.233,0,0,0-3.942-.66,64.781,64.781,0,0,0,4.546-7.345c1.274-2.38,2.259-4.918,3.616-7.252.428-.716.93-1.4,1.376-2.082l1.218-1.562a20.239,20.239,0,0,0,1.692-1.646,24.665,24.665,0,0,0,1.348,3.347c3.021,6.108,2.585,10.989,1.357,14.373a9.464,9.464,0,0,1-3.087,4.165C50.552,113.162,50,113.515,49.3,114.1Z" transform="translate(-2.757 -6.378)" fill="#272b44"/>
          <path id="Path_1541" data-name="Path 1541" d="M27.1,82.532a9,9,0,0,1,.985,3.654c1.4-1.274,2.073-1.683,3.775.372-.558-3.793-2.733-9.529-2.659-10.515.3-2.863.576-10.468,1.153-11.863,0,0-.995-.056-3.607,1.162s-4.983,5.253-5.913,5.9-2.975,1.246-1.915,2.045l1.051.79a10.645,10.645,0,0,0,3.338,2.231c1.525.456,3.282,2.7,3.282,2.7S24.83,79.445,27.1,82.532Z" transform="translate(-1.309 -4.513)" fill="#fff"/>
          <path id="Path_1542" data-name="Path 1542" d="M46.059,48.28l-.065.456h0l-.074.725a11.518,11.518,0,0,0,1.859-.855,3.718,3.718,0,0,0,.428-.567l.1-.158h0c-.242.381-.93.39-1.859.437Z" transform="translate(-3.229 -3.367)"/>
          <path id="Path_1543" data-name="Path 1543" d="M39.7,52.973a5.578,5.578,0,0,0,2.789-.344A23.53,23.53,0,0,0,45.1,50.4a7.261,7.261,0,0,0,2.213-2.566h0l-.1.158a3.719,3.719,0,0,1-.428.567,11.519,11.519,0,0,1-1.859.855c-.576.251-1.144.483-1.515.614a21.782,21.782,0,0,1-3.719.725h-.093a22.182,22.182,0,0,1-3.719-.762c-.372-.13-.93-.363-1.506-.623A12.569,12.569,0,0,1,32.51,48.5a3.3,3.3,0,0,1-.428-.576l-.1-.158V47.72a7.27,7.27,0,0,0,2.194,2.594A23.754,23.754,0,0,0,36.9,52.629a5.578,5.578,0,0,0,2.8.344Z" transform="translate(-2.249 -3.355)" fill="#c91e4f"/>
          <path id="Path_1544" data-name="Path 1544" d="M34.371,48.116a22.638,22.638,0,0,0,2.863-.437,10.656,10.656,0,0,1,2.492.446c.7.056,1.7-.558,2.5-.428a22.209,22.209,0,0,0,2.863.465H45.5c.93-.046,1.6-.056,1.859-.437h-.093a3.124,3.124,0,0,1-1.646-.186c-2.157-.595-3.384-1.525-4.1-1.283s-1.162.66-1.785.8c-.623-.149-1.144-.623-1.776-.809s-1.952.7-4.091,1.274a3.142,3.142,0,0,1-1.646.167H32.13c.242.39.93.409,1.859.465a3.142,3.142,0,0,0,.381-.037Z" transform="translate(-2.259 -3.25)" fill="#c91e4f"/>
          <path id="Path_1545" data-name="Path 1545" d="M32.252,47.985a3.3,3.3,0,0,0,.428.576,12.57,12.57,0,0,0,1.859.865l-.074-.725h0l-.046-.456a3.143,3.143,0,0,1-.418,0c-.93-.056-1.59-.074-1.859-.465v.046Z" transform="translate(-2.26 -3.36)"/>
          <path id="Path_1546" data-name="Path 1546" d="M45.193,48.728h0l.056-.456a22.209,22.209,0,0,1-2.863-.465,10.819,10.819,0,0,0-2.5.428c-.707.056-1.692-.576-2.492-.446a22.638,22.638,0,0,1-2.863.437l.046.456h0l.074.725c.576.26,1.134.493,1.506.623a22.182,22.182,0,0,0,3.719.762h.093a21.782,21.782,0,0,0,3.719-.725c.372-.13.93-.363,1.515-.614Z" transform="translate(-2.428 -3.359)" fill="#fff"/>
          <path id="_30_Business_Woman" data-name="30 Business Woman" d="M38.582,32.66s1.757,7.168-1.962,8.646c0,0,3.049.6,3.8,1.971,0,0-1.218-1.859-2.473-2.194C37.949,41.083,40.339,38.889,38.582,32.66Z" transform="translate(-2.575 -2.296)" fill="#c18c72"/>
          <g id="Brown" transform="translate(23.168 30.468)">
            <g id="Group_24" data-name="Group 24" transform="translate(18.507 0.499)" clip-path="url(#clip-path-2)">
              <path id="Path_1547" data-name="Path 1547" d="M44.822,36.093a6.926,6.926,0,0,1,3.551-4.351c2.175-1.013,4.881.288,5.773.883s2.51-.437,2.51-.437a.985.985,0,0,1-.5.865v-.065a.93.93,0,0,1-.734.232c-.27,0-.781-.121-.865.121,0,0-.084.288,0,.288a12.411,12.411,0,0,1-.651,1.664c-.669,1.1-3.979,2.175-5.2,1.441a8.691,8.691,0,0,0-3.719-.456h-.27a1.944,1.944,0,0,1,.1-.186Z" transform="translate(-44.819 -33.172)" fill="#453530"/>
              <path id="Path_1548" data-name="Path 1548" d="M45.757,34.942a1.6,1.6,0,0,1,.214-.279,4.649,4.649,0,0,1,.725-.641c.353-.223.883-.493,1.311-.716a13.657,13.657,0,0,1,3.542.139,19.979,19.979,0,0,0,2.166.316,1.488,1.488,0,0,0-.363.734,2.6,2.6,0,0,1-2.259,2.157,4.462,4.462,0,0,1-1.264.056l-1.487-.325a5.412,5.412,0,0,1-.79-.177,7.437,7.437,0,0,0-3.291.279A7.065,7.065,0,0,0,45.757,34.942Z" transform="translate(-44.787 -33.304)" fill="#efe3e7"/>
              <path id="Path_1549" data-name="Path 1549" d="M47.064,35.354a2.408,2.408,0,0,1-.214-1,4.648,4.648,0,0,0,0-.539,7.691,7.691,0,0,1,3.933-.549l.93.177a2.408,2.408,0,0,1-1.32,3.133,2.316,2.316,0,0,1-.409.13,16.734,16.734,0,0,1-2.268-.5,2.417,2.417,0,0,1-.651-.846Z" transform="translate(-44.969 -33.298)" fill="#42210b"/>
              <path id="Path_1550" data-name="Path 1550" d="M53.844,33.69a19.978,19.978,0,0,1-2.166-.316l-.93-.177a1.859,1.859,0,0,1,.242.363,1.729,1.729,0,0,1-.93,2.315,1.859,1.859,0,0,1-2.4-.874,1.144,1.144,0,0,1-.121-.381,4.649,4.649,0,0,1-.139-1.013c-.177.1-.446.251-.586.344a4.649,4.649,0,0,0-.725.641h0c2.343-3.793,6.145-1.766,8.516-1.515a3.812,3.812,0,0,0,2.157-.846,1.859,1.859,0,0,1-.5.865,2.436,2.436,0,0,1-1.59.576A6.007,6.007,0,0,1,53.844,33.69Z" transform="translate(-44.915 -33.232)"/>
              <path id="Path_1551" data-name="Path 1551" d="M46.992,34.809a1.255,1.255,0,0,1-.1-.437,2.314,2.314,0,0,1,0-.335,5.132,5.132,0,0,1,1.032-.567,1.534,1.534,0,0,0,1.255.744.428.428,0,0,1-.437.558,6.966,6.966,0,0,1-1.134-.065C47.234,34.641,47.057,34.7,46.992,34.809Z" transform="translate(-44.971 -33.32)" fill="#baa382"/>
            </g>
            <path id="Path_1552" data-name="Path 1552" d="M44.91,35.931a7.633,7.633,0,0,1,2.017-2.073,5.68,5.68,0,0,1,2.845-1.078,4.118,4.118,0,0,1,1.58.214,5.215,5.215,0,0,1,1.339.716c.8.521,1.45,1.171,2.473.874a2,2,0,0,1-.679.325,1.859,1.859,0,0,1-.809,0,7.019,7.019,0,0,1-1.376-.576,8.21,8.21,0,0,0-1.218-.558,4.137,4.137,0,0,0-1.264-.158,6.508,6.508,0,0,0-2.547.781A16.39,16.39,0,0,0,44.91,35.931Z" transform="translate(-26.326 -32.772)"/>
            <path id="Path_1553" data-name="Path 1553" d="M52.232,33.15a7.883,7.883,0,0,0,1.608.5,3.719,3.719,0,0,0,.846.046,1.1,1.1,0,0,0,.753-.344,1.106,1.106,0,0,1-.707.539,3.421,3.421,0,0,1-.93.167A7.856,7.856,0,0,1,52,33.94Z" transform="translate(-26.824 -32.799)"/>
            <path id="Path_1554" data-name="Path 1554" d="M48.645,35.234a13.88,13.88,0,0,1,4.007-.13,7.251,7.251,0,0,1,1.5.39,1.952,1.952,0,0,1,1.125.93,1.962,1.962,0,0,0-1.2-.772c-.474-.112-1.106-.167-1.627-.26-1.4-.056-1.766,0-4.4.056Z" transform="translate(-26.546 -32.93)"/>
            <g id="Group_25" data-name="Group 25" transform="translate(0 0.499)" clip-path="url(#clip-path-3)">
              <path id="Path_1555" data-name="Path 1555" d="M35.334,36.093a6.926,6.926,0,0,0-3.551-4.351c-2.185-1.013-4.881.288-5.773.883s-2.519-.437-2.519-.437a1.013,1.013,0,0,0,.511.865l-.037-.065a.93.93,0,0,0,.734.232c.27,0,.781-.121.865.121-.046,0,.084.288,0,.288a12.412,12.412,0,0,0,.651,1.664c.669,1.1,3.979,2.175,5.2,1.441a8.674,8.674,0,0,1,3.719-.456h.27a1.944,1.944,0,0,0-.065-.186Z" transform="translate(-24.819 -33.172)" fill="#453530"/>
              <path id="Path_1556" data-name="Path 1556" d="M34.587,34.942a1.6,1.6,0,0,0-.214-.279,4.648,4.648,0,0,0-.725-.641c-.353-.223-.93-.493-1.311-.716a13.657,13.657,0,0,0-3.542.139,19.813,19.813,0,0,1-2.175.316,1.348,1.348,0,0,1,.363.734,2.631,2.631,0,0,0,2.268,2.157,4.462,4.462,0,0,0,1.264.056L32,36.383a5.064,5.064,0,0,0,.781-.177,7.437,7.437,0,0,1,3.3.279,7.066,7.066,0,0,1-1.5-1.543Z" transform="translate(-25.04 -33.304)" fill="#efe3e7"/>
              <path id="Path_1557" data-name="Path 1557" d="M33.635,35.354a2.408,2.408,0,0,0,.214-1,4.65,4.65,0,0,1,0-.539,7.711,7.711,0,0,0-3.933-.549l-.93.177a2.408,2.408,0,0,0,1.32,3.133,2.091,2.091,0,0,0,.409.13,16.26,16.26,0,0,0,2.259-.5A2.343,2.343,0,0,0,33.635,35.354Z" transform="translate(-25.194 -33.298)" fill="#42210b"/>
              <path id="Path_1558" data-name="Path 1558" d="M26.4,33.69a19.811,19.811,0,0,0,2.213-.316l.93-.177a1.859,1.859,0,0,0-.242.363,1.729,1.729,0,0,0,.93,2.315A1.776,1.776,0,0,0,32.7,34.619a4.648,4.648,0,0,0,.139-1.013c.177.1.446.251.586.344a4.648,4.648,0,0,1,.725.641h0c-2.343-3.793-6.145-1.766-8.516-1.515a3.849,3.849,0,0,1-2.166-.846,1.934,1.934,0,0,0,.511.865,2.436,2.436,0,0,0,1.59.576,5.866,5.866,0,0,0,.827.019Z" transform="translate(-24.818 -33.232)"/>
              <path id="Path_1559" data-name="Path 1559" d="M33.932,34.809a1.255,1.255,0,0,0,.1-.437,2.315,2.315,0,0,0,0-.335,5.132,5.132,0,0,0-1.041-.567,1.534,1.534,0,0,1-1.255.744.428.428,0,0,0,.437.558,6.965,6.965,0,0,0,1.134-.065C33.681,34.641,33.84,34.7,33.932,34.809Z" transform="translate(-25.398 -33.32)" fill="#baa382"/>
            </g>
            <path id="Path_1560" data-name="Path 1560" d="M35.376,35.931a7.633,7.633,0,0,0-2-2.073,5.68,5.68,0,0,0-2.854-1.078,4.174,4.174,0,0,0-1.58.214,5.318,5.318,0,0,0-1.329.716c-.809.521-1.45,1.171-2.473.874a2,2,0,0,0,.679.325,1.785,1.785,0,0,0,.8,0A6.88,6.88,0,0,0,28,34.332a8.21,8.21,0,0,1,1.218-.558,4.109,4.109,0,0,1,1.264-.158,6.508,6.508,0,0,1,2.547.781A16.391,16.391,0,0,1,35.376,35.931Z" transform="translate(-24.935 -32.772)"/>
            <path id="Path_1561" data-name="Path 1561" d="M28.567,33.15a7.883,7.883,0,0,1-1.608.5,3.719,3.719,0,0,1-.846.046,1.1,1.1,0,0,1-.753-.344,1.106,1.106,0,0,0,.707.539,3.356,3.356,0,0,0,.93.167,7.856,7.856,0,0,0,1.859-.121Z" transform="translate(-24.951 -32.799)"/>
            <path id="Path_1562" data-name="Path 1562" d="M31.863,35.234a13.806,13.806,0,0,0-3.951-.13,7.252,7.252,0,0,0-1.5.39,1.952,1.952,0,0,0-1.125.93,1.962,1.962,0,0,1,1.2-.772c.474-.112,1.1-.167,1.627-.26,1.4-.056,1.766,0,4.4.056Z" transform="translate(-24.946 -32.93)"/>
          </g>
          <path id="Path_1563" data-name="Path 1563" d="M36.393,29.42c-2.361-.716-2.157-.66-3.942-1.218s-6.285-1.329-6.861,2.008A5.885,5.885,0,0,1,28.379,28.6C31.81,28.137,34.264,30.889,36.393,29.42Z" transform="translate(-1.799 -1.948)" fill="#42261e"/>
          <path id="Path_1564" data-name="Path 1564" d="M52.157,28.974a5.931,5.931,0,0,1,2.482,2.008c-.056-3.384-4.648-3.31-6.508-3.031s-4.081.586-4.081.586C45.956,30.312,48.81,27.988,52.157,28.974Z" transform="translate(-3.097 -1.957)" fill="#42261e"/>
          <g id="_30_Business_Woman-2" data-name="30 Business Woman" transform="translate(12.486 5.379)">
            <path id="Path_1565" data-name="Path 1565" d="M39.564,11.957a28.114,28.114,0,0,1,4.648,1.227,3.412,3.412,0,0,1,.93.511c9.037,3.533,9.371,10.626,9.12,15.647h0a49.839,49.839,0,0,1,0,8.06,10.644,10.644,0,0,1-.372,1.664h0v.056h.074a.344.344,0,0,1-.112.13c-.121.4-.26.818-.437,1.283h0A33.524,33.524,0,0,1,43.339,53.83a4.647,4.647,0,0,1-.465.214,6.053,6.053,0,0,1-.93.363c0,.093,0,.567,0,.6a18.361,18.361,0,0,0,2.241,8.032,11.241,11.241,0,0,0,.66.967c1.627,1.125,6.508,2.073,9.436,2.473a6.247,6.247,0,0,1,1.46-.641c1.348-2.25,1.46-6.034,2.045-11.2.707-6.182,4.648-10.1,4.648-14.317s4.23-1.655,3.524-5.727-4.8-15.21-8.888-19.133S40.41,5.1,36.6,6.574c-1.934.762-4.732,5.178-7.028,9.3a17.906,17.906,0,0,1,5.355-2.789,28.82,28.82,0,0,1,4.639-1.125Z" transform="translate(-14.565 -5.826)" fill="#321908"/>
            <path id="Path_1566" data-name="Path 1566" d="M34.09,66.1v.279h0A1.4,1.4,0,0,0,34.09,66.1Z" transform="translate(-14.883 -10.027)" fill="#321908"/>
            <path id="Path_1567" data-name="Path 1567" d="M16.313,53.506c.409-.865,1.3-1.636,1.58,2.557.428,6.331,3.245,7.382,1.859,9.492a14.419,14.419,0,0,1-1.859,2.064c.446-.093.93-.186,1.339-.26l.465-.074L21.63,67l.623-.093c.381-.056.149.641.186,1.032.614,0,1.329-.084,2.092-.149,2.891-.483,6.842-1.4,8.274-2.417h0a2.426,2.426,0,0,0,.325-.437,17.766,17.766,0,0,0,2.594-8.693c0-.186,0-.363,0-.539a6.685,6.685,0,0,1-1.218-.5A33.775,33.775,0,0,1,24.54,42.191a17.348,17.348,0,0,1-.707-2.092,10.226,10.226,0,0,1-.279-1.3,50.89,50.89,0,0,1,.084-8.553,23.475,23.475,0,0,1,.121-4.165c-1.813,1.6-3.979,2.529-5.745,6.945-2.1,5.262-3.5,9.78-3.217,12.188C15.03,47.193,16.2,51.693,16.313,53.506Z" transform="translate(-13.523 -7.213)" fill="#321908"/>
            <path id="Path_1568" data-name="Path 1568" d="M16.3,56.333c.1-.084.13-.353.112-.753C16.2,56.017,16.116,56.482,16.3,56.333Z" transform="translate(-13.625 -9.287)" fill="#321908"/>
            <path id="Path_1569" data-name="Path 1569" d="M33.414,9.117a5.383,5.383,0,0,0-6.508,1.329c-3.077,3.245-3.914,6.935-3.365,9.734s2.687,11.807.567,13.425-1.264,10.329.985,11.946c0,0,0-7.958.846-11.946s1.413-6.926,1.859-9.139,1.134-6.35,3.951-6.935S33.414,9.117,33.414,9.117Z" transform="translate(-14.095 -5.98)" fill="#321908"/>
            <path id="Path_1570" data-name="Path 1570" d="M34.813,8.956s-.139,6.935.558,7.084,10.3-1.478,13.118,2.064c0,0,.985-4.574-2.259-6.192s-7.437-2.789-8.6-2.51,2.259-1.618,4.23-1.181-1.413-2.789-4.648-1.766S34.813,8.956,34.813,8.956Z" transform="translate(-14.927 -5.819)" fill="#321908"/>
            <path id="Path_1571" data-name="Path 1571" d="M31.966,16.552s1.413-7.67-4.37-7.233-4.8,8.7-4.937,10.626S22.52,31.594,19.7,32.961s-1.859,8.7-3.384,8.256-3.533,6.052-.149,6.935a4.7,4.7,0,0,0,2.966-3.979c.139-2.956,2.4-8.553,3.524-9.594s2.519-3.867,1.59-8.888-1.023-14.447,2.222-14.308S31.4,10.8,31.966,16.552Z" transform="translate(-13.493 -6.033)" fill="#42210b"/>
            <path id="Path_1572" data-name="Path 1572" d="M37.85,9.582s9.446.595,10.292,3.393,1.413,6.238.567,9.027.437,15.014,5.783,15.014,9.018,3.719,10.71,0c0,0-5.076.595-5.922-1.181s-5.634-2.947-5.773-6.34-.112-15.256-6.629-19.031C41.513,7.369,37.85,9.582,37.85,9.582Z" transform="translate(-15.147 -5.999)" fill="#42210b"/>
            <path id="Path_1573" data-name="Path 1573" d="M53.669,19.71s-.6,11,5.578,12.03c4.565.753,9.446,3.245,9.446,5.011,0,0-.418-4.862-4.23-6.508A20.927,20.927,0,0,1,53.669,19.71Z" transform="translate(-16.258 -6.765)" fill="#42210b"/>
            <path id="Path_1574" data-name="Path 1574" d="M53.32,15.83s2.789,6.638,4.8,7.67,8.032,4.723,8.032,5.755c0,0,1.859-1.776-2.789-5.02S56.137,20.841,53.32,15.83Z" transform="translate(-16.235 -6.492)" fill="#42210b"/>
            <path id="Path_1575" data-name="Path 1575" d="M58.166,50.1a21.829,21.829,0,0,0,.995,8.274c1.4,4.137.846,8.265-.995,9.594,0,0,3.812-2.361,3.812-4.128a11.667,11.667,0,0,0-.846-5.169C60.146,55.585,58.008,52.461,58.166,50.1Z" transform="translate(-16.572 -8.902)" fill="#42210b"/>
            <path id="Path_1576" data-name="Path 1576" d="M58.33,42.17v7.819s.7-3.393,1.971-1.478,3.384,5.755,3.384,5.755S60.3,47.181,62.56,46.149,58.33,42.17,58.33,42.17Z" transform="translate(-16.587 -8.344)" fill="#321908"/>
            <path id="Path_1577" data-name="Path 1577" d="M47.41,9.64s5.355,2.789,6.508,5.309,8.6,9.3,9.734,8.553c0,0-8.042-6.192-8.46-7.958S51.073,9.789,47.41,9.64Z" transform="translate(-15.819 -6.057)" fill="#321908"/>
            <path id="Path_1578" data-name="Path 1578" d="M39.67,5.985S43.761,4.8,48.837,8.2s8.739,7.67,10.859,7.967S63.637,22.8,63.637,22.8,56.2,18.675,54.9,16.016s-10.571-7.53-11.565-7.53S42.487,6.273,39.67,5.985Z" transform="translate(-15.275 -5.786)" fill="#42210b"/>
            <path id="Path_1579" data-name="Path 1579" d="M22.461,19.158c-.084-.586-1.692,8.851-4.23,9.148s-3.524,8.367-3.951,10.766-1.4,6.787-.279,6.638c0,0,1.125-3.393,2.259-3.84s.846-6.34,2.389-7.372S24.19,30.807,22.461,19.158Z" transform="translate(-13.433 -6.725)" fill="#42210b"/>
            <path id="Path_1580" data-name="Path 1580" d="M50.854,15.67s1.134,5.457-.139,9,1.413,9.585,1.413,9.585-1.413-5.9-.139-8.256c0,0,.846,6.638,3.663,7.819A21.29,21.29,0,0,1,54.1,22.485C55.084,16.4,50.854,15.67,50.854,15.67Z" transform="translate(-16.028 -6.481)" fill="#42210b"/>
            <path id="Path_1581" data-name="Path 1581" d="M55.44,39.11s5.5,6.34,10.719,5.578c0,0-5.216-3.1-5.355-4.723s5.783,1.646,6.313-.707c0,0-7.614-.734-9.167-2.789,0,0-.846,2.361.995,2.956S59.531,42.057,55.44,39.11Z" transform="translate(-16.384 -7.944)" fill="#42210b"/>
            <path id="Path_1582" data-name="Path 1582" d="M68.222,41.69s-5.076,1.915,3.1,13.127c0,0-2.789-6.043-2.677-8.367A18.7,18.7,0,0,0,68.222,41.69Z" transform="translate(-17.173 -8.311)" fill="#42210b"/>
            <path id="Path_1583" data-name="Path 1583" d="M63.682,45.626S57.9,48.127,69.6,61.115c0,0-3.719-9.594-3.245-12.839s-.139-3.1-.139-3.1S63.682,46.063,63.682,45.626Z" transform="translate(-16.863 -8.556)" fill="#42210b"/>
            <path id="Path_1584" data-name="Path 1584" d="M58.559,50.89s-.707,2.361,1.859,6.638,3.105,8.562-6.768,12.839c0,0,9.873-1.032,10.3-6.508S58.28,55.167,58.559,50.89Z" transform="translate(-16.258 -8.958)" fill="#42210b"/>
            <path id="Path_1585" data-name="Path 1585" d="M57.582,54.22A35.7,35.7,0,0,0,57.3,61.3c.279,3.245-.985,7.67-3.524,7.67,0,0,5.634.446,5.773-5.16a21.057,21.057,0,0,0-1.971-9.594Z" transform="translate(-16.267 -9.192)" fill="#42210b"/>
            <path id="Path_1586" data-name="Path 1586" d="M19.78,45s-1.859,5.02-3.812,6.2-2.538,7.224-2.538,7.224,2.4-5.011,3.524-4.277.567,5.16-1.125,6.508S13.291,69.8,17.242,69.8c0,0-1.692-1.915-.288-3.719s3.719-2.789,3.384-8.116S18.794,49.89,19.78,45Z" transform="translate(-13.43 -8.543)" fill="#764c24"/>
            <path id="Path_1587" data-name="Path 1587" d="M22.134,38.72s-3.1,5.838-2.538,10.4,1.692,11.147,1.116,13.1S19.3,68.86,16.9,69.455a13.638,13.638,0,0,0,6.908-1.2c3.524-1.664,4.8-.149,4.8-2.715s-3.524-10.1-3.524-12.356-2.12-5.876-2.12-7.53S21.716,39.631,22.134,38.72Z" transform="translate(-13.674 -8.102)" fill="#42210b"/>
            <path id="Path_1588" data-name="Path 1588" d="M56.458,40.1a12.3,12.3,0,0,0-2.417,10.134c1.209,6.071,4.834,11.881,2.417,13.527,0,0,3.142-2.408,1.571-7.707S54.041,45.66,56.458,40.1Z" transform="translate(-16.268 -8.199)" fill="#42210b"/>
            <path id="Path_1589" data-name="Path 1589" d="M56.1,41s-1.934,4.89,1.571,13.48.725,12.514.725,12.514a83.3,83.3,0,0,0,.363-13.434C58.4,45.593,57.9,44.542,56.1,41Z" transform="translate(-16.393 -8.262)" fill="#42210b"/>
            <path id="Path_1590" data-name="Path 1590" d="M54.042,21.61s-1.915,11.379,5.2,14.41,8.813-.1,8.813-.1a14.485,14.485,0,0,0-6.275-3.412c-3.719-.883-6.768-3.031-7.977-10.608" transform="translate(-16.269 -6.899)" fill="#42210b"/>
            <path id="Path_1591" data-name="Path 1591" d="M35.35,17.027s5.076-5.69,8.1-4.174C43.448,12.852,37.646,9.45,35.35,17.027Z" transform="translate(-14.971 -6.229)" fill="#764c24"/>
            <path id="Path_1592" data-name="Path 1592" d="M22.038,51.1s6.043,13.164,2.417,15.879S19.5,70.465,19.5,70.465c4.37-1.646,3.217-1.181,6.406-2.454,1.934-.781,2.175-.13.93-5.42S25.06,52.132,22.038,51.1Z" transform="translate(-13.857 -8.972)" fill="#764c24"/>
            <path id="Path_1593" data-name="Path 1593" d="M22.356,23.79s.483,8.469-2.175,9.222-5.076,6.322-4.714,9.566c0,0,2.3-6.573,4.714-6.945S24.532,27.955,22.356,23.79Z" transform="translate(-13.571 -7.052)" fill="#764c24"/>
            <path id="Path_1594" data-name="Path 1594" d="M50,13.73s3.142,5.578,1.209,9.222,2.445,14.531,10.18,12.411c0,0-7.252-1.859-7.252-8.367S53.412,17.523,50,13.73Z" transform="translate(-16.001 -6.345)" fill="#764c24"/>
            <path id="Path_1595" data-name="Path 1595" d="M59,44.18s-.363,5.578,2.3,9.6,5.8,8.823,3.021,12.253c0,0,3.5-2.017,2.175-7.075s-3.951-6.768-5.318-8.841A22.424,22.424,0,0,1,59,44.18Z" transform="translate(-16.633 -8.486)" fill="#764c24"/>
            <path id="Path_1596" data-name="Path 1596" d="M55.75,39.42s10.738,9.548,12.923,4.044a2.789,2.789,0,0,0-1.534-4S65.177,42.832,55.75,39.42Z" transform="translate(-16.406 -8.151)" fill="#764c24"/>
            <path id="Path_1597" data-name="Path 1597" d="M58.35,47.3s.121,5.578,2.538,8.088,3.384,8.469.93,10.115c0,0,4.472-2.789,2.659-6.7S58.229,51.474,58.35,47.3Z" transform="translate(-16.588 -8.705)" fill="#42210b"/>
          </g>
        </g>
      </g>
    </g>
  </g>
</svg>
