<svg xmlns="http://www.w3.org/2000/svg" xmlns:xlink="http://www.w3.org/1999/xlink" width="509" height="971" viewBox="0 0 509 971">
  <defs>
    <filter id="Body" x="0" y="0" width="509" height="971" filterUnits="userSpaceOnUse">
      <feOffset dy="20" input="SourceAlpha"/>
      <feGaussianBlur stdDeviation="19" result="blur"/>
      <feFlood flood-opacity="0.161"/>
      <feComposite operator="in" in2="blur"/>
      <feComposite in="SourceGraphic"/>
    </filter>
  </defs>
  <g id="Group_1977" data-name="Group 1977" transform="translate(-879 -3707)">
    <g id="Group_1834" data-name="Group 1834" transform="translate(-2808 -15311)">
      <g transform="matrix(1, 0, 0, 1, 3687, 19018)" filter="url(#Body)">
        <rect id="Body-2" data-name="Body" width="395" height="857" rx="37" transform="translate(57 37)" fill="#fff"/>
      </g>
      <g id="Screen" transform="translate(5744 19066)" fill="#fafafa">
        <path d="M -1640.999755859375 836.5 L -1963.999877929688 836.5 C -1967.440063476562 836.5 -1970.779541015625 835.8258666992188 -1973.925659179688 834.4964599609375 C -1976.959716796875 833.2138061523438 -1979.686889648438 831.3751220703125 -1982.031616210938 829.0314331054688 C -1984.373413085938 826.6889038085938 -1986.212036132812 823.9615478515625 -1987.496459960938 820.9256591796875 C -1988.825927734375 817.78125 -1989.5 814.4417724609375 -1989.5 811 L -1989.5 26.0001106262207 C -1989.5 22.56011199951172 -1988.825927734375 19.22055625915527 -1987.496337890625 16.07433319091797 C -1986.2119140625 13.03744411468506 -1984.373291015625 10.31022262573242 -1982.031494140625 7.968444347381592 C -1979.687866210938 5.626777648925781 -1976.960571289062 3.788000106811523 -1973.925415039062 2.50344443321228 C -1970.780517578125 1.174111127853394 -1967.441040039062 0.5 -1963.999877929688 0.5 L -1913.50048828125 0.5 L -1913.50048828125 1.215000033378601 C -1913.50048828125 1.253999948501587 -1913.500366210938 1.294111132621765 -1913.499267578125 1.333111166954041 L -1912.49951171875 1.318555593490601 L -1912.49951171875 0.5225440263748169 C -1909.70068359375 0.7761281728744507 -1907.500122070312 3.136082172393799 -1907.500122070312 6.000333309173584 L -1907.500122070312 7.215333461761475 L -1907.500122070312 10.92333316802979 C -1907.500122070312 13.68722248077393 -1906.958129882812 16.37199974060059 -1905.889282226562 18.90288925170898 C -1904.855224609375 21.34566688537598 -1903.377075195312 23.53800010681152 -1901.495727539062 25.4194450378418 C -1899.613647460938 27.30222129821777 -1897.421630859375 28.78011131286621 -1894.97998046875 29.81222152709961 C -1892.44970703125 30.88166618347168 -1889.764892578125 31.42399978637695 -1887.000366210938 31.42399978637695 L -1718.000122070312 31.42399978637695 C -1715.233520507812 31.42399978637695 -1712.548828125 30.88166618347168 -1710.020385742188 29.81211090087891 C -1707.57763671875 28.77899932861328 -1705.385620117188 27.30111122131348 -1703.504638671875 25.41933250427246 C -1701.623413085938 23.53888893127441 -1700.145263671875 21.34655570983887 -1699.111328125 18.90322303771973 C -1698.042358398438 16.37599945068359 -1697.500366210938 13.69122219085693 -1697.500366210938 10.92333316802979 L -1697.500366210938 7.215333461761475 L -1697.500366210938 6.000333309173584 C -1697.500366210938 2.997432708740234 -1695.081787109375 0.5488568544387817 -1692.090087890625 0.5007287859916687 L -1692 0.5008888840675354 L -1640.999755859375 0.5 C -1637.557495117188 0.5 -1634.21826171875 1.174111127853394 -1631.074951171875 2.503555536270142 C -1628.036010742188 3.789111137390137 -1625.308837890625 5.627777576446533 -1622.969116210938 7.96833324432373 C -1620.625732421875 10.31177806854248 -1618.786987304688 13.03899955749512 -1617.504150390625 16.07433319091797 C -1616.174560546875 19.22055625915527 -1615.50048828125 22.56011199951172 -1615.50048828125 26.0001106262207 L -1615.50048828125 811 C -1615.50048828125 814.4417724609375 -1616.174560546875 817.78125 -1617.504150390625 820.92578125 C -1618.786743164062 823.9609985351562 -1620.62548828125 826.6881103515625 -1622.968994140625 829.0315551757812 C -1625.30908203125 831.3733520507812 -1628.0361328125 833.2119750976562 -1631.074829101562 834.4964599609375 C -1634.21826171875 835.8258666992188 -1637.557495117188 836.5 -1640.999755859375 836.5 Z" stroke="none"/>
        <path d="M -1640.999755859375 836 C -1637.624755859375 836 -1634.35107421875 835.3392333984375 -1631.269409179688 834.035888671875 C -1628.29052734375 832.7766723632812 -1625.616943359375 830.97412109375 -1623.322631835938 828.677978515625 C -1621.024780273438 826.3803100585938 -1619.222290039062 823.7066650390625 -1617.964599609375 820.7310180664062 C -1616.661376953125 817.6485595703125 -1616.00048828125 814.3745727539062 -1616.00048828125 811 L -1616.00048828125 26.0001106262207 C -1616.00048828125 22.62733268737793 -1616.661376953125 19.35322189331055 -1617.964721679688 16.26899909973145 C -1619.222412109375 13.29322242736816 -1621.025024414062 10.61955547332764 -1623.322631835938 8.32188892364502 C -1625.61669921875 6.026999950408936 -1628.29052734375 4.224444389343262 -1631.269653320312 2.96399998664856 C -1634.35107421875 1.660777807235718 -1637.624755859375 1 -1640.999755859375 1 L -1692 1.00088894367218 L -1692.090209960938 1.000808715820312 C -1694.806030273438 1.049082398414612 -1697.000366210938 3.273234605789185 -1697.000366210938 6.000333309173584 L -1697.000366210938 7.215333461761475 L -1697.000366210938 10.92333316802979 C -1697.000366210938 13.75855541229248 -1697.5556640625 16.50888824462891 -1698.65087890625 19.09799957275391 C -1699.7099609375 21.60099983215332 -1701.224243164062 23.84677696228027 -1703.151000976562 25.77277755737305 C -1705.07763671875 27.70033264160156 -1707.3232421875 29.21433258056641 -1709.825561523438 30.27266693115234 C -1712.416015625 31.36844444274902 -1715.166381835938 31.92399978637695 -1718.000122070312 31.92399978637695 L -1887.000366210938 31.92399978637695 C -1889.832153320312 31.92399978637695 -1892.58251953125 31.36844444274902 -1895.174682617188 30.27277755737305 C -1897.675903320312 29.21544456481934 -1899.921630859375 27.70144462585449 -1901.849243164062 25.77300071716309 C -1903.7763671875 23.84577751159668 -1905.29052734375 21.60011100769043 -1906.349853515625 19.09744453430176 C -1907.444946289062 16.50466728210449 -1908.000122070312 13.75444412231445 -1908.000122070312 10.92333316802979 L -1908.000122070312 7.215333461761475 L -1908.000122070312 6.000333309173584 C -1908.000122070312 3.585576057434082 -1909.720336914062 1.565138220787048 -1911.99951171875 1.100490927696228 L -1911.99951171875 1.318555593490601 L -1913.9990234375 1.347777724266052 C -1914.000366210938 1.303888916969299 -1914.00048828125 1.258888840675354 -1914.00048828125 1.215000033378601 L -1914.00048828125 1 L -1963.999877929688 1 C -1967.373779296875 1 -1970.647827148438 1.660777807235718 -1973.730590820312 2.963888883590698 C -1976.706298828125 4.223333358764648 -1979.380249023438 6.026111125946045 -1981.677856445312 8.321999549865723 C -1983.973876953125 10.61800003051758 -1985.776733398438 13.29188919067383 -1987.035766601562 16.26888847351074 C -1988.339111328125 19.35322189331055 -1989 22.62733268737793 -1989 26.0001106262207 L -1989 811 C -1989 814.3745727539062 -1988.339111328125 817.6485595703125 -1987.035888671875 820.7307739257812 C -1985.776733398438 823.7072143554688 -1983.973876953125 826.381103515625 -1981.677978515625 828.6779174804688 C -1979.379272460938 830.9757690429688 -1976.705322265625 832.7784423828125 -1973.731079101562 834.035888671875 C -1970.646850585938 835.3392333984375 -1967.372802734375 836 -1963.999877929688 836 L -1640.999755859375 836 M -1640.999755859375 837 L -1963.999877929688 837 C -1967.508056640625 837 -1970.912719726562 836.3124389648438 -1974.120361328125 834.9569702148438 C -1977.213623046875 833.6493530273438 -1979.99462890625 831.7745361328125 -1982.385009765625 829.3851318359375 C -1984.772705078125 826.99658203125 -1986.6474609375 824.215576171875 -1987.956909179688 821.1204223632812 C -1989.312377929688 817.9146728515625 -1990 814.5089721679688 -1990 811 L -1990 26.0001106262207 C -1990 22.49188804626465 -1989.312377929688 19.08722305297852 -1987.956909179688 15.87966632843018 C -1986.6474609375 12.78366661071777 -1984.772705078125 10.00255584716797 -1982.385009765625 7.614888668060303 C -1979.99462890625 5.226333141326904 -1977.214599609375 3.352555513381958 -1974.120361328125 2.042999982833862 C -1970.913696289062 0.6875555515289307 -1967.508056640625 0 -1963.999877929688 0 L -1913.00048828125 0 L -1913.00048828125 1.215000033378601 C -1913.00048828125 1.249222278594971 -1913.00048828125 1.284333348274231 -1912.99951171875 1.318555593490601 L -1912.99951171875 0 C -1909.691162109375 0 -1907.000122070312 2.691888809204102 -1907.000122070312 6.000333309173584 L -1907.000122070312 7.215333461761475 L -1907.000122070312 10.92333316802979 C -1907.000122070312 13.62155532836914 -1906.470947265625 16.24055480957031 -1905.4287109375 18.70833396911621 C -1904.419799804688 21.09155464172363 -1902.977172851562 23.23077774047852 -1901.14208984375 25.06588935852051 C -1899.306030273438 26.90277862548828 -1897.167602539062 28.34466743469238 -1894.785400390625 29.3516674041748 C -1892.317504882812 30.39477729797363 -1889.698486328125 30.92399978637695 -1887.000366210938 30.92399978637695 L -1718.000122070312 30.92399978637695 C -1715.301025390625 30.92399978637695 -1712.68115234375 30.39477729797363 -1710.215087890625 29.3516674041748 C -1707.831909179688 28.34366607666016 -1705.693481445312 26.90188980102539 -1703.8583984375 25.06588935852051 C -1702.023315429688 23.23166656494141 -1700.580688476562 21.09244537353516 -1699.57177734375 18.70833396911621 C -1698.528686523438 16.24233245849609 -1698.000366210938 13.62333297729492 -1698.000366210938 10.92333316802979 L -1698.000366210938 7.215333461761475 L -1698.000366210938 6.000333309173584 C -1698.000366210938 2.686555624008179 -1695.313842773438 0 -1692 0 L -1692 0.0008888888987712562 L -1640.999755859375 0 C -1637.48974609375 0 -1634.0849609375 0.6875555515289307 -1630.880126953125 2.042999982833862 C -1627.780517578125 3.354333400726318 -1625.00048828125 5.229000091552734 -1622.615478515625 7.614888668060303 C -1620.227783203125 10.00255584716797 -1618.352172851562 12.78366661071777 -1617.043579101562 15.87966632843018 C -1615.688110351562 19.08722305297852 -1615.00048828125 22.49188804626465 -1615.00048828125 26.0001106262207 L -1615.00048828125 811 C -1615.00048828125 814.5089721679688 -1615.688110351562 817.9146728515625 -1617.043579101562 821.1204223632812 C -1618.351196289062 824.2146606445312 -1620.225952148438 826.9956665039062 -1622.615478515625 829.3851318359375 C -1625.001342773438 831.7728881835938 -1627.782348632812 833.6475830078125 -1630.880126953125 834.9569702148438 C -1634.0849609375 836.3124389648438 -1637.48974609375 837 -1640.999755859375 837 Z" stroke="none" fill="#707070"/>
      </g>
    </g>
    <g id="Group_1115" data-name="Group 1115" transform="translate(946 3778)">
      <g id="account_circle-24px" transform="translate(61.117 768)">
        <path id="Path_1789" data-name="Path 1789" d="M12,2A10,10,0,1,0,22,12,10,10,0,0,0,12,2Zm0,3A3,3,0,1,1,9,8,3,3,0,0,1,12,5Zm0,14.2a7.2,7.2,0,0,1-6-3.22c.03-1.99,4-3.08,6-3.08s5.97,1.09,6,3.08A7.2,7.2,0,0,1,12,19.2Z" fill="rgba(0,0,0,0.5)"/>
        <path id="Path_1790" data-name="Path 1790" d="M0,0H24V24H0Z" fill="none"/>
      </g>
      <text id="Setup_AutoPay" data-name="Setup AutoPay" transform="translate(17 49)" fill="rgba(0,0,0,0.87)" font-size="26" font-family="ProximaNova-Bold, Proxima Nova" font-weight="700"><tspan x="0" y="0">Setup AutoPay</tspan></text>
      <text id="_100.00" data-name="$100.00" transform="translate(94 156)" fill="rgba(0,0,0,0.87)" font-size="50" font-family="Roboto-Bold, Roboto" font-weight="700"><tspan x="0" y="0">$100.00</tspan></text>
      <g id="history-24px" transform="translate(137 768)">
        <path id="Path_1807" data-name="Path 1807" d="M0,0H24V24H0Z" fill="none"/>
        <path id="Path_1808" data-name="Path 1808" d="M13,3a9,9,0,0,0-9,9H1l3.89,3.89.07.14L9,12H6a7.034,7.034,0,1,1,2.06,4.94L6.64,18.36A9,9,0,1,0,13,3ZM12,8v5l4.28,2.54L17,14.33l-3.5-2.08V8Z" fill="rgba(0,0,0,0.5)"/>
      </g>
      <g id="attach_money-24px" transform="translate(213 768)">
        <path id="Path_1809" data-name="Path 1809" d="M11.8,10.9c-2.27-.59-3-1.2-3-2.15,0-1.09,1.01-1.85,2.7-1.85,1.78,0,2.44.85,2.5,2.1h2.21A3.986,3.986,0,0,0,13,5.19V3H10V5.16c-1.94.42-3.5,1.68-3.5,3.61,0,2.31,1.91,3.46,4.7,4.13,2.5.6,3,1.48,3,2.41,0,.69-.49,1.79-2.7,1.79-2.06,0-2.87-.92-2.98-2.1H6.32c.12,2.19,1.76,3.42,3.68,3.83V21h3V18.85c1.95-.37,3.5-1.5,3.5-3.55C16.5,12.46,14.07,11.49,11.8,10.9Z" fill="rgba(0,0,0,0.5)"/>
        <path id="Path_1810" data-name="Path 1810" d="M0,0H24V24H0Z" fill="none"/>
      </g>
      <rect id="bg" width="327" height="52" rx="26" transform="translate(31 657)" fill="#1b3b6f"/>
      <text id="ACTIVATE_AUTOPAY" data-name="ACTIVATE AUTOPAY" transform="translate(195 688)" fill="#fff" font-size="14" font-family="Montserrat-SemiBold, Montserrat" font-weight="600" letter-spacing="0.004em"><tspan x="-72.667" y="0">ACTIVATE AUTOPAY</tspan></text>
      <g id="Icon_Event_Sharp" data-name="Icon / Event / Sharp" transform="translate(289 768)">
        <rect id="Box" width="24" height="24" fill="none"/>
        <path id="Path_2007" data-name="Path 2007" d="M17-11H12v5h5ZM16-22v2H8v-2H6v2H3.01L3-2H21V-20H18v-2ZM19-4H5V-15H19Z" transform="translate(0 24)" fill="#1b3b6f"/>
      </g>
      <text id="_100_will_be_deducted_on_the_1st_of_each_month_until_your_policy_expires" data-name="$100 will be deducted on the 1st of each month until your policy expires" transform="translate(43 203)" fill="rgba(0,0,0,0.87)" font-size="16" font-family="Roboto-Medium, Roboto" font-weight="500" opacity="0.75"><tspan x="0.203" y="15">$100 will be deducted on the 1st of each </tspan><tspan x="35.426" y="34">month until your policy expires</tspan></text>
      <text id="Your_last_payment_will_be_on_3_1_20" data-name="Your last payment will be on 3/1/20" transform="translate(43 269)" fill="rgba(0,0,0,0.87)" font-size="14" font-family="Roboto-Regular, Roboto" opacity="0.75"><tspan x="34.671" y="13">Your last payment will be on 3/1/20</tspan></text>
      <g id="Rectangle_183" data-name="Rectangle 183" transform="translate(320 426)" fill="#fff" stroke="rgba(149,153,179,0.4)" stroke-width="2">
        <rect width="24" height="24" rx="3" stroke="none"/>
        <rect x="1" y="1" width="22" height="22" rx="2" fill="none"/>
      </g>
      <g id="Rectangle_183-2" data-name="Rectangle 183" transform="translate(320 356)" fill="#fff" stroke="rgba(149,153,179,0.4)" stroke-width="2">
        <rect width="24" height="24" rx="3" stroke="none"/>
        <rect x="1" y="1" width="22" height="22" rx="2" fill="none"/>
      </g>
      <text id="Add_Bank" data-name="Add Bank" transform="translate(118 532)" fill="rgba(0,0,0,0.87)" font-size="16" font-family="Roboto-Medium, Roboto" font-weight="500" opacity="0.5"><tspan x="-34.348" y="0">Add Bank</tspan></text>
      <text id="Add_Card" data-name="Add Card" transform="translate(117 589)" fill="rgba(0,0,0,0.87)" font-size="16" font-family="Roboto-Medium, Roboto" font-weight="500" opacity="0.5"><tspan x="-33.152" y="0">Add Card</tspan></text>
      <rect id="Rectangle_165" data-name="Rectangle 165" width="30" height="30" rx="5" transform="translate(31 511)" fill="rgba(149,153,179,0.2)"/>
      <rect id="Rectangle_173" data-name="Rectangle 173" width="30" height="30" rx="5" transform="translate(31 568)" fill="rgba(149,153,179,0.2)"/>
      <g id="add-24px" transform="translate(34 514)">
        <path id="Path_1796" data-name="Path 1796" d="M19,13H13v6H11V13H5V11h6V5h2v6h6Z" fill="#1b3b6f"/>
        <path id="Path_1797" data-name="Path 1797" d="M0,0H24V24H0Z" fill="none"/>
      </g>
      <g id="add-24px-2" data-name="add-24px" transform="translate(34 571)">
        <path id="Path_1796-2" data-name="Path 1796" d="M19,13H13v6H11V13H5V11h6V5h2v6h6Z" fill="#1b3b6f"/>
        <path id="Path_1797-2" data-name="Path 1797" d="M0,0H24V24H0Z" fill="none"/>
      </g>
      <text id="Bank_of_America" data-name="Bank of America" transform="translate(139 364)" fill="rgba(0,0,0,0.87)" font-size="16" font-family="Roboto-Medium, Roboto" font-weight="500"><tspan x="-59.137" y="0">Bank of America</tspan></text>
      <text id="Visa_Debit_Card" data-name="Visa Debit Card" transform="translate(135 434)" fill="rgba(0,0,0,0.87)" font-size="16" font-family="Roboto-Medium, Roboto" font-weight="500"><tspan x="-55.191" y="0">Visa Debit Card</tspan></text>
      <text id="Checking_account_ending_in_7445" data-name="Checking account ending in 7445" transform="translate(167 384)" fill="rgba(0,0,0,0.87)" font-size="12" font-family="Roboto-Italic, Roboto" font-style="italic"><tspan x="-86.701" y="0">Checking account ending in 7445</tspan></text>
      <text id="Debit_Card_ending_in_4326" data-name="Debit Card ending in 4326" transform="translate(147 454)" fill="rgba(0,0,0,0.87)" font-size="12" font-family="Roboto-Italic, Roboto" font-style="italic"><tspan x="-67.292" y="0">Debit Card ending in 4326</tspan></text>
      <g id="Group_1106" data-name="Group 1106" transform="translate(20.5 357.5)">
        <path id="Path_2758" data-name="Path 2758" d="M17.942,7.3l4.086,1.738a92.181,92.181,0,0,0-12.4,6.154c-1.308-.7-2.725-1.362-4.086-1.973A93.653,93.653,0,0,1,17.942,7.3M12.823,5.5A70.305,70.305,0,0,0,0,11c1.268.469,2.584.987,3.851,1.5A75.09,75.09,0,0,1,16.3,6.679C15.17,6.256,14,5.88,12.822,5.5" transform="translate(0 -1.504)" fill="#36c"/>
        <path id="Path_2759" data-name="Path 2759" d="M31.018,5.643a81.055,81.055,0,0,0-10.9-4.275c-1.308.376-2.63.8-3.9,1.221A73.957,73.957,0,0,1,27.448,6.911c1.128-.423,2.348-.892,3.57-1.268M36.7,3.9A81.61,81.61,0,0,0,25.616,0q-1.8.347-3.57.846A73.992,73.992,0,0,1,32.991,4.987c1.221-.376,2.489-.751,3.711-1.08M45.908,7A94.348,94.348,0,0,0,20.872,19.782c1.879,1.174,3.758,2.4,5.59,3.711A100.617,100.617,0,0,1,50.229,9.448c-1.456-.892-2.865-1.691-4.321-2.443m-6.2-2.958A88.3,88.3,0,0,0,13.638,15.79c1.785.892,3.523,1.831,5.261,2.819A91.449,91.449,0,0,1,44.5,6.3Q42.13,5.115,39.707,4.045" transform="translate(-3.729)" fill="#e2173e"/>
      </g>
      <g id="g4158" transform="translate(-60.332 325.904)">
        <path id="polygon9" d="M436.906,123.873h-3.4l2.126-13.146h3.4Z" transform="translate(-337.557 -5.441)" fill="#00579f"/>
        <path id="path11" d="M575.375,105.607a8.377,8.377,0,0,0-3.049-.56c-3.357,0-5.721,1.79-5.735,4.349-.028,1.888,1.692,2.937,2.979,3.566,1.315.643,1.762,1.063,1.762,1.637-.013.881-1.063,1.287-2.041,1.287a6.765,6.765,0,0,1-3.189-.7l-.448-.21-.476,2.951a10.345,10.345,0,0,0,3.791.7c3.567,0,5.889-1.762,5.916-4.49.014-1.5-.895-2.643-2.853-3.58-1.189-.6-1.917-1.007-1.917-1.623.014-.56.616-1.133,1.958-1.133a5.775,5.775,0,0,1,2.532.5l.307.14.462-2.839Z" transform="translate(-463.704 0)" fill="#00579f"/>
        <path id="path13" d="M795.781,119.216c.28-.755,1.357-3.678,1.357-3.678-.014.028.279-.769.447-1.259l.237,1.133s.644,3.147.783,3.8Zm4.2-8.489h-2.629a1.677,1.677,0,0,0-1.776,1.091l-5.049,12.055h3.567l.713-1.972h4.364c.1.462.406,1.972.406,1.972h3.147l-2.742-13.146Z" transform="translate(-679.592 -5.441)" fill="#00579f"/>
        <path id="path15" d="M174.228,110.727l-3.329,8.964-.364-1.818a10.062,10.062,0,0,0-4.7-5.51l3.049,11.5h3.595l5.343-13.132Z" transform="translate(-81.117 -5.441)" fill="#00579f"/>
        <path id="path17" d="M86.691,110.727H81.222l-.056.266c4.266,1.091,7.091,3.721,8.252,6.881l-1.189-6.042a1.407,1.407,0,0,0-1.539-1.105Z" transform="translate(0 -5.441)" fill="#faa61a"/>
      </g>
      <line id="Line_67" data-name="Line 67" x2="375" transform="translate(0.5 751.5)" fill="none" stroke="rgba(112,112,112,0.3)" stroke-width="1"/>
    </g>
    <g id="Group_1858" data-name="Group 1858" transform="translate(24 3667)">
      <g id="Rectangle_518" data-name="Rectangle 518" transform="translate(1192 870)" fill="none" stroke="#e50a45" stroke-width="5">
        <rect width="61" height="45" stroke="none"/>
        <rect x="2.5" y="2.5" width="56" height="40" fill="none"/>
      </g>
      <g id="Group_1832" data-name="Group 1832" transform="translate(992 227)">
        <circle id="Ellipse_17" data-name="Ellipse 17" cx="16" cy="16" r="16" transform="translate(184 627)" fill="#e50a45"/>
        <text id="_1" data-name="1" transform="translate(196 650)" fill="#fff" font-size="20" font-family="Montserrat-ExtraBold, Montserrat" font-weight="800"><tspan x="0" y="0">1</tspan></text>
      </g>
    </g>
  </g>
</svg>
