<svg xmlns="http://www.w3.org/2000/svg" width="1495" height="450" viewBox="0 0 1495 450">
  <g id="Group_1969" data-name="Group 1969" transform="translate(20525 15560)">
    <g id="Rectangle_1659" data-name="Rectangle 1659" transform="translate(-20525 -15560)" fill="#fff" stroke="#707070" stroke-width="1">
      <rect width="1495" height="450" stroke="none"/>
      <rect x="0.5" y="0.5" width="1494" height="449" fill="none"/>
    </g>
    <g id="Group_1968" data-name="Group 1968" transform="translate(-20760 -18294)">
      <g id="Rectangle_558" data-name="Rectangle 558" transform="translate(500 2999)" fill="#ffe9cb" stroke="#f2900b" stroke-width="2" stroke-dasharray="5">
        <rect width="151" height="88" rx="10" stroke="none"/>
        <rect x="1" y="1" width="149" height="86" rx="9" fill="none"/>
      </g>
      <g id="Rectangle_568" data-name="Rectangle 568" transform="translate(1065 3057)" fill="#ffe9cb" stroke="#f2900b" stroke-width="2" stroke-dasharray="5">
        <rect width="151" height="90" rx="10" stroke="none"/>
        <rect x="1" y="1" width="149" height="88" rx="9" fill="none"/>
      </g>
      <g id="Rectangle_570" data-name="Rectangle 570" transform="translate(1066 2772)" fill="#ffe9cb" stroke="#f2900b" stroke-width="2" stroke-dasharray="5">
        <rect width="152" height="90" rx="10" stroke="none"/>
        <rect x="1" y="1" width="150" height="88" rx="9" fill="none"/>
      </g>
      <text id="Select_Add_Card_or_Add_Bank" data-name="Select
Add Card or Add Bank" transform="translate(515 3018)" fill="rgba(0,0,0,0.87)" font-size="16" font-family="ProximaNova-Bold, Proxima Nova" font-weight="700"><tspan x="38.632" y="13">Select</tspan><tspan x="0.28" y="32">Add Card or Add </tspan><tspan x="42.44" y="51">Bank</tspan></text>
      <text id="Enter_Account_Information" data-name="Enter Account Information" transform="translate(1075 3086)" fill="rgba(0,0,0,0.87)" font-size="16" font-family="ProximaNova-Bold, Proxima Nova" font-weight="700"><tspan x="14.132" y="13">Enter Account </tspan><tspan x="23.476" y="32">Information</tspan></text>
      <text id="Edit_Billing_Information" data-name="Edit Billing Information" transform="translate(1088 2799)" fill="rgba(0,0,0,0.87)" font-size="16" font-family="ProximaNova-Bold, Proxima Nova" font-weight="700"><tspan x="15.66" y="13">Edit Billing </tspan><tspan x="12.476" y="32">Information</tspan></text>
      <g id="Rectangle_559" data-name="Rectangle 559" transform="translate(267 2999)" fill="#707070" stroke="#707070" stroke-width="1">
        <rect width="151" height="88" stroke="none"/>
        <rect x="0.5" y="0.5" width="150" height="87" fill="none"/>
      </g>
      <text id="My_Account" data-name="My Account" transform="translate(297 3036)" fill="#fafafa" font-size="16" font-family="ProximaNova-Bold, Proxima Nova" font-weight="700"><tspan x="0" y="13">My Account</tspan></text>
      <g id="Rectangle_560" data-name="Rectangle 560" transform="translate(732 2999)" fill="rgba(112,112,112,0.2)" stroke="#707070" stroke-width="1">
        <rect width="151" height="88" stroke="none"/>
        <rect x="0.5" y="0.5" width="150" height="87" fill="none"/>
      </g>
      <g id="Rectangle_565" data-name="Rectangle 565" transform="translate(1547 2893)" fill="rgba(112,112,112,0.2)" stroke="#707070" stroke-width="1">
        <rect width="152" height="90" stroke="none"/>
        <rect x="0.5" y="0.5" width="151" height="89" fill="none"/>
      </g>
      <text id="Add_Payment_Profile" data-name="Add Payment Profile" transform="translate(745 3027)" fill="rgba(0,0,0,0.87)" font-size="16" font-family="ProximaNova-Bold, Proxima Nova" font-weight="700"><tspan x="13.748" y="13">Add Payment </tspan><tspan x="38.948" y="32">Profile</tspan></text>
      <text id="Confirmation" transform="translate(1566 2932)" fill="rgba(0,0,0,0.87)" font-size="16" font-family="ProximaNova-Bold, Proxima Nova" font-weight="700"><tspan x="13.648" y="13">Confirmation</tspan></text>
      <g id="Rectangle_561" data-name="Rectangle 561" transform="translate(1323 2896)" fill="#fff" stroke="#707070" stroke-width="2" stroke-dasharray="5">
        <rect width="151" height="88" stroke="none"/>
        <rect x="1" y="1" width="149" height="86" fill="none"/>
      </g>
      <rect id="Rectangle_571" data-name="Rectangle 571" width="151" height="88" transform="translate(1065 2936)" fill="red"/>
      <text id="Save_Profile" data-name="Save Profile" transform="translate(1343 2932)" fill="rgba(0,0,0,0.87)" font-size="16" font-family="ProximaNova-Bold, Proxima Nova" font-weight="700"><tspan x="12.228" y="13">Save Profile</tspan></text>
      <text id="Billing_Information" data-name="Billing Information" transform="translate(1088 2958)" fill="#fff" font-size="18" font-family="ProximaNova-Bold, Proxima Nova" font-weight="700"><tspan x="26.949" y="14">Billing </tspan><tspan x="5.223" y="36">Information</tspan></text>
      <g id="Group_817" data-name="Group 817" transform="translate(433.768 3035.408)">
        <line id="Line_26" data-name="Line 26" x2="42.365" transform="translate(0 9.13)" fill="none" stroke="#e2e6eb" stroke-width="4"/>
        <path id="Path_35" data-name="Path 35" d="M11.363,18.628a2.308,2.308,0,0,1-1.673-3.9L14.854,9.3,9.7,3.9A2.308,2.308,0,1,1,13.032.713L19.712,7.7a2.31,2.31,0,0,1,.005,3.186l-6.68,7.027A2.307,2.307,0,0,1,11.363,18.628Z" transform="translate(27.033 0)" fill="#aab0bb"/>
      </g>
      <g id="Group_818" data-name="Group 818" transform="translate(665.363 3033.996)">
        <line id="Line_26-2" data-name="Line 26" x2="42.365" transform="translate(0 9.13)" fill="none" stroke="#e2e6eb" stroke-width="4"/>
        <path id="Path_35-2" data-name="Path 35" d="M11.363,18.628a2.308,2.308,0,0,1-1.673-3.9L14.854,9.3,9.7,3.9A2.308,2.308,0,1,1,13.032.713L19.712,7.7a2.31,2.31,0,0,1,.005,3.186l-6.68,7.027A2.307,2.307,0,0,1,11.363,18.628Z" transform="translate(27.033 0)" fill="#aab0bb"/>
      </g>
      <g id="Group_1088" data-name="Group 1088" transform="translate(1484.367 2929.658)">
        <line id="Line_26-3" data-name="Line 26" x2="42.365" transform="translate(0 9.13)" fill="none" stroke="#e2e6eb" stroke-width="4"/>
        <path id="Path_35-3" data-name="Path 35" d="M11.363,18.628a2.308,2.308,0,0,1-1.673-3.9L14.854,9.3,9.7,3.9A2.308,2.308,0,1,1,13.032.713L19.712,7.7a2.31,2.31,0,0,1,.005,3.186l-6.68,7.027A2.307,2.307,0,0,1,11.363,18.628Z" transform="translate(27.033 0)" fill="#aab0bb"/>
      </g>
      <g id="Group_1087" data-name="Group 1087" transform="translate(1132.229 2921.395) rotate(-90)">
        <line id="Line_26-4" data-name="Line 26" x2="42.365" transform="translate(0 9.13)" fill="none" stroke="#e2e6eb" stroke-width="4"/>
        <path id="Path_35-4" data-name="Path 35" d="M2.308,18.628a2.308,2.308,0,0,1-1.673-3.9L5.8,9.3.64,3.9A2.308,2.308,0,0,1,3.977.713L10.657,7.7a2.31,2.31,0,0,1,.005,3.186L3.982,17.91A2.307,2.307,0,0,1,2.308,18.628Z" transform="translate(36.088 0)" fill="#aab0bb"/>
      </g>
      <line id="Line_31" data-name="Line 31" y2="70.609" transform="translate(970.619 3043.271) rotate(90)" fill="none" stroke="#e2e6eb" stroke-width="4"/>
      <path id="Path_47" data-name="Path 47" d="M125.648,0H0" transform="translate(970.266 2976.668) rotate(90)" fill="none" stroke="#e2e6eb" stroke-width="4"/>
      <g id="Group_1085" data-name="Group 1085" transform="translate(970.266 3090.484)">
        <g id="Group_1081" data-name="Group 1081" transform="translate(72.229 0) rotate(90)">
          <line id="Line_33" data-name="Line 33" y2="67.249" transform="translate(9.13 72.229) rotate(180)" fill="none" stroke="#e2e6eb" stroke-width="4"/>
          <path id="Path_45" data-name="Path 45" d="M2.308,18.628a2.308,2.308,0,0,1-1.673-3.9L5.8,9.3.64,3.9A2.308,2.308,0,0,1,3.977.713L10.657,7.7a2.31,2.31,0,0,1,.005,3.186L3.982,17.91A2.307,2.307,0,0,1,2.308,18.628Z" transform="translate(0 11.297) rotate(-90)" fill="#aab0bb"/>
        </g>
      </g>
      <g id="Group_1086" data-name="Group 1086" transform="translate(970.266 2970.449)">
        <g id="Group_1081-2" data-name="Group 1081" transform="translate(72.229 0) rotate(90)">
          <line id="Line_33-2" data-name="Line 33" y2="67.249" transform="translate(9.13 72.229) rotate(180)" fill="none" stroke="#e2e6eb" stroke-width="4"/>
          <path id="Path_45-2" data-name="Path 45" d="M2.308,18.628a2.308,2.308,0,0,1-1.673-3.9L5.8,9.3.64,3.9A2.308,2.308,0,0,1,3.977.713L10.657,7.7a2.31,2.31,0,0,1,.005,3.186L3.982,17.91A2.307,2.307,0,0,1,2.308,18.628Z" transform="translate(0 11.297) rotate(-90)" fill="#aab0bb"/>
        </g>
      </g>
      <line id="Line_33-3" data-name="Line 33" y1="0.208" x2="160.282" transform="translate(1234.871 2818.547)" fill="none" stroke="#e2e6eb" stroke-width="4"/>
      <line id="Line_94" data-name="Line 94" y2="53.663" transform="translate(1396.564 2815.723)" fill="none" stroke="#e2e6eb" stroke-width="4"/>
      <path id="Path_45-3" data-name="Path 45" d="M2.308,18.628a2.308,2.308,0,0,1-1.673-3.9L5.8,9.3.64,3.9A2.308,2.308,0,0,1,3.977.713L10.657,7.7a2.31,2.31,0,0,1,.005,3.186L3.982,17.91A2.307,2.307,0,0,1,2.308,18.628Z" transform="translate(1405.381 2862.715) rotate(90)" fill="#aab0bb"/>
      <path id="Path_49" data-name="Path 49" d="M0,0V155.309" transform="translate(1242.035 3116.514) rotate(-90)" fill="none" stroke="#e2e6eb" stroke-width="4"/>
      <line id="Line_36" data-name="Line 36" x1="0.301" y2="108.309" transform="translate(1395.5 3010.191)" fill="none" stroke="#e2e6eb" stroke-width="4"/>
      <g id="Group_1085-2" data-name="Group 1085" transform="translate(1386.4 3016.275) rotate(-90)">
        <path id="Path_48" data-name="Path 48" d="M2.308,18.628a2.308,2.308,0,0,1-1.673-3.9L5.8,9.3.64,3.9A2.308,2.308,0,0,1,3.977.713L10.657,7.7a2.31,2.31,0,0,1,.005,3.186L3.982,17.91A2.307,2.307,0,0,1,2.308,18.628Z" transform="translate(0 0)" fill="#aab0bb"/>
      </g>
    </g>
  </g>
</svg>
