<svg xmlns="http://www.w3.org/2000/svg" width="337" height="258" viewBox="0 0 337 258">
  <g id="Group_1964" data-name="Group 1964" transform="translate(-30 -60)">
    <text id="Payment_amount" data-name="Payment amount" transform="translate(85 60)" font-size="34" font-family="Asure-Regular, Asure"><tspan x="0" y="34">Payment amount</tspan></text>
    <text id="Bank_Acct._" data-name="Bank Acct. #" transform="translate(85 114)" font-size="34" font-family="Asure-Regular, Asure"><tspan x="0" y="34">Bank Acct. #</tspan></text>
    <text id="Bank_Routing_" data-name="Bank Routing #" transform="translate(85 168)" font-size="34" font-family="Asure-Regular, Asure"><tspan x="0" y="34">Bank Routing #</tspan></text>
    <text id="Card_" data-name="Card #" transform="translate(85 222)" font-size="34" font-family="Asure-Regular, Asure"><tspan x="0" y="34">Card #</tspan></text>
    <text id="Exp._cvv" data-name="Exp./cvv" transform="translate(85 276)" font-size="34" font-family="Asure-Regular, Asure"><tspan x="0" y="34">Exp./cvv</tspan></text>
    <path id="check-circle-solid" d="M40.024,24.012A16.012,16.012,0,1,1,24.012,8,16.012,16.012,0,0,1,40.024,24.012ZM22.16,32.491l11.88-11.88a1.033,1.033,0,0,0,0-1.461l-1.461-1.461a1.033,1.033,0,0,0-1.461,0L21.43,27.377l-4.523-4.523a1.033,1.033,0,0,0-1.461,0l-1.461,1.461a1.033,1.033,0,0,0,0,1.461L20.7,32.49a1.033,1.033,0,0,0,1.461,0Z" transform="translate(22 57)" fill="#00bcd4"/>
    <path id="check-circle-solid-2" data-name="check-circle-solid" d="M40.024,24.012A16.012,16.012,0,1,1,24.012,8,16.012,16.012,0,0,1,40.024,24.012ZM22.16,32.491l11.88-11.88a1.033,1.033,0,0,0,0-1.461l-1.461-1.461a1.033,1.033,0,0,0-1.461,0L21.43,27.377l-4.523-4.523a1.033,1.033,0,0,0-1.461,0l-1.461,1.461a1.033,1.033,0,0,0,0,1.461L20.7,32.49a1.033,1.033,0,0,0,1.461,0Z" transform="translate(22 111)" fill="#00bcd4"/>
    <path id="check-circle-solid-3" data-name="check-circle-solid" d="M40.024,24.012A16.012,16.012,0,1,1,24.012,8,16.012,16.012,0,0,1,40.024,24.012ZM22.16,32.491l11.88-11.88a1.033,1.033,0,0,0,0-1.461l-1.461-1.461a1.033,1.033,0,0,0-1.461,0L21.43,27.377l-4.523-4.523a1.033,1.033,0,0,0-1.461,0l-1.461,1.461a1.033,1.033,0,0,0,0,1.461L20.7,32.49a1.033,1.033,0,0,0,1.461,0Z" transform="translate(22 165)" fill="#00bcd4"/>
    <path id="check-circle-solid-4" data-name="check-circle-solid" d="M40.024,24.012A16.012,16.012,0,1,1,24.012,8,16.012,16.012,0,0,1,40.024,24.012ZM22.16,32.491l11.88-11.88a1.033,1.033,0,0,0,0-1.461l-1.461-1.461a1.033,1.033,0,0,0-1.461,0L21.43,27.377l-4.523-4.523a1.033,1.033,0,0,0-1.461,0l-1.461,1.461a1.033,1.033,0,0,0,0,1.461L20.7,32.49a1.033,1.033,0,0,0,1.461,0Z" transform="translate(22 219)" fill="#00bcd4"/>
    <path id="check-circle-solid-5" data-name="check-circle-solid" d="M40.024,24.012A16.012,16.012,0,1,1,24.012,8,16.012,16.012,0,0,1,40.024,24.012ZM22.16,32.491l11.88-11.88a1.033,1.033,0,0,0,0-1.461l-1.461-1.461a1.033,1.033,0,0,0-1.461,0L21.43,27.377l-4.523-4.523a1.033,1.033,0,0,0-1.461,0l-1.461,1.461a1.033,1.033,0,0,0,0,1.461L20.7,32.49a1.033,1.033,0,0,0,1.461,0Z" transform="translate(22 273)" fill="#00bcd4"/>
  </g>
</svg>
