<svg xmlns="http://www.w3.org/2000/svg" width="337" height="258" viewBox="0 0 337 258">
  <g id="Group_1966" data-name="Group 1966" transform="translate(-412 -366)">
    <text id="Confirm_acct._" data-name="Confirm acct. #" transform="translate(467 366)" font-size="34" font-family="Asure-Regular, Asure"><tspan x="0" y="34">Confirm acct. #</tspan></text>
    <text id="Confirm_card_" data-name="Confirm card #" transform="translate(467 420)" font-size="34" font-family="Asure-Regular, Asure"><tspan x="0" y="34">Confirm card #</tspan></text>
    <text id="Address_line_2" data-name="Address line 2" transform="translate(467 474)" font-size="34" font-family="Asure-Regular, Asure"><tspan x="0" y="34">Address line 2</tspan></text>
    <text id="Phone_number" data-name="Phone number" transform="translate(467 528)" font-size="34" font-family="Asure-Regular, Asure"><tspan x="0" y="34">Phone number</tspan></text>
    <text id="Confirm_bank" data-name="Confirm bank" transform="translate(467 582)" font-size="34" font-family="Asure-Regular, Asure"><tspan x="0" y="34">Confirm bank</tspan></text>
    <path id="check-circle-solid" d="M40.024,24.012A16.012,16.012,0,1,1,24.012,8,16.012,16.012,0,0,1,40.024,24.012ZM22.16,32.491l11.88-11.88a1.033,1.033,0,0,0,0-1.461l-1.461-1.461a1.033,1.033,0,0,0-1.461,0L21.43,27.377l-4.523-4.523a1.033,1.033,0,0,0-1.461,0l-1.461,1.461a1.033,1.033,0,0,0,0,1.461L20.7,32.49a1.033,1.033,0,0,0,1.461,0Z" transform="translate(404 363)" fill="#00bcd4"/>
    <path id="check-circle-solid-2" data-name="check-circle-solid" d="M40.024,24.012A16.012,16.012,0,1,1,24.012,8,16.012,16.012,0,0,1,40.024,24.012ZM22.16,32.491l11.88-11.88a1.033,1.033,0,0,0,0-1.461l-1.461-1.461a1.033,1.033,0,0,0-1.461,0L21.43,27.377l-4.523-4.523a1.033,1.033,0,0,0-1.461,0l-1.461,1.461a1.033,1.033,0,0,0,0,1.461L20.7,32.49a1.033,1.033,0,0,0,1.461,0Z" transform="translate(404 417)" fill="#00bcd4"/>
    <path id="check-circle-solid-3" data-name="check-circle-solid" d="M40.024,24.012A16.012,16.012,0,1,1,24.012,8,16.012,16.012,0,0,1,40.024,24.012ZM22.16,32.491l11.88-11.88a1.033,1.033,0,0,0,0-1.461l-1.461-1.461a1.033,1.033,0,0,0-1.461,0L21.43,27.377l-4.523-4.523a1.033,1.033,0,0,0-1.461,0l-1.461,1.461a1.033,1.033,0,0,0,0,1.461L20.7,32.49a1.033,1.033,0,0,0,1.461,0Z" transform="translate(404 471)" fill="#00bcd4"/>
    <path id="check-circle-solid-4" data-name="check-circle-solid" d="M40.024,24.012A16.012,16.012,0,1,1,24.012,8,16.012,16.012,0,0,1,40.024,24.012ZM22.16,32.491l11.88-11.88a1.033,1.033,0,0,0,0-1.461l-1.461-1.461a1.033,1.033,0,0,0-1.461,0L21.43,27.377l-4.523-4.523a1.033,1.033,0,0,0-1.461,0l-1.461,1.461a1.033,1.033,0,0,0,0,1.461L20.7,32.49a1.033,1.033,0,0,0,1.461,0Z" transform="translate(404 525)" fill="#00bcd4"/>
    <path id="check-circle-solid-5" data-name="check-circle-solid" d="M40.024,24.012A16.012,16.012,0,1,1,24.012,8,16.012,16.012,0,0,1,40.024,24.012ZM22.16,32.491l11.88-11.88a1.033,1.033,0,0,0,0-1.461l-1.461-1.461a1.033,1.033,0,0,0-1.461,0L21.43,27.377l-4.523-4.523a1.033,1.033,0,0,0-1.461,0l-1.461,1.461a1.033,1.033,0,0,0,0,1.461L20.7,32.49a1.033,1.033,0,0,0,1.461,0Z" transform="translate(404 579)" fill="#00bcd4"/>
  </g>
</svg>
