<svg xmlns="http://www.w3.org/2000/svg" xmlns:xlink="http://www.w3.org/1999/xlink" width="509" height="971" viewBox="0 0 509 971">
  <defs>
    <filter id="Body" x="0" y="0" width="509" height="971" filterUnits="userSpaceOnUse">
      <feOffset dy="20" input="SourceAlpha"/>
      <feGaussianBlur stdDeviation="19" result="blur"/>
      <feFlood flood-opacity="0.161"/>
      <feComposite operator="in" in2="blur"/>
      <feComposite in="SourceGraphic"/>
    </filter>
  </defs>
  <g id="Group_1970" data-name="Group 1970" transform="translate(-91 -3930)">
    <g transform="matrix(1, 0, 0, 1, 91, 3930)" filter="url(#Body)">
      <rect id="Body-2" data-name="Body" width="395" height="857" rx="37" transform="translate(57 37)" fill="#fff"/>
    </g>
    <g id="Screen" transform="translate(2148 3978)" fill="#fafafa">
      <path d="M -1640.999755859375 836.5 L -1963.999877929688 836.5 C -1967.440063476562 836.5 -1970.779541015625 835.8258666992188 -1973.925659179688 834.4964599609375 C -1976.959716796875 833.2138061523438 -1979.686889648438 831.3751220703125 -1982.031616210938 829.0314331054688 C -1984.373413085938 826.6889038085938 -1986.212036132812 823.9615478515625 -1987.496459960938 820.9256591796875 C -1988.825927734375 817.78125 -1989.5 814.4417724609375 -1989.5 811 L -1989.5 26.0001106262207 C -1989.5 22.56011199951172 -1988.825927734375 19.22055625915527 -1987.496337890625 16.07433319091797 C -1986.2119140625 13.03744411468506 -1984.373291015625 10.31022262573242 -1982.031494140625 7.968444347381592 C -1979.687866210938 5.626777648925781 -1976.960571289062 3.788000106811523 -1973.925415039062 2.50344443321228 C -1970.780517578125 1.174111127853394 -1967.441040039062 0.5 -1963.999877929688 0.5 L -1913.50048828125 0.5 L -1913.50048828125 1.215000033378601 C -1913.50048828125 1.253999948501587 -1913.500366210938 1.294111132621765 -1913.499267578125 1.333111166954041 L -1912.49951171875 1.318555593490601 L -1912.49951171875 0.5225440263748169 C -1909.70068359375 0.7761281728744507 -1907.500122070312 3.136082172393799 -1907.500122070312 6.000333309173584 L -1907.500122070312 7.215333461761475 L -1907.500122070312 10.92333316802979 C -1907.500122070312 13.68722248077393 -1906.958129882812 16.37199974060059 -1905.889282226562 18.90288925170898 C -1904.855224609375 21.34566688537598 -1903.377075195312 23.53800010681152 -1901.495727539062 25.4194450378418 C -1899.613647460938 27.30222129821777 -1897.421630859375 28.78011131286621 -1894.97998046875 29.81222152709961 C -1892.44970703125 30.88166618347168 -1889.764892578125 31.42399978637695 -1887.000366210938 31.42399978637695 L -1718.000122070312 31.42399978637695 C -1715.233520507812 31.42399978637695 -1712.548828125 30.88166618347168 -1710.020385742188 29.81211090087891 C -1707.57763671875 28.77899932861328 -1705.385620117188 27.30111122131348 -1703.504638671875 25.41933250427246 C -1701.623413085938 23.53888893127441 -1700.145263671875 21.34655570983887 -1699.111328125 18.90322303771973 C -1698.042358398438 16.37599945068359 -1697.500366210938 13.69122219085693 -1697.500366210938 10.92333316802979 L -1697.500366210938 7.215333461761475 L -1697.500366210938 6.000333309173584 C -1697.500366210938 2.997432708740234 -1695.081787109375 0.5488568544387817 -1692.090087890625 0.5007287859916687 L -1692 0.5008888840675354 L -1640.999755859375 0.5 C -1637.557495117188 0.5 -1634.21826171875 1.174111127853394 -1631.074951171875 2.503555536270142 C -1628.036010742188 3.789111137390137 -1625.308837890625 5.627777576446533 -1622.969116210938 7.96833324432373 C -1620.625732421875 10.31177806854248 -1618.786987304688 13.03899955749512 -1617.504150390625 16.07433319091797 C -1616.174560546875 19.22055625915527 -1615.50048828125 22.56011199951172 -1615.50048828125 26.0001106262207 L -1615.50048828125 811 C -1615.50048828125 814.4417724609375 -1616.174560546875 817.78125 -1617.504150390625 820.92578125 C -1618.786743164062 823.9609985351562 -1620.62548828125 826.6881103515625 -1622.968994140625 829.0315551757812 C -1625.30908203125 831.3733520507812 -1628.0361328125 833.2119750976562 -1631.074829101562 834.4964599609375 C -1634.21826171875 835.8258666992188 -1637.557495117188 836.5 -1640.999755859375 836.5 Z" stroke="none"/>
      <path d="M -1640.999755859375 836 C -1637.624755859375 836 -1634.35107421875 835.3392333984375 -1631.269409179688 834.035888671875 C -1628.29052734375 832.7766723632812 -1625.616943359375 830.97412109375 -1623.322631835938 828.677978515625 C -1621.024780273438 826.3803100585938 -1619.222290039062 823.7066650390625 -1617.964599609375 820.7310180664062 C -1616.661376953125 817.6485595703125 -1616.00048828125 814.3745727539062 -1616.00048828125 811 L -1616.00048828125 26.0001106262207 C -1616.00048828125 22.62733268737793 -1616.661376953125 19.35322189331055 -1617.964721679688 16.26899909973145 C -1619.222412109375 13.29322242736816 -1621.025024414062 10.61955547332764 -1623.322631835938 8.32188892364502 C -1625.61669921875 6.026999950408936 -1628.29052734375 4.224444389343262 -1631.269653320312 2.96399998664856 C -1634.35107421875 1.660777807235718 -1637.624755859375 1 -1640.999755859375 1 L -1692 1.00088894367218 L -1692.090209960938 1.000808715820312 C -1694.806030273438 1.049082398414612 -1697.000366210938 3.273234605789185 -1697.000366210938 6.000333309173584 L -1697.000366210938 7.215333461761475 L -1697.000366210938 10.92333316802979 C -1697.000366210938 13.75855541229248 -1697.5556640625 16.50888824462891 -1698.65087890625 19.09799957275391 C -1699.7099609375 21.60099983215332 -1701.224243164062 23.84677696228027 -1703.151000976562 25.77277755737305 C -1705.07763671875 27.70033264160156 -1707.3232421875 29.21433258056641 -1709.825561523438 30.27266693115234 C -1712.416015625 31.36844444274902 -1715.166381835938 31.92399978637695 -1718.000122070312 31.92399978637695 L -1887.000366210938 31.92399978637695 C -1889.832153320312 31.92399978637695 -1892.58251953125 31.36844444274902 -1895.174682617188 30.27277755737305 C -1897.675903320312 29.21544456481934 -1899.921630859375 27.70144462585449 -1901.849243164062 25.77300071716309 C -1903.7763671875 23.84577751159668 -1905.29052734375 21.60011100769043 -1906.349853515625 19.09744453430176 C -1907.444946289062 16.50466728210449 -1908.000122070312 13.75444412231445 -1908.000122070312 10.92333316802979 L -1908.000122070312 7.215333461761475 L -1908.000122070312 6.000333309173584 C -1908.000122070312 3.585576057434082 -1909.720336914062 1.565138220787048 -1911.99951171875 1.100490927696228 L -1911.99951171875 1.318555593490601 L -1913.9990234375 1.347777724266052 C -1914.000366210938 1.303888916969299 -1914.00048828125 1.258888840675354 -1914.00048828125 1.215000033378601 L -1914.00048828125 1 L -1963.999877929688 1 C -1967.373779296875 1 -1970.647827148438 1.660777807235718 -1973.730590820312 2.963888883590698 C -1976.706298828125 4.223333358764648 -1979.380249023438 6.026111125946045 -1981.677856445312 8.321999549865723 C -1983.973876953125 10.61800003051758 -1985.776733398438 13.29188919067383 -1987.035766601562 16.26888847351074 C -1988.339111328125 19.35322189331055 -1989 22.62733268737793 -1989 26.0001106262207 L -1989 811 C -1989 814.3745727539062 -1988.339111328125 817.6485595703125 -1987.035888671875 820.7307739257812 C -1985.776733398438 823.7072143554688 -1983.973876953125 826.381103515625 -1981.677978515625 828.6779174804688 C -1979.379272460938 830.9757690429688 -1976.705322265625 832.7784423828125 -1973.731079101562 834.035888671875 C -1970.646850585938 835.3392333984375 -1967.372802734375 836 -1963.999877929688 836 L -1640.999755859375 836 M -1640.999755859375 837 L -1963.999877929688 837 C -1967.508056640625 837 -1970.912719726562 836.3124389648438 -1974.120361328125 834.9569702148438 C -1977.213623046875 833.6493530273438 -1979.99462890625 831.7745361328125 -1982.385009765625 829.3851318359375 C -1984.772705078125 826.99658203125 -1986.6474609375 824.215576171875 -1987.956909179688 821.1204223632812 C -1989.312377929688 817.9146728515625 -1990 814.5089721679688 -1990 811 L -1990 26.0001106262207 C -1990 22.49188804626465 -1989.312377929688 19.08722305297852 -1987.956909179688 15.87966632843018 C -1986.6474609375 12.78366661071777 -1984.772705078125 10.00255584716797 -1982.385009765625 7.614888668060303 C -1979.99462890625 5.226333141326904 -1977.214599609375 3.352555513381958 -1974.120361328125 2.042999982833862 C -1970.913696289062 0.6875555515289307 -1967.508056640625 0 -1963.999877929688 0 L -1913.00048828125 0 L -1913.00048828125 1.215000033378601 C -1913.00048828125 1.249222278594971 -1913.00048828125 1.284333348274231 -1912.99951171875 1.318555593490601 L -1912.99951171875 0 C -1909.691162109375 0 -1907.000122070312 2.691888809204102 -1907.000122070312 6.000333309173584 L -1907.000122070312 7.215333461761475 L -1907.000122070312 10.92333316802979 C -1907.000122070312 13.62155532836914 -1906.470947265625 16.24055480957031 -1905.4287109375 18.70833396911621 C -1904.419799804688 21.09155464172363 -1902.977172851562 23.23077774047852 -1901.14208984375 25.06588935852051 C -1899.306030273438 26.90277862548828 -1897.167602539062 28.34466743469238 -1894.785400390625 29.3516674041748 C -1892.317504882812 30.39477729797363 -1889.698486328125 30.92399978637695 -1887.000366210938 30.92399978637695 L -1718.000122070312 30.92399978637695 C -1715.301025390625 30.92399978637695 -1712.68115234375 30.39477729797363 -1710.215087890625 29.3516674041748 C -1707.831909179688 28.34366607666016 -1705.693481445312 26.90188980102539 -1703.8583984375 25.06588935852051 C -1702.023315429688 23.23166656494141 -1700.580688476562 21.09244537353516 -1699.57177734375 18.70833396911621 C -1698.528686523438 16.24233245849609 -1698.000366210938 13.62333297729492 -1698.000366210938 10.92333316802979 L -1698.000366210938 7.215333461761475 L -1698.000366210938 6.000333309173584 C -1698.000366210938 2.686555624008179 -1695.313842773438 0 -1692 0 L -1692 0.0008888888987712562 L -1640.999755859375 0 C -1637.48974609375 0 -1634.0849609375 0.6875555515289307 -1630.880126953125 2.042999982833862 C -1627.780517578125 3.354333400726318 -1625.00048828125 5.229000091552734 -1622.615478515625 7.614888668060303 C -1620.227783203125 10.00255584716797 -1618.352172851562 12.78366661071777 -1617.043579101562 15.87966632843018 C -1615.688110351562 19.08722305297852 -1615.00048828125 22.49188804626465 -1615.00048828125 26.0001106262207 L -1615.00048828125 811 C -1615.00048828125 814.5089721679688 -1615.688110351562 817.9146728515625 -1617.043579101562 821.1204223632812 C -1618.351196289062 824.2146606445312 -1620.225952148438 826.9956665039062 -1622.615478515625 829.3851318359375 C -1625.001342773438 831.7728881835938 -1627.782348632812 833.6475830078125 -1630.880126953125 834.9569702148438 C -1634.0849609375 836.3124389648438 -1637.48974609375 837 -1640.999755859375 837 Z" stroke="none" fill="#707070"/>
    </g>
    <g id="Rectangle_511" data-name="Rectangle 511" transform="translate(174 4489)" fill="none" stroke="#e50a45" stroke-width="5">
      <rect width="199" height="47" stroke="none"/>
      <rect x="2.5" y="2.5" width="194" height="42" fill="none"/>
    </g>
    <g id="Group_1832" data-name="Group 1832" transform="translate(-26 3846)">
      <circle id="Ellipse_17" data-name="Ellipse 17" cx="16" cy="16" r="16" transform="translate(184 627)" fill="#e50a45"/>
      <text id="_1" data-name="1" transform="translate(196 650)" fill="#fff" font-size="20" font-family="Montserrat-ExtraBold, Montserrat" font-weight="800"><tspan x="0" y="0">1</tspan></text>
    </g>
    <g id="Group_1843" data-name="Group 1843" transform="translate(158 4000)">
      <g id="account_circle-24px" transform="translate(61.117 768)">
        <path id="Path_1789" data-name="Path 1789" d="M12,2A10,10,0,1,0,22,12,10,10,0,0,0,12,2Zm0,3A3,3,0,1,1,9,8,3,3,0,0,1,12,5Zm0,14.2a7.2,7.2,0,0,1-6-3.22c.03-1.99,4-3.08,6-3.08s5.97,1.09,6,3.08A7.2,7.2,0,0,1,12,19.2Z"/>
        <path id="Path_1790" data-name="Path 1790" d="M0,0H24V24H0Z" fill="none"/>
      </g>
      <text id="Add_Bank" data-name="Add Bank" transform="translate(116 461)" fill="rgba(0,0,0,0.87)" font-size="16" font-family="Roboto-Medium, Roboto" font-weight="500" opacity="0.5"><tspan x="-34.348" y="0">Add Bank</tspan></text>
      <text id="Bank_of_America" data-name="Bank of America" transform="translate(139 288)" fill="rgba(0,0,0,0.87)" font-size="16" font-family="Roboto-Medium, Roboto" font-weight="500"><tspan x="-59.137" y="0">Bank of America</tspan></text>
      <text id="Visa_Debit_Card" data-name="Visa Debit Card" transform="translate(135 358)" fill="rgba(0,0,0,0.87)" font-size="16" font-family="Roboto-Medium, Roboto" font-weight="500"><tspan x="-55.191" y="0">Visa Debit Card</tspan></text>
      <text id="Checking_account_ending_in_7445" data-name="Checking account ending in 7445" transform="translate(167 308)" fill="rgba(0,0,0,0.87)" font-size="12" font-family="Roboto-Italic, Roboto" font-style="italic"><tspan x="-86.701" y="0">Checking account ending in 7445</tspan></text>
      <text id="Debit_Card_ending_in_4326" data-name="Debit Card ending in 4326" transform="translate(147 378)" fill="rgba(0,0,0,0.87)" font-size="12" font-family="Roboto-Italic, Roboto" font-style="italic"><tspan x="-67.292" y="0">Debit Card ending in 4326</tspan></text>
      <text id="Add_Card" data-name="Add Card" transform="translate(115 518)" fill="rgba(0,0,0,0.87)" font-size="16" font-family="Roboto-Medium, Roboto" font-weight="500" opacity="0.5"><tspan x="-33.152" y="0">Add Card</tspan></text>
      <text id="Setup_AutoPay" data-name="Setup AutoPay" transform="translate(133 575)" fill="rgba(0,0,0,0.87)" font-size="16" font-family="Roboto-Medium, Roboto" font-weight="500" opacity="0.5"><tspan x="-52.781" y="0">Setup AutoPay</tspan></text>
      <line id="Line_67" data-name="Line 67" x2="375" transform="translate(0.5 751.5)" fill="none" stroke="#707070" stroke-width="1"/>
      <rect id="Rectangle_165" data-name="Rectangle 165" width="30" height="30" rx="5" transform="translate(29 440)" fill="#edeaea"/>
      <rect id="Rectangle_173" data-name="Rectangle 173" width="30" height="30" rx="5" transform="translate(29 497)" fill="#edeaea"/>
      <rect id="Rectangle_179" data-name="Rectangle 179" width="30" height="30" rx="5" transform="translate(29 554)" fill="#edeaea"/>
      <g id="add-24px" transform="translate(32 443)">
        <path id="Path_1796" data-name="Path 1796" d="M19,13H13v6H11V13H5V11h6V5h2v6h6Z" fill="#707070"/>
        <path id="Path_1797" data-name="Path 1797" d="M0,0H24V24H0Z" fill="none"/>
      </g>
      <g id="add-24px-2" data-name="add-24px" transform="translate(32 500)">
        <path id="Path_1796-2" data-name="Path 1796" d="M19,13H13v6H11V13H5V11h6V5h2v6h6Z" fill="#707070"/>
        <path id="Path_1797-2" data-name="Path 1797" d="M0,0H24V24H0Z" fill="none"/>
      </g>
      <g id="add-24px-3" data-name="add-24px" transform="translate(32 557)">
        <path id="Path_1796-3" data-name="Path 1796" d="M19,13H13v6H11V13H5V11h6V5h2v6h6Z" fill="#707070"/>
        <path id="Path_1797-3" data-name="Path 1797" d="M0,0H24V24H0Z" fill="none"/>
      </g>
      <g id="account_balance-24px" transform="translate(29 270)">
        <g id="Group_767" data-name="Group 767">
          <rect id="Rectangle_174" data-name="Rectangle 174" width="24" height="24" fill="none"/>
        </g>
        <g id="Group_769" data-name="Group 769">
          <g id="Group_768" data-name="Group 768">
            <rect id="Rectangle_175" data-name="Rectangle 175" width="3" height="7" transform="translate(4 10)"/>
            <rect id="Rectangle_176" data-name="Rectangle 176" width="3" height="7" transform="translate(10.5 10)"/>
            <rect id="Rectangle_177" data-name="Rectangle 177" width="20" height="3" transform="translate(2 19)"/>
            <rect id="Rectangle_178" data-name="Rectangle 178" width="3" height="7" transform="translate(17 10)"/>
            <path id="Path_1798" data-name="Path 1798" d="M12,1,2,6V8H22V6Z"/>
          </g>
        </g>
      </g>
      <g id="credit_card-24px" transform="translate(29 343)">
        <path id="Path_1799" data-name="Path 1799" d="M0,0H24V24H0Z" fill="none"/>
        <path id="Path_1800" data-name="Path 1800" d="M20,4H4A1.985,1.985,0,0,0,2.01,6L2,18a1.993,1.993,0,0,0,2,2H20a1.993,1.993,0,0,0,2-2V6A1.993,1.993,0,0,0,20,4Zm0,14H4V12H20ZM20,8H4V6H20Z"/>
      </g>
      <g id="navigate_next-24px" transform="translate(313 281)" opacity="0.5">
        <path id="Path_1801" data-name="Path 1801" d="M10,6,8.59,7.41,13.17,12,8.59,16.59,10,18l6-6Z"/>
        <path id="Path_1802" data-name="Path 1802" d="M0,0H24V24H0Z" fill="none"/>
      </g>
      <g id="navigate_next-24px-2" data-name="navigate_next-24px" transform="translate(313 351)" opacity="0.5">
        <path id="Path_1801-2" data-name="Path 1801" d="M10,6,8.59,7.41,13.17,12,8.59,16.59,10,18l6-6Z"/>
        <path id="Path_1802-2" data-name="Path 1802" d="M0,0H24V24H0Z" fill="none"/>
      </g>
      <text id="My_Account" data-name="My Account" transform="translate(17 49)" fill="rgba(0,0,0,0.87)" font-size="26" font-family="ProximaNova-Bold, Proxima Nova" font-weight="700"><tspan x="0" y="0">My Account</tspan></text>
      <text id="_100.00" data-name="$100.00" transform="translate(94 163)" fill="rgba(0,0,0,0.87)" font-size="50" font-family="Roboto-Bold, Roboto" font-weight="700"><tspan x="0" y="0">$100.00</tspan></text>
      <text id="Due_2_1_20" data-name="Due 2/1/20" transform="translate(188 194)" fill="rgba(0,0,0,0.87)" font-size="20" font-family="Roboto-Bold, Roboto" font-weight="700" opacity="0.5"><tspan x="-50.41" y="0">Due 2/1/20</tspan></text>
      <g id="history-24px" transform="translate(137 768)">
        <path id="Path_1807" data-name="Path 1807" d="M0,0H24V24H0Z" fill="none"/>
        <path id="Path_1808" data-name="Path 1808" d="M13,3a9,9,0,0,0-9,9H1l3.89,3.89.07.14L9,12H6a7.034,7.034,0,1,1,2.06,4.94L6.64,18.36A9,9,0,1,0,13,3ZM12,8v5l4.28,2.54L17,14.33l-3.5-2.08V8Z" fill="rgba(0,0,0,0.5)"/>
      </g>
      <g id="attach_money-24px" transform="translate(213 768)">
        <path id="Path_1809" data-name="Path 1809" d="M11.8,10.9c-2.27-.59-3-1.2-3-2.15,0-1.09,1.01-1.85,2.7-1.85,1.78,0,2.44.85,2.5,2.1h2.21A3.986,3.986,0,0,0,13,5.19V3H10V5.16c-1.94.42-3.5,1.68-3.5,3.61,0,2.31,1.91,3.46,4.7,4.13,2.5.6,3,1.48,3,2.41,0,.69-.49,1.79-2.7,1.79-2.06,0-2.87-.92-2.98-2.1H6.32c.12,2.19,1.76,3.42,3.68,3.83V21h3V18.85c1.95-.37,3.5-1.5,3.5-3.55C16.5,12.46,14.07,11.49,11.8,10.9Z" fill="rgba(0,0,0,0.5)"/>
        <path id="Path_1810" data-name="Path 1810" d="M0,0H24V24H0Z" fill="none"/>
      </g>
      <g id="Group_797" data-name="Group 797">
        <g id="Group_796" data-name="Group 796" transform="translate(0 -3)">
          <rect id="bg" width="126" height="52" rx="26" transform="translate(214 662)" fill="#707070"/>
          <text id="PAY_100" data-name="PAY $100" transform="translate(277 693)" fill="#fff" font-size="14" font-family="Montserrat-SemiBold, Montserrat" font-weight="600" letter-spacing="0.004em"><tspan x="-32.893" y="0">PAY $100</tspan></text>
        </g>
        <g id="Group_795" data-name="Group 795" transform="translate(1 -3)">
          <rect id="bg-2" data-name="bg" width="126" height="52" rx="26" transform="translate(35 662)" fill="#edeaea"/>
          <text id="PAY_OTHER" data-name="PAY OTHER" transform="translate(98 693)" fill="#707070" font-size="14" font-family="Montserrat-SemiBold, Montserrat" font-weight="600" letter-spacing="0.004em"><tspan x="-42.014" y="0">PAY OTHER</tspan></text>
        </g>
      </g>
      <g id="Icon_Event_Sharp" data-name="Icon / Event / Sharp" transform="translate(289 768)">
        <rect id="Box" width="24" height="24" fill="none"/>
        <path id="Path_2007" data-name="Path 2007" d="M17-11H12v5h5ZM16-22v2H8v-2H6v2H3.01L3-2H21V-20H18v-2ZM19-4H5V-15H19Z" transform="translate(0 24)" fill="rgba(0,0,0,0.5)"/>
      </g>
    </g>
  </g>
</svg>
