<svg xmlns="http://www.w3.org/2000/svg" width="337" height="258" viewBox="0 0 337 258">
  <g id="Group_1965" data-name="Group 1965" transform="translate(-412 -60)">
    <text id="Full_name" data-name="Full name" transform="translate(467 60)" font-size="34" font-family="Asure-Regular, Asure"><tspan x="0" y="34">Full name</tspan></text>
    <text id="Address_line_1" data-name="Address line 1" transform="translate(467 114)" font-size="34" font-family="Asure-Regular, Asure"><tspan x="0" y="34">Address line 1</tspan></text>
    <text id="City_state_zip" data-name="City, state, zip" transform="translate(467 168)" font-size="34" font-family="Asure-Regular, Asure"><tspan x="0" y="34">City, state, zip</tspan></text>
    <text id="Account_type" data-name="Account type" transform="translate(467 222)" font-size="34" font-family="Asure-Regular, Asure"><tspan x="0" y="34">Account type</tspan></text>
    <text id="Email" transform="translate(467 276)" font-size="34" font-family="Asure-Regular, Asure"><tspan x="0" y="34">Email</tspan></text>
    <path id="check-circle-solid" d="M40.024,24.012A16.012,16.012,0,1,1,24.012,8,16.012,16.012,0,0,1,40.024,24.012ZM22.16,32.491l11.88-11.88a1.033,1.033,0,0,0,0-1.461l-1.461-1.461a1.033,1.033,0,0,0-1.461,0L21.43,27.377l-4.523-4.523a1.033,1.033,0,0,0-1.461,0l-1.461,1.461a1.033,1.033,0,0,0,0,1.461L20.7,32.49a1.033,1.033,0,0,0,1.461,0Z" transform="translate(404 57)" fill="#00bcd4"/>
    <path id="check-circle-solid-2" data-name="check-circle-solid" d="M40.024,24.012A16.012,16.012,0,1,1,24.012,8,16.012,16.012,0,0,1,40.024,24.012ZM22.16,32.491l11.88-11.88a1.033,1.033,0,0,0,0-1.461l-1.461-1.461a1.033,1.033,0,0,0-1.461,0L21.43,27.377l-4.523-4.523a1.033,1.033,0,0,0-1.461,0l-1.461,1.461a1.033,1.033,0,0,0,0,1.461L20.7,32.49a1.033,1.033,0,0,0,1.461,0Z" transform="translate(404 111)" fill="#00bcd4"/>
    <path id="check-circle-solid-3" data-name="check-circle-solid" d="M40.024,24.012A16.012,16.012,0,1,1,24.012,8,16.012,16.012,0,0,1,40.024,24.012ZM22.16,32.491l11.88-11.88a1.033,1.033,0,0,0,0-1.461l-1.461-1.461a1.033,1.033,0,0,0-1.461,0L21.43,27.377l-4.523-4.523a1.033,1.033,0,0,0-1.461,0l-1.461,1.461a1.033,1.033,0,0,0,0,1.461L20.7,32.49a1.033,1.033,0,0,0,1.461,0Z" transform="translate(404 165)" fill="#00bcd4"/>
    <path id="check-circle-solid-4" data-name="check-circle-solid" d="M40.024,24.012A16.012,16.012,0,1,1,24.012,8,16.012,16.012,0,0,1,40.024,24.012ZM22.16,32.491l11.88-11.88a1.033,1.033,0,0,0,0-1.461l-1.461-1.461a1.033,1.033,0,0,0-1.461,0L21.43,27.377l-4.523-4.523a1.033,1.033,0,0,0-1.461,0l-1.461,1.461a1.033,1.033,0,0,0,0,1.461L20.7,32.49a1.033,1.033,0,0,0,1.461,0Z" transform="translate(404 219)" fill="#00bcd4"/>
    <path id="check-circle-solid-5" data-name="check-circle-solid" d="M40.024,24.012A16.012,16.012,0,1,1,24.012,8,16.012,16.012,0,0,1,40.024,24.012ZM22.16,32.491l11.88-11.88a1.033,1.033,0,0,0,0-1.461l-1.461-1.461a1.033,1.033,0,0,0-1.461,0L21.43,27.377l-4.523-4.523a1.033,1.033,0,0,0-1.461,0l-1.461,1.461a1.033,1.033,0,0,0,0,1.461L20.7,32.49a1.033,1.033,0,0,0,1.461,0Z" transform="translate(404 273)" fill="#00bcd4"/>
  </g>
</svg>
