<svg xmlns="http://www.w3.org/2000/svg" width="395" height="696" viewBox="0 0 395 696">
  <g id="Group_1980" data-name="Group 1980" transform="translate(-70 -2467)">
    <g id="Body" transform="translate(70 2467)" fill="#fff" stroke="#707070" stroke-width="1">
      <rect width="395" height="696" stroke="none"/>
      <rect x="0.5" y="0.5" width="394" height="695" fill="none"/>
    </g>
    <text id="Add_Bank" data-name="Add Bank" transform="translate(199 2876)" fill="rgba(0,0,0,0.87)" font-size="16" font-family="Roboto-Medium, Roboto" font-weight="500" opacity="0.5"><tspan x="-34.348" y="0">Add Bank</tspan></text>
    <text id="Bank_of_America" data-name="Bank of America" transform="translate(222 2703)" fill="rgba(0,0,0,0.87)" font-size="16" font-family="Roboto-Medium, Roboto" font-weight="500"><tspan x="-59.137" y="0">Bank of America</tspan></text>
    <text id="Visa_Debit_Card" data-name="Visa Debit Card" transform="translate(218 2773)" fill="rgba(0,0,0,0.87)" font-size="16" font-family="Roboto-Medium, Roboto" font-weight="500"><tspan x="-55.191" y="0">Visa Debit Card</tspan></text>
    <text id="Checking_account_ending_in_7445" data-name="Checking account ending in 7445" transform="translate(250 2723)" fill="rgba(0,0,0,0.87)" font-size="12" font-family="Roboto-Italic, Roboto" font-style="italic"><tspan x="-86.701" y="0">Checking account ending in 7445</tspan></text>
    <text id="Debit_Card_ending_in_4326" data-name="Debit Card ending in 4326" transform="translate(230 2793)" fill="rgba(0,0,0,0.87)" font-size="12" font-family="Roboto-Italic, Roboto" font-style="italic"><tspan x="-67.292" y="0">Debit Card ending in 4326</tspan></text>
    <text id="Add_Card" data-name="Add Card" transform="translate(198 2933)" fill="rgba(0,0,0,0.87)" font-size="16" font-family="Roboto-Medium, Roboto" font-weight="500" opacity="0.5"><tspan x="-33.152" y="0">Add Card</tspan></text>
    <text id="Setup_AutoPay" data-name="Setup AutoPay" transform="translate(216 2990)" fill="rgba(0,0,0,0.87)" font-size="16" font-family="Roboto-Medium, Roboto" font-weight="500" opacity="0.5"><tspan x="-52.781" y="0">Setup AutoPay</tspan></text>
    <rect id="Rectangle_165" data-name="Rectangle 165" width="30" height="30" rx="5" transform="translate(112 2855)" fill="#edeaea"/>
    <rect id="Rectangle_173" data-name="Rectangle 173" width="30" height="30" rx="5" transform="translate(112 2912)" fill="#edeaea"/>
    <rect id="Rectangle_179" data-name="Rectangle 179" width="30" height="30" rx="5" transform="translate(112 2969)" fill="#edeaea"/>
    <g id="add-24px" transform="translate(115 2858)">
      <path id="Path_1796" data-name="Path 1796" d="M19,13H13v6H11V13H5V11h6V5h2v6h6Z" fill="#707070"/>
      <path id="Path_1797" data-name="Path 1797" d="M0,0H24V24H0Z" fill="none"/>
    </g>
    <g id="add-24px-2" data-name="add-24px" transform="translate(115 2915)">
      <path id="Path_1796-2" data-name="Path 1796" d="M19,13H13v6H11V13H5V11h6V5h2v6h6Z" fill="#707070"/>
      <path id="Path_1797-2" data-name="Path 1797" d="M0,0H24V24H0Z" fill="none"/>
    </g>
    <g id="add-24px-3" data-name="add-24px" transform="translate(115 2972)">
      <path id="Path_1796-3" data-name="Path 1796" d="M19,13H13v6H11V13H5V11h6V5h2v6h6Z" fill="#707070"/>
      <path id="Path_1797-3" data-name="Path 1797" d="M0,0H24V24H0Z" fill="none"/>
    </g>
    <g id="account_balance-24px" transform="translate(112 2685)">
      <g id="Group_767" data-name="Group 767">
        <rect id="Rectangle_174" data-name="Rectangle 174" width="24" height="24" fill="none"/>
      </g>
      <g id="Group_769" data-name="Group 769">
        <g id="Group_768" data-name="Group 768">
          <rect id="Rectangle_175" data-name="Rectangle 175" width="3" height="7" transform="translate(4 10)"/>
          <rect id="Rectangle_176" data-name="Rectangle 176" width="3" height="7" transform="translate(10.5 10)"/>
          <rect id="Rectangle_177" data-name="Rectangle 177" width="20" height="3" transform="translate(2 19)"/>
          <rect id="Rectangle_178" data-name="Rectangle 178" width="3" height="7" transform="translate(17 10)"/>
          <path id="Path_1798" data-name="Path 1798" d="M12,1,2,6V8H22V6Z"/>
        </g>
      </g>
    </g>
    <g id="credit_card-24px" transform="translate(112 2758)">
      <path id="Path_1799" data-name="Path 1799" d="M0,0H24V24H0Z" fill="none"/>
      <path id="Path_1800" data-name="Path 1800" d="M20,4H4A1.985,1.985,0,0,0,2.01,6L2,18a1.993,1.993,0,0,0,2,2H20a1.993,1.993,0,0,0,2-2V6A1.993,1.993,0,0,0,20,4Zm0,14H4V12H20ZM20,8H4V6H20Z"/>
    </g>
    <g id="navigate_next-24px" transform="translate(396 2696)" opacity="0.5">
      <path id="Path_1801" data-name="Path 1801" d="M10,6,8.59,7.41,13.17,12,8.59,16.59,10,18l6-6Z"/>
      <path id="Path_1802" data-name="Path 1802" d="M0,0H24V24H0Z" fill="none"/>
    </g>
    <g id="navigate_next-24px-2" data-name="navigate_next-24px" transform="translate(396 2766)" opacity="0.5">
      <path id="Path_1801-2" data-name="Path 1801" d="M10,6,8.59,7.41,13.17,12,8.59,16.59,10,18l6-6Z"/>
      <path id="Path_1802-2" data-name="Path 1802" d="M0,0H24V24H0Z" fill="none"/>
    </g>
    <text id="_100.00" data-name="$100.00" transform="translate(177 2578)" fill="rgba(0,0,0,0.87)" font-size="50" font-family="Roboto-Bold, Roboto" font-weight="700"><tspan x="0" y="0">$100.00</tspan></text>
    <text id="Due_2_1_20" data-name="Due 2/1/20" transform="translate(271 2609)" fill="rgba(0,0,0,0.87)" font-size="20" font-family="Roboto-Bold, Roboto" font-weight="700" opacity="0.5"><tspan x="-50.41" y="0">Due 2/1/20</tspan></text>
    <g id="Group_796" data-name="Group 796" transform="translate(83 2412)">
      <rect id="bg" width="126" height="52" rx="26" transform="translate(214 662)" fill="#707070"/>
      <text id="PAY_100" data-name="PAY $100" transform="translate(277 693)" fill="#fff" font-size="14" font-family="Montserrat-SemiBold, Montserrat" font-weight="600" letter-spacing="0.004em"><tspan x="-32.893" y="0">PAY $100</tspan></text>
    </g>
    <rect id="bg-2" data-name="bg" width="126" height="52" rx="26" transform="translate(119 3074)" fill="#edeaea"/>
    <text id="PAY_OTHER" data-name="PAY OTHER" transform="translate(182 3105)" fill="#707070" font-size="14" font-family="Montserrat-SemiBold, Montserrat" font-weight="600" letter-spacing="0.004em"><tspan x="-42.014" y="0">PAY OTHER</tspan></text>
    <g id="Rectangle_1627" data-name="Rectangle 1627" transform="translate(115 3070)" fill="none" stroke="#e50a45" stroke-width="5">
      <rect width="134" height="58" rx="29" stroke="none"/>
      <rect x="2.5" y="2.5" width="129" height="53" rx="26.5" fill="none"/>
    </g>
    <g id="Group_1905" data-name="Group 1905" transform="translate(75 -222)">
      <circle id="Ellipse_17" data-name="Ellipse 17" cx="16" cy="16" r="16" transform="translate(28 3282)" fill="#e50a45"/>
      <text id="_1" data-name="1" transform="translate(40 3305)" fill="#fff" font-size="20" font-family="Montserrat-ExtraBold, Montserrat" font-weight="800"><tspan x="0" y="0">1</tspan></text>
    </g>
  </g>
</svg>
