<svg xmlns="http://www.w3.org/2000/svg" width="395" height="696" viewBox="0 0 395 696">
  <g id="Group_1982" data-name="Group 1982" transform="translate(-994 -2467)">
    <g id="Body" transform="translate(994 2467)" fill="#fff" stroke="#707070" stroke-width="1">
      <rect width="395" height="696" stroke="none"/>
      <rect x="0.5" y="0.5" width="394" height="695" fill="none"/>
    </g>
    <g id="Group_1897" data-name="Group 1897" transform="translate(-346 -205)">
      <text id="_50.00" data-name="$50.00" transform="translate(1437 2797)" fill="rgba(0,0,0,0.87)" font-size="60" font-family="Roboto-Bold, Roboto" font-weight="700"><tspan x="0" y="0">$50.00</tspan></text>
      <rect id="bg" width="327" height="52" rx="26" transform="translate(1375 3275)" fill="#707070"/>
      <text id="PAY_50" data-name="PAY $50" transform="translate(1539 3306)" fill="#fff" font-size="14" font-family="Montserrat-SemiBold, Montserrat" font-weight="600" letter-spacing="0.004em"><tspan x="-29.645" y="0">PAY $50</tspan></text>
      <text id="Bank_of_America" data-name="Bank of America" transform="translate(1488 2913)" fill="rgba(0,0,0,0.87)" font-size="16" font-family="Roboto-Medium, Roboto" font-weight="500"><tspan x="-59.137" y="0">Bank of America</tspan></text>
      <text id="Visa_Debit_Card" data-name="Visa Debit Card" transform="translate(1484 3001)" fill="rgba(0,0,0,0.87)" font-size="16" font-family="Roboto-Medium, Roboto" font-weight="500"><tspan x="-55.191" y="0">Visa Debit Card</tspan></text>
      <text id="Checking_account_ending_in_7445" data-name="Checking account ending in 7445" transform="translate(1516 2933)" fill="rgba(0,0,0,0.87)" font-size="12" font-family="Roboto-Italic, Roboto" font-style="italic"><tspan x="-86.701" y="0">Checking account ending in 7445</tspan></text>
      <text id="Debit_Card_ending_in_4326" data-name="Debit Card ending in 4326" transform="translate(1496 3021)" fill="rgba(0,0,0,0.87)" font-size="12" font-family="Roboto-Italic, Roboto" font-style="italic"><tspan x="-67.292" y="0">Debit Card ending in 4326</tspan></text>
      <g id="account_balance-24px" transform="translate(1378 2895)">
        <g id="Group_767" data-name="Group 767">
          <rect id="Rectangle_174" data-name="Rectangle 174" width="24" height="24" fill="none"/>
        </g>
        <g id="Group_769" data-name="Group 769">
          <g id="Group_768" data-name="Group 768">
            <rect id="Rectangle_175" data-name="Rectangle 175" width="3" height="7" transform="translate(4 10)"/>
            <rect id="Rectangle_176" data-name="Rectangle 176" width="3" height="7" transform="translate(10.5 10)"/>
            <rect id="Rectangle_177" data-name="Rectangle 177" width="20" height="3" transform="translate(2 19)"/>
            <rect id="Rectangle_178" data-name="Rectangle 178" width="3" height="7" transform="translate(17 10)"/>
            <path id="Path_1798" data-name="Path 1798" d="M12,1,2,6V8H22V6Z"/>
          </g>
        </g>
      </g>
      <g id="credit_card-24px" transform="translate(1378 2986)">
        <path id="Path_1799" data-name="Path 1799" d="M0,0H24V24H0Z" fill="none"/>
        <path id="Path_1800" data-name="Path 1800" d="M20,4H4A1.985,1.985,0,0,0,2.01,6L2,18a1.993,1.993,0,0,0,2,2H20a1.993,1.993,0,0,0,2-2V6A1.993,1.993,0,0,0,20,4Zm0,14H4V12H20ZM20,8H4V6H20Z"/>
      </g>
      <g id="Rectangle_183" data-name="Rectangle 183" transform="translate(1662 2993)" fill="#fff" stroke="#ddd" stroke-width="2">
        <rect width="24" height="24" rx="3" stroke="none"/>
        <rect x="1" y="1" width="22" height="22" rx="2" fill="none"/>
      </g>
      <g id="Rectangle_183-2" data-name="Rectangle 183" transform="translate(1662 2905)" fill="#fff" stroke="#ddd" stroke-width="2">
        <rect width="24" height="24" rx="3" stroke="none"/>
        <rect x="1" y="1" width="22" height="22" rx="2" fill="none"/>
      </g>
      <text id="Add_Bank" data-name="Add Bank" transform="translate(1460 3079)" fill="rgba(0,0,0,0.87)" font-size="16" font-family="Roboto-Medium, Roboto" font-weight="500" opacity="0.5"><tspan x="-34.348" y="0">Add Bank</tspan></text>
      <text id="Add_Card" data-name="Add Card" transform="translate(1459 3136)" fill="rgba(0,0,0,0.87)" font-size="16" font-family="Roboto-Medium, Roboto" font-weight="500" opacity="0.5"><tspan x="-33.152" y="0">Add Card</tspan></text>
      <text id="Schedule_Payment" data-name="Schedule Payment" transform="translate(1493 3193)" fill="rgba(0,0,0,0.87)" font-size="16" font-family="Roboto-Medium, Roboto" font-weight="500" opacity="0.5"><tspan x="-66.637" y="0">Schedule Payment</tspan></text>
      <rect id="Rectangle_165" data-name="Rectangle 165" width="30" height="30" rx="5" transform="translate(1373 3058)" fill="#edeaea"/>
      <rect id="Rectangle_173" data-name="Rectangle 173" width="30" height="30" rx="5" transform="translate(1373 3115)" fill="#edeaea"/>
      <rect id="Rectangle_179" data-name="Rectangle 179" width="30" height="30" rx="5" transform="translate(1373 3172)" fill="#edeaea"/>
      <g id="add-24px" transform="translate(1376 3061)">
        <path id="Path_1796" data-name="Path 1796" d="M19,13H13v6H11V13H5V11h6V5h2v6h6Z" fill="#707070"/>
        <path id="Path_1797" data-name="Path 1797" d="M0,0H24V24H0Z" fill="none"/>
      </g>
      <g id="add-24px-2" data-name="add-24px" transform="translate(1376 3118)">
        <path id="Path_1796-2" data-name="Path 1796" d="M19,13H13v6H11V13H5V11h6V5h2v6h6Z" fill="#707070"/>
        <path id="Path_1797-2" data-name="Path 1797" d="M0,0H24V24H0Z" fill="none"/>
      </g>
      <g id="today-24px" transform="translate(1378 3177)">
        <path id="Path_2008" data-name="Path 2008" d="M0,0H21V21H0Z" fill="none"/>
        <path id="Path_2009" data-name="Path 2009" d="M17,2.75h-.875V1h-1.75V2.75h-7V1H5.625V2.75H4.75A1.742,1.742,0,0,0,3.009,4.5L3,16.75A1.75,1.75,0,0,0,4.75,18.5H17a1.755,1.755,0,0,0,1.75-1.75V4.5A1.755,1.755,0,0,0,17,2.75Zm0,14H4.75V7.125H17ZM6.5,8.875h4.375V13.25H6.5Z" transform="translate(-0.375 -0.125)" fill="#707070"/>
      </g>
      <text id="PAYMENT_DATE" data-name="PAYMENT DATE" transform="translate(1532 2830)" fill="rgba(0,0,0,0.87)" font-size="12" font-family="Roboto-Medium, Roboto" font-weight="500" opacity="0.5"><tspan x="-42.838" y="0">PAYMENT DATE</tspan></text>
      <text id="Today" transform="translate(1532 2852)" fill="rgba(0,0,0,0.87)" font-size="20" font-family="Roboto-Bold, Roboto" font-weight="700" opacity="0.5"><tspan x="-26.768" y="0">Today</tspan></text>
    </g>
    <g id="Rectangle_1628" data-name="Rectangle 1628" transform="translate(1014 2955)" fill="none" stroke="#e50a45" stroke-width="5">
      <rect width="225" height="55" stroke="none"/>
      <rect x="2.5" y="2.5" width="220" height="50" fill="none"/>
    </g>
    <circle id="Ellipse_17" data-name="Ellipse 17" cx="16" cy="16" r="16" transform="translate(1000 2941)" fill="#e50a45"/>
    <text id="_3" data-name="3" transform="translate(1010 2964)" fill="#fff" font-size="20" font-family="Montserrat-ExtraBold, Montserrat" font-weight="800"><tspan x="0" y="0">3</tspan></text>
  </g>
</svg>
