<svg id="Group_53" data-name="Group 53" xmlns="http://www.w3.org/2000/svg" width="1852" viewBox="0 0 1852 611" style="max-width:100%;">
  <g id="Rectangle_7" data-name="Rectangle 7" fill="#fff" stroke="#707070" stroke-width="1">
    <rect width="1852" height="611" stroke="none"/>
    <rect x="0.5" y="0.5" width="1851" height="610" fill="none"/>
  </g>
  <text id="Ting_receives_payment_vouchers_in_the_mail." data-name="Ting receives payment vouchers in the mail." transform="translate(97 320)" fill="#080808" font-size="20" font-family="SourceSansPro-Regular, Source Sans Pro"><tspan x="0" y="20">Ting receives </tspan><tspan x="0" y="46">payment vouchers </tspan><tspan x="0" y="72">in the mail.</tspan></text>
  <text id="She_sets_a_reminder_to_remember_to_make_the_payment._" data-name="She sets a reminder to remember to make the payment.
" transform="translate(398 320)" fill="#080808" font-size="20" font-family="SourceSansPro-Regular, Source Sans Pro"><tspan x="0" y="20">She sets a reminder </tspan><tspan x="0" y="46">to remember to </tspan><tspan x="0" y="72">make the payment.</tspan><tspan x="0" y="98"></tspan></text>
  <text id="Ting_receives_the_reminder_that_her_payment_is_due_in_a_week." data-name="Ting receives the reminder that her payment is due in a week." transform="translate(710 320)" fill="#080808" font-size="20" font-family="SourceSansPro-Regular, Source Sans Pro"><tspan x="0" y="20">Ting receives the </tspan><tspan x="0" y="46">reminder that her </tspan><tspan x="0" y="72">payment is due in </tspan><tspan x="0" y="98">a week.</tspan></text>
  <text id="She_grabs_a_check_payment_voucher_envelope_and_a_stamp." data-name="She grabs a check, payment voucher, envelope, and a stamp." transform="translate(1008 320)" fill="#080808" font-size="20" font-family="SourceSansPro-Regular, Source Sans Pro"><tspan x="0" y="20">She grabs a check, </tspan><tspan x="0" y="46">payment voucher, </tspan><tspan x="0" y="72">envelope, and a </tspan><tspan x="0" y="98">stamp.</tspan></text>
  <text id="Later_she_heads_to_the_post_office_for_stamps_since_she_used_her_last_one." data-name="Later, she heads to the post office for stamps since she used her last one." transform="translate(1600 320)" fill="#080808" font-size="20" font-family="SourceSansPro-Regular, Source Sans Pro"><tspan x="0" y="20">Later, she heads to </tspan><tspan x="0" y="46">the post office for </tspan><tspan x="0" y="72">stamps since she </tspan><tspan x="0" y="98">used her last one.</tspan></text>
  <text id="Ting_gets_her_payment_ready_and_puts_it_in_the_mailbox." data-name="Ting gets her payment ready and puts it in the mailbox." transform="translate(1307 320)" fill="#080808" font-size="20" font-family="SourceSansPro-Regular, Source Sans Pro"><tspan x="0" y="20">Ting gets her </tspan><tspan x="0" y="46">payment ready and </tspan><tspan x="0" y="72">puts it in the </tspan><tspan x="0" y="98">mailbox.</tspan></text>
  <line id="Line_1" data-name="Line 1" x2="80" transform="translate(291.5 321.5)" fill="none" stroke="#00bcd4" stroke-width="2"/>
  <line id="Line_2" data-name="Line 2" x2="80" transform="translate(590.5 321.5)" fill="none" stroke="#00bcd4" stroke-width="2"/>
  <line id="Line_3" data-name="Line 3" x2="80" transform="translate(899.5 321.5)" fill="none" stroke="#00bcd4" stroke-width="2"/>
  <line id="Line_5" data-name="Line 5" x2="80" transform="translate(1202.5 322.5)" fill="none" stroke="#00bcd4" stroke-width="2"/>
  <line id="Line_4" data-name="Line 4" x2="80" transform="translate(1498.5 321.5)" fill="none" stroke="#00bcd4" stroke-width="2"/>
  <g id="Rectangle_1" data-name="Rectangle 1" transform="translate(81 169)" fill="none" stroke="#080808" stroke-width="1">
    <rect width="200" height="292" rx="10" stroke="none"/>
    <rect x="0.5" y="0.5" width="199" height="291" rx="9.5" fill="none"/>
  </g>
  <g id="Rectangle_2" data-name="Rectangle 2" transform="translate(381 169)" fill="none" stroke="#080808" stroke-width="1">
    <rect width="200" height="292" rx="10" stroke="none"/>
    <rect x="0.5" y="0.5" width="199" height="291" rx="9.5" fill="none"/>
  </g>
  <g id="Rectangle_3" data-name="Rectangle 3" transform="translate(688 169)" fill="none" stroke="#080808" stroke-width="1">
    <rect width="200" height="290" rx="10" stroke="none"/>
    <rect x="0.5" y="0.5" width="199" height="289" rx="9.5" fill="none"/>
  </g>
  <g id="Rectangle_4" data-name="Rectangle 4" transform="translate(993 169)" fill="none" stroke="#080808" stroke-width="1">
    <rect width="200" height="290" rx="10" stroke="none"/>
    <rect x="0.5" y="0.5" width="199" height="289" rx="9.5" fill="none"/>
  </g>
  <g id="Rectangle_5" data-name="Rectangle 5" transform="translate(1292 169)" fill="none" stroke="#080808" stroke-width="1">
    <rect width="200" height="290" rx="10" stroke="none"/>
    <rect x="0.5" y="0.5" width="199" height="289" rx="9.5" fill="none"/>
  </g>
  <g id="Rectangle_6" data-name="Rectangle 6" transform="translate(1585 169)" fill="none" stroke="#080808" stroke-width="1">
    <rect width="200" height="290" rx="10" stroke="none"/>
    <rect x="0.5" y="0.5" width="199" height="289" rx="9.5" fill="none"/>
  </g>
  <g id="Group_18" data-name="Group 18" transform="translate(302 -442)">
    <path id="Path_3" data-name="Path 3" d="M76.037,128a7.353,7.353,0,0,1,6.827,4.622l3.052,7.632H46.7l3.053-7.633A7.352,7.352,0,0,1,56.584,128ZM39.352,167.212a9.775,9.775,0,0,1-7.286-3.247,4.874,4.874,0,0,0-.066.8v7.352a4.9,4.9,0,0,0,4.9,4.9h4.9a4.9,4.9,0,0,0,4.9-4.9v-4.9Zm53.917,0H85.917v4.9a4.9,4.9,0,0,0,4.9,4.9h4.9a4.9,4.9,0,0,0,4.9-4.9v-7.352a4.874,4.874,0,0,0-.066-.8,9.775,9.775,0,0,1-7.286,3.247Z" transform="translate(1316.9 542.803)" fill="#3498db" opacity="0.4"/>
    <path id="Path_4" data-name="Path 4" d="M76.6,81.155H67.424l-2.549-6.372A17.068,17.068,0,0,0,48.949,64H29.5a17.074,17.074,0,0,0-15.93,10.783l-2.547,6.372H1.848A1.838,1.838,0,0,0,.067,83.439l.919,3.676a1.838,1.838,0,0,0,1.781,1.392H5.843a9.734,9.734,0,0,0-3.382,7.352v7.352a9.8,9.8,0,0,0,9.8,9.8H66.181a9.8,9.8,0,0,0,9.8-9.8V95.859A9.739,9.739,0,0,0,72.6,88.507h3.074a1.838,1.838,0,0,0,1.783-1.392l.919-3.676A1.838,1.838,0,0,0,76.6,81.155ZM22.669,78.424A7.352,7.352,0,0,1,29.5,73.8H48.949a7.353,7.353,0,0,1,6.827,4.622l3.052,7.632H19.616ZM14.715,93.409c2.941,0,7.352,4.4,7.352,7.329s-4.411,2.443-7.352,2.443a4.886,4.886,0,1,1,0-9.772Zm41.663,7.329c0-2.932,4.411-7.329,7.352-7.329a4.886,4.886,0,1,1,0,9.772C60.789,103.181,56.378,103.671,56.378,100.738Z" transform="translate(1343.988 597.001)"/>
  </g>
  <g id="Group_34" data-name="Group 34" transform="translate(146 -39)">
    <circle id="Ellipse_563" data-name="Ellipse 563" cx="29" cy="29" r="29" transform="translate(214 190)" fill="#29d9c2"/>
    <text id="_2" data-name="2" transform="translate(229 200)" fill="#fff" font-size="30" font-family="SourceSansPro-Bold, Source Sans Pro" font-weight="700" letter-spacing="0.003em"><tspan x="6.08" y="30">2</tspan></text>
  </g>
  <g id="Group_35" data-name="Group 35" transform="translate(365 -39)">
    <circle id="Ellipse_564" data-name="Ellipse 564" cx="29" cy="29" r="29" transform="translate(306 190)" fill="#29d9c2"/>
    <text id="_3" data-name="3" transform="translate(321 200)" fill="#fff" font-size="30" font-family="SourceSansPro-Bold, Source Sans Pro" font-weight="700" letter-spacing="0.003em"><tspan x="6.08" y="30">3</tspan></text>
  </g>
  <g id="Group_33" data-name="Group 33" transform="translate(-54 -39)">
    <circle id="Ellipse_565" data-name="Ellipse 565" cx="29" cy="29" r="29" transform="translate(122 190)" fill="#29d9c2"/>
    <text id="_1" data-name="1" transform="translate(137 200)" fill="#fff" font-size="30" font-family="SourceSansPro-Bold, Source Sans Pro" font-weight="700" letter-spacing="0.003em"><tspan x="6.08" y="30">1</tspan></text>
  </g>
  <g id="Group_36" data-name="Group 36" transform="translate(569 -39)">
    <circle id="Ellipse_566" data-name="Ellipse 566" cx="29" cy="29" r="29" transform="translate(398 190)" fill="#29d9c2"/>
    <text id="_4" data-name="4" transform="translate(413 200)" fill="#fff" font-size="30" font-family="SourceSansPro-Bold, Source Sans Pro" font-weight="700" letter-spacing="0.003em"><tspan x="6.08" y="30">4</tspan></text>
  </g>
  <g id="Group_38" data-name="Group 38" transform="translate(700 -36)">
    <circle id="Ellipse_563-2" data-name="Ellipse 563" cx="29" cy="29" r="29" transform="translate(871 187)" fill="#29d9c2"/>
    <text id="_6" data-name="6" transform="translate(886 197)" fill="#fff" font-size="30" font-family="SourceSansPro-Bold, Source Sans Pro" font-weight="700" letter-spacing="0.003em"><tspan x="6.08" y="30">6</tspan></text>
  </g>
  <g id="Group_37" data-name="Group 37" transform="translate(493 -36)">
    <circle id="Ellipse_565-2" data-name="Ellipse 565" cx="29" cy="29" r="29" transform="translate(779 187)" fill="#29d9c2"/>
    <text id="_5" data-name="5" transform="translate(794 197)" fill="#fff" font-size="30" font-family="SourceSansPro-Bold, Source Sans Pro" font-weight="700" letter-spacing="0.003em"><tspan x="6.08" y="30">5</tspan></text>
  </g>
  <g id="Group_14" data-name="Group 14" transform="translate(428 -367)">
    <path id="Path_1" data-name="Path 1" d="M0,384v12.2a7.32,7.32,0,0,0,7.32,7.32H41.477a7.32,7.32,0,0,0,7.32-7.32V384Zm24.4,14.639a4.88,4.88,0,1,1,4.88-4.88A4.88,4.88,0,0,1,24.4,398.639Z" transform="translate(29 255.556)" fill="#3498db" opacity="0.4"/>
    <path id="Path_2" data-name="Path 2" d="M0,58.556V7.32A7.32,7.32,0,0,1,7.32,0H41.477A7.32,7.32,0,0,1,48.8,7.32V58.556Z" transform="translate(29 581)"/>
  </g>
  <g id="Group_47" data-name="Group 47" transform="translate(-2098 -666)">
    <path id="Path_9" data-name="Path 9" d="M189.178,64H144a22.589,22.589,0,0,1,22.589,22.589v32.629a5.02,5.02,0,0,1-5.02,5.02h45.178a5.02,5.02,0,0,0,5.02-5.02V86.589A22.589,22.589,0,0,0,189.178,64Zm12.55,32.629a2.51,2.51,0,0,1-2.51,2.51H194.2a2.51,2.51,0,0,1-2.51-2.51V89.1H182.9a1.255,1.255,0,0,1-1.255-1.255v-2.51a1.255,1.255,0,0,1,1.255-1.255h16.314a2.51,2.51,0,0,1,2.51,2.51Z" transform="translate(3323.589 825)" fill="#3498db" opacity="0.4"/>
    <path id="Path_10" data-name="Path 10" d="M22.578,64A22.725,22.725,0,0,0,0,86.806v32.412a5.02,5.02,0,0,0,5.02,5.02H40.158a5.02,5.02,0,0,0,5.02-5.02V86.589A22.589,22.589,0,0,0,22.578,64Zm12.56,27.609a2.51,2.51,0,0,1-2.51,2.51H12.55a2.51,2.51,0,0,1-2.51-2.51v-5.02a2.51,2.51,0,0,1,2.51-2.51H32.629a2.51,2.51,0,0,1,2.51,2.51Zm42.668-7.53H61.493a1.255,1.255,0,0,0-1.255,1.255v2.51A1.255,1.255,0,0,0,61.493,89.1h8.785v7.53a2.51,2.51,0,0,0,2.51,2.51h5.02a2.51,2.51,0,0,0,2.51-2.51V86.589A2.51,2.51,0,0,0,77.807,84.079Z" transform="translate(3445 825)"/>
  </g>
  <g id="Group_48" data-name="Group 48" transform="translate(-2020 -594)">
    <path id="Path_5" data-name="Path 5" d="M64,90.559,86.484,106.8a6.546,6.546,0,0,0,7.71,0l22.484-16.242V68.39a4.39,4.39,0,0,0-4.39-4.39H68.39A4.39,4.39,0,0,0,64,68.39ZM77.17,77.17a2.195,2.195,0,0,1,2.195-2.195h21.949a2.195,2.195,0,0,1,2.195,2.195v2.195a2.195,2.195,0,0,1-2.195,2.195H79.364a2.195,2.195,0,0,1-2.195-2.195Zm0,10.975a2.195,2.195,0,0,1,2.195-2.195h21.949a2.195,2.195,0,0,1,2.195,2.195v2.195a2.195,2.195,0,0,1-2.195,2.195H79.364a2.195,2.195,0,0,1-2.195-2.195Z" transform="translate(2110.78 751.78)" fill="#3498db" opacity="0.4"/>
    <path id="Path_6" data-name="Path 6" d="M48.288,21.947a2.195,2.195,0,0,0-2.195-2.195H24.144a2.195,2.195,0,0,0-2.195,2.195v2.195a2.195,2.195,0,0,0,2.195,2.195H46.093a2.195,2.195,0,0,0,2.195-2.195Zm-2.195,8.78H24.144a2.195,2.195,0,0,0-2.195,2.195v2.195a2.195,2.195,0,0,0,2.195,2.195H46.093a2.195,2.195,0,0,0,2.195-2.195V32.922A2.195,2.195,0,0,0,46.093,30.727Zm-.905-25.05C42.883,4,38.3-.043,35.119,0,31.936-.043,27.354,4,25.05,5.677l-4.2,3.1H49.386ZM8.78,17.695C5.5,20.123,2.922,22.03,2.524,22.359A6.585,6.585,0,0,0,0,27.531V29l8.78,6.338Zm58.934,4.664c-.4-.316-2.977-2.236-6.256-4.65V35.336L70.237,29V27.531a6.585,6.585,0,0,0-2.524-5.172ZM35.119,57.217a10.973,10.973,0,0,1-6.432-2.084L0,34.417V63.651a6.585,6.585,0,0,0,6.585,6.585H63.653a6.585,6.585,0,0,0,6.585-6.585V34.417L41.553,55.132A10.975,10.975,0,0,1,35.119,57.217Z" transform="translate(2166 807.002)"/>
  </g>
  <g id="Group_51" data-name="Group 51" transform="translate(-3044 -703)">
    <path id="Path_19" data-name="Path 19" d="M151.15,29.879A22.685,22.685,0,0,0,132.771,7.591V4.6a4.6,4.6,0,0,0-9.194,0V7.591A22.685,22.685,0,0,0,105.2,29.879c0,14.7-5.192,19.182-7.968,22.162A4.493,4.493,0,0,0,96,55.162a4.6,4.6,0,0,0,4.61,4.6h55.136a4.6,4.6,0,0,0,4.61-4.6,4.486,4.486,0,0,0-1.237-3.12C156.342,49.061,151.15,44.576,151.15,29.879Z" transform="translate(3703.791 919)" fill="#3498db" opacity="0.4"/>
    <path id="Path_20" data-name="Path 20" d="M12.641,41.257H3.448a3.448,3.448,0,1,0,0,6.9h9.194a3.448,3.448,0,1,0,0-6.9Zm6.188-16.2-7.961-4.6A3.447,3.447,0,1,0,7.421,26.43l7.961,4.6a3.447,3.447,0,1,0,3.448-5.971Zm65.686,1.373a3.447,3.447,0,1,0-3.448-5.971l-7.961,4.6a3.447,3.447,0,1,0,3.448,5.971ZM45.968,90.673a9.194,9.194,0,0,0,9.194-9.194H36.775A9.194,9.194,0,0,0,45.968,90.673ZM88.489,41.257H79.3a3.448,3.448,0,0,0,0,6.9h9.194a3.448,3.448,0,0,0,0-6.9Z" transform="translate(3786 901.876)"/>
  </g>
  <g id="Group_49" data-name="Group 49" transform="translate(-4038 -706)">
    <path id="Path_23" data-name="Path 23" d="M44.746,228.972H4.972A4.972,4.972,0,0,0,0,233.944v2.486c3.977,2.983,3.48,2.983,17.9,13.424,1.492.994,4.475,3.977,6.961,3.977s5.469-2.983,6.961-3.48c14.418-10.441,13.921-10.441,17.9-13.424v-2.983A4.972,4.972,0,0,0,44.746,228.972ZM24.859,258.8c-3.977,0-7.955-3.48-9.944-4.972C4.972,246.87,1.989,244.384,0,242.893v20.882a4.972,4.972,0,0,0,4.972,4.972H44.746a4.972,4.972,0,0,0,4.972-4.972V242.893c-1.989,1.492-4.972,3.977-14.915,10.938C32.814,255.322,28.837,258.8,24.859,258.8ZM69.605,224v9.944h9.944V224Z" transform="translate(5086 729.803)" fill="#3498db" opacity="0.4"/>
    <path id="Path_24" data-name="Path 24" d="M138.577,24.859H88.859a4.972,4.972,0,0,0-4.972,4.972V34.8H98.8a9.958,9.958,0,0,1,9.9,8.983l.045-.034V64.634h29.831a4.972,4.972,0,0,0,4.972-4.972V29.831A4.972,4.972,0,0,0,138.577,24.859Zm-4.972,19.887h-9.944V34.8h9.944Zm-9.944-24.859V4.972A4.972,4.972,0,0,0,118.69,0H68.972A4.972,4.972,0,0,0,64,4.972V34.8H78.915V29.831a9.955,9.955,0,0,1,9.944-9.944Z" transform="translate(5031.943 919)"/>
  </g>
</svg>
