<svg id="Group_45" data-name="Group 45" xmlns="http://www.w3.org/2000/svg" width="1852" viewBox="0 0 1852 611" style="max-width:100%;">
  <g id="Rectangle_7" data-name="Rectangle 7" fill="#fff" stroke="#707070" stroke-width="1">
    <rect width="1852" height="611" stroke="none"/>
    <rect x="0.5" y="0.5" width="1851" height="610" fill="none"/>
  </g>
  <g id="Group_42" data-name="Group 42" transform="translate(3 -176)">
    <g id="Group_40" data-name="Group 40" transform="translate(0 -19)">
      <text id="Ting_calls_about_a_parking_garage_membership." data-name="Ting calls about a parking garage membership." transform="translate(94 515)" fill="#080808" font-size="20" font-family="SourceSansPro-Regular, Source Sans Pro"><tspan x="0" y="20">Ting calls about a </tspan><tspan x="0" y="46">parking garage </tspan><tspan x="0" y="72">membership.</tspan></text>
      <text id="They_give_her_the_details_and_email_her_an_application." data-name="They give her the details and email her an application." transform="translate(395 515)" fill="#080808" font-size="20" font-family="SourceSansPro-Regular, Source Sans Pro"><tspan x="0" y="20">They give her the </tspan><tspan x="0" y="46">details and email </tspan><tspan x="0" y="72">her an application.</tspan></text>
      <text id="She_prints_the_application_fills_it_out_scans_it_and_emails_it_back." data-name="She prints the application, fills it out, scans it, and emails it back." transform="translate(707 515)" fill="#080808" font-size="20" font-family="SourceSansPro-Regular, Source Sans Pro"><tspan x="0" y="20">She prints the </tspan><tspan x="0" y="46">application, fills it </tspan><tspan x="0" y="72">out, scans it, and </tspan><tspan x="0" y="98">emails it back.</tspan></text>
      <text id="Ting_receives_a_call_letting_her_know_her_application_has_been_processed." data-name="Ting receives a call letting her know her application has been processed." transform="translate(1005 515)" fill="#080808" font-size="20" font-family="SourceSansPro-Regular, Source Sans Pro"><tspan x="0" y="20">Ting receives a call </tspan><tspan x="0" y="46">letting her know her </tspan><tspan x="0" y="72">application has </tspan><tspan x="0" y="98">been processed.</tspan></text>
      <text id="Ting_can_now_start_using_the_parking_garages_with_her_key_card." data-name="Ting can now start using the parking garages with her key card." transform="translate(1597 515)" fill="#080808" font-size="20" font-family="SourceSansPro-Regular, Source Sans Pro"><tspan x="0" y="20">Ting can now start </tspan><tspan x="0" y="46">using the parking </tspan><tspan x="0" y="72">garages with her </tspan><tspan x="0" y="98">key card.</tspan></text>
      <text id="She_drives_to_the_company_s_office_to_pay_and_pick_up_her_key_card._" data-name="She drives to the company’s office to pay and pick up her key card. " transform="translate(1304 515)" fill="#080808" font-size="20" font-family="SourceSansPro-Regular, Source Sans Pro"><tspan x="0" y="20">She drives to the </tspan><tspan x="0" y="46">company’s office to </tspan><tspan x="0" y="72">pay and pick up her </tspan><tspan x="0" y="98">key card. </tspan></text>
    </g>
    <line id="Line_1" data-name="Line 1" x2="80" transform="translate(288.5 497.5)" fill="none" stroke="#00bcd4" stroke-width="2"/>
    <line id="Line_2" data-name="Line 2" x2="80" transform="translate(587.5 497.5)" fill="none" stroke="#00bcd4" stroke-width="2"/>
    <line id="Line_3" data-name="Line 3" x2="80" transform="translate(896.5 497.5)" fill="none" stroke="#00bcd4" stroke-width="2"/>
    <line id="Line_5" data-name="Line 5" x2="80" transform="translate(1199.5 498.5)" fill="none" stroke="#00bcd4" stroke-width="2"/>
    <line id="Line_4" data-name="Line 4" x2="80" transform="translate(1495.5 497.5)" fill="none" stroke="#00bcd4" stroke-width="2"/>
    <g id="Group_41" data-name="Group 41">
      <g id="Rectangle_1" data-name="Rectangle 1" transform="translate(78 345)" fill="none" stroke="#080808" stroke-width="1">
        <rect width="200" height="292" rx="10" stroke="none"/>
        <rect x="0.5" y="0.5" width="199" height="291" rx="9.5" fill="none"/>
      </g>
      <g id="Rectangle_2" data-name="Rectangle 2" transform="translate(378 345)" fill="none" stroke="#080808" stroke-width="1">
        <rect width="200" height="292" rx="10" stroke="none"/>
        <rect x="0.5" y="0.5" width="199" height="291" rx="9.5" fill="none"/>
      </g>
      <g id="Rectangle_3" data-name="Rectangle 3" transform="translate(685 345)" fill="none" stroke="#080808" stroke-width="1">
        <rect width="200" height="290" rx="10" stroke="none"/>
        <rect x="0.5" y="0.5" width="199" height="289" rx="9.5" fill="none"/>
      </g>
      <g id="Rectangle_4" data-name="Rectangle 4" transform="translate(990 345)" fill="none" stroke="#080808" stroke-width="1">
        <rect width="200" height="290" rx="10" stroke="none"/>
        <rect x="0.5" y="0.5" width="199" height="289" rx="9.5" fill="none"/>
      </g>
      <g id="Rectangle_5" data-name="Rectangle 5" transform="translate(1289 345)" fill="none" stroke="#080808" stroke-width="1">
        <rect width="200" height="290" rx="10" stroke="none"/>
        <rect x="0.5" y="0.5" width="199" height="289" rx="9.5" fill="none"/>
      </g>
      <g id="Rectangle_6" data-name="Rectangle 6" transform="translate(1582 345)" fill="none" stroke="#080808" stroke-width="1">
        <rect width="200" height="290" rx="10" stroke="none"/>
        <rect x="0.5" y="0.5" width="199" height="289" rx="9.5" fill="none"/>
      </g>
    </g>
    <g id="Group_39" data-name="Group 39" transform="translate(1 -16)">
      <g id="Group_14" data-name="Group 14" transform="translate(125 -180)">
        <path id="Path_1" data-name="Path 1" d="M0,384v12.2a7.32,7.32,0,0,0,7.32,7.32H41.477a7.32,7.32,0,0,0,7.32-7.32V384Zm24.4,14.639a4.88,4.88,0,1,1,4.88-4.88A4.88,4.88,0,0,1,24.4,398.639Z" transform="translate(29 255.556)" fill="#3498db" opacity="0.4"/>
        <path id="Path_2" data-name="Path 2" d="M0,58.556V7.32A7.32,7.32,0,0,1,7.32,0H41.477A7.32,7.32,0,0,1,48.8,7.32V58.556Z" transform="translate(29 581)"/>
      </g>
      <g id="Group_32" data-name="Group 32" transform="translate(99 -135)">
        <path id="Path_17" data-name="Path 17" d="M52.678,17.559H37.314a2.195,2.195,0,0,1-2.195-2.195V0H3.292A3.284,3.284,0,0,0,0,3.276V66.945a3.284,3.284,0,0,0,3.276,3.292h46.11a3.284,3.284,0,0,0,3.292-3.276ZM39.509,51.032a1.646,1.646,0,0,1-1.646,1.646H14.816a1.646,1.646,0,0,1-1.646-1.646v-1.1a1.646,1.646,0,0,1,1.646-1.646H37.862a1.646,1.646,0,0,1,1.646,1.646Zm0-8.78A1.646,1.646,0,0,1,37.862,43.9H14.816a1.646,1.646,0,0,1-1.646-1.646v-1.1a1.646,1.646,0,0,1,1.646-1.646H37.862a1.646,1.646,0,0,1,1.646,1.646Zm0-8.78a1.646,1.646,0,0,1-1.646,1.646H14.816a1.646,1.646,0,0,1-1.646-1.646v-1.1a1.646,1.646,0,0,1,1.646-1.646H37.862a1.646,1.646,0,0,1,1.646,1.646Z" transform="translate(353 540)" fill="#3498db" opacity="0.4"/>
        <path id="Path_18" data-name="Path 18" d="M134.548,14.4,121.118.96A3.292,3.292,0,0,0,118.786,0h-.837V15.364a2.195,2.195,0,0,0,2.195,2.195h15.364v-.837a3.279,3.279,0,0,0-.96-2.318ZM120.693,48.288H97.646A1.646,1.646,0,0,0,96,49.935v1.1a1.646,1.646,0,0,0,1.646,1.646h23.047a1.646,1.646,0,0,0,1.646-1.646v-1.1A1.646,1.646,0,0,0,120.693,48.288Zm0-8.78H97.646A1.646,1.646,0,0,0,96,41.155v1.1A1.646,1.646,0,0,0,97.646,43.9h23.047a1.646,1.646,0,0,0,1.646-1.646v-1.1A1.646,1.646,0,0,0,120.693,39.509Zm0-8.78H97.646A1.646,1.646,0,0,0,96,32.375v1.1a1.646,1.646,0,0,0,1.646,1.646h23.047a1.646,1.646,0,0,0,1.646-1.646v-1.1a1.646,1.646,0,0,0-1.646-1.646Z" transform="translate(270.17 540)"/>
      </g>
      <g id="Group_16" data-name="Group 16" transform="translate(88 -155)">
        <path id="Path_15" data-name="Path 15" d="M0,292.058v16.234a4.058,4.058,0,0,0,4.058,4.059H77.111a4.058,4.058,0,0,0,4.058-4.059V288H4.058A4.058,4.058,0,0,0,0,292.058ZM15.219,302.2a1.015,1.015,0,0,1-1.015,1.015H10.146A1.015,1.015,0,0,1,9.132,302.2v-4.058a1.015,1.015,0,0,1,1.015-1.015H14.2a1.015,1.015,0,0,1,1.015,1.015Zm12.175,0a1.015,1.015,0,0,1-1.015,1.015H22.322a1.015,1.015,0,0,1-1.015-1.015v-4.058a1.015,1.015,0,0,1,1.015-1.015H26.38a1.015,1.015,0,0,1,1.015,1.015Z" transform="translate(656 310.468)" fill="#3498db" opacity="0.4"/>
        <path id="Path_16" data-name="Path 16" d="M78.358,55.949,4.6,32.1a2.029,2.029,0,0,0-2.568,1.281L.1,39.16a2.029,2.029,0,0,0,1.281,2.568L71.895,64.467h9.274V59.811a4.058,4.058,0,0,0-2.811-3.862ZM14.2,73.6H10.145a1.015,1.015,0,0,0-1.015,1.015v4.058a1.015,1.015,0,0,0,1.015,1.015H14.2a1.015,1.015,0,0,0,1.015-1.015V74.613A1.015,1.015,0,0,0,14.2,73.6Z" transform="translate(656.001 534.001)"/>
      </g>
      <g id="Group_17" data-name="Group 17" transform="translate(57 -225)">
        <path id="Path_11" data-name="Path 11" d="M38,62.875A10.688,10.688,0,1,0,48.687,73.563,10.688,10.688,0,0,0,38,62.875ZM75.136,45.508a57.8,57.8,0,0,0-74.272,0A2.442,2.442,0,0,0,0,47.384V55.75a2.375,2.375,0,0,0,2.375,2.375H12.782a2.375,2.375,0,0,0,2.124-1.313L19,46.25a47.409,47.409,0,0,1,19-3.563A47.438,47.438,0,0,1,57,46.25l4.094,10.561a2.375,2.375,0,0,0,2.124,1.314H73.625A2.375,2.375,0,0,0,76,55.75V47.384a2.442,2.442,0,0,0-.864-1.876Z" transform="translate(995 600)" fill="#3498db" opacity="0.4"/>
        <path id="Path_12" data-name="Path 12" d="M97.874,192.155,82.236,164.787A9.5,9.5,0,0,0,73.987,160H56.513a9.5,9.5,0,0,0-8.249,4.787L32.626,192.155A4.75,4.75,0,0,0,32,194.512v8.238a4.75,4.75,0,0,0,4.75,4.75h57a4.75,4.75,0,0,0,4.75-4.75v-8.238a4.749,4.749,0,0,0-.626-2.357Zm-32.624,1.1a10.688,10.688,0,1,1,10.688-10.687A10.688,10.688,0,0,1,65.25,193.25Z" transform="translate(967.75 491)"/>
      </g>
      <g id="Group_18" data-name="Group 18" transform="translate(6 -250)">
        <path id="Path_3" data-name="Path 3" d="M76.037,128a7.353,7.353,0,0,1,6.827,4.622l3.052,7.632H46.7l3.053-7.633A7.352,7.352,0,0,1,56.584,128ZM39.352,167.212a9.775,9.775,0,0,1-7.286-3.247,4.874,4.874,0,0,0-.066.8v7.352a4.9,4.9,0,0,0,4.9,4.9h4.9a4.9,4.9,0,0,0,4.9-4.9v-4.9Zm53.917,0H85.917v4.9a4.9,4.9,0,0,0,4.9,4.9h4.9a4.9,4.9,0,0,0,4.9-4.9v-7.352a4.874,4.874,0,0,0-.066-.8,9.775,9.775,0,0,1-7.286,3.247Z" transform="translate(1316.9 542.803)" fill="#3498db" opacity="0.4"/>
        <path id="Path_4" data-name="Path 4" d="M76.6,81.155H67.424l-2.549-6.372A17.068,17.068,0,0,0,48.949,64H29.5a17.074,17.074,0,0,0-15.93,10.783l-2.547,6.372H1.848A1.838,1.838,0,0,0,.067,83.439l.919,3.676a1.838,1.838,0,0,0,1.781,1.392H5.843a9.734,9.734,0,0,0-3.382,7.352v7.352a9.8,9.8,0,0,0,9.8,9.8H66.181a9.8,9.8,0,0,0,9.8-9.8V95.859A9.739,9.739,0,0,0,72.6,88.507h3.074a1.838,1.838,0,0,0,1.783-1.392l.919-3.676A1.838,1.838,0,0,0,76.6,81.155ZM22.669,78.424A7.352,7.352,0,0,1,29.5,73.8H48.949a7.353,7.353,0,0,1,6.827,4.622l3.052,7.632H19.616ZM14.715,93.409c2.941,0,7.352,4.4,7.352,7.329s-4.411,2.443-7.352,2.443a4.886,4.886,0,1,1,0-9.772Zm41.663,7.329c0-2.932,4.411-7.329,7.352-7.329a4.886,4.886,0,1,1,0,9.772C60.789,103.181,56.378,103.671,56.378,100.738Z" transform="translate(1343.988 597.001)"/>
      </g>
      <g id="Group_19" data-name="Group 19" transform="translate(-13 -278)">
        <path id="Path_7" data-name="Path 7" d="M41.019,246.8l.014.012-3.248,3.654a3.248,3.248,0,0,1-2.428,1.083H30.318v5.414a3.248,3.248,0,0,1-3.248,3.248H21.656v5.414a3.248,3.248,0,0,1-3.248,3.248H3.248A3.248,3.248,0,0,1,0,265.629V255.072a3.248,3.248,0,0,1,.947-2.3l21.9-21.9-.015-.047A23.854,23.854,0,0,0,41.019,246.8Z" transform="translate(1660 483.421)" fill="#3498db" opacity="0.4"/>
        <path id="Path_8" data-name="Path 8" d="M183.822,0a23.822,23.822,0,1,0,23.822,23.821A23.822,23.822,0,0,0,183.822,0Zm6.5,23.822a6.5,6.5,0,1,1,6.5-6.5A6.5,6.5,0,0,1,190.318,23.822Z" transform="translate(1521.656 683)"/>
      </g>
    </g>
    <g id="Group_34" data-name="Group 34" transform="translate(143 137)">
      <circle id="Ellipse_563" data-name="Ellipse 563" cx="29" cy="29" r="29" transform="translate(214 190)" fill="#29d9c2"/>
      <text id="_2" data-name="2" transform="translate(229 200)" fill="#fff" font-size="30" font-family="SourceSansPro-Bold, Source Sans Pro" font-weight="700" letter-spacing="0.003em"><tspan x="6.08" y="30">2</tspan></text>
    </g>
    <g id="Group_35" data-name="Group 35" transform="translate(362 137)">
      <circle id="Ellipse_564" data-name="Ellipse 564" cx="29" cy="29" r="29" transform="translate(306 190)" fill="#29d9c2"/>
      <text id="_3" data-name="3" transform="translate(321 200)" fill="#fff" font-size="30" font-family="SourceSansPro-Bold, Source Sans Pro" font-weight="700" letter-spacing="0.003em"><tspan x="6.08" y="30">3</tspan></text>
    </g>
    <g id="Group_33" data-name="Group 33" transform="translate(-57 137)">
      <circle id="Ellipse_565" data-name="Ellipse 565" cx="29" cy="29" r="29" transform="translate(122 190)" fill="#29d9c2"/>
      <text id="_1" data-name="1" transform="translate(137 200)" fill="#fff" font-size="30" font-family="SourceSansPro-Bold, Source Sans Pro" font-weight="700" letter-spacing="0.003em"><tspan x="6.08" y="30">1</tspan></text>
    </g>
    <g id="Group_36" data-name="Group 36" transform="translate(566 137)">
      <circle id="Ellipse_566" data-name="Ellipse 566" cx="29" cy="29" r="29" transform="translate(398 190)" fill="#29d9c2"/>
      <text id="_4" data-name="4" transform="translate(413 200)" fill="#fff" font-size="30" font-family="SourceSansPro-Bold, Source Sans Pro" font-weight="700" letter-spacing="0.003em"><tspan x="6.08" y="30">4</tspan></text>
    </g>
    <g id="Group_38" data-name="Group 38" transform="translate(697 140)">
      <circle id="Ellipse_563-2" data-name="Ellipse 563" cx="29" cy="29" r="29" transform="translate(871 187)" fill="#29d9c2"/>
      <text id="_6" data-name="6" transform="translate(886 197)" fill="#fff" font-size="30" font-family="SourceSansPro-Bold, Source Sans Pro" font-weight="700" letter-spacing="0.003em"><tspan x="6.08" y="30">6</tspan></text>
    </g>
    <g id="Group_37" data-name="Group 37" transform="translate(490 140)">
      <circle id="Ellipse_565-2" data-name="Ellipse 565" cx="29" cy="29" r="29" transform="translate(779 187)" fill="#29d9c2"/>
      <text id="_5" data-name="5" transform="translate(794 197)" fill="#fff" font-size="30" font-family="SourceSansPro-Bold, Source Sans Pro" font-weight="700" letter-spacing="0.003em"><tspan x="6.08" y="30">5</tspan></text>
    </g>
  </g>
</svg>
