<svg id="Group_261" data-name="Group 261" xmlns="http://www.w3.org/2000/svg" width="1852" viewBox="0 0 1852 611" style="max-width:100%;">
  <g id="Rectangle_7" data-name="Rectangle 7" fill="#fff" stroke="#707070" stroke-width="1">
    <rect width="1852" height="611" stroke="none"/>
    <rect x="0.5" y="0.5" width="1851" height="610" fill="none"/>
  </g>
  <text id="Max_downloads_the_app_from_the_App_Store." data-name="Max downloads the app from the App Store." transform="translate(97 320)" fill="#080808" font-size="20" font-family="SourceSansPro-Regular, Source Sans Pro"><tspan x="0" y="20">Max downloads the </tspan><tspan x="0" y="46">app from the App </tspan><tspan x="0" y="72">Store.</tspan></text>
  <text id="Max_uses_his_Apple_ID_to_create_an_account." data-name="Max uses his Apple ID to create an account." transform="translate(398 320)" fill="#080808" font-size="20" font-family="SourceSansPro-Regular, Source Sans Pro"><tspan x="0" y="20">Max uses his Apple </tspan><tspan x="0" y="46">ID to create an </tspan><tspan x="0" y="72">account.</tspan></text>
  <text id="He_pays_for_his_first_month_with_Apple_Pay." data-name="He pays for his first month with Apple Pay." transform="translate(710 320)" fill="#080808" font-size="20" font-family="SourceSansPro-Regular, Source Sans Pro"><tspan x="0" y="20">He pays for his </tspan><tspan x="0" y="46">first month with </tspan><tspan x="0" y="72">Apple Pay.</tspan></text>
  <text id="Max_enables_notifications_for_a_better_experience." data-name="Max enables notifications for a better experience." transform="translate(1008 320)" fill="#080808" font-size="20" font-family="SourceSansPro-Regular, Source Sans Pro"><tspan x="0" y="20">Max enables </tspan><tspan x="0" y="46">notifications for a </tspan><tspan x="0" y="72">better experience.</tspan></text>
  <text id="He_scans_the_barcode_in_the_app_for_entry_into_the_garage." data-name="He scans the barcode in the app for entry into the garage." transform="translate(1600 320)" fill="#080808" font-size="20" font-family="SourceSansPro-Regular, Source Sans Pro"><tspan x="0" y="20">He scans the </tspan><tspan x="0" y="46">barcode in the app </tspan><tspan x="0" y="72">for entry into the </tspan><tspan x="0" y="98">garage.</tspan></text>
  <text id="Max_uses_the_app_to_find_parking_near_his_next_meeting." data-name="Max uses the app to find parking near his next meeting." transform="translate(1307 320)" fill="#080808" font-size="20" font-family="SourceSansPro-Regular, Source Sans Pro"><tspan x="0" y="20">Max uses the app to </tspan><tspan x="0" y="46">find parking near </tspan><tspan x="0" y="72">his next meeting.</tspan></text>
  <line id="Line_1" data-name="Line 1" x2="80" transform="translate(291.5 321.5)" fill="none" stroke="#00bcd4" stroke-width="2"/>
  <line id="Line_2" data-name="Line 2" x2="80" transform="translate(590.5 321.5)" fill="none" stroke="#00bcd4" stroke-width="2"/>
  <line id="Line_3" data-name="Line 3" x2="80" transform="translate(899.5 321.5)" fill="none" stroke="#00bcd4" stroke-width="2"/>
  <line id="Line_5" data-name="Line 5" x2="80" transform="translate(1202.5 322.5)" fill="none" stroke="#00bcd4" stroke-width="2"/>
  <line id="Line_4" data-name="Line 4" x2="80" transform="translate(1498.5 321.5)" fill="none" stroke="#00bcd4" stroke-width="2"/>
  <g id="Rectangle_1" data-name="Rectangle 1" transform="translate(81 169)" fill="none" stroke="#080808" stroke-width="1">
    <rect width="200" height="292" rx="10" stroke="none"/>
    <rect x="0.5" y="0.5" width="199" height="291" rx="9.5" fill="none"/>
  </g>
  <g id="Rectangle_2" data-name="Rectangle 2" transform="translate(381 169)" fill="none" stroke="#080808" stroke-width="1">
    <rect width="200" height="292" rx="10" stroke="none"/>
    <rect x="0.5" y="0.5" width="199" height="291" rx="9.5" fill="none"/>
  </g>
  <g id="Rectangle_3" data-name="Rectangle 3" transform="translate(688 169)" fill="none" stroke="#080808" stroke-width="1">
    <rect width="200" height="290" rx="10" stroke="none"/>
    <rect x="0.5" y="0.5" width="199" height="289" rx="9.5" fill="none"/>
  </g>
  <g id="Rectangle_4" data-name="Rectangle 4" transform="translate(993 169)" fill="none" stroke="#080808" stroke-width="1">
    <rect width="200" height="290" rx="10" stroke="none"/>
    <rect x="0.5" y="0.5" width="199" height="289" rx="9.5" fill="none"/>
  </g>
  <g id="Rectangle_5" data-name="Rectangle 5" transform="translate(1292 169)" fill="none" stroke="#080808" stroke-width="1">
    <rect width="200" height="290" rx="10" stroke="none"/>
    <rect x="0.5" y="0.5" width="199" height="289" rx="9.5" fill="none"/>
  </g>
  <g id="Rectangle_6" data-name="Rectangle 6" transform="translate(1585 169)" fill="none" stroke="#080808" stroke-width="1">
    <rect width="200" height="290" rx="10" stroke="none"/>
    <rect x="0.5" y="0.5" width="199" height="289" rx="9.5" fill="none"/>
  </g>
  <g id="Group_18" data-name="Group 18" transform="translate(9 -442)">
    <path id="Path_3" data-name="Path 3" d="M76.037,128a7.353,7.353,0,0,1,6.827,4.622l3.052,7.632H46.7l3.053-7.633A7.352,7.352,0,0,1,56.584,128ZM39.352,167.212a9.775,9.775,0,0,1-7.286-3.247,4.874,4.874,0,0,0-.066.8v7.352a4.9,4.9,0,0,0,4.9,4.9h4.9a4.9,4.9,0,0,0,4.9-4.9v-4.9Zm53.917,0H85.917v4.9a4.9,4.9,0,0,0,4.9,4.9h4.9a4.9,4.9,0,0,0,4.9-4.9v-7.352a4.874,4.874,0,0,0-.066-.8,9.775,9.775,0,0,1-7.286,3.247Z" transform="translate(1316.9 542.803)" fill="#3498db" opacity="0.4"/>
    <path id="Path_4" data-name="Path 4" d="M76.6,81.155H67.424l-2.549-6.372A17.068,17.068,0,0,0,48.949,64H29.5a17.074,17.074,0,0,0-15.93,10.783l-2.547,6.372H1.848A1.838,1.838,0,0,0,.067,83.439l.919,3.676a1.838,1.838,0,0,0,1.781,1.392H5.843a9.734,9.734,0,0,0-3.382,7.352v7.352a9.8,9.8,0,0,0,9.8,9.8H66.181a9.8,9.8,0,0,0,9.8-9.8V95.859A9.739,9.739,0,0,0,72.6,88.507h3.074a1.838,1.838,0,0,0,1.783-1.392l.919-3.676A1.838,1.838,0,0,0,76.6,81.155ZM22.669,78.424A7.352,7.352,0,0,1,29.5,73.8H48.949a7.353,7.353,0,0,1,6.827,4.622l3.052,7.632H19.616ZM14.715,93.409c2.941,0,7.352,4.4,7.352,7.329s-4.411,2.443-7.352,2.443a4.886,4.886,0,1,1,0-9.772Zm41.663,7.329c0-2.932,4.411-7.329,7.352-7.329a4.886,4.886,0,1,1,0,9.772C60.789,103.181,56.378,103.671,56.378,100.738Z" transform="translate(1343.988 597.001)"/>
  </g>
  <g id="Group_34" data-name="Group 34" transform="translate(146 -39)">
    <circle id="Ellipse_563" data-name="Ellipse 563" cx="29" cy="29" r="29" transform="translate(214 190)" fill="#29d9c2"/>
    <text id="_2" data-name="2" transform="translate(229 200)" fill="#fff" font-size="30" font-family="SourceSansPro-Bold, Source Sans Pro" font-weight="700" letter-spacing="0.003em"><tspan x="6.08" y="30">2</tspan></text>
  </g>
  <g id="Group_35" data-name="Group 35" transform="translate(365 -39)">
    <circle id="Ellipse_564" data-name="Ellipse 564" cx="29" cy="29" r="29" transform="translate(306 190)" fill="#29d9c2"/>
    <text id="_3" data-name="3" transform="translate(321 200)" fill="#fff" font-size="30" font-family="SourceSansPro-Bold, Source Sans Pro" font-weight="700" letter-spacing="0.003em"><tspan x="6.08" y="30">3</tspan></text>
  </g>
  <g id="Group_33" data-name="Group 33" transform="translate(-54 -39)">
    <circle id="Ellipse_565" data-name="Ellipse 565" cx="29" cy="29" r="29" transform="translate(122 190)" fill="#29d9c2"/>
    <text id="_1" data-name="1" transform="translate(137 200)" fill="#fff" font-size="30" font-family="SourceSansPro-Bold, Source Sans Pro" font-weight="700" letter-spacing="0.003em"><tspan x="6.08" y="30">1</tspan></text>
  </g>
  <g id="Group_36" data-name="Group 36" transform="translate(569 -39)">
    <circle id="Ellipse_566" data-name="Ellipse 566" cx="29" cy="29" r="29" transform="translate(398 190)" fill="#29d9c2"/>
    <text id="_4" data-name="4" transform="translate(413 200)" fill="#fff" font-size="30" font-family="SourceSansPro-Bold, Source Sans Pro" font-weight="700" letter-spacing="0.003em"><tspan x="6.08" y="30">4</tspan></text>
  </g>
  <g id="Group_38" data-name="Group 38" transform="translate(700 -36)">
    <circle id="Ellipse_563-2" data-name="Ellipse 563" cx="29" cy="29" r="29" transform="translate(871 187)" fill="#29d9c2"/>
    <text id="_6" data-name="6" transform="translate(886 197)" fill="#fff" font-size="30" font-family="SourceSansPro-Bold, Source Sans Pro" font-weight="700" letter-spacing="0.003em"><tspan x="6.08" y="30">6</tspan></text>
  </g>
  <g id="Group_37" data-name="Group 37" transform="translate(493 -36)">
    <circle id="Ellipse_565-2" data-name="Ellipse 565" cx="29" cy="29" r="29" transform="translate(779 187)" fill="#29d9c2"/>
    <text id="_5" data-name="5" transform="translate(794 197)" fill="#fff" font-size="30" font-family="SourceSansPro-Bold, Source Sans Pro" font-weight="700" letter-spacing="0.003em"><tspan x="6.08" y="30">5</tspan></text>
  </g>
  <g id="Group_14" data-name="Group 14" transform="translate(128 -372)">
    <path id="Path_1" data-name="Path 1" d="M0,384v12.2a7.32,7.32,0,0,0,7.32,7.32H41.477a7.32,7.32,0,0,0,7.32-7.32V384Zm24.4,14.639a4.88,4.88,0,1,1,4.88-4.88A4.88,4.88,0,0,1,24.4,398.639Z" transform="translate(29 255.556)" fill="#3498db" opacity="0.4"/>
    <path id="Path_2" data-name="Path 2" d="M0,58.556V7.32A7.32,7.32,0,0,1,7.32,0H41.477A7.32,7.32,0,0,1,48.8,7.32V58.556Z" transform="translate(29 581)"/>
  </g>
  <g id="Group_51" data-name="Group 51" transform="translate(-2739 -707)">
    <path id="Path_19" data-name="Path 19" d="M151.15,29.879A22.685,22.685,0,0,0,132.771,7.591V4.6a4.6,4.6,0,0,0-9.194,0V7.591A22.685,22.685,0,0,0,105.2,29.879c0,14.7-5.192,19.182-7.968,22.162A4.493,4.493,0,0,0,96,55.162a4.6,4.6,0,0,0,4.61,4.6h55.136a4.6,4.6,0,0,0,4.61-4.6,4.486,4.486,0,0,0-1.237-3.12C156.342,49.061,151.15,44.576,151.15,29.879Z" transform="translate(3703.791 919)" fill="#3498db" opacity="0.4"/>
    <path id="Path_20" data-name="Path 20" d="M12.641,41.257H3.448a3.448,3.448,0,1,0,0,6.9h9.194a3.448,3.448,0,1,0,0-6.9Zm6.188-16.2-7.961-4.6A3.447,3.447,0,1,0,7.421,26.43l7.961,4.6a3.447,3.447,0,1,0,3.448-5.971Zm65.686,1.373a3.447,3.447,0,1,0-3.448-5.971l-7.961,4.6a3.447,3.447,0,1,0,3.448,5.971ZM45.968,90.673a9.194,9.194,0,0,0,9.194-9.194H36.775A9.194,9.194,0,0,0,45.968,90.673ZM88.489,41.257H79.3a3.448,3.448,0,0,0,0,6.9h9.194a3.448,3.448,0,0,0,0-6.9Z" transform="translate(3786 901.876)"/>
  </g>
  <path id="barcode-regular" d="M0,116.022V64H3.526v52.022Zm5.26-.037V64H7.051v51.985Zm5.316,0V64h1.735v51.985Zm8.786,0V64H21.1v51.985Zm7.051,0V64h3.47v51.985Zm8.786,0V64h1.735v51.985Zm3.526,0V64H40.46v51.985Zm3.526,0V64h1.735v51.985Zm7,0V64h3.526v51.985Zm8.786,0V64h3.526v51.985Zm7.051,0V64h3.526v51.985Zm7.051,0V64h3.526v51.985Zm5.26,0V64h3.526v51.985Zm8.842,0V64H91.5v51.985Zm7,0V64h1.791v51.985H93.232Zm3.526.037V64h3.526v52.022Z" transform="translate(1634.964 158.424)" fill="#3498db" opacity="0.4"/>
  <g id="Group_206" data-name="Group 206" transform="translate(0 -8)">
    <g id="Group_203" data-name="Group 203">
      <path id="Path_364" data-name="Path 364" d="M0,.5V17.534" transform="translate(1627.5 273.728)" fill="none" stroke="#000" stroke-width="3"/>
      <path id="Path_1083" data-name="Path 1083" d="M0,0V15.96" transform="translate(1643.858 289.789) rotate(90)" fill="none" stroke="#000" stroke-width="3"/>
    </g>
    <g id="Group_204" data-name="Group 204">
      <path id="Path_364-2" data-name="Path 364" d="M.015.5V17.528" transform="translate(1743.592 273.728)" fill="none" stroke="#000" stroke-width="3"/>
      <path id="Path_1082" data-name="Path 1082" d="M0,15.96V0" transform="translate(1743.208 289.789) rotate(90)" fill="none" stroke="#000" stroke-width="3"/>
    </g>
  </g>
  <g id="Group_205" data-name="Group 205" transform="translate(0 8)">
    <g id="Group_202" data-name="Group 202">
      <path id="Path_364-3" data-name="Path 364" d="M0,16.659.015.5" transform="translate(1627.5 205.5)" fill="none" stroke="#000" stroke-width="3"/>
      <path id="Path_367" data-name="Path 367" d="M0,15.96V-1.892" transform="translate(1627.899 206.599) rotate(-90)" fill="none" stroke="#000" stroke-width="3"/>
    </g>
    <g id="Group_201" data-name="Group 201">
      <path id="Path_364-4" data-name="Path 364" d="M.015,16.659V-.383" transform="translate(1743.592 205.5)" fill="none" stroke="#000" stroke-width="3"/>
      <line id="Line_7" data-name="Line 7" y2="15.96" transform="translate(1727.248 206.599) rotate(-90)" fill="none" stroke="#000" stroke-width="3"/>
    </g>
  </g>
  <g id="Group_19" data-name="Group 19" transform="translate(-1212 -470)">
    <path id="Path_7" data-name="Path 7" d="M41.019,246.8l.014.012-3.248,3.654a3.248,3.248,0,0,1-2.428,1.083H30.318v5.414a3.248,3.248,0,0,1-3.248,3.248H21.656v5.414a3.248,3.248,0,0,1-3.248,3.248H3.248A3.248,3.248,0,0,1,0,265.629V255.072a3.248,3.248,0,0,1,.947-2.3l21.9-21.9-.015-.047A23.854,23.854,0,0,0,41.019,246.8Z" transform="translate(1660 483.421)" fill="#3498db" opacity="0.4"/>
    <path id="Path_8" data-name="Path 8" d="M183.822,0a23.822,23.822,0,1,0,23.822,23.821A23.822,23.822,0,0,0,183.822,0Zm6.5,23.822a6.5,6.5,0,1,1,6.5-6.5A6.5,6.5,0,0,1,190.318,23.822Z" transform="translate(1521.656 683)"/>
  </g>
  <g id="Group_208" data-name="Group 208" transform="translate(-3536 2201)">
    <path id="Path_1084" data-name="Path 1084" d="M0,93.874A7.425,7.425,0,0,0,7.425,101.3H81.674A7.425,7.425,0,0,0,89.1,93.874V66.649H0ZM29.7,83.355A1.856,1.856,0,0,1,31.556,81.5H52.593a1.856,1.856,0,0,1,1.856,1.856v6.187A1.856,1.856,0,0,1,52.593,91.4H31.556A1.856,1.856,0,0,1,29.7,89.543Zm-19.8,0A1.856,1.856,0,0,1,11.756,81.5H22.893a1.856,1.856,0,0,1,1.856,1.856v6.187A1.856,1.856,0,0,1,22.893,91.4H11.756A1.856,1.856,0,0,1,9.9,89.543ZM81.674,32H7.425A7.425,7.425,0,0,0,0,39.425V46.85H89.1V39.425A7.425,7.425,0,0,0,81.674,32Z" transform="translate(4279 -2019)" fill="#3498db" opacity="0.4"/>
    <path id="Path_1085" data-name="Path 1085" d="M89.1,147.8H0V128H89.1Z" transform="translate(4279 -2100.15)"/>
  </g>
</svg>
