<svg id="Group_54" data-name="Group 54" xmlns="http://www.w3.org/2000/svg" width="1852" viewBox="0 0 1852 611" style="max-width:100%;">
  <g id="Rectangle_7" data-name="Rectangle 7" fill="#fff" stroke="#707070" stroke-width="1">
    <rect width="1852" height="611" stroke="none"/>
    <rect x="0.5" y="0.5" width="1851" height="610" fill="none"/>
  </g>
  <text id="Ting_heads_to_the_parking_garage." data-name="Ting heads to the parking garage." transform="translate(96 320)" fill="#080808" font-size="20" font-family="SourceSansPro-Regular, Source Sans Pro"><tspan x="0" y="20">Ting heads to the </tspan><tspan x="0" y="46">parking garage.</tspan></text>
  <text id="She_finds_the_garage_is_full_when_she_gets_there." data-name="She finds the garage is full when she gets there." transform="translate(397 320)" fill="#080808" font-size="20" font-family="SourceSansPro-Regular, Source Sans Pro"><tspan x="0" y="20">She finds the garage </tspan><tspan x="0" y="46">is full when she gets </tspan><tspan x="0" y="72">there.</tspan></text>
  <text id="Ting_gets_out_the_list_of_available_garages_she_keeps_in_her_car." data-name="Ting gets out the list of available garages she keeps in her car." transform="translate(709 320)" fill="#080808" font-size="20" font-family="SourceSansPro-Regular, Source Sans Pro"><tspan x="0" y="20">Ting gets out the </tspan><tspan x="0" y="46">list of available </tspan><tspan x="0" y="72">garages she keeps </tspan><tspan x="0" y="98">in her car.</tspan></text>
  <text id="She_types_the_address_into_Google_Maps_for_the_one_that_s_the_closest." data-name="She types the address into Google Maps for the one that’s the closest." transform="translate(1007 320)" fill="#080808" font-size="20" font-family="SourceSansPro-Regular, Source Sans Pro"><tspan x="0" y="20">She types the </tspan><tspan x="0" y="46">address into Google </tspan><tspan x="0" y="72">Maps for the one </tspan><tspan x="0" y="98">that’s the closest.</tspan></text>
  <text id="Ting_follows_the_directions_to_the_new_garage_and_finds_a_parking_spot." data-name="Ting follows the directions to the new garage, and finds a parking spot." transform="translate(1306 320)" fill="#080808" font-size="20" font-family="SourceSansPro-Regular, Source Sans Pro"><tspan x="0" y="20">Ting follows the </tspan><tspan x="0" y="46">directions to the </tspan><tspan x="0" y="72">new garage, and </tspan><tspan x="0" y="98">finds a parking spot.</tspan></text>
  <line id="Line_1" data-name="Line 1" x2="80" transform="translate(290.5 321.5)" fill="none" stroke="#00bcd4" stroke-width="2"/>
  <line id="Line_2" data-name="Line 2" x2="80" transform="translate(589.5 321.5)" fill="none" stroke="#00bcd4" stroke-width="2"/>
  <line id="Line_3" data-name="Line 3" x2="80" transform="translate(898.5 321.5)" fill="none" stroke="#00bcd4" stroke-width="2"/>
  <line id="Line_5" data-name="Line 5" x2="80" transform="translate(1201.5 322.5)" fill="none" stroke="#00bcd4" stroke-width="2"/>
  <g id="Rectangle_1" data-name="Rectangle 1" transform="translate(80 169)" fill="none" stroke="#080808" stroke-width="1">
    <rect width="200" height="292" rx="10" stroke="none"/>
    <rect x="0.5" y="0.5" width="199" height="291" rx="9.5" fill="none"/>
  </g>
  <g id="Rectangle_2" data-name="Rectangle 2" transform="translate(380 169)" fill="none" stroke="#080808" stroke-width="1">
    <rect width="200" height="292" rx="10" stroke="none"/>
    <rect x="0.5" y="0.5" width="199" height="291" rx="9.5" fill="none"/>
  </g>
  <g id="Rectangle_3" data-name="Rectangle 3" transform="translate(687 169)" fill="none" stroke="#080808" stroke-width="1">
    <rect width="200" height="290" rx="10" stroke="none"/>
    <rect x="0.5" y="0.5" width="199" height="289" rx="9.5" fill="none"/>
  </g>
  <g id="Rectangle_4" data-name="Rectangle 4" transform="translate(992 169)" fill="none" stroke="#080808" stroke-width="1">
    <rect width="200" height="290" rx="10" stroke="none"/>
    <rect x="0.5" y="0.5" width="199" height="289" rx="9.5" fill="none"/>
  </g>
  <g id="Rectangle_5" data-name="Rectangle 5" transform="translate(1291 169)" fill="none" stroke="#080808" stroke-width="1">
    <rect width="200" height="290" rx="10" stroke="none"/>
    <rect x="0.5" y="0.5" width="199" height="289" rx="9.5" fill="none"/>
  </g>
  <g id="Group_32" data-name="Group 32" transform="translate(408 -327)">
    <path id="Path_17" data-name="Path 17" d="M52.678,17.559H37.314a2.195,2.195,0,0,1-2.195-2.195V0H3.292A3.284,3.284,0,0,0,0,3.276V66.945a3.284,3.284,0,0,0,3.276,3.292h46.11a3.284,3.284,0,0,0,3.292-3.276ZM39.509,51.032a1.646,1.646,0,0,1-1.646,1.646H14.816a1.646,1.646,0,0,1-1.646-1.646v-1.1a1.646,1.646,0,0,1,1.646-1.646H37.862a1.646,1.646,0,0,1,1.646,1.646Zm0-8.78A1.646,1.646,0,0,1,37.862,43.9H14.816a1.646,1.646,0,0,1-1.646-1.646v-1.1a1.646,1.646,0,0,1,1.646-1.646H37.862a1.646,1.646,0,0,1,1.646,1.646Zm0-8.78a1.646,1.646,0,0,1-1.646,1.646H14.816a1.646,1.646,0,0,1-1.646-1.646v-1.1a1.646,1.646,0,0,1,1.646-1.646H37.862a1.646,1.646,0,0,1,1.646,1.646Z" transform="translate(353 540)" fill="#3498db" opacity="0.4"/>
    <path id="Path_18" data-name="Path 18" d="M134.548,14.4,121.118.96A3.292,3.292,0,0,0,118.786,0h-.837V15.364a2.195,2.195,0,0,0,2.195,2.195h15.364v-.837a3.279,3.279,0,0,0-.96-2.318ZM120.693,48.288H97.646A1.646,1.646,0,0,0,96,49.935v1.1a1.646,1.646,0,0,0,1.646,1.646h23.047a1.646,1.646,0,0,0,1.646-1.646v-1.1A1.646,1.646,0,0,0,120.693,48.288Zm0-8.78H97.646A1.646,1.646,0,0,0,96,41.155v1.1A1.646,1.646,0,0,0,97.646,43.9h23.047a1.646,1.646,0,0,0,1.646-1.646v-1.1A1.646,1.646,0,0,0,120.693,39.509Zm0-8.78H97.646A1.646,1.646,0,0,0,96,32.375v1.1a1.646,1.646,0,0,0,1.646,1.646h23.047a1.646,1.646,0,0,0,1.646-1.646v-1.1a1.646,1.646,0,0,0-1.646-1.646Z" transform="translate(270.17 540)"/>
  </g>
  <g id="Group_18" data-name="Group 18" transform="translate(9 -442)">
    <path id="Path_3" data-name="Path 3" d="M76.037,128a7.353,7.353,0,0,1,6.827,4.622l3.052,7.632H46.7l3.053-7.633A7.352,7.352,0,0,1,56.584,128ZM39.352,167.212a9.775,9.775,0,0,1-7.286-3.247,4.874,4.874,0,0,0-.066.8v7.352a4.9,4.9,0,0,0,4.9,4.9h4.9a4.9,4.9,0,0,0,4.9-4.9v-4.9Zm53.917,0H85.917v4.9a4.9,4.9,0,0,0,4.9,4.9h4.9a4.9,4.9,0,0,0,4.9-4.9v-7.352a4.874,4.874,0,0,0-.066-.8,9.775,9.775,0,0,1-7.286,3.247Z" transform="translate(1316.9 542.803)" fill="#3498db" opacity="0.4"/>
    <path id="Path_4" data-name="Path 4" d="M76.6,81.155H67.424l-2.549-6.372A17.068,17.068,0,0,0,48.949,64H29.5a17.074,17.074,0,0,0-15.93,10.783l-2.547,6.372H1.848A1.838,1.838,0,0,0,.067,83.439l.919,3.676a1.838,1.838,0,0,0,1.781,1.392H5.843a9.734,9.734,0,0,0-3.382,7.352v7.352a9.8,9.8,0,0,0,9.8,9.8H66.181a9.8,9.8,0,0,0,9.8-9.8V95.859A9.739,9.739,0,0,0,72.6,88.507h3.074a1.838,1.838,0,0,0,1.783-1.392l.919-3.676A1.838,1.838,0,0,0,76.6,81.155ZM22.669,78.424A7.352,7.352,0,0,1,29.5,73.8H48.949a7.353,7.353,0,0,1,6.827,4.622l3.052,7.632H19.616ZM14.715,93.409c2.941,0,7.352,4.4,7.352,7.329s-4.411,2.443-7.352,2.443a4.886,4.886,0,1,1,0-9.772Zm41.663,7.329c0-2.932,4.411-7.329,7.352-7.329a4.886,4.886,0,1,1,0,9.772C60.789,103.181,56.378,103.671,56.378,100.738Z" transform="translate(1343.988 597.001)"/>
  </g>
  <g id="Group_46" data-name="Group 46" transform="translate(-1203 -442)">
    <path id="Path_3-2" data-name="Path 3" d="M76.037,128a7.353,7.353,0,0,1,6.827,4.622l3.052,7.632H46.7l3.053-7.633A7.352,7.352,0,0,1,56.584,128ZM39.352,167.212a9.775,9.775,0,0,1-7.286-3.247,4.874,4.874,0,0,0-.066.8v7.352a4.9,4.9,0,0,0,4.9,4.9h4.9a4.9,4.9,0,0,0,4.9-4.9v-4.9Zm53.917,0H85.917v4.9a4.9,4.9,0,0,0,4.9,4.9h4.9a4.9,4.9,0,0,0,4.9-4.9v-7.352a4.874,4.874,0,0,0-.066-.8,9.775,9.775,0,0,1-7.286,3.247Z" transform="translate(1316.9 542.803)" fill="#3498db" opacity="0.4"/>
    <path id="Path_4-2" data-name="Path 4" d="M76.6,81.155H67.424l-2.549-6.372A17.068,17.068,0,0,0,48.949,64H29.5a17.074,17.074,0,0,0-15.93,10.783l-2.547,6.372H1.848A1.838,1.838,0,0,0,.067,83.439l.919,3.676a1.838,1.838,0,0,0,1.781,1.392H5.843a9.734,9.734,0,0,0-3.382,7.352v7.352a9.8,9.8,0,0,0,9.8,9.8H66.181a9.8,9.8,0,0,0,9.8-9.8V95.859A9.739,9.739,0,0,0,72.6,88.507h3.074a1.838,1.838,0,0,0,1.783-1.392l.919-3.676A1.838,1.838,0,0,0,76.6,81.155ZM22.669,78.424A7.352,7.352,0,0,1,29.5,73.8H48.949a7.353,7.353,0,0,1,6.827,4.622l3.052,7.632H19.616ZM14.715,93.409c2.941,0,7.352,4.4,7.352,7.329s-4.411,2.443-7.352,2.443a4.886,4.886,0,1,1,0-9.772Zm41.663,7.329c0-2.932,4.411-7.329,7.352-7.329a4.886,4.886,0,1,1,0,9.772C60.789,103.181,56.378,103.671,56.378,100.738Z" transform="translate(1343.988 597.001)"/>
  </g>
  <g id="Group_34" data-name="Group 34" transform="translate(145 -39)">
    <circle id="Ellipse_563" data-name="Ellipse 563" cx="29" cy="29" r="29" transform="translate(214 190)" fill="#29d9c2"/>
    <text id="_2" data-name="2" transform="translate(229 200)" fill="#fff" font-size="30" font-family="SourceSansPro-Bold, Source Sans Pro" font-weight="700" letter-spacing="0.003em"><tspan x="6.08" y="30">2</tspan></text>
  </g>
  <g id="Group_35" data-name="Group 35" transform="translate(364 -39)">
    <circle id="Ellipse_564" data-name="Ellipse 564" cx="29" cy="29" r="29" transform="translate(306 190)" fill="#29d9c2"/>
    <text id="_3" data-name="3" transform="translate(321 200)" fill="#fff" font-size="30" font-family="SourceSansPro-Bold, Source Sans Pro" font-weight="700" letter-spacing="0.003em"><tspan x="6.08" y="30">3</tspan></text>
  </g>
  <g id="Group_33" data-name="Group 33" transform="translate(-55 -39)">
    <circle id="Ellipse_565" data-name="Ellipse 565" cx="29" cy="29" r="29" transform="translate(122 190)" fill="#29d9c2"/>
    <text id="_1" data-name="1" transform="translate(137 200)" fill="#fff" font-size="30" font-family="SourceSansPro-Bold, Source Sans Pro" font-weight="700" letter-spacing="0.003em"><tspan x="6.08" y="30">1</tspan></text>
  </g>
  <g id="Group_36" data-name="Group 36" transform="translate(568 -39)">
    <circle id="Ellipse_566" data-name="Ellipse 566" cx="29" cy="29" r="29" transform="translate(398 190)" fill="#29d9c2"/>
    <text id="_4" data-name="4" transform="translate(413 200)" fill="#fff" font-size="30" font-family="SourceSansPro-Bold, Source Sans Pro" font-weight="700" letter-spacing="0.003em"><tspan x="6.08" y="30">4</tspan></text>
  </g>
  <g id="Group_37" data-name="Group 37" transform="translate(492 -36)">
    <circle id="Ellipse_565-2" data-name="Ellipse 565" cx="29" cy="29" r="29" transform="translate(779 187)" fill="#29d9c2"/>
    <text id="_5" data-name="5" transform="translate(794 197)" fill="#fff" font-size="30" font-family="SourceSansPro-Bold, Source Sans Pro" font-weight="700" letter-spacing="0.003em"><tspan x="6.08" y="30">5</tspan></text>
  </g>
  <g id="Group_14" data-name="Group 14" transform="translate(1039 -368)">
    <path id="Path_1" data-name="Path 1" d="M0,384v12.2a7.32,7.32,0,0,0,7.32,7.32H41.477a7.32,7.32,0,0,0,7.32-7.32V384Zm24.4,14.639a4.88,4.88,0,1,1,4.88-4.88A4.88,4.88,0,0,1,24.4,398.639Z" transform="translate(29 255.556)" fill="#3498db" opacity="0.4"/>
    <path id="Path_2" data-name="Path 2" d="M0,58.556V7.32A7.32,7.32,0,0,1,7.32,0H41.477A7.32,7.32,0,0,1,48.8,7.32V58.556Z" transform="translate(29 581)"/>
  </g>
  <g id="Group_50" data-name="Group 50" transform="translate(-3747 -663)">
    <path id="Path_21" data-name="Path 21" d="M128.092,224H128v9.03h54.1l.075-9.03Zm14.7,13.545-1.129,4.515h26.846l-1.129-4.515Z" transform="translate(4072.06 682.604)" fill="#3498db" opacity="0.4"/>
    <path id="Path_22" data-name="Path 22" d="M86.135,16.507,47.746.518A8.1,8.1,0,0,0,45.149,0a8.1,8.1,0,0,0-2.61.518L4.162,16.507A6.792,6.792,0,0,0,0,22.755V69.98a2.257,2.257,0,0,0,2.257,2.257h9.03a2.257,2.257,0,0,0,2.257-2.257V31.6a4.565,4.565,0,0,1,4.6-4.515H72.154a4.564,4.564,0,0,1,4.6,4.515V69.98a2.257,2.257,0,0,0,2.257,2.257h9.03A2.257,2.257,0,0,0,90.3,69.98V22.755a6.792,6.792,0,0,0-4.162-6.247ZM65.677,50.146l-1.253-5H57.443l1.129,4.515H31.725l1.129-4.515H25.873l-1.249,4.993a6.762,6.762,0,0,0-4.307,6.294v4.515a4.454,4.454,0,0,0,2.257,3.824v4.077a3.386,3.386,0,0,0,3.386,3.386h4.515a3.386,3.386,0,0,0,3.386-3.386V65.465H56.436v3.386a3.386,3.386,0,0,0,3.386,3.386h4.515a3.386,3.386,0,0,0,3.386-3.386V64.774a4.454,4.454,0,0,0,2.257-3.824V56.436a6.762,6.762,0,0,0-4.307-6.294ZM29.347,60.929a3.376,3.376,0,1,1,0-6.751c2.032,0,5.079,3.038,5.079,5.062S31.378,60.929,29.347,60.929Zm31.6,0c-2.032,0-5.079.337-5.079-1.693s3.048-5.058,5.079-5.058a3.376,3.376,0,1,1,0,6.751Z" transform="translate(4182 875)"/>
  </g>
  <text id="She_has_to_walk_several_blocks_now_so_she_s_late_to_her_meeting." data-name="She has to walk several blocks now, so she’s late to her meeting." transform="translate(1601 322)" fill="#080808" font-size="20" font-family="SourceSansPro-Regular, Source Sans Pro"><tspan x="0" y="20">She has to walk </tspan><tspan x="0" y="46">several blocks now, </tspan><tspan x="0" y="72">so she’s late to her </tspan><tspan x="0" y="98">meeting.</tspan></text>
  <line id="Line_4" data-name="Line 4" x2="80" transform="translate(1499.5 323.5)" fill="none" stroke="#00bcd4" stroke-width="2"/>
  <g id="Rectangle_6" data-name="Rectangle 6" transform="translate(1586 171)" fill="none" stroke="#080808" stroke-width="1">
    <rect width="200" height="290" rx="10" stroke="none"/>
    <rect x="0.5" y="0.5" width="199" height="289" rx="9.5" fill="none"/>
  </g>
  <g id="Group_38" data-name="Group 38" transform="translate(701 -34)">
    <circle id="Ellipse_563-2" data-name="Ellipse 563" cx="29" cy="29" r="29" transform="translate(871 187)" fill="#29d9c2"/>
    <text id="_6" data-name="6" transform="translate(886 197)" fill="#fff" font-size="30" font-family="SourceSansPro-Bold, Source Sans Pro" font-weight="700" letter-spacing="0.003em"><tspan x="6.08" y="30">6</tspan></text>
  </g>
  <g id="Group_53" data-name="Group 53" transform="translate(-2121 -985)">
    <path id="Path_25" data-name="Path 25" d="M90.389,115.843l-5.2-5.217a29.062,29.062,0,1,0-46.5,0l-5.2,5.217a2.09,2.09,0,0,0,0,2.947l2.936,2.946a2.071,2.071,0,0,0,2.926.009l.009-.009,5.2-5.221a28.817,28.817,0,0,0,34.764,0l5.2,5.221a2.071,2.071,0,0,0,2.926.009l.009-.009,2.934-2.946a2.084,2.084,0,0,0,0-2.947ZM73.654,101.966l-2.6,3.256a2.084,2.084,0,0,1-2.929.326l-8.4-6.723a5.21,5.21,0,0,1-1.954-4.067V78.587A2.084,2.084,0,0,1,59.849,76.5h4.168A2.084,2.084,0,0,1,66.1,78.587V93.254l7.228,5.78a2.084,2.084,0,0,1,.326,2.932Z" transform="translate(3745.278 1148.335)" fill="#3498db" opacity="0.4"/>
    <path id="Path_26" data-name="Path 26" d="M1,12.5a12.383,12.383,0,0,0,1.985,6.676L21.913,3.345A12.43,12.43,0,0,0,1,12.5ZM45.607,43.37l-7.228-5.78V22.922a2.084,2.084,0,0,0-2.084-2.084H32.127a2.084,2.084,0,0,0-2.084,2.084V39.093A5.21,5.21,0,0,0,32,43.16l8.4,6.721a2.084,2.084,0,0,0,2.929-.326l2.6-3.256A2.084,2.084,0,0,0,45.607,43.37ZM54.969,0a12.383,12.383,0,0,0-8.456,3.342L65.44,19.175A12.438,12.438,0,0,0,54.969,0Z" transform="translate(3773 1204)"/>
  </g>
</svg>
