<svg id="Group_65" data-name="Group 65" xmlns="http://www.w3.org/2000/svg" xmlns:xlink="http://www.w3.org/1999/xlink" width="400" viewBox="0 0 500 300" style="max-width:100%;">
  <defs>
    <clipPath id="clip-path">
      <circle id="Ellipse_568" data-name="Ellipse 568" cx="65" cy="65" r="65" fill="none"/>
    </clipPath>
  </defs>
  <rect id="Rectangle_8" data-name="Rectangle 8" width="500" height="300" rx="10" fill="#080808"/>
  <g id="Layer_2" data-name="Layer 2" transform="translate(59.47 84.561)">
    <g id="Accessories" transform="translate(10.53 0)">
      <circle id="Ellipse_567" data-name="Ellipse 567" cx="65" cy="65" r="65" fill="#fff"/>
      <g id="Group_55" data-name="Group 55" clip-path="url(#clip-path)">
        <path id="Path_27" data-name="Path 27" d="M32.279,48.4,29.74,68.978s12.037,14.263,16.572,13.7S60.888,70.2,60.888,70.2L59.4,56.875Z" transform="translate(19.299 31.407)" fill="#7b5234"/>
        <path id="Path_28" data-name="Path 28" d="M57.45,55.87s-9.778,8.245-12.68,7.189-10.355-3.875-11.74-5.936c0,0,3.924,6.052,6.48,7.486a17.05,17.05,0,0,0,12.021,1.484,60.072,60.072,0,0,1,7.041-1.929Z" transform="translate(21.433 36.255)" fill="#3d2924"/>
        <path id="Path_29" data-name="Path 29" d="M76.707,41.68c0-1.913-.148-10.355-.528-12.268s-4.5-10.57-8.063-13.472-8.1-6.365-13.043-7.156c-2.935-.462-12.1,0-15.879,2.028A27.306,27.306,0,0,0,27.24,22.965c-4.2,7.651-1.649,18.253-1.006,21.6.231,1.138.214,3,.412,6.909a75.188,75.188,0,0,1,.627,7.568A86.3,86.3,0,0,0,28,69.514c.1,2.9.956,7.585,5.821,15.071,1.88,2.9,9.745,9.893,13.076,10.751a24.734,24.734,0,0,0,11.542-.824c1.649-1.1,4.386-5.722,6.051-7.865C67.408,82.87,72.107,77,72.734,74.329a46.961,46.961,0,0,0,.775-9.58c0-2.671,2.473-14.675,2.473-17.132h0A43.315,43.315,0,0,0,76.707,41.68Z" transform="translate(16.143 5.594)" fill="#7b5234"/>
        <path id="Path_30" data-name="Path 30" d="M28.436,38.556c-.3-1.649-1.022-7.915-3.529-7.6s-2.127,4.007-2.259,5.227.429,5.458.412,6.464,1.533,3.3,1.319,4.782c-.346,2.226,2.177,8.245,4.65,2.82A92.966,92.966,0,0,0,28.436,38.556Z" transform="translate(14.683 20.079)" fill="#7b5234"/>
        <path id="Path_31" data-name="Path 31" d="M27.869,36.453c-.115-.66-1.863-4.353-3.1-4.353s-1.649.33-1.649,1.55a81.076,81.076,0,0,1,.495,9.465c0,.676,2.869,4.023,3.1,3.3S24.39,44.5,24.291,42.95s-.2-6.233-.181-7.47.561-.775,1.1-.429S27.869,36.453,27.869,36.453Z" transform="translate(15.003 20.83)" fill="#3d2924"/>
        <path id="Path_32" data-name="Path 32" d="M26.332,35.35c-.132,1.22.66.775-.577,2.44s-1.121,1.9-1.022,3,2,1.913,2,1.913-1.435-2.787-.758-3.018,1.121-1.764,1.121-2.556A3.693,3.693,0,0,0,26.332,35.35Z" transform="translate(16.012 22.939)" fill="#3d2924"/>
        <path id="Path_33" data-name="Path 33" d="M56.325,38.412c.313-1.649,1.154-8.245,3.776-7.948s2.21,4.221,2.325,5.524-.511,5.722-.511,6.777-1.649,3.529-1.435,4.947c.346,2.341-3.611,7.717-6.15,1.962C54.33,49.756,55.6,42.039,56.325,38.412Z" transform="translate(35.255 19.762)" fill="#7b5234"/>
        <path id="Path_34" data-name="Path 34" d="M55.75,36.221c.132-.709,2.028-4.567,3.3-4.551s1.748.363,1.748,1.649a82.446,82.446,0,0,0-.643,9.893c0,.709-3.067,4.2-3.3,3.3s2.473-1.979,2.589-3.611.28-6.6.28-7.849-.577-.824-1.171-.478S55.75,36.221,55.75,36.221Z" transform="translate(36.177 20.551)" fill="#3d2924"/>
        <path id="Path_35" data-name="Path 35" d="M56.324,35.07c.115,1.286-.693.808.577,2.572s1.154,2,1.039,3.166-2.127,1.979-2.127,1.979,1.55-2.919.841-3.149-1.154-1.88-1.154-2.7a3.908,3.908,0,0,1,.824-1.863Z" transform="translate(36.014 22.757)" fill="#3d2924"/>
        <path id="Path_36" data-name="Path 36" d="M52.105,37.05a5.293,5.293,0,1,0,4.551,7.9c0-.148.115-.28.165-.429.165-.462.33-.923.462-1.336a6.382,6.382,0,0,0,0-.808,5.293,5.293,0,0,0-5.178-5.326Z" transform="translate(30.34 24.042)" fill="#df8b7b" opacity="0.28"/>
        <path id="Path_37" data-name="Path 37" d="M33.4,47.536A5.293,5.293,0,1,0,28.12,42.21v.28a26.944,26.944,0,0,0,.956,2.787,5.293,5.293,0,0,0,4.32,2.259Z" transform="translate(18.247 23.977)" fill="#df8b7b" opacity="0.28"/>
        <path id="Path_38" data-name="Path 38" d="M14.732,161.13S-2.021,176.217.189,182.566,17.453,175.212,14.732,161.13Z" transform="translate(-0.008 104.559)" fill="#686a6d"/>
        <path id="Path_39" data-name="Path 39" d="M44.954,306.354l3.71-10.784,18.781,5.392,1.649,9.366-12.977,5.425-10.058-2.622S44.179,308.629,44.954,306.354Z" transform="translate(29.049 191.798)" fill="#686a6d"/>
        <path id="Path_40" data-name="Path 40" d="M65.627,140.36H48.462L34.3,189.4,9.119,182.209,5.59,186.051s5.887,13.653,5.887,15.912,1.979,6.6,1.418,11.361,2.177,68.149,1.8,80.252,1.138,16.654,0,24.964,1.138,32.533,0,43.877-1.138,26.482,0,32.549A137.181,137.181,0,0,0,19.457,411s11.938.841,14.84,1.468,8.541-5.392,8.541-5.392,0-.758,2.473-10.6-3.628-28.031-2.473-33.291,6.266-37.067,5.986-46.169,6.068-85.628,14.659-93.13c0,0,.923,31.082.2,39.409s2.787,34.808,4.056,39.343a102.729,102.729,0,0,1,2.7,19.672s-1.649,32.533-2.7,40.843,1.847,33.292,2.7,37.842,2.275,10.025,2.275,10.025H90.591s8.574-8.525,8.245-17.594-.445-65.066,0-74.91,10.273-93,10.273-93,9.151-56.541-21.568-58.767Z" transform="translate(3.627 91.081)" fill="#5c5e60"/>
        <path id="Path_41" data-name="Path 41" d="M33.372,66.692c.4-.132-.082-6.431-1.649-6.332C29.711,63.279,23,74.261,23,74.261l8.558,46.911L58.8,182.446l32.978-63.17S97.2,88.26,95.222,87.5,65.872,65.934,65.872,65.934L50.8,74.261Z" transform="translate(14.925 39.168)" fill="#ebe3dc"/>
        <path id="Path_42" data-name="Path 42" d="M47.555,75.33H42.114s-.923,4.8-2.243,5.8S34.595,107.9,33.82,120.955l4.848,23.085,6.892,10.207,10.817-17.577-4.749-9.679s.956-29.1-.379-36.095S46.7,77.408,47.555,75.33Z" transform="translate(21.946 48.882)" fill="#c1272d"/>
        <path id="Path_43" data-name="Path 43" d="M9.283,175s-11.344,8.838-8.047-7.618C1.237,167.38-.412,179.021,9.283,175Z" transform="translate(0.412 108.614)" fill="#141a20"/>
        <path id="Path_44" data-name="Path 44" d="M53.482,60.36s-3.116,4.831-6.826,6.6S12.507,80.79,7.675,79.933c0,0-17.462,66.962-18.138,86.634s17.38,81.7,17.38,81.7,1.138-8.69,11-15.879c0,0-4.287-13.62,3.545-20.809L11.089,175.553S23.6,137.529,22.746,137.529s5.491,39.442,5.491,39.442L72.56,162s-14.049-37.43-15.186-48.4S50.366,62.718,53.482,60.36Z" transform="translate(-6.801 39.168)" fill="#686a6d"/>
        <path id="Path_45" data-name="Path 45" d="M15.743,128.759s1.979,9.893,0,14.626-7.536,26.5-8.756,34.347a58.124,58.124,0,0,0,0,15.6s2.853,31.329,18.5,26.663,32.978-40.4,34.891-59.542A305.808,305.808,0,0,0,61.2,121.8S23.426,116.194,15.743,128.759Z" transform="translate(4.193 78.229)" fill="#686a6d"/>
        <path id="Path_46" data-name="Path 46" d="M38.977,166.149c2.853-4.254,9.1-29.8,11.674-35.468s5.969-52.485,6.6-55.9a97.4,97.4,0,0,0,0-13.043c2.275,5.392,9.1,7.948,15.928,9.893s29.878,11.542,29.878,11.542c6.266,15.9,12.268,90.047,12.268,90.047l-1.962,9.663c-3.941-1.039-8.113-1.319-11.872-2.952s-1.946-10.965-6.5-10.537c-.363,0-1.946-6.6-2.292-6.5L86.268,148.44l-4.551,29.5,7.964,64.967s-.28,11.922-20.5,19.787-23.332-19.787-25.327-31.214S36.124,170.4,38.977,166.149Z" transform="translate(24.786 40.064)" fill="#686a6d"/>
        <path id="Path_47" data-name="Path 47" d="M53.6,168.061c-.379-1.171-2.638-6.728-3.215-7.7C44.233,149.989,37.9,138.1,31.025,124c-1.154-2.358-2.424-4.683-3.644-6.942a116.766,116.766,0,0,1-5.309-10.553A130.956,130.956,0,0,1,14.8,83.423V83.06l.33-.132c1.847-.693,3.792-1.286,5.656-1.88,1.253-.379,2.523-.775,3.776-1.187-1.154-.115-2.292-.313-3.4-.511a22.952,22.952,0,0,0-4.732-.495H15.361l.775-.742c1.748-1.649,3.644-3.3,5.474-4.765l1.237-1.039a28.444,28.444,0,0,0,3.3-3.891c2.424-3.3,3.512-4.535,4.32-4.436l-.1.841v0a18.963,18.963,0,0,0-3.611,4.139,29.681,29.681,0,0,1-3.3,4.04L22.22,74.024c-1.649,1.3-3.182,2.622-4.7,4.04a31.807,31.807,0,0,1,3.792.528,21.568,21.568,0,0,0,5.54.528l.181.824c-1.979.758-4.023,1.385-5.986,2s-3.545,1.1-5.277,1.748a131.911,131.911,0,0,0,7.14,22.574c1.55,3.661,3.446,7.123,5.277,10.487,1.237,2.259,2.506,4.6,3.661,6.975C38.709,137.787,45.041,149.659,51.175,160c.66,1.088,2.935,6.81,3.3,7.865l-.808.264Z" transform="translate(9.604 41.515)" fill="#999da3"/>
        <path id="Path_48" data-name="Path 48" d="M13.766,147.17a5.1,5.1,0,0,1-1.5-.2,2.226,2.226,0,0,1-1.385-1.154l.758-.363a1.467,1.467,0,0,0,.89.709c3.3,1.088,12.829-3.3,17.61-5.771V139.6c.181-2.605.412-5.821-.544-8a63.994,63.994,0,0,1-17.973,4.238l-.1-.841a62.18,62.18,0,0,0,18.138-4.337l.363-.165.181.346c1.27,2.407,1.006,5.953.808,8.822l-.082,1.253-.214.1c-.511.28-11.542,6.15-16.984,6.15Z" transform="translate(7.06 84.683)" fill="#999da3"/>
        <path id="Path_49" data-name="Path 49" d="M7.887,159.643l-.3-.775c4.617-2.968,4.3-4.4,3.3-8.673l-.231-1.022.824-.181.231,1.022c.841,3.776,1.286,5.755-2.061,8.393.989-.247,2-.561,3.018-.907a33.407,33.407,0,0,1,5.161-1.352,26.811,26.811,0,0,1,5.854,0c1.187,0,2.407.148,3.644.115a38.914,38.914,0,0,1,1.088-5.276,40.679,40.679,0,0,0,1.1-5.359,51.527,51.527,0,0,1-9.3,1.781,27.078,27.078,0,0,1-3.3,0c-2.49,0-5.326-.165-6.728.923l-.528-.66c1.649-1.286,4.65-1.187,7.288-1.1a28.71,28.71,0,0,0,3.182,0,49.717,49.717,0,0,0,9.729-1.929l.594-.2v.627a33.671,33.671,0,0,1-1.171,6.117,33.076,33.076,0,0,0-1.1,5.524v.363h-.379a37.107,37.107,0,0,1-4.089-.1,26.071,26.071,0,0,0-5.672,0,32.732,32.732,0,0,0-5.029,1.336,30.917,30.917,0,0,1-5.1,1.336Z" transform="translate(4.925 93.728)" fill="#999da3"/>
        <path id="Path_50" data-name="Path 50" d="M57.308,159.294H56.4v-.346c-.643-4.452-.973-9.267-1.3-14.214L55,143.3l.841,1.088c1.962,2.539,6.414,2.407,10.734,2.275a22.886,22.886,0,0,1,7.3.478l-.28.808a22.277,22.277,0,0,0-7.008-.445c-4.023.132-8.162.247-10.586-1.748.3,4.4.61,8.69,1.171,12.664a41.45,41.45,0,0,0,6.431-.643c3.727-.561,7.552-1.138,11.015,0l-.264.791c-3.3-1.039-7.008-.462-10.619.082a44.982,44.982,0,0,1-6.4.643Z" transform="translate(35.69 92.989)" fill="#999da3"/>
        <path id="Path_51" data-name="Path 51" d="M47.5,74.26S33.372,61.514,30.618,60.36H28.425s-.66,10.5,0,13.9a59.757,59.757,0,0,0,4.271,10.4S42.177,75.052,47.5,74.26Z" transform="translate(18.255 39.168)" fill="#f7f1eb"/>
        <path id="Path_52" data-name="Path 52" d="M55.429,60.88S43.227,72.67,39.88,73.923c0,0,8.129,4.749,12.136,10.4C52.016,84.327,58.842,66.025,55.429,60.88Z" transform="translate(25.878 39.506)" fill="#f7f1eb"/>
        <path id="Path_53" data-name="Path 53" d="M46.257,71.531s-.857-3.3-6.348-2.457L35.16,72.867s5.408,3.018,5.557,6.051h5.54A35.385,35.385,0,0,0,46.257,71.531Z" transform="translate(22.816 44.734)" fill="#c1272d"/>
        <path id="Path_54" data-name="Path 54" d="M73.266,89.67s-10.619,4.716-14.989,4.436L57.14,97.041s15.17-1.649,16.126-3.018S73.266,89.67,73.266,89.67Z" transform="translate(37.079 58.188)" fill="#999da3"/>
        <path id="Path_55" data-name="Path 55" d="M51.62,317.7v4.947s5.392,8.888,13.076,9.118a80.912,80.912,0,0,0,12.532,0v-4.518c0-1.187-9.745,1.4-15.088-1.006S53.351,322.053,51.62,317.7Z" transform="translate(33.497 206.159)" fill="#3c313a"/>
        <path id="Path_56" data-name="Path 56" d="M44.88,308.13v7.7s6.5,5.408,9.069,2.853A22.029,22.029,0,0,0,44.88,308.13Z" transform="translate(29.123 199.948)" fill="#3c313a"/>
        <path id="Path_57" data-name="Path 57" d="M45.3,302.11s-2.424,8.113,0,9.893,7.4,5.573,9.4,11.443,4.947,14.263,18.583,15.137c7.4.462,8.739-1.27,8.739-1.27s1.138-7.156-2-12.268-5.128-5.293-5.969-7.321-3.908-11.394-4.666-11.674-7.585,0-11.279,0S45.3,308.161,45.3,302.11Z" transform="translate(28.699 196.042)" fill="#8f4c2f"/>
        <path id="Path_58" data-name="Path 58" d="M54.016,308.788l-.726-1.006c2.012-1.418,8.739-3.3,10.784-1.039l-.907.824c-1.385-1.5-7.354,0-9.151,1.22Z" transform="translate(34.58 198.367)" fill="#3c313a"/>
        <path id="Path_59" data-name="Path 59" d="M55.6,309.785l-1.022-.709c1.5-2.16,6.975-1.814,8.987-1.072l-.429,1.154c-1.814-.66-6.6-.792-7.536.627Z" transform="translate(35.417 199.497)" fill="#3c313a"/>
        <path id="Path_60" data-name="Path 60" d="M55.47,312.1l-.33-1.187,1.369-.429c2.721-.874,6.1-1.979,8.376.61l-.94.824c-1.649-1.979-4.436-1.1-7.057-.264l-1.418.445Z" transform="translate(35.781 200.827)" fill="#3c313a"/>
        <path id="Path_61" data-name="Path 61" d="M58.639,314.14c0-2.111-1.336-7.667-2.589-8.591l.742-.989c1.88,1.385,3.05,7.717,3.1,9.564Z" transform="translate(36.371 197.632)" fill="#3c313a"/>
        <path id="Path_62" data-name="Path 62" d="M43.037,309.18v5.969s-4.7,4.023-8.393,3.743l-2.77,7.189v3.776s-11.46,10.5-26.069,6.6l-.544-8.805Z" transform="translate(3.413 200.63)" fill="#3c313a"/>
        <path id="Path_63" data-name="Path 63" d="M42.991,302.11s-5.178,4.172-8.475,3.908-13.026,0-13.026,0H19.676s-2.853,7.42-4.848,9.4-9.481,8.805-9,10.5-3.3,10.207,3.891,11.064,18.781.561,21.057-5.392,3.3-12.993,10.817-16.736C46.7,312.317,42.183,305.82,42.991,302.11Z" transform="translate(3.409 196.042)" fill="#8f4c2f"/>
        <path id="Path_64" data-name="Path 64" d="M23.1,308.264c-.808-.181-1.649-.478-2.473-.742a9.168,9.168,0,0,0-6-.709l-.429-1.154a10.125,10.125,0,0,1,6.826.693,23.247,23.247,0,0,0,2.358.709Z" transform="translate(9.215 198.149)" fill="#3c313a"/>
        <path id="Path_65" data-name="Path 65" d="M23.423,311.987c-3.182-1.2-6.6-2.16-9.893-1.121l-.379-1.187c3.628-1.154,7.42,0,10.652,1.154l-.429,1.154Z" transform="translate(8.533 200.643)" fill="#3c313a"/>
        <path id="Path_66" data-name="Path 66" d="M15.41,315.379c-1.187-4.947-.89-7.964,4.023-10.339l.544,1.1c-4.238,2.045-4.452,4.419-3.3,8.954l-1.2.28Z" transform="translate(9.621 197.943)" fill="#3c313a"/>
        <path id="Path_67" data-name="Path 67" d="M21.221,310.02c-1.171-.742-4.617-2.325-6.15-1.781a.907.907,0,0,0-.61.61l-1.171-.4a2.16,2.16,0,0,1,1.369-1.385c2.243-.792,6.348,1.336,7.239,1.913l-.676,1.039Z" transform="translate(8.624 199.147)" fill="#3c313a"/>
        <path id="Path_68" data-name="Path 68" d="M22.1,203.847a8.475,8.475,0,0,1-4.122-1.055C8.748,197.844,6.6,176.969,6.44,176.079L7.3,176c0,.214,2.177,21.287,11.015,26.053A9.053,9.053,0,0,0,27.1,201.6c16.786-8.756,33.094-53.952,33.258-54.414l.791.28c-.66,1.88-16.489,45.988-33.654,54.876a11.724,11.724,0,0,1-5.458,1.5Z" transform="translate(4.179 95.513)" fill="#999da3"/>
        <path id="Path_69" data-name="Path 69" d="M43.175,133.85a3.545,3.545,0,1,1,3.545-3.545,3.545,3.545,0,0,1-3.545,3.545Zm0-6.233a2.688,2.688,0,1,0,1.911.781,2.7,2.7,0,0,0-1.911-.781Z" transform="translate(25.716 82.256)" fill="#999da3"/>
        <path id="Path_70" data-name="Path 70" d="M2.013,192.607a1.846,1.846,0,0,1-.742-.132C.381,192.1-.048,191.04,0,189.325c.247-7.057,9.1-13.538,10.652-14.626-.3-2.275-2.177-17.528,2.243-25.739l.742.4c-4.551,8.459-2.094,25.311-2.094,25.476v.264l-.231.148c-.1,0-10.256,6.958-10.487,14.115,0,.907,0,2.045.742,2.341,1.517.627,5.375-2.556,7.453-4.716l.61.577c-.544.561-4.947,5.046-7.651,5.046Z" transform="translate(-0.002 96.662)" fill="#999da3"/>
        <path id="Path_71" data-name="Path 71" d="M40.748,157.9a132.341,132.341,0,0,1,9.778-18.5c2.226-3.727,4.534-7.585,6.447-11.328a87.509,87.509,0,0,1,8.756-12.911c1.649-2.028,3.182-4.139,4.666-6.249a47.58,47.58,0,0,1,3.3-3.941c2.539-2.869,5.392-6.1,6.019-8.9-7.123-.956-13.851-7.486-18.8-12.284l-1.435-1.4h1.138a41.008,41.008,0,0,0,14.626-2.407l-.445-.412c-4.749-4.254-9.564-8.987-9.3-11.674a1.764,1.764,0,0,1,.923-1.4l.429.726a.94.94,0,0,0-.511.758c-.264,2.671,6.414,8.739,8.954,11.015l.923.857.445.412-.544.264A40.464,40.464,0,0,1,61.59,83.3c4.947,4.8,11.691,11.279,18.616,11.971h.445V95.7c-.429,3.149-3.545,6.6-6.3,9.778a48.415,48.415,0,0,0-3.331,3.924c-1.484,2.127-3.116,4.221-4.683,6.266a87.674,87.674,0,0,0-8.673,12.8c-1.929,3.76-4.238,7.618-6.48,11.361a133.344,133.344,0,0,0-9.712,18.385c-3.545,8.97-2.985,20.018-2.094,28.642.247,2.473.495,4.947.726,7.371,1.039,10.487,2.028,20.413,3.694,30.868.429,2.7,1.055,5.491,1.649,8.245A97.859,97.859,0,0,1,47.509,244.3c.313,2.836,1.649,9.762,6.464,12.779,9.349,5.771,14.032,3.3,23.365-1.649l.247-.132a44.522,44.522,0,0,0,9.135-8.525h0c2.094-2.9,2.589-4.386,2.589-6.6l-.577-4.765c0-.726-.264-2.44-.313-3.067-.214-2.358-.561-7.486-.561-7.486.544,4.5.726,5.458.94,7.684,0,.643.264,1.4.264,2.127l.247,1.649a15.714,15.714,0,0,1,.165,6.728,11.345,11.345,0,0,1-2.094,4.287A38.749,38.749,0,0,1,78,256.088l-.247.132c-5.689,3.034-9.712,5.178-14.049,5.178a19.292,19.292,0,0,1-10.174-3.479c-5.227-3.215-6.6-10.454-6.859-13.406a92.585,92.585,0,0,0-2.028-11.031c-.61-2.721-1.253-5.524-1.649-8.245-1.649-10.487-2.655-20.413-3.694-30.917-.231-2.44-.478-4.947-.726-7.371C37.714,178.21,37.154,167.03,40.748,157.9Z" transform="translate(24.615 43.139)" fill="#999da3"/>
        <path id="Path_72" data-name="Path 72" d="M53,74.291a47.819,47.819,0,0,1-1.781-6.447c0-.148-.594,0-.561.148a47.819,47.819,0,0,0,1.781,6.447c0,.148.594,0,.544-.148Z" transform="translate(32.873 43.985)" fill="#b3aab1"/>
        <path id="Path_73" data-name="Path 73" d="M9.759,171.1a10.932,10.932,0,0,0-.956-3.578c-.528-1.055-1.039-1.171-1.039-1.171s-6.6,2.968-4.3,4.749a26.481,26.481,0,0,1,3.875,4.765v.1h0l.313.3h0a9.894,9.894,0,0,0,3.133,3.166.874.874,0,0,0,.693.1c.808-.379-.824-3.776-1.533-7.239a11.724,11.724,0,0,1-.181-1.187Z" transform="translate(1.932 107.946)" fill="#7b5234"/>
        <path id="Path_74" data-name="Path 74" d="M87.781,134.37,135.6,104.31l15.055,20.232S102.39,156.036,89.759,157.52s-18.319-21.6-18.319-21.6Z" transform="translate(46.358 67.688)" fill="#686a6d"/>
        <path id="Path_75" data-name="Path 75" d="M109.67,108.407c1.3,3.3,6.4,16.588,9.415,18.435s9.893-2.556,8.789-6.381-5.9-16.324-12.367-16.9S109.439,107.829,109.67,108.407Z" transform="translate(71.1 67.169)" fill="#141a20"/>
        <path id="Path_76" data-name="Path 76" d="M122.195,126.936a5.26,5.26,0,0,1-4.848-2.226c-3.2-4.617-9.2-14.362-6.6-19.292,3.413-6.6,13.389,3.628,14.148,8.376s3.809,9.4-1.83,13.059Z" transform="translate(71.453 67.009)" fill="none" stroke="#999da3" stroke-miterlimit="10" stroke-width="0.78"/>
        <path id="Path_77" data-name="Path 77" d="M167.354,105.3c-.462.115-1.055.3-1.649.495-.742-1.649-8.492,1.006-10.075,1.2a14.477,14.477,0,0,1-7.717-.989c-3.067-1.286-3.3-2.7-5.408-2.985a6.019,6.019,0,0,1,4.386-2.127,5.1,5.1,0,0,0,4.534-5.112c-.231-1.533-3.743-1.286-5.887-.363a20.133,20.133,0,0,1-6.695,1.649c-1.649,0-8.508.148-10.883,1.138s-7.816,3.3-9.893,7.42c-.627,1.286-3.3,3.578-7.437,6.6-.594,5.26,2.259,10.256,4.848,14.642l11.938-11.312s18.649.363,22.046-1.484,16.786-3.842,20.3-4.271C171.624,109.47,169.547,104.721,167.354,105.3Z" transform="translate(71.738 61.439)" fill="#7b5234"/>
        <path id="Path_78" data-name="Path 78" d="M51.224,48.44a50.788,50.788,0,0,1-5.606.231,12.564,12.564,0,0,0-3.083,0,43.531,43.531,0,0,1-7.041-.89,4.073,4.073,0,0,0,0,1.649c.973.742,1.962,1.533,2.671,2.111,1.83,1.517,4.073,1.286,5.92,1.451a12.746,12.746,0,0,0,4.947-.808c.445-.214,2.061-1.649,2.952-2.341a4.946,4.946,0,0,0-.247-1.4Z" transform="translate(22.977 31.005)" fill="#fff"/>
        <path id="Path_79" data-name="Path 79" d="M36.862,49.645a4.073,4.073,0,0,1,0-1.649C34.9,47.65,33.3,47.32,33.3,47.32a13.191,13.191,0,0,1,3.562,2.325Z" transform="translate(21.609 30.706)" fill="#2d1c1c"/>
        <path id="Path_80" data-name="Path 80" d="M45.3,48.416a4.947,4.947,0,0,1,.247,1.4l.313-.231,2.935-1.9S46.57,48.2,45.3,48.416Z" transform="translate(29.396 30.946)" fill="#2d1c1c"/>
        <path id="Path_81" data-name="Path 81" d="M36.9,48a43.53,43.53,0,0,0,7.041.89,12.566,12.566,0,0,1,3.083,0,50.786,50.786,0,0,0,5.606-.231h.429c1.27-.28,3.5-.726,3.5-.726s-2.259-.264-3.677-.264-6.266.3-6.761.3H44.783c-1.5-.165-4.172-.346-5.342-.363s-6.1-.2-6.1-.2S34.939,47.657,36.9,48Z" transform="translate(21.635 30.765)" fill="#d98286"/>
        <path id="Path_82" data-name="Path 82" d="M41.987,56.321a30.721,30.721,0,0,1,4.765.445c.66,0,4.848-.478,5.689-2.226s3.446-5.244,4.122-6.6l-2.935,1.9-.313.231c-.89.676-2.506,2.127-2.952,2.341a12.746,12.746,0,0,1-4.947.808c-1.847-.165-4.089,0-5.92-1.451-.709-.577-1.649-1.369-2.671-2.111a13.191,13.191,0,0,0-3.5-2.259,33.654,33.654,0,0,1,2.985,4.617C36.413,52.611,38.986,56.3,41.987,56.321Z" transform="translate(21.628 30.758)" fill="#d98286"/>
        <path id="Straight" d="M40.678,34.68s2.308,10.734-3.3,12.8c0,0,4.518,1.022,5.59,3.083,0,0-1.731-2.886-3.578-3.38C39.392,47.179,43.019,44.029,40.678,34.68Z" transform="translate(24.256 22.504)" fill="#4f3422"/>
        <path id="Path_83" data-name="Path 83" d="M35.589,33.893a4.946,4.946,0,0,1,.808.511c-.28-.181-.594-.379-.907-.544Z" transform="translate(23.03 21.972)" fill="none"/>
        <path id="Path_84" data-name="Path 84" d="M32.895,33.37Z" transform="translate(21.239 21.654)" fill="none"/>
        <path id="Path_85" data-name="Path 85" d="M31.3,34.317a6.991,6.991,0,0,1,9.4.758l1.2,1.336a15.632,15.632,0,0,0-1.649-1.352,4.948,4.948,0,0,0-.808-.511h-.1l-.264-.148a4.947,4.947,0,0,0-2.094-.577H34.735a3.99,3.99,0,0,0-.775.082,5.276,5.276,0,0,0-1.649.726,6.1,6.1,0,0,0-2.243,1.913.429.429,0,0,1-.478-.214C30.266,35.9,30.827,34.746,31.3,34.317Z" transform="translate(19.201 21.317)"/>
        <path id="Path_86" data-name="Path 86" d="M35.356,36.188a.544.544,0,0,0,.1-.165h0a.594.594,0,0,0,0-.148,2.836,2.836,0,0,0,.2-.973,1.45,1.45,0,0,0,0-.379h0a2.044,2.044,0,0,0-.148-.643h.247c.313.165.627.363.907.544.742.561,1.649,1.336,1.649,1.352a5.656,5.656,0,0,1-3.3.791h0a2.259,2.259,0,0,0,.346-.379Z" transform="translate(22.718 21.985)" fill="#fff"/>
        <path id="Path_87" data-name="Path 87" d="M32.19,33.51Z" transform="translate(20.888 21.745)" fill="#fff"/>
        <path id="Path_88" data-name="Path 88" d="M31.348,34.747a6.6,6.6,0,0,1,2.341-1.237v.214a1.962,1.962,0,0,0-.132.33V34.2a2.159,2.159,0,0,0-.1.445v.528a1.812,1.812,0,0,0,0,.3.825.825,0,0,0,0,.2,3.3,3.3,0,0,0,.132.429h0a2.539,2.539,0,0,0,.28.511c-2-.214-3.99-.594-3.99-.594C30.078,36.082,30.9,35.027,31.348,34.747Z" transform="translate(19.389 21.745)" fill="#fff"/>
        <path id="Path_89" data-name="Path 89" d="M35.3,35.28a2.259,2.259,0,0,1-.214.33,2.259,2.259,0,0,0,.214-.33Z" transform="translate(22.77 22.894)" fill="#592d04"/>
        <path id="Path_90" data-name="Path 90" d="M32.08,35.08Z" transform="translate(20.817 22.764)" fill="#592d04"/>
        <path id="Path_91" data-name="Path 91" d="M32.21,33.581h0l.824-.181H33.2l-.181.28C32.7,33.7,32.523,33.548,32.21,33.581Z" transform="translate(20.901 21.674)" fill="#592d04"/>
        <path id="Path_92" data-name="Path 92" d="M32,34.7a.825.825,0,0,0,0,.2A.825.825,0,0,1,32,34.7Z" transform="translate(20.763 22.517)" fill="#592d04"/>
        <path id="Path_93" data-name="Path 93" d="M32,34.481v0Z" transform="translate(20.765 22.258)" fill="#592d04"/>
        <path id="Path_94" data-name="Path 94" d="M32.192,33.64a1.961,1.961,0,0,0-.132.33A1.961,1.961,0,0,1,32.192,33.64Z" transform="translate(20.804 21.829)" fill="#592d04"/>
        <path id="Path_95" data-name="Path 95" d="M32.039,33.93a2.161,2.161,0,0,0-.1.445A2.161,2.161,0,0,1,32.039,33.93Z" transform="translate(20.726 22.017)" fill="#592d04"/>
        <path id="Path_96" data-name="Path 96" d="M35.34,35a.593.593,0,0,1,0,.148.593.593,0,0,0,0-.148Z" transform="translate(22.932 22.712)" fill="#592d04"/>
        <path id="Path_97" data-name="Path 97" d="M34.74,33.77c.4.181.495,0,.989,0a2.045,2.045,0,0,1,.148.643,5.194,5.194,0,0,0-1.138-.643Z" transform="translate(22.543 21.914)" fill="#592d04"/>
        <path id="Path_98" data-name="Path 98" d="M32.142,33.724V33.51h0a1.369,1.369,0,0,0,0,.214Z" transform="translate(20.854 21.745)" fill="#592d04"/>
        <path id="Path_99" data-name="Path 99" d="M35.34,35.383a2.358,2.358,0,0,0,.148-.676.791.791,0,0,0,0-.3,2.836,2.836,0,0,1-.148.973Z" transform="translate(22.932 22.329)" fill="#592d04"/>
        <path id="Path_100" data-name="Path 100" d="M32,34.82a3.3,3.3,0,0,0,.132.429A3.3,3.3,0,0,1,32,34.82Z" transform="translate(20.765 22.595)" fill="#592d04"/>
        <path id="Path_101" data-name="Path 101" d="M35.08,35.49Z" transform="translate(22.764 23.03)" fill="#592d04"/>
        <path id="Path_102" data-name="Path 102" d="M32.37,35.611h0a2.539,2.539,0,0,1-.28-.511,3.743,3.743,0,0,0,.28.511Z" transform="translate(20.823 22.777)" fill="#592d04"/>
        <path id="Path_103" data-name="Path 103" d="M32,34.2v0Z" transform="translate(20.765 22.193)" fill="#592d04"/>
        <path id="Path_104" data-name="Path 104" d="M32.06,33.84v0Z" transform="translate(20.804 21.959)" fill="#592d04"/>
        <path id="Path_105" data-name="Path 105" d="M32,34.52a1.813,1.813,0,0,0,0,.3A1.812,1.812,0,0,1,32,34.52Z" transform="translate(20.763 22.4)" fill="#592d04"/>
        <path id="Path_106" data-name="Path 106" d="M35.22,35.377a1.8,1.8,0,0,0,.132-.247h0A.544.544,0,0,1,35.22,35.377Z" transform="translate(22.855 22.796)" fill="#592d04"/>
        <path id="Path_107" data-name="Path 107" d="M35.18,35.214a1.649,1.649,0,0,0,.165-.462,1.006,1.006,0,0,1,.742.148.842.842,0,0,0,0-.231,2.358,2.358,0,0,1-.148.676.593.593,0,0,1,0,.148,1.8,1.8,0,0,1-.132.247,2.259,2.259,0,0,1-.214.33h-1.3A2.061,2.061,0,0,0,35.18,35.214Z" transform="translate(22.251 22.498)" fill="#592d04"/>
        <path id="Path_108" data-name="Path 108" d="M32.134,36.1A3.3,3.3,0,0,1,32,35.67a.825.825,0,0,1,0-.2,1.813,1.813,0,0,1,0-.3v-.528a2.161,2.161,0,0,1,.1-.445v-.148a1.962,1.962,0,0,1,.132-.33,1.368,1.368,0,0,1,.115-.214,6.708,6.708,0,0,0,.808.082l-.247.445a2.094,2.094,0,0,0,.742,2.721,4.98,4.98,0,0,1-1.286-.115,3.744,3.744,0,0,1-.28-.511Z" transform="translate(20.763 21.745)" fill="#592d04"/>
        <path id="Path_109" data-name="Path 109" d="M35.43,34.2h0a1.451,1.451,0,0,1,0,.379.791.791,0,0,1,0,.3v-.33a2.984,2.984,0,0,0,0-.346Z" transform="translate(22.991 22.193)" fill="#c6b198"/>
        <path id="Path_110" data-name="Path 110" d="M36.031,34.865v.33a.842.842,0,0,1,0,.231,1.006,1.006,0,0,0-.742-.148h-.528a1.253,1.253,0,0,0,0-.445,1.517,1.517,0,0,0-.181-.709,2.144,2.144,0,0,0,.313-.363,5.194,5.194,0,0,1,1.138.709,2.983,2.983,0,0,1,0,.4Z" transform="translate(22.439 21.907)" fill="#c6b198"/>
        <path id="Path_111" data-name="Path 111" d="M35.123,35.151a6.6,6.6,0,0,1-.791,0,.511.511,0,0,1-.478-.693,1.484,1.484,0,0,0,1.171-.478,1.517,1.517,0,0,1,.181.709,1.253,1.253,0,0,1-.082.462Z" transform="translate(21.946 22.05)" fill="#c6b198"/>
        <path id="Path_112" data-name="Path 112" d="M35.33,33.77l.264.148h-.247S35.33,33.8,35.33,33.77Z" transform="translate(22.926 21.914)"/>
        <path id="Path_113" data-name="Path 113" d="M37.709,35.532s-.94-.791-1.649-1.352A15.633,15.633,0,0,1,37.709,35.532Z" transform="translate(23.4 22.18)"/>
        <path id="Path_114" data-name="Path 114" d="M32.076,34.176a5.276,5.276,0,0,1,1.649-.726v.1h0a6.6,6.6,0,0,0-2.341,1.237c-.445.28-1.237,1.336-1.533,1.3a6.1,6.1,0,0,1,2.226-1.913Z" transform="translate(19.37 21.706)"/>
        <path id="Path_115" data-name="Path 115" d="M32.634,34.116a2.1,2.1,0,0,1,.3-.445h0l.181-.28h2.061a4.947,4.947,0,0,1,2.094.577h0c-.495-.115-.594.115-.989,0a2.144,2.144,0,0,1-.313.363,1.569,1.569,0,1,0,.1,1.154h.528a1.649,1.649,0,0,1-.165.462,2.061,2.061,0,0,1-.89.907H33.475A2.094,2.094,0,0,1,32.634,34.116Z" transform="translate(21.038 21.667)"/>
        <path id="Path_116" data-name="Path 116" d="M32.259,33.482a3.991,3.991,0,0,1,.775-.082l-.824.181Z" transform="translate(20.901 21.674)"/>
        <path id="Path_117" data-name="Path 117" d="M35.026,35.5a6.6,6.6,0,0,0,.791,0,1.568,1.568,0,1,1-.1-1.154,1.484,1.484,0,0,1-1.171.478.511.511,0,0,0,.478.676Z" transform="translate(21.252 21.722)"/>
        <path id="Path_118" data-name="Path 118" d="M32.55,34.005l.247-.445h0A2.094,2.094,0,0,0,32.55,34.005Z" transform="translate(21.122 21.777)"/>
        <path id="Path_119" data-name="Path 119" d="M46.068,33.913a6.447,6.447,0,0,0-.808.511l.907-.544Z" transform="translate(29.37 21.985)" fill="none"/>
        <path id="Path_120" data-name="Path 120" d="M48.48,33.43Z" transform="translate(31.459 21.693)" fill="none"/>
        <path id="Path_121" data-name="Path 121" d="M54.849,34.4a6.991,6.991,0,0,0-9.4.676L44.23,36.4a13.9,13.9,0,0,1,1.649-1.336,6.447,6.447,0,0,1,.808-.511h.1l.363-.165a5.046,5.046,0,0,1,2.111-.561H51.5a5.607,5.607,0,0,1,.758.1,5.31,5.31,0,0,1,1.649.758,6.217,6.217,0,0,1,2.226,1.929.429.429,0,0,0,.478-.214C55.921,36.017,55.393,34.9,54.849,34.4Z" transform="translate(28.701 21.349)"/>
        <path id="Path_122" data-name="Path 122" d="M47.232,36.257a.206.206,0,0,0-.115-.165c-.115-.066,0,0,0-.1q0-.074,0-.148a3.2,3.2,0,0,1-.2-.956,1.649,1.649,0,0,1,0-.4h0a2.622,2.622,0,0,1,.165-.643h-.247l-.907.544A16.792,16.792,0,0,0,44.28,35.73a5.722,5.722,0,0,0,3.3.824h0a2.259,2.259,0,0,1-.346-.3Z" transform="translate(28.734 21.966)" fill="#fff"/>
        <path id="Path_123" data-name="Path 123" d="M49.11,33.57Z" transform="translate(31.868 21.784)" fill="#fff"/>
        <path id="Path_124" data-name="Path 124" d="M51.516,34.823a6.827,6.827,0,0,0-2.341-1.253,1.847,1.847,0,0,1,0,.214,2.9,2.9,0,0,1,.148.33s0,.1,0,.148a2.16,2.16,0,0,1,.1.445.676.676,0,0,0,0,.181v.165a.594.594,0,0,1,0,.181,1.83,1.83,0,0,1,0,.313.594.594,0,0,1,0,.181,3.3,3.3,0,0,1-.132.429h0a3.529,3.529,0,0,1-.28.495c2-.181,3.99-.544,3.99-.544C52.737,36.192,51.962,35.12,51.516,34.823Z" transform="translate(31.803 21.784)" fill="#fff"/>
        <path id="Path_125" data-name="Path 125" d="M46.07,35.31a2.258,2.258,0,0,0,.214.33A2.259,2.259,0,0,1,46.07,35.31Z" transform="translate(29.895 22.913)" fill="#592d04"/>
        <path id="Path_126" data-name="Path 126" d="M49.21,35.14Z" transform="translate(31.933 22.803)" fill="#592d04"/>
        <path id="Path_127" data-name="Path 127" d="M49.489,33.648h0l-.808-.2H48.5l.181.28C48.995,33.763,49.16,33.615,49.489,33.648Z" transform="translate(31.472 21.706)" fill="#592d04"/>
        <path id="Path_128" data-name="Path 128" d="M49.31,34.77a.594.594,0,0,1,0,.181A.594.594,0,0,0,49.31,34.77Z" transform="translate(31.998 22.563)" fill="#592d04"/>
        <path id="Path_129" data-name="Path 129" d="M49.35,34.535V34.37a2.44,2.44,0,0,1,0,.346A.594.594,0,0,0,49.35,34.535Z" transform="translate(32.024 22.303)" fill="#592d04"/>
        <path id="Path_130" data-name="Path 130" d="M49.16,33.7l.148.33a2.9,2.9,0,0,0-.148-.33Z" transform="translate(31.9 21.868)" fill="#592d04"/>
        <path id="Path_131" data-name="Path 131" d="M49.27,34a2.16,2.16,0,0,1,.1.445,2.16,2.16,0,0,0-.1-.445Z" transform="translate(31.972 22.063)" fill="#592d04"/>
        <path id="Path_132" data-name="Path 132" d="M46,35.06q0,.074,0,.148Z" transform="translate(29.849 22.751)" fill="#592d04"/>
        <path id="Path_133" data-name="Path 133" d="M47.014,33.81c-.4.165-.495,0-.989,0a2.621,2.621,0,0,0-.165.643A5.1,5.1,0,0,1,47.014,33.81Z" transform="translate(29.759 21.94)" fill="#592d04"/>
        <path id="Path_134" data-name="Path 134" d="M49.16,33.784a1.847,1.847,0,0,0,0-.214h0Z" transform="translate(31.9 21.784)" fill="#592d04"/>
        <path id="Path_135" data-name="Path 135" d="M46.058,35.436a2.886,2.886,0,0,1-.148-.676s0-.165,0-.28a3.2,3.2,0,0,0,.148.956Z" transform="translate(29.791 22.374)" fill="#592d04"/>
        <path id="Path_136" data-name="Path 136" d="M49.342,34.88a3.3,3.3,0,0,1-.132.429A3.3,3.3,0,0,0,49.342,34.88Z" transform="translate(31.933 22.634)" fill="#592d04"/>
        <path id="Path_137" data-name="Path 137" d="M46.2,35.52Z" transform="translate(29.98 23.049)" fill="#592d04"/>
        <path id="Path_138" data-name="Path 138" d="M49,35.675h0a3.531,3.531,0,0,0,.28-.495,3.166,3.166,0,0,1-.28.495Z" transform="translate(31.797 22.829)" fill="#592d04"/>
        <path id="Path_139" data-name="Path 139" d="M49.332,34.26a.676.676,0,0,0,0,.181.676.676,0,0,1,0-.181Z" transform="translate(32.008 22.232)" fill="#592d04"/>
        <path id="Path_140" data-name="Path 140" d="M49.25,33.9v.148C49.25,34.1,49.266,33.949,49.25,33.9Z" transform="translate(31.959 21.998)" fill="#592d04"/>
        <path id="Path_141" data-name="Path 141" d="M49.33,34.58a1.022,1.022,0,0,1,0,.313,1.831,1.831,0,0,0,0-.313Z" transform="translate(32.011 22.439)" fill="#592d04"/>
        <path id="Path_142" data-name="Path 142" d="M46.115,35.414,46,35.15v.1C46,35.348,46.082,35.348,46.115,35.414Z" transform="translate(29.85 22.809)" fill="#592d04"/>
        <path id="Path_143" data-name="Path 143" d="M46.819,35.221a1.55,1.55,0,0,1-.165-.462,1.022,1.022,0,0,0-.742.148,1.171,1.171,0,0,1,0-.247,2.886,2.886,0,0,0,.148.676v.148l.148.264a2.258,2.258,0,0,0,.214.33H47.71a2.061,2.061,0,0,1-.89-.857Z" transform="translate(29.789 22.491)" fill="#592d04"/>
        <path id="Path_144" data-name="Path 144" d="M49.852,36.159a3.3,3.3,0,0,0,.132-.429.594.594,0,0,0,0-.181,1.022,1.022,0,0,0,0-.313,2.441,2.441,0,0,0,0-.346.677.677,0,0,1,0-.181,2.16,2.16,0,0,0-.1-.445s0-.1,0-.148l-.148-.33-.1-.214c-.33,0-.495.115-.824,0,.1.165.214.346.247.429a2.094,2.094,0,0,1-.841,2.721l1.286-.082a3.165,3.165,0,0,0,.3-.511Z" transform="translate(31.29 21.784)" fill="#592d04"/>
        <path id="Path_145" data-name="Path 145" d="M45.865,34.23h0a1.649,1.649,0,0,0,0,.4v.28a2.028,2.028,0,0,1,0-.33A2.7,2.7,0,0,1,45.865,34.23Z" transform="translate(29.754 22.212)" fill="#c6b198"/>
        <path id="Path_146" data-name="Path 146" d="M45.847,34.878a2.029,2.029,0,0,0,0,.33,1.171,1.171,0,0,0,0,.247,1.022,1.022,0,0,1,.742-.148h.528a2.077,2.077,0,0,1,0-.445,1.533,1.533,0,0,1,.181-.726l-.313-.346a5.1,5.1,0,0,0-1.154.693,2.705,2.705,0,0,0,.016.4Z" transform="translate(29.739 21.927)" fill="#c6b198"/>
        <path id="Path_147" data-name="Path 147" d="M46.706,35.2a6.6,6.6,0,0,0,.791,0,.511.511,0,0,0,.478-.676,1.533,1.533,0,0,1-1.154-.511,1.534,1.534,0,0,0-.181.726,2.077,2.077,0,0,0,.066.462Z" transform="translate(30.265 22.069)" fill="#c6b198"/>
        <path id="Path_148" data-name="Path 148" d="M46.1,33.8l-.264.132h.247A.1.1,0,0,0,46.1,33.8Z" transform="translate(29.746 21.933)"/>
        <path id="Path_149" data-name="Path 149" d="M44.23,35.526s.94-.791,1.649-1.336a13.9,13.9,0,0,0-1.649,1.336Z" transform="translate(28.701 22.186)"/>
        <path id="Path_150" data-name="Path 150" d="M50.749,34.3A5.309,5.309,0,0,0,49.1,33.54v.1h0a6.826,6.826,0,0,1,2.341,1.253c.445.3,1.22,1.369,1.517,1.336a6.216,6.216,0,0,0-2.21-1.929Z" transform="translate(31.861 21.764)"/>
        <path id="Path_151" data-name="Path 151" d="M50.534,34.159a3.842,3.842,0,0,0-.28-.429h0l-.181-.28H48.028A5.046,5.046,0,0,0,46,34.027h0c.495-.115.594.115.989,0l.313.346a1.649,1.649,0,0,1,1.4-.841,1.649,1.649,0,0,1,0,3.149,1.649,1.649,0,0,1-1.5-1.138h-.528a1.55,1.55,0,0,0,.165.462,2.061,2.061,0,0,0,.874.923h2.061a2.094,2.094,0,0,0,.759-2.77Z" transform="translate(29.85 21.706)"/>
        <path id="Path_152" data-name="Path 152" d="M49.358,33.549a5.605,5.605,0,0,0-.758-.1l.808.2Z" transform="translate(31.537 21.706)"/>
        <path id="Path_153" data-name="Path 153" d="M47.471,35.558a6.6,6.6,0,0,1-.791,0,1.6,1.6,0,1,0,.115-1.237,1.533,1.533,0,0,0,1.154.511.511.511,0,0,1-.478.726Z" transform="translate(30.291 21.725)"/>
        <path id="Path_154" data-name="Path 154" d="M48.847,34.049c0-.082-.148-.264-.247-.429h0a3.844,3.844,0,0,1,.247.429Z" transform="translate(31.537 21.816)"/>
        <path id="Path_155" data-name="Path 155" d="M42.027,32.056c.94-.61-1.55-1.566-3.776-2.144a23.085,23.085,0,0,0-7.057-.445c-2.572.66-3.034,4.32-3.034,5.112,0,0,1.8-2.226,3.3-2.21h6.464a11.312,11.312,0,0,0,4.106-.313Z" transform="translate(18.273 19.06)"/>
        <path id="Path_156" data-name="Path 156" d="M44.61,32.336c0-2.012,2.9-2.77,4.8-2.869s5.112.247,5.557.247,3.776,2.358,3.776,2.919a16.934,16.934,0,0,0-4.122-.363,56.31,56.31,0,0,1-7.008.412C47.05,32.567,44.594,32.666,44.61,32.336Z" transform="translate(28.948 19.11)"/>
        <path id="Path_157" data-name="Path 157" d="M57.825,23.952a4.337,4.337,0,0,0-3.3,1.517,2.655,2.655,0,0,1-4.155.165,11.229,11.229,0,0,0-9.151-2.671c-3.166.824-7.651.165-8.987,3.3s-3.3,5.507-3.3,7.008,2,5.178.824,7.189a20.578,20.578,0,0,0-1.5,7.667c0,1.171-.28,7.354-.28,7.354s-1.88-9.02-3.545-9.02a8.987,8.987,0,0,0,.561-3.3,12.531,12.531,0,0,1-.33-2.556c0-.544-.676-3.776-.346-3.891s.676-.214.561-1.1-.33-1.781-.775-1.781H23.66a5.26,5.26,0,0,0,.561-1.006c.214-.561.66-2.012.214-2.457a3.051,3.051,0,0,1-.214-2.341c.214-.561,1.435-2.556,1.319-3.446a4.947,4.947,0,0,1,.89-2.671c.33-.445,1.781-4.947,3.99-5.342s4.947-3.792,6-4.238,6.6-2.308,7.255-3.677,2.671-.214,4.666-.89a15.219,15.219,0,0,1,5.441-.1c.989,0,4.534-.231,4.534-.231s-.214,1.22.89,1.22,2.111-.445,2.44-.1,1.451,1.55,2.655.989c0,0-1.319,1.649.346,1.566s3.215-1.006,3.43,0,1.22,2.21,2.308,2.111-.115,1.22.33,1.22,2-.989,2,.445,1.435,2.341,1.88,1.649c0,0,1.336,3,2.226,3.116s1.764,1.006,1.764,3,1.336,3.446,1.649,5.128,1.649,6.777,1.121,8.9-.561,7.107-.89,8.673-2.177,2.589-2.177,4.139a18.93,18.93,0,0,1-2.094,5.375s.1-2.7.1-4.254,1.1-4.337.445-6.233-2.44-4.947-2.44-7.568.214-5.9-1.649-6.794-2.836-3.1-3.99-3.776c-1.9-1.121-3.99,1.336-6.332-.561a5.788,5.788,0,0,0-4.5-1.731Z" transform="translate(15.353 4.821)"/>
        <g id="Man_s_Glasses_2" data-name="Man&apos;s Glasses 2" transform="translate(39.986 48.758)">
          <path id="Path_158" data-name="Path 158" d="M78.367,33.247a3.182,3.182,0,0,1,.313-.775l-.214-2.9-2.506,1.9s1.814.148-6.183-.363S52.99,33.082,51.638,33.082,45.274,31.351,38.81,30.84a58.355,58.355,0,0,0-11.971.33l-2.407-.89-.181,1.138a3.661,3.661,0,0,1,.462.544,7.189,7.189,0,0,1,1.1,2.424,22.95,22.95,0,0,1,2.243,1.649,11.823,11.823,0,0,1,.907,3.3c.148.462.956,4.947,3.3,6.3,3.3,2.045,8.245,1.863,11.542.874s5.161-4.436,5.986-7.453,1.731-2.688,2.226-2.671,1.649-.28,2.506,4.023,5.392,6.859,10.075,7.189a9.052,9.052,0,0,0,7.9-3.018c.94-1.039,2.622-7.173,2.82-7.948s1.649-1.5,1.649-1.5l1.451-1.533C78.252,33.577,78.334,33.412,78.367,33.247ZM47.351,41.953a8.558,8.558,0,0,1-8.558,4.65c-5.392-.231-6.711-2.21-7.3-3.479s-2.16-7.206-.544-9.316a11.674,11.674,0,0,1,6.744-1.781,31.2,31.2,0,0,1,6.233.544c2.49.577,4.534,2.358,4.485,3.463A12.812,12.812,0,0,1,47.351,41.953Zm24.734,1.418c-.594,1.27-1.929,3.3-7.338,3.4A8.624,8.624,0,0,1,56.222,42a13.191,13.191,0,0,1-1.055-5.92c0-1.121,2.012-2.869,4.5-3.413a31.445,31.445,0,0,1,6.249-.462,11.79,11.79,0,0,1,6.728,1.863c1.665,2.127.033,8.047-.561,9.3Z" transform="translate(-24.25 -29.57)"/>
          <path id="Path_159" data-name="Path 159" d="M36.21,31.49v.264l3.166.231-.082.132L36.21,31.9l.049.3,2.968.231-.049.115-2.9-.2.033.214,3.067.264.495-1.171Z" transform="translate(-33.852 -28.324)" fill="#fff"/>
          <path id="Path_160" data-name="Path 160" d="M68.251,31.54l.016.264-2.886.3.082.132,2.8-.264-.033.28-2.721.3.049.115,2.655-.264-.016.231-2.8.313-.478-1.154Z" transform="translate(-15.222 -28.292)" fill="#fff"/>
        </g>
      </g>
    </g>
  </g>
  <text id="MAX_JONES" data-name="MAX JONES" transform="translate(250 59)" fill="#fff" font-size="24" font-family="Montserrat-Medium, Montserrat" font-weight="500" letter-spacing="0.02em"><tspan x="0" y="23">MAX JONES</tspan></text>
  <text id="SALES_EXTRAORDINAIRE" data-name="SALES EXTRAORDINAIRE" transform="translate(250 94)" fill="#fff" font-size="14" font-family="Montserrat-Medium, Montserrat" font-weight="500" letter-spacing="0.02em"><tspan x="0" y="14">SALES EXTRAORDINAIRE</tspan></text>
  <g id="Group_62" data-name="Group 62" transform="translate(-20 4)">
    <path id="phone-square-alt-solid" d="M17.857,32H2.143A2.143,2.143,0,0,0,0,34.143V49.857A2.143,2.143,0,0,0,2.143,52H17.857A2.143,2.143,0,0,0,20,49.857V34.143A2.143,2.143,0,0,0,17.857,32Zm-.732,13.722-.67,2.9a.67.67,0,0,1-.652.519A12.947,12.947,0,0,1,2.857,36.2a.7.7,0,0,1,.519-.652l2.9-.67a.814.814,0,0,1,.15-.017.726.726,0,0,1,.616.406l1.339,3.125a.8.8,0,0,1,.054.264.759.759,0,0,1-.246.518L6.5,40.554A10.353,10.353,0,0,0,11.446,45.5l1.384-1.692a.759.759,0,0,1,.518-.246.8.8,0,0,1,.264.054l3.125,1.339a.725.725,0,0,1,.406.616A.777.777,0,0,1,17.125,45.722Z" transform="translate(270 118)" fill="#fff"/>
    <text id="_555_555_5551" data-name="555 555 5551" transform="translate(304 151)" fill="#fff" font-size="14" font-family="Montserrat-Medium, Montserrat" font-weight="500" letter-spacing="0.02em"><tspan x="0" y="14">555 555 5551</tspan></text>
  </g>
  <g id="Group_63" data-name="Group 63" transform="translate(-20 -3)">
    <path id="envelope-square-solid" d="M17.857,32H2.143A2.143,2.143,0,0,0,0,34.143V49.857A2.143,2.143,0,0,0,2.143,52H17.857A2.143,2.143,0,0,0,20,49.857V34.143A2.143,2.143,0,0,0,17.857,32ZM7.952,42.273C3.9,39.334,3.944,39.327,2.857,38.481V37.357a1.071,1.071,0,0,1,1.071-1.071H16.071a1.071,1.071,0,0,1,1.071,1.071v1.124c-1.088.847-1.046.854-5.095,3.792-.469.342-1.4,1.166-2.048,1.156C9.353,43.438,8.421,42.615,7.952,42.273Zm9.191-1.979v6.349a1.071,1.071,0,0,1-1.071,1.071H3.929a1.071,1.071,0,0,1-1.071-1.071V40.294c.623.482,1.488,1.127,4.255,3.135.632.462,1.7,1.435,2.888,1.429s2.278-.984,2.889-1.43C15.655,41.42,16.52,40.775,17.143,40.294Z" transform="translate(270 159)" fill="#fff"/>
    <text id="mjones_zcorp.com" data-name="mjones@zcorp.com" transform="translate(304 192)" fill="#fff" font-size="14" font-family="Montserrat-Medium, Montserrat" font-weight="500" letter-spacing="0.02em"><tspan x="0" y="14">mjones@zcorp.com</tspan></text>
  </g>
  <g id="Group_64" data-name="Group 64" transform="translate(-20 -10)">
    <path id="linkedin-brands" d="M18.571,32H1.424A1.435,1.435,0,0,0,0,33.442V50.558A1.435,1.435,0,0,0,1.424,52H18.571A1.439,1.439,0,0,0,20,50.558V33.442A1.439,1.439,0,0,0,18.571,32ZM6.045,49.143H3.08V39.6H6.049v9.545ZM4.563,38.295a1.719,1.719,0,1,1,1.719-1.719A1.719,1.719,0,0,1,4.563,38.295ZM17.156,49.143H14.192V44.5c0-1.107-.022-2.531-1.54-2.531-1.545,0-1.781,1.205-1.781,2.451v4.723H7.906V39.6H10.75v1.3h.04a3.122,3.122,0,0,1,2.808-1.54c3,0,3.558,1.978,3.558,4.549Z" transform="translate(270 200)" fill="#fff"/>
    <text id="linkedin.com_in_mjones" data-name="linkedin.com/in/mjones" transform="translate(304 233)" fill="#fff" font-size="14" font-family="Montserrat-Medium, Montserrat" font-weight="500" letter-spacing="0.02em"><tspan x="0" y="14">linkedin.com/in/mjones</tspan></text>
  </g>
</svg>
