<svg id="Group_2569" data-name="Group 2569" xmlns="http://www.w3.org/2000/svg" width="1920" viewBox="0 0 1920 961" style="max-width:100%;">
  <g id="Rectangle_2446" data-name="Rectangle 2446" fill="#a4acbc" stroke="#707070" stroke-width="1">
    <rect width="1920" height="961" rx="10" stroke="none"/>
    <rect x="0.5" y="0.5" width="1919" height="960" rx="9.5" fill="none"/>
  </g>
  <g id="Rectangle_2447" data-name="Rectangle 2447" transform="translate(507 75)" fill="#fff" stroke="#29339b" stroke-width="2">
    <rect width="375" height="812" stroke="none"/>
    <rect x="1" y="1" width="373" height="810" fill="none"/>
  </g>
  <path id="Line" d="M59.008,2.225c28.832-.2,57.663-.16,86.495-.066,33.682.108,9.364.309,43.046.507q52.731.312,105.463.559c33.515.132,26.031.2,59.546.1,28.745-.094,41.493-.3,70.234-.885q4.583-.094,9.163-.2a1.042,1.042,0,0,0,0-2.083c-27.908.667-39.823.913-67.738,1.042-33.21.153-25.42.108-58.63,0Q253.892,1.009,201.2.655c-33.932-.2-9.864-.41-43.8-.538C127.8,0,98.193-.063,68.587.082Q63.8.108,59.008.141a1.042,1.042,0,0,0,0,2.083Z" transform="translate(448.999 818.001)" fill="#080808"/>
  <g id="Group_121" data-name="Group 121" transform="translate(507 46)">
    <g id="Path_1045" data-name="Path 1045" transform="translate(347 89)" fill="#fff">
      <path d="M -12.36768531799316 27 L -306.3914794921875 27 C -306.9955444335938 27 -307.9574279785156 25.94346237182617 -308.7446899414062 23.58311462402344 C -309.5935363769531 21.03819274902344 -310.0610046386719 17.63484573364258 -310.0610046386719 14 C -310.0610046386719 10.36515426635742 -309.5935363769531 6.961807727813721 -308.7446899414062 4.416884422302246 C -307.9574279785156 2.056538343429565 -306.9955444335938 1 -306.3914794921875 1 L -12.36768531799316 1 C -11.76364707946777 1 -10.80176162719727 2.056538343429565 -10.01449298858643 4.416884422302246 C -9.165684700012207 6.961807727813721 -8.698223114013672 10.36515426635742 -8.698223114013672 14 C -8.698223114013672 17.63484573364258 -9.165684700012207 21.03819274902344 -10.01449298858643 23.58311462402344 C -10.80176162719727 25.94346237182617 -11.76364707946777 27 -12.36768531799316 27 Z" stroke="none"/>
      <path d="M -306.3063354492188 2 C -306.5701293945312 2.168462753295898 -307.3238830566406 3.049236297607422 -308.0012512207031 5.39442253112793 C -308.6846313476562 7.760307312011719 -309.0610046386719 10.81649971008301 -309.0610046386719 14 C -309.0610046386719 17.18350028991699 -308.6846313476562 20.23969268798828 -308.0012512207031 22.60557746887207 C -307.3238830566406 24.95076370239258 -306.5701293945312 25.8315372467041 -306.3063354492188 26 L -12.452880859375 26 C -12.1890869140625 25.83153915405273 -11.43533325195312 24.95080184936523 -10.75796508789062 22.60557746887207 C -10.07455444335938 20.23969268798828 -9.698211669921875 17.18350028991699 -9.698211669921875 14 C -9.698211669921875 10.81649971008301 -10.07455444335938 7.760307312011719 -10.75796508789062 5.39442253112793 C -11.43533325195312 3.049198150634766 -12.1890869140625 2.168460845947266 -12.452880859375 2 L -306.3063354492188 2 M -306.3915405273438 0 L -12.36773681640625 0 C -9.788848876953125 0 -7.698211669921875 6.267999649047852 -7.698211669921875 14 C -7.698211669921875 21.73200035095215 -9.788848876953125 28 -12.36773681640625 28 L -306.3915405273438 28 C -308.9703674316406 28 -311.0610046386719 21.73200035095215 -311.0610046386719 14 C -311.0610046386719 6.267999649047852 -308.9703674316406 0 -306.3915405273438 0 Z" stroke="none" fill="#080808"/>
    </g>
    <path id="Icon_-_Search" data-name="Icon - Search" d="M2533-1936.812c-1.2-1.335-2.362-2.75-3.638-4.02l.014-.014a7.077,7.077,0,0,0,.687-8.213,7.375,7.375,0,0,0-8.037-3.432c-3.411.734-4.835,3.628-4.866,6.893a6.785,6.785,0,0,0,4.3,6.694,7.732,7.732,0,0,0,7.079-1.17c1.289,1.279,2.456,2.706,3.669,4.051C2532.691-1935.486,2533.48-1936.279,2533-1936.812Zm-10.237-2.906c-2.923-.5-4.5-3.072-4.485-5.88.021-2.288.717-4.6,3.021-5.508a6.349,6.349,0,0,1,7.159,1.689,6.136,6.136,0,0,1,.635,7.108A6.37,6.37,0,0,1,2522.762-1939.718Z" transform="translate(-2466.159 2047.669)" fill="#080808"/>
    <text id="Search" transform="translate(121 108)" fill="#080808" font-size="16" font-family="tekton-pro, tekton-pro" font-weight="700"><tspan x="-23.056" y="0">Search</tspan></text>
  </g>
  <g id="Group_119" data-name="Group 119" transform="translate(507 34)">
    <text id="Parking_at_Willow_Park" data-name="Parking at Willow Park" transform="translate(130 193)" fill="#080808" font-size="24" font-family="tekton-pro, tekton-pro" font-weight="700"><tspan x="-105.312" y="0">Parking at Willow Park</tspan></text>
    <text id="_0.2_miles" data-name="0.2 miles" transform="translate(67 453)" fill="#080808" font-size="16" font-family="tekton-pro, tekton-pro" font-weight="700"><tspan x="-30.792" y="0">0.2 miles</tspan></text>
    <text id="_234_spaces_available" data-name="234 spaces available" transform="translate(108 432)" fill="#080808" font-size="18" font-family="tekton-pro, tekton-pro" font-weight="700"><tspan x="-78.201" y="0">234 spaces available</tspan></text>
    <g id="Group_118" data-name="Group 118">
      <path id="Path_1046" data-name="Path 1046" d="M1569.026-2284.475c-.215-14.582-.092-29.166.563-43.741a1.186,1.186,0,0,0-.69-1.11,2.423,2.423,0,0,0-1.427-.371c-77.54,1.171-155.1,2.361-232.66,1.885q-32.878-.2-65.747-.834a2.18,2.18,0,0,0-1.681.578c-.871.126-1.625.587-1.624,1.392.012,21.574,1.33,43.129,2.7,64.678,1.758,27.722,3.52,55.44,4.248,83.186.413,15.709.9,31.685,5.977,47.062a1.243,1.243,0,0,0,.068.139c-.483.875.138,2.079,1.881,2.071,75.48-.317,150.935,1.987,226.417,1.339,21-.18,41.993-.6,62.964-1.37a2.627,2.627,0,0,0,1.288-.353,1.34,1.34,0,0,0,.829-1.129C1574.424-2182.212,1569.782-2233.328,1569.026-2284.475Zm-225.368,152.2q-30.443-.288-60.891-.23c0-.011,0-.021-.006-.032-4.532-13.737-5.252-27.972-5.7-42.015-.466-14.532-.927-29.053-1.715-43.58-1.333-24.553-3.184-49.092-4.4-73.648-.558-11.292-.921-22.587-.948-33.885,76.811,1.486,153.656.94,230.47-.092q32.413-.435,64.822-.943c-2.14,50.654,2.413,101.266,3.162,151.908.208,14.111.1,28.224-.505,42.329C1493.241-2129.79,1418.4-2131.568,1343.658-2132.277Z" transform="translate(-1240.759 2534.461)" fill="#080808" stroke="rgba(0,0,0,0)" stroke-width="1"/>
      <g id="Group_117" data-name="Group 117" transform="translate(20 26)">
        <path id="Path_1043" data-name="Path 1043" d="M1535.884-2147.31a2.983,2.983,0,0,0-.106-.739c-.966-6.434-5.778-8.988-12.083-9.056q-9.9-.1-19.788-.152c-16.88-.079-33.767-.072-50.642.328-6.286.149-13.9-.519-16.594,6.6-.866,2.289-.651,4.8-.642,7.2q.055,14.056.112,28.111c.035,8.557-.033,17.121.1,25.677.056,3.542.814,6.821,3.771,9.149,2.82,2.22,6.146,2.171,9.582,2.335,4.547.216,9.09.4,13.642.443,9.352.085,18.7-.177,28.055-.2,8.874-.021,17.83.373,26.689-.18,6.487-.4,15.29.133,17.941-7.286.815-2.277.594-4.721.568-7.1Q1536.187-2119.747,1535.884-2147.31Zm-94.241.489c.6-5.059,5.824-4.344,9.657-4.443s7.7-.173,11.547-.23q12.622-.186,25.247-.178,11.635-.011,23.268.075c4.615.032,18.26-2.057,18.892,4.287q.193,17.614.386,35.228-4.507-4.2-9.057-8.346c-2.85-2.589-5.952-6.09-10.076-6.359-4.074-.264-7.358,2.6-10.309,5.026a88.9,88.9,0,0,0-9.2,8.723c-5.863-5.878-12.307-11.139-19.573-13.994-6.969-2.738-10.829,1.534-15.523,6.058l-15.1,14.547-.1-24.844C1441.685-2136.321,1441.051-2141.8,1441.643-2146.822Zm89.256,58.288c-.682,6.624-13.938,5.274-18.993,5.3-8.155.041-16.31-.028-24.464.015-8.068.043-16.136.255-24.2.184-3.539-.031-7.074-.141-10.609-.3-3.992-.18-10.073.773-10.75-4.53a67.49,67.49,0,0,1-.154-10.712c.072-.058.145-.1.214-.169l14.372-13.848c2.561-2.467,5.04-5.359,7.84-7.554,4.092-3.208,6.9-1.623,10.7.805,10.522,6.715,18.867,16.4,27.1,25.631,2.413,2.705,6.384-1.279,3.981-3.971-3.183-3.567-6.525-7.494-10.076-11.332,4.219-4.9,12.172-13.569,16.95-11.413,3.2,1.443,6.183,5.228,8.767,7.6q4.608,4.231,9.162,8.521C1530.827-2099.149,1531.427-2093.654,1530.9-2088.534Z" transform="translate(-1328.057 2396.936)" fill="#080808" stroke="rgba(0,0,0,0)" stroke-width="1"/>
        <path id="Path_1044" data-name="Path 1044" d="M1492.6-2124.618c6.008-.017,11.206-4.554,11.231-10.687a11.42,11.42,0,0,0-11.25-11.334c-6.627-.082-10.376,4.784-10.532,11.005C1482.174-2129.635,1486.286-2124.6,1492.6-2124.618Zm-.479-16.411a5.767,5.767,0,0,1,6.079,5.724c-.015,2.9-2.37,4.812-5.125,5.04-3.376.279-5.332-2.2-5.4-5.368C1487.752-2138.561,1488.835-2140.884,1492.122-2141.03Z" transform="translate(-1330.897 2396.254)" fill="#080808" stroke="rgba(0,0,0,0)" stroke-width="1"/>
      </g>
    </g>
  </g>
  <g id="Group_120" data-name="Group 120" transform="translate(504 347)">
    <text id="Metro_West_Parking" data-name="Metro West Parking" transform="translate(122 193)" fill="#080808" font-size="24" font-family="tekton-pro, tekton-pro" font-weight="700"><tspan x="-96.816" y="0">Metro West Parking</tspan></text>
    <text id="_2.2_miles" data-name="2.2 miles" transform="translate(67 453)" fill="#080808" font-size="16" font-family="tekton-pro, tekton-pro" font-weight="700"><tspan x="-30.864" y="0">2.2 miles</tspan></text>
    <text id="_79_spaces_available" data-name="79 spaces available" transform="translate(108 432)" fill="#080808" font-size="18" font-family="tekton-pro, tekton-pro" font-weight="700"><tspan x="-72.297" y="0">79 spaces available</tspan></text>
    <g id="Group_118-2" data-name="Group 118">
      <path id="Path_1046-2" data-name="Path 1046" d="M1569.026-2284.475c-.215-14.582-.092-29.166.563-43.741a1.186,1.186,0,0,0-.69-1.11,2.423,2.423,0,0,0-1.427-.371c-77.54,1.171-155.1,2.361-232.66,1.885q-32.878-.2-65.747-.834a2.18,2.18,0,0,0-1.681.578c-.871.126-1.625.587-1.624,1.392.012,21.574,1.33,43.129,2.7,64.678,1.758,27.722,3.52,55.44,4.248,83.186.413,15.709.9,31.685,5.977,47.062a1.243,1.243,0,0,0,.068.139c-.483.875.138,2.079,1.881,2.071,75.48-.317,150.935,1.987,226.417,1.339,21-.18,41.993-.6,62.964-1.37a2.627,2.627,0,0,0,1.288-.353,1.34,1.34,0,0,0,.829-1.129C1574.424-2182.212,1569.782-2233.328,1569.026-2284.475Zm-225.368,152.2q-30.443-.288-60.891-.23c0-.011,0-.021-.006-.032-4.532-13.737-5.252-27.972-5.7-42.015-.466-14.532-.927-29.053-1.715-43.58-1.333-24.553-3.184-49.092-4.4-73.648-.558-11.292-.921-22.587-.948-33.885,76.811,1.486,153.656.94,230.47-.092q32.413-.435,64.822-.943c-2.14,50.654,2.413,101.266,3.162,151.908.208,14.111.1,28.224-.505,42.329C1493.241-2129.79,1418.4-2131.568,1343.658-2132.277Z" transform="translate(-1240.759 2534.461)" fill="#080808" stroke="rgba(0,0,0,0)" stroke-width="1"/>
      <g id="Group_117-2" data-name="Group 117" transform="translate(20 26)">
        <path id="Path_1043-2" data-name="Path 1043" d="M1535.884-2147.31a2.983,2.983,0,0,0-.106-.739c-.966-6.434-5.778-8.988-12.083-9.056q-9.9-.1-19.788-.152c-16.88-.079-33.767-.072-50.642.328-6.286.149-13.9-.519-16.594,6.6-.866,2.289-.651,4.8-.642,7.2q.055,14.056.112,28.111c.035,8.557-.033,17.121.1,25.677.056,3.542.814,6.821,3.771,9.149,2.82,2.22,6.146,2.171,9.582,2.335,4.547.216,9.09.4,13.642.443,9.352.085,18.7-.177,28.055-.2,8.874-.021,17.83.373,26.689-.18,6.487-.4,15.29.133,17.941-7.286.815-2.277.594-4.721.568-7.1Q1536.187-2119.747,1535.884-2147.31Zm-94.241.489c.6-5.059,5.824-4.344,9.657-4.443s7.7-.173,11.547-.23q12.622-.186,25.247-.178,11.635-.011,23.268.075c4.615.032,18.26-2.057,18.892,4.287q.193,17.614.386,35.228-4.507-4.2-9.057-8.346c-2.85-2.589-5.952-6.09-10.076-6.359-4.074-.264-7.358,2.6-10.309,5.026a88.9,88.9,0,0,0-9.2,8.723c-5.863-5.878-12.307-11.139-19.573-13.994-6.969-2.738-10.829,1.534-15.523,6.058l-15.1,14.547-.1-24.844C1441.685-2136.321,1441.051-2141.8,1441.643-2146.822Zm89.256,58.288c-.682,6.624-13.938,5.274-18.993,5.3-8.155.041-16.31-.028-24.464.015-8.068.043-16.136.255-24.2.184-3.539-.031-7.074-.141-10.609-.3-3.992-.18-10.073.773-10.75-4.53a67.49,67.49,0,0,1-.154-10.712c.072-.058.145-.1.214-.169l14.372-13.848c2.561-2.467,5.04-5.359,7.84-7.554,4.092-3.208,6.9-1.623,10.7.805,10.522,6.715,18.867,16.4,27.1,25.631,2.413,2.705,6.384-1.279,3.981-3.971-3.183-3.567-6.525-7.494-10.076-11.332,4.219-4.9,12.172-13.569,16.95-11.413,3.2,1.443,6.183,5.228,8.767,7.6q4.608,4.231,9.162,8.521C1530.827-2099.149,1531.427-2093.654,1530.9-2088.534Z" transform="translate(-1328.057 2396.936)" fill="#080808" stroke="rgba(0,0,0,0)" stroke-width="1"/>
        <path id="Path_1044-2" data-name="Path 1044" d="M1492.6-2124.618c6.008-.017,11.206-4.554,11.231-10.687a11.42,11.42,0,0,0-11.25-11.334c-6.627-.082-10.376,4.784-10.532,11.005C1482.174-2129.635,1486.286-2124.6,1492.6-2124.618Zm-.479-16.411a5.767,5.767,0,0,1,6.079,5.724c-.015,2.9-2.37,4.812-5.125,5.04-3.376.279-5.332-2.2-5.4-5.368C1487.752-2138.561,1488.835-2140.884,1492.122-2141.03Z" transform="translate(-1330.897 2396.254)" fill="#080808" stroke="rgba(0,0,0,0)" stroke-width="1"/>
      </g>
    </g>
  </g>
  <path id="Path_359" data-name="Path 359" d="M15.47,3c.02,0,.039,0,.059,0h.01Z" transform="translate(866.049 197.554) rotate(90)" fill="#29339b" stroke="#29339b" stroke-miterlimit="10" stroke-width="0.5"/>
  <path id="Path_360" data-name="Path 360" d="M85.923,6.6c-16.506-.043-64.389.045-80.632.367a3.415,3.415,0,0,1-1.674-.395.993.993,0,0,1-.4-.338,1.616,1.616,0,0,1-.229-.605A2.011,2.011,0,0,1,3.467,4.1a3.062,3.062,0,0,1,1.753-.714c16.25-.322,64.167-.412,80.705-.367V6.6Z" transform="translate(870.017 192.132) rotate(90)" fill="#080808" stroke="#080808" stroke-miterlimit="10" stroke-width="0.5"/>
  <path id="Path_358" data-name="Path 358" d="M602.121.378c5.921.193,11.345,1.133,10.494,2.833-.776,1.55-7.568,1.8-12.6,1.781q-9.892-.034-19.791-.059-24.909-.065-49.81-.107-63.67-.114-127.347-.155-72.031-.057-144.055-.052-68,.005-136,.083-51.6.067-103.2.252-4.645.021-9.283.045V3.965c.109,0,.218,0,.327,0V5C4.539,4.972-1.355,4.111.272,2.316,1.571.885,7.084.4,12.3.369Q22.186.32,32.074.285,56.942.194,81.824.15,145.647.021,209.47.012q71.98-.031,143.966.009Q421.4.055,489.379.145q51.736.07,103.473.205,4.635.01,9.269.028c2.627.009,2.634,1.043,0,1.035q-47-.158-94-.209-64.487-.1-128.967-.136-70.183-.047-140.373-.033-64.732.013-129.464.1-48.051.072-96.1.264a50.892,50.892,0,0,0-6.132.267c-2.055.264-3.716.928-2.913,1.54.851.647,4.465.748,6.683.757,2.627.01,2.634,1.024,0,1.035-.109,0-.218,0-.327,0-2.627.01-2.627-1.021,0-1.035q47.041-.246,94.1-.271,64.324-.1,128.647-.105,70.224-.018,140.455.028,64.762.039,129.518.133,47.929.072,95.851.205c2.2.007,4.41.045,6.52-.14,2.988-.262,3.879-1.059,2.055-1.723a22.689,22.689,0,0,0-5.56-.678C599.549,1.328,599.515.292,602.121.378Z" transform="translate(867.53 192.296) rotate(90)" fill="#080808" stroke="#080808" stroke-width="0.5"/>
  <path id="Path_1086" data-name="Path 1086" d="M253.368,108.613c-33.908-2.409-70.3,2.011-101.7,18.083-15.419,7.894-36.655,23.106-34.6,46.458,1.851,21,22.045,33.715,36.7,40.59,35.812,16.8,81.215,18.282,117.912,4.639,13.822-5.138,28.93-13.222,39.335-25.548,14.009-16.591,7.82-40.717-5.728-54.508-17.894-18.307-43.776-22.965-66.623-23.238-20.86-.248-40.571,5.315-59.237,16.183l-.33-.718c29.536-18.989,64.666-23.929,97.35-14.287,16.688,4.921,34.116,15.007,43.009,33.322,8.6,17.7,5.252,38.129-7.611,51.379-29.177,30.053-70.048,36.809-107.311,33.425-19.83-1.8-39.732-6.73-57.815-16.789-14.6-8.12-31.955-21.676-34.353-42.309-4.423-38.064,39.418-55.386,63.246-61.766a208.6,208.6,0,0,1,45.151-6.684q10.069-.429,20.147.026C243.817,107,252.221,106.184,253.368,108.613Z" transform="translate(394.938 287.367)" fill="#29d9c2"/>
  <g id="Rectangle_2448" data-name="Rectangle 2448" transform="translate(1358 78)" fill="#fff" stroke="#29339b" stroke-width="2">
    <rect width="375" height="812" stroke="none"/>
    <rect x="1" y="1" width="373" height="810" fill="none"/>
  </g>
  <g id="Group_115" data-name="Group 115" transform="translate(1342 79)">
    <text id="Parking" transform="translate(80 64)" fill="#080808" font-size="16" font-family="tekton-pro, tekton-pro" font-weight="700"><tspan x="-23.576" y="0">Parking</tspan></text>
    <g id="Icon_-_Arrow_Left_1" data-name="Icon - Arrow Left 1" transform="translate(32 54)">
      <path id="Arrow_Left_1" data-name="Arrow Left 1" d="M435.982,50.05q2.148,2.22,4.2,4.528c-.09-.337-.177-.678-.268-1.015-.007.024-.01.052-.017.076a1.05,1.05,0,0,0,1.741,1.015,61.71,61.71,0,0,0,3.968-4.931c.865-1.018-.6-2.5-1.473-1.473a60.336,60.336,0,0,1-3.968,4.931c.58.337,1.161.678,1.741,1.015.222-.959-.7-1.6-1.282-2.238q-1.559-1.715-3.169-3.378c-.931-.97-2.4.5-1.473,1.47Z" transform="translate(54.951 -435.685) rotate(90)" fill="#080808"/>
    </g>
  </g>
  <g id="Group_122" data-name="Group 122" transform="translate(1367 11)">
    <text id="Metro_West_Parking-2" data-name="Metro West Parking" transform="translate(122 193)" fill="#080808" font-size="24" font-family="tekton-pro, tekton-pro" font-weight="700"><tspan x="-96.816" y="0">Metro West Parking</tspan></text>
    <text id="_2.2_miles-2" data-name="2.2 miles" transform="translate(67 453)" fill="#080808" font-size="16" font-family="tekton-pro, tekton-pro" font-weight="700"><tspan x="-30.864" y="0">2.2 miles</tspan></text>
    <text id="_79_spaces_available-2" data-name="79 spaces available" transform="translate(108 432)" fill="#080808" font-size="18" font-family="tekton-pro, tekton-pro" font-weight="700"><tspan x="-72.297" y="0">79 spaces available</tspan></text>
    <g id="Group_118-3" data-name="Group 118">
      <path id="Path_1046-3" data-name="Path 1046" d="M1569.026-2284.475c-.215-14.582-.092-29.166.563-43.741a1.186,1.186,0,0,0-.69-1.11,2.423,2.423,0,0,0-1.427-.371c-77.54,1.171-155.1,2.361-232.66,1.885q-32.878-.2-65.747-.834a2.18,2.18,0,0,0-1.681.578c-.871.126-1.625.587-1.624,1.392.012,21.574,1.33,43.129,2.7,64.678,1.758,27.722,3.52,55.44,4.248,83.186.413,15.709.9,31.685,5.977,47.062a1.243,1.243,0,0,0,.068.139c-.483.875.138,2.079,1.881,2.071,75.48-.317,150.935,1.987,226.417,1.339,21-.18,41.993-.6,62.964-1.37a2.627,2.627,0,0,0,1.288-.353,1.34,1.34,0,0,0,.829-1.129C1574.424-2182.212,1569.782-2233.328,1569.026-2284.475Zm-225.368,152.2q-30.443-.288-60.891-.23c0-.011,0-.021-.006-.032-4.532-13.737-5.252-27.972-5.7-42.015-.466-14.532-.927-29.053-1.715-43.58-1.333-24.553-3.184-49.092-4.4-73.648-.558-11.292-.921-22.587-.948-33.885,76.811,1.486,153.656.94,230.47-.092q32.413-.435,64.822-.943c-2.14,50.654,2.413,101.266,3.162,151.908.208,14.111.1,28.224-.505,42.329C1493.241-2129.79,1418.4-2131.568,1343.658-2132.277Z" transform="translate(-1240.759 2534.461)" fill="#080808" stroke="rgba(0,0,0,0)" stroke-width="1"/>
      <g id="Group_117-3" data-name="Group 117" transform="translate(20 26)">
        <path id="Path_1043-3" data-name="Path 1043" d="M1535.884-2147.31a2.983,2.983,0,0,0-.106-.739c-.966-6.434-5.778-8.988-12.083-9.056q-9.9-.1-19.788-.152c-16.88-.079-33.767-.072-50.642.328-6.286.149-13.9-.519-16.594,6.6-.866,2.289-.651,4.8-.642,7.2q.055,14.056.112,28.111c.035,8.557-.033,17.121.1,25.677.056,3.542.814,6.821,3.771,9.149,2.82,2.22,6.146,2.171,9.582,2.335,4.547.216,9.09.4,13.642.443,9.352.085,18.7-.177,28.055-.2,8.874-.021,17.83.373,26.689-.18,6.487-.4,15.29.133,17.941-7.286.815-2.277.594-4.721.568-7.1Q1536.187-2119.747,1535.884-2147.31Zm-94.241.489c.6-5.059,5.824-4.344,9.657-4.443s7.7-.173,11.547-.23q12.622-.186,25.247-.178,11.635-.011,23.268.075c4.615.032,18.26-2.057,18.892,4.287q.193,17.614.386,35.228-4.507-4.2-9.057-8.346c-2.85-2.589-5.952-6.09-10.076-6.359-4.074-.264-7.358,2.6-10.309,5.026a88.9,88.9,0,0,0-9.2,8.723c-5.863-5.878-12.307-11.139-19.573-13.994-6.969-2.738-10.829,1.534-15.523,6.058l-15.1,14.547-.1-24.844C1441.685-2136.321,1441.051-2141.8,1441.643-2146.822Zm89.256,58.288c-.682,6.624-13.938,5.274-18.993,5.3-8.155.041-16.31-.028-24.464.015-8.068.043-16.136.255-24.2.184-3.539-.031-7.074-.141-10.609-.3-3.992-.18-10.073.773-10.75-4.53a67.49,67.49,0,0,1-.154-10.712c.072-.058.145-.1.214-.169l14.372-13.848c2.561-2.467,5.04-5.359,7.84-7.554,4.092-3.208,6.9-1.623,10.7.805,10.522,6.715,18.867,16.4,27.1,25.631,2.413,2.705,6.384-1.279,3.981-3.971-3.183-3.567-6.525-7.494-10.076-11.332,4.219-4.9,12.172-13.569,16.95-11.413,3.2,1.443,6.183,5.228,8.767,7.6q4.608,4.231,9.162,8.521C1530.827-2099.149,1531.427-2093.654,1530.9-2088.534Z" transform="translate(-1328.057 2396.936)" fill="#080808" stroke="rgba(0,0,0,0)" stroke-width="1"/>
        <path id="Path_1044-3" data-name="Path 1044" d="M1492.6-2124.618c6.008-.017,11.206-4.554,11.231-10.687a11.42,11.42,0,0,0-11.25-11.334c-6.627-.082-10.376,4.784-10.532,11.005C1482.174-2129.635,1486.286-2124.6,1492.6-2124.618Zm-.479-16.411a5.767,5.767,0,0,1,6.079,5.724c-.015,2.9-2.37,4.812-5.125,5.04-3.376.279-5.332-2.2-5.4-5.368C1487.752-2138.561,1488.835-2140.884,1492.122-2141.03Z" transform="translate(-1330.897 2396.254)" fill="#080808" stroke="rgba(0,0,0,0)" stroke-width="1"/>
      </g>
    </g>
  </g>
  <path id="Line-2" data-name="Line" d="M59.008,2.225c28.832-.2,57.663-.16,86.495-.066,33.682.108,9.364.309,43.046.507q52.731.312,105.463.559c33.515.132,26.031.2,59.546.1,28.745-.094,41.493-.3,70.234-.885q4.583-.094,9.163-.2a1.042,1.042,0,0,0,0-2.083c-27.908.667-39.823.913-67.738,1.042-33.21.153-25.42.108-58.63,0Q253.892,1.009,201.2.655c-33.932-.2-9.864-.41-43.8-.538C127.8,0,98.193-.063,68.587.082Q63.8.108,59.008.141a1.042,1.042,0,0,0,0,2.083Z" transform="translate(1299.999 818.001)" fill="#080808"/>
  <g id="Group_123" data-name="Group 123" transform="translate(1371 98)">
    <line id="Line_1" data-name="Line 1" x2="271.619" y2="171.581" transform="translate(39.56 505.738)" fill="none" stroke="#080808" stroke-miterlimit="10" stroke-width="3"/>
    <line id="Line_2" data-name="Line 2" x1="271.344" y2="170.781" transform="translate(38.657 505.667)" fill="none" stroke="#080808" stroke-miterlimit="10" stroke-width="3"/>
    <path id="Path_972" data-name="Path 972" d="M144.028.056Q108.9.579,73.775,1.11l-27.36.4q-9.056.131-18.124.269c-4.029.063-8.07.119-12.1.182-3.285.055-8.752.808-11.839.024-1.19-.3-2.306.452-2.355,1.149C-2,59.894,1.438,116.713.236,173.5c-.012.666.868,1.165,1.86,1.189q44.927,1.225,89.915,1.672c48.46.42,96.919-1.086,145.392-1.07,12.583,0,25.153.032,37.736.166.992.008,1.884-.555,1.86-1.189-2.145-57.318.483-114.652-1.649-171.962-.025-.65-.831-1.173-1.86-1.189Q220.679.488,167.855.08c-7.946-.048-15.893-.135-23.827-.024-2.393.032-2.393,2.409,0,2.378,38.369-.531,76.9.452,115.267.888l14.195.166L271.63,2.3c2.145,57.318-.483,114.652,1.649,171.962l1.86-1.189c-35.22-.4-70.477-.2-105.684.238-43.9.547-87.547.737-131.457-.174q-17.963-.369-35.9-.84l1.86,1.189c1.2-56.779-2.231-113.59,1.76-170.345-.781.38-1.562.761-2.355,1.141,2.455.626,5.765.174,8.368.135l12.719-.19,19-.285Q58.068,3.725,72.684,3.5l71.345-1.07C146.408,2.394,146.421.016,144.028.056Z" transform="translate(36.001 502.998)" fill="#080808"/>
  </g>
  <text id="Map" transform="translate(1427 591)" fill="#080808" font-size="20" font-family="tekton-pro, tekton-pro" font-weight="700"><tspan x="-17.7" y="0">Map</tspan></text>
  <g id="Group_124" data-name="Group 124" transform="translate(1358 78)">
    <path id="Pill_Button" data-name="Pill Button" d="M101.191,52.687c17.977.275,35.949.049,53.926.007,13.9-.036,29.075-3.057,38.986-10.845a20.712,20.712,0,0,0,2.819-30.62C188.125,1.418,169.517.3,155.23.131c-7.949-.1-15.9-.2-23.85.007-7.244.193-14.47.511-21.723.478C100.538.576,91.419.7,82.3.452,74.017.223,65.742-.052,57.441.03,42.414.17,25.608-.435,12.491,6.043.174,12.125-2.88,25.658,2.65,35.449c5.643,10,21.157,15.225,34.64,16.8,8.066.943,16.471.462,24.607.514,8.314.056,16.628.115,24.942.072q7.179-.034,14.353-.147c1.679-.026,1.684-1.99,0-1.964-16.789.255-33.565.082-50.354.016-7.113-.026-13.713-.167-20.583-1.709-6.778-1.519-13.5-3.905-18.734-7.542C.836,34.068-.339,20.289,8.332,11.556c4.512-4.544,12.19-6.809,19.317-8.023A137.867,137.867,0,0,1,49.793,2.066c7.779-.056,15.54-.144,23.315.069,7.4.2,14.805.478,22.219.439,8.479-.046,16.967.1,25.447-.141,6.917-.2,13.822-.475,20.748-.468,14.666.02,31.285-.776,44.581,4.658,6.513,2.661,10.624,6.887,12.5,12.263a18.938,18.938,0,0,1-1.623,16.407c-5.886,9.408-21.6,14.227-34.618,15.261-3.715.295-7.479.17-11.207.187q-6.324.025-12.647.072c-7.883.052-15.771.1-23.654.056q-6.833-.039-13.661-.147C99.507,50.7,99.507,52.661,101.191,52.687Z" transform="translate(86 422.985)" fill="#080808"/>
    <text id="Directions" transform="translate(188 448)" fill="#080808" font-size="18" font-family="tekton-pro, tekton-pro" font-weight="700"><tspan x="-38.421" y="0">Directions</tspan></text>
    <text id="_12_min_drive" data-name="12 min drive" transform="translate(188 464)" fill="#080808" font-size="14" font-family="tekton-pro, tekton-pro" font-weight="700"><tspan x="-35.658" y="0">12 min drive</tspan></text>
  </g>
  <path id="Path_1087" data-name="Path 1087" d="M796.91,325.095c-39.551-9.762-84.917,25.219-95.259,58.63-8.5,24.081,4.214,53.508,23.806,70.065,16.385,13.845,40.193,20.029,61.91,21.932,27.552,2.414,57.3-1.857,82.138-13.234C891.96,452.2,914.9,432.1,915.558,407.67c.615-22.8-18.165-42.089-38.946-52.373-24.652-12.2-54.151-15.377-81.731-12.717-41.992,4.051-80.134,22.182-111.266,47.7l-.709-.66c35.029-33.306,82.621-55.286,133.809-55.434,47.215-.136,117.467,25.6,108.686,79.51-8.434,51.8-79.644,71.3-128.319,69.116-22.913-1.027-47.784-6.45-66.8-18.786-21.579-14-34.98-38.24-35.331-62.344-.336-23.095,14.592-43.692,33.121-58.436,11.537-9.179,25.357-16.325,40.358-19.412C771.74,323.157,797.16,320.231,796.91,325.095Z" transform="translate(741.094 116.656)" fill="#29d9c2" stroke="#29d9c2" stroke-miterlimit="10" stroke-width="2"/>
  <g id="Group_2519" data-name="Group 2519" transform="translate(-165 -446)">
    <g id="Group_2499" data-name="Group 2499" transform="translate(2894 -695)">
      <circle id="Ellipse_567" data-name="Ellipse 567" cx="20" cy="20" r="20" transform="translate(-1757 1568)" fill="#29d9c2"/>
      <text id="_2" data-name="2" transform="translate(-1751 1575)" fill="#fff" font-size="20" font-family="NunitoSans-Black, Nunito Sans" font-weight="800" letter-spacing="0.003em"><tspan x="7.99" y="20">2</tspan></text>
    </g>
    <text id="Detailed_location_view_with_quick_access_to_directions" data-name="Detailed location view with quick access to directions" transform="translate(1194 878)" fill="#fff" font-size="20" font-family="tekton-pro, tekton-pro" font-weight="700" letter-spacing="0.003em"><tspan x="0" y="14">Detailed location view with quick </tspan><tspan x="0" y="38">access to directions</tspan></text>
  </g>
  <g id="Group_2491" data-name="Group 2491" transform="translate(1230 484)">
    <path id="Path_3424" data-name="Path 3424" d="M118.932,280.154l-14.243,8.517.008-5.293c-14.513-.871-29.551-3.32-42.006-11.205-11.89-7.529-17.5-19.3-17.371-33.086.924,13.631,7.338,24.754,19.834,31.027,12.151,6.1,26.123,7.237,39.551,7.014l.008-5.533Z" transform="translate(-45.318 -239.087)" fill="#29d9c2"/>
  </g>
  <g id="Group_2518" data-name="Group 2518" transform="translate(-150 -623)">
    <g id="Group_2498" data-name="Group 2498" transform="translate(2078 -696)">
      <circle id="Ellipse_568" data-name="Ellipse 568" cx="20" cy="20" r="20" transform="translate(-1825 1569)" fill="#29d9c2"/>
      <text id="_1" data-name="1" transform="translate(-1819 1576)" fill="#fff" font-size="20" font-family="NunitoSans-Black, Nunito Sans" font-weight="800" letter-spacing="0.003em"><tspan x="8" y="20">1</tspan></text>
    </g>
    <text id="Nearby_parking_garages_with_space_availability_and_distance" data-name="Nearby parking garages with space availability and distance" transform="translate(310 878)" fill="#fff" font-size="20" font-family="tekton-pro, tekton-pro" font-weight="700" letter-spacing="0.003em"><tspan x="0" y="14">Nearby parking garages with space </tspan><tspan x="0" y="38">availability and distance</tspan></text>
  </g>
  <g id="Group_2523" data-name="Group 2523" transform="translate(381 309)">
    <path id="Path_3424-2" data-name="Path 3424" d="M118.932,280.154l-14.243,8.517.008-5.293c-14.513-.871-29.551-3.32-42.006-11.205-11.89-7.529-17.5-19.3-17.371-33.086.924,13.631,7.338,24.754,19.834,31.027,12.151,6.1,26.123,7.237,39.551,7.014l.008-5.533Z" transform="translate(-45.318 -239.087)" fill="#29d9c2"/>
  </g>
  <g id="Group_2559" data-name="Group 2559">
    <g id="Group_2557" data-name="Group 2557" transform="translate(1)">
      <text id="Scan" transform="translate(623 868)" fill="#757575" font-size="10" font-family="tekton-pro, tekton-pro" font-weight="700" letter-spacing="-0.024em"><tspan x="-9.825" y="0">Scan</tspan></text>
      <g id="Group_111" data-name="Group 111" transform="translate(509 96)">
        <path id="barcode-regular" d="M0,79.668V64H.9V79.668Zm1.347-.011V64h.459V79.657Zm1.361,0V64h.444V79.657Zm2.25,0V64H5.4V79.657Zm1.805,0V64h.888V79.657Zm2.25,0V64h.444V79.657Zm.9,0V64h.444V79.657Zm.9,0V64h.444V79.657Zm1.791,0V64h.9V79.657Zm2.25,0V64h.9V79.657Zm1.805,0V64h.9V79.657Zm1.805,0V64h.9V79.657Zm1.347,0V64h.9V79.657Zm2.264,0V64h1.347V79.657Zm1.791,0V64h.459V79.657Zm.9.011V64h.9V79.668Z" transform="translate(100.657 676.843)" fill="#757575"/>
        <g id="Group_107" data-name="Group 107" transform="translate(98.376 738.722)">
          <path id="Path_365" data-name="Path 365" d="M0,.222V3.242" transform="translate(0.077 -0.222)" fill="#757575" stroke="#757575" stroke-width="0.5"/>
          <path id="Path_366" data-name="Path 366" d="M0,0V2.85" transform="translate(2.85 0.246) rotate(90)" fill="#757575" stroke="#757575" stroke-width="0.5"/>
        </g>
        <g id="Group_108" data-name="Group 108" transform="translate(98.376 755.696)">
          <path id="Path_365-2" data-name="Path 365" d="M0,3.439V.417" transform="translate(0.077 -0.417)" fill="#757575" stroke="#757575" stroke-width="0.5"/>
          <path id="Path_366-2" data-name="Path 366" d="M0,2.85V0" transform="translate(0 2.773) rotate(-90)" fill="#757575" stroke="#757575" stroke-width="0.5"/>
        </g>
        <g id="Group_110" data-name="Group 110" transform="translate(125.791 755.696)">
          <path id="Path_365-3" data-name="Path 365" d="M0,3.429V.417" transform="translate(2.773 -0.417)" fill="#757575" stroke="#757575" stroke-width="0.5"/>
          <path id="Path_366-3" data-name="Path 366" d="M0,0V2.85" transform="translate(0 2.773) rotate(-90)" fill="#757575" stroke="#757575" stroke-width="0.5"/>
        </g>
        <g id="Group_109" data-name="Group 109" transform="translate(125.791 738.717)">
          <path id="Path_365-4" data-name="Path 365" d="M0,.217V3.242" transform="translate(2.773 -0.217)" fill="#757575" stroke="#757575" stroke-width="0.5"/>
          <path id="Path_366-4" data-name="Path 366" d="M0,2.85V0" transform="translate(2.85 0.251) rotate(90)" fill="#757575" stroke="#757575" stroke-width="0.5"/>
        </g>
      </g>
    </g>
    <g id="Group_2558" data-name="Group 2558">
      <text id="Account" transform="translate(549 868)" fill="#757575" font-size="10" font-family="tekton-pro, tekton-pro" font-weight="700" letter-spacing="-0.024em"><tspan x="-16.53" y="0">Account</tspan></text>
      <path id="briefcase-light" d="M20.714,36.286h-5V33.071A1.071,1.071,0,0,0,14.643,32H8.214a1.071,1.071,0,0,0-1.071,1.071v3.214h-5A2.143,2.143,0,0,0,0,38.429V49.857A2.143,2.143,0,0,0,2.143,52H20.714a2.143,2.143,0,0,0,2.143-2.143V38.429A2.143,2.143,0,0,0,20.714,36.286ZM8.571,33.429h5.714v2.857H8.571ZM21.429,49.857a.715.715,0,0,1-.714.714H2.143a.715.715,0,0,1-.714-.714V43.429H8.571v1.786a1.072,1.072,0,0,0,1.071,1.071h3.571a1.072,1.072,0,0,0,1.071-1.071V43.429h7.143ZM10,44.857V43.429h2.857v1.429ZM21.429,42h-20V38.429a.715.715,0,0,1,.714-.714H20.714a.715.715,0,0,1,.714.714Z" transform="translate(538 802)" fill="#757575"/>
    </g>
    <g id="Group_2555" data-name="Group 2555">
      <text id="History" transform="translate(766 868)" fill="#757575" font-size="10" font-family="tekton-pro, tekton-pro" font-weight="700" letter-spacing="-0.024em"><tspan x="-15.025" y="0">History</tspan></text>
      <path id="history-regular" d="M34.153,17.981a10,10,0,0,1-16.7,7.441.484.484,0,0,1-.018-.7l.684-.684a.486.486,0,0,1,.668-.016,8.065,8.065,0,1,0-.354-11.7l1.979,1.952a.484.484,0,0,1-.34.828H14.9a.484.484,0,0,1-.484-.484V9.51a.484.484,0,0,1,.824-.345l1.818,1.793a10,10,0,0,1,17.1,7.023Zm-6.736,3.636.569-.783a.484.484,0,0,0-.107-.676l-2.759-2.006v-5.8a.484.484,0,0,0-.484-.484H23.67a.484.484,0,0,0-.484.484v6.783l3.556,2.586A.484.484,0,0,0,27.417,21.617Z" transform="translate(741.588 826)" fill="#757575"/>
    </g>
    <g id="Group_2556" data-name="Group 2556">
      <text id="Parking-2" data-name="Parking" transform="translate(695 868)" fill="#080808" font-size="10" font-family="tekton-pro, tekton-pro" font-weight="700" letter-spacing="-0.024em"><tspan x="-14.015" y="0">Parking</tspan></text>
      <g id="Layer_2" data-name="Layer 2" transform="translate(682.005 834)">
        <g id="Transport" transform="translate(-0.005)">
          <path id="Path_1060" data-name="Path 1060" d="M25.222,53.515H.4a.4.4,0,0,1-.4-.4V50.931A5.108,5.108,0,0,1,5.093,45.82h5.484a1.453,1.453,0,0,1,1.449,1.454v3.009h3.057c.914-2.47,2.853-4.05,5-4.05,3.01,0,5.448,3.017,5.539,6.866a.4.4,0,0,1-.4.415ZM.807,52.7H24.8c-.236-3.205-2.248-5.67-4.711-5.67-1.877,0-3.577,1.48-4.336,3.772a.4.4,0,0,1-.383.277H11.622a.4.4,0,0,1-.4-.4V47.274a.645.645,0,0,0-.642-.644H5.093a4.3,4.3,0,0,0-4.286,4.3Z" transform="translate(0.001 -36.595)" fill="#080808"/>
          <path id="Path_1061" data-name="Path 1061" d="M24.955,30.578H17.6a.4.4,0,0,1-.4-.4v-.715a1.95,1.95,0,0,1,1.948-1.948h4.264a1.948,1.948,0,0,1,1.948,1.948v.715A.4.4,0,0,1,24.955,30.578Zm-6.945-.81h6.54v-.31a1.138,1.138,0,0,0-1.138-1.138H19.148a1.138,1.138,0,0,0-1.138,1.138Z" transform="translate(-13.716 -21.963)" fill="#080808"/>
          <path id="Path_1062" data-name="Path 1062" d="M.4,27.963a.4.4,0,0,1-.4-.4V18.015a1.448,1.448,0,1,1,2.894,0V23.65a.4.4,0,0,1-.18.336,4.3,4.3,0,0,0-1.9,3.572.4.4,0,0,1-.4.4ZM1.442,17.377a.638.638,0,0,0-.636.638V24.8A5.123,5.123,0,0,1,2.08,23.441V18.015a.638.638,0,0,0-.638-.638Z" transform="translate(0.005 -13.196)" fill="#080808"/>
          <path id="Path_1063" data-name="Path 1063" d="M79.969,2.632a.4.4,0,0,1-.4-.346l-.1-.739a.867.867,0,0,0-.85-.737H77.165a.4.4,0,1,1,0-.81h1.446a1.679,1.679,0,0,1,1.652,1.432l.109.745a.4.4,0,0,1-.344.456.277.277,0,0,1-.059,0Z" transform="translate(-61.28)" fill="#080808"/>
          <path id="Path_1064" data-name="Path 1064" d="M15.8,83.728a3.568,3.568,0,0,1-3.554-3.495.4.4,0,0,1,.4-.413h6.3a.4.4,0,0,1,.4.4,3.568,3.568,0,0,1-3.554,3.5ZM13.1,80.63a2.744,2.744,0,0,0,5.413,0Z" transform="translate(-9.768 -63.728)" fill="#080808"/>
          <path id="Path_1065" data-name="Path 1065" d="M85.554,83.76A3.57,3.57,0,0,1,82,80.265a.4.4,0,0,1,.4-.4h6.3a.408.408,0,0,1,.4.413A3.57,3.57,0,0,1,85.554,83.76Zm-2.705-3.1a2.744,2.744,0,0,0,5.413,0Z" transform="translate(-65.486 -63.76)" fill="#080808"/>
          <path id="Path_1066" data-name="Path 1066" d="M107.2,25.589a2.464,2.464,0,1,1,0-4.929h.051a.4.4,0,0,1,.393.4v4.119a.4.4,0,0,1-.4.4Zm-.367-4.086a1.654,1.654,0,0,0,0,3.228Z" transform="translate(-83.621 -16.496)" fill="#080808"/>
          <path id="Path_1067" data-name="Path 1067" d="M86.865,17.832a.4.4,0,0,1-.4-.488,10.53,10.53,0,0,0-.45-5.935l-.109-.286a1.772,1.772,0,0,1,3.313-1.262l.478,1.259a11.319,11.319,0,0,1,.533,6.2.4.4,0,0,1-.522.308,3.669,3.669,0,0,0-2.659.166.377.377,0,0,1-.178.036Zm.693-8.3a.962.962,0,0,0-.9,1.312l.109.286h0a11.321,11.321,0,0,1,.62,5.68,4.455,4.455,0,0,1,2.116-.063,10.53,10.53,0,0,0-.567-5.336l-.476-1.251a.968.968,0,0,0-.9-.62Z" transform="translate(-68.504 -6.954)" fill="#080808"/>
          <path id="Path_1068" data-name="Path 1068" d="M25.162,58.345H21.812a.2.2,0,1,1,0-.4h3.349a.2.2,0,1,1,0,.4Z" transform="translate(-17.251 -46.25)" fill="#080808"/>
          <path id="Path_1069" data-name="Path 1069" d="M25.162,64.225H21.812a.2.2,0,0,1,0-.4h3.349a.2.2,0,0,1,0,.4Z" transform="translate(-17.251 -50.944)" fill="#080808"/>
          <path id="Path_1070" data-name="Path 1070" d="M25.162,70.115H21.812a.2.2,0,0,1,0-.4h3.349a.2.2,0,0,1,0,.4Z" transform="translate(-17.251 -55.645)" fill="#080808"/>
        </g>
      </g>
    </g>
    <g id="Group_2554" data-name="Group 2554">
      <text id="Payment" transform="translate(840 868)" fill="#757575" font-size="10" font-family="tekton-pro, tekton-pro" font-weight="700" letter-spacing="-0.024em"><tspan x="-17.155" y="0">Payment</tspan></text>
      <path id="credit-card-light" d="M22.393,32H2.036A2.036,2.036,0,0,0,0,34.036V48.964A2.036,2.036,0,0,0,2.036,51H22.393a2.036,2.036,0,0,0,2.036-2.036V34.036A2.036,2.036,0,0,0,22.393,32ZM2.036,33.357H22.393a.681.681,0,0,1,.679.679v2.036H1.357V34.036A.681.681,0,0,1,2.036,33.357ZM22.393,49.643H2.036a.681.681,0,0,1-.679-.679V40.143H23.071v8.821A.681.681,0,0,1,22.393,49.643ZM8.143,46.08v.339a.51.51,0,0,1-.509.509H4.58a.51.51,0,0,1-.509-.509V46.08a.51.51,0,0,1,.509-.509H7.634A.51.51,0,0,1,8.143,46.08Zm8.143,0v.339a.51.51,0,0,1-.509.509H10.009A.51.51,0,0,1,9.5,46.42V46.08a.51.51,0,0,1,.509-.509h5.768A.51.51,0,0,1,16.286,46.08Z" transform="translate(828 802)" fill="#757575"/>
    </g>
  </g>
  <g id="Group_2560" data-name="Group 2560" transform="translate(851)">
    <g id="Group_2557-2" data-name="Group 2557" transform="translate(1)">
      <text id="Scan-2" data-name="Scan" transform="translate(623 868)" fill="#757575" font-size="10" font-family="tekton-pro, tekton-pro" font-weight="700" letter-spacing="-0.024em"><tspan x="-9.825" y="0">Scan</tspan></text>
      <g id="Group_111-2" data-name="Group 111" transform="translate(509 96)">
        <path id="barcode-regular-2" data-name="barcode-regular" d="M0,79.668V64H.9V79.668Zm1.347-.011V64h.459V79.657Zm1.361,0V64h.444V79.657Zm2.25,0V64H5.4V79.657Zm1.805,0V64h.888V79.657Zm2.25,0V64h.444V79.657Zm.9,0V64h.444V79.657Zm.9,0V64h.444V79.657Zm1.791,0V64h.9V79.657Zm2.25,0V64h.9V79.657Zm1.805,0V64h.9V79.657Zm1.805,0V64h.9V79.657Zm1.347,0V64h.9V79.657Zm2.264,0V64h1.347V79.657Zm1.791,0V64h.459V79.657Zm.9.011V64h.9V79.668Z" transform="translate(100.657 676.843)" fill="#757575"/>
        <g id="Group_107-2" data-name="Group 107" transform="translate(98.376 738.722)">
          <path id="Path_365-5" data-name="Path 365" d="M0,.222V3.242" transform="translate(0.077 -0.222)" fill="#757575" stroke="#757575" stroke-width="0.5"/>
          <path id="Path_366-5" data-name="Path 366" d="M0,0V2.85" transform="translate(2.85 0.246) rotate(90)" fill="#757575" stroke="#757575" stroke-width="0.5"/>
        </g>
        <g id="Group_108-2" data-name="Group 108" transform="translate(98.376 755.696)">
          <path id="Path_365-6" data-name="Path 365" d="M0,3.439V.417" transform="translate(0.077 -0.417)" fill="#757575" stroke="#757575" stroke-width="0.5"/>
          <path id="Path_366-6" data-name="Path 366" d="M0,2.85V0" transform="translate(0 2.773) rotate(-90)" fill="#757575" stroke="#757575" stroke-width="0.5"/>
        </g>
        <g id="Group_110-2" data-name="Group 110" transform="translate(125.791 755.696)">
          <path id="Path_365-7" data-name="Path 365" d="M0,3.429V.417" transform="translate(2.773 -0.417)" fill="#757575" stroke="#757575" stroke-width="0.5"/>
          <path id="Path_366-7" data-name="Path 366" d="M0,0V2.85" transform="translate(0 2.773) rotate(-90)" fill="#757575" stroke="#757575" stroke-width="0.5"/>
        </g>
        <g id="Group_109-2" data-name="Group 109" transform="translate(125.791 738.717)">
          <path id="Path_365-8" data-name="Path 365" d="M0,.217V3.242" transform="translate(2.773 -0.217)" fill="#757575" stroke="#757575" stroke-width="0.5"/>
          <path id="Path_366-8" data-name="Path 366" d="M0,2.85V0" transform="translate(2.85 0.251) rotate(90)" fill="#757575" stroke="#757575" stroke-width="0.5"/>
        </g>
      </g>
    </g>
    <g id="Group_2558-2" data-name="Group 2558">
      <text id="Account-2" data-name="Account" transform="translate(549 868)" fill="#757575" font-size="10" font-family="tekton-pro, tekton-pro" font-weight="700" letter-spacing="-0.024em"><tspan x="-16.53" y="0">Account</tspan></text>
      <path id="briefcase-light-2" data-name="briefcase-light" d="M20.714,36.286h-5V33.071A1.071,1.071,0,0,0,14.643,32H8.214a1.071,1.071,0,0,0-1.071,1.071v3.214h-5A2.143,2.143,0,0,0,0,38.429V49.857A2.143,2.143,0,0,0,2.143,52H20.714a2.143,2.143,0,0,0,2.143-2.143V38.429A2.143,2.143,0,0,0,20.714,36.286ZM8.571,33.429h5.714v2.857H8.571ZM21.429,49.857a.715.715,0,0,1-.714.714H2.143a.715.715,0,0,1-.714-.714V43.429H8.571v1.786a1.072,1.072,0,0,0,1.071,1.071h3.571a1.072,1.072,0,0,0,1.071-1.071V43.429h7.143ZM10,44.857V43.429h2.857v1.429ZM21.429,42h-20V38.429a.715.715,0,0,1,.714-.714H20.714a.715.715,0,0,1,.714.714Z" transform="translate(538 802)" fill="#757575"/>
    </g>
    <g id="Group_2555-2" data-name="Group 2555">
      <text id="History-2" data-name="History" transform="translate(766 868)" fill="#757575" font-size="10" font-family="tekton-pro, tekton-pro" font-weight="700" letter-spacing="-0.024em"><tspan x="-15.025" y="0">History</tspan></text>
      <path id="history-regular-2" data-name="history-regular" d="M34.153,17.981a10,10,0,0,1-16.7,7.441.484.484,0,0,1-.018-.7l.684-.684a.486.486,0,0,1,.668-.016,8.065,8.065,0,1,0-.354-11.7l1.979,1.952a.484.484,0,0,1-.34.828H14.9a.484.484,0,0,1-.484-.484V9.51a.484.484,0,0,1,.824-.345l1.818,1.793a10,10,0,0,1,17.1,7.023Zm-6.736,3.636.569-.783a.484.484,0,0,0-.107-.676l-2.759-2.006v-5.8a.484.484,0,0,0-.484-.484H23.67a.484.484,0,0,0-.484.484v6.783l3.556,2.586A.484.484,0,0,0,27.417,21.617Z" transform="translate(741.588 826)" fill="#757575"/>
    </g>
    <g id="Group_2556-2" data-name="Group 2556">
      <text id="Parking-3" data-name="Parking" transform="translate(695 868)" fill="#080808" font-size="10" font-family="tekton-pro, tekton-pro" font-weight="700" letter-spacing="-0.024em"><tspan x="-14.015" y="0">Parking</tspan></text>
      <g id="Layer_2-2" data-name="Layer 2" transform="translate(682.005 834)">
        <g id="Transport-2" data-name="Transport" transform="translate(-0.005)">
          <path id="Path_1060-2" data-name="Path 1060" d="M25.222,53.515H.4a.4.4,0,0,1-.4-.4V50.931A5.108,5.108,0,0,1,5.093,45.82h5.484a1.453,1.453,0,0,1,1.449,1.454v3.009h3.057c.914-2.47,2.853-4.05,5-4.05,3.01,0,5.448,3.017,5.539,6.866a.4.4,0,0,1-.4.415ZM.807,52.7H24.8c-.236-3.205-2.248-5.67-4.711-5.67-1.877,0-3.577,1.48-4.336,3.772a.4.4,0,0,1-.383.277H11.622a.4.4,0,0,1-.4-.4V47.274a.645.645,0,0,0-.642-.644H5.093a4.3,4.3,0,0,0-4.286,4.3Z" transform="translate(0.001 -36.595)" fill="#080808"/>
          <path id="Path_1061-2" data-name="Path 1061" d="M24.955,30.578H17.6a.4.4,0,0,1-.4-.4v-.715a1.95,1.95,0,0,1,1.948-1.948h4.264a1.948,1.948,0,0,1,1.948,1.948v.715A.4.4,0,0,1,24.955,30.578Zm-6.945-.81h6.54v-.31a1.138,1.138,0,0,0-1.138-1.138H19.148a1.138,1.138,0,0,0-1.138,1.138Z" transform="translate(-13.716 -21.963)" fill="#080808"/>
          <path id="Path_1062-2" data-name="Path 1062" d="M.4,27.963a.4.4,0,0,1-.4-.4V18.015a1.448,1.448,0,1,1,2.894,0V23.65a.4.4,0,0,1-.18.336,4.3,4.3,0,0,0-1.9,3.572.4.4,0,0,1-.4.4ZM1.442,17.377a.638.638,0,0,0-.636.638V24.8A5.123,5.123,0,0,1,2.08,23.441V18.015a.638.638,0,0,0-.638-.638Z" transform="translate(0.005 -13.196)" fill="#080808"/>
          <path id="Path_1063-2" data-name="Path 1063" d="M79.969,2.632a.4.4,0,0,1-.4-.346l-.1-.739a.867.867,0,0,0-.85-.737H77.165a.4.4,0,1,1,0-.81h1.446a1.679,1.679,0,0,1,1.652,1.432l.109.745a.4.4,0,0,1-.344.456.277.277,0,0,1-.059,0Z" transform="translate(-61.28)" fill="#080808"/>
          <path id="Path_1064-2" data-name="Path 1064" d="M15.8,83.728a3.568,3.568,0,0,1-3.554-3.495.4.4,0,0,1,.4-.413h6.3a.4.4,0,0,1,.4.4,3.568,3.568,0,0,1-3.554,3.5ZM13.1,80.63a2.744,2.744,0,0,0,5.413,0Z" transform="translate(-9.768 -63.728)" fill="#080808"/>
          <path id="Path_1065-2" data-name="Path 1065" d="M85.554,83.76A3.57,3.57,0,0,1,82,80.265a.4.4,0,0,1,.4-.4h6.3a.408.408,0,0,1,.4.413A3.57,3.57,0,0,1,85.554,83.76Zm-2.705-3.1a2.744,2.744,0,0,0,5.413,0Z" transform="translate(-65.486 -63.76)" fill="#080808"/>
          <path id="Path_1066-2" data-name="Path 1066" d="M107.2,25.589a2.464,2.464,0,1,1,0-4.929h.051a.4.4,0,0,1,.393.4v4.119a.4.4,0,0,1-.4.4Zm-.367-4.086a1.654,1.654,0,0,0,0,3.228Z" transform="translate(-83.621 -16.496)" fill="#080808"/>
          <path id="Path_1067-2" data-name="Path 1067" d="M86.865,17.832a.4.4,0,0,1-.4-.488,10.53,10.53,0,0,0-.45-5.935l-.109-.286a1.772,1.772,0,0,1,3.313-1.262l.478,1.259a11.319,11.319,0,0,1,.533,6.2.4.4,0,0,1-.522.308,3.669,3.669,0,0,0-2.659.166.377.377,0,0,1-.178.036Zm.693-8.3a.962.962,0,0,0-.9,1.312l.109.286h0a11.321,11.321,0,0,1,.62,5.68,4.455,4.455,0,0,1,2.116-.063,10.53,10.53,0,0,0-.567-5.336l-.476-1.251a.968.968,0,0,0-.9-.62Z" transform="translate(-68.504 -6.954)" fill="#080808"/>
          <path id="Path_1068-2" data-name="Path 1068" d="M25.162,58.345H21.812a.2.2,0,1,1,0-.4h3.349a.2.2,0,1,1,0,.4Z" transform="translate(-17.251 -46.25)" fill="#080808"/>
          <path id="Path_1069-2" data-name="Path 1069" d="M25.162,64.225H21.812a.2.2,0,0,1,0-.4h3.349a.2.2,0,0,1,0,.4Z" transform="translate(-17.251 -50.944)" fill="#080808"/>
          <path id="Path_1070-2" data-name="Path 1070" d="M25.162,70.115H21.812a.2.2,0,0,1,0-.4h3.349a.2.2,0,0,1,0,.4Z" transform="translate(-17.251 -55.645)" fill="#080808"/>
        </g>
      </g>
    </g>
    <g id="Group_2554-2" data-name="Group 2554">
      <text id="Payment-2" data-name="Payment" transform="translate(840 868)" fill="#757575" font-size="10" font-family="tekton-pro, tekton-pro" font-weight="700" letter-spacing="-0.024em"><tspan x="-17.155" y="0">Payment</tspan></text>
      <path id="credit-card-light-2" data-name="credit-card-light" d="M22.393,32H2.036A2.036,2.036,0,0,0,0,34.036V48.964A2.036,2.036,0,0,0,2.036,51H22.393a2.036,2.036,0,0,0,2.036-2.036V34.036A2.036,2.036,0,0,0,22.393,32ZM2.036,33.357H22.393a.681.681,0,0,1,.679.679v2.036H1.357V34.036A.681.681,0,0,1,2.036,33.357ZM22.393,49.643H2.036a.681.681,0,0,1-.679-.679V40.143H23.071v8.821A.681.681,0,0,1,22.393,49.643ZM8.143,46.08v.339a.51.51,0,0,1-.509.509H4.58a.51.51,0,0,1-.509-.509V46.08a.51.51,0,0,1,.509-.509H7.634A.51.51,0,0,1,8.143,46.08Zm8.143,0v.339a.51.51,0,0,1-.509.509H10.009A.51.51,0,0,1,9.5,46.42V46.08a.51.51,0,0,1,.509-.509h5.768A.51.51,0,0,1,16.286,46.08Z" transform="translate(828 802)" fill="#757575"/>
    </g>
  </g>
  <path id="Background" d="M21-19H75V-35H21Z" transform="translate(502 119)" fill="none"/>
  <g id="Group_2567" data-name="Group 2567" transform="translate(6 6)">
    <g id="Group_2566" data-name="Group 2566" transform="translate(6)">
      <path id="signal-light" d="M44.549,7.8h-.866a.217.217,0,0,0-.217.217v5.632a.217.217,0,0,0,.217.217h.866a.217.217,0,0,0,.217-.217V8.015A.217.217,0,0,0,44.549,7.8Zm-3.466,2.6h-.866a.217.217,0,0,0-.217.217v3.033a.217.217,0,0,0,.217.217h.866a.217.217,0,0,0,.217-.217V10.614A.217.217,0,0,0,41.083,10.4Zm6.932-5.2h-.866a.217.217,0,0,0-.217.217v8.231a.217.217,0,0,0,.217.217h.866a.217.217,0,0,0,.217-.217V5.415A.217.217,0,0,0,48.015,5.2Zm3.466-2.6h-.866a.217.217,0,0,0-.217.217V13.647a.217.217,0,0,0,.217.217h.866a.217.217,0,0,0,.217-.217V2.816A.217.217,0,0,0,51.481,2.6ZM54.946,0H54.08a.217.217,0,0,0-.217.217v13.43a.217.217,0,0,0,.217.217h.866a.217.217,0,0,0,.217-.217V.217A.217.217,0,0,0,54.946,0Z" transform="translate(744 86)"/>
      <path id="battery-three-quarters-light" d="M20.837,97.191a.6.6,0,0,1,.6.6v1.786h1.191v4.763H21.432v1.786a.6.6,0,0,1-.6.6H1.786a.6.6,0,0,1-.6-.6V97.786a.6.6,0,0,1,.6-.6H20.837m0-1.191H1.786A1.786,1.786,0,0,0,0,97.786v8.335a1.786,1.786,0,0,0,1.786,1.786H20.837a1.786,1.786,0,0,0,1.786-1.786v-.6h.3a.893.893,0,0,0,.893-.893V99.274a.893.893,0,0,0-.893-.893h-.3v-.6A1.786,1.786,0,0,0,20.837,96ZM4.763,104.111V99.8a.223.223,0,0,0-.223-.223H3.8a.223.223,0,0,0-.223.223v4.316a.223.223,0,0,0,.223.223h.744A.223.223,0,0,0,4.763,104.111Zm2.381,0V99.8a.223.223,0,0,0-.223-.223H6.177a.223.223,0,0,0-.223.223v4.316a.223.223,0,0,0,.223.223h.744A.223.223,0,0,0,7.144,104.111Zm2.381,0V99.8a.223.223,0,0,0-.223-.223H8.558a.223.223,0,0,0-.223.223v4.316a.223.223,0,0,0,.223.223H9.3A.223.223,0,0,0,9.525,104.111Zm2.381,0V99.8a.223.223,0,0,0-.223-.223h-.744a.223.223,0,0,0-.223.223v4.316a.223.223,0,0,0,.223.223h.744A.223.223,0,0,0,11.907,104.111Zm2.381,0V99.8a.223.223,0,0,0-.223-.223h-.744a.223.223,0,0,0-.223.223v4.316a.223.223,0,0,0,.223.223h.744A.223.223,0,0,0,14.288,104.111Zm2.381,0V99.8a.223.223,0,0,0-.223-.223H15.7a.223.223,0,0,0-.223.223v4.316a.223.223,0,0,0,.223.223h.744a.223.223,0,0,0,.223-.223Z" transform="translate(833 -8)"/>
      <path id="wifi-light" d="M9.218,40.3a2.3,2.3,0,1,0,2.3,2.3A2.3,2.3,0,0,0,9.218,40.3Zm0,3.688A1.383,1.383,0,1,1,10.6,42.6,1.384,1.384,0,0,1,9.218,43.987Zm9.11-8.356a13.25,13.25,0,0,0-18.22,0,.348.348,0,0,0-.007.5l.164.164a.347.347,0,0,0,.484.007,12.322,12.322,0,0,1,16.939,0,.348.348,0,0,0,.484-.007l.164-.164A.348.348,0,0,0,18.328,35.631Zm-3.175,3.237a8.936,8.936,0,0,0-11.871,0,.345.345,0,0,0-.019.5l.159.167a.346.346,0,0,0,.48.019,8.015,8.015,0,0,1,10.63,0,.346.346,0,0,0,.48-.019l.159-.167A.346.346,0,0,0,15.153,38.868Z" transform="translate(807.001 54.998)"/>
    </g>
    <text id="_10:20" data-name="10:20" transform="translate(544 96)" fill="#080808" font-size="15" font-family="tekton-pro, tekton-pro" font-weight="700" letter-spacing="-0.02em"><tspan x="-20.722" y="0">10:20</tspan></text>
  </g>
  <g id="Group_2568" data-name="Group 2568" transform="translate(857 6)">
    <g id="Group_2566-2" data-name="Group 2566" transform="translate(6)">
      <path id="signal-light-2" data-name="signal-light" d="M44.549,7.8h-.866a.217.217,0,0,0-.217.217v5.632a.217.217,0,0,0,.217.217h.866a.217.217,0,0,0,.217-.217V8.015A.217.217,0,0,0,44.549,7.8Zm-3.466,2.6h-.866a.217.217,0,0,0-.217.217v3.033a.217.217,0,0,0,.217.217h.866a.217.217,0,0,0,.217-.217V10.614A.217.217,0,0,0,41.083,10.4Zm6.932-5.2h-.866a.217.217,0,0,0-.217.217v8.231a.217.217,0,0,0,.217.217h.866a.217.217,0,0,0,.217-.217V5.415A.217.217,0,0,0,48.015,5.2Zm3.466-2.6h-.866a.217.217,0,0,0-.217.217V13.647a.217.217,0,0,0,.217.217h.866a.217.217,0,0,0,.217-.217V2.816A.217.217,0,0,0,51.481,2.6ZM54.946,0H54.08a.217.217,0,0,0-.217.217v13.43a.217.217,0,0,0,.217.217h.866a.217.217,0,0,0,.217-.217V.217A.217.217,0,0,0,54.946,0Z" transform="translate(744 86)"/>
      <path id="battery-three-quarters-light-2" data-name="battery-three-quarters-light" d="M20.837,97.191a.6.6,0,0,1,.6.6v1.786h1.191v4.763H21.432v1.786a.6.6,0,0,1-.6.6H1.786a.6.6,0,0,1-.6-.6V97.786a.6.6,0,0,1,.6-.6H20.837m0-1.191H1.786A1.786,1.786,0,0,0,0,97.786v8.335a1.786,1.786,0,0,0,1.786,1.786H20.837a1.786,1.786,0,0,0,1.786-1.786v-.6h.3a.893.893,0,0,0,.893-.893V99.274a.893.893,0,0,0-.893-.893h-.3v-.6A1.786,1.786,0,0,0,20.837,96ZM4.763,104.111V99.8a.223.223,0,0,0-.223-.223H3.8a.223.223,0,0,0-.223.223v4.316a.223.223,0,0,0,.223.223h.744A.223.223,0,0,0,4.763,104.111Zm2.381,0V99.8a.223.223,0,0,0-.223-.223H6.177a.223.223,0,0,0-.223.223v4.316a.223.223,0,0,0,.223.223h.744A.223.223,0,0,0,7.144,104.111Zm2.381,0V99.8a.223.223,0,0,0-.223-.223H8.558a.223.223,0,0,0-.223.223v4.316a.223.223,0,0,0,.223.223H9.3A.223.223,0,0,0,9.525,104.111Zm2.381,0V99.8a.223.223,0,0,0-.223-.223h-.744a.223.223,0,0,0-.223.223v4.316a.223.223,0,0,0,.223.223h.744A.223.223,0,0,0,11.907,104.111Zm2.381,0V99.8a.223.223,0,0,0-.223-.223h-.744a.223.223,0,0,0-.223.223v4.316a.223.223,0,0,0,.223.223h.744A.223.223,0,0,0,14.288,104.111Zm2.381,0V99.8a.223.223,0,0,0-.223-.223H15.7a.223.223,0,0,0-.223.223v4.316a.223.223,0,0,0,.223.223h.744a.223.223,0,0,0,.223-.223Z" transform="translate(833 -8)"/>
      <path id="wifi-light-2" data-name="wifi-light" d="M9.218,40.3a2.3,2.3,0,1,0,2.3,2.3A2.3,2.3,0,0,0,9.218,40.3Zm0,3.688A1.383,1.383,0,1,1,10.6,42.6,1.384,1.384,0,0,1,9.218,43.987Zm9.11-8.356a13.25,13.25,0,0,0-18.22,0,.348.348,0,0,0-.007.5l.164.164a.347.347,0,0,0,.484.007,12.322,12.322,0,0,1,16.939,0,.348.348,0,0,0,.484-.007l.164-.164A.348.348,0,0,0,18.328,35.631Zm-3.175,3.237a8.936,8.936,0,0,0-11.871,0,.345.345,0,0,0-.019.5l.159.167a.346.346,0,0,0,.48.019,8.015,8.015,0,0,1,10.63,0,.346.346,0,0,0,.48-.019l.159-.167A.346.346,0,0,0,15.153,38.868Z" transform="translate(807.001 54.998)"/>
    </g>
    <text id="_10:20-2" data-name="10:20" transform="translate(544 96)" fill="#080808" font-size="15" font-family="tekton-pro, tekton-pro" font-weight="700" letter-spacing="-0.02em"><tspan x="-20.722" y="0">10:20</tspan></text>
  </g>
</svg>
