<svg id="Group_2601" data-name="Group 2601" xmlns="http://www.w3.org/2000/svg" width="1000" viewBox="0 0 1000 872" style="max-width:100%;">
  <g id="Rectangle_2458" data-name="Rectangle 2458" fill="#a4acbc" stroke="#707070" stroke-width="1">
    <rect width="1000" height="872" rx="10" stroke="none"/>
    <rect x="0.5" y="0.5" width="999" height="871" rx="9.5" fill="none"/>
  </g>
  <rect id="Rectangle_2462" data-name="Rectangle 2462" width="383" height="529" rx="5" transform="translate(309 169)" fill="#fff"/>
  <path id="Path_1046" data-name="Path 1046" d="M1690.119-2267.036c-.3-20.205-.129-40.413.788-60.609a1.642,1.642,0,0,0-.965-1.538,3.416,3.416,0,0,0-2-.514c-108.5,1.622-217.027,3.271-325.561,2.611q-46.006-.28-92-1.156a3.069,3.069,0,0,0-2.353.8c-1.219.175-2.274.813-2.273,1.928.017,29.894,1.861,59.761,3.772,89.619,2.459,38.412,4.925,76.819,5.944,115.265.578,21.767,1.266,43.9,8.363,65.21a1.717,1.717,0,0,0,.1.192c-.676,1.213.193,2.881,2.632,2.87,105.619-.439,211.2,2.753,316.825,1.855,29.383-.25,58.76-.825,88.105-1.9a3.7,3.7,0,0,0,1.8-.489,1.858,1.858,0,0,0,1.16-1.564C1697.673-2125.337,1691.177-2196.166,1690.119-2267.036Zm-315.357,210.89q-42.6-.4-85.2-.319c0-.016,0-.03-.008-.045-6.341-19.035-7.349-38.759-7.98-58.218-.652-20.136-1.3-40.257-2.4-60.386-1.865-34.022-4.455-68.023-6.152-102.05-.781-15.646-1.289-31.3-1.326-46.953,107.481,2.058,215.011,1.3,322.5-.127q45.355-.6,90.706-1.306c-2.995,70.188,3.377,140.317,4.425,210.488.291,19.552.133,39.107-.707,58.652C1584.074-2052.7,1479.355-2055.164,1374.763-2056.146Z" transform="translate(-1690.226 -1047.109) rotate(90)" fill="#080808" stroke="rgba(0,0,0,0)" stroke-width="1"/>
  <g id="Group_2600" data-name="Group 2600" transform="translate(0 13)">
    <g id="Group_2599" data-name="Group 2599" transform="translate(-53 -82)">
      <text id="_224" data-name="224" transform="translate(484 449)" fill="#080808" font-size="70" font-family="tekton-pro, tekton-pro" font-weight="700"><tspan x="0" y="0">224</tspan></text>
      <text id="You_parked_in" data-name="You parked in" transform="translate(439 351)" fill="#080808" font-size="30" font-family="tekton-pro, tekton-pro" font-weight="700"><tspan x="34.68" y="20">You parked in</tspan></text>
      <text id="Level_2" data-name="Level 2" transform="translate(497 502)" fill="#080808" font-size="40" font-family="tekton-pro, tekton-pro" font-weight="700"><tspan x="0" y="0">Level 2</tspan></text>
    </g>
    <g id="Group_117" data-name="Group 117" transform="translate(342 252)">
      <path id="Path_1043" data-name="Path 1043" d="M1535.884-2147.31a2.983,2.983,0,0,0-.106-.739c-.966-6.434-5.778-8.988-12.083-9.056q-9.9-.1-19.788-.152c-16.88-.079-33.767-.072-50.642.328-6.286.149-13.9-.519-16.594,6.6-.866,2.289-.651,4.8-.642,7.2q.055,14.056.112,28.111c.035,8.557-.033,17.121.1,25.677.056,3.542.814,6.821,3.771,9.149,2.82,2.22,6.146,2.171,9.582,2.335,4.547.216,9.09.4,13.642.443,9.352.085,18.7-.177,28.055-.2,8.874-.021,17.83.373,26.689-.18,6.487-.4,15.29.133,17.941-7.286.815-2.277.594-4.721.568-7.1Q1536.187-2119.747,1535.884-2147.31Zm-94.241.489c.6-5.059,5.824-4.344,9.657-4.443s7.7-.173,11.547-.23q12.622-.186,25.247-.178,11.635-.011,23.268.075c4.615.032,18.26-2.057,18.892,4.287q.193,17.614.386,35.228-4.507-4.2-9.057-8.346c-2.85-2.589-5.952-6.09-10.076-6.359-4.074-.264-7.358,2.6-10.309,5.026a88.9,88.9,0,0,0-9.2,8.723c-5.863-5.878-12.307-11.139-19.573-13.994-6.969-2.738-10.829,1.534-15.523,6.058l-15.1,14.547-.1-24.844C1441.685-2136.321,1441.051-2141.8,1441.643-2146.822Zm89.256,58.288c-.682,6.624-13.938,5.274-18.993,5.3-8.155.041-16.31-.028-24.464.015-8.068.043-16.136.255-24.2.184-3.539-.031-7.074-.141-10.609-.3-3.992-.18-10.073.773-10.75-4.53a67.49,67.49,0,0,1-.154-10.712c.072-.058.145-.1.214-.169l14.372-13.848c2.561-2.467,5.04-5.359,7.84-7.554,4.092-3.208,6.9-1.623,10.7.805,10.522,6.715,18.867,16.4,27.1,25.631,2.413,2.705,6.384-1.279,3.981-3.971-3.183-3.567-6.525-7.494-10.076-11.332,4.219-4.9,12.172-13.569,16.95-11.413,3.2,1.443,6.183,5.228,8.767,7.6q4.608,4.231,9.162,8.521C1530.827-2099.149,1531.427-2093.654,1530.9-2088.534Z" transform="translate(-1328.057 2396.936)" fill="#080808" stroke="rgba(0,0,0,0)" stroke-width="1"/>
      <path id="Path_1044" data-name="Path 1044" d="M1492.6-2124.618c6.008-.017,11.206-4.554,11.231-10.687a11.42,11.42,0,0,0-11.25-11.334c-6.627-.082-10.376,4.784-10.532,11.005C1482.174-2129.635,1486.286-2124.6,1492.6-2124.618Zm-.479-16.411a5.767,5.767,0,0,1,6.079,5.724c-.015,2.9-2.37,4.812-5.125,5.04-3.376.279-5.332-2.2-5.4-5.368C1487.752-2138.561,1488.835-2140.884,1492.122-2141.03Z" transform="translate(-1330.897 2396.254)" fill="#080808" stroke="rgba(0,0,0,0)" stroke-width="1"/>
    </g>
  </g>
</svg>
