<svg xmlns="http://www.w3.org/2000/svg" xmlns:xlink="http://www.w3.org/1999/xlink" width="400" viewBox="0 0 500 300" style="max-width:100%;">
  <defs>
    <clipPath id="clip-path">
      <circle id="Ellipse_570" data-name="Ellipse 570" cx="65" cy="65" r="65" fill="none"/>
    </clipPath>
    <clipPath id="clip-path-2">
      <path id="SVGID" d="M44.849,38.505a25.591,25.591,0,0,1,7.4-1.847,51.116,51.116,0,0,1,11.229.923s-5.491-4.4-9.778-4.271S44.453,37.433,44.849,38.505Z" transform="translate(-44.827 -33.308)" fill="none"/>
    </clipPath>
    <clipPath id="clip-path-3">
      <path id="SVGID-2" data-name="SVGID" d="M43.536,38.505a25.228,25.228,0,0,0-7.387-1.847,51.116,51.116,0,0,0-11.229.923s5.491-4.4,9.778-4.271S43.948,37.433,43.536,38.505Z" transform="translate(-24.92 -33.308)" fill="none"/>
    </clipPath>
    <clipPath id="clip-Ting-business-card">
      <rect width="500" height="300"/>
    </clipPath>
  </defs>
  <g id="Ting-business-card" clip-path="url(#clip-Ting-business-card)">
    <rect width="500" height="300" fill="#fff"/>
    <g id="Group_66" data-name="Group 66">
      <rect id="Rectangle_8" data-name="Rectangle 8" width="500" height="300" rx="10" fill="#080808"/>
      <g id="Layer_2" data-name="Layer 2" transform="translate(65.16 85)">
        <g id="Accessories" transform="translate(4.84 0)">
          <circle id="Ellipse_569" data-name="Ellipse 569" cx="65" cy="65" r="65" fill="#fff"/>
          <g id="Group_58" data-name="Group 58" clip-path="url(#clip-path)">
            <g id="Business_Woman" data-name="Business Woman" transform="translate(39.734 20.661)">
              <path id="Path_161" data-name="Path 161" d="M43.724,86.55a11.278,11.278,0,0,0,2.21.874c0,.313,0,.643,0,.973a31.032,31.032,0,0,1-4.947,15.83,24.142,24.142,0,0,1-1.55,1.913H61.384a20.43,20.43,0,0,1-2.407-3.3A32.566,32.566,0,0,1,55,88.594V87.506a10.833,10.833,0,0,0,2.473-.956A59.46,59.46,0,0,0,75.35,62.97h0c.363-.956.66-1.83.89-2.605h0a19.16,19.16,0,0,0,.66-2.935,90.079,90.079,0,0,0,0-14.313h0c.462-9.234-.148-22.442-17.973-28.444a51.215,51.215,0,0,0-8.245-2.144,51.546,51.546,0,0,0-8.245,2.144c-17.215,5.821-18.352,18.418-17.957,27.57a91.827,91.827,0,0,0-.132,15.186,18.138,18.138,0,0,0,.478,2.308,35.07,35.07,0,0,0,1.253,3.694A60.07,60.07,0,0,0,43.724,86.55Z" transform="translate(-24.097 -12.53)" fill="#edc4aa"/>
              <path id="Path_162" data-name="Path 162" d="M42.338,58.63a17.066,17.066,0,0,1-4.584-.66,50.539,50.539,0,0,1-.874,6.6s7.14-1.4,9.729-6.414l.1-.181a16.852,16.852,0,0,1-4.37.66Z" transform="translate(-15.802 16.956)" fill="#c18c72"/>
              <path id="Path_163" data-name="Path 163" d="M54.286,36.79a6.925,6.925,0,1,0,5.969,10.438c.363-.956.66-1.83.89-2.605a5.457,5.457,0,0,0,0-.907,6.925,6.925,0,0,0-6.86-6.925Z" transform="translate(-9.002 3.213)" fill="#ca1e4f" opacity="0.1"/>
              <path id="Path_164" data-name="Path 164" d="M31.455,50.641a6.925,6.925,0,1,0-6.925-6.925V44a35.073,35.073,0,0,0,1.253,3.694,6.909,6.909,0,0,0,5.672,2.952Z" transform="translate(-23.816 3.213)" fill="#ca1e4f" opacity="0.1"/>
            </g>
            <path id="Path_165" data-name="Path 165" d="M30.863,73.138c8.574-2.952,14.082-2.045,17.594-2.275l.181-.2c3.149.478,8.113-6,11.377-5.854,5.079.231,10.916,3.809,12.944,5.194a5.722,5.722,0,0,0,1.962.89c3.578.857,13.191,2.82,20.941,8.508-1.5,2.391-4.007,3.3-4.106,6.348-.28,7.387-3.133,17.742-1.121,24.585-4.617-4.254-3.842,9.366-7.536,10.091-9.184,1.814-20.5-10.965-24.3-2.358a71.441,71.441,0,0,0-6.233,6.6c-1.237,1.649-2.424,3.463-3.595,5.244a2.49,2.49,0,0,1-.132-.874,13.192,13.192,0,0,0-.231-1.748c-.2-1.649-.28-3.3-.445-4.947-.577-5.194-1.929-10.24-2.457-15.434a11.18,11.18,0,0,0-.28-1.649c0-.379.231-.758.1-1.1-1.847-4.6-12.878-8.245-20.3,0-.231.264,0,.693-.082,1.039a2.193,2.193,0,0,0-1.055.989l-.445.94a2.589,2.589,0,0,0-1.385.61A169.837,169.837,0,0,0,6.1,123.891l-.3-10.108S8.867,80.723,30.863,73.138Z" transform="translate(3.764 42.055)" fill="#f0c7ad"/>
            <path id="Path_166" data-name="Path 166" d="M-1.67,130.151c5.8-18.237,18.8-46.351,20.694-48.527L31.852,75.77l-2.127,24.288S20,122.681,7.5,135.939C6.805,133.086-.186,132.69-1.67,130.151Z" transform="translate(-1.084 49.168)" fill="#f0c7ad"/>
            <path id="Path_167" data-name="Path 167" d="M3.743,130.73c8.525-9.465,17.858-31.989,20.3-35.3,2.77-3.76,9.6-10.9,9.893-13.307,0,0,4.238,4.947-.429,11.361-3.3,4.683-14.84,26.383-23.992,41.4C9.877,133.17,3.5,132.461,3.743,130.73Z" transform="translate(2.424 53.288)" fill="#cea48d"/>
            <path id="Path_168" data-name="Path 168" d="M5.151,224.557A35.365,35.365,0,0,0,9.29,223.37h.824a62.022,62.022,0,0,0,6.777-.94c1.27.1,2.539.2,3.792.264,5.8.3,11.542.214,17.38.841a198.3,198.3,0,0,1,27.421,5.623,4.386,4.386,0,0,1,.923,1.863s-44.521,6.6-65.478-4.007l3.2-2.21a10.193,10.193,0,0,0,1.022-.247Z" transform="translate(0.603 144.337)" fill="#141622"/>
            <path id="Path_169" data-name="Path 169" d="M16.751,221.853c12.4-.2,24.3,3.677,36.474,4.947-5.491,14.263-12.746,35.089-12.894,38.255a29.021,29.021,0,0,0,8.245,21.3c13.653,14.725,17.3,50.259,18.286,61.471a85.744,85.744,0,0,0,5.26,23.4,128.944,128.944,0,0,1,5.788,18.6c.66,4.353,1.336,6.942,3.578,16.209s3.133,16.489-4.469,19.342c-9.4,3.479-9.415-26.036-13.026-24.833-4.5,1.468-9.1,20.974-19.54,23.085-9.745,1.9-8.772-7.536-8.772-7.536s7.354-9.184,7.733-11.542c.923-5.821,8.393-14.065,6.3-19.358-.742-1.9-6.167-28.147-9.1-39.244s-22.293-61.405-24.519-65.775a58.6,58.6,0,0,1-4.782-9.893C9.792,266.34,6.594,240.8,4.45,222.611,8.655,222.4,12.892,221.919,16.751,221.853Z" transform="translate(2.888 143.958)" fill="#f0c7ad"/>
            <path id="Path_170" data-name="Path 170" d="M56.658,325.77S52.4,339.637,47.7,344.5c-4.32,4.469-13.818,13.719-19.54,5.293l.544-2.424c-6.365,3.512-11.839,11.757-11.839,11.757a27.7,27.7,0,0,0,20.463.165c11.3-4.271,15.78-11.542,15.978-12.829L56,354.478l2.374-1.319S58.6,329.843,56.658,325.77Z" transform="translate(10.947 211.395)" fill="#141622"/>
            <path id="Path_171" data-name="Path 171" d="M12.968,221.874l.775.214c-2.407,20.925-2.259,47.818-1.649,52.765.511,4.007,3.628,7.931,6.15,11.081a21.106,21.106,0,0,1,3.182,4.666c.709,1.9,6.6,13.851,11.905,24.387,3.661,7.338,7.107,14.263,8.426,17.083,3.3,7.024,18.6,57.58,19.589,61.158.462,1.748.758,3.3,1.072,4.947s1.121,10.355,1.088,10.817c-.989-3.463-1.863-8.36-2.292-10.586-.3-1.649-.594-3.2-1.055-4.947-1.369-5.046-16.341-54.249-19.507-61.01-1.319-2.82-4.765-9.745-8.409-17.066-5.524-11.081-11.229-22.557-11.955-24.5a21.437,21.437,0,0,0-3-4.337c-2.605-3.3-5.854-7.338-6.4-11.691-.61-4.864-.758-32.137,1.649-53.243Z" transform="translate(6.819 143.805)" fill="#cea48d"/>
            <path id="Path_172" data-name="Path 172" d="M53.964,323.746c0-1.385,7.041,19.457,10.091,23.085s4.188,17.924-6.447,24.849A25.327,25.327,0,0,1,44.73,355.405a114.466,114.466,0,0,1-3.38-22.046c.115,0,3.512,24.734,13.191,23.464,0,0,7.123-2.968,1.088-16.143C55.613,340.7,53.964,328.61,53.964,323.746Z" transform="translate(26.832 210.039)" fill="#141622"/>
            <path id="Path_173" data-name="Path 173" d="M6.92,186.177a4.469,4.469,0,0,1,1.138,2.869l.2.115a22.111,22.111,0,0,0,2.292,1.039,59.362,59.362,0,0,0,5.722,1.863c4.782,1.27,8.426,10.685,13.917,10.537,12.235-.346,26.646-1.253,37.546-4.848-4.007,8.393-.181-.247-.231-.313-2.259-2.243,0-36,0-36l13.373-16.39s14.741-13.026,3.76-35.221C76.6,93.657,79.159,68.61,78.45,70.489,69.3,95.223,66.627,119.858,48.011,125.068c-14.247-5.441-5.54-49.731-5.54-49.731s-5.606,2.968-12.334,19.144c-5.8,14.032-22.64,22.128-15.351,41.223,10.537,27.7,1.649,27.883-5.062,44.389A64.09,64.09,0,0,1,6.92,186.177Z" transform="translate(4.49 45.676)" fill="#272b44"/>
            <path id="Path_174" data-name="Path 174" d="M12.983,143.143s-31.577,55.568-8.805,139.564c0,0,22.673-8.706,65.478,4.007,0,0,41.8-106.5,7.453-137.552C50.182,124.823,12.983,143.143,12.983,143.143Z" transform="translate(-2.644 88.595)" fill="#272b44"/>
            <path id="Path_175" data-name="Path 175" d="M10.553,137.06s5.408,12.119,21.947,16.984c10.108,2.968,30.653,1.138,34.627-4.337a12.532,12.532,0,0,1,0,7.981s-25.393,9.893-44.817,0-15.945-14.84-15.945-14.84Z" transform="translate(3.973 88.939)" fill="#141622"/>
            <path id="Path_176" data-name="Path 176" d="M59.693,109.42c-3.083,5.788-2.308,13.521-3.083,19.787-1.154,8.492-4.633,17.379-4.947,25.888,0,3.083-.1,10.322-1.649,13.026-1.929,3.479-4.535-.28-6.843-2.985-6.6-7.733.742-26.284,5.771-33.226,3.858-5.8,7.206-15.747,10.454-22.029Z" transform="translate(26.314 71.004)" fill="#141622"/>
            <path id="Path_177" data-name="Path 177" d="M54.46,155.74c.758-8.954-3.479-20.1-2.919-24.091,1.055-7.437,9.217-24.025,4.32-27.108-3.133-1.962-7.255-35.963-4.238-35.105,2.028.577,16.753,3.644,22.442,14.84,2.16,4.617,3.3,19.259,2.21,24.915-4.947,24.239-10.833,43.5-12.251,52.155C58.929,157.538,60.544,155.971,54.46,155.74Z" transform="translate(32.817 45.047)" fill="#f0c7ad"/>
            <path id="Path_178" data-name="Path 178" d="M62.437,114.676c-4.6,3.5-8.673,6.6-14.593,7.123-7.074.66-13.636-1.9-17.808,5.656-.247.445-1.237.214-1.451-.181-5.342-10.19,14.56-9.729,19.985-9.712.561,0,1.649.857.577.857-5.1,0-24.058-.511-19.16,8.822l-1.451-.1c2.523-4.551,5.87-6.2,10.949-6.249a68.99,68.99,0,0,0,9.893-.132c4.551-.709,8.1-3.908,11.625-6.6.412-.313,1.8.28,1.385.594Z" transform="translate(17.964 74.025)" fill="#141622"/>
            <path id="Path_179" data-name="Path 179" d="M14.451,108.738c-2,11.971,17.017,12.152,15.45,24.206-.082.627-1.649.264-1.484-.4,1.5-11.641-17.511-11.872-15.467-24.222C13.066,107.7,14.6,108.078,14.451,108.738Z" transform="translate(8.304 70.086)" fill="#141622"/>
            <path id="Path_180" data-name="Path 180" d="M15,112.984c.511,3.661,7.041,3.661,9.795,4.683,3.858,1.451,5.92,4.073,5.672,8.245,0,.495-1.533.181-1.5-.4.363-5.854-4.139-7.255-8.954-8.376-2.49-.594-6.084-1.369-6.5-4.4,0-.61,1.418-.33,1.484.181Z" transform="translate(8.773 72.931)" fill="#141622"/>
            <path id="Path_181" data-name="Path 181" d="M60.743,109.89c-3.595,3.595-4.633,13.9-5.656,19.573-1.039,6.183-4.122,9.778-5.672,14.939-1.55,4.633-1.319,17.231-2.869,21.865l-3.479-2.243c-16.357.594,11.542-38.848,13.043-45.378Z" transform="translate(24.621 71.309)" fill="#272b44"/>
            <path id="Path_182" data-name="Path 182" d="M19.275,116.686c-1.55,4.122,2.061,9.267,2.572,13.389,1.55,10.817-4.122,16.489-11.328,23.184-5.672-6.695.511-14.428,2.572-21.123,2.061-4.633,3.479-12.251,4.947-19.226Z" transform="translate(5.31 73.268)" fill="#272b44"/>
            <path id="Path_183" data-name="Path 183" d="M40.7,126.956c4.469-.511,7.354,4.122,11.806,2.737.544-.165,1.764.61.907.874a7.453,7.453,0,0,1-5.244-.1c-2.308-.973-4.238-2.886-6.909-2.572C40.632,127.9,39.61,127.071,40.7,126.956Z" transform="translate(26.099 82.357)" fill="#141622"/>
            <path id="Path_184" data-name="Path 184" d="M12.184,131.709a6.15,6.15,0,0,1,7.041,3.166c1.121,1.83,1.649,3.99,2.622,5.9a14.247,14.247,0,0,0,11.18,7.519c.775.082,1.187,1.088.165.973a16.324,16.324,0,0,1-10.223-4.947c-2.9-2.919-4.518-12.647-9.893-11.674-.561.1-1.781-.759-.89-.923Z" transform="translate(7.702 85.337)" fill="#141622"/>
            <path id="Path_185" data-name="Path 185" d="M10.369,137.514C8.44,139.641,23.676,148.463,25.8,149.3c.973.4,0,.824-.577.577-2.259-.907-18.847-10.091-16.258-12.944C9.3,136.574,10.715,137.118,10.369,137.514Z" transform="translate(5.642 88.782)" fill="#141622"/>
            <path id="Path_186" data-name="Path 186" d="M11.513,166.508c-2.226-.28,2.8,1.649,3.149,1.649a11.015,11.015,0,0,0,3.38.313,94.262,94.262,0,0,0,10.124,0c.412,0,1.468.429.841.94-3.957,3.3-7.206,7.354-6.777,12.779,0,.742-1.451.511-1.5-.132-.462-5.705,2.919-9.893,7.123-13.488l.841.94c-6.826,0-13.538.478-19.9-2.424-.231-.1-.495-.33-.429-.61.4-1.649,1.649-1.27,3-1.088.808.1,1.154,1.154.148,1.039Z" transform="translate(5.421 107.211)" fill="#141622"/>
            <path id="Path_187" data-name="Path 187" d="M4,196.507c5.211-1.9,11.114-5.359,14.428-9.893.3-.412,1.022-.231,1.3.1,1.649,2,4.6,1.863,6.183,3.858.594.759-.824,1.022-1.253.462-1.484-1.88-4.518-1.929-6.183-3.858l1.319.1c-3.463,4.716-9.5,8.245-14.939,10.24-.66.231-1.748-.709-.857-1.039Z" transform="translate(2.379 120.941)" fill="#141622"/>
            <path id="Path_188" data-name="Path 188" d="M32.578,193.61A35.881,35.881,0,0,1,43.2,197.567c3.463,2.144,6.035,5.59,8.541,8.706.313.412-1.138.214-1.369,0a47.686,47.686,0,0,0-7.123-7.684,26.943,26.943,0,0,0-10.8-4.37c-.89-.214-.742-.725.132-.528Z" transform="translate(20.665 125.635)" fill="#141622"/>
            <path id="Path_189" data-name="Path 189" d="M35.06,192.072c8.08-1.319,13.092,4.732,16.489,11.279.4.759-1.121.791-1.418.181-2.952-5.788-7.206-11.542-14.494-10.355-.742.115-1.5-.94-.511-1.1Z" transform="translate(22.487 124.519)" fill="#141622"/>
            <path id="Path_190" data-name="Path 190" d="M36.122,188.53a8.244,8.244,0,0,1,7.453,1.9c2.589,2.44,3.512,6.1,6.2,8.492.33.28-1.072.132-1.352-.1-3.743-3.3-4.864-10.767-11.064-9.712-.363,0-1.649-.511-1.237-.577Z" transform="translate(23.387 122.19)" fill="#141622"/>
            <path id="Path_191" data-name="Path 191" d="M37.33,82.44a2.407,2.407,0,1,0,.693-1.723,2.424,2.424,0,0,0-.693,1.723Z" transform="translate(24.224 51.913)" fill="#d0d2d3"/>
            <path id="Path_192" data-name="Path 192" d="M38.1,81.794a1.27,1.27,0,0,0,1.336,1.187,1.286,1.286,0,0,0,1.319-1.2,1.336,1.336,0,0,0-2.655,0Z" transform="translate(24.723 52.296)" fill="#fff"/>
            <path id="Path_193" data-name="Path 193" d="M41.044,82.938s-1.319,1.5-2.556.544A1.649,1.649,0,0,1,37.8,81.19a5.276,5.276,0,0,0,1.187,1.649,2.869,2.869,0,0,0,2.061.1Z" transform="translate(24.385 52.685)" fill="#fff"/>
            <path id="Path_194" data-name="Path 194" d="M38,79.18a2.424,2.424,0,1,0,2.407-2.44A2.424,2.424,0,0,0,38,79.18Z" transform="translate(24.659 49.797)" fill="#d0d2d3"/>
            <path id="Path_195" data-name="Path 195" d="M38.72,78.518a1.352,1.352,0,0,0,2.671,0,1.286,1.286,0,0,0-1.336-1.187A1.27,1.27,0,0,0,38.72,78.518Z" transform="translate(25.126 50.179)" fill="#fff"/>
            <path id="Path_196" data-name="Path 196" d="M41.665,79.688s-1.3,1.5-2.539.561a1.649,1.649,0,0,1-.709-2.308,5.128,5.128,0,0,0,1.2,1.649,2.671,2.671,0,0,0,2.045.1Z" transform="translate(24.786 50.576)" fill="#fff"/>
            <path id="Path_197" data-name="Path 197" d="M36.73,85.564a2.407,2.407,0,1,0,.7-1.713,2.424,2.424,0,0,0-.7,1.713Z" transform="translate(23.834 53.95)" fill="#d0d2d3"/>
            <path id="Path_198" data-name="Path 198" d="M37.49,84.912a1.336,1.336,0,0,0,2.671,0,1.237,1.237,0,0,0-1.336-1.171,1.27,1.27,0,0,0-1.336,1.171Z" transform="translate(24.328 54.338)" fill="#fff"/>
            <path id="Path_199" data-name="Path 199" d="M40.444,86.068s-1.319,1.5-2.556.544A1.649,1.649,0,0,1,37.2,84.32a5.276,5.276,0,0,0,1.187,1.649,2.869,2.869,0,0,0,2.061.1Z" transform="translate(23.996 54.716)" fill="#fff"/>
            <path id="Path_200" data-name="Path 200" d="M35,82.393a2.127,2.127,0,1,0,2.119-1.94A2.127,2.127,0,0,0,35,82.393Z" transform="translate(22.709 52.207)" fill="#d0d2d3"/>
            <path id="Path_201" data-name="Path 201" d="M35.63,81.916A1.1,1.1,0,0,0,36.8,82.938,1.088,1.088,0,0,0,37.955,81.9a1.166,1.166,0,0,0-2.325.016Z" transform="translate(23.121 52.47)" fill="#fff"/>
            <path id="Path_202" data-name="Path 202" d="M38.186,82.913s-1.138,1.3-2.226.478a1.484,1.484,0,0,1-.61-2.012,4.683,4.683,0,0,0,1.039,1.4,2.424,2.424,0,0,0,1.8.132Z" transform="translate(22.824 52.808)" fill="#fff"/>
            <path id="Path_203" data-name="Path 203" d="M35.47,78.757a2.127,2.127,0,1,0,2.111-2.127,2.127,2.127,0,0,0-2.111,2.127Z" transform="translate(23.017 49.726)" fill="#d0d2d3"/>
            <path id="Path_204" data-name="Path 204" d="M36.14,78.19a1.1,1.1,0,0,0,1.171,1.039,1.121,1.121,0,0,0,1.171-1.055,1.088,1.088,0,0,0-1.171-1.022A1.1,1.1,0,0,0,36.14,78.19Z" transform="translate(23.452 50.062)" fill="#fff"/>
            <path id="Path_205" data-name="Path 205" d="M38.719,79.2s-1.154,1.3-2.243.462a1.451,1.451,0,0,1-.594-2,4.683,4.683,0,0,0,1.039,1.4A2.589,2.589,0,0,0,38.719,79.2Z" transform="translate(23.165 50.401)" fill="#fff"/>
            <path id="Path_206" data-name="Path 206" d="M34.41,85.094A2.127,2.127,0,1,0,36.521,83a2.127,2.127,0,0,0-2.111,2.094Z" transform="translate(22.329 53.859)" fill="#d0d2d3"/>
            <path id="Path_207" data-name="Path 207" d="M35.08,84.54a1.171,1.171,0,0,0,2.325,0A1.088,1.088,0,0,0,36.251,83.5,1.1,1.1,0,0,0,35.08,84.54Z" transform="translate(22.764 54.183)" fill="#fff"/>
            <path id="Path_208" data-name="Path 208" d="M37.662,85.6s-1.154,1.3-2.243.478a1.457,1.457,0,0,1-.594-2.012,4.4,4.4,0,0,0,1.039,1.4A2.424,2.424,0,0,0,37.662,85.6Z" transform="translate(22.474 54.554)" fill="#fff"/>
            <path id="Path_209" data-name="Path 209" d="M40.38,81.58a2.111,2.111,0,0,0,2.127,2.111,2.034,2.034,0,1,0-2.045-2.127Z" transform="translate(26.203 51.668)" fill="#d0d2d3"/>
            <path id="Path_210" data-name="Path 210" d="M41.052,81.086a1.171,1.171,0,1,0,1.171-1.055,1.121,1.121,0,0,0-1.171,1.055Z" transform="translate(26.635 51.932)" fill="#fff"/>
            <path id="Path_211" data-name="Path 211" d="M43.632,82.083s-1.154,1.3-2.243.478a1.484,1.484,0,0,1-.61-2.012,4.534,4.534,0,0,0,1.055,1.4A2.424,2.424,0,0,0,43.632,82.083Z" transform="translate(26.348 52.27)" fill="#fff"/>
            <path id="Path_212" data-name="Path 212" d="M40.59,78.187A2.127,2.127,0,1,0,42.7,76.06,2.127,2.127,0,0,0,40.59,78.187Z" transform="translate(26.339 49.356)" fill="#d0d2d3"/>
            <path id="Path_213" data-name="Path 213" d="M41.26,77.62a1.1,1.1,0,0,0,1.171,1.039A1.121,1.121,0,0,0,43.6,77.6a1.088,1.088,0,0,0-1.171-1.022A1.1,1.1,0,0,0,41.26,77.62Z" transform="translate(26.774 49.692)" fill="#fff"/>
            <path id="Path_214" data-name="Path 214" d="M43.837,78.6s-1.154,1.319-2.226.478-.808-1.649-.61-2a4.683,4.683,0,0,0,1.039,1.4,2.506,2.506,0,0,0,1.8.115Z" transform="translate(26.489 50.018)" fill="#fff"/>
            <path id="Path_215" data-name="Path 215" d="M39.5,84.757a2.127,2.127,0,1,0,2.111-2.127A2.127,2.127,0,0,0,39.5,84.757Z" transform="translate(25.632 53.619)" fill="#d0d2d3"/>
            <path id="Path_216" data-name="Path 216" d="M40.17,84.2a1.121,1.121,0,0,0,1.187,1.022,1.088,1.088,0,0,0,1.154-1.039,1.1,1.1,0,0,0-1.171-1.039A1.121,1.121,0,0,0,40.17,84.2Z" transform="translate(26.067 53.949)" fill="#fff"/>
            <path id="Path_217" data-name="Path 217" d="M42.748,85.193s-1.138,1.3-2.226.478a1.468,1.468,0,0,1-.61-2.012,4.683,4.683,0,0,0,1.039,1.4A2.424,2.424,0,0,0,42.748,85.193Z" transform="translate(25.781 54.288)" fill="#fff"/>
            <path id="Path_218" data-name="Path 218" d="M32,84.334a1.8,1.8,0,0,0,1.8,1.8,1.83,1.83,0,0,0,1.814-1.814A1.806,1.806,0,1,0,32,84.334Z" transform="translate(20.765 53.548)" fill="#d0d2d3"/>
            <path id="Path_219" data-name="Path 219" d="M32.6,83.851a.989.989,0,1,0,.989-.89.94.94,0,0,0-.989.89Z" transform="translate(21.152 53.833)" fill="#fff"/>
            <path id="Path_220" data-name="Path 220" d="M34.794,84.677s-.973,1.121-1.9.412-.693-1.385-.528-1.649a4.089,4.089,0,0,0,.89,1.2A2.061,2.061,0,0,0,34.794,84.677Z" transform="translate(20.906 54.145)" fill="#fff"/>
            <path id="Path_221" data-name="Path 221" d="M33.45,78.224a1.814,1.814,0,1,0,1.8-1.814,1.814,1.814,0,0,0-1.8,1.814Z" transform="translate(21.706 49.583)" fill="#d0d2d3"/>
            <path id="Path_222" data-name="Path 222" d="M34,77.741a.989.989,0,1,0,.989-.89.923.923,0,0,0-.989.89Z" transform="translate(22.061 49.868)" fill="#fff"/>
            <path id="Path_223" data-name="Path 223" d="M36.215,78.583s-.973,1.1-1.913.4a1.253,1.253,0,0,1-.511-1.649,3.891,3.891,0,0,0,.89,1.2,2.144,2.144,0,0,0,1.533.049Z" transform="translate(21.843 50.18)" fill="#fff"/>
            <path id="Path_224" data-name="Path 224" d="M33,81.707a1.806,1.806,0,1,0,1.8-1.8A1.814,1.814,0,0,0,33,81.707Z" transform="translate(21.414 51.854)" fill="#d0d2d3"/>
            <path id="Path_225" data-name="Path 225" d="M33.53,81.261a.94.94,0,0,0,.989.89.973.973,0,0,0,1.006-.89.956.956,0,0,0-1.006-.89.94.94,0,0,0-.989.89Z" transform="translate(21.758 52.152)" fill="#fff"/>
            <path id="Path_226" data-name="Path 226" d="M35.724,82.1s-.973,1.1-1.9.4-.693-1.385-.528-1.649a3.891,3.891,0,0,0,.89,1.2A2.144,2.144,0,0,0,35.724,82.1Z" transform="translate(21.51 52.464)" fill="#fff"/>
            <path id="Path_227" data-name="Path 227" d="M42.422,80.779a1.83,1.83,0,1,0,.475-1.385A1.83,1.83,0,0,0,42.422,80.779Z" transform="translate(27.524 51.134)" fill="#d0d2d3"/>
            <path id="Path_228" data-name="Path 228" d="M43,80.219a.989.989,0,1,0,.989-.989.989.989,0,0,0-.989.989Z" transform="translate(27.903 51.413)" fill="#fff"/>
            <path id="Path_229" data-name="Path 229" d="M45.185,81.007s-.989,1.121-1.913.412a1.253,1.253,0,0,1-.511-1.649,3.875,3.875,0,0,0,.89,1.187,2.144,2.144,0,0,0,1.533.049Z" transform="translate(27.664 51.763)" fill="#fff"/>
            <path id="Path_230" data-name="Path 230" d="M42.57,76.914a1.8,1.8,0,1,0,.521-1.282A1.814,1.814,0,0,0,42.57,76.914Z" transform="translate(27.624 48.733)" fill="#d0d2d3"/>
            <path id="Path_231" data-name="Path 231" d="M43.14,76.432a.956.956,0,0,0,1.006.89.973.973,0,0,0,.989-.907,1.006,1.006,0,0,0-2,0Z" transform="translate(27.994 49.017)" fill="#fff"/>
            <path id="Path_232" data-name="Path 232" d="M45.322,77.257s-.973,1.121-1.9.412A1.27,1.27,0,0,1,42.9,76.02a3.892,3.892,0,0,0,.89,1.2A2.061,2.061,0,0,0,45.322,77.257Z" transform="translate(27.758 49.33)" fill="#fff"/>
            <path id="Path_233" data-name="Path 233" d="M41.923,83.864A1.806,1.806,0,1,0,43.7,82.05a1.814,1.814,0,0,0-1.781,1.814Z" transform="translate(27.199 53.243)" fill="#d0d2d3"/>
            <path id="Path_234" data-name="Path 234" d="M42.49,83.389a.989.989,0,1,0,.989-.989.989.989,0,0,0-.989.989Z" transform="translate(27.572 53.47)" fill="#fff"/>
            <path id="Path_235" data-name="Path 235" d="M44.684,84.207s-.973,1.121-1.9.412-.693-1.385-.528-1.649a3.892,3.892,0,0,0,.89,1.2A2.061,2.061,0,0,0,44.684,84.207Z" transform="translate(27.324 53.84)" fill="#fff"/>
            <path id="Path_236" data-name="Path 236" d="M53.76,323.14,64,340.7l-.857,2.127-7.453-11.114Z" transform="translate(26.905 209.689)" fill="#272b44"/>
            <path id="Path_237" data-name="Path 237" d="M31.753,77a1.8,1.8,0,0,0,1.814,1.8,1.93,1.93,0,1,0-1.814-1.814Z" transform="translate(20.6 48.665)" fill="#d0d2d3"/>
            <path id="Path_238" data-name="Path 238" d="M32.32,76.435a1.006,1.006,0,0,0,2,0,.923.923,0,0,0-1.006-.874.94.94,0,0,0-.989.874Z" transform="translate(20.973 49.03)" fill="#fff"/>
            <path id="Path_239" data-name="Path 239" d="M34.523,77.286s-.973,1.121-1.9.412a1.286,1.286,0,0,1-.577-1.7,3.875,3.875,0,0,0,.89,1.187A2.144,2.144,0,0,0,34.523,77.286Z" transform="translate(20.716 49.317)" fill="#fff"/>
            <path id="Path_240" data-name="Path 240" d="M30.4,75.054a1.8,1.8,0,1,0,.521-1.281A1.814,1.814,0,0,0,30.4,75.054Z" transform="translate(19.727 47.526)" fill="#d0d2d3"/>
            <path id="Path_241" data-name="Path 241" d="M31,74.571a.989.989,0,1,0,.989-.89.94.94,0,0,0-.989.89Z" transform="translate(20.114 47.811)" fill="#fff"/>
            <path id="Path_242" data-name="Path 242" d="M33.164,75.4s-.973,1.121-1.9.412-.693-1.385-.528-1.649a4.089,4.089,0,0,0,.89,1.2A2.061,2.061,0,0,0,33.164,75.4Z" transform="translate(19.849 48.123)" fill="#fff"/>
            <path id="Path_243" data-name="Path 243" d="M29.57,72.887a1.806,1.806,0,1,0,1.781-1.8,1.814,1.814,0,0,0-1.781,1.8Z" transform="translate(19.188 46.131)" fill="#d0d2d3"/>
            <path id="Path_244" data-name="Path 244" d="M30.14,72.449a.992.992,0,0,0,1.979,0,.989.989,0,1,0-1.979,0Z" transform="translate(19.558 46.371)" fill="#fff"/>
            <path id="Path_245" data-name="Path 245" d="M32.325,73.253s-.973,1.1-1.913.4A1.253,1.253,0,0,1,29.9,72a3.891,3.891,0,0,0,.89,1.2,2.144,2.144,0,0,0,1.533.049Z" transform="translate(19.319 46.721)" fill="#fff"/>
            <path id="Path_246" data-name="Path 246" d="M29.433,70.716a1.814,1.814,0,1,0,1.806-1.641,1.814,1.814,0,0,0-1.806,1.641Z" transform="translate(19.094 44.823)" fill="#d0d2d3"/>
            <path id="Path_247" data-name="Path 247" d="M30,70.35a1.006,1.006,0,1,0,.989-.89.973.973,0,0,0-.989.89Z" transform="translate(19.465 45.073)" fill="#fff"/>
            <path id="Path_248" data-name="Path 248" d="M32.181,71.137s-.973,1.121-1.9.412a1.237,1.237,0,0,1-.511-1.649,3.743,3.743,0,0,0,.874,1.187,2.144,2.144,0,0,0,1.533.049Z" transform="translate(19.232 45.359)" fill="#fff"/>
            <path id="Path_249" data-name="Path 249" d="M30.423,68.811a1.435,1.435,0,0,0,1.435,1.418,1.418,1.418,0,0,0,1.418-1.435,1.435,1.435,0,1,0-2.853,0Z" transform="translate(19.737 43.611)" fill="#d0d2d3"/>
            <path id="Path_250" data-name="Path 250" d="M30.87,68.363a.824.824,0,1,0,1.649,0,.758.758,0,0,0-.791-.709.742.742,0,0,0-.857.709Z" transform="translate(20.032 43.895)" fill="#fff"/>
            <path id="Path_251" data-name="Path 251" d="M32.615,69.039s-.775.89-1.517.33A1.022,1.022,0,0,1,30.686,68a3.083,3.083,0,0,0,.709.956A1.649,1.649,0,0,0,32.615,69.039Z" transform="translate(19.837 44.126)" fill="#fff"/>
            <path id="Path_252" data-name="Path 252" d="M43.8,74.614a1.781,1.781,0,0,0,1.814,1.814,1.814,1.814,0,1,0-1.814-1.8Z" transform="translate(28.422 47.241)" fill="#d0d2d3"/>
            <path id="Path_253" data-name="Path 253" d="M44.37,74.125a1.006,1.006,0,1,0,1-.877A1.006,1.006,0,0,0,44.37,74.125Z" transform="translate(28.792 47.531)" fill="#fff"/>
            <path id="Path_254" data-name="Path 254" d="M46.552,74.967s-.973,1.121-1.9.412a1.27,1.27,0,0,1-.528-1.649,3.875,3.875,0,0,0,.89,1.187,2.144,2.144,0,0,0,1.533.049Z" transform="translate(28.556 47.844)" fill="#fff"/>
            <path id="Path_255" data-name="Path 255" d="M44.68,71.99a1.814,1.814,0,1,0,1.8-1.83,1.814,1.814,0,0,0-1.8,1.83Z" transform="translate(28.993 45.527)" fill="#d0d2d3"/>
            <path id="Path_256" data-name="Path 256" d="M45.26,71.529a.992.992,0,0,0,1.979,0,.989.989,0,1,0-1.979,0Z" transform="translate(29.37 45.774)" fill="#fff"/>
            <path id="Path_257" data-name="Path 257" d="M47.445,72.327s-.989,1.121-1.913.412a1.253,1.253,0,0,1-.511-1.649,3.875,3.875,0,0,0,.89,1.187A2.144,2.144,0,0,0,47.445,72.327Z" transform="translate(29.13 46.131)" fill="#fff"/>
            <path id="Path_258" data-name="Path 258" d="M44.233,78.856a1.814,1.814,0,1,0,1.806-1.641A1.814,1.814,0,0,0,44.233,78.856Z" transform="translate(28.698 50.105)" fill="#d0d2d3"/>
            <path id="Path_259" data-name="Path 259" d="M44.8,78.441a1.006,1.006,0,0,0,2,0,.973.973,0,0,0-1.006-.89A.956.956,0,0,0,44.8,78.441Z" transform="translate(29.071 50.323)" fill="#fff"/>
            <path id="Path_260" data-name="Path 260" d="M47.014,79.277s-.973,1.1-1.9.412-.693-1.4-.528-1.649a3.875,3.875,0,0,0,.89,1.187,2.144,2.144,0,0,0,1.533.049Z" transform="translate(28.836 50.641)" fill="#fff"/>
            <path id="Path_261" data-name="Path 261" d="M45.553,69.771a1.435,1.435,0,0,0,1.435,1.418,1.418,1.418,0,0,0,1.418-1.435,1.435,1.435,0,1,0-2.853,0Z" transform="translate(29.555 44.234)" fill="#d0d2d3"/>
            <path id="Path_262" data-name="Path 262" d="M46,69.283a.759.759,0,0,0,.791.709.775.775,0,0,0,.857-.709.758.758,0,0,0-.791-.709.742.742,0,0,0-.857.709Z" transform="translate(29.85 44.492)" fill="#fff"/>
            <path id="Path_263" data-name="Path 263" d="M47.742,70s-.775.89-1.517.33a1.006,1.006,0,0,1-.4-1.369,2.952,2.952,0,0,0,.693.956A1.649,1.649,0,0,0,47.742,70Z" transform="translate(29.658 44.749)" fill="#fff"/>
            <path id="Path_264" data-name="Path 264" d="M65.789,65.72a16.588,16.588,0,0,1,6.365,6.315c2.539,4.436,3.3,13.455,4.04,15.335s3.018,4.947.676,4.947H74.529a18.8,18.8,0,0,1-7.107-.2,16.686,16.686,0,0,0-4.947-.874s3,3.825-1.517,5.672S43.76,107.965,38.5,118.073s-7.75,15.055-7.75,15.055,6.052-20.249,14.164-28.905S58.105,81.137,58.88,78.664,65.113,68.309,65.789,65.72Z" transform="translate(19.954 42.646)" fill="#fff"/>
            <path id="Path_265" data-name="Path 265" d="M31,80.708a1.83,1.83,0,0,0,1.814,1.8A1.8,1.8,0,1,0,31,80.708Z" transform="translate(20.116 51.205)" fill="#d0d2d3"/>
            <path id="Path_266" data-name="Path 266" d="M31.61,80.249a.989.989,0,1,0,.989-.989.989.989,0,0,0-.989.989Z" transform="translate(20.512 51.433)" fill="#fff"/>
            <path id="Path_267" data-name="Path 267" d="M33.8,81.037s-.973,1.121-1.913.412a1.253,1.253,0,0,1-.511-1.649,4.089,4.089,0,0,0,.89,1.2A2.061,2.061,0,0,0,33.8,81.037Z" transform="translate(20.273 51.783)" fill="#fff"/>
            <path id="Path_268" data-name="Path 268" d="M29.14,79.444a1.8,1.8,0,1,0,.521-1.282A1.814,1.814,0,0,0,29.14,79.444Z" transform="translate(18.909 50.375)" fill="#d0d2d3"/>
            <path id="Path_269" data-name="Path 269" d="M29.71,78.961a.956.956,0,0,0,1.006.89.89.89,0,0,0,0-1.781.94.94,0,0,0-1.006.89Z" transform="translate(19.279 50.659)" fill="#fff"/>
            <path id="Path_270" data-name="Path 270" d="M31.9,79.8s-.973,1.1-1.9.412-.693-1.4-.528-1.649a3.891,3.891,0,0,0,.89,1.2A2.144,2.144,0,0,0,31.9,79.8Z" transform="translate(19.031 50.978)" fill="#fff"/>
            <path id="Path_271" data-name="Path 271" d="M27.843,77.707a1.814,1.814,0,1,0,3.611,0,1.806,1.806,0,0,0-3.611,0Z" transform="translate(18.062 49.259)" fill="#d0d2d3"/>
            <path id="Path_272" data-name="Path 272" d="M28.41,77.182a.956.956,0,0,0,1.006.874.94.94,0,0,0,.989-.89.923.923,0,0,0-1.006-.874.94.94,0,0,0-.989.89Z" transform="translate(18.436 49.504)" fill="#fff"/>
            <path id="Path_273" data-name="Path 273" d="M30.605,78.007s-.989,1.121-1.913.412a1.253,1.253,0,0,1-.511-1.649,4.04,4.04,0,0,0,.874,1.187,2.176,2.176,0,0,0,1.55.049Z" transform="translate(18.203 49.817)" fill="#fff"/>
            <path id="Path_274" data-name="Path 274" d="M26.879,75.492a1.051,1.051,0,1,0-.066,0Z" transform="translate(17.394 47.698)" fill="#d0d2d3"/>
            <path id="Path_275" data-name="Path 275" d="M27.43,74.979a.992.992,0,0,0,1.979,0,.989.989,0,0,0-1.979,0Z" transform="translate(17.8 48.013)" fill="#fff"/>
            <path id="Path_276" data-name="Path 276" d="M29.615,75.777s-.989,1.121-1.913.412a1.253,1.253,0,0,1-.511-1.649,3.875,3.875,0,0,0,.89,1.187,2.127,2.127,0,0,0,1.533.049Z" transform="translate(17.56 48.37)" fill="#fff"/>
            <path id="Path_277" data-name="Path 277" d="M46.48,74.695a1.435,1.435,0,1,0,2.869,0A1.468,1.468,0,0,0,47.9,73.26a1.418,1.418,0,0,0-1.418,1.435Z" transform="translate(30.161 47.539)" fill="#d0d2d3"/>
            <path id="Path_278" data-name="Path 278" d="M46.93,74.324a.824.824,0,1,0,.824-.824A.824.824,0,0,0,46.93,74.324Z" transform="translate(30.453 47.695)" fill="#fff"/>
            <path id="Path_279" data-name="Path 279" d="M48.673,74.989s-.775.89-1.5.33a.989.989,0,0,1-.412-1.369,3.3,3.3,0,0,0,.693.956A1.649,1.649,0,0,0,48.673,74.989Z" transform="translate(30.26 47.987)" fill="#fff"/>
            <path id="Path_280" data-name="Path 280" d="M45.61,76.765a1.435,1.435,0,1,0,1.435-1.435,1.418,1.418,0,0,0-1.435,1.435Z" transform="translate(29.597 48.882)" fill="#d0d2d3"/>
            <path id="Path_281" data-name="Path 281" d="M46.115,76.424a.742.742,0,0,0,.791.709.726.726,0,0,0,.742-.709.824.824,0,1,0-1.649,0Z" transform="translate(29.85 49.058)" fill="#fff"/>
            <path id="Path_282" data-name="Path 282" d="M47.8,77.069s-.775.874-1.5.313-.544-1.1-.412-1.352a3.067,3.067,0,0,0,.709.94,1.649,1.649,0,0,0,1.2.1Z" transform="translate(29.698 49.337)" fill="#fff"/>
            <path id="Path_283" data-name="Path 283" d="M47.35,72.2a1.435,1.435,0,1,0,1.418-1.435A1.435,1.435,0,0,0,47.35,72.2Z" transform="translate(30.726 45.923)" fill="#d0d2d3"/>
            <path id="Path_284" data-name="Path 284" d="M47.826,71.881a.759.759,0,0,0,.791.693.742.742,0,0,0,.791-.709.824.824,0,0,0-1.649,0Z" transform="translate(30.992 46.099)" fill="#fff"/>
            <path id="Path_285" data-name="Path 285" d="M49.545,72.509s-.775.874-1.517.313a1.006,1.006,0,0,1-.412-1.352,3.084,3.084,0,0,0,.709.956A1.649,1.649,0,0,0,49.545,72.509Z" transform="translate(30.823 46.378)" fill="#fff"/>
            <path id="Path_286" data-name="Path 286" d="M47.41,70.011a1.435,1.435,0,1,0,1.435-1.451A1.468,1.468,0,0,0,47.41,70.011Z" transform="translate(30.765 44.489)" fill="#d0d2d3"/>
            <path id="Path_287" data-name="Path 287" d="M47.9,69.664a.742.742,0,0,0,.791.709.759.759,0,0,0,.775-.709.824.824,0,0,0-1.649,0Z" transform="translate(31.031 44.671)" fill="#fff"/>
            <path id="Path_288" data-name="Path 288" d="M49.6,70.3s-.775.89-1.5.33a.989.989,0,0,1-.412-1.369,3.3,3.3,0,0,0,.693.956A1.649,1.649,0,0,0,49.6,70.3Z" transform="translate(30.864 44.943)" fill="#fff"/>
            <path id="Path_289" data-name="Path 289" d="M61.327,84.52S54.039,99.558,50.18,105.2s-11.163,15.632-19.49,16.159c0,0,5.375-13.917,8.245-18.138S55.11,85.18,61.327,84.52Z" transform="translate(19.915 54.846)" fill="#c8d1ee"/>
            <path id="Path_290" data-name="Path 290" d="M65.789,65.72a16.588,16.588,0,0,1,6.365,6.315c2.539,4.436,3.3,13.455,4.04,15.335s3.018,4.947.676,4.947H74.529a18.8,18.8,0,0,1-7.107-.2,16.686,16.686,0,0,0-4.947-.874s3,3.825-1.517,5.672S43.76,107.965,38.5,118.073s-7.75,15.055-7.75,15.055,6.052-20.249,14.164-28.905S58.105,81.137,58.88,78.664,65.113,68.309,65.789,65.72Z" transform="translate(19.954 42.646)" fill="#fff"/>
            <path id="Path_291" data-name="Path 291" d="M29.966,73.42a60.315,60.315,0,0,0,2.539,5.8c.264,0,.989,4.947,1.946,5.441s2.391,6.6,2.391,6.6l-2.275,9.893L33.05,123.316s-1.517,1.418-3.43-.544c-2.49-2.556-3.2-6.892-4.831-24.42S23.14,80.213,23.14,80.213,27.444,72.2,29.966,73.42Z" transform="translate(15.016 47.561)" fill="#c8d1ee"/>
            <path id="Path_292" data-name="Path 292" d="M29.069,84.817c-.841.676-1.006,2.391,1.863,8.376,1.4,2.968,1.649,7.981,1.83,11.229-.528,5.986-1.286,11.015-1.929,14.444a8.589,8.589,0,0,1,1.253.462,32.978,32.978,0,0,0,3.4-10.817c1.418-10.982-.726-26.2-1.385-26.383-1.2-.379-2.539-6.315-2.787-6.266s-1.979-2.473-1.979-2.473l-3.891.082L23.05,78.518l.33,3.76C25.8,83.333,28.557,83.778,29.069,84.817Z" transform="translate(14.957 47.623)" fill="#b4bcd6"/>
            <path id="Path_293" data-name="Path 293" d="M35.185,85.011c-2,0-3.99-.148-5.986-.181.313,2.259,1.435,13.026,1.237,14.56s-3.792,16.011-3.3,16.489,4.2,6.3,5.755,4.947l3.38-9.58s.627-16.687.264-20.71a22.821,22.821,0,0,0-1.352-5.524Z" transform="translate(17.58 55.047)" fill="#fff"/>
            <path id="Path_294" data-name="Path 294" d="M30.218,88.743a1.3,1.3,0,1,0,.907-1.863A1.5,1.5,0,0,0,30.218,88.743Z" transform="translate(19.562 56.361)" fill="#dae2f2"/>
            <path id="Path_295" data-name="Path 295" d="M30.207,88.6a1.138,1.138,0,1,0,.857-1.5,1.22,1.22,0,0,0-.857,1.5Z" transform="translate(19.573 56.505)" fill="#b7c5db"/>
            <path id="Path_296" data-name="Path 296" d="M31.8,89.353s-.412-2.523-.989-2.061.429,2.177.709,2.127Z" transform="translate(19.878 56.608)" fill="#dae2f2"/>
            <path id="Path_297" data-name="Path 297" d="M10.536,104.861S6.249,99.37,5.193,99.452A15.236,15.236,0,0,1,.329,97.8c-.544-.4-.709-.115-.709-.115a44.343,44.343,0,0,0,4.469,3.43c1.154.594,5.112,3.3,4.947,4.073a5.8,5.8,0,0,0-.148,1.237l2.9.594Z" transform="translate(-0.247 63.328)" fill="#cea48d"/>
            <path id="Path_298" data-name="Path 298" d="M5.31,99.37c2.045,2.424,1.649,3.677,3.43,5.491s4.221,2.605,5.887,4.139,4.485,4.007,6.365,4.4l-5.953,12.911s20.71.528,29.548.264c22.359-.627,30.043-6.925,31.626-6.958,4.864,0,10.833,3.71,10.833,3.71l-1.88,8.64a2.523,2.523,0,0,1-1.781,2.144,29.921,29.921,0,0,1-3,.643c-4.831,1.171-19.54,3.3-43.119,7.272-13.026,2.193-33.951-3.3-39.722-5.936-1.566-3.018-.923-6.068-1.2-8.508C-3.5,120.2-.032,111.951,5.31,99.37Z" transform="translate(-2.375 64.482)" fill="#f0c7ad"/>
            <path id="Path_299" data-name="Path 299" d="M13.441,115.361s-5.029-7.882-5.178-8.772c0,0-9.217-1.435-10.833-2.869a64.425,64.425,0,0,0,9.382,5.672,2.589,2.589,0,0,1,1.369,1.1C9.187,112.08,11.363,115.2,13.441,115.361Z" transform="translate(-1.668 67.305)" fill="#cea48d"/>
            <path id="Path_300" data-name="Path 300" d="M-4.788,103.306a5.046,5.046,0,0,1,3.5-.3c2.539.4,15.269,3.644,15.269,3.644s-4.122-5.491-5.738-5.854-6-1.55-6.019-3.792c0,0,5.029-.33,8.063,1.83s5.722,3.3,7.206,4.353,4.073,3.1,4.073,5.474,3.43,11.064,3.628,13.6c.28,3.677,2.127,5.507,3.4,5.887-4.106-.181-8.673-.346-12.779-.363a71.956,71.956,0,0,1-5.227-8.871S.192,117.47-.155,115.392c0,0-.528-1.748.247-1.946,0,0,8.69,1.781,10.24.313C10.332,113.826-5.909,107.428-4.788,103.306Z" transform="translate(-3.143 62.937)" fill="#f0c7ad"/>
            <path id="Path_301" data-name="Path 301" d="M-1,102.821a60.134,60.134,0,0,1,7.272,3c.445.561,4.7,2.8,4.848,1.649a14.312,14.312,0,0,0-3.3-2.737C6.7,104.288-.192,101.914-1,102.821Z" transform="translate(-0.649 66.588)" fill="#cea48d"/>
            <path id="Path_302" data-name="Path 302" d="M18.835,120.985h-7.75A93.523,93.523,0,0,1,5.71,113L14.2,106.87s3.067.742,3.463,8.838a10.965,10.965,0,0,0,1.171,5.277Z" transform="translate(3.705 69.349)" fill="#cea48d"/>
            <path id="Path_303" data-name="Path 303" d="M13.918,120.215s-4.947-7.915-5.145-8.756c0,0-9.217-1.451-10.833-2.869,0,0,6.365,4.32,8.343,4.3C6.283,112.894,11.115,120,13.918,120.215Z" transform="translate(-1.337 70.465)" fill="#cea48d"/>
            <path id="Path_304" data-name="Path 304" d="M34.01,139.693a54.414,54.414,0,0,1,11.1-2.094,38.236,38.236,0,0,0,5.062-1.484c18.253-.923,19.952-1.418,19.952-1.418,0-2.523,3.3-22.491,7.733-31.577.181.1-1.072.528-.89.544,8.1.363,7.981.445,15.417-.791.1,0,3.644-6.447,3.215-5.244-2.177,12.466-7.387,41.651-11.542,46.78-2.078,2.49-4.089,9.893-4.089,9.893-2.968,3.5-5.309-.33-18.138-1.979-7.156-.923-31.626-2.111-43.647-8.64C19.07,143.4,33.07,139.94,34.01,139.693Z" transform="translate(11.797 63.255)" fill="#f0c7ad"/>
            <path id="Path_305" data-name="Path 305" d="M69.2,120.05s-.89,5.1.478,6.266c0,0-10.57.264-13.867-.478s-13.373-.709-18.253,1.286c-3.463,1.418-17.957,1.764-17.957,1.764s32.632-7.9,39.821-7.057C60.971,122.012,68.54,121.287,69.2,120.05Z" transform="translate(12.719 77.902)" fill="#cea48d"/>
            <path id="Path_306" data-name="Path 306" d="M57.1,132.2a24.931,24.931,0,0,0-10.9-5.046,25.244,25.244,0,0,0-6.991-1.171,114.9,114.9,0,0,0,8.063-13.026c2.259-4.221,4.007-8.723,6.414-12.861.758-1.27,1.649-2.49,2.44-3.694l2.16-2.77a35.9,35.9,0,0,0,3-2.919,43.748,43.748,0,0,0,2.391,5.936c5.359,10.833,4.584,19.49,2.407,25.492a16.786,16.786,0,0,1-5.474,7.387C59.327,130.531,58.354,131.158,57.1,132.2Z" transform="translate(25.444 58.863)" fill="#272b44"/>
            <path id="Path_307" data-name="Path 307" d="M33.658,96.73a15.962,15.962,0,0,1,1.748,6.48c2.49-2.259,3.677-2.985,6.695.66-.989-6.728-4.848-16.9-4.716-18.649.528-5.079,1.022-18.567,2.045-21.04,0,0-1.764-.1-6.4,2.061s-8.838,9.316-10.487,10.471-5.277,2.21-3.4,3.628l1.863,1.4A18.88,18.88,0,0,0,26.93,85.7c2.7.808,5.821,4.782,5.821,4.782S29.634,91.255,33.658,96.73Z" transform="translate(12.083 41.647)" fill="#fff"/>
            <path id="Path_308" data-name="Path 308" d="M46.167,48.589l-.115.808h0l-.132,1.286a20.43,20.43,0,0,0,3.3-1.517,6.6,6.6,0,0,0,.758-1.006l.181-.28h0c-.429.676-1.649.693-3.3.775Z" transform="translate(29.798 31.07)"/>
            <path id="Path_309" data-name="Path 309" d="M45.666,57.036a9.893,9.893,0,0,0,4.947-.61,41.735,41.735,0,0,0,4.633-3.957,12.878,12.878,0,0,0,3.924-4.551h0l-.181.28a6.6,6.6,0,0,1-.758,1.006,20.431,20.431,0,0,1-3.3,1.517c-1.022.445-2.028.857-2.688,1.088a38.634,38.634,0,0,1-6.6,1.286h-.165a39.344,39.344,0,0,1-6.6-1.352c-.66-.231-1.649-.643-2.671-1.1a22.294,22.294,0,0,1-3.3-1.533,5.854,5.854,0,0,1-.758-1.022l-.181-.28V47.72a12.9,12.9,0,0,0,3.891,4.6A42.13,42.13,0,0,0,40.7,56.426a9.893,9.893,0,0,0,4.963.61Z" transform="translate(20.752 30.966)" fill="#c91e4f"/>
            <path id="Path_310" data-name="Path 310" d="M36.1,49.585a40.152,40.152,0,0,0,5.079-.775c1.418-.231,3.182.693,4.419.791s3.018-.989,4.436-.758a39.389,39.389,0,0,0,5.079.824h.726c1.649-.082,2.836-.1,3.3-.775h-.165a5.54,5.54,0,0,1-2.919-.33c-3.825-1.055-6-2.7-7.272-2.275s-2.061,1.171-3.166,1.418c-1.1-.264-2.028-1.1-3.149-1.435s-3.463,1.237-7.255,2.259a5.573,5.573,0,0,1-2.919.3H32.13c.429.693,1.649.726,3.3.824a5.571,5.571,0,0,0,.676-.066Z" transform="translate(20.849 29.991)" fill="#c91e4f"/>
            <path id="Path_311" data-name="Path 311" d="M32.338,48.143a5.854,5.854,0,0,0,.758,1.022,22.3,22.3,0,0,0,3.3,1.533l-.132-1.286h0L36.18,48.6a5.573,5.573,0,0,1-.742,0c-1.649-.1-2.82-.132-3.3-.824v.082Z" transform="translate(20.856 31.005)"/>
            <path id="Path_312" data-name="Path 312" d="M53.443,49.468h0l.1-.808a39.389,39.389,0,0,1-5.079-.824c-1.418-.231-3.182.66-4.436.758s-3-1.022-4.419-.791a40.15,40.15,0,0,1-5.079.775l.082.808h0l.132,1.286c1.022.462,2.012.874,2.671,1.1a39.342,39.342,0,0,0,6.6,1.352h.165a38.633,38.633,0,0,0,6.6-1.286c.66-.231,1.649-.643,2.688-1.088Z" transform="translate(22.407 30.999)" fill="#fff"/>
            <path id="_30_Business_Woman" data-name="30 Business Woman" d="M40.1,32.66s3.116,12.713-3.479,15.335c0,0,5.408,1.072,6.744,3.5,0,0-2.16-3.3-4.386-3.891C38.978,47.6,43.216,43.708,40.1,32.66Z" transform="translate(23.763 21.193)" fill="#c18c72"/>
            <g id="Brown" transform="translate(41.091 54.038)">
              <g id="Group_56" data-name="Group 56" transform="translate(32.824 0.884)" clip-path="url(#clip-path-2)">
                <path id="Path_313" data-name="Path 313" d="M44.9,39.748a12.284,12.284,0,0,1,6.3-7.717c3.858-1.8,8.657.511,10.24,1.566s4.452-.775,4.452-.775A1.748,1.748,0,0,1,65,34.356v-.115a1.649,1.649,0,0,1-1.3.412c-.478,0-1.385-.214-1.533.214,0,0-.148.511,0,.511a22.012,22.012,0,0,1-1.154,2.952c-1.187,1.946-7.057,3.858-9.217,2.556-1.649-.94-5.227-.874-6.6-.808H44.72a3.449,3.449,0,0,1,.181-.33Z" transform="translate(-44.896 -34.568)" fill="#453530"/>
                <path id="Path_314" data-name="Path 314" d="M46.915,36.251a2.836,2.836,0,0,1,.379-.495,8.245,8.245,0,0,1,1.286-1.138c.627-.4,1.566-.874,2.325-1.27a24.222,24.222,0,0,1,6.282.247,35.438,35.438,0,0,0,3.842.561,2.638,2.638,0,0,0-.643,1.3,4.617,4.617,0,0,1-4.007,3.825,7.915,7.915,0,0,1-2.243.1L51.5,38.807a9.6,9.6,0,0,1-1.4-.313,13.191,13.191,0,0,0-5.837.495A12.531,12.531,0,0,0,46.915,36.251Z" transform="translate(-45.194 -33.346)" fill="#efe3e7"/>
                <path id="Path_315" data-name="Path 315" d="M47.229,37.05a4.271,4.271,0,0,1-.379-1.781,8.243,8.243,0,0,0,0-.956c.2-.2,4.551-1.649,6.975-.973l1.649.313a4.271,4.271,0,0,1-2.341,5.557,4.106,4.106,0,0,1-.726.231,29.68,29.68,0,0,1-4.023-.89A4.287,4.287,0,0,1,47.229,37.05Z" transform="translate(-43.513 -33.403)" fill="#42210b"/>
                <path id="Path_316" data-name="Path 316" d="M59.842,34.819A35.436,35.436,0,0,1,56,34.258l-1.649-.313a3.3,3.3,0,0,1,.429.643,3.067,3.067,0,0,1-1.649,4.106,3.3,3.3,0,0,1-4.254-1.55,2.028,2.028,0,0,1-.214-.676,8.245,8.245,0,0,1-.247-1.8c-.313.181-.791.445-1.039.61a8.246,8.246,0,0,0-1.286,1.138h0c4.155-6.728,10.9-3.133,15.1-2.688a6.761,6.761,0,0,0,3.825-1.5,3.3,3.3,0,0,1-.89,1.533,4.32,4.32,0,0,1-2.82,1.022A10.653,10.653,0,0,1,59.842,34.819Z" transform="translate(-44.007 -34.008)"/>
                <path id="Path_317" data-name="Path 317" d="M47.076,35.844a2.226,2.226,0,0,1-.181-.775,4.105,4.105,0,0,1,0-.594,9.1,9.1,0,0,1,1.83-1.006,2.721,2.721,0,0,0,2.226,1.319.759.759,0,0,1-.775.989,12.354,12.354,0,0,1-2.012-.115C47.5,35.548,47.191,35.647,47.076,35.844Z" transform="translate(-43.492 -33.203)" fill="#baa382"/>
              </g>
              <path id="Path_318" data-name="Path 318" d="M44.91,38.375A13.538,13.538,0,0,1,48.488,34.7a10.075,10.075,0,0,1,5.046-1.913,7.3,7.3,0,0,1,2.8.379,9.25,9.25,0,0,1,2.374,1.27c1.418.923,2.572,2.078,4.386,1.55a3.545,3.545,0,0,1-1.2.577,3.3,3.3,0,0,1-1.435,0,12.449,12.449,0,0,1-2.44-1.022,14.559,14.559,0,0,0-2.16-.989,7.338,7.338,0,0,0-2.243-.28A11.543,11.543,0,0,0,49.1,35.654a29.069,29.069,0,0,0-4.188,2.721Z" transform="translate(-11.948 -32.772)"/>
              <path id="Path_319" data-name="Path 319" d="M52.412,33.15a13.982,13.982,0,0,0,2.853.89,6.6,6.6,0,0,0,1.5.082,1.946,1.946,0,0,0,1.336-.61,1.962,1.962,0,0,1-1.253.956,6.068,6.068,0,0,1-1.649.3,13.933,13.933,0,0,1-3.2-.214Z" transform="translate(-7.348 -32.527)"/>
              <path id="Path_320" data-name="Path 320" d="M49.105,35.4a24.618,24.618,0,0,1,7.107-.231,12.861,12.861,0,0,1,2.655.693,3.463,3.463,0,0,1,2,1.649,3.479,3.479,0,0,0-2.127-1.369c-.841-.2-1.962-.3-2.886-.462-2.49-.1-3.133,0-7.8.1Z" transform="translate(-9.911 -31.316)"/>
              <g id="Group_57" data-name="Group 57" transform="translate(0 0.884)" clip-path="url(#clip-path-3)">
                <path id="Path_321" data-name="Path 321" d="M44.5,39.748a12.284,12.284,0,0,0-6.3-7.717c-3.875-1.8-8.657.511-10.24,1.566s-4.469-.775-4.469-.775a1.8,1.8,0,0,0,.907,1.533l-.066-.115a1.649,1.649,0,0,0,1.3.412c.478,0,1.385-.214,1.533.214-.082,0,.148.511,0,.511a22.014,22.014,0,0,0,1.154,2.952c1.187,1.946,7.057,3.858,9.217,2.556,1.649-.94,5.211-.874,6.6-.808h.478a3.447,3.447,0,0,0-.115-.33Z" transform="translate(-25.848 -34.568)" fill="#453530"/>
                <path id="Path_322" data-name="Path 322" d="M40.751,36.251a2.836,2.836,0,0,0-.379-.495,8.245,8.245,0,0,0-1.286-1.138c-.627-.4-1.649-.874-2.325-1.27a24.222,24.222,0,0,0-6.282.247,35.139,35.139,0,0,1-3.858.561,2.391,2.391,0,0,1,.643,1.3,4.666,4.666,0,0,0,4.023,3.825,7.915,7.915,0,0,0,2.243.1l2.638-.577a8.982,8.982,0,0,0,1.385-.313,13.191,13.191,0,0,1,5.854.495,12.532,12.532,0,0,1-2.655-2.737Z" transform="translate(-23.817 -33.346)" fill="#efe3e7"/>
                <path id="Path_323" data-name="Path 323" d="M37.368,37.05a4.271,4.271,0,0,0,.379-1.781,8.245,8.245,0,0,1,0-.956c-.2-.2-4.567-1.649-6.975-.973l-1.649.313a4.271,4.271,0,0,0,2.341,5.557,3.71,3.71,0,0,0,.726.231,28.84,28.84,0,0,0,4.007-.89A4.155,4.155,0,0,0,37.368,37.05Z" transform="translate(-22.396 -33.403)" fill="#42210b"/>
                <path id="Path_324" data-name="Path 324" d="M28.664,34.819a35.137,35.137,0,0,0,3.924-.561l1.649-.313a3.3,3.3,0,0,0-.429.643,3.067,3.067,0,0,0,1.649,4.106,3.149,3.149,0,0,0,4.386-2.226,8.244,8.244,0,0,0,.247-1.8c.313.181.791.445,1.039.61a8.244,8.244,0,0,1,1.286,1.138h0c-4.155-6.728-10.9-3.133-15.1-2.688a6.826,6.826,0,0,1-3.842-1.5,3.43,3.43,0,0,0,.907,1.533,4.32,4.32,0,0,0,2.82,1.022,10.406,10.406,0,0,0,1.468.033Z" transform="translate(-25.861 -34.008)"/>
                <path id="Path_325" data-name="Path 325" d="M35.646,35.844a2.226,2.226,0,0,0,.181-.775,4.108,4.108,0,0,0,0-.594A9.1,9.1,0,0,0,33.98,33.47a2.721,2.721,0,0,1-2.226,1.319.759.759,0,0,0,.775.989,12.354,12.354,0,0,0,2.012-.115C35.2,35.548,35.481,35.647,35.646,35.844Z" transform="translate(-20.509 -33.203)" fill="#baa382"/>
              </g>
              <path id="Path_326" data-name="Path 326" d="M43.294,38.375A13.538,13.538,0,0,0,39.749,34.7a10.075,10.075,0,0,0-5.062-1.913,7.4,7.4,0,0,0-2.8.379,9.432,9.432,0,0,0-2.358,1.27c-1.435.923-2.572,2.078-4.386,1.55a3.545,3.545,0,0,0,1.2.577,3.166,3.166,0,0,0,1.418,0,12.2,12.2,0,0,0,2.457-1.022,14.561,14.561,0,0,1,2.16-.989,7.288,7.288,0,0,1,2.243-.28,11.543,11.543,0,0,1,4.518,1.385A29.07,29.07,0,0,1,43.294,38.375Z" transform="translate(-24.777 -32.772)"/>
              <path id="Path_327" data-name="Path 327" d="M31.049,33.15a13.982,13.982,0,0,1-2.853.89,6.6,6.6,0,0,1-1.5.082,1.946,1.946,0,0,1-1.336-.61,1.962,1.962,0,0,0,1.253.956,5.952,5.952,0,0,0,1.649.3,13.933,13.933,0,0,0,3.3-.214Z" transform="translate(-24.634 -32.527)"/>
              <path id="Path_328" data-name="Path 328" d="M36.948,35.4a24.486,24.486,0,0,0-7.008-.231,12.861,12.861,0,0,0-2.655.693,3.463,3.463,0,0,0-2,1.649,3.479,3.479,0,0,1,2.127-1.369c.841-.2,1.946-.3,2.886-.462,2.49-.1,3.133,0,7.8.1Z" transform="translate(-24.68 -31.314)"/>
            </g>
            <path id="Path_329" data-name="Path 329" d="M44.75,30.746c-4.188-1.27-3.825-1.171-6.991-2.16S26.612,26.228,25.59,32.148A10.438,10.438,0,0,1,30.537,29.3C36.621,28.471,40.974,33.352,44.75,30.746Z" transform="translate(16.606 17.979)" fill="#42261e"/>
            <path id="Path_330" data-name="Path 330" d="M58.428,29.858a10.52,10.52,0,0,1,4.4,3.562c-.1-6-8.245-5.87-11.542-5.375s-7.239,1.039-7.239,1.039C47.43,32.232,52.492,28.11,58.428,29.858Z" transform="translate(28.584 18.059)" fill="#42261e"/>
            <g id="_30_Business_Woman-2" data-name="30 Business Woman" transform="translate(22.145 9.541)">
              <path id="Path_331" data-name="Path 331" d="M47.3,16.288a49.863,49.863,0,0,1,8.245,2.177,6.051,6.051,0,0,1,1.649.907C73.217,25.637,73.81,38.219,73.365,47.123h0a88.4,88.4,0,0,1,0,14.3,18.879,18.879,0,0,1-.66,2.952h0v.1h.132a.61.61,0,0,1-.2.231c-.214.709-.462,1.451-.775,2.275h0A59.46,59.46,0,0,1,53.99,90.555a8.244,8.244,0,0,1-.824.379,10.735,10.735,0,0,1-1.649.643c0,.165,0,1.006,0,1.072A32.566,32.566,0,0,0,55.491,106.9a19.936,19.936,0,0,0,1.171,1.715c2.886,2,11.542,3.677,16.736,4.386a11.08,11.08,0,0,1,2.589-1.138c2.391-3.99,2.589-10.7,3.628-19.869,1.253-10.965,8.245-17.907,8.245-25.393s7.5-2.935,6.249-10.157S85.6,29.463,78.345,22.5,48.8,4.119,42.036,6.741c-3.43,1.352-8.393,9.184-12.466,16.489a31.758,31.758,0,0,1,9.5-4.947,51.116,51.116,0,0,1,8.228-2Z" transform="translate(-2.957 -5.415)" fill="#321908"/>
              <path id="Path_332" data-name="Path 332" d="M34.09,66.1v.495h0A2.473,2.473,0,0,0,34.09,66.1Z" transform="translate(-0.024 33.352)" fill="#321908"/>
              <path id="Path_333" data-name="Path 333" d="M17.514,74.723c.726-1.533,2.308-2.9,2.8,4.535.758,11.229,5.755,13.092,3.3,16.835a25.574,25.574,0,0,1-3.3,3.661c.791-.165,1.649-.33,2.374-.462l.824-.132,3.43-.495,1.1-.165c.676-.1.264,1.138.33,1.83,1.088,0,2.358-.148,3.71-.264,5.128-.857,12.136-2.49,14.675-4.287h0A4.3,4.3,0,0,0,47.343,95a31.511,31.511,0,0,0,4.6-15.417c0-.33,0-.643,0-.956a11.856,11.856,0,0,1-2.16-.89A59.9,59.9,0,0,1,32.107,54.656a30.769,30.769,0,0,1-1.253-3.71,18.136,18.136,0,0,1-.495-2.308,90.26,90.26,0,0,1,.148-15.17,41.635,41.635,0,0,1,.214-7.387c-3.215,2.836-7.057,4.485-10.19,12.317C16.8,47.73,14.315,55.744,14.826,60.015,15.238,63.527,17.316,71.507,17.514,74.723Z" transform="translate(-12.567 7.383)" fill="#321908"/>
              <path id="Path_334" data-name="Path 334" d="M16.382,56.916c.181-.148.231-.627.2-1.336C16.2,56.355,16.052,57.179,16.382,56.916Z" transform="translate(-11.633 26.526)" fill="#321908"/>
              <path id="Path_335" data-name="Path 335" d="M41.555,9.556a9.547,9.547,0,0,0-11.542,2.358c-5.458,5.755-6.942,12.3-5.969,17.264s4.765,20.941,1.006,23.81S22.807,71.308,26.8,74.177c0,0,0-14.115,1.5-21.188S30.8,40.7,31.6,36.78s2.012-11.262,7.008-12.3S41.555,9.556,41.555,9.556Z" transform="translate(-7.291 -3.993)" fill="#321908"/>
              <path id="Path_336" data-name="Path 336" d="M34.888,11.046s-.247,12.3.989,12.565,18.27-2.622,23.266,3.661c0,0,1.748-8.113-4.007-10.982s-13.191-4.947-15.252-4.452,4.007-2.869,7.5-2.094S44.88,4.8,39.142,6.611,34.888,11.046,34.888,11.046Z" transform="translate(0.382 -5.483)" fill="#321908"/>
              <path id="Path_337" data-name="Path 337" d="M45.615,22.161s2.506-13.6-7.75-12.829S29.357,24.766,29.11,28.18s-.247,20.661-5.244,23.085-3.3,15.434-6,14.642S11.6,76.641,17.6,78.207a8.327,8.327,0,0,0,5.26-7.057c.247-5.244,4.254-15.17,6.249-17.017s4.469-6.859,2.82-15.764S30.116,12.746,35.87,12.993,44.609,11.954,45.615,22.161Z" transform="translate(-12.852 -3.506)" fill="#42210b"/>
              <path id="Path_338" data-name="Path 338" d="M37.85,10.175S54.6,11.23,56.1,16.193,58.61,27.257,57.109,32.2s.775,26.63,10.256,26.63,15.994,6.6,19,0c0,0-9,1.055-10.5-2.094s-9.992-5.227-10.24-11.246-.2-27.059-11.757-33.753C44.347,6.25,37.85,10.175,37.85,10.175Z" transform="translate(2.416 -3.82)" fill="#42210b"/>
              <path id="Path_339" data-name="Path 339" d="M53.681,19.71s-1.072,19.507,9.893,21.337c8.1,1.336,16.753,5.755,16.753,8.888,0,0-.742-8.624-7.5-11.542A37.117,37.117,0,0,1,53.681,19.71Z" transform="translate(12.671 3.249)" fill="#42210b"/>
              <path id="Path_340" data-name="Path 340" d="M53.32,15.83s4.947,11.773,8.508,13.6S76.075,37.81,76.075,39.64c0,0,3.3-3.149-4.947-8.9S58.316,24.718,53.32,15.83Z" transform="translate(12.455 0.731)" fill="#42210b"/>
              <path id="Path_341" data-name="Path 341" d="M58.21,50.1a38.716,38.716,0,0,0,1.764,14.675c2.49,7.338,1.5,14.659-1.764,17.017,0,0,6.761-4.188,6.761-7.321a20.694,20.694,0,0,0-1.5-9.168C61.722,59.829,57.93,54.288,58.21,50.1Z" transform="translate(15.562 22.97)" fill="#42210b"/>
              <path id="Path_342" data-name="Path 342" d="M58.33,42.17V56.037s1.237-6.019,3.5-2.622,6,10.207,6,10.207-6-12.565-2-14.395S58.33,42.17,58.33,42.17Z" transform="translate(15.706 17.824)" fill="#321908"/>
              <path id="Path_343" data-name="Path 343" d="M47.41,9.64s9.5,4.947,11.542,9.415S74.2,35.544,76.216,34.225c0,0-14.263-10.982-15.005-14.115S53.907,9.9,47.41,9.64Z" transform="translate(8.62 -3.285)" fill="#321908"/>
              <path id="Path_344" data-name="Path 344" d="M39.67,6.139s7.255-2.094,16.258,3.924,15.5,13.6,19.259,14.131,6.991,11.773,6.991,11.773-13.191-7.321-15.5-12.037S47.931,10.574,46.167,10.574,44.666,6.65,39.67,6.139Z" transform="translate(3.597 -5.786)" fill="#42210b"/>
              <path id="Path_345" data-name="Path 345" d="M29.41,19.178c-.148-1.039-3,15.7-7.5,16.225S15.658,50.244,14.9,54.5,12.41,66.535,14.4,66.271c0,0,2-6.019,4.007-6.81s1.5-11.246,4.238-13.076S32.477,39.839,29.41,19.178Z" transform="translate(-13.399 2.874)" fill="#42210b"/>
              <path id="Path_346" data-name="Path 346" d="M51.227,15.67s2.012,9.679-.247,15.961,2.506,17,2.506,17-2.506-10.471-.247-14.642c0,0,1.5,11.773,6.5,13.867a37.76,37.76,0,0,1-2.754-20.1C58.729,16.973,51.227,15.67,51.227,15.67Z" transform="translate(10.542 0.628)" fill="#42210b"/>
              <path id="Path_347" data-name="Path 347" d="M55.44,41.153S65.2,52.4,74.452,51.046c0,0-9.25-5.491-9.5-8.376s10.256,2.919,11.2-1.253c0,0-13.5-1.3-16.258-4.947,0,0-1.5,4.188,1.764,5.244S62.7,46.38,55.44,41.153Z" transform="translate(13.831 14.125)" fill="#42210b"/>
              <path id="Path_348" data-name="Path 348" d="M69.428,41.69s-9,3.4,5.491,23.283c0,0-4.947-10.718-4.749-14.84A33.176,33.176,0,0,0,69.428,41.69Z" transform="translate(21.114 17.512)" fill="#42210b"/>
              <path id="Path_349" data-name="Path 349" d="M64.787,45.972s-10.256,4.436,10.5,27.471c0,0-6.6-17.017-5.755-22.771s-.247-5.491-.247-5.491S64.787,46.747,64.787,45.972Z" transform="translate(18.252 19.776)" fill="#42210b"/>
              <path id="Path_350" data-name="Path 350" d="M62.356,50.89s-1.253,4.188,3.3,11.773,5.507,15.186-12,22.771c0,0,17.511-1.83,18.27-11.542S61.862,58.475,62.356,50.89Z" transform="translate(12.669 23.482)" fill="#42210b"/>
              <path id="Path_351" data-name="Path 351" d="M60.524,54.22a63.318,63.318,0,0,0-.495,12.565c.495,5.755-1.748,13.6-6.249,13.6,0,0,9.992.791,10.24-9.151a37.348,37.348,0,0,0-3.5-17.017Z" transform="translate(12.753 25.643)" fill="#42210b"/>
              <path id="Path_352" data-name="Path 352" d="M24.692,45s-3.3,8.9-6.761,11-4.5,12.812-4.5,12.812,4.254-8.888,6.249-7.585,1.006,9.151-2,11.542-4.5,16.225,2.506,16.225c0,0-3-3.4-.511-6.6s6.6-4.947,6-14.395S22.944,53.673,24.692,45Z" transform="translate(-13.43 19.66)" fill="#764c24"/>
              <path id="Path_353" data-name="Path 353" d="M26.183,38.72s-5.491,10.355-4.5,18.451,3,19.77,1.979,23.233S21.154,92.178,16.9,93.233a24.19,24.19,0,0,0,12.251-2.127c6.249-2.952,8.508-.264,8.508-4.815S31.41,68.384,31.41,64.377s-3.76-10.421-3.76-13.356S25.441,40.336,26.183,38.72Z" transform="translate(-11.178 15.585)" fill="#42210b"/>
              <path id="Path_354" data-name="Path 354" d="M58.524,40.1a21.815,21.815,0,0,0-4.287,17.973c2.144,10.767,8.574,21.073,4.287,23.992,0,0,5.573-4.271,2.787-13.669S54.237,49.96,58.524,40.1Z" transform="translate(12.759 16.48)" fill="#42210b"/>
              <path id="Path_355" data-name="Path 355" d="M56.511,41s-3.43,8.673,2.787,23.909S60.584,87.1,60.584,87.1a147.745,147.745,0,0,0,.643-23.827C60.584,49.146,59.71,47.282,56.511,41Z" transform="translate(13.913 17.064)" fill="#42210b"/>
              <path id="Path_356" data-name="Path 356" d="M54.229,21.61s-3.4,20.183,9.217,25.558,15.632-.181,15.632-.181a25.69,25.69,0,0,0-11.13-6.051c-6.6-1.566-12-5.375-14.148-18.814" transform="translate(12.766 4.482)" fill="#42210b"/>
              <path id="Path_357" data-name="Path 357" d="M35.35,20.845s9-10.091,14.362-7.4C49.712,13.442,39.423,7.407,35.35,20.845Z" transform="translate(0.794 -1.695)" fill="#764c24"/>
              <path id="Path_358" data-name="Path 358" d="M24,51.1s10.718,23.349,4.287,28.163S19.5,85.447,19.5,85.447c7.75-2.919,5.705-2.094,11.361-4.353,3.43-1.385,3.858-.231,1.649-9.613S29.36,52.93,24,51.1Z" transform="translate(-9.491 23.618)" fill="#764c24"/>
              <path id="Path_359" data-name="Path 359" d="M27.714,23.79s.857,15.022-3.858,16.357-9,11.213-8.36,16.967c0,0,4.073-11.658,8.36-12.317S31.572,31.177,27.714,23.79Z" transform="translate(-12.131 5.897)" fill="#764c24"/>
              <path id="Path_360" data-name="Path 360" d="M50,13.73s5.573,9.893,2.144,16.357S56.48,55.86,70.2,52.1c0,0-12.861-3.3-12.861-14.84S56.051,20.458,50,13.73Z" transform="translate(10.301 -0.631)" fill="#764c24"/>
              <path id="Path_361" data-name="Path 361" d="M59.012,44.18s-.643,9.893,4.073,17.033,10.289,15.648,5.359,21.733c0,0,6.2-3.578,3.858-12.548s-7.008-12-9.432-15.681A39.771,39.771,0,0,1,59.012,44.18Z" transform="translate(16.129 19.128)" fill="#764c24"/>
              <path id="Path_362" data-name="Path 362" d="M55.75,39.42s19.045,16.934,22.92,7.173a4.947,4.947,0,0,0-2.721-7.09S72.47,45.471,55.75,39.42Z" transform="translate(14.032 16.039)" fill="#764c24"/>
              <path id="Path_363" data-name="Path 363" d="M58.352,47.3s.214,9.893,4.5,14.346,6,15.022,1.649,17.94c0,0,7.931-4.947,4.716-11.889S58.137,54.7,58.352,47.3Z" transform="translate(15.717 21.153)" fill="#42210b"/>
            </g>
          </g>
        </g>
      </g>
      <text id="TING_YANG" data-name="TING YANG" transform="translate(250 59)" fill="#fff" font-size="24" font-family="Montserrat-Medium, Montserrat" font-weight="500" letter-spacing="0.02em"><tspan x="0" y="23">TING YANG</tspan></text>
      <text id="SALES_EXTRAORDINAIRE" data-name="SALES EXTRAORDINAIRE" transform="translate(250 94)" fill="#fff" font-size="14" font-family="Montserrat-Medium, Montserrat" font-weight="500" letter-spacing="0.02em"><tspan x="0" y="14">SALES EXTRAORDINAIRE</tspan></text>
      <g id="Group_59" data-name="Group 59" transform="translate(-20 4)">
        <path id="phone-square-alt-solid" d="M17.857,32H2.143A2.143,2.143,0,0,0,0,34.143V49.857A2.143,2.143,0,0,0,2.143,52H17.857A2.143,2.143,0,0,0,20,49.857V34.143A2.143,2.143,0,0,0,17.857,32Zm-.732,13.722-.67,2.9a.67.67,0,0,1-.652.519A12.947,12.947,0,0,1,2.857,36.2a.7.7,0,0,1,.519-.652l2.9-.67a.814.814,0,0,1,.15-.017.726.726,0,0,1,.616.406l1.339,3.125a.8.8,0,0,1,.054.264.759.759,0,0,1-.246.518L6.5,40.554A10.353,10.353,0,0,0,11.446,45.5l1.384-1.692a.759.759,0,0,1,.518-.246.8.8,0,0,1,.264.054l3.125,1.339a.725.725,0,0,1,.406.616A.777.777,0,0,1,17.125,45.722Z" transform="translate(270 118)" fill="#fff"/>
        <text id="_555_555_5555" data-name="555 555 5555" transform="translate(304 151)" fill="#fff" font-size="14" font-family="Montserrat-Medium, Montserrat" font-weight="500" letter-spacing="0.02em"><tspan x="0" y="14">555 555 5555</tspan></text>
      </g>
      <g id="Group_60" data-name="Group 60" transform="translate(-20 -3)">
        <path id="envelope-square-solid" d="M17.857,32H2.143A2.143,2.143,0,0,0,0,34.143V49.857A2.143,2.143,0,0,0,2.143,52H17.857A2.143,2.143,0,0,0,20,49.857V34.143A2.143,2.143,0,0,0,17.857,32ZM7.952,42.273C3.9,39.334,3.944,39.327,2.857,38.481V37.357a1.071,1.071,0,0,1,1.071-1.071H16.071a1.071,1.071,0,0,1,1.071,1.071v1.124c-1.088.847-1.046.854-5.095,3.792-.469.342-1.4,1.166-2.048,1.156C9.353,43.438,8.421,42.615,7.952,42.273Zm9.191-1.979v6.349a1.071,1.071,0,0,1-1.071,1.071H3.929a1.071,1.071,0,0,1-1.071-1.071V40.294c.623.482,1.488,1.127,4.255,3.135.632.462,1.7,1.435,2.888,1.429s2.278-.984,2.889-1.43C15.655,41.42,16.52,40.775,17.143,40.294Z" transform="translate(270 159)" fill="#fff"/>
        <text id="tyang_zcorp.com" data-name="tyang@zcorp.com" transform="translate(304 192)" fill="#fff" font-size="14" font-family="Montserrat-Medium, Montserrat" font-weight="500" letter-spacing="0.02em"><tspan x="0" y="14">tyang@zcorp.com</tspan></text>
      </g>
      <g id="Group_61" data-name="Group 61" transform="translate(-20 -10)">
        <path id="linkedin-brands" d="M18.571,32H1.424A1.435,1.435,0,0,0,0,33.442V50.558A1.435,1.435,0,0,0,1.424,52H18.571A1.439,1.439,0,0,0,20,50.558V33.442A1.439,1.439,0,0,0,18.571,32ZM6.045,49.143H3.08V39.6H6.049v9.545ZM4.563,38.295a1.719,1.719,0,1,1,1.719-1.719A1.719,1.719,0,0,1,4.563,38.295ZM17.156,49.143H14.192V44.5c0-1.107-.022-2.531-1.54-2.531-1.545,0-1.781,1.205-1.781,2.451v4.723H7.906V39.6H10.75v1.3h.04a3.122,3.122,0,0,1,2.808-1.54c3,0,3.558,1.978,3.558,4.549Z" transform="translate(270 200)" fill="#fff"/>
        <text id="linkedin.com_in_tyang" data-name="linkedin.com/in/tyang" transform="translate(304 233)" fill="#fff" font-size="14" font-family="Montserrat-Medium, Montserrat" font-weight="500" letter-spacing="0.02em"><tspan x="0" y="14">linkedin.com/in/tyang</tspan></text>
      </g>
    </g>
  </g>
</svg>
