<svg xmlns="http://www.w3.org/2000/svg" width="800" height="" viewBox="0 0 800 500" style="max-width:100%;">
  <g id="Group_2807" data-name="Group 2807" transform="translate(-4076 19777)">
    <g id="Rectangle_2465" data-name="Rectangle 2465" transform="translate(4076 -19777)" fill="#f9fafc" stroke="#707070" stroke-width="1">
      <rect width="800" height="500" stroke="none"/>
      <rect x="0.5" y="0.5" width="799" height="499" fill="none"/>
    </g>
    <rect id="Rectangle_2468" data-name="Rectangle 2468" width="250" height="28" rx="14" transform="translate(4161 -19722)" fill="#aab0bb"/>
    <rect id="Rectangle_2469" data-name="Rectangle 2469" width="250" height="28" rx="14" transform="translate(4161 -19612)" fill="#aab0bb"/>
    <rect id="Rectangle_2470" data-name="Rectangle 2470" width="250" height="28" rx="14" transform="translate(4161 -19502)" fill="#aab0bb"/>
    <rect id="Rectangle_2471" data-name="Rectangle 2471" width="500" height="26" rx="13" transform="translate(4161 -19686)" fill="#e2e6eb"/>
    <rect id="Rectangle_2472" data-name="Rectangle 2472" width="500" height="26" rx="13" transform="translate(4161 -19576)" fill="#e2e6eb"/>
    <rect id="Rectangle_2473" data-name="Rectangle 2473" width="500" height="26" rx="13" transform="translate(4161 -19466)" fill="#e2e6eb"/>
    <rect id="bg" width="104" height="52" rx="26" transform="translate(4109 -19364)" fill="rgba(149,153,179,0.2)"/>
    <text id="Back" transform="translate(4161 -19331)" fill="#29339b" font-size="18" font-family="SourceSansPro-SemiBold, Source Sans Pro" font-weight="600" letter-spacing="0.004em"><tspan x="-18.981" y="0">Back</tspan></text>
    <rect id="bg-2" data-name="bg" width="104" height="52" rx="26" transform="translate(4736 -19364)" fill="#29339b"/>
    <text id="Next" transform="translate(4788 -19331)" fill="#fff" font-size="18" font-family="SourceSansPro-SemiBold, Source Sans Pro" font-weight="600" letter-spacing="0.004em"><tspan x="-17.811" y="0">Next</tspan></text>
    <path id="check-circle-solid_1_" data-name="check-circle-solid (1)" d="M38,23A15,15,0,1,1,23,8,15,15,0,0,1,38,23ZM21.265,30.942,32.394,19.813a.968.968,0,0,0,0-1.369l-1.369-1.369a.968.968,0,0,0-1.369,0l-9.076,9.076-4.237-4.237a.968.968,0,0,0-1.369,0l-1.369,1.369a.968.968,0,0,0,0,1.369l6.29,6.29a.968.968,0,0,0,1.369,0Z" transform="translate(4728 -19717)" fill="lime"/>
    <path id="check-circle-solid_1_2" data-name="check-circle-solid (1)" d="M38,23A15,15,0,1,1,23,8,15,15,0,0,1,38,23ZM21.265,30.942,32.394,19.813a.968.968,0,0,0,0-1.369l-1.369-1.369a.968.968,0,0,0-1.369,0l-9.076,9.076-4.237-4.237a.968.968,0,0,0-1.369,0l-1.369,1.369a.968.968,0,0,0,0,1.369l6.29,6.29a.968.968,0,0,0,1.369,0Z" transform="translate(4728 -19607)" fill="lime"/>
    <path id="check-circle-solid_1_3" data-name="check-circle-solid (1)" d="M38,23A15,15,0,1,1,23,8,15,15,0,0,1,38,23ZM21.265,30.942,32.394,19.813a.968.968,0,0,0,0-1.369l-1.369-1.369a.968.968,0,0,0-1.369,0l-9.076,9.076-4.237-4.237a.968.968,0,0,0-1.369,0l-1.369,1.369a.968.968,0,0,0,0,1.369l6.29,6.29a.968.968,0,0,0,1.369,0Z" transform="translate(4728 -19497)" fill="lime"/>
  </g>
</svg>
