<svg class="scaling-svg" xmlns="http://www.w3.org/2000/svg" width="1844" height="928" viewBox="0 0 1844 928">
  <g id="Group_2678" data-name="Group 2678" transform="translate(14621 23804)">
    <g id="Rectangle_1658" data-name="Rectangle 1658" transform="translate(-14621 -23804)" fill="#fff" stroke="#707070" stroke-width="1">
      <rect width="1844" height="928" stroke="none"/>
      <rect x="0.5" y="0.5" width="1843" height="927" fill="none"/>
    </g>
    <rect id="Rectangle_43" data-name="Rectangle 43" width="1537" height="578" transform="translate(-14467 -23687)" fill="#fafafa"/>
    <g id="Group_2677" data-name="Group 2677">
      <rect id="Rectangle_44" data-name="Rectangle 44" width="60" height="170" rx="10" transform="translate(-13988.5 -23443.5) rotate(90)" fill="#2e90b4"/>
      <text id="Sprint_Planning" data-name="Sprint Planning" transform="translate(-14138 -23408)" fill="#fff" font-size="16" font-family="Montserrat-SemiBold, Montserrat" font-weight="600"><tspan x="0" y="0">Sprint Planning</tspan></text>
      <rect id="Rectangle_47" data-name="Rectangle 47" width="60" height="145" rx="10" transform="translate(-13272.5 -23659.5) rotate(90)" fill="#2e90b4"/>
      <text id="Daily_Scrum" data-name="Daily Scrum" transform="translate(-13395 -23624)" fill="#fff" font-size="16" font-family="Montserrat-SemiBold, Montserrat" font-weight="600"><tspan x="0" y="0">Daily Scrum</tspan></text>
      <path id="arrow-long-right" d="M35.074,35.524V26.512H1.6v-10.3H35.074V7.2L48.592,21.362Z" transform="translate(-14218.6 -23430.924)" fill="#63c9ef"/>
      <path id="arrow-long-right-2" data-name="arrow-long-right" d="M35.074,35.524V26.512H1.6v-10.3H35.074V7.2L48.592,21.362Z" transform="translate(-13977.6 -23430.924)" fill="#63c9ef"/>
      <path id="arrow-long-right-3" data-name="arrow-long-right" d="M35.074,35.524V26.512H1.6v-10.3H35.074V7.2L48.592,21.362Z" transform="translate(-13728.6 -23434.924)" fill="#63c9ef"/>
      <path id="arrow-long-right-4" data-name="arrow-long-right" d="M35.074,35.524V26.512H1.6v-10.3H35.074V7.2L48.592,21.362Z" transform="translate(-13409.6 -23434.924)" fill="#63c9ef"/>
      <path id="arrow-long-right-5" data-name="arrow-long-right" d="M35.074,35.524V26.512H1.6v-10.3H35.074V7.2L48.592,21.362Z" transform="translate(-13160.6 -23434.924)" fill="#63c9ef"/>
      <path id="arrow-long-right-6" data-name="arrow-long-right" d="M32.2,35.524V26.512H1.6v-10.3H32.2V7.2L44.563,21.362Z" transform="translate(-13461.994 -23570.043) rotate(-56)" fill="#63c9ef"/>
      <path id="arrow-long-right-7" data-name="arrow-long-right" d="M32.153,35.524V26.512H1.6v-10.3H32.153V7.2L44.492,21.362Z" transform="translate(-13428.053 -23545.023) rotate(124)" fill="#63c9ef"/>
      <text id="Finished_Work" data-name="Finished Work" transform="translate(-13326 -23449)" fill="rgba(0,0,0,0.87)" font-size="17" font-family="Montserrat-ExtraBold, Montserrat" font-weight="800"><tspan x="0" y="0">Finished Work</tspan></text>
      <g id="Group_1657" data-name="Group 1657" transform="translate(-13793 -23997)">
        <g id="Group_1655" data-name="Group 1655" transform="translate(-174.441 517.97)">
          <path id="Path_2463" data-name="Path 2463" d="M653.646,65.749c9.08-1.106,18.1,2.7,27.247,2.46,19.943-.522,36.5-19.818,56.207-16.874,7.88,1.177,14.609,5.8,21.594,9.459s15.395,6.445,22.817,3.675" transform="translate(0)" fill="none" stroke="rgba(0,0,0,0.87)" stroke-miterlimit="10" stroke-width="3"/>
          <path id="Path_2464" data-name="Path 2464" d="M652.21,88.934a82.691,82.691,0,0,0,47.911-5.414c9.74-4.264,20.4-10.588,30.341-6.754,2.65,1.023,4.947,2.705,7.423,4.062,11.966,6.553,26.825,5.014,40.523,3.275" fill="none" stroke="rgba(0,0,0,0.87)" stroke-miterlimit="10" stroke-width="3"/>
          <path id="Path_2465" data-name="Path 2465" d="M651.441,109.059a100.008,100.008,0,0,0,50.612-4.539c10.511-3.826,21.205-9.557,32.29-7.677,7.238,1.227,13.393,5.564,20.138,8.337s15.489,3.639,20.706-1.266" transform="translate(0)" fill="none" stroke="rgba(0,0,0,0.87)" stroke-miterlimit="10" stroke-width="3"/>
        </g>
        <g id="Layer_2" data-name="Layer 2" transform="translate(458.016 576)">
          <g id="_231" data-name="231" transform="translate(-0.015 0)">
            <path id="Path_54" data-name="Path 54" d="M17.214,2.369,15.151.306a1.047,1.047,0,0,0-1.481,0L7.325,6.65,3.837,3.163a1.051,1.051,0,0,0-1.481,0L.293,5.227a1.047,1.047,0,0,0,0,1.485l6.26,6.26a1.067,1.067,0,0,0,.755.425h.034a1.064,1.064,0,0,0,.753-.425l9.118-9.118a1.047,1.047,0,0,0,0-1.481Zm-.515.966L7.581,12.453a1.333,1.333,0,0,1-.238.211h0a.021.021,0,0,0-.03,0h0a1.37,1.37,0,0,1-.24-.211L.809,6.193a.318.318,0,0,1,0-.451L2.873,3.678A.316.316,0,0,1,3.1,3.585a.325.325,0,0,1,.226.093L7.1,7.456a.321.321,0,0,0,.449,0L14.184.822A.323.323,0,0,1,14.41.73a.315.315,0,0,1,.225.092L16.7,2.885a.318.318,0,0,1,0,.451Z" transform="translate(0.015 0)" fill="none" stroke="rgba(0,0,0,0.87)" stroke-width="1"/>
          </g>
        </g>
        <g id="Layer_2-2" data-name="Layer 2" transform="translate(457.016 599)">
          <g id="_231-2" data-name="231" transform="translate(-0.015 0)">
            <path id="Path_54-2" data-name="Path 54" d="M17.214,2.369,15.151.306a1.047,1.047,0,0,0-1.481,0L7.325,6.65,3.837,3.163a1.051,1.051,0,0,0-1.481,0L.293,5.227a1.047,1.047,0,0,0,0,1.485l6.26,6.26a1.067,1.067,0,0,0,.755.425h.034a1.064,1.064,0,0,0,.753-.425l9.118-9.118a1.047,1.047,0,0,0,0-1.481Zm-.515.966L7.581,12.453a1.333,1.333,0,0,1-.238.211h0a.021.021,0,0,0-.03,0h0a1.37,1.37,0,0,1-.24-.211L.809,6.193a.318.318,0,0,1,0-.451L2.873,3.678A.316.316,0,0,1,3.1,3.585a.325.325,0,0,1,.226.093L7.1,7.456a.321.321,0,0,0,.449,0L14.184.822A.323.323,0,0,1,14.41.73a.315.315,0,0,1,.225.092L16.7,2.885a.318.318,0,0,1,0,.451Z" transform="translate(0.015 0)" fill="none" stroke="rgba(0,0,0,0.87)" stroke-width="1"/>
          </g>
        </g>
        <g id="Layer_2-3" data-name="Layer 2" transform="translate(458.016 621)">
          <g id="_231-3" data-name="231" transform="translate(-0.015 0)">
            <path id="Path_54-3" data-name="Path 54" d="M17.214,2.369,15.151.306a1.047,1.047,0,0,0-1.481,0L7.325,6.65,3.837,3.163a1.051,1.051,0,0,0-1.481,0L.293,5.227a1.047,1.047,0,0,0,0,1.485l6.26,6.26a1.067,1.067,0,0,0,.755.425h.034a1.064,1.064,0,0,0,.753-.425l9.118-9.118a1.047,1.047,0,0,0,0-1.481Zm-.515.966L7.581,12.453a1.333,1.333,0,0,1-.238.211h0a.021.021,0,0,0-.03,0h0a1.37,1.37,0,0,1-.24-.211L.809,6.193a.318.318,0,0,1,0-.451L2.873,3.678A.316.316,0,0,1,3.1,3.585a.325.325,0,0,1,.226.093L7.1,7.456a.321.321,0,0,0,.449,0L14.184.822A.323.323,0,0,1,14.41.73a.315.315,0,0,1,.225.092L16.7,2.885a.318.318,0,0,1,0,.451Z" transform="translate(0.015 0)" fill="none" stroke="rgba(0,0,0,0.87)" stroke-width="1"/>
          </g>
        </g>
      </g>
      <g id="Rectangle_49" data-name="Rectangle 49" transform="translate(-13349 -23483)" fill="none" stroke="rgba(0,0,0,0.87)" stroke-width="3">
        <rect width="178" height="136" stroke="none"/>
        <rect x="1.5" y="1.5" width="175" height="133" fill="none"/>
      </g>
      <text id="Sprint" transform="translate(-13544 -23411)" font-size="50" font-family="Montserrat-ExtraBold, Montserrat" font-weight="800"><tspan x="-80.975" y="0">Sprint</tspan></text>
      <text id="_2_weeks" data-name="2 weeks" transform="translate(-13541 -23365)" font-size="36" font-family="Montserrat-ExtraBold, Montserrat" font-weight="800"><tspan x="-77.922" y="0">2 weeks</tspan></text>
      <g id="Layer_1" data-name="Layer 1" transform="translate(-13668 -23532)">
        <path id="Path_67" data-name="Path 67" d="M183.062,208.572c.461-.373.9-.812,1.372-1.175l3.03-2.415,1.526-1.208c.505-.406.988-.845,1.482-1.263l2.942-2.547c.966-.867,1.888-1.79,2.822-2.7.725-.725,1.482-1.416,2.2-2.2l2.053-2.295c1.394-1.515,2.646-3.151,3.93-4.754a123.762,123.762,0,0,0,11.648-17.95,114.784,114.784,0,0,0,5.061-10.627l1.2-3.063c.2-.505.4-1.021.582-1.537l.516-1.559c.681-2.086,1.394-4.15,1.888-6.291.483-1.932.955-3.864,1.252-5.83s.714-3.908.966-5.874c.242-1.68.6-3.294.834-5.028s.461-3.359.626-5.039c.1-1.35.143-2.7.22-4.051s.165-2.7.132-4.051l-2.2-.11c0,1.416-.066,2.822-.11,4.238s-.066,2.822-.187,4.238l-.373,4.227-.1,1.1-.154,1.1L225.9,134l-.461,2.9-.6,2.876-.593,2.876-.725,2.843a105.983,105.983,0,0,1-4.512,14.272c-.779,1.8-1.647,3.557-2.514,5.314s-1.921,3.414-2.843,5.138c-.593,1.032-1.208,2.042-1.811,3.063s-1.263,2.009-1.9,3c-1.317,1.965-2.547,4-3.974,5.885l-2.1,2.9-2.2,2.832c-1.449,1.91-3.074,3.678-4.644,5.489-.637.747-1.339,1.427-2.02,2.13l-2.064,2.086c-.67.7-1.416,1.339-2.13,2.009l-2.2,1.976a16.765,16.765,0,0,1-1.68,1.383l-1.746,1.285-3.5,2.547Z" transform="translate(17.744 11.45)"/>
        <path id="Path_68" data-name="Path 68" d="M180.691,205.234c.856-.626,1.779-1.1,2.591-1.757a97.424,97.424,0,0,0,8.871-7.883c1.438-1.493,2.9-2.975,4.216-4.578l2.02-2.371c.67-.8,1.284-1.636,1.932-2.448s1.3-1.581,1.954-2.371,1.23-1.625,1.811-2.47l1.548-2.262,1.416-2.349,1.416-2.349L209.8,172c.626-1.175,1.328-2.306,1.932-3.5l1.8-3.568c1.581-3.359,2.909-6.829,4.271-10.276.582-1.328,1.1-2.7,1.57-4.062s1.1-2.712,1.471-4.106l1.317-4.172c.384-1.405.714-2.822,1.043-4.249.439-1.713.725-3.908,1.1-6.2.209-1.1.318-2.327.428-3.491s.231-2.327.329-3.425c.154-2.2.2-4.194.264-5.632v-2.327L223.6,116.9c.077,1.592-.231,3.151-.285,4.721a96.786,96.786,0,0,1-2.591,18.839c-.253,1.219-.637,2.415-1,3.612s-.736,2.393-1.164,3.568l-1.339,3.5c-.231.582-.428,1.175-.681,1.757l-.736,1.713-1.23,2.953c-.406.977-.867,1.932-1.3,2.92-1.1,2.734-2.426,5.4-3.766,8.058-1.361,2.437-2.767,4.853-4.293,7.191-.626.977-1.1,2.009-1.8,2.964s-1.263,1.932-1.943,2.876a29.99,29.99,0,0,1-2.273,2.734c-.79.889-1.57,1.779-2.327,2.69-1.175,1.317-2.327,2.646-3.48,3.985l-3.612,3.853c-.9.955-1.855,1.855-2.767,2.789l-1.405,1.383c-.461.461-.977.878-1.471,1.306-1.493,1.252-2.975,2.5-4.578,3.623Z" transform="translate(17.536 11.439)"/>
        <path id="Path_69" data-name="Path 69" d="M177.489,200.963a10.255,10.255,0,0,0,1.537-1.548,10.121,10.121,0,0,1,1.5-1.559l1.581-1.175.8-.582.779-.615,3.107-2.47c1.175-.988,2.295-2.053,3.381-3.14s1.855-1.987,2.767-3,1.833-2.009,2.668-3.1l2.569-3.173,2.415-3.294A19.763,19.763,0,0,0,202,175.273c.812-1.416,1.636-2.811,2.4-4.227s1.482-2.887,2.251-4.315,1.68-3.1,2.514-4.666,1.416-2.975,2.13-4.468c.362-.747.67-1.515.977-2.284l.933-2.295a46.11,46.11,0,0,0,1.57-4.391l.736-2.2c.231-.736.406-1.482.615-2.2.329-1.263.659-2.525.933-3.788s.472-2.558.758-3.821l.3-1.339.253-1.35.494-2.7c.373-1.79.56-3.612.823-5.423.1-.812.34-1.614.373-2.437.066-1.1.066-2.2.055-3.294v-3.3l-1.8-.1V118q0,.659-.066,1.317l-.22,3.074a12.273,12.273,0,0,1-.132,1.548l-.22,1.548c-.253,2.042-.472,4.1-.834,6.115-.165,1.1-.318,2.1-.461,3.151l-.571,3.118c-.2,1.1-.351,2.1-.615,3.129s-.527,2.053-.812,3.074c-.176.626-.34,1.252-.549,1.866l-.648,1.822c-.45,1.219-.856,2.448-1.35,3.634l-1.526,3.579-.373.889-.417.878-.812,1.746c-1.01,2.316-2.2,4.534-3.294,6.8-.582,1.1-1.23,2.2-1.844,3.294l-.922,1.658-1,1.6c-1,1.57-1.921,3.184-3.008,4.71s-2.075,3.085-3.294,4.534c-.845,1.032-1.669,2.086-2.591,3.063l-2.734,2.909c-1.284,1.35-2.58,2.668-3.919,3.952-.911.845-1.91,1.6-2.865,2.393l-1.438,1.186-1.46,1.1c-1.438,1.1-2.47,2.712-3.963,3.8Z" transform="translate(17.225 11.418)"/>
        <path id="Path_70" data-name="Path 70" d="M175.3,197.971c.143-.11.681-.571,1.438-1.284s1.68-1.691,2.712-2.712,2.053-2.2,3.052-3.217l1.394-1.46c.417-.472.8-.889,1.1-1.241.505-.538,1.01-1.1,1.493-1.625s1-1.1,1.449-1.658c.922-1.1,1.855-2.273,2.843-3.359,2.789-3.294,5.676-6.587,8.168-10.2l1.339-1.866c.45-.626.845-1.284,1.263-1.921L202.8,165.5l.615-.977.571-1,1.724-3.052a28.79,28.79,0,0,0,1.526-3.162c.428-1.065.823-1.822,1.164-2.756l1.032-2.811c.736-1.855,1.241-3.788,1.877-5.676l.34-1.032.307-1.043.6-2.1.6-2.086c.165-.7.329-1.416.472-2.119.351-1.669.714-3.294.911-5.039l.362-2.525c.066-.428.132-.845.187-1.263l.143-1.274c.143-1.3.329-2.591.527-3.886l.417-3.908.154-1.581c.055-.516.055-1.1.077-1.581h-1.6l-.055,1.2c0,.4-.077.79-.11,1.186l-.231,2.382c-.088.8-.132,1.592-.242,2.382l-.351,2.36-.307,2.327c-.1.768-.264,1.537-.384,2.306L212.628,134c-.2,1.1-.428,2.141-.659,3.206l-.34,1.789c-.132.626-.318,1.219-.483,1.833l-.944,3.656c-.8,2.393-1.471,4.831-2.415,7.169-.538,1.416-1,2.865-1.614,4.26L205.284,158a22.089,22.089,0,0,1-.988,2.053c-.494.889-.988,1.768-1.493,2.646-.253.439-.494.889-.768,1.317l-.834,1.263-1.669,2.536c-.549.834-1.175,1.636-1.757,2.459s-1.23,1.735-1.9,2.558l-2.009,2.47-1,1.241-1.1,1.2c-.692.8-1.361,1.614-2.02,2.437-.867,1.021-2.2,2.58-3.6,4.391a71.393,71.393,0,0,1-4.875,5.489c-.856.867-1.636,1.779-2.437,2.525l-2.2,2.075a27.646,27.646,0,0,1-2.36,2.119Z" transform="translate(17.019 11.413)"/>
        <path id="Path_71" data-name="Path 71" d="M88,224.107c.582.132,1.208.187,1.779.34,1.252.34,2.525.56,3.788.856s2.525.615,3.8.834c2.558.428,5.116.977,7.685,1.208,2.042.22,4.1.45,6.148.483s4.106.187,6.159.11l2.679-.055a24.083,24.083,0,0,0,2.668-.1l5.347-.384,5.314-.659c.889-.088,1.768-.263,2.657-.417l2.635-.45c1.943-.3,3.843-.79,5.764-1.2s3.81-.955,5.7-1.482c2.119-.571,4.183-1.317,6.258-2.042l1.548-.538,1.526-.626,3.019-1.274c3.645-1.625,7.092-3.612,10.539-5.566l1.1-.6,1.1-.637,2.2-1.252c.736-.417,1.482-.823,2.2-1.274s1.416-.911,2.119-1.394l1.68-1.1c.56-.373,1.1-.758,1.658-1.175l3.239-2.426-1.306-1.811a123.719,123.719,0,0,1-14,9.6c-1.724.911-3.436,1.855-5.171,2.767l-5.16,2.481-3.436,1.493-1.724.747-1.746.67-3.524,1.317c-1.175.417-2.382.747-3.59,1.1-.933.274-1.877.538-2.832.768l-2.887.571-2.887.549-2.9.428c-1.175.187-2.338.4-3.513.549l-3.535.406c-2.338.329-4.71.406-7.07.593-1.2.1-2.393.11-3.59.132l-3.59.088c-1.2,0-2.4-.055-3.6-.088s-2.393,0-3.59-.143c-1.943-.165-3.9-.34-5.83-.549L97,224.1c-1.427-.274-2.822-.648-4.216-1.021-.692-.2-1.394-.362-2.086-.571s-1.383-.406-2.086-.582Z" transform="translate(8.576 19.716)"/>
        <path id="Path_72" data-name="Path 72" d="M89,220.268c1.021.263,1.943.736,2.975.944,1.943.4,3.864.845,5.819,1.186s3.919.615,5.885.834,4.139.351,6.214.428,4.15.11,6.225.088,4.1.077,6.137-.077c1.822-.165,3.645-.34,5.489-.549l5.412-.823c1.317-.209,2.624-.483,3.941-.7a39.181,39.181,0,0,0,3.908-.812l2.7-.681,1.35-.34,1.328-.406,2.668-.812c.878-.264,1.779-.505,2.657-.8,1.383-.45,2.767-.878,4.161-1.3s2.745-.966,4.128-1.438c.681-.253,1.372-.483,2.053-.747l2.009-.845,2.009-.856c.67-.3,1.339-.593,1.976-.933a97.322,97.322,0,0,0,11.407-6.763l2.558-1.757,2.009-1.537,1.844-1.416-1-1.405c-1.241.988-2.6,1.79-3.864,2.745a103.747,103.747,0,0,1-16.358,9.683c-1.1.516-2.284,1.01-3.436,1.5l-3.535,1.263-1.768.626-1.8.538-3.59,1.1q-3.079.807-6.159,1.691l-4.3,1.1-1.1.274-1.1.22-2.2.428-2.053.384c-.692.121-1.394.176-2.086.274-1.383.165-2.778.329-4.161.527-1.1.1-2.295.242-3.436.384a30.416,30.416,0,0,1-3.458.3c-1.186,0-2.371,0-3.557-.066a13.769,13.769,0,0,1-1.779-.077c-.593-.077-1.175-.077-1.768-.1l-2.646-.1H109.4l-1.317-.088c-1.757-.143-3.524-.22-5.281-.4-2.591-.329-5.226-.45-7.795-1-.955-.176-1.91-.373-2.865-.571s-1.888-.494-2.822-.736Z" transform="translate(8.674 19.449)"/>
        <path id="Path_73" data-name="Path 73" d="M90,215.244a12.8,12.8,0,0,0,2.2.242,10.757,10.757,0,0,1,2.2.209c1.284.3,2.547.659,3.832,1l3.864.856a37.548,37.548,0,0,0,4.567.681c2.7.318,5.489.351,8.157.472h6.126c.681,0,1.361-.077,2.042-.11s1.658-.088,2.481-.187c1.614-.154,3.206-.494,4.8-.769l2.393-.417,2.371-.516c.867-.176,1.735-.307,2.613-.439s1.746-.307,2.6-.483c3.294-.648,6.433-1.515,9.606-2.459l4.391-1.46c1.449-.538,2.865-1.1,4.293-1.7,1.208-.472,2.349-1.1,3.524-1.669s2.338-1.1,3.469-1.757l2.437-1.263c.812-.417,1.636-.812,2.426-1.285l2.393-1.339c.79-.45,1.6-.889,2.36-1.394s1.449-.79,2.13-1.241c1.866-1.2,3.425-2.778,5.2-4.084l-1.043-1.46c-.692.538-1.383,1.1-2.1,1.592-1.636,1.252-3.414,2.295-5.138,3.425-.856.571-1.757,1.1-2.646,1.592l-2.657,1.57-2.778,1.559c-.922.505-1.822,1.1-2.767,1.548l-2.843,1.427-1.438.692c-.483.22-.977.406-1.471.6-1.2.483-2.4.944-3.623,1.394s-2.47.779-3.7,1.164c-.626.187-1.23.4-1.855.56l-1.877.483c-1.263.307-2.492.681-3.755.966-2.47.538-4.907,1.175-7.4,1.581-1.241.22-2.47.505-3.722.659l-3.755.516a101.832,101.832,0,0,1-11.132.867,34.722,34.722,0,0,1-4-.132c-1.339-.11-2.668-.154-4-.307-1.844-.209-3.7-.285-5.489-.582q-3.678-.692-7.29-1.559a18.672,18.672,0,0,0-2.723-.318,17.361,17.361,0,0,1-2.712-.4Z" transform="translate(8.771 19.05)"/>
        <path id="Path_74" data-name="Path 74" d="M90.8,211.77c.165.055.878.165,1.9.329s2.371.253,3.81.417l2.2.231,2.2.143c1.427.1,2.723.252,3.7.318,1.46.11,2.931.176,4.391.242s2.931,0,4.391.088l1.636.1h1.625l3.294.077h3.272c1.1,0,2.2,0,3.294-.088l4.589-.34a17.717,17.717,0,0,0,2.284-.252l2.284-.3,1.746-.242,1.724-.329c1.1-.22,2.295-.461,3.425-.736,1.921-.56,3.832-1.1,5.72-1.757l2.811-1.032a29,29,0,0,0,2.8-1.1c1.339-.56,2.69-1.1,4.04-1.592s2.657-1.186,3.963-1.8c.779-.351,1.526-.768,2.273-1.186l2.2-1.241c.758-.406,1.482-.856,2.2-1.306l2.2-1.328c1.1-.637,2.2-1.361,3.348-2.031a36.438,36.438,0,0,0,3.294-2.075l2.613-1.79-.955-1.284c-1.317.889-2.624,1.8-3.963,2.668l-4.073,2.5c-1.372.758-2.723,1.537-4.062,2.338-.933.56-1.91,1.1-2.865,1.57s-1.9,1.1-2.887,1.526a117.324,117.324,0,0,1-14,5.72c-1.449.439-2.9.911-4.391,1.372s-2.931.779-4.391,1.1l-1.493.285-1.5.209-3.008.362c-1,.154-2.02.165-3.019.242l-3.019.209c-1.1,0-2.13,0-3.195.055a30.81,30.81,0,0,1-3.184,0c-1.065-.055-2.119-.077-3.184-.088h-1.581l-1.592-.055H109.65l-1.669-.066-3.6-.11c-1.23-.066-2.481-.187-3.7-.274l-1.79-.132c-.593-.055-1.1-.143-1.7-.2l-2.964-.373c-.878-.088-1.6-.242-2.13-.34s-.889-.165-1-.2Z" transform="translate(8.85 18.78)"/>
        <path id="Path_75" data-name="Path 75" d="M11.9,161.493c.274.527.626,1.1.889,1.581l1.647,3.524,1.757,3.458.889,1.735c.3.582.637,1.1.955,1.7l1.976,3.359c1.1,1.746,2.284,3.425,3.447,5.116s2.5,3.294,3.766,4.885a125.441,125.441,0,0,0,14.931,15.37c.747.637,1.46,1.306,2.2,1.921l2.295,1.833c.779.615,1.526,1.241,2.316,1.822l2.393,1.713c.911.615,1.779,1.285,2.712,1.866l2.778,1.746c1.833,1.208,3.788,2.2,5.7,3.294,3.535,1.833,7.246,3.294,10.913,4.776,1.559.692,3.151,1.274,4.721,1.921l2.36.944c.8.264,1.614.538,2.426.78,1.3.384,2.569.834,3.886,1.175l3.919,1.01.6-2.2-4.106-1.021c-1.372-.362-2.723-.79-4.084-1.175L81.175,222l-2.009-.7c-1.328-.472-2.679-.933-3.985-1.471-1.79-.779-3.6-1.526-5.39-2.327s-3.524-1.691-5.281-2.569l-3.294-1.757-1.658-.878-1.614-.955L54.717,209.4c-1.1-.681-2.075-1.394-3.1-2.108a27.969,27.969,0,0,1-2.36-1.757L47,203.662c-.736-.648-1.5-1.252-2.2-1.932l-2.2-1.987c-1.8-1.548-3.436-3.294-5.149-4.9-.867-.8-1.636-1.7-2.459-2.558s-1.625-1.713-2.415-2.591a120.764,120.764,0,0,1-8.937-11.264l-1.669-2.415-1.537-2.5-1.526-2.492L17.5,168.454c-1.46-2.525-2.295-5.3-3.579-7.894Z" transform="translate(1.128 15.712)"/>
        <path id="Path_76" data-name="Path 76" d="M15.4,159.872c.45.955.714,1.943,1.175,2.9s.823,1.8,1.284,2.668l1.405,2.624c.483.856.922,1.746,1.449,2.591l1.57,2.525c1.1,1.779,2.316,3.447,3.535,5.127l.911,1.263c.307.417.637.812.966,1.23l1.932,2.437c.615.823,1.263,1.6,1.91,2.4s1.3,1.581,1.976,2.349c1.219,1.35,2.558,2.613,3.843,3.908.637.659,1.317,1.263,2,1.866l2.02,1.844c.966.922,2,1.768,3,2.646l1.515,1.361.769.648.79.6c1.482,1.1,2.942,2.262,4.468,3.294s3.052,2.042,4.578,3.14a112.038,112.038,0,0,0,14.964,8.981,98.61,98.61,0,0,0,12.384,4.71l2.975.9c.922.263,1.757.45,2.448.626l2.262.549L92,221.408c-1.537-.362-3.019-.9-4.545-1.306a101.378,101.378,0,0,1-17.763-6.774c-1.1-.571-2.2-1.153-3.294-1.757L63.2,209.595l-1.592-1-1.537-1.1L57,205.368c-1.7-1.3-3.447-2.5-5.149-3.777l-3.557-2.668c-1.175-.911-2.306-1.877-3.447-2.822s-2.075-1.866-3.085-2.843-2.042-1.91-3-2.931c-1.6-1.647-3.381-3.151-4.842-4.951-.769-.911-1.5-1.833-2.2-2.8s-1.35-1.954-2.064-2.9c-1.1-1.372-2.075-2.843-3.118-4.271a22.948,22.948,0,0,1-1.515-2.2l-1.449-2.2c-1.482-2.2-2.822-4.391-4.128-6.686-.889-1.735-1.691-3.513-2.525-5.27Z" transform="translate(1.471 15.565)"/>
        <path id="Path_77" data-name="Path 77" d="M19.92,157.611c.659,1.3,1.79,2.338,2.371,3.656s1.1,2.382,1.636,3.59,1.1,2.426,1.713,3.579c.736,1.35,1.449,2.723,2.295,4.007a119.147,119.147,0,0,0,9.947,12.944c.571.6,1.1,1.23,1.713,1.8l1.757,1.691c.6.538,1.23,1.1,1.833,1.592,1.23,1.1,2.426,2.2,3.7,3.14a22.753,22.753,0,0,1,1.987,1.757l.977.9,1.021.845,1.932,1.614a21.306,21.306,0,0,0,1.954,1.526c1.339.966,2.657,1.954,4.018,2.887l3.875,2.5c1.306.812,2.668,1.548,4.007,2.295a38.17,38.17,0,0,0,3.491,1.724l1.768.823.878.417.889.384,2.5,1.1c.834.373,1.658.78,2.514,1.1l2.547,1.032c.845.329,1.68.7,2.558.988s1.515.637,2.306.878c2.086.725,4.293.966,6.422,1.526l.494-1.724c-.856-.209-1.713-.406-2.547-.637l-1.493-.417-1.46-.483-2.931-1c-.977-.307-1.921-.714-2.887-1.1l-2.887-1.1-2.942-1.2c-.966-.417-1.976-.758-2.931-1.208l-2.9-1.339-1.427-.692-1.394-.768c-1.1-.648-2.2-1.3-3.294-1.976l-3.217-2.2c-1.1-.714-2.108-1.5-3.14-2.284l-1.614-1.065-.779-.571-.758-.6L51.462,195.2c-1-.779-1.921-1.636-2.887-2.448-1.965-1.592-3.744-3.381-5.61-5.094L39.045,183.7c-1.241-1.383-2.5-2.756-3.7-4.183-.823-1.1-1.614-2.141-2.393-3.217l-.582-.812-.549-.845-1.1-1.669c-.516-.779-1.1-1.526-1.559-2.316s-.966-1.581-1.427-2.382c-1.284-2.13-2.2-4.468-3.37-6.642-.79-1.647-2.009-3.063-2.832-4.7Z" transform="translate(1.913 15.357)"/>
        <path id="Path_78" data-name="Path 78" d="M23.07,156.045c.165.318,1.449,2.481,3,4.929.812,1.208,1.669,2.492,2.437,3.689s1.581,2.2,2.1,3.063c.406.615.79,1.241,1.23,1.833l1.328,1.746c.889,1.175,1.757,2.36,2.657,3.513l1.921,2.635,2.009,2.58c1.3,1.746,2.756,3.37,4.172,5.039.483.593,1.021,1.1,1.548,1.7l1.581,1.669c1.032,1.1,2.2,2.2,3.294,3.294a62.228,62.228,0,0,0,5.325,4.578c1.6,1.175,3.294,2.273,4.929,3.381l2.558,1.559c.856.505,1.691,1.1,2.569,1.526,1.274.7,2.525,1.438,3.766,2.2s2.58,1.339,3.875,1.976c3.1,1.449,6.291,2.646,9.5,3.81,1.208.494,2.448.911,3.678,1.361l1.833.681.922.34.933.3,3.03.922.417-1.548c-1.515-.494-3.063-.911-4.556-1.438l-4.5-1.625c-1.438-.6-2.887-1.164-4.391-1.713-1.01-.4-2-.856-3.008-1.263s-2.02-.812-2.986-1.317l-3.392-1.68c-1.1-.56-2.2-1.208-3.294-1.811l-1.669-.911-1.6-1c-1.1-.67-2.2-1.306-3.217-2-1.252-.867-2.525-1.691-3.788-2.536s-2.437-1.811-3.612-2.767a24.5,24.5,0,0,1-2.2-2.042l-2.2-2.108-2.064-2.2c-.681-.758-1.394-1.449-2.031-2.2-1.372-1.636-2.778-3.228-4.029-4.94-.648-.845-1.3-1.68-1.954-2.5s-1.241-1.713-1.888-2.547c-1.68-2.075-4.973-6.379-7.685-10.419s-4.809-7.872-5.028-8.267Z" transform="translate(2.222 15.221)"/>
        <path id="Path_79" data-name="Path 79" d="M13.061,64c-.242.538-.428,1.1-.681,1.68l-1.735,3.513c-.56,1.164-1.1,2.36-1.614,3.535-1.1,2.349-2.009,4.787-2.942,7.224-.692,1.932-1.241,3.919-1.844,5.885s-.955,4-1.471,6.005A126.737,126.737,0,0,0,.118,113.074C0,116.983,0,120.913.172,124.822l.253,3.294c.088,1.1.165,2.2.34,3.294l.45,3.294.242,1.614c.1.538.22,1.1.329,1.614.2.977.417,1.943.637,2.92l.34,1.449c.121.483.274.955.406,1.438L4,146.592c.263.955.516,1.91.834,2.854.505,1.625.955,3.294,1.416,4.9s1.1,3.217,1.647,4.809c.45,1.274,1.032,2.5,1.537,3.755s1.021,2.5,1.636,3.711l2.064-.867a113.718,113.718,0,0,1-6.214-15.8c-.6-1.866-1.043-3.766-1.526-5.665-.231-.955-.516-1.888-.692-2.854l-.593-2.876c-.56-2.437-.911-4.907-1.328-7.378-.231-1.23-.318-2.481-.461-3.722s-.253-2.492-.34-3.744c-.066-1.954-.055-3.919,0-5.874l.329-5.852c0-1.186.2-2.36.3-3.546s.2-2.349.318-3.535l.45-3.579c.165-1.175.3-2.349.527-3.513.461-2.349.812-4.732,1.405-7.059l.823-3.5c.307-1.1.659-2.306.988-3.458.285-.933.549-1.877.856-2.8l1-2.723c.34-.922.648-1.844,1.01-2.756l1.1-2.7c1.1-2.723,2.723-5.105,3.941-7.685Z" transform="translate(-0.033 6.262)"/>
        <path id="Path_80" data-name="Path 80" d="M16.4,65.77c-.461.944-1.1,1.768-1.526,2.712s-.889,1.779-1.3,2.679l-1.164,2.723c-.384.922-.79,1.822-1.1,2.756l-1,2.8c-.329.988-.7,1.954-.977,2.953L8.508,85.4c-.593,1.987-1,4.029-1.471,6.06s-.966,3.985-1.317,5.994c-.34,1.8-.461,3.634-.659,5.489-.077.911-.2,1.822-.242,2.734l-.143,2.734c-.209,2.657-.253,5.314-.3,7.981,0,3.711.329,7.411.615,11.1l.132,2.2.209,2.2c.154,1.449.242,2.9.439,4.391l.637,4.315c.1.725.253,1.438.406,2.2l.439,1.954c.209.856.417,1.833.714,2.854s.637,2.108.977,3.217c.637,2.2,1.559,4.49,2.316,6.587.362,1.043.812,2,1.186,2.876l1,2.316c.3.659.516,1.186.714,1.548l.274.56,1.592-.67c-.176-.351-.351-.7-.505-1.1l-.428-1.1c-.274-.736-.538-1.482-.856-2.2A100.773,100.773,0,0,1,8.42,141.544c-.274-1.219-.439-2.47-.637-3.7s-.406-2.47-.494-3.722c-.22-2.492-.472-4.973-.538-7.476l-.187-3.184-.088-3.195c-.176-2.953-.143-5.917-.121-8.893.077-1.394.2-2.789.307-4.183.066-.692.11-1.394.187-2.086l.3-2.086c.132-1.1.22-2.306.307-3.458a32.652,32.652,0,0,1,.527-3.425c.384-2.349,1.219-4.589,1.79-6.884l.307-1.274.373-1.274.725-2.547c.439-1.7,1.032-3.37,1.57-5.05l.6-1.866c.2-.626.439-1.23.659-1.855.45-1.23.911-2.459,1.405-3.667.812-1.779,1.691-3.513,2.558-5.259Z" transform="translate(0.393 6.436)"/>
        <path id="Path_81" data-name="Path 81" d="M20.94,67.91c-.6,1.317-.714,2.854-1.383,4.117s-1.186,2.349-1.811,3.524a36.663,36.663,0,0,0-1.713,3.568c-.6,1.405-1.208,2.832-1.713,4.282a118.877,118.877,0,0,0-3.9,15.853,23.264,23.264,0,0,0-.362,2.459l-.2,2.426-.077,1.2v1.208L9.632,111.4c0,1.768-.165,3.535-.242,5.3,0,3.294,0,6.587.3,9.881.066.768.1,1.537.176,2.306l.285,2.284c.209,1.526.351,3.063.681,4.567.242,1.274.527,2.547.812,3.81s.67,2.514.966,3.777c.22.889.384,1.779.648,2.657l.736,2.646c.253.878.461,1.768.747,2.646l.856,2.6c.253.779.417,1.592.7,2.371.417,1.021.911,2.009,1.394,3s.944,1.987,1.449,2.964l1.658-.692a24.725,24.725,0,0,1-1.1-2.393c-.769-1.91-1.548-3.81-2.2-5.775l-1-2.92-.889-2.964c-.3-1.01-.67-2.009-.944-3.03l-.845-3.063-.472-1.482c-.132-.516-.231-1.043-.351-1.559-.22-1.032-.428-2.075-.615-3.118a102.758,102.758,0,0,1-1.1-15.469c-.1-2.525,0-5.05,0-7.575a13.672,13.672,0,0,1,.088-1.888l.132-1.888c.1-1.252.121-2.525.3-3.777l.307-2.767c.11-.922.176-1.855.34-2.767l.439-2.767c.154-.911.285-1.833.516-2.734.307-1.306.648-2.591,1.01-3.886s.823-2.536,1.219-3.81c.3-.878.516-1.779.845-2.646s.626-1.746.966-2.6l.714-1.735c.253-.56.538-1.1.8-1.68.549-1.1,1.1-2.2,1.581-3.37.812-1.636,1.153-3.469,1.921-5.138Z" transform="translate(0.883 6.645)"/>
        <path id="Path_82" data-name="Path 82" d="M24.051,69.42c-.154.318-1.021,2.679-2,5.412-.428,1.383-.9,2.854-1.35,4.216s-.769,2.624-1.1,3.546c-.231.692-.461,1.383-.67,2.086l-.538,2.2c-.34,1.427-.758,2.832-1.1,4.26-.538,2.1-1.164,4.183-1.614,6.313-.242,1.1-.505,2.119-.736,3.184l-.582,3.228c-.132.758-.285,1.5-.4,2.262l-.285,2.284c-.2,1.526-.428,3.041-.494,4.578l-.231,3.513c-.066,1.164,0,2.338,0,3.513A20.848,20.848,0,0,0,13.105,123l.3,2.986c.11.988.165,1.987.329,2.975l.439,2.953c.11.714.176,1.438.3,2.2l.373,2.2c.253,1.427.45,2.865.834,4.26l.637,2.481c.22.823.439,1.647.714,2.459l.79,2.426c.263.812.483,1.636.779,2.426.439,1.241.834,2.481,1.23,3.733s.867,2.47,1.306,3.7c.362.988.7,1.987,1.1,2.953l1.482-.648c-.154-.362-.329-.725-.472-1.1l-.406-1.1L22,155.646c-.593-1.471-1.021-3.019-1.515-4.523-.231-.747-.505-1.482-.725-2.2l-.659-2.2c-.3-1.1-.659-2.075-.933-3.129l-.769-3.414c-.329-1.219-.56-2.459-.79-3.7s-.516-2.47-.692-3.722l-.538-3.744-.132-.944-.044-.933-.176-1.888L14.785,123c-.088-.758-.1-1.515-.154-2.273l-.11-2.273a22.627,22.627,0,0,1,0-2.284,90.124,90.124,0,0,1,1.416-12.076l.593-3.129c.22-1.1.505-2.064.747-3.1s.461-2.075.747-3.085.549-2.042.8-3.074c.263-1.306.8-3.294,1.339-5.489.242-1.1.6-2.284.944-3.48.165-.593.34-1.186.505-1.79s.34-1.186.549-1.768c.779-2.306,1.471-4.512,2.2-6.115s1.1-2.756,1.186-2.953Z" transform="translate(1.23 6.793)"/>
        <path id="Path_83" data-name="Path 83" d="M95.251,3.35c-.582.143-1.164.362-1.746.472s-1.274.242-1.9.4l-1.844.45-3.8.889-3.744,1.1L80.342,7.2c-.615.2-1.23.417-1.844.637-1.921.7-3.875,1.361-5.753,2.2s-3.777,1.625-5.6,2.591a120.961,120.961,0,0,0-18.29,11.121c-1.57,1.164-3.107,2.382-4.666,3.579s-3,2.536-4.479,3.821c-1.625,1.471-3.173,3.008-4.754,4.534a61.02,61.02,0,0,0-4.391,4.853c-1.252,1.548-2.492,3.1-3.656,4.7L23.45,50.108c-.944,1.405-1.943,2.778-2.931,4.15s-1.866,2.832-2.745,4.282c-.725,1.153-1.317,2.371-1.976,3.546s-1.328,2.36-1.888,3.59l1.965,1.1.461-.955.494-.933.988-1.866c.659-1.252,1.3-2.525,2.031-3.733l2.2-3.667c.769-1.186,1.559-2.36,2.36-3.535,2.2-3.206,4.633-6.3,7.147-9.31.4-.472.779-.977,1.186-1.438l1.241-1.405,2.492-2.8,2.635-2.679,1.252-1.361c.461-.428.933-.834,1.405-1.252a56.815,56.815,0,0,1,4.567-3.689c1.592-1.1,3.14-2.338,4.776-3.4l2.964-2.02c.977-.681,2-1.274,3-1.91s1.954-1.274,3.052-1.855l3.063-1.724,1.57-.878,1.6-.812,3.206-1.6c1.1-.527,2.2-1,3.294-1.493l1.647-.736c.538-.253,1.1-.483,1.658-.692C77.992,10.343,79.8,9.608,81.648,9s3.722-1.263,5.588-1.79c1.405-.384,2.832-.659,4.249-.922.7-.154,1.416-.253,2.13-.362s1.427-.242,2.13-.4Z" transform="translate(1.325 0.327)"/>
        <path id="Path_84" data-name="Path 84" d="M95.815,7.12c-1.032.2-2.053.22-3.1.428C90.8,8.009,88.877,8.5,86.966,9s-3.788,1.175-5.676,1.79-3.875,1.5-5.786,2.316-3.788,1.7-5.654,2.668c-.9.472-1.833.9-2.756,1.339a27.721,27.721,0,0,0-2.723,1.405c-1.57.955-3.162,1.855-4.677,2.876s-3.03,2.042-4.523,3.1c-2.141,1.592-4.391,3.063-6.4,4.787l-2.2,1.757-2.064,1.877-2.064,1.855-1.976,1.866L38.924,38.1l-.812.736-.779.758-3.118,3.063a83.548,83.548,0,0,0-5.753,6.587l-1.8,2.338L24.773,54.35c-1.35,1.9-2.558,4.018-3.7,5.906-.582.933-1.1,1.866-1.515,2.712s-.845,1.6-1.175,2.2a12.636,12.636,0,0,0-.779,1.515,2.7,2.7,0,0,1-.263.571l1.515.834A15.831,15.831,0,0,1,19.953,66c.406-.67.823-1.35,1.2-2.042A101.881,101.881,0,0,1,31.667,48.125c.812-.955,1.647-1.888,2.492-2.811l1.274-1.383,1.3-1.306,2.69-2.613,2.8-2.492,1.175-1.1c.4-.351.812-.692,1.219-1.032.812-.692,1.614-1.394,2.4-2.1l.834-.736.856-.7,1.713-1.427,1.68-1.394,1.79-1.328c1.1-.8,2.262-1.647,3.436-2.393s2.459-1.493,3.557-2.273c.955-.637,1.954-1.219,2.92-1.855a29.164,29.164,0,0,1,2.975-1.779c1.032-.516,2.2-1.01,3.294-1.482.549-.231,1.1-.483,1.636-.7s1.1-.439,1.636-.681q4.831-2.2,9.793-4.018c1.23-.428,2.459-.878,3.689-1.328s2.5-.79,3.766-1.153c.944-.242,1.877-.516,2.832-.714l2.865-.56Z" transform="translate(1.661 0.696)"/>
        <path id="Path_85" data-name="Path 85" d="M96.678,12a13.109,13.109,0,0,0-2.053.736c-.329.143-.67.274-1.01.4a6.51,6.51,0,0,1-1.021.329c-1.284.285-2.58.527-3.886.769s-2.569.593-3.853.9c-.747.2-1.493.373-2.2.593l-2.2.758-1.91.714-.955.362-.933.406L72.9,19.685c-1.241.56-2.448,1.2-3.678,1.79-.6.307-1.219.6-1.822.922l-1.79.988c-.714.406-1.46.79-2.2,1.23q-4.051,2.712-7.872,5.709c-.692.549-1.449,1.01-2.2,1.537s-1.438,1.043-2.2,1.581-1.317.988-1.965,1.5l-1.888,1.6-1.9,1.6c-.615.549-1.208,1.1-1.811,1.691-2.273,2.064-4.391,4.3-6.455,6.587-1.669,2-3.294,4.04-4.809,6.126l-1.68,2.2-1.6,2.2-1.6,2.2L26.075,61.4c-.45.681-.977,1.317-1.416,2.02-.538.966-1.01,1.965-1.482,2.964s-.955,1.965-1.416,2.975l1.581.867a23.529,23.529,0,0,1,1.186-2.349L26.064,65.2c.494-.9,1.1-1.735,1.636-2.613l1.669-2.6,1.757-2.536a99.433,99.433,0,0,1,7.619-10.177A109.786,109.786,0,0,1,50.129,36.768c.472-.428.966-.812,1.471-1.2l1.493-1.164c.988-.779,1.965-1.581,3-2.306l3.074-2.2c1.1-.7,2.108-1.383,3.162-2.086,1.526-1.1,3.151-1.965,4.732-2.942s3.294-1.822,4.9-2.679a34.145,34.145,0,0,1,3.667-1.625l1.855-.747.922-.373.944-.329,2.613-.966a22.527,22.527,0,0,1,2.635-.889c1.2-.34,2.4-.637,3.6-.944s2.437-.516,3.634-.823a21.859,21.859,0,0,0,2.591-.889A21.958,21.958,0,0,1,97.04,13.8Z" transform="translate(2.093 1.174)"/>
        <path id="Path_86" data-name="Path 86" d="M97.241,15.44c-.34.088-2.756.758-5.489,1.8l-2.1.747c-.7.242-1.383.56-2.053.812-1.317.538-2.547.988-3.469,1.306-1.361.538-2.712,1.1-4.051,1.713-.681.274-1.339.6-2,.922s-1.328.6-2.009.889l-1.5.626-1.482.681-2.975,1.35c-.988.45-1.943.966-2.92,1.449l-1.471.736L65,28.845l-.714.406-3.974,2.284-3.875,2.492c-.977.637-1.91,1.35-2.854,2.031a32.858,32.858,0,0,0-2.767,2.2c-1.482,1.339-3.008,2.635-4.391,4.073l-2.108,2.119c-.7.714-1.35,1.471-2.042,2.2l-1.493,1.581c-.505.516-.966,1.1-1.449,1.625L37.89,51.483c-.472.549-.955,1.1-1.383,1.68C35.5,54.535,34.454,55.885,33.5,57.3l-2.822,4.26c-.692,1.1-1.416,2.2-2.2,3.294q-.56.8-1.1,1.647l-1.032,1.68c-.538.9-1.1,1.79-1.592,2.734l1.416.758c1.581-2.778,3.228-5.489,5.039-8.135.834-1.317,1.757-2.58,2.635-3.864,1.2-1.822,2.536-3.546,3.843-5.292l.571-.758.615-.725,1.208-1.449c.812-.966,1.614-1.943,2.492-2.854l2.569-2.778,2.7-2.657c1.1-1.1,2.2-2.086,3.294-3.129.56-.516,1.1-1.043,1.691-1.526s1.2-.933,1.8-1.394c.823-.593,1.625-1.208,2.47-1.768l2.569-1.625c1.691-1.1,3.5-2.009,5.248-3.019.911-.549,1.888-.977,2.832-1.46s1.9-.944,2.865-1.394l2.9-1.3,1.427-.681c.483-.22.977-.417,1.46-.626s1.361-.626,2.2-1.043c.428-.209.889-.439,1.372-.659l1.526-.67,3.294-1.46,3.447-1.35c1.1-.483,2.251-.845,3.294-1.2l2.832-.977c1.68-.494,2.832-.8,3.052-.845Z" transform="translate(2.387 1.51)"/>
        <path id="Path_87" data-name="Path 87" d="M191.8,27.446c-.472-.373-1.01-.692-1.471-1.1L188.849,25.1l-1.537-1.2-3.052-2.393c-1.043-.779-2.108-1.515-3.173-2.273s-2.119-1.515-3.228-2.2l-2.635-1.614c-.439-.253-.878-.538-1.328-.779l-1.361-.725c-1.833-.944-3.634-1.954-5.489-2.778a118.449,118.449,0,0,0-20.1-7.367c-.933-.3-1.9-.494-2.854-.725l-2.854-.692c-.955-.242-1.921-.428-2.887-.593l-2.9-.527L133.791,1.1,132.167.845,128.873.461c-1.1-.154-2.2-.209-3.294-.274L122.286.022c-3.974-.1-7.938.165-11.89.439-1.691.066-3.381.209-5.072.318l-2.536.176c-.845.066-1.68.209-2.525.329L96.354,1.9l-3.974.812.384,2.2,4.15-.856,4.15-.758c1.394-.263,2.8-.417,4.216-.571s2.811-.34,4.227-.406c1.954-.077,3.9-.187,5.852-.242h5.874l3.744.154a32.913,32.913,0,0,1,3.744.209c2.492.231,5,.417,7.454.889.966.165,1.921.351,2.887.549s1.9.472,2.854.725c1.888.505,3.777,1,5.643,1.614l3.4,1.021c1.1.373,2.2.779,3.359,1.164s2.2.747,3.294,1.208l3.294,1.328c.549.231,1.1.439,1.669.681l1.636.747,3.294,1.493c1.1.527,2.141,1.1,3.206,1.636s2.141,1.1,3.173,1.7l2.514,1.493c.845.505,1.691,1,2.492,1.559l2.459,1.713c.8.549,1.625,1.1,2.4,1.669,1.175.867,2.273,1.8,3.37,2.734s2.119,1.965,3.294,2.865Z" transform="translate(9.004 -0.001)"/>
        <path id="Path_88" data-name="Path 88" d="M189.042,30.364c-.812-.681-1.471-1.46-2.284-2.141-1.537-1.241-3.129-2.4-4.71-3.612s-3.294-2.2-4.929-3.294-3.59-2.1-5.412-3.107-3.7-1.888-5.577-2.778c-.933-.428-1.844-.878-2.767-1.328a26.637,26.637,0,0,0-2.8-1.306c-1.713-.637-3.414-1.306-5.16-1.866l-5.237-1.614c-2.58-.659-5.105-1.515-7.685-2.02-1.811-.4-3.634-.779-5.489-1.032s-3.656-.626-5.489-.845c-1.438-.2-2.876-.417-4.315-.648L122.8,4.29c-.725-.066-1.438-.176-2.2-.209l-2.2-.121-2.2-.088c-.725,0-1.46-.066-2.2,0l-2.942.11a19.361,19.361,0,0,0-3.348.2l-3.5.351c-.582.066-1.164.121-1.735.2l-1.669.263c-2.2.351-4.15.626-5.555.966l-2.273.494.3,1.7c.768-.176,1.548-.307,2.327-.428l2.327-.351,4.7-.747c1.57-.187,3.151-.34,4.732-.505s3.162-.22,4.754-.3l2.382-.088h2.371c1.252,0,2.5.088,3.755.143s2.492.253,3.733.384c2.492.231,4.951.725,7.422,1.1,1.1.143,2.086.4,3.14.582s2.086.384,3.14.549c1.46.274,2.9.6,4.391.889.725.154,1.46.274,2.2.461l2.2.571,2.02.56,1.01.3.988.34c1.328.45,2.646.911,3.974,1.339,1.1.362,2.2.769,3.294,1.1a31.344,31.344,0,0,1,3.294,1.23c1.1.494,2.13,1.1,3.173,1.6.527.285,1.1.538,1.57.834s1.032.593,1.548.867c1.559.845,3.151,1.6,4.666,2.5l2.295,1.306,1.1.648,1.1.7c1.1.7,2.2,1.372,3.359,2.053s2.2,1.46,3.239,2.2a57.712,57.712,0,0,1,4.545,3.667Z" transform="translate(9.064 0.375)"/>
        <path id="Path_89" data-name="Path 89" d="M185.529,34.238c-1.1-.878-2.569-1.394-3.689-2.284s-2.02-1.68-3.019-2.547-2.064-1.647-3.107-2.459l-1.855-1.383c-.648-.428-1.3-.834-1.954-1.23l-1.746-1.1c-.582-.351-1.175-.692-1.779-1.01l-3.612-1.91c-1.208-.626-2.459-1.164-3.689-1.746l-1.855-.8-1.888-.779c-.769-.307-1.526-.648-2.306-.922s-1.548-.494-2.327-.714l-2.338-.67c-1.548-.472-3.129-.812-4.7-1.208-.856-.22-1.7-.483-2.547-.747s-1.7-.461-2.558-.67l-2.4-.593c-.812-.2-1.625-.318-2.437-.483l-2.437-.461c-.406-.077-.8-.165-1.219-.231l-1.23-.209c-1.515-.2-3.041-.417-4.567-.582l-4.6-.318-.977-.055h-6.8c-1.833.077-3.667.066-5.489.165s-3.656.231-5.489.384c-.812.1-1.636.1-2.448.22-1.1.165-2.2.362-3.294.626s-2.075.659-3.173.867l.307,1.779c.856-.2,1.713-.4,2.58-.549s2.031-.318,3.052-.45L103,11.787l6.159-.538c2.108-.088,4.216-.3,6.346-.384h3.173a30.74,30.74,0,0,1,3.184.077c1.3.1,2.58.209,3.875.329s2.558.373,3.843.549c2.569.34,5.083.966,7.619,1.416l3.689.845,1.844.428,1.822.494,3.645,1.01,3.6,1.175a97.867,97.867,0,0,1,10.4,4.04,36.461,36.461,0,0,1,3.557,1.855c1.153.67,2.327,1.284,3.447,2.02l2.393,1.427,1.186.725a12.231,12.231,0,0,1,1.1.79c1.01.725,2,1.482,3,2.2s1.91,1.581,2.9,2.338c1.471,1.1,3.14,1.866,4.589,3.008Z" transform="translate(9.163 0.893)"/>
        <path id="Path_90" data-name="Path 90" d="M183.1,36.849c-.143-.121-.736-.527-1.592-1.1-.428-.285-.911-.637-1.46-.977l-1.779-1.1c-2.437-1.57-5.358-3.1-6.993-4.161-1.263-.747-2.569-1.416-3.864-2.119-.637-.351-1.3-.67-1.954-.988s-1.317-.659-1.954-1.01l-1.427-.79c-.483-.263-.966-.494-1.449-.736l-2.909-1.493c-.966-.505-1.976-.922-2.953-1.383s-1.976-.944-3-1.339l-4.271-1.691c-1.449-.505-2.9-.988-4.391-1.471-1.1-.406-2.251-.659-3.37-.977a30.263,30.263,0,0,0-3.414-.812l-2.953-.483c-.988-.154-1.976-.329-2.964-.406l-2.986-.307-1.482-.154-1.493-.088-4.391-.318c-1.46,0-2.909-.088-4.391-.1-3.414.055-6.829.34-10.21.692l-1.954.143-1.954.22c-1.3.143-2.613.231-3.908.4l-3.129.494.3,1.581c3.151-.549,6.324-.867,9.5-1.153,1.559-.088,3.118-.22,4.677-.362l3.294-.154,1.636-.088h6.368l.944.066,1.9.11c2.525.1,5.028.439,7.542.7a73.15,73.15,0,0,1,8.959,1.559,84.844,84.844,0,0,1,11.418,4.029c1,.373,1.943.889,2.909,1.317s1.921.889,2.865,1.372,1.877.988,2.822,1.46l1.416.7,1.405.747c.582.307,1.339.681,2.2,1.1s1.833.9,2.843,1.438,2.108,1.1,3.195,1.68l3.3,1.877c1.1.582,2.053,1.252,2.986,1.833s1.8,1.1,2.525,1.614c1.427,1.01,2.4,1.7,2.58,1.855Z" transform="translate(9.212 1.257)"/>
        <path id="Path_91" data-name="Path 91" d="M229.123,121.025c0-.593-.121-1.208-.11-1.811v-3.875c0-1.3-.055-2.591-.077-3.886s0-2.6-.143-3.886l-.329-3.886a97.469,97.469,0,0,0-2.2-12.153,123.91,123.91,0,0,0-6.785-20.31,111.993,111.993,0,0,0-5.171-10.572c-1.1-1.888-2.2-3.821-3.381-5.632l-1.779-2.734c-.593-.922-1.284-1.779-1.932-2.657s-1.219-1.581-1.833-2.36-1.3-1.5-1.943-2.251l-1.965-2.2c-.659-.736-1.361-1.438-2.031-2.2-1.1-1.252-2.2-2.569-3.4-3.777s-2.284-2.5-3.546-3.645l-3.008-2.723c-.494-.461-1.01-.9-1.537-1.317l-1.559-1.3L185,29.518c2.2,1.757,4.315,3.645,6.444,5.489,1.043.955,2.042,1.954,3.063,2.942.505.494,1.021.988,1.515,1.493l1.427,1.57,1.954,2.2c.67.725,1.252,1.5,1.888,2.2l1.822,2.371c.626.758,1.186,1.559,1.79,2.338l2.251,2.986,2.141,3.074,1.1,1.548.988,1.6c.648,1.1,1.3,2.2,1.932,3.228.933,1.713,1.757,3.5,2.58,5.27l2.262,5.423c.45,1.1.834,2.2,1.263,3.294s.878,2.2,1.23,3.294l1.1,3.381.549,1.691.472,1.713.966,3.458c.318,1.164.549,2.338.834,3.5s.56,2.338.768,3.524l.6,3.535c.373,1.932.516,3.886.736,5.819s.318,3.9.439,5.841c0,.736.066,1.449.066,2.2s-.066,1.449-.1,2.2c-.088,1.449-.176,2.876-.165,4.326Z" transform="translate(18.068 2.726)"/>
        <path id="Path_92" data-name="Path 92" d="M225.107,120.662c0-1.1.2-2.053.2-3.118V114.58l-.143-2.964L225,108.651c-.088-.988-.209-1.976-.318-2.953l-.4-3.1-.56-3.063c-.187-1.021-.362-2.053-.571-3.063l-.714-3.041c-.242-.988-.406-2-.648-3s-.505-1.987-.79-2.964-.516-1.757-.823-2.624l-.933-2.569-.944-2.569-1.1-2.536-.758-1.844c-.242-.626-.494-1.241-.779-1.844l-1.658-3.634c-.384-.845-.845-1.647-1.284-2.47l-1.328-2.448c-.428-.812-.911-1.614-1.383-2.4s-.933-1.6-1.383-2.415c-.681-1.284-1.482-2.5-2.2-3.755s-1.471-2.514-2.295-3.711-1.592-2.437-2.437-3.623-1.757-2.327-2.657-3.469a27.2,27.2,0,0,0-1.91-2.2l-2.2-2.492c-.79-.856-1.658-1.669-2.481-2.5s-1.636-1.669-2.47-2.393c-1.658-1.471-3.107-2.822-4.227-3.733l-1.811-1.46-1.1,1.3c1.241.966,2.36,2.086,3.513,3.162l1.768,1.581c.593.527,1.186,1.1,1.746,1.625l3.37,3.348,3.129,3.5c1.1,1.175,2.02,2.448,3.008,3.689.384.494.78.988,1.153,1.493l1.1,1.548c.7,1.032,1.405,2.075,2.075,3.129l1.9,3.228.955,1.614.878,1.658,1.537,2.789c.527.933.977,1.9,1.482,2.832,1.438,2.591,2.723,5.27,3.974,7.959,1.043,2.591,2.075,5.193,2.942,7.85.373,1.1.834,2.2,1.208,3.294s.714,2.2,1.021,3.294c.165.571.3,1.1.439,1.724l.3,1.757c.2,1.175.384,2.349.637,3.5.329,1.735.6,3.469.933,5.2.176.867.285,1.746.406,2.613l.351,2.624c.088.648.2,1.3.274,1.943l.2,1.954c.121,1.306.263,2.613.329,3.919v5.841Z" transform="translate(17.858 3.011)"/>
        <path id="Path_93" data-name="Path 93" d="M219.9,120.362c0-1.449-.6-2.887-.549-4.315s.066-2.635.088-3.952.088-2.646,0-3.974c-.077-1.526-.165-3.074-.329-4.6-.165-1.35-.417-2.69-.626-4.029l-.329-2.02-.4-2.042c-.3-1.328-.56-2.668-.889-3.985l-1.1-3.941-.318-1.208c-.132-.4-.264-.79-.417-1.175-.593-1.5-1.1-3.03-1.8-4.512s-1.328-2.953-1.965-4.391-1.383-3.294-2.086-4.885-1.46-2.964-2.2-4.391c-.351-.747-.768-1.46-1.175-2.2l-1.219-2.2c-.725-1.361-1.592-2.635-2.415-3.93l-1.241-1.943-1.317-1.866c-.779-1.032-1.537-2.1-2.393-3.074s-1.68-1.976-2.492-3c-.56-.725-1.175-1.394-1.768-2.086l-1.79-2.086c-1.2-1.383-2.481-2.69-3.722-4.029-.549-.615-1.1-1.241-1.691-1.8-.812-.747-1.669-1.449-2.525-2.2s-1.768-1.306-2.613-2.02l-1.2,1.35c.692.538,1.383,1.1,2.042,1.658,1.5,1.405,3.019,2.811,4.468,4.271l2.13,2.2,1.1,1.1,1.032,1.1c.714.79,1.438,1.57,2.2,2.338s1.394,1.592,2.1,2.382,1.339,1.7,2.031,2.569,1.274,1.7,1.888,2.558l1.1,1.592,1.032,1.647c.67,1.1,1.361,2.2,2,3.294,1.219,2.284,2.492,4.534,3.6,6.862s2.2,4.556,3.294,6.84c.516,1.1.955,2.338,1.438,3.5l.714,1.757c.242.582.428,1.186.648,1.779.593,1.757,1.306,3.48,1.811,5.27s1.1,3.546,1.5,5.38c.3,1.3.56,2.6.8,3.919l.538,3.963.209,1.383.165,1.383c.1.922.2,1.844.263,2.767,0,.615.1,1.241.1,1.855v5.588c0,1.833.483,3.634.516,5.489Z" transform="translate(17.523 3.377)"/>
        <path id="Path_94" data-name="Path 94" d="M216.271,120.1c0-.351-.253-2.865-.538-5.742-.22-1.438-.439-2.975-.626-4.391a7.793,7.793,0,0,0-.132-1.032c-.044-.329-.11-.659-.165-.966-.1-.626-.187-1.186-.242-1.669a41.78,41.78,0,0,0-.736-4.391c-.318-1.427-.56-2.876-.845-4.315-.22-1.1-.417-2.13-.615-3.195l-.263-1.559-.362-1.592-.736-3.195c-.253-1.1-.571-2.1-.867-3.151l-.615-2.2c-.231-.725-.483-1.449-.725-2.2-.505-1.449-.944-2.931-1.548-4.391l-1.317-3.294c-.45-1.1-.988-2.119-1.526-3.162-.472-.867-.9-1.779-1.427-2.624l-1.559-2.558-.8-1.153-.834-1.241L198.134,59.6c-.384-.615-.812-1.208-1.23-1.79l-1.263-1.833c-.417-.582-.812-1.2-1.263-1.768l-1.361-1.7-1.625-1.965c-.571-.648-1.164-1.263-1.746-1.888l-1.691-1.866c-.582-.626-1.208-1.208-1.8-1.822l-1.383-1.405c-.439-.483-.889-.955-1.361-1.416l-2.767-2.789c-.747-.736-1.548-1.427-2.327-2.13l-1.1,1.208,1.779,1.6c.582.549,1.1,1.1,1.7,1.68,1.1,1.1,2.284,2.2,3.294,3.425l1.691,1.713.812.845.779.867,2.2,2.426c.747.8,1.405,1.669,2.1,2.514,1.636,1.921,3.085,3.985,4.589,6.016.714,1.043,1.394,2.108,2.1,3.151.34.527.714,1.1,1.1,1.581l.966,1.625a71.271,71.271,0,0,1,4.391,7.97c.4.933.768,1.866,1.1,2.811l.549,1.416.483,1.438.933,2.887c.329.944.538,1.943.823,2.9s.571,2.053.823,3.085l.67,3.107c.516,2.053.79,4.161,1.274,6.214.165.648.318,1.471.505,2.415s.428,1.987.67,3.107.406,2.338.626,3.546.461,2.459.593,3.667.307,2.393.45,3.48.176,2.108.263,2.986c.132,1.746.22,2.942.22,3.173Z" transform="translate(17.307 3.643)"/>
      </g>
      <text id="Sprint_Backlog" data-name="Sprint Backlog" transform="translate(-13895 -23449)" fill="rgba(0,0,0,0.87)" font-size="17" font-family="Montserrat-ExtraBold, Montserrat" font-weight="800"><tspan x="0" y="0">Sprint Backlog</tspan></text>
      <g id="Group_1655-2" data-name="Group 1655" transform="translate(-14535.441 -23478.029)">
        <path id="Path_2463-2" data-name="Path 2463" d="M653.646,65.749c9.08-1.106,18.1,2.7,27.247,2.46,19.943-.522,36.5-19.818,56.207-16.874,7.88,1.177,14.609,5.8,21.594,9.459s15.395,6.445,22.817,3.675" transform="translate(0)" fill="none" stroke="rgba(0,0,0,0.87)" stroke-miterlimit="10" stroke-width="3"/>
        <path id="Path_2464-2" data-name="Path 2464" d="M652.21,88.934a82.691,82.691,0,0,0,47.911-5.414c9.74-4.264,20.4-10.588,30.341-6.754,2.65,1.023,4.947,2.705,7.423,4.062,11.966,6.553,26.825,5.014,40.523,3.275" fill="none" stroke="rgba(0,0,0,0.87)" stroke-miterlimit="10" stroke-width="3"/>
        <path id="Path_2465-2" data-name="Path 2465" d="M651.441,109.059a100.008,100.008,0,0,0,50.612-4.539c10.511-3.826,21.205-9.557,32.29-7.677,7.238,1.227,13.393,5.564,20.138,8.337s15.489,3.639,20.706-1.266" transform="translate(0)" fill="none" stroke="rgba(0,0,0,0.87)" stroke-miterlimit="10" stroke-width="3"/>
      </g>
      <g id="Rectangle_49-2" data-name="Rectangle 49" transform="translate(-13917 -23482)" fill="none" stroke="rgba(0,0,0,0.87)" stroke-width="3">
        <rect width="178" height="136" stroke="none"/>
        <rect x="1.5" y="1.5" width="175" height="133" fill="none"/>
      </g>
      <g id="Ellipse_3" data-name="Ellipse 3" transform="translate(-13903 -23421)" fill="#fff" stroke="rgba(0,0,0,0.87)" stroke-width="2">
        <circle cx="8" cy="8" r="8" stroke="none"/>
        <circle cx="8" cy="8" r="7" fill="none"/>
      </g>
      <g id="Ellipse_4" data-name="Ellipse 4" transform="translate(-13903 -23399)" fill="#fff" stroke="rgba(0,0,0,0.87)" stroke-width="2">
        <circle cx="8" cy="8" r="8" stroke="none"/>
        <circle cx="8" cy="8" r="7" fill="none"/>
      </g>
      <g id="Ellipse_5" data-name="Ellipse 5" transform="translate(-13903 -23377)" fill="#fff" stroke="rgba(0,0,0,0.87)" stroke-width="2">
        <circle cx="8" cy="8" r="8" stroke="none"/>
        <circle cx="8" cy="8" r="7" fill="none"/>
      </g>
      <text id="Product_Backlog" data-name="Product Backlog" transform="translate(-14394 -23447)" fill="rgba(0,0,0,0.87)" font-size="17" font-family="Montserrat-ExtraBold, Montserrat" font-weight="800"><tspan x="0" y="0">Product Backlog</tspan></text>
      <g id="Group_1655-3" data-name="Group 1655" transform="translate(-15025.441 -23478.029)">
        <path id="Path_2463-3" data-name="Path 2463" d="M653.646,65.749c9.08-1.106,18.1,2.7,27.247,2.46,19.943-.522,36.5-19.818,56.207-16.874,7.88,1.177,14.609,5.8,21.594,9.459s15.395,6.445,22.817,3.675" transform="translate(0)" fill="none" stroke="rgba(0,0,0,0.87)" stroke-miterlimit="10" stroke-width="3"/>
        <path id="Path_2464-3" data-name="Path 2464" d="M652.21,88.934a82.691,82.691,0,0,0,47.911-5.414c9.74-4.264,20.4-10.588,30.341-6.754,2.65,1.023,4.947,2.705,7.423,4.062,11.966,6.553,26.825,5.014,40.523,3.275" fill="none" stroke="rgba(0,0,0,0.87)" stroke-miterlimit="10" stroke-width="3"/>
        <path id="Path_2465-3" data-name="Path 2465" d="M651.441,109.059a100.008,100.008,0,0,0,50.612-4.539c10.511-3.826,21.205-9.557,32.29-7.677,7.238,1.227,13.393,5.564,20.138,8.337s15.489,3.639,20.706-1.266" transform="translate(0)" fill="none" stroke="rgba(0,0,0,0.87)" stroke-miterlimit="10" stroke-width="3"/>
      </g>
      <g id="Rectangle_49-3" data-name="Rectangle 49" transform="translate(-14407 -23482)" fill="none" stroke="rgba(0,0,0,0.87)" stroke-width="3">
        <rect width="178" height="136" stroke="none"/>
        <rect x="1.5" y="1.5" width="175" height="133" fill="none"/>
      </g>
      <g id="Ellipse_3-2" data-name="Ellipse 3" transform="translate(-14393 -23421)" fill="#fff" stroke="rgba(0,0,0,0.87)" stroke-width="2">
        <circle cx="8" cy="8" r="8" stroke="none"/>
        <circle cx="8" cy="8" r="7" fill="none"/>
      </g>
      <g id="Ellipse_4-2" data-name="Ellipse 4" transform="translate(-14393 -23399)" fill="#fff" stroke="rgba(0,0,0,0.87)" stroke-width="2">
        <circle cx="8" cy="8" r="8" stroke="none"/>
        <circle cx="8" cy="8" r="7" fill="none"/>
      </g>
      <g id="Ellipse_5-2" data-name="Ellipse 5" transform="translate(-14393 -23377)" fill="#fff" stroke="rgba(0,0,0,0.87)" stroke-width="2">
        <circle cx="8" cy="8" r="8" stroke="none"/>
        <circle cx="8" cy="8" r="7" fill="none"/>
      </g>
      <rect id="Rectangle_45" data-name="Rectangle 45" width="60" height="145" rx="10" transform="translate(-12955.5 -23444.5) rotate(90)" fill="#2e90b4"/>
      <text id="Sprint_Review" data-name="Sprint Review" transform="translate(-13028 -23409)" fill="#fff" font-size="16" font-family="Montserrat-SemiBold, Montserrat" font-weight="600"><tspan x="-57.16" y="0">Sprint Review</tspan></text>
      <rect id="Rectangle_57" data-name="Rectangle 57" width="175" height="80" transform="translate(-13863 -23127)" fill="rgba(243,229,171,0.5)"/>
      <text id="Prototyping" transform="translate(-13775 -23080)" font-size="20" font-family="Montserrat-SemiBold, Montserrat" font-weight="600"><tspan x="-61.68" y="0">Prototyping</tspan></text>
      <rect id="Rectangle_59" data-name="Rectangle 59" width="175" height="80" transform="translate(-13861 -23221)" fill="rgba(243,229,171,0.5)"/>
      <text id="Wireframes" transform="translate(-13773 -23174)" font-size="20" font-family="Montserrat-SemiBold, Montserrat" font-weight="600"><tspan x="-61.18" y="0">Wireframes</tspan></text>
      <rect id="Rectangle_52" data-name="Rectangle 52" width="175" height="80" transform="translate(-14555 -23741)" fill="rgba(243,229,171,0.5)"/>
      <text id="Design_Sprint" data-name="Design Sprint" transform="translate(-14467 -23694)" font-size="20" font-family="Montserrat-SemiBold, Montserrat" font-weight="600"><tspan x="-70.35" y="0">Design Sprint</tspan></text>
      <rect id="Rectangle_150" data-name="Rectangle 150" width="175" height="80" transform="translate(-14555 -23651)" fill="rgba(243,229,171,0.5)"/>
      <text id="Research" transform="translate(-14467 -23604)" font-size="20" font-family="Montserrat-SemiBold, Montserrat" font-weight="600"><tspan x="-47.53" y="0">Research</tspan></text>
      <g id="Rectangle_51" data-name="Rectangle 51" transform="translate(-14567 -23758)" fill="none" stroke="orange" stroke-width="3" stroke-dasharray="5">
        <rect width="203" height="204" stroke="none"/>
        <rect x="1.5" y="1.5" width="200" height="201" fill="none"/>
      </g>
      <circle id="Ellipse_1" data-name="Ellipse 1" cx="16" cy="16" r="16" transform="translate(-14580 -23772)"/>
      <text id="_1" data-name="1" transform="translate(-14568 -23749)" fill="#fff" font-size="20" font-family="Montserrat-ExtraBold, Montserrat" font-weight="800"><tspan x="0" y="0">1</tspan></text>
      <line id="Line_2" data-name="Line 2" x2="49" y2="62" transform="translate(-14472.5 -23546.5)" fill="none" stroke="orange" stroke-width="3" stroke-dasharray="5"/>
      <line id="Line_4" data-name="Line 4" y1="94" x2="50" transform="translate(-14142.5 -23362.5)" fill="none" stroke="orange" stroke-width="3" stroke-dasharray="5"/>
      <line id="Line_6" data-name="Line 6" x1="25" y1="74" transform="translate(-13804.5 -23327.5)" fill="none" stroke="orange" stroke-width="3" stroke-dasharray="5"/>
      <line id="Line_7" data-name="Line 7" x1="68" y1="87" transform="translate(-13442.5 -23302.5)" fill="none" stroke="orange" stroke-width="3" stroke-dasharray="5"/>
      <line id="Line_15" data-name="Line 15" y1="79" x2="55" transform="translate(-13726.5 -23329.5)" fill="none" stroke="orange" stroke-width="3" stroke-dasharray="5"/>
      <line id="Line_9" data-name="Line 9" x1="16" y1="115" transform="translate(-13272.5 -23326.5)" fill="none" stroke="orange" stroke-width="3" stroke-dasharray="5"/>
      <line id="Line_8" data-name="Line 8" x1="27" y2="85" transform="translate(-12990.5 -23542.5)" fill="none" stroke="orange" stroke-width="3" stroke-dasharray="5"/>
      <g id="Polygon_1" data-name="Polygon 1" transform="translate(-14424.809 -23490.818) rotate(21)" fill="orange">
        <path d="M 11.11690044403076 9.5 L 0.8830999732017517 9.5 L 6 0.971833348274231 L 11.11690044403076 9.5 Z" stroke="none"/>
        <path d="M 6 1.943650245666504 L 1.766189575195312 9 L 10.23381042480469 9 L 6 1.943650245666504 M 6 0 L 12 10 L 0 10 L 6 0 Z" stroke="none" fill="orange"/>
      </g>
      <g id="Polygon_3" data-name="Polygon 3" transform="matrix(0.891, 0.454, -0.454, 0.891, -14090.772, -23378.738)" fill="orange">
        <path d="M 11.11690044403076 9.5 L 0.8830999732017517 9.5 L 6 0.971833348274231 L 11.11690044403076 9.5 Z" stroke="none"/>
        <path d="M 6 1.943650245666504 L 1.766189575195312 9 L 10.23381042480469 9 L 6 1.943650245666504 M 6 0 L 12 10 L 0 10 L 6 0 Z" stroke="none" fill="orange"/>
      </g>
      <path id="Polygon_9" data-name="Polygon 9" d="M6,0l6,10H0Z" transform="matrix(0.809, 0.588, -0.588, 0.809, -14419.611, -23340.131)" fill="rgba(0,0,0,0.35)"/>
      <g id="Polygon_5" data-name="Polygon 5" transform="translate(-13814.237 -23336.711) rotate(-18)" fill="orange">
        <path d="M 11.11690044403076 9.5 L 0.8830999732017517 9.5 L 6 0.971833348274231 L 11.11690044403076 9.5 Z" stroke="none"/>
        <path d="M 6 1.943650245666504 L 1.766189575195312 9 L 10.23381042480469 9 L 6 1.943650245666504 M 6 0 L 12 10 L 0 10 L 6 0 Z" stroke="none" fill="orange"/>
      </g>
      <g id="Polygon_10" data-name="Polygon 10" transform="matrix(0.839, 0.545, -0.545, 0.839, -13669.295, -23344.271)" fill="orange">
        <path d="M 11.11690044403076 9.5 L 0.8830999732017517 9.5 L 6 0.971833348274231 L 11.11690044403076 9.5 Z" stroke="none"/>
        <path d="M 6 1.943650245666504 L 1.766189575195312 9 L 10.23381042480469 9 L 6 1.943650245666504 M 6 0 L 12 10 L 0 10 L 6 0 Z" stroke="none" fill="orange"/>
      </g>
      <g id="Polygon_6" data-name="Polygon 6" transform="translate(-13441.176 -23295.992) rotate(-159)" fill="orange">
        <path d="M 11.11690044403076 9.5 L 0.8830999732017517 9.5 L 6 0.971833348274231 L 11.11690044403076 9.5 Z" stroke="none"/>
        <path d="M 6 1.943650245666504 L 1.766189575195312 9 L 10.23381042480469 9 L 6 1.943650245666504 M 6 0 L 12 10 L 0 10 L 6 0 Z" stroke="none" fill="orange"/>
      </g>
      <g id="Polygon_8" data-name="Polygon 8" transform="matrix(-0.643, -0.766, 0.766, -0.643, -13274.959, -23323)" fill="orange">
        <path d="M 11.11690044403076 9.5 L 0.8830999732017517 9.5 L 6 0.971833348274231 L 11.11690044403076 9.5 Z" stroke="none"/>
        <path d="M 6 1.943650245666504 L 1.766189575195312 9 L 10.23381042480469 9 L 6 1.943650245666504 M 6 0 L 12 10 L 0 10 L 6 0 Z" stroke="none" fill="orange"/>
      </g>
      <g id="Polygon_7" data-name="Polygon 7" transform="matrix(0.225, 0.974, -0.974, 0.225, -12985.642, -23462.459)" fill="orange">
        <path d="M 11.11690044403076 9.5 L 0.8830999732017517 9.5 L 6 0.971833348274231 L 11.11690044403076 9.5 Z" stroke="none"/>
        <path d="M 6 1.943650245666504 L 1.766189575195312 9 L 10.23381042480469 9 L 6 1.943650245666504 M 6 0 L 12 10 L 0 10 L 6 0 Z" stroke="none" fill="orange"/>
      </g>
      <g id="Rectangle_63" data-name="Rectangle 63" transform="translate(-13878 -23239)" fill="none" stroke="orange" stroke-width="3" stroke-dasharray="5">
        <rect width="209" height="300" stroke="none"/>
        <rect x="1.5" y="1.5" width="206" height="297" fill="none"/>
      </g>
      <rect id="Rectangle_54" data-name="Rectangle 54" width="175" height="80" transform="translate(-14297 -23238)" fill="rgba(243,229,171,0.5)"/>
      <text id="Whiteboarding_Sketching" data-name="Whiteboarding
&amp; Sketching" transform="translate(-14210 -23203)" font-size="20" font-family="Montserrat-SemiBold, Montserrat" font-weight="600"><tspan x="-78.47" y="0">Whiteboarding</tspan><tspan x="-61.87" y="24">&amp; Sketching</tspan></text>
      <rect id="Rectangle_60" data-name="Rectangle 60" width="175" height="80" transform="translate(-14297 -23044)" fill="rgba(243,229,171,0.5)"/>
      <text id="User_Flows" data-name="User Flows" transform="translate(-14210 -22997)" font-size="20" font-family="Montserrat-SemiBold, Montserrat" font-weight="600"><tspan x="-56.05" y="0">User Flows</tspan></text>
      <rect id="Rectangle_55" data-name="Rectangle 55" width="175" height="80" transform="translate(-14297 -23139)" fill="rgba(243,229,171,0.5)"/>
      <text id="Group_Brainstorming" data-name="Group
Brainstorming" transform="translate(-14210 -23104)" font-size="20" font-family="Montserrat-SemiBold, Montserrat" font-weight="600"><tspan x="-31.94" y="0">Group</tspan><tspan x="-74.61" y="24">Brainstorming</tspan></text>
      <g id="Rectangle_58" data-name="Rectangle 58" transform="translate(-14314 -23256)" fill="none" stroke="orange" stroke-width="3" stroke-dasharray="5">
        <rect width="207" height="310" stroke="none"/>
        <rect x="1.5" y="1.5" width="204" height="307" fill="none"/>
      </g>
      <circle id="Ellipse_15" data-name="Ellipse 15" cx="16" cy="16" r="16" transform="translate(-14327 -23272)"/>
      <text id="_2" data-name="2" transform="translate(-14317 -23249)" fill="#fff" font-size="20" font-family="Montserrat-ExtraBold, Montserrat" font-weight="800"><tspan x="0" y="0">2</tspan></text>
      <text id="Design_Development_shared_backlog" data-name="Design &amp;
Development
shared backlog" transform="translate(-14575 -23240)" fill="rgba(0,0,0,0.7)" font-size="16" font-family="Montserrat-SemiBold, Montserrat" font-weight="600"><tspan x="0" y="0">Design &amp;</tspan><tspan x="0" y="19">Development</tspan><tspan x="0" y="38">shared backlog</tspan></text>
      <g id="Rectangle_58-2" data-name="Rectangle 58" transform="translate(-14586 -23268)" fill="none" stroke="rgba(0,0,0,0.35)" stroke-width="3" stroke-dasharray="5">
        <rect width="149" height="82" stroke="none"/>
        <rect x="1.5" y="1.5" width="146" height="79" fill="none"/>
      </g>
      <circle id="Ellipse_16" data-name="Ellipse 16" cx="16" cy="16" r="16" transform="translate(-13890 -23253)"/>
      <text id="_3" data-name="3" transform="translate(-13880 -23230)" fill="#fff" font-size="20" font-family="Montserrat-ExtraBold, Montserrat" font-weight="800"><tspan x="0" y="0">3</tspan></text>
      <g id="Group_1811" data-name="Group 1811" transform="translate(-14659 -23971)">
        <rect id="Rectangle_62" data-name="Rectangle 62" width="175" height="80" transform="translate(1657 238)" fill="rgba(243,229,171,0.5)"/>
      </g>
      <text id="Design_Reviews" data-name="Design
Reviews" transform="translate(-12914 -23698)" font-size="20" font-family="Montserrat-SemiBold, Montserrat" font-weight="600"><tspan x="-36.31" y="0">Design</tspan><tspan x="-42.49" y="24">Reviews</tspan></text>
      <rect id="Rectangle_64" data-name="Rectangle 64" width="175" height="80" transform="translate(-13002 -23642)" fill="rgba(243,229,171,0.5)"/>
      <text id="Research_Synthesis" data-name="Research
Synthesis" transform="translate(-12914 -23607)" font-size="20" font-family="Montserrat-SemiBold, Montserrat" font-weight="600"><tspan x="-47.53" y="0">Research</tspan><tspan x="-49.37" y="24">Synthesis</tspan></text>
      <g id="Rectangle_67" data-name="Rectangle 67" transform="translate(-13018 -23749)" fill="none" stroke="orange" stroke-width="3" stroke-dasharray="5">
        <rect width="206" height="202" stroke="none"/>
        <rect x="1.5" y="1.5" width="203" height="199" fill="none"/>
      </g>
      <circle id="Ellipse_18" data-name="Ellipse 18" cx="16" cy="16" r="16" transform="translate(-13029 -23759)"/>
      <text id="_5" data-name="5" transform="translate(-13019 -23736)" fill="#fff" font-size="20" font-family="Montserrat-ExtraBold, Montserrat" font-weight="800"><tspan x="0" y="0">5</tspan></text>
      <rect id="Rectangle_65" data-name="Rectangle 65" width="175" height="80" transform="translate(-13861 -23033)" fill="rgba(243,229,171,0.5)"/>
      <text id="Qualitative_User_Research" data-name="Qualitative
User Research" transform="translate(-13773 -22997)" font-size="20" font-family="Montserrat-SemiBold, Montserrat" font-weight="600"><tspan x="-56.37" y="0">Qualitative</tspan><tspan x="-73.75" y="24">User Research</tspan></text>
      <g id="Rectangle_66" data-name="Rectangle 66" transform="translate(-13392 -23204)" fill="none" stroke="orange" stroke-width="3" stroke-dasharray="5">
        <rect width="207" height="296" stroke="none"/>
        <rect x="1.5" y="1.5" width="204" height="293" fill="none"/>
      </g>
      <circle id="Ellipse_17" data-name="Ellipse 17" cx="16" cy="16" r="16" transform="translate(-13408 -23215)"/>
      <text id="_4" data-name="4" transform="translate(-13399 -23192)" fill="#fff" font-size="20" font-family="Montserrat-ExtraBold, Montserrat" font-weight="800"><tspan x="0" y="0">4</tspan></text>
      <rect id="Rectangle_89" data-name="Rectangle 89" width="175" height="80" transform="translate(-13376 -23093)" fill="rgba(243,229,171,0.5)"/>
      <rect id="Rectangle_1656" data-name="Rectangle 1656" width="175" height="80" transform="translate(-13375 -23003)" fill="rgba(243,229,171,0.5)"/>
      <rect id="Rectangle_151" data-name="Rectangle 151" width="175" height="80" transform="translate(-13376 -23183)" fill="rgba(243,229,171,0.5)"/>
      <text id="HTML_CSS" data-name="HTML &amp; CSS" transform="translate(-13288 -23136)" font-size="20" font-family="Montserrat-SemiBold, Montserrat" font-weight="600"><tspan x="-62.05" y="0">HTML &amp; CSS</tspan></text>
      <text id="Design_System" data-name="Design System" transform="translate(-13288 -23046)" font-size="20" font-family="Montserrat-SemiBold, Montserrat" font-weight="600"><tspan x="-76.93" y="0">Design System</tspan></text>
      <text id="UI_Component_Library" data-name="UI Component
Library" transform="translate(-13288 -22967)" font-size="20" font-family="Montserrat-SemiBold, Montserrat" font-weight="600"><tspan x="-75.41" y="0">UI Component</tspan><tspan x="-36.06" y="24">Library</tspan></text>
      <line id="Line_10" data-name="Line 10" y1="48" x2="43" transform="translate(-14465.5 -23326.5)" fill="none" stroke="rgba(0,0,0,0.35)" stroke-width="3" stroke-dasharray="5"/>
    </g>
  </g>
</svg>
