<svg xmlns="http://www.w3.org/2000/svg" xmlns:xlink="http://www.w3.org/1999/xlink" width="1000" viewBox="0 0 1000 765" style="max-width:100%;">
  <defs>
    <clipPath id="clip-path">
      <path id="Shape" d="M337.912-26.667h11.947a1.912,1.912,0,0,1,1.912,1.912v4.3h0a1.912,1.912,0,0,1-1.912,1.912H337.912A1.912,1.912,0,0,1,336-20.454v-4.3h0A1.912,1.912,0,0,1,337.912-26.667Z" transform="translate(-336 26.667)" fill="none" clip-rule="evenodd"/>
    </clipPath>
    <clipPath id="clip-path-2">
      <path id="Shape-2" data-name="Shape" d="M359-23v2.867a1.556,1.556,0,0,0,.952-1.434A1.556,1.556,0,0,0,359-23" transform="translate(-359 23)" fill="#29339b"/>
    </clipPath>
    <clipPath id="clip-path-3">
      <path id="Shape-3" data-name="Shape" d="M338.956-24.667h10.991a.956.956,0,0,1,.956.956v3.345h0a.956.956,0,0,1-.956.956H338.956a.956.956,0,0,1-.956-.956v-3.345h0A.956.956,0,0,1,338.956-24.667Z" transform="translate(-338 24.667)" fill="#29339b"/>
    </clipPath>
    <clipPath id="clip-path-4">
      <path id="Shape-4" data-name="Shape" d="M321.168-25.037a6.194,6.194,0,0,1,4.267,1.7.221.221,0,0,0,.311,0l.829-.836a.23.23,0,0,0,.067-.164.231.231,0,0,0-.069-.163,7.812,7.812,0,0,0-10.81,0,.231.231,0,0,0-.069.163.231.231,0,0,0,.067.164l.829.836a.221.221,0,0,0,.311,0,6.194,6.194,0,0,1,4.268-1.7Zm0,2.721a3.517,3.517,0,0,1,2.361.91.223.223,0,0,0,.311,0l.828-.836a.231.231,0,0,0,.067-.165.231.231,0,0,0-.07-.164,5.132,5.132,0,0,0-6.991,0,.231.231,0,0,0-.07.164.231.231,0,0,0,.067.165l.827.836a.223.223,0,0,0,.311,0,3.517,3.517,0,0,1,2.36-.91Zm1.591,2a.225.225,0,0,0,.067-.165.225.225,0,0,0-.074-.162,2.453,2.453,0,0,0-3.168,0,.225.225,0,0,0-.074.162.225.225,0,0,0,.067.165l1.432,1.445a.223.223,0,0,0,.159.066.224.224,0,0,0,.159-.066Z" transform="translate(-315.694 26.669)" fill="#29339b"/>
    </clipPath>
    <clipPath id="clip-path-5">
      <path id="Shape-5" data-name="Shape" d="M294.384-21.554h.717a.717.717,0,0,1,.717.717V-19.4a.717.717,0,0,1-.717.717h-.717a.717.717,0,0,1-.717-.717v-1.434a.717.717,0,0,1,.717-.717Zm3.345-1.434h.717a.717.717,0,0,1,.717.717V-19.4a.717.717,0,0,1-.717.717h-.717a.717.717,0,0,1-.717-.717v-2.867A.717.717,0,0,1,297.729-22.988Zm3.345-1.673h.717a.717.717,0,0,1,.717.717v4.54a.717.717,0,0,1-.717.717h-.717a.717.717,0,0,1-.717-.717v-4.54A.717.717,0,0,1,301.074-24.661Zm3.345-1.673h.717a.717.717,0,0,1,.717.717V-19.4a.717.717,0,0,1-.717.717h-.717a.717.717,0,0,1-.717-.717v-6.213a.717.717,0,0,1,.717-.717Z" transform="translate(-293.667 26.333)" fill="#29339b"/>
    </clipPath>
    <clipPath id="clip-path-9">
      <path id="Shape-9" data-name="Shape" d="M321.168-25.037a6.194,6.194,0,0,1,4.267,1.7.221.221,0,0,0,.311,0l.829-.836a.231.231,0,0,0,.067-.164.23.23,0,0,0-.069-.163,7.812,7.812,0,0,0-10.81,0,.231.231,0,0,0-.069.163.231.231,0,0,0,.067.164l.829.836a.221.221,0,0,0,.311,0,6.194,6.194,0,0,1,4.268-1.7Zm0,2.721a3.517,3.517,0,0,1,2.361.91.223.223,0,0,0,.311,0l.828-.836a.231.231,0,0,0,.067-.165.231.231,0,0,0-.07-.164,5.132,5.132,0,0,0-6.991,0,.231.231,0,0,0-.07.164.231.231,0,0,0,.067.165l.827.836a.223.223,0,0,0,.311,0,3.517,3.517,0,0,1,2.36-.91Zm1.591,2a.225.225,0,0,0,.067-.165.225.225,0,0,0-.074-.162,2.453,2.453,0,0,0-3.168,0,.225.225,0,0,0-.074.162.225.225,0,0,0,.067.165l1.432,1.445a.223.223,0,0,0,.159.066.223.223,0,0,0,.159-.066Z" transform="translate(-315.694 26.669)" fill="#29339b"/>
    </clipPath>
    <clipPath id="clip-path-15">
      <path id="Shape-15" data-name="Shape" d="M294.383-21.554h.717a.717.717,0,0,1,.717.717V-19.4a.717.717,0,0,1-.717.717h-.717a.717.717,0,0,1-.717-.717v-1.434a.717.717,0,0,1,.717-.717Zm3.345-1.434h.717a.717.717,0,0,1,.717.717V-19.4a.717.717,0,0,1-.717.717h-.717a.717.717,0,0,1-.717-.717v-2.867A.717.717,0,0,1,297.729-22.988Zm3.345-1.673h.717a.717.717,0,0,1,.717.717v4.54a.717.717,0,0,1-.717.717h-.717a.717.717,0,0,1-.717-.717v-4.54A.717.717,0,0,1,301.074-24.661Zm3.345-1.673h.717a.717.717,0,0,1,.717.717V-19.4a.717.717,0,0,1-.717.717h-.717a.717.717,0,0,1-.717-.717v-6.213a.717.717,0,0,1,.717-.717Z" transform="translate(-293.667 26.333)" fill="#29339b"/>
    </clipPath>
  </defs>
  <g id="Group_2540" data-name="Group 2540" transform="translate(-77 -97)">
    <g id="Group_2536" data-name="Group 2536" transform="translate(-182 13)">
      <g id="Rectangle_2442" data-name="Rectangle 2442" transform="translate(259 84)" fill="#f9fafc" stroke="#707070" stroke-width="1">
        <rect width="1000" height="765" stroke="none"/>
        <rect x="0.5" y="0.5" width="999" height="764" fill="none"/>
      </g>
      <g id="Group_2531" data-name="Group 2531" transform="translate(228 81)">
        <g id="Group_2477" data-name="Group 2477" transform="translate(83.915 106.898)">
          <g id="Mobile_wireframe" data-name="Mobile wireframe" transform="translate(0 0)">
            <g id="Phone_border_screen" data-name="Phone border screen" transform="translate(0.085 0.102)" fill="none">
              <path d="M35.818-.029s73.46.164,87.506,0,87.4,0,87.4,0a35.842,35.842,0,0,1,35.842,35.842s.227,126.024,0,158.444,1.017,121.07,0,137.267,0,132.955,0,132.955a35.842,35.842,0,0,1-35.842,35.842s-66.126-.773-84.261,0-90.646,0-90.646,0A35.842,35.842,0,0,1-.024,464.48s-.061-78.288-.061-160.857c0-.44.061-174.392.061-174.392V35.813A35.842,35.842,0,0,1,35.818-.029Z" stroke="none"/>
              <path d="M 152.2259216308594 1.8983154296875 C 137.1952362060547 1.8983154296875 127.4789276123047 1.922821044921875 123.346923828125 1.9710693359375 C 119.1986083984375 2.019500732421875 109.4574890136719 2.0440673828125 94.39404296875 2.0440673828125 C 68.76136779785156 2.0440673828125 36.13954162597656 1.971954345703125 35.81748962402344 1.97119140625 C 31.24798583984375 1.97119140625 26.81629943847656 2.865692138671875 22.64535522460938 4.62982177734375 C 18.61579895019531 6.334197998046875 14.99642944335938 8.774566650390625 11.88780212402344 11.88320922851562 C 8.7791748046875 14.9918212890625 6.33880615234375 18.6112060546875 4.634429931640625 22.6407470703125 C 2.87030029296875 26.81170654296875 1.975799560546875 31.24337768554688 1.975799560546875 35.81289672851562 L 1.975799560546875 129.2319946289062 C 1.975173950195312 130.9714965820312 1.91455078125 303.1878662109375 1.91455078125 303.6229858398438 C 1.91455078125 385.246337890625 1.975173950195312 463.6951293945312 1.975799560546875 464.4795532226562 C 1.975799560546875 469.049072265625 2.87030029296875 473.4807434082031 4.634429931640625 477.6517028808594 C 6.33880615234375 481.6812438964844 8.7791748046875 485.3006286621094 11.88780212402344 488.4092712402344 C 14.99642944335938 491.5178833007812 18.61579895019531 493.958251953125 22.64535522460938 495.6626281738281 C 26.81629943847656 497.4267578125 31.24798583984375 498.3212585449219 35.81748962402344 498.3212585449219 L 35.82817077636719 498.3212585449219 L 35.83880615234375 498.3213806152344 C 36.16098022460938 498.3248291015625 68.36273193359375 498.6649475097656 94.90310668945312 498.6649475097656 C 110.4689178466797 498.6649475097656 121.0588607788086 498.5499572753906 126.3787384033203 498.3230590820312 C 131.7547912597656 498.0938110351562 141.8450469970703 497.9775695800781 156.3692321777344 497.9775695800781 C 180.8796997070312 497.9775695800781 210.0240783691406 498.31298828125 210.7372741699219 498.3212585449219 C 215.3023376464844 498.3196105957031 219.7299957275391 497.4251403808594 223.8971099853516 495.6626281738281 C 227.9266662597656 493.958251953125 231.5460510253906 491.5178833007812 234.6546783447266 488.4092712402344 C 237.7633056640625 485.3006286621094 240.2036743164062 481.6812438964844 241.9080505371094 477.6517028808594 C 243.6708831787109 473.4838256835938 244.5653686523438 469.0553588867188 244.5666656494141 464.4894104003906 C 244.5241851806641 459.603759765625 243.5616607666016 347.4738159179688 244.5706176757812 331.3988037109375 C 245.1941680908203 321.4637451171875 244.9544830322266 282.928466796875 244.7429809570312 248.9293823242188 C 244.6077423095703 227.1880798339844 244.47998046875 206.6524963378906 244.5667419433594 194.2426452636719 C 244.7906799316406 162.202392578125 244.5689239501953 37.07662963867188 244.5666809082031 35.81289672851562 C 244.5666809082031 31.24337768554688 243.6721801757812 26.81170654296875 241.9080505371094 22.6407470703125 C 240.2036743164062 18.6112060546875 237.7633056640625 14.9918212890625 234.6546783447266 11.88320922851562 C 231.5460510253906 8.774566650390625 227.9266662597656 6.334197998046875 223.8971099853516 4.62982177734375 C 219.7261657714844 2.865692138671875 215.2944946289062 1.97119140625 210.7204895019531 1.97119140625 C 210.3944854736328 1.970458984375 177.8244934082031 1.8983154296875 152.2259216308594 1.8983154296875 M 152.2259063720703 -0.1016845703125 C 178.1230163574219 -0.1016845703125 210.7249908447266 -0.02880859375 210.7249908447266 -0.02880859375 C 230.5198059082031 -0.02880859375 246.5666809082031 16.01806640625 246.5666809082031 35.81289672851562 C 246.5666809082031 35.81289672851562 246.7933044433594 161.8368835449219 246.5666809082031 194.2566223144531 C 246.3400421142578 226.6764526367188 247.5832977294922 315.3266906738281 246.5666809082031 331.5241394042969 C 245.550048828125 347.7215576171875 246.5666809082031 464.4795532226562 246.5666809082031 464.4795532226562 C 246.5666809082031 484.2743835449219 230.5198059082031 500.3212585449219 210.7249908447266 500.3212585449219 C 210.7249908447266 500.3212585449219 181.3345031738281 499.9776000976562 156.3692474365234 499.9776000976562 C 143.8843383789062 499.9776000976562 132.5095520019531 500.0634765625 126.4639205932617 500.3212585449219 C 120.4193954467773 500.5790100097656 108.3312530517578 500.6649475097656 94.90313720703125 500.6649475097656 C 68.04443359375 500.6649475097656 35.81748962402344 500.3212585449219 35.81748962402344 500.3212585449219 C 16.02267456054688 500.3212585449219 -0.024200439453125 484.2743835449219 -0.024200439453125 464.4795532226562 C -0.024200439453125 464.4795532226562 -0.08544921875 386.1913757324219 -0.08544921875 303.6229858398438 C -0.08544921875 303.1824951171875 -0.024200439453125 129.2313232421875 -0.024200439453125 129.2313232421875 L -0.024200439453125 35.81289672851562 C -0.024200439453125 16.01806640625 16.02267456054688 -0.02880859375 35.81748962402344 -0.02880859375 C 35.81748962402344 -0.02880859375 68.46711730957031 0.044097900390625 94.39407348632812 0.044097900390625 C 107.3599243164062 0.044097900390625 118.6409301757812 0.02587890625 123.3235473632812 -0.02880859375 C 128.0053100585938 -0.083465576171875 139.2785339355469 -0.1016845703125 152.2259063720703 -0.1016845703125 Z" stroke="none" fill="#29339b"/>
            </g>
            <g id="Phone_screen" data-name="Phone screen" transform="translate(14.398 15.126)" fill="#fff" opacity="0.6">
              <path d="M 194.9787139892578 469.9601135253906 L 22.93830680847168 469.9601135253906 C 19.97618865966797 469.9601135253906 17.10324859619141 469.3802185058594 14.39924812316895 468.2365417480469 C 11.78713035583496 467.1316528320312 9.440835952758789 465.5496520996094 7.425601005554199 463.534423828125 C 5.410659790039062 461.5194702148438 3.828659772872925 459.1731262207031 2.7236008644104 456.5604553222656 C 1.57989501953125 453.8563537597656 1.000012636184692 450.9832458496094 1.000012636184692 448.0209350585938 L 1.000012636184692 344.3094177246094 L 1.000012636184692 104.5709991455078 L 1.000012636184692 22.93917465209961 C 1.000012636184692 19.97688102722168 1.57989501953125 17.10376358032227 2.7236008644104 14.39958572387695 C 3.828600883483887 11.78711605072021 5.410601139068604 9.440762519836426 7.425601005554199 7.425704002380371 C 9.440835952758789 5.410468578338623 11.78713035583496 3.828468561172485 14.39924812316895 2.723586082458496 C 17.10324859619141 1.579880237579346 19.97618865966797 0.9999979138374329 22.93830680847168 0.9999979138374329 L 48.31833267211914 0.9999979138374329 C 47.93730926513672 2.234335899353027 47.74489593505859 3.517805814743042 47.74489593505859 4.832115650177002 L 47.74489593505859 5.921115398406982 C 47.74489593505859 9.393645286560059 49.09707260131836 12.65823364257812 51.55230712890625 15.11340999603271 C 54.00748443603516 17.56864547729492 57.27207183837891 18.92082214355469 60.74460220336914 18.92082214355469 L 157.8897247314453 18.92082214355469 C 161.3622436523438 18.92082214355469 164.6268310546875 17.56864547729492 167.0820159912109 15.11340999603271 C 169.5372467041016 12.65823364257812 170.8894195556641 9.393645286560059 170.8894195556641 5.921115398406982 L 170.8894195556641 4.832115650177002 C 170.8894195556641 3.517805814743042 170.6970062255859 2.234340906143188 170.3159637451172 0.9999979138374329 L 194.9787139892578 0.9999979138374329 C 197.9408416748047 0.9999979138374329 200.8138427734375 1.579880237579346 203.5179595947266 2.723586082458496 C 206.1303100585938 3.828527450561523 208.4766540527344 5.410527229309082 210.4918365478516 7.425704002380371 C 212.5070648193359 9.440879821777344 214.0891876220703 11.78723335266113 215.1941833496094 14.39964485168457 C 216.3379516601562 17.10387992858887 216.9178924560547 19.97699737548828 216.9178924560547 22.93917465209961 L 216.9178924560547 448.0209350585938 C 216.9178924560547 450.9831237792969 216.3379516601562 453.8562316894531 215.1941833496094 456.5605163574219 C 214.0891265869141 459.1730041503906 212.5070190429688 461.5193481445312 210.4918975830078 463.534423828125 C 208.4766540527344 465.5495910644531 206.1303100585938 467.131591796875 203.5179595947266 468.2365417480469 C 200.8138427734375 469.3802185058594 197.9408416748047 469.9601135253906 194.9787139892578 469.9601135253906 Z" stroke="none"/>
              <path d="M 194.9787139892578 468.9601135253906 C 197.8062438964844 468.9601135253906 200.5481872558594 468.4067687988281 203.1283721923828 467.3155212402344 C 205.6215362548828 466.260986328125 207.8610687255859 464.7509460449219 209.7847747802734 462.8273010253906 C 211.7084197998047 460.9037475585938 213.2185363769531 458.6642456054688 214.273193359375 456.1709899902344 C 215.3645477294922 453.5906372070312 215.9178924560547 450.8485412597656 215.9178924560547 448.0209350585938 L 215.9178924560547 22.93917465209961 C 215.9178924560547 20.11158561706543 215.3645477294922 17.36946868896484 214.273193359375 14.78917407989502 C 213.2185974121094 12.29599761962891 211.7084808349609 10.05646896362305 209.7847747802734 8.132821083068848 C 207.8610687255859 6.209174633026123 205.6215362548828 4.699115753173828 203.12841796875 3.644586086273193 C 200.5481872558594 2.553350925445557 197.8062438964844 1.999997973442078 194.9787139892578 1.999997973442078 L 171.6036987304688 1.999997973442078 C 171.7937316894531 2.924674510955811 171.8894195556641 3.870868444442749 171.8894195556641 4.832115650177002 L 171.8894195556641 5.921115398406982 C 171.8894195556641 9.660762786865234 170.4332427978516 13.17646884918213 167.7891235351562 15.82046890258789 C 165.1450653076172 18.46464538574219 161.6293640136719 19.92082214355469 157.8897247314453 19.92082214355469 L 60.74460220336914 19.92082214355469 C 57.00495529174805 19.92082214355469 53.4892463684082 18.46464538574219 50.84524917602539 15.82052707672119 C 48.20107269287109 13.17646884918213 46.74489593505859 9.660762786865234 46.74489593505859 5.921115398406982 L 46.74489593505859 4.832115650177002 C 46.74489593505859 3.870868444442749 46.84057235717773 2.924682140350342 47.03057861328125 1.999997973442078 L 22.93830680847168 1.999997973442078 C 20.11077690124512 1.999997973442078 17.36889457702637 2.553292036056519 14.78883647918701 3.644586086273193 C 12.29583644866943 4.699056625366211 10.05642414093018 6.209056854248047 8.132719039916992 8.132762908935547 C 6.209248065948486 10.05635070800781 4.699189186096191 12.29588031768799 3.644600868225098 14.78911590576172 C 2.553365707397461 17.36935043334961 2.000012636184692 20.11146926879883 2.000012636184692 22.93917465209961 L 2.000012636184692 104.5709991455078 L 2.000012636184692 344.3094177246094 L 2.000012636184692 448.0209350585938 C 2.000012636184692 450.8486328125 2.553365707397461 453.5907592773438 3.644600868225098 456.1709289550781 C 4.69924783706665 458.6643371582031 6.209248065948486 460.9038696289062 8.132719039916992 462.8273010253906 C 10.05642414093018 464.7510681152344 12.29583644866943 466.2610473632812 14.78883647918701 467.3155212402344 C 17.36889457702637 468.4068298339844 20.11077690124512 468.9601135253906 22.93830680847168 468.9601135253906 L 194.9787139892578 468.9601135253906 M 194.9787139892578 470.9601135253906 L 22.93830680847168 470.9601135253906 C 19.84165954589844 470.9601135253906 16.83765983581543 470.3536376953125 14.0097188949585 469.1575317382812 C 11.27830696105957 468.0022277832031 8.825189590454102 466.3482360839844 6.718483448028564 464.2415161132812 C 4.611953735351562 462.135009765625 2.95807147026062 459.6818237304688 1.802600860595703 456.9500427246094 C 0.6064832806587219 454.1219482421875 1.268095093109878e-05 451.1177673339844 1.268095093109878e-05 448.0209350585938 L 1.268095093109878e-05 344.3094177246094 L 1.268095093109878e-05 104.5709991455078 L 1.268095093109878e-05 22.93917465209961 C 1.268095093109878e-05 19.84235000610352 0.6064832806587219 16.83817481994629 1.802600860595703 14.0100564956665 C 2.958012580871582 11.27840995788574 4.611953735351562 8.825174331665039 6.718483448028564 6.718585968017578 C 8.825189590454102 4.611880302429199 11.27830696105957 2.957880258560181 14.0097188949585 1.802586197853088 C 16.83765983581543 0.6064684987068176 19.84165954589844 -2.060834049188998e-06 22.93830680847168 -2.060834049188998e-06 L 49.75736618041992 -2.060834049188998e-06 C 49.08583450317383 1.524880290031433 48.74489593505859 3.150174379348755 48.74489593505859 4.832115650177002 L 48.74489593505859 5.921115398406982 C 48.74489593505859 9.126527786254883 49.99307250976562 12.1399974822998 52.25942611694336 14.40629196166992 C 54.52571868896484 16.67264556884766 57.53918838500977 17.92082214355469 60.74460220336914 17.92082214355469 L 157.8897247314453 17.92082214355469 C 161.0951232910156 17.92082214355469 164.1085968017578 16.67264556884766 166.3748931884766 14.40629196166992 C 168.6412506103516 12.1399974822998 169.8894195556641 9.126527786254883 169.8894195556641 5.921115398406982 L 169.8894195556641 4.832115650177002 C 169.8894195556641 3.151350975036621 169.5487823486328 1.525645017623901 168.8768920898438 -2.060834049188998e-06 L 194.9787139892578 -2.060834049188998e-06 C 198.0753631591797 -2.060834049188998e-06 201.0794219970703 0.6064684987068176 203.9074859619141 1.802586197853088 C 206.6390075683594 2.957939147949219 209.0921936035156 4.611880302429199 211.1989593505859 6.718585968017578 C 213.3057250976562 8.825291633605957 214.9597778320312 11.27852725982666 216.1151885986328 14.0100564956665 C 217.3113708496094 16.83823394775391 217.9178924560547 19.84240913391113 217.9178924560547 22.93917465209961 L 217.9178924560547 448.0209350585938 C 217.9178924560547 451.1177062988281 217.3113708496094 454.1218872070312 216.1151885986328 456.9500427246094 C 214.959716796875 459.6817016601562 213.3056640625 462.1349487304688 211.1989593505859 464.2415161132812 C 209.0921936035156 466.3482360839844 206.6390075683594 468.0021667480469 203.9074859619141 469.1575317382812 C 201.0794219970703 470.3536376953125 198.0753631591797 470.9601135253906 194.9787139892578 470.9601135253906 Z" stroke="none" fill="#29339b"/>
            </g>
            <g id="Header_icon" data-name="Header icon" transform="translate(104.252 18.711)">
              <path id="Line" d="M1.082,74.406c.3.165,11.641.214,17.762.042,5.387-.152,10.774-.586,16.174-.633.325,0,2.215,0,2.553,0,.376.095.926-.424.927-.868s-.734-.808-1.387-.776c-5.313-.033-10.55.232-15.9.27-5.718.234-17.967.05-17.967.05l-2.222-.132s-.9.1-.923.938S.785,74.241,1.082,74.406Z" transform="translate(-0.102 -70.264)" fill="#29339b"/>
              <ellipse id="Ellipse_335" data-name="Ellipse 335" cx="3" cy="2.5" rx="3" ry="2.5" transform="translate(40.833 0.391)" fill="#29339b"/>
            </g>
            <path id="Line-2" data-name="Line" d="M2.076,74.469c.766.169,29.995.221,45.765.043,13.88-.157,27.76-.6,41.673-.65.838,0,5.707,0,6.577,0,.969.1.812-.586.813-1.042s-.318-.681-2-.648c-13.689-.034-27.181.239-40.958.277-14.733.241-46.291.052-46.291.052L1.93,72.364s-1.119.114-1.173.973S1.31,74.3,2.076,74.469Z" transform="translate(74.217 398.618)" fill="#29339b" stroke="#29339b" stroke-width="1"/>
            <g id="status_bar_light" data-name="status bar/light" transform="translate(24.434 30.897)">
              <g id="Battery" transform="translate(184.943 1.673)">
                <g id="Border" transform="translate(0 0)" clip-path="url(#clip-path)">
                  <path id="Fill" d="M1.912,0H13.859A1.912,1.912,0,0,1,15.77,1.912v4.3h0a1.912,1.912,0,0,1-1.912,1.912H1.912A1.912,1.912,0,0,1,0,6.213v-4.3H0A1.912,1.912,0,0,1,1.912,0Z" fill="none" stroke="rgba(21,131,216,0.5)" stroke-width="2"/>
                </g>
                <g id="Cap" transform="translate(16.487 2.628)" clip-path="url(#clip-path-2)">
                  <path id="Fill-2" data-name="Fill" d="M354-28h8.12v10.036H354Z" transform="translate(-357.584 24.416)" fill="#29339b"/>
                </g>
                <g id="Capacity" transform="translate(1.434 1.434)" clip-path="url(#clip-path-3)">
                  <path id="Fill-3" data-name="Fill" d="M333-29.667h20.071v12.425H333Z" transform="translate(-336.584 26.083)" fill="#29339b"/>
                </g>
              </g>
              <g id="Wifi" transform="translate(170.387 1.671)">
                <g id="Wifi-2" data-name="Wifi" transform="translate(0 0)" clip-path="url(#clip-path-4)">
                  <path id="Fill-4" data-name="Fill" d="M310.694-31.669H328.81V-16.64H310.694Z" transform="translate(-314.278 28.085)" fill="#29339b"/>
                </g>
              </g>
              <g id="Cellular_Connection" data-name="Cellular Connection" transform="translate(154.597 1.912)">
                <g id="Cellular_Connection-2" data-name="Cellular Connection" transform="translate(0 0)" clip-path="url(#clip-path-5)">
                  <path id="Fill-5" data-name="Fill" d="M288.667-31.333h19.355v14.815H288.667Z" transform="translate(-292.251 27.749)" fill="#29339b"/>
                </g>
              </g>
              <g id="Bars___Time_Black" data-name="Bars/_/Time Black" transform="translate(0)">
                <path id="Background" d="M21-23.531H59.709V-35H21Z" transform="translate(-21 35)" fill="none"/>
                <text id="_10:20" data-name="10:20" transform="translate(2.652 10.205)" fill="#29339b" font-size="10" font-family="TektonPro-Bold, Tekton Pro" font-weight="700"><tspan x="0" y="0">10:20</tspan></text>
              </g>
            </g>
          </g>
          <g id="Buttons_Pill_Button_Large" data-name="Buttons / Pill Button / Large" transform="translate(64.576 400.783)">
            <path id="Pill_Button" data-name="Pill Button" d="M59.166,40.945c10.511.214,21.019.038,31.53.005,8.125-.028,17-2.376,22.795-8.427,5.909-6.171,6.38-16.784,1.648-23.794C110,1.1,99.116.24,90.762.105c-4.647-.076-9.3-.158-13.945.005-4.235.15-8.461.4-12.7.371C58.784.451,53.452.55,48.123.355,43.277.176,38.439-.037,33.586.026,24.8.136,14.973-.335,7.3,4.7.1,9.426-1.684,19.942,1.549,27.55,4.849,35.319,13.92,39.381,21.8,40.6c4.716.733,9.631.359,14.388.4,4.861.043,9.722.089,14.583.056q4.2-.027,8.392-.114a.764.764,0,0,0,0-1.526c-9.816.2-19.625.064-29.442.013A41.414,41.414,0,0,1,17.69,38.1,27.773,27.773,0,0,1,6.736,32.243C.489,26.476-.2,15.77,4.872,8.983,7.509,5.452,12,3.692,16.166,2.748a61.033,61.033,0,0,1,12.948-1.14c4.548-.043,9.086-.112,13.632.053,4.329.155,8.656.371,12.991.341,4.958-.036,9.921.081,14.878-.109,4.045-.155,8.082-.369,12.131-.364,8.575.015,18.292-.6,26.066,3.62a14.65,14.65,0,0,1,7.311,9.529,19.021,19.021,0,0,1-.949,12.749c-3.442,7.311-12.63,11.055-20.241,11.859-2.172.229-4.373.132-6.553.145q-3.7.019-7.395.056c-4.609.041-9.221.076-13.83.043q-3.995-.031-7.987-.114A.765.765,0,0,0,59.166,40.945Z" transform="translate(0 -0.015)" fill="#29339b"/>
            <text id="Next" transform="translate(60.509 24.318)" fill="#29339b" font-size="13" font-family="TektonPro-Bold, Tekton Pro" font-weight="700"><tspan x="-12.922" y="0">Next</tspan></text>
          </g>
          <g id="Group_4" data-name="Group 4" transform="translate(20.85 91.111)">
            <text id="Card_Number" data-name="Card Number" transform="translate(0.236 7.991)" fill="#29339b" font-size="12" font-family="TektonPro-Bold, Tekton Pro" font-weight="700"><tspan x="0" y="0">Card Number</tspan></text>
            <path id="Base_Box" data-name="Base Box" d="M5.669,24.492c-1.086-.012-2.819.01-3.494-1.215a7.636,7.636,0,0,1-.439-3.237c-.091-3.4-.219-6.8-.327-10.2C1.357,8.177,1.2,6.464,1.3,4.8c.148-2.3,1.5-2.826,3.22-2.943,3.327-.224,6.668-.311,10-.351,2.081-.025,4.165-.015,6.246-.015q13.914,0,27.828.01,20.341.011,40.681.035c12.591.015,76.174.035,88.765.077,6.368.02,12.736.11,19.1.134a1.926,1.926,0,0,1,.209.01l.057,0c-.293-.035-.129-.045.135.047a2.928,2.928,0,0,1,1.293.67c1.054,1.138.643,3.912.658,5.428q.028,3.22.025,6.439,0,2.973-.038,5.944c-.011.926.188,2.413-.348,3.18a2.4,2.4,0,0,1-1.573.759c.312-.06-.238.012-.363.02-2.244.134-4.5.12-6.744.149-10.111.132-71.215.159-81.326.194q-20.673.071-41.347.072-19.31.007-38.62-.03c-7.385-.017-14.771,0-22.156-.112-.443,0-.9.007-1.341-.035v1.494h0c.814,0,.814-1.494,0-1.494h0c-.824,0-.8,1.419,0,1.494,1.628.152,3.3.062,4.928.075q5.909.045,11.817.057,8.49.026,16.979.037,10.125.015,20.248.012,10.78,0,21.559-.012,10.621-.011,21.241-.04,9.483-.026,18.968-.072c4.928-.025,60.846-.055,65.774-.1,2.967-.03,5.934-.052,8.9-.142a15.021,15.021,0,0,0,1.638-.087,3.587,3.587,0,0,0,2.216-1.061c.985-1.108.806-2.888.822-4.35q.07-6.316.008-12.632c-.015-1.611.2-3.556-.342-5.08A3.551,3.551,0,0,0,197.89.376a3.885,3.885,0,0,0-.784-.12c-.78-.045-1.565-.032-2.345-.04-3.433-.04-6.866-.052-10.3-.067C179.076.127,122.7.11,117.311.1Q107.379.075,97.449.06,86.78.045,76.114.032,65.66.021,55.208.015,46.083.007,36.958,0L23.538,0H16.929q-6,0-11.988.341A5.613,5.613,0,0,0,1.4,1.327,4.7,4.7,0,0,0,.053,4.619,48.448,48.448,0,0,0,.144,9.838q.079,2.521.164,5.042A50.448,50.448,0,0,0,.7,22.831c.538,2.712,2.942,3.13,4.966,3.155C6.483,26,6.483,24.5,5.669,24.492Z" transform="translate(-0.004 18.638)" fill="#29339b"/>
          </g>
          <g id="Group_3" data-name="Group 3" transform="translate(20.85 165.662)">
            <text id="Confirm_Card_Number" data-name="Confirm Card Number" transform="translate(0.236 8.44)" fill="#29339b" font-size="12" font-family="TektonPro-Bold, Tekton Pro" font-weight="700"><tspan x="0" y="0">Confirm Card Number</tspan></text>
            <path id="Base_Box-2" data-name="Base Box" d="M5.669,24.492c-1.086-.012-2.819.01-3.494-1.215a7.636,7.636,0,0,1-.439-3.237c-.091-3.4-.219-6.8-.327-10.2C1.357,8.177,1.2,6.464,1.3,4.8c.148-2.3,1.5-2.826,3.22-2.943,3.327-.224,6.668-.311,10-.351,2.081-.025,4.165-.015,6.246-.015q13.914,0,27.828.01,20.341.011,40.681.035c12.591.015,76.174.035,88.765.077,6.368.02,12.736.11,19.1.134a1.926,1.926,0,0,1,.209.01l.057,0c-.293-.035-.129-.045.135.047a2.928,2.928,0,0,1,1.293.67c1.054,1.138.643,3.912.658,5.428q.028,3.22.025,6.439,0,2.973-.038,5.944c-.011.926.188,2.413-.348,3.18a2.4,2.4,0,0,1-1.573.759c.312-.06-.238.012-.363.02-2.244.134-4.5.12-6.744.149-10.111.132-71.215.159-81.326.194q-20.673.071-41.347.072-19.31.007-38.62-.03c-7.385-.017-14.771,0-22.156-.112-.443,0-.9.007-1.341-.035v1.494h0c.814,0,.814-1.494,0-1.494h0c-.824,0-.8,1.419,0,1.494,1.628.152,3.3.062,4.928.075q5.909.045,11.817.057,8.49.026,16.979.037,10.125.015,20.248.012,10.78,0,21.559-.012,10.621-.011,21.241-.04,9.483-.026,18.968-.072c4.928-.025,60.846-.055,65.774-.1,2.967-.03,5.934-.052,8.9-.142a15.021,15.021,0,0,0,1.638-.087,3.587,3.587,0,0,0,2.216-1.061c.985-1.108.806-2.888.822-4.35q.07-6.316.008-12.632c-.015-1.611.2-3.556-.342-5.08A3.551,3.551,0,0,0,197.89.376a3.885,3.885,0,0,0-.784-.12c-.78-.045-1.565-.032-2.345-.04-3.433-.04-6.866-.052-10.3-.067C179.076.127,122.7.11,117.311.1Q107.379.075,97.449.06,86.78.045,76.114.032,65.66.021,55.208.015,46.083.007,36.958,0L23.538,0H16.929q-6,0-11.988.341A5.613,5.613,0,0,0,1.4,1.327,4.7,4.7,0,0,0,.053,4.619,48.448,48.448,0,0,0,.144,9.838q.079,2.521.164,5.042A50.448,50.448,0,0,0,.7,22.831c.538,2.712,2.942,3.13,4.966,3.155C6.483,26,6.483,24.5,5.669,24.492Z" transform="translate(-0.004 18.638)" fill="#29339b"/>
          </g>
          <g id="Group_2" data-name="Group 2" transform="translate(20.85 314.763)">
            <text id="CVV" transform="translate(0.236 9.339)" fill="#29339b" font-size="13" font-family="TektonPro-Bold, Tekton Pro" font-weight="700"><tspan x="0" y="0">CVV</tspan></text>
            <path id="Base_Box-3" data-name="Base Box" d="M5.669,24.492c-1.086-.012-2.819.01-3.494-1.215a7.636,7.636,0,0,1-.439-3.237c-.091-3.4-.219-6.8-.327-10.2C1.357,8.177,1.2,6.464,1.3,4.8c.148-2.3,1.5-2.826,3.22-2.943,3.327-.224,6.668-.311,10-.351,2.081-.025,4.165-.015,6.246-.015q13.914,0,27.828.01,20.341.011,40.681.035c12.591.015,76.174.035,88.765.077,6.368.02,12.736.11,19.1.134a1.926,1.926,0,0,1,.209.01l.057,0c-.293-.035-.129-.045.135.047a2.928,2.928,0,0,1,1.293.67c1.054,1.138.643,3.912.658,5.428q.028,3.22.025,6.439,0,2.973-.038,5.944c-.011.926.188,2.413-.348,3.18a2.4,2.4,0,0,1-1.573.759c.312-.06-.238.012-.363.02-2.244.134-4.5.12-6.744.149-10.111.132-71.215.159-81.326.194q-20.673.071-41.347.072-19.31.007-38.62-.03c-7.385-.017-14.771,0-22.156-.112-.443,0-.9.007-1.341-.035v1.494h0c.814,0,.814-1.494,0-1.494h0c-.824,0-.8,1.419,0,1.494,1.628.152,3.3.062,4.928.075q5.909.045,11.817.057,8.49.026,16.979.037,10.125.015,20.248.012,10.78,0,21.559-.012,10.621-.011,21.241-.04,9.483-.026,18.968-.072c4.928-.025,60.846-.055,65.774-.1,2.967-.03,5.934-.052,8.9-.142a15.021,15.021,0,0,0,1.638-.087,3.587,3.587,0,0,0,2.216-1.061c.985-1.108.806-2.888.822-4.35q.07-6.316.008-12.632c-.015-1.611.2-3.556-.342-5.08A3.551,3.551,0,0,0,197.89.376a3.885,3.885,0,0,0-.784-.12c-.78-.045-1.565-.032-2.345-.04-3.433-.04-6.866-.052-10.3-.067C179.076.127,122.7.11,117.311.1Q107.379.075,97.449.06,86.78.045,76.114.032,65.66.021,55.208.015,46.083.007,36.958,0L23.538,0H16.929q-6,0-11.988.341A5.613,5.613,0,0,0,1.4,1.327,4.7,4.7,0,0,0,.053,4.619,48.448,48.448,0,0,0,.144,9.838q.079,2.521.164,5.042A50.448,50.448,0,0,0,.7,22.831c.538,2.712,2.942,3.13,4.966,3.155C6.483,26,6.483,24.5,5.669,24.492Z" transform="translate(-0.004 18.638)" fill="#29339b"/>
          </g>
          <text id="Card_Expiration" data-name="Card Expiration" transform="translate(21.085 248.102)" fill="#29339b" font-size="12" font-family="TektonPro-Bold, Tekton Pro" font-weight="700"><tspan x="0" y="0">Card Expiration</tspan></text>
          <path id="Base_Box-4" data-name="Base Box" d="M5.669,24.492c-1.086-.012-2.819.01-3.494-1.215a7.636,7.636,0,0,1-.439-3.237c-.091-3.4-.219-6.8-.327-10.2C1.357,8.177,1.2,6.464,1.3,4.8c.148-2.3,1.5-2.826,3.22-2.943,3.327-.224,6.668-.311,10-.351,2.081-.025,4.165-.015,6.246-.015q13.914,0,27.828.01,20.341.011,40.681.035c12.591.015,76.174.035,88.765.077,6.368.02,12.736.11,19.1.134a1.926,1.926,0,0,1,.209.01l.057,0c-.293-.035-.129-.045.135.047a2.928,2.928,0,0,1,1.293.67c1.054,1.138.643,3.912.658,5.428q.028,3.22.025,6.439,0,2.973-.038,5.944c-.011.926.188,2.413-.348,3.18a2.4,2.4,0,0,1-1.573.759c.312-.06-.238.012-.363.02-2.244.134-4.5.12-6.744.149-10.111.132-71.215.159-81.326.194q-20.673.071-41.347.072-19.31.007-38.62-.03c-7.385-.017-14.771,0-22.156-.112-.443,0-.9.007-1.341-.035v1.494h0c.814,0,.814-1.494,0-1.494h0c-.824,0-.8,1.419,0,1.494,1.628.152,3.3.062,4.928.075q5.909.045,11.817.057,8.49.026,16.979.037,10.125.015,20.248.012,10.78,0,21.559-.012,10.621-.011,21.241-.04,9.483-.026,18.968-.072c4.928-.025,60.846-.055,65.774-.1,2.967-.03,5.934-.052,8.9-.142a15.021,15.021,0,0,0,1.638-.087,3.587,3.587,0,0,0,2.216-1.061c.985-1.108.806-2.888.822-4.35q.07-6.316.008-12.632c-.015-1.611.2-3.556-.342-5.08A3.551,3.551,0,0,0,197.89.376a3.885,3.885,0,0,0-.784-.12c-.78-.045-1.565-.032-2.345-.04-3.433-.04-6.866-.052-10.3-.067C179.076.127,122.7.11,117.311.1Q107.379.075,97.449.06,86.78.045,76.114.032,65.66.021,55.208.015,46.083.007,36.958,0L23.538,0H16.929q-6,0-11.988.341A5.613,5.613,0,0,0,1.4,1.327,4.7,4.7,0,0,0,.053,4.619,48.448,48.448,0,0,0,.144,9.838q.079,2.521.164,5.042A50.448,50.448,0,0,0,.7,22.831c.538,2.712,2.942,3.13,4.966,3.155C6.483,26,6.483,24.5,5.669,24.492Z" transform="translate(20.846 258.85)" fill="#29339b"/>
          <text id="MM_YY" data-name="MM/YY" transform="translate(34.085 267.102)" fill="#29339b" font-size="14" font-family="TektonPro-Bold, Tekton Pro" font-weight="700"><tspan x="0" y="10">MM/YY</tspan></text>
        </g>
      </g>
      <g id="Group_2530" data-name="Group 2530" transform="translate(117 81)">
        <g id="Group_2478" data-name="Group 2478" transform="translate(518.915 106.898)">
          <g id="Mobile_wireframe-2" data-name="Mobile wireframe" transform="translate(0 0)">
            <g id="Phone_border_screen-2" data-name="Phone border screen" transform="translate(0.085 0.102)" fill="none">
              <path d="M35.818-.029s73.46.164,87.506,0,87.4,0,87.4,0a35.842,35.842,0,0,1,35.842,35.842s.227,126.024,0,158.444,1.017,121.07,0,137.268,0,132.955,0,132.955a35.842,35.842,0,0,1-35.842,35.842s-66.126-.773-84.261,0-90.646,0-90.646,0A35.842,35.842,0,0,1-.024,464.48s-.061-78.288-.061-160.857c0-.441.061-174.392.061-174.392V35.813A35.842,35.842,0,0,1,35.818-.029Z" stroke="none"/>
              <path d="M 152.2259368896484 1.8983154296875 C 137.1952514648438 1.8983154296875 127.4789428710938 1.92279052734375 123.3469390869141 1.971038818359375 C 119.1951293945312 2.019561767578125 109.4539337158203 2.04412841796875 94.39405822753906 2.04412841796875 C 68.76138305664062 2.04412841796875 36.13957214355469 1.971923828125 35.8175048828125 1.97119140625 C 31.24800109863281 1.97119140625 26.81631469726562 2.865692138671875 22.64537048339844 4.629791259765625 C 18.61581420898438 6.33416748046875 14.99644470214844 8.774566650390625 11.8878173828125 11.8831787109375 C 8.779190063476562 14.99179077148438 6.338821411132812 18.61117553710938 4.634445190429688 22.6407470703125 C 2.870315551757812 26.81167602539062 1.975814819335938 31.24337768554688 1.975814819335938 35.8128662109375 L 1.975814819335938 129.23193359375 C 1.975189208984375 130.971435546875 1.914566040039062 303.1879272460938 1.914566040039062 303.623046875 C 1.914566040039062 385.2464294433594 1.975189208984375 463.6952514648438 1.975814819335938 464.4796752929688 C 1.975814819335938 469.0491638183594 2.870315551757812 473.4809265136719 4.634445190429688 477.6517944335938 C 6.338821411132812 481.6814270019531 8.779190063476562 485.3008117675781 11.8878173828125 488.4093627929688 C 14.99644470214844 491.5180053710938 18.61581420898438 493.9583740234375 22.64537048339844 495.6627502441406 C 26.81631469726562 497.4268798828125 31.24800109863281 498.3213500976562 35.8175048828125 498.3213500976562 L 35.82818603515625 498.3213500976562 L 35.83882141113281 498.3215026855469 C 36.16099548339844 498.3249206542969 68.36274719238281 498.6650390625 94.90312194824219 498.6650390625 C 110.4689331054688 498.6650390625 121.0588760375977 498.550048828125 126.3787536621094 498.3231811523438 C 131.7548217773438 498.0939331054688 141.8450622558594 497.9776916503906 156.3692626953125 497.9776916503906 C 180.8797302246094 497.9776916503906 210.0240936279297 498.3130798339844 210.7372741699219 498.3213500976562 C 215.3023376464844 498.3197326660156 219.7300109863281 497.4252624511719 223.8971252441406 495.6627502441406 C 227.9266967773438 493.9583740234375 231.5460662841797 491.5180053710938 234.6546936035156 488.4093627929688 C 237.7633209228516 485.3008117675781 240.2036895751953 481.6814270019531 241.9080657958984 477.6517944335938 C 243.6708984375 473.4839782714844 244.5653839111328 469.0554504394531 244.5666809082031 464.489501953125 C 244.5242004394531 459.6038208007812 243.5616760253906 347.4738464355469 244.5706329345703 331.3988647460938 C 245.1941833496094 321.4638061523438 244.9544982910156 282.9284057617188 244.7429962158203 248.9294281005859 C 244.6077575683594 227.1881103515625 244.4799957275391 206.6525573730469 244.5667572021484 194.24267578125 C 244.7907562255859 162.2024230957031 244.5689392089844 37.07662963867188 244.5666961669922 35.8128662109375 C 244.5666961669922 31.24337768554688 243.6721954345703 26.81167602539062 241.9080657958984 22.6407470703125 C 240.2036895751953 18.61117553710938 237.7633209228516 14.99179077148438 234.6546936035156 11.8831787109375 C 231.5460662841797 8.774566650390625 227.9266967773438 6.33416748046875 223.8971252441406 4.629791259765625 C 219.7261962890625 2.865692138671875 215.2944946289062 1.97119140625 210.7205047607422 1.97119140625 C 210.3945007324219 1.970428466796875 177.8244934082031 1.8983154296875 152.2259368896484 1.8983154296875 M 152.2259216308594 -0.101715087890625 C 178.1230163574219 -0.101715087890625 210.7250061035156 -0.02880859375 210.7250061035156 -0.02880859375 C 230.5198211669922 -0.02880859375 246.5666961669922 16.01806640625 246.5666961669922 35.8128662109375 C 246.5666961669922 35.8128662109375 246.7933807373047 161.8369140625 246.5666961669922 194.2566833496094 C 246.3400573730469 226.6764221191406 247.5833129882812 315.3267211914062 246.5666961669922 331.524169921875 C 245.5500640869141 347.7216186523438 246.5666961669922 464.4796752929688 246.5666961669922 464.4796752929688 C 246.5666961669922 484.2745666503906 230.5198211669922 500.3213500976562 210.7250061035156 500.3213500976562 C 210.7250061035156 500.3213500976562 181.3345184326172 499.9776916503906 156.3692626953125 499.9776916503906 C 143.8843383789062 499.9776916503906 132.5095825195312 500.0635986328125 126.4639358520508 500.3213500976562 C 120.4194107055664 500.5791320800781 108.3312683105469 500.6650695800781 94.90315246582031 500.6650695800781 C 68.04444885253906 500.6650695800781 35.8175048828125 500.3213500976562 35.8175048828125 500.3213500976562 C 16.02268981933594 500.3213500976562 -0.0241851806640625 484.2745666503906 -0.0241851806640625 464.4796752929688 C -0.0241851806640625 464.4796752929688 -0.0854339599609375 386.1914978027344 -0.0854339599609375 303.623046875 C -0.0854339599609375 303.1825561523438 -0.0241851806640625 129.2312316894531 -0.0241851806640625 129.2312316894531 L -0.0241851806640625 35.8128662109375 C -0.0241851806640625 16.01806640625 16.02268981933594 -0.02880859375 35.8175048828125 -0.02880859375 C 35.8175048828125 -0.02880859375 68.46713256835938 0.044097900390625 94.39408874511719 0.044097900390625 C 107.3599395751953 0.044097900390625 118.6409454345703 0.02587890625 123.3235626220703 -0.02880859375 C 128.0053100585938 -0.08349609375 139.2785491943359 -0.101715087890625 152.2259216308594 -0.101715087890625 Z" stroke="none" fill="#29339b"/>
            </g>
            <g id="Phone_screen-2" data-name="Phone screen" transform="translate(14.398 15.126)" fill="#fff" opacity="0.6">
              <path d="M 194.9787139892578 469.9601135253906 L 22.93830680847168 469.9601135253906 C 19.97618865966797 469.9601135253906 17.10324859619141 469.3802185058594 14.39924812316895 468.2365417480469 C 11.78695392608643 467.131591796875 9.440659523010254 465.5496520996094 7.425601005554199 463.5345153808594 C 5.410601139068604 461.5196533203125 3.828659772872925 459.17333984375 2.7236008644104 456.5608825683594 C 1.57989501953125 453.8568725585938 1.000012636184692 450.98388671875 1.000012636184692 448.0218200683594 L 1.000012636184692 344.310302734375 L 1.000012636184692 104.5709991455078 L 1.000012636184692 22.93917465209961 C 1.000012636184692 19.97688102722168 1.57989501953125 17.10376358032227 2.7236008644104 14.39958572387695 C 3.828600883483887 11.78711605072021 5.410601139068604 9.440762519836426 7.425601005554199 7.425704002380371 C 9.440835952758789 5.410468578338623 11.78713035583496 3.828468561172485 14.39924812316895 2.723586082458496 C 17.10324859619141 1.579880237579346 19.97618865966797 0.9999979138374329 22.93830680847168 0.9999979138374329 L 48.31833267211914 0.9999979138374329 C 47.93730926513672 2.234335899353027 47.74489593505859 3.517805814743042 47.74489593505859 4.832115650177002 L 47.74489593505859 5.921115398406982 C 47.74489593505859 9.393645286560059 49.09707260131836 12.65823364257812 51.55230712890625 15.11340999603271 C 54.00748443603516 17.56864547729492 57.27207183837891 18.92082214355469 60.74460220336914 18.92082214355469 L 157.8897247314453 18.92082214355469 C 161.3622436523438 18.92082214355469 164.6268310546875 17.56864547729492 167.0820159912109 15.11340999603271 C 169.5372467041016 12.65823364257812 170.8894195556641 9.393645286560059 170.8894195556641 5.921115398406982 L 170.8894195556641 4.832115650177002 C 170.8894195556641 3.517805814743042 170.6970062255859 2.234340906143188 170.3159637451172 0.9999979138374329 L 194.9787139892578 0.9999979138374329 C 197.9408416748047 0.9999979138374329 200.8138427734375 1.579880237579346 203.5179595947266 2.723586082458496 C 206.1303100585938 3.828527450561523 208.4766540527344 5.410527229309082 210.4918365478516 7.425704002380371 C 212.5070648193359 9.440879821777344 214.0891876220703 11.78723335266113 215.1941833496094 14.39964485168457 C 216.3379516601562 17.10387992858887 216.9178924560547 19.97699737548828 216.9178924560547 22.93917465209961 L 216.9178924560547 448.0218200683594 C 216.9178924560547 450.9837646484375 216.3379516601562 453.856689453125 215.1941833496094 456.5609436035156 C 214.0892486572266 459.1730041503906 212.5071258544922 461.519287109375 210.4918365478516 463.5345153808594 C 208.4766540527344 465.5495910644531 206.1302490234375 467.131591796875 203.5178985595703 468.2365417480469 C 200.8137817382812 469.3802185058594 197.9407806396484 469.9601135253906 194.9787139892578 469.9601135253906 Z" stroke="none"/>
              <path d="M 194.9787139892578 468.9601135253906 C 197.8061828613281 468.9601135253906 200.5481872558594 468.4067687988281 203.1283721923828 467.3155212402344 C 205.6215362548828 466.260986328125 207.8610687255859 464.7509460449219 209.7847747802734 462.8274230957031 C 211.7085418701172 460.9037170410156 213.2186584472656 458.6642456054688 214.273193359375 456.1713562011719 C 215.3645477294922 453.591064453125 215.9178924560547 450.8491821289062 215.9178924560547 448.0218200683594 L 215.9178924560547 22.93917465209961 C 215.9178924560547 20.11158561706543 215.3645477294922 17.36946868896484 214.273193359375 14.78917407989502 C 213.2185974121094 12.29599761962891 211.7084808349609 10.05646896362305 209.7847747802734 8.132821083068848 C 207.8610687255859 6.209174633026123 205.6215362548828 4.699115753173828 203.12841796875 3.644586086273193 C 200.5481872558594 2.553350925445557 197.8062438964844 1.999997973442078 194.9787139892578 1.999997973442078 L 171.6036987304688 1.999997973442078 C 171.7937316894531 2.924674510955811 171.8894195556641 3.870868444442749 171.8894195556641 4.832115650177002 L 171.8894195556641 5.921115398406982 C 171.8894195556641 9.660762786865234 170.4332427978516 13.17646884918213 167.7891235351562 15.82046890258789 C 165.1450653076172 18.46464538574219 161.6293640136719 19.92082214355469 157.8897247314453 19.92082214355469 L 60.74460220336914 19.92082214355469 C 57.00495529174805 19.92082214355469 53.4892463684082 18.46464538574219 50.84524917602539 15.82052707672119 C 48.20107269287109 13.17646884918213 46.74489593505859 9.660762786865234 46.74489593505859 5.921115398406982 L 46.74489593505859 4.832115650177002 C 46.74489593505859 3.870868444442749 46.84057235717773 2.924682140350342 47.03057861328125 1.999997973442078 L 22.93830680847168 1.999997973442078 C 20.11077690124512 1.999997973442078 17.36889457702637 2.553292036056519 14.78883647918701 3.644586086273193 C 12.29583644866943 4.699056625366211 10.05642414093018 6.209056854248047 8.132719039916992 8.132762908935547 C 6.209248065948486 10.05635070800781 4.699189186096191 12.29588031768799 3.644600868225098 14.78911590576172 C 2.553365707397461 17.36935043334961 2.000012636184692 20.11146926879883 2.000012636184692 22.93917465209961 L 2.000012636184692 104.5709991455078 L 2.000012636184692 344.310302734375 L 2.000012636184692 448.0218200683594 C 2.000012636184692 450.849365234375 2.553365707397461 453.5912475585938 3.644600868225098 456.1713562011719 C 4.69924783706665 458.6645812988281 6.209248065948486 460.9039916992188 8.132719039916992 462.8274230957031 C 10.05624771118164 464.7510070800781 12.2957181930542 466.260986328125 14.78883647918701 467.3155212402344 C 17.36889457702637 468.4068298339844 20.11077690124512 468.9601135253906 22.93830680847168 468.9601135253906 L 194.9787139892578 468.9601135253906 M 194.9787139892578 470.9601135253906 L 22.93830680847168 470.9601135253906 C 19.84165954589844 470.9601135253906 16.83765983581543 470.3536376953125 14.0097188949585 469.1575317382812 C 11.27818870544434 468.0021667480469 8.825071334838867 466.3482360839844 6.718483448028564 464.2416381835938 C 4.611895084381104 462.1351013183594 2.958012580871582 459.6820068359375 1.802600860595703 456.9504699707031 C 0.6064832806587219 454.1224670410156 1.268095093109878e-05 451.1184692382812 1.268095093109878e-05 448.0218200683594 L 1.268095093109878e-05 344.310302734375 L 1.268095093109878e-05 104.5709991455078 L 1.268095093109878e-05 22.93917465209961 C 1.268095093109878e-05 19.84235000610352 0.6064832806587219 16.83817481994629 1.802600860595703 14.0100564956665 C 2.958012580871582 11.27840995788574 4.611953735351562 8.825174331665039 6.718483448028564 6.718585968017578 C 8.825189590454102 4.611880302429199 11.27830696105957 2.957880258560181 14.0097188949585 1.802586197853088 C 16.83765983581543 0.6064684987068176 19.84165954589844 -2.060834049188998e-06 22.93830680847168 -2.060834049188998e-06 L 49.75736618041992 -2.060834049188998e-06 C 49.08583450317383 1.524880290031433 48.74489593505859 3.150174379348755 48.74489593505859 4.832115650177002 L 48.74489593505859 5.921115398406982 C 48.74489593505859 9.126527786254883 49.99307250976562 12.1399974822998 52.25942611694336 14.40629196166992 C 54.52571868896484 16.67264556884766 57.53918838500977 17.92082214355469 60.74460220336914 17.92082214355469 L 157.8897247314453 17.92082214355469 C 161.0951232910156 17.92082214355469 164.1085968017578 16.67264556884766 166.3748931884766 14.40629196166992 C 168.6412506103516 12.1399974822998 169.8894195556641 9.126527786254883 169.8894195556641 5.921115398406982 L 169.8894195556641 4.832115650177002 C 169.8894195556641 3.151350975036621 169.5487823486328 1.525645017623901 168.8768920898438 -2.060834049188998e-06 L 194.9787139892578 -2.060834049188998e-06 C 198.0753631591797 -2.060834049188998e-06 201.0794219970703 0.6064684987068176 203.9074859619141 1.802586197853088 C 206.6390075683594 2.957939147949219 209.0921936035156 4.611880302429199 211.1989593505859 6.718585968017578 C 213.3057250976562 8.825291633605957 214.9597778320312 11.27852725982666 216.1151885986328 14.0100564956665 C 217.3113708496094 16.83823394775391 217.9178924560547 19.84240913391113 217.9178924560547 22.93917465209961 L 217.9178924560547 448.0218200683594 C 217.9178924560547 451.1183471679688 217.3113708496094 454.1223449707031 216.1151885986328 456.9504699707031 C 214.9598388671875 459.6817626953125 213.3057708740234 462.1348876953125 211.1989593505859 464.2416381835938 C 209.0921936035156 466.3482360839844 206.6389465332031 468.0021667480469 203.9074859619141 469.1575317382812 C 201.0793609619141 470.3536376953125 198.0753021240234 470.9601135253906 194.9787139892578 470.9601135253906 Z" stroke="none" fill="#29339b"/>
            </g>
            <g id="Header_icon-2" data-name="Header icon" transform="translate(104.252 19.099)">
              <path id="Line-3" data-name="Line" d="M1.082,74.406c.3.165,11.641.214,17.762.042,5.387-.152,10.774-.586,16.174-.633.325,0,2.215,0,2.553,0,.376.095.926-.424.927-.868s-.734-.808-1.387-.776c-5.313-.033-10.55.232-15.9.27-5.718.234-17.967.05-17.967.05l-2.222-.132s-.9.1-.923.938S.785,74.241,1.082,74.406Z" transform="translate(-0.102 -70.652)" fill="#29339b"/>
              <ellipse id="Ellipse_335-2" data-name="Ellipse 335" cx="3" cy="2" rx="3" ry="2" transform="translate(40.833 0.003)" fill="#29339b"/>
            </g>
            <path id="Line-4" data-name="Line" d="M2.076,74.469c.766.17,29.995.221,45.765.043,13.88-.157,27.76-.6,41.673-.65.838,0,5.707,0,6.577,0,.969.1.812-.586.813-1.042s-.318-.681-2-.648c-13.689-.034-27.181.239-40.958.277-14.733.241-46.291.052-46.291.052L1.93,72.364s-1.119.114-1.173.973S1.31,74.3,2.076,74.469Z" transform="translate(74.217 398.618)" fill="#29339b" stroke="#29339b" stroke-width="1"/>
            <g id="status_bar_light-2" data-name="status bar/light" transform="translate(24.434 30.897)">
              <g id="Battery-2" data-name="Battery" transform="translate(184.943 1.673)">
                <g id="Border-2" data-name="Border" transform="translate(0 0)" clip-path="url(#clip-path)">
                  <path id="Fill-6" data-name="Fill" d="M1.912,0H13.859A1.912,1.912,0,0,1,15.77,1.912v4.3h0a1.912,1.912,0,0,1-1.912,1.912H1.912A1.912,1.912,0,0,1,0,6.213v-4.3H0A1.912,1.912,0,0,1,1.912,0Z" fill="none" stroke="rgba(21,131,216,0.5)" stroke-width="2"/>
                </g>
                <g id="Cap-2" data-name="Cap" transform="translate(16.487 2.628)" clip-path="url(#clip-path-2)">
                  <path id="Fill-7" data-name="Fill" d="M354-28h8.12v10.036H354Z" transform="translate(-357.584 24.416)" fill="#29339b"/>
                </g>
                <g id="Capacity-2" data-name="Capacity" transform="translate(1.434 1.434)" clip-path="url(#clip-path-3)">
                  <path id="Fill-8" data-name="Fill" d="M333-29.667h20.071v12.425H333Z" transform="translate(-336.584 26.082)" fill="#29339b"/>
                </g>
              </g>
              <g id="Wifi-3" data-name="Wifi" transform="translate(170.387 1.671)">
                <g id="Wifi-4" data-name="Wifi" transform="translate(0 0)" clip-path="url(#clip-path-9)">
                  <path id="Fill-9" data-name="Fill" d="M310.694-31.669H328.81V-16.64H310.694Z" transform="translate(-314.278 28.085)" fill="#29339b"/>
                </g>
              </g>
              <g id="Cellular_Connection-3" data-name="Cellular Connection" transform="translate(154.597 1.912)">
                <g id="Cellular_Connection-4" data-name="Cellular Connection" transform="translate(0 0)" clip-path="url(#clip-path-5)">
                  <path id="Fill-10" data-name="Fill" d="M288.667-31.333h19.355v14.815H288.667Z" transform="translate(-292.251 27.749)" fill="#29339b"/>
                </g>
              </g>
              <g id="Bars___Time_Black-2" data-name="Bars/_/Time Black" transform="translate(0 0)">
                <path id="Background-2" data-name="Background" d="M21-23.531H59.709V-35H21Z" transform="translate(-21 35)" fill="none"/>
                <text id="_10:20-2" data-name="10:20" transform="translate(2.652 10.205)" fill="#29339b" font-size="10" font-family="TektonPro-Bold, Tekton Pro" font-weight="700"><tspan x="0" y="0">10:20</tspan></text>
              </g>
            </g>
          </g>
          <g id="Buttons_Pill_Button_Large-2" data-name="Buttons / Pill Button / Large" transform="translate(64.576 410.102)">
            <path id="Pill_Button-2" data-name="Pill Button" d="M59.166,40.945c10.511.214,21.019.038,31.53.005,8.125-.028,17-2.376,22.795-8.427,5.909-6.171,6.38-16.784,1.648-23.794C110,1.1,99.116.24,90.762.105c-4.647-.076-9.3-.158-13.945.005-4.235.15-8.461.4-12.7.371C58.784.451,53.452.55,48.123.355,43.277.176,38.439-.037,33.586.026,24.8.136,14.973-.335,7.3,4.7.1,9.426-1.684,19.942,1.549,27.55,4.849,35.319,13.92,39.381,21.8,40.6c4.716.733,9.631.359,14.388.4,4.861.043,9.722.089,14.583.056q4.2-.027,8.392-.114a.764.764,0,0,0,0-1.526c-9.816.2-19.625.064-29.442.013A41.414,41.414,0,0,1,17.69,38.1,27.773,27.773,0,0,1,6.736,32.243C.489,26.476-.2,15.77,4.872,8.983,7.509,5.452,12,3.692,16.166,2.748a61.033,61.033,0,0,1,12.948-1.14c4.548-.043,9.086-.112,13.632.053,4.329.155,8.656.371,12.991.341,4.958-.036,9.921.081,14.878-.109,4.045-.155,8.082-.369,12.131-.364,8.575.015,18.292-.6,26.066,3.62a14.65,14.65,0,0,1,7.311,9.529,19.021,19.021,0,0,1-.949,12.749c-3.442,7.311-12.63,11.055-20.241,11.859-2.172.229-4.373.132-6.553.145q-3.7.019-7.395.056c-4.609.041-9.221.076-13.83.043q-3.995-.031-7.987-.114A.765.765,0,0,0,59.166,40.945Z" transform="translate(0 -0.015)" fill="#29339b"/>
            <text id="Next-2" data-name="Next" transform="translate(59.509 24)" fill="#29339b" font-size="12" font-family="TektonPro-Bold, Tekton Pro" font-weight="700"><tspan x="-11.928" y="0">Next</tspan></text>
          </g>
          <g id="Group_4-2" data-name="Group 4" transform="translate(20.85 72.705)">
            <text id="Name_on_Card" data-name="Name on Card" transform="translate(0.236 8.396)" fill="#29339b" font-size="12" font-family="TektonPro-Bold, Tekton Pro" font-weight="700"><tspan x="0" y="0">Name on Card</tspan></text>
            <path id="Base_Box-5" data-name="Base Box" d="M5.669,24.492c-1.086-.012-2.819.01-3.494-1.215a7.636,7.636,0,0,1-.439-3.237c-.091-3.4-.219-6.8-.327-10.2C1.357,8.177,1.2,6.464,1.3,4.8c.148-2.3,1.5-2.826,3.22-2.943,3.327-.224,6.668-.311,10-.351,2.081-.025,4.165-.015,6.246-.015q13.914,0,27.828.01,20.341.011,40.681.035c12.591.015,76.174.035,88.765.077,6.368.02,12.736.11,19.1.134a1.927,1.927,0,0,1,.209.01l.057,0c-.293-.035-.129-.045.135.047a2.928,2.928,0,0,1,1.293.67c1.054,1.138.643,3.912.658,5.428q.028,3.22.025,6.439,0,2.973-.038,5.944c-.011.926.188,2.413-.348,3.18a2.4,2.4,0,0,1-1.573.759c.312-.06-.238.012-.363.02-2.244.134-4.5.12-6.744.149-10.111.132-71.215.159-81.326.194q-20.673.071-41.347.072-19.31.007-38.62-.03c-7.385-.017-14.771,0-22.156-.112-.443,0-.9.007-1.341-.035v1.494h0c.814,0,.814-1.494,0-1.494h0c-.824,0-.8,1.419,0,1.494,1.628.152,3.3.062,4.928.075q5.909.045,11.817.057,8.49.026,16.979.037,10.125.015,20.248.012,10.78,0,21.559-.012,10.621-.011,21.241-.04,9.483-.026,18.968-.072c4.928-.025,60.846-.055,65.774-.1,2.967-.03,5.934-.052,8.9-.142a15.021,15.021,0,0,0,1.638-.087,3.587,3.587,0,0,0,2.216-1.061c.985-1.108.806-2.888.822-4.35q.07-6.316.008-12.632c-.015-1.611.2-3.556-.342-5.08A3.551,3.551,0,0,0,197.89.376a3.885,3.885,0,0,0-.784-.12c-.78-.045-1.565-.032-2.345-.04-3.433-.04-6.866-.052-10.3-.067C179.076.127,122.7.11,117.311.1Q107.379.075,97.449.06,86.78.045,76.114.032,65.66.021,55.208.015,46.083.007,36.958,0L23.538,0H16.929q-6,0-11.988.341A5.613,5.613,0,0,0,1.4,1.327,4.7,4.7,0,0,0,.053,4.619,48.448,48.448,0,0,0,.144,9.838q.079,2.521.164,5.042A50.448,50.448,0,0,0,.7,22.831c.538,2.712,2.942,3.13,4.966,3.155C6.483,26,6.483,24.5,5.669,24.492Z" transform="translate(-0.004 19.122)" fill="#29339b"/>
          </g>
          <g id="Group_3-2" data-name="Group 3" transform="translate(20.85 137.479)">
            <text id="Address_Line_1" data-name="Address Line 1" transform="translate(0.236 7.623)" fill="#29339b" font-size="12" font-family="TektonPro-Bold, Tekton Pro" font-weight="700"><tspan x="0" y="0">Address Line 1</tspan></text>
            <path id="Base_Box-6" data-name="Base Box" d="M5.669,24.492c-1.086-.012-2.819.01-3.494-1.215a7.636,7.636,0,0,1-.439-3.237c-.091-3.4-.219-6.8-.327-10.2C1.357,8.177,1.2,6.464,1.3,4.8c.148-2.3,1.5-2.826,3.22-2.943,3.327-.224,6.668-.311,10-.351,2.081-.025,4.165-.015,6.246-.015q13.914,0,27.828.01,20.341.011,40.681.035c12.591.015,76.174.035,88.765.077,6.368.02,12.736.11,19.1.134a1.927,1.927,0,0,1,.209.01l.057,0c-.293-.035-.129-.045.135.047a2.928,2.928,0,0,1,1.293.67c1.054,1.138.643,3.912.658,5.428q.028,3.22.025,6.439,0,2.973-.038,5.944c-.011.926.188,2.413-.348,3.18a2.4,2.4,0,0,1-1.573.759c.312-.06-.238.012-.363.02-2.244.134-4.5.12-6.744.149-10.111.132-71.215.159-81.326.194q-20.673.071-41.347.072-19.31.007-38.62-.03c-7.385-.017-14.771,0-22.156-.112-.443,0-.9.007-1.341-.035v1.494h0c.814,0,.814-1.494,0-1.494h0c-.824,0-.8,1.419,0,1.494,1.628.152,3.3.062,4.928.075q5.909.045,11.817.057,8.49.026,16.979.037,10.125.015,20.248.012,10.78,0,21.559-.012,10.621-.011,21.241-.04,9.483-.026,18.968-.072c4.928-.025,60.846-.055,65.774-.1,2.967-.03,5.934-.052,8.9-.142a15.021,15.021,0,0,0,1.638-.087,3.587,3.587,0,0,0,2.216-1.061c.985-1.108.806-2.888.822-4.35q.07-6.316.008-12.632c-.015-1.611.2-3.556-.342-5.08A3.551,3.551,0,0,0,197.89.376a3.885,3.885,0,0,0-.784-.12c-.78-.045-1.565-.032-2.345-.04-3.433-.04-6.866-.052-10.3-.067C179.076.127,122.7.11,117.311.1Q107.379.075,97.449.06,86.78.045,76.114.032,65.66.021,55.208.015,46.083.007,36.958,0L23.538,0H16.929q-6,0-11.988.341A5.613,5.613,0,0,0,1.4,1.327,4.7,4.7,0,0,0,.053,4.619,48.448,48.448,0,0,0,.144,9.838q.079,2.521.164,5.042A50.448,50.448,0,0,0,.7,22.831c.538,2.712,2.942,3.13,4.966,3.155C6.483,26,6.483,24.5,5.669,24.492Z" transform="translate(-0.004 18.147)" fill="#29339b"/>
          </g>
          <g id="Group_2-2" data-name="Group 2" transform="translate(20.85 264.794)">
            <text id="City" transform="translate(0.236 9.308)" fill="#29339b" font-size="13" font-family="TektonPro-Bold, Tekton Pro" font-weight="700"><tspan x="0" y="0">City</tspan></text>
            <path id="Base_Box-7" data-name="Base Box" d="M5.669,24.492c-1.086-.012-2.819.01-3.494-1.215a7.636,7.636,0,0,1-.439-3.237c-.091-3.4-.219-6.8-.327-10.2C1.357,8.177,1.2,6.464,1.3,4.8c.148-2.3,1.5-2.826,3.22-2.943,3.327-.224,6.668-.311,10-.351,2.081-.025,4.165-.015,6.246-.015q13.914,0,27.828.01,20.341.011,40.681.035c12.591.015,76.174.035,88.765.077,6.368.02,12.736.11,19.1.134a1.927,1.927,0,0,1,.209.01l.057,0c-.293-.035-.129-.045.135.047a2.928,2.928,0,0,1,1.293.67c1.054,1.138.643,3.912.658,5.428q.028,3.22.025,6.439,0,2.973-.038,5.944c-.011.926.188,2.413-.348,3.18a2.4,2.4,0,0,1-1.573.759c.312-.06-.238.012-.363.02-2.244.134-4.5.12-6.744.149-10.111.132-71.215.159-81.326.194q-20.673.071-41.347.072-19.31.007-38.62-.03c-7.385-.017-14.771,0-22.156-.112-.443,0-.9.007-1.341-.035v1.494h0c.814,0,.814-1.494,0-1.494h0c-.824,0-.8,1.419,0,1.494,1.628.152,3.3.062,4.928.075q5.909.045,11.817.057,8.49.026,16.979.037,10.125.015,20.248.012,10.78,0,21.559-.012,10.621-.011,21.241-.04,9.483-.026,18.968-.072c4.928-.025,60.846-.055,65.774-.1,2.967-.03,5.934-.052,8.9-.142a15.021,15.021,0,0,0,1.638-.087,3.587,3.587,0,0,0,2.216-1.061c.985-1.108.806-2.888.822-4.35q.07-6.316.008-12.632c-.015-1.611.2-3.556-.342-5.08A3.551,3.551,0,0,0,197.89.376a3.885,3.885,0,0,0-.784-.12c-.78-.045-1.565-.032-2.345-.04-3.433-.04-6.866-.052-10.3-.067C179.076.127,122.7.11,117.311.1Q107.379.075,97.449.06,86.78.045,76.114.032,65.66.021,55.208.015,46.083.007,36.958,0L23.538,0H16.929q-6,0-11.988.341A5.613,5.613,0,0,0,1.4,1.327,4.7,4.7,0,0,0,.053,4.619,48.448,48.448,0,0,0,.144,9.838q.079,2.521.164,5.042A50.448,50.448,0,0,0,.7,22.831c.538,2.712,2.942,3.13,4.966,3.155C6.483,26,6.483,24.5,5.669,24.492Z" transform="translate(-0.004 18.429)" fill="#29339b"/>
          </g>
          <g id="Group_6" data-name="Group 6" transform="translate(20.85 328.451)">
            <text id="State" transform="translate(0.236 7.651)" fill="#29339b" font-size="12" font-family="TektonPro-Bold, Tekton Pro" font-weight="700"><tspan x="0" y="0">State</tspan></text>
            <path id="Base_Box-8" data-name="Base Box" d="M2.16,24.492c-.413-.012-1.073.01-1.33-1.215A19.4,19.4,0,0,1,.663,20.04c-.035-3.4-.083-6.8-.124-10.2C.519,8.177.458,6.464.5,4.8c.056-2.3.57-2.826,1.225-2.943A26.545,26.545,0,0,1,5.53,1.509c.792-.025,1.585-.015,2.377-.015q5.3,0,10.59.01,7.741.011,15.482.035c4.792.015,28.989.035,33.781.077,2.424.02,4.847.11,7.27.134a.286.286,0,0,1,.079.01l.022,0c-.112-.035-.049-.045.051.047a1.41,1.41,0,0,1,.492.67c.4,1.138.245,3.912.25,5.428q.011,3.22.01,6.439,0,2.973-.014,5.944a16.384,16.384,0,0,1-.132,3.18,1.045,1.045,0,0,1-.6.759c.119-.06-.091.012-.138.02a21.109,21.109,0,0,1-2.566.149c-3.848.132-27.1.159-30.95.194q-7.868.071-15.735.072-7.349.007-14.7-.03c-2.81-.017-5.621,0-8.432-.112a2.352,2.352,0,0,1-.51-.035v1.494h0c.31,0,.31-1.494,0-1.494h0c-.314,0-.3,1.419,0,1.494a8.45,8.45,0,0,0,1.875.075c1.5.03,3,.045,4.5.057q3.231.026,6.462.037,3.853.015,7.706.012,4.1,0,8.2-.012,4.042-.011,8.083-.04,3.609-.026,7.218-.072c1.875-.025,23.156-.055,25.031-.1,1.129-.03,2.258-.052,3.387-.142a2.239,2.239,0,0,0,.624-.087,1.548,1.548,0,0,0,.843-1.061A16.166,16.166,0,0,0,76.4,20.3q.026-6.316,0-12.632a42.642,42.642,0,0,0-.13-5.08A3.175,3.175,0,0,0,75.312.376a.686.686,0,0,0-.3-.12,7.135,7.135,0,0,0-.892-.04C72.815.177,71.509.164,70.2.149,68.153.127,46.7.11,44.647.1Q40.867.075,37.088.06q-4.06-.015-8.12-.027Q24.99.021,21.013.015,17.54.007,14.067,0L8.96,0H6.445A30.893,30.893,0,0,0,1.883.341a1.435,1.435,0,0,0-1.348.986A9.767,9.767,0,0,0,.023,4.619c-.051,1.718.014,3.5.035,5.219q.03,2.521.063,5.042C.152,17.46.078,20.3.269,22.831c.2,2.712,1.119,3.13,1.89,3.155C2.469,26,2.469,24.5,2.16,24.492Z" transform="translate(-0.004 18.57)" fill="#29339b"/>
          </g>
          <g id="Group_7" data-name="Group 7" transform="translate(122.943 328.451)">
            <text id="Zip_Code" data-name="Zip Code" transform="translate(0.143 7.651)" fill="#29339b" font-size="12" font-family="TektonPro-Bold, Tekton Pro" font-weight="700"><tspan x="0" y="0">Zip Code</tspan></text>
            <path id="Base_Box-9" data-name="Base Box" d="M2.16,24.492c-.413-.012-1.073.01-1.33-1.215A19.4,19.4,0,0,1,.663,20.04c-.035-3.4-.083-6.8-.124-10.2C.519,8.177.458,6.464.5,4.8c.056-2.3.57-2.826,1.225-2.943A26.545,26.545,0,0,1,5.53,1.509c.792-.025,1.585-.015,2.377-.015q5.3,0,10.59.01,7.741.011,15.482.035c4.792.015,28.989.035,33.781.077,2.424.02,4.847.11,7.27.134a.286.286,0,0,1,.079.01l.022,0c-.112-.035-.049-.045.051.047a1.41,1.41,0,0,1,.492.67c.4,1.138.245,3.912.25,5.428q.011,3.22.01,6.439,0,2.973-.014,5.944a16.384,16.384,0,0,1-.132,3.18,1.045,1.045,0,0,1-.6.759c.119-.06-.091.012-.138.02a21.109,21.109,0,0,1-2.566.149c-3.848.132-27.1.159-30.95.194q-7.868.071-15.735.072-7.349.007-14.7-.03c-2.81-.017-5.621,0-8.432-.112a2.352,2.352,0,0,1-.51-.035v1.494h0c.31,0,.31-1.494,0-1.494h0c-.314,0-.3,1.419,0,1.494a8.45,8.45,0,0,0,1.875.075c1.5.03,3,.045,4.5.057q3.231.026,6.462.037,3.853.015,7.706.012,4.1,0,8.2-.012,4.042-.011,8.083-.04,3.609-.026,7.218-.072c1.875-.025,23.156-.055,25.031-.1,1.129-.03,2.258-.052,3.387-.142a2.239,2.239,0,0,0,.624-.087,1.548,1.548,0,0,0,.843-1.061A16.166,16.166,0,0,0,76.4,20.3q.026-6.316,0-12.632a42.642,42.642,0,0,0-.13-5.08A3.175,3.175,0,0,0,75.312.376a.686.686,0,0,0-.3-.12,7.135,7.135,0,0,0-.892-.04C72.815.177,71.509.164,70.2.149,68.153.127,46.7.11,44.647.1Q40.867.075,37.088.06q-4.06-.015-8.12-.027Q24.99.021,21.013.015,17.54.007,14.067,0L8.96,0H6.445A30.893,30.893,0,0,0,1.883.341a1.435,1.435,0,0,0-1.348.986A9.767,9.767,0,0,0,.023,4.619c-.051,1.718.014,3.5.035,5.219q.03,2.521.063,5.042C.152,17.46.078,20.3.269,22.831c.2,2.712,1.119,3.13,1.89,3.155C2.469,26,2.469,24.5,2.16,24.492Z" transform="translate(0.411 18.57)" fill="#29339b"/>
          </g>
          <g id="Group_5" data-name="Group 5" transform="translate(20.85 201.137)">
            <text id="Address_Line_2" data-name="Address Line 2" transform="translate(0.236 7.965)" fill="#29339b" font-size="12" font-family="TektonPro-Bold, Tekton Pro" font-weight="700"><tspan x="0" y="0">Address Line 2</tspan></text>
            <path id="Base_Box-10" data-name="Base Box" d="M5.669,24.492c-1.086-.012-2.819.01-3.494-1.215a7.636,7.636,0,0,1-.439-3.237c-.091-3.4-.219-6.8-.327-10.2C1.357,8.177,1.2,6.464,1.3,4.8c.148-2.3,1.5-2.826,3.22-2.943,3.327-.224,6.668-.311,10-.351,2.081-.025,4.165-.015,6.246-.015q13.914,0,27.828.01,20.341.011,40.681.035c12.591.015,76.174.035,88.765.077,6.368.02,12.736.11,19.1.134a1.927,1.927,0,0,1,.209.01l.057,0c-.293-.035-.129-.045.135.047a2.928,2.928,0,0,1,1.293.67c1.054,1.138.643,3.912.658,5.428q.028,3.22.025,6.439,0,2.973-.038,5.944c-.011.926.188,2.413-.348,3.18a2.4,2.4,0,0,1-1.573.759c.312-.06-.238.012-.363.02-2.244.134-4.5.12-6.744.149-10.111.132-71.215.159-81.326.194q-20.673.071-41.347.072-19.31.007-38.62-.03c-7.385-.017-14.771,0-22.156-.112-.443,0-.9.007-1.341-.035v1.494h0c.814,0,.814-1.494,0-1.494h0c-.824,0-.8,1.419,0,1.494,1.628.152,3.3.062,4.928.075q5.909.045,11.817.057,8.49.026,16.979.037,10.125.015,20.248.012,10.78,0,21.559-.012,10.621-.011,21.241-.04,9.483-.026,18.968-.072c4.928-.025,60.846-.055,65.774-.1,2.967-.03,5.934-.052,8.9-.142a15.021,15.021,0,0,0,1.638-.087,3.587,3.587,0,0,0,2.216-1.061c.985-1.108.806-2.888.822-4.35q.07-6.316.008-12.632c-.015-1.611.2-3.556-.342-5.08A3.551,3.551,0,0,0,197.89.376a3.885,3.885,0,0,0-.784-.12c-.78-.045-1.565-.032-2.345-.04-3.433-.04-6.866-.052-10.3-.067C179.076.127,122.7.11,117.311.1Q107.379.075,97.449.06,86.78.045,76.114.032,65.66.021,55.208.015,46.083.007,36.958,0L23.538,0H16.929q-6,0-11.988.341A5.613,5.613,0,0,0,1.4,1.327,4.7,4.7,0,0,0,.053,4.619,48.448,48.448,0,0,0,.144,9.838q.079,2.521.164,5.042A50.448,50.448,0,0,0,.7,22.831c.538,2.712,2.942,3.13,4.966,3.155C6.483,26,6.483,24.5,5.669,24.492Z" transform="translate(-0.004 18.288)" fill="#29339b"/>
          </g>
        </g>
      </g>
      <g id="Group_2529" data-name="Group 2529" transform="translate(6 81)">
        <g id="Group_2479" data-name="Group 2479" transform="translate(953.915 106.898)">
          <g id="Mobile_wireframe-3" data-name="Mobile wireframe" transform="translate(0 0)">
            <g id="Phone_border_screen-3" data-name="Phone border screen" transform="translate(0.085 0.102)" fill="none">
              <path d="M35.818-.029s73.46.164,87.506,0,87.4,0,87.4,0a35.842,35.842,0,0,1,35.842,35.842s.227,126.024,0,158.444,1.017,121.07,0,137.268,0,132.955,0,132.955a35.842,35.842,0,0,1-35.842,35.842s-66.126-.773-84.261,0-90.646,0-90.646,0A35.842,35.842,0,0,1-.024,464.48s-.061-78.288-.061-160.857c0-.44.061-174.392.061-174.392V35.813A35.842,35.842,0,0,1,35.818-.029Z" stroke="none"/>
              <path d="M 152.2258911132812 1.898284912109375 C 137.1951904296875 1.898284912109375 127.4789505004883 1.92279052734375 123.3469467163086 1.971038818359375 C 119.1951293945312 2.01953125 109.4539489746094 2.044097900390625 94.39407348632812 2.044097900390625 C 68.76138305664062 2.044097900390625 36.13957214355469 1.971923828125 35.8175048828125 1.971160888671875 C 31.24801635742188 1.971160888671875 26.81631469726562 2.86566162109375 22.6453857421875 4.629791259765625 C 18.61582946777344 6.33416748046875 14.99644470214844 8.77459716796875 11.8878173828125 11.88323974609375 C 8.779190063476562 14.99179077148438 6.338821411132812 18.61117553710938 4.634445190429688 22.64077758789062 C 2.870315551757812 26.81173706054688 1.975814819335938 31.243408203125 1.975814819335938 35.81292724609375 L 1.975814819335938 129.2319641113281 C 1.975204467773438 130.9714660644531 1.914566040039062 303.1879272460938 1.914566040039062 303.623046875 C 1.914566040039062 385.246337890625 1.975204467773438 463.6952209472656 1.975814819335938 464.4796752929688 C 1.975814819335938 469.0491638183594 2.870315551757812 473.4808349609375 4.634445190429688 477.6517944335938 C 6.338821411132812 481.6813354492188 8.779190063476562 485.3007202148438 11.8878173828125 488.4093627929688 C 14.99644470214844 491.5179748535156 18.61582946777344 493.9583435058594 22.6453857421875 495.6627197265625 C 26.81631469726562 497.4268493652344 31.24801635742188 498.3213500976562 35.8175048828125 498.3213500976562 L 35.82820129394531 498.3213500976562 L 35.83882141113281 498.3214721679688 C 36.1610107421875 498.3249206542969 68.36276245117188 498.6650390625 94.90313720703125 498.6650390625 C 110.4688873291016 498.6650390625 121.0588226318359 498.550048828125 126.3787612915039 498.3231506347656 C 131.7548217773438 498.0939025878906 141.8450622558594 497.9776611328125 156.3692626953125 497.9776611328125 C 180.8797302246094 497.9776611328125 210.0240936279297 498.3130798339844 210.7372894287109 498.3213500976562 C 215.3023529052734 498.3197021484375 219.7300109863281 497.4252319335938 223.8971405029297 495.6627197265625 C 227.9266967773438 493.9583435058594 231.5460662841797 491.5179748535156 234.6546936035156 488.4093627929688 C 237.7633209228516 485.3007202148438 240.2037048339844 481.6813354492188 241.9080657958984 477.6517944335938 C 243.6708984375 473.4839172363281 244.5653839111328 469.0554504394531 244.5666961669922 464.489501953125 C 244.5242004394531 459.6038513183594 243.5617523193359 347.473876953125 244.5706329345703 331.39892578125 C 245.1941986083984 321.4638061523438 244.9545135498047 282.928466796875 244.7430114746094 248.9294128417969 C 244.6077575683594 227.1881103515625 244.4800109863281 206.6525268554688 244.5667572021484 194.24267578125 C 244.7906951904297 162.2024230957031 244.5689544677734 37.07666015625 244.5666961669922 35.81292724609375 C 244.5666961669922 31.243408203125 243.6721954345703 26.81173706054688 241.9080657958984 22.64077758789062 C 240.2037048339844 18.61117553710938 237.7633209228516 14.99179077148438 234.6546936035156 11.88323974609375 C 231.5460662841797 8.77459716796875 227.9266967773438 6.33416748046875 223.8971405029297 4.629791259765625 C 219.7261962890625 2.86566162109375 215.2945098876953 1.971160888671875 210.7205047607422 1.971160888671875 C 210.3945770263672 1.97039794921875 177.8246459960938 1.898284912109375 152.2258911132812 1.898284912109375 M 152.2258911132812 -0.101715087890625 C 178.1230010986328 -0.10174560546875 210.7250061035156 -0.028839111328125 210.7250061035156 -0.028839111328125 C 230.5198211669922 -0.028839111328125 246.5666961669922 16.01809692382812 246.5666961669922 35.81292724609375 C 246.5666961669922 35.81292724609375 246.7933197021484 161.8369140625 246.5666961669922 194.2566528320312 C 246.3400726318359 226.6764221191406 247.5833282470703 315.3267211914062 246.5666961669922 331.5242309570312 C 245.5501403808594 347.7216796875 246.5666961669922 464.4796752929688 246.5666961669922 464.4796752929688 C 246.5666961669922 484.2744750976562 230.5198211669922 500.3213500976562 210.7250061035156 500.3213500976562 C 210.7250061035156 500.3213500976562 181.3345336914062 499.9776611328125 156.3692626953125 499.9776611328125 C 143.8843536376953 499.9776611328125 132.5095825195312 500.0635375976562 126.4639434814453 500.3213500976562 C 120.4194030761719 500.5790710449219 108.3312530517578 500.6650085449219 94.90313720703125 500.6650085449219 C 68.04443359375 500.6650085449219 35.8175048828125 500.3213500976562 35.8175048828125 500.3213500976562 C 16.02268981933594 500.3213500976562 -0.0241851806640625 484.2744750976562 -0.0241851806640625 464.4796752929688 C -0.0241851806640625 464.4796752929688 -0.0854339599609375 386.19140625 -0.0854339599609375 303.623046875 C -0.0854339599609375 303.1825561523438 -0.0241851806640625 129.2312927246094 -0.0241851806640625 129.2312927246094 L -0.0241851806640625 35.81292724609375 C -0.0241851806640625 16.01809692382812 16.02268981933594 -0.028839111328125 35.8175048828125 -0.028839111328125 C 35.8175048828125 -0.028839111328125 68.46713256835938 0.0440673828125 94.39408874511719 0.0440673828125 C 107.3599395751953 0.0440673828125 118.6409606933594 0.025848388671875 123.3235702514648 -0.028839111328125 C 128.0053100585938 -0.08349609375 139.2785339355469 -0.101715087890625 152.2258911132812 -0.101715087890625 Z" stroke="none" fill="#29339b"/>
            </g>
            <g id="Phone_screen-3" data-name="Phone screen" transform="translate(14.398 15.126)" fill="#fff" opacity="0.6">
              <path d="M 194.9787139892578 469.9601135253906 L 22.93830680847168 469.9601135253906 C 19.97618865966797 469.9601135253906 17.10324859619141 469.3802185058594 14.39924812316895 468.2365417480469 C 11.78695392608643 467.131591796875 9.440659523010254 465.5496520996094 7.425601005554199 463.5345153808594 C 5.410601139068604 461.5196533203125 3.828659772872925 459.17333984375 2.7236008644104 456.5608825683594 C 1.57989501953125 453.8568725585938 1.000012636184692 450.98388671875 1.000012636184692 448.0218200683594 L 1.000012636184692 344.3094177246094 L 1.000012636184692 104.5709991455078 L 1.000012636184692 22.93917465209961 C 1.000012636184692 19.97688102722168 1.57989501953125 17.10376358032227 2.7236008644104 14.39958572387695 C 3.828600883483887 11.78711605072021 5.410601139068604 9.440762519836426 7.425601005554199 7.425704002380371 C 9.440835952758789 5.410468578338623 11.78713035583496 3.828468561172485 14.39924812316895 2.723586082458496 C 17.10324859619141 1.579880237579346 19.97618865966797 0.9999979138374329 22.93830680847168 0.9999979138374329 L 48.31833267211914 0.9999979138374329 C 47.93730926513672 2.234335899353027 47.74489593505859 3.517805814743042 47.74489593505859 4.832115650177002 L 47.74489593505859 5.921115398406982 C 47.74489593505859 9.393645286560059 49.09707260131836 12.65823364257812 51.55230712890625 15.11340999603271 C 54.00748443603516 17.56864547729492 57.27207183837891 18.92082214355469 60.74460220336914 18.92082214355469 L 157.8897247314453 18.92082214355469 C 161.3622436523438 18.92082214355469 164.6268310546875 17.56864547729492 167.0820159912109 15.11340999603271 C 169.5372467041016 12.65823364257812 170.8894195556641 9.393645286560059 170.8894195556641 5.921115398406982 L 170.8894195556641 4.832115650177002 C 170.8894195556641 3.517805814743042 170.6970062255859 2.234340906143188 170.3159637451172 0.9999979138374329 L 194.9787139892578 0.9999979138374329 C 197.9408416748047 0.9999979138374329 200.8138427734375 1.579880237579346 203.5179595947266 2.723586082458496 C 206.1303100585938 3.828527450561523 208.4766540527344 5.410527229309082 210.4918365478516 7.425704002380371 C 212.5070648193359 9.440879821777344 214.0891876220703 11.78723335266113 215.1941833496094 14.39964485168457 C 216.3379516601562 17.10387992858887 216.9178924560547 19.97699737548828 216.9178924560547 22.93917465209961 L 216.9178924560547 448.0218200683594 C 216.9178924560547 450.9837646484375 216.3379516601562 453.856689453125 215.1941833496094 456.5609436035156 C 214.0892486572266 459.1730041503906 212.5071258544922 461.519287109375 210.4918365478516 463.5345153808594 C 208.4766540527344 465.5495910644531 206.1302490234375 467.131591796875 203.5178985595703 468.2365417480469 C 200.8137817382812 469.3802185058594 197.9407806396484 469.9601135253906 194.9787139892578 469.9601135253906 Z" stroke="none"/>
              <path d="M 194.9787139892578 468.9601135253906 C 197.8061828613281 468.9601135253906 200.5481872558594 468.4067687988281 203.1283721923828 467.3155212402344 C 205.6215362548828 466.260986328125 207.8610687255859 464.7509460449219 209.7847747802734 462.8274230957031 C 211.7085418701172 460.9037170410156 213.2186584472656 458.6642456054688 214.273193359375 456.1713562011719 C 215.3645477294922 453.591064453125 215.9178924560547 450.8491821289062 215.9178924560547 448.0218200683594 L 215.9178924560547 22.93917465209961 C 215.9178924560547 20.11158561706543 215.3645477294922 17.36946868896484 214.273193359375 14.78917407989502 C 213.2185974121094 12.29599761962891 211.7084808349609 10.05646896362305 209.7847747802734 8.132821083068848 C 207.8610687255859 6.209174633026123 205.6215362548828 4.699115753173828 203.12841796875 3.644586086273193 C 200.5481872558594 2.553350925445557 197.8062438964844 1.999997973442078 194.9787139892578 1.999997973442078 L 171.6036987304688 1.999997973442078 C 171.7937316894531 2.924674510955811 171.8894195556641 3.870868444442749 171.8894195556641 4.832115650177002 L 171.8894195556641 5.921115398406982 C 171.8894195556641 9.660762786865234 170.4332427978516 13.17646884918213 167.7891235351562 15.82046890258789 C 165.1450653076172 18.46464538574219 161.6293640136719 19.92082214355469 157.8897247314453 19.92082214355469 L 60.74460220336914 19.92082214355469 C 57.00495529174805 19.92082214355469 53.4892463684082 18.46464538574219 50.84524917602539 15.82052707672119 C 48.20107269287109 13.17646884918213 46.74489593505859 9.660762786865234 46.74489593505859 5.921115398406982 L 46.74489593505859 4.832115650177002 C 46.74489593505859 3.870868444442749 46.84057235717773 2.924682140350342 47.03057861328125 1.999997973442078 L 22.93830680847168 1.999997973442078 C 20.11077690124512 1.999997973442078 17.36889457702637 2.553292036056519 14.78883647918701 3.644586086273193 C 12.29583644866943 4.699056625366211 10.05642414093018 6.209056854248047 8.132719039916992 8.132762908935547 C 6.209248065948486 10.05635070800781 4.699189186096191 12.29588031768799 3.644600868225098 14.78911590576172 C 2.553365707397461 17.36935043334961 2.000012636184692 20.11146926879883 2.000012636184692 22.93917465209961 L 2.000012636184692 104.5709991455078 L 2.000012636184692 344.3094177246094 L 2.000012636184692 448.0218200683594 C 2.000012636184692 450.849365234375 2.553365707397461 453.5912475585938 3.644600868225098 456.1713562011719 C 4.69924783706665 458.6645812988281 6.209248065948486 460.9039916992188 8.132719039916992 462.8274230957031 C 10.05624771118164 464.7510070800781 12.2957181930542 466.260986328125 14.78883647918701 467.3155212402344 C 17.36889457702637 468.4068298339844 20.11077690124512 468.9601135253906 22.93830680847168 468.9601135253906 L 194.9787139892578 468.9601135253906 M 194.9787139892578 470.9601135253906 L 22.93830680847168 470.9601135253906 C 19.84165954589844 470.9601135253906 16.83765983581543 470.3536376953125 14.0097188949585 469.1575317382812 C 11.27818870544434 468.0021667480469 8.825071334838867 466.3482360839844 6.718483448028564 464.2416381835938 C 4.611895084381104 462.1351013183594 2.958012580871582 459.6820068359375 1.802600860595703 456.9504699707031 C 0.6064832806587219 454.1224670410156 1.268095093109878e-05 451.1184692382812 1.268095093109878e-05 448.0218200683594 L 1.268095093109878e-05 344.3094177246094 L 1.268095093109878e-05 104.5709991455078 L 1.268095093109878e-05 22.93917465209961 C 1.268095093109878e-05 19.84235000610352 0.6064832806587219 16.83817481994629 1.802600860595703 14.0100564956665 C 2.958012580871582 11.27840995788574 4.611953735351562 8.825174331665039 6.718483448028564 6.718585968017578 C 8.825189590454102 4.611880302429199 11.27830696105957 2.957880258560181 14.0097188949585 1.802586197853088 C 16.83765983581543 0.6064684987068176 19.84165954589844 -2.060834049188998e-06 22.93830680847168 -2.060834049188998e-06 L 49.75736618041992 -2.060834049188998e-06 C 49.08583450317383 1.524880290031433 48.74489593505859 3.150174379348755 48.74489593505859 4.832115650177002 L 48.74489593505859 5.921115398406982 C 48.74489593505859 9.126527786254883 49.99307250976562 12.1399974822998 52.25942611694336 14.40629196166992 C 54.52571868896484 16.67264556884766 57.53918838500977 17.92082214355469 60.74460220336914 17.92082214355469 L 157.8897247314453 17.92082214355469 C 161.0951232910156 17.92082214355469 164.1085968017578 16.67264556884766 166.3748931884766 14.40629196166992 C 168.6412506103516 12.1399974822998 169.8894195556641 9.126527786254883 169.8894195556641 5.921115398406982 L 169.8894195556641 4.832115650177002 C 169.8894195556641 3.151350975036621 169.5487823486328 1.525645017623901 168.8768920898438 -2.060834049188998e-06 L 194.9787139892578 -2.060834049188998e-06 C 198.0753631591797 -2.060834049188998e-06 201.0794219970703 0.6064684987068176 203.9074859619141 1.802586197853088 C 206.6390075683594 2.957939147949219 209.0921936035156 4.611880302429199 211.1989593505859 6.718585968017578 C 213.3057250976562 8.825291633605957 214.9597778320312 11.27852725982666 216.1151885986328 14.0100564956665 C 217.3113708496094 16.83823394775391 217.9178924560547 19.84240913391113 217.9178924560547 22.93917465209961 L 217.9178924560547 448.0218200683594 C 217.9178924560547 451.1183471679688 217.3113708496094 454.1223449707031 216.1151885986328 456.9504699707031 C 214.9598388671875 459.6817626953125 213.3057708740234 462.1348876953125 211.1989593505859 464.2416381835938 C 209.0921936035156 466.3482360839844 206.6389465332031 468.0021667480469 203.9074859619141 469.1575317382812 C 201.0793609619141 470.3536376953125 198.0753021240234 470.9601135253906 194.9787139892578 470.9601135253906 Z" stroke="none" fill="#29339b"/>
            </g>
            <g id="Header_icon-3" data-name="Header icon" transform="translate(104.252 19.078)">
              <path id="Line-5" data-name="Line" d="M1.082,74.406c.3.165,11.641.214,17.762.042,5.387-.152,10.774-.586,16.174-.633.325,0,2.215,0,2.553,0,.376.095.926-.424.927-.868s-.734-.808-1.387-.776c-5.313-.033-10.55.232-15.9.27-5.718.234-17.967.05-17.967.05l-2.222-.132s-.9.1-.923.938S.785,74.241,1.082,74.406Z" transform="translate(-0.102 -70.631)" fill="#29339b"/>
              <ellipse id="Ellipse_335-3" data-name="Ellipse 335" cx="3" cy="2" rx="3" ry="2" transform="translate(40.833 0.024)" fill="#29339b"/>
            </g>
            <path id="Line-6" data-name="Line" d="M2.076,74.469c.766.169,29.995.221,45.765.043,13.88-.157,27.76-.6,41.673-.65.838,0,5.707,0,6.577,0,.969.1.812-.586.813-1.042s-.318-.681-2-.648c-13.689-.034-27.181.239-40.958.277-14.733.241-46.291.052-46.291.052L1.93,72.364s-1.119.114-1.173.973S1.31,74.3,2.076,74.469Z" transform="translate(74.217 398.618)" fill="#29339b" stroke="#29339b" stroke-width="1"/>
            <g id="status_bar_light-3" data-name="status bar/light" transform="translate(24.434 30.897)">
              <g id="Battery-3" data-name="Battery" transform="translate(184.943 1.673)">
                <g id="Border-3" data-name="Border" clip-path="url(#clip-path)">
                  <path id="Fill-11" data-name="Fill" d="M1.912,0H13.859A1.912,1.912,0,0,1,15.77,1.912v4.3h0a1.912,1.912,0,0,1-1.912,1.912H1.912A1.912,1.912,0,0,1,0,6.213v-4.3H0A1.912,1.912,0,0,1,1.912,0Z" fill="none" stroke="rgba(21,131,216,0.5)" stroke-width="2"/>
                </g>
                <g id="Cap-3" data-name="Cap" transform="translate(16.487 2.628)" clip-path="url(#clip-path-2)">
                  <path id="Fill-12" data-name="Fill" d="M354-28h8.12v10.036H354Z" transform="translate(-357.584 24.416)" fill="#29339b"/>
                </g>
                <g id="Capacity-3" data-name="Capacity" transform="translate(1.434 1.434)" clip-path="url(#clip-path-3)">
                  <path id="Fill-13" data-name="Fill" d="M333-29.667h20.071v12.425H333Z" transform="translate(-336.584 26.082)" fill="#29339b"/>
                </g>
              </g>
              <g id="Wifi-5" data-name="Wifi" transform="translate(170.387 1.671)">
                <g id="Wifi-6" data-name="Wifi" transform="translate(0 0)" clip-path="url(#clip-path-4)">
                  <path id="Fill-14" data-name="Fill" d="M310.694-31.669H328.81V-16.64H310.694Z" transform="translate(-314.278 28.085)" fill="#29339b"/>
                </g>
              </g>
              <g id="Cellular_Connection-5" data-name="Cellular Connection" transform="translate(154.597 1.912)">
                <g id="Cellular_Connection-6" data-name="Cellular Connection" transform="translate(0 0)" clip-path="url(#clip-path-15)">
                  <path id="Fill-15" data-name="Fill" d="M288.667-31.333h19.355v14.815H288.667Z" transform="translate(-292.251 27.749)" fill="#29339b"/>
                </g>
              </g>
              <g id="Bars___Time_Black-3" data-name="Bars/_/Time Black" transform="translate(0)">
                <path id="Background-3" data-name="Background" d="M21-23.531H59.709V-35H21Z" transform="translate(-21 35)" fill="none"/>
                <text id="_10:20-3" data-name="10:20" transform="translate(2.652 9.205)" fill="#29339b" font-size="10" font-family="TektonPro-Bold, Tekton Pro" font-weight="700"><tspan x="0" y="0">10:20</tspan></text>
              </g>
            </g>
          </g>
          <g id="Buttons_Pill_Button_Large-3" data-name="Buttons / Pill Button / Large" transform="translate(64.576 410.102)">
            <path id="Pill_Button-3" data-name="Pill Button" d="M59.166,40.945c10.511.214,21.019.038,31.53.005,8.125-.028,17-2.376,22.795-8.428,5.909-6.171,6.38-16.784,1.648-23.794C110,1.1,99.116.24,90.762.105c-4.647-.076-9.3-.158-13.945.005-4.235.15-8.461.4-12.7.371C58.784.451,53.452.55,48.123.355,43.277.176,38.439-.037,33.586.026,24.8.136,14.973-.335,7.3,4.7.1,9.426-1.684,19.942,1.549,27.55,4.849,35.319,13.92,39.381,21.8,40.6c4.716.733,9.631.359,14.388.4,4.861.043,9.722.089,14.583.056q4.2-.027,8.392-.114a.764.764,0,0,0,0-1.526c-9.816.2-19.625.064-29.442.013A41.414,41.414,0,0,1,17.69,38.1,27.773,27.773,0,0,1,6.736,32.243C.489,26.476-.2,15.77,4.872,8.983,7.509,5.452,12,3.692,16.166,2.748a61.033,61.033,0,0,1,12.948-1.14c4.548-.043,9.086-.112,13.632.053,4.329.155,8.656.371,12.991.341,4.958-.036,9.921.081,14.878-.109,4.045-.155,8.082-.369,12.131-.364,8.575.015,18.292-.6,26.066,3.62a14.65,14.65,0,0,1,7.311,9.529,19.021,19.021,0,0,1-.949,12.749c-3.442,7.311-12.63,11.055-20.241,11.859-2.172.229-4.373.132-6.553.145q-3.7.019-7.395.056c-4.609.041-9.221.076-13.83.043q-3.995-.031-7.987-.114A.765.765,0,0,0,59.166,40.945Z" transform="translate(0 -0.015)" fill="#29339b"/>
            <text id="Save_Card" data-name="Save Card" transform="translate(60.509 24)" fill="#29339b" font-size="13" font-family="TektonPro-Bold, Tekton Pro" font-weight="700"><tspan x="-26.507" y="0">Save Card</tspan></text>
          </g>
          <g id="Group_4-3" data-name="Group 4" transform="translate(23 133.978)">
            <text id="Email" transform="translate(0.085 8.124)" fill="#29339b" font-size="12" font-family="TektonPro-Bold, Tekton Pro" font-weight="700"><tspan x="0" y="0">Email</tspan></text>
            <path id="Base_Box-11" data-name="Base Box" d="M5.669,24.492c-1.086-.012-2.819.01-3.494-1.215a7.636,7.636,0,0,1-.439-3.237c-.091-3.4-.219-6.8-.327-10.2C1.357,8.177,1.2,6.464,1.3,4.8c.148-2.3,1.5-2.826,3.22-2.943,3.327-.224,6.668-.311,10-.351,2.081-.025,4.165-.015,6.246-.015q13.914,0,27.828.01,20.341.011,40.681.035c12.591.015,76.174.035,88.765.077,6.368.02,12.736.11,19.1.134a1.926,1.926,0,0,1,.209.01l.057,0c-.293-.035-.129-.045.135.047a2.928,2.928,0,0,1,1.293.67c1.054,1.138.643,3.912.658,5.428q.028,3.22.025,6.439,0,2.973-.038,5.944c-.011.926.188,2.413-.348,3.18a2.4,2.4,0,0,1-1.573.759c.312-.06-.238.012-.363.02-2.244.134-4.5.12-6.744.149-10.111.132-71.215.159-81.326.194q-20.673.071-41.347.072-19.31.007-38.62-.03c-7.385-.017-14.771,0-22.156-.112-.443,0-.9.007-1.341-.035v1.494h0c.814,0,.814-1.494,0-1.494h0c-.824,0-.8,1.419,0,1.494,1.628.152,3.3.062,4.928.075q5.909.045,11.817.057,8.49.026,16.979.037,10.125.015,20.248.012,10.78,0,21.559-.012,10.621-.011,21.241-.04,9.483-.026,18.968-.072c4.928-.025,60.846-.055,65.774-.1,2.967-.03,5.934-.052,8.9-.142a15.021,15.021,0,0,0,1.638-.087,3.587,3.587,0,0,0,2.216-1.061c.985-1.108.806-2.888.822-4.35q.07-6.316.008-12.632c-.015-1.611.2-3.556-.342-5.08A3.551,3.551,0,0,0,197.89.376a3.885,3.885,0,0,0-.784-.12c-.78-.045-1.565-.032-2.345-.04-3.433-.04-6.866-.052-10.3-.067C179.076.127,122.7.11,117.311.1Q107.379.075,97.449.06,86.78.045,76.114.032,65.66.021,55.208.015,46.083.007,36.958,0L23.538,0H16.929q-6,0-11.988.341A5.613,5.613,0,0,0,1.4,1.327,4.7,4.7,0,0,0,.053,4.619,48.448,48.448,0,0,0,.144,9.838q.079,2.521.164,5.042A50.448,50.448,0,0,0,.7,22.831c.538,2.712,2.942,3.13,4.966,3.155C6.483,26,6.483,24.5,5.669,24.492Z" transform="translate(-0.004 18.78)" fill="#29339b"/>
          </g>
          <g id="Group_3-3" data-name="Group 3" transform="translate(23 215.412)">
            <text id="Phone_Number" data-name="Phone Number" transform="translate(0.085 7.689)" fill="#29339b" font-size="12" font-family="TektonPro-Bold, Tekton Pro" font-weight="700"><tspan x="0" y="0">Phone Number</tspan></text>
            <path id="Base_Box-12" data-name="Base Box" d="M5.669,24.492c-1.086-.012-2.819.01-3.494-1.215a7.636,7.636,0,0,1-.439-3.237c-.091-3.4-.219-6.8-.327-10.2C1.357,8.177,1.2,6.464,1.3,4.8c.148-2.3,1.5-2.826,3.22-2.943,3.327-.224,6.668-.311,10-.351,2.081-.025,4.165-.015,6.246-.015q13.914,0,27.828.01,20.341.011,40.681.035c12.591.015,76.174.035,88.765.077,6.368.02,12.736.11,19.1.134a1.926,1.926,0,0,1,.209.01l.057,0c-.293-.035-.129-.045.135.047a2.928,2.928,0,0,1,1.293.67c1.054,1.138.643,3.912.658,5.428q.028,3.22.025,6.439,0,2.973-.038,5.944c-.011.926.188,2.413-.348,3.18a2.4,2.4,0,0,1-1.573.759c.312-.06-.238.012-.363.02-2.244.134-4.5.12-6.744.149-10.111.132-71.215.159-81.326.194q-20.673.071-41.347.072-19.31.007-38.62-.03c-7.385-.017-14.771,0-22.156-.112-.443,0-.9.007-1.341-.035v1.494h0c.814,0,.814-1.494,0-1.494h0c-.824,0-.8,1.419,0,1.494,1.628.152,3.3.062,4.928.075q5.909.045,11.817.057,8.49.026,16.979.037,10.125.015,20.248.012,10.78,0,21.559-.012,10.621-.011,21.241-.04,9.483-.026,18.968-.072c4.928-.025,60.846-.055,65.774-.1,2.967-.03,5.934-.052,8.9-.142a15.021,15.021,0,0,0,1.638-.087,3.587,3.587,0,0,0,2.216-1.061c.985-1.108.806-2.888.822-4.35q.07-6.316.008-12.632c-.015-1.611.2-3.556-.342-5.08A3.551,3.551,0,0,0,197.89.376a3.885,3.885,0,0,0-.784-.12c-.78-.045-1.565-.032-2.345-.04-3.433-.04-6.866-.052-10.3-.067C179.076.127,122.7.11,117.311.1Q107.379.075,97.449.06,86.78.045,76.114.032,65.66.021,55.208.015,46.083.007,36.958,0L23.538,0H16.929q-6,0-11.988.341A5.613,5.613,0,0,0,1.4,1.327,4.7,4.7,0,0,0,.053,4.619,48.448,48.448,0,0,0,.144,9.838q.079,2.521.164,5.042A50.448,50.448,0,0,0,.7,22.831c.538,2.712,2.942,3.13,4.966,3.155C6.483,26,6.483,24.5,5.669,24.492Z" transform="translate(-0.004 19.065)" fill="#29339b"/>
          </g>
        </g>
      </g>
      <g id="Group_2535" data-name="Group 2535" transform="translate(22 -232)">
        <text id="Enter_payment_info" data-name="Enter payment info" transform="translate(374 949)" fill="#29339b" font-size="16" font-family="TektonPro-Bold, Tekton Pro" font-weight="700" letter-spacing="0.003em"><tspan x="0" y="11">Enter payment info</tspan></text>
        <g id="Group_2500" data-name="Group 2500" transform="translate(2003 -631)">
          <circle id="Ellipse_569" data-name="Ellipse 569" cx="20" cy="20" r="20" transform="translate(-1679 1568)" fill="#29d9c2"/>
          <text id="_1" data-name="1" transform="translate(-1673 1575)" fill="#fff" font-size="20" font-family="NunitoSans-Black, Nunito Sans" font-weight="800" letter-spacing="0.003em"><tspan x="8" y="20">1</tspan></text>
        </g>
      </g>
      <g id="Group_2534" data-name="Group 2534" transform="translate(-14 -232)">
        <text id="Enter_billing_info" data-name="Enter billing info" transform="translate(744 949)" fill="#29339b" font-size="16" font-family="TektonPro-Bold, Tekton Pro" font-weight="700" letter-spacing="0.003em"><tspan x="0" y="11">Enter billing info</tspan></text>
        <g id="Group_2501" data-name="Group 2501" transform="translate(2297 -631)">
          <circle id="Ellipse_571" data-name="Ellipse 571" cx="20" cy="20" r="20" transform="translate(-1603 1568)" fill="#29d9c2"/>
          <text id="_2" data-name="2" transform="translate(-1597 1575)" fill="#fff" font-size="20" font-family="NunitoSans-Black, Nunito Sans" font-weight="800" letter-spacing="0.003em"><tspan x="7.99" y="20">2</tspan></text>
        </g>
      </g>
      <g id="Group_2533" data-name="Group 2533" transform="translate(-49 -232)">
        <text id="Enter_contact_info" data-name="Enter contact info" transform="translate(1094 949)" fill="#29339b" font-size="16" font-family="TektonPro-Bold, Tekton Pro" font-weight="700" letter-spacing="0.003em"><tspan x="0" y="11">Enter contact info</tspan></text>
        <g id="Group_2502" data-name="Group 2502" transform="translate(2575 -631)">
          <circle id="Ellipse_570" data-name="Ellipse 570" cx="20" cy="20" r="20" transform="translate(-1531 1568)" fill="#29d9c2"/>
          <text id="_3" data-name="3" transform="translate(-1525 1575)" fill="#fff" font-size="20" font-family="NunitoSans-Black, Nunito Sans" font-weight="800" letter-spacing="0.003em"><tspan x="8" y="20">3</tspan></text>
        </g>
      </g>
    </g>
  </g>
</svg>
