<svg xmlns="http://www.w3.org/2000/svg" xmlns:xlink="http://www.w3.org/1999/xlink" width="1000" viewBox="0 0 1000 765" style="max-width:100%;">
  <defs>
    <clipPath id="clip-path">
      <path id="Shape" d="M338.667-26.667h16.667A2.667,2.667,0,0,1,358-24v6h0a2.667,2.667,0,0,1-2.667,2.667H338.667A2.667,2.667,0,0,1,336-18v-6h0A2.667,2.667,0,0,1,338.667-26.667Z" transform="translate(0 44)" fill="none" clip-rule="evenodd"/>
    </clipPath>
    <clipPath id="clip-path-2">
      <path id="Shape-2" data-name="Shape" d="M359-23v4a2.17,2.17,0,0,0,1.328-2A2.17,2.17,0,0,0,359-23" transform="translate(0 44)" fill="#29339b"/>
    </clipPath>
    <clipPath id="clip-path-3">
      <path id="Shape-3" data-name="Shape" d="M339.333-24.667h15.333A1.333,1.333,0,0,1,356-23.333v4.667h0a1.333,1.333,0,0,1-1.333,1.333H339.333A1.333,1.333,0,0,1,338-18.667v-4.667h0A1.333,1.333,0,0,1,339.333-24.667Z" transform="translate(0 44)" fill="#29339b"/>
    </clipPath>
    <clipPath id="clip-path-4">
      <path id="Shape-4" data-name="Shape" d="M323.33-24.392a8.64,8.64,0,0,1,5.953,2.378.308.308,0,0,0,.433,0l1.156-1.167a.322.322,0,0,0,.093-.229.322.322,0,0,0-.1-.227,10.9,10.9,0,0,0-15.08,0,.322.322,0,0,0-.1.227.322.322,0,0,0,.093.229l1.156,1.167a.308.308,0,0,0,.433,0,8.641,8.641,0,0,1,5.954-2.378Zm0,3.8a4.907,4.907,0,0,1,3.294,1.27.31.31,0,0,0,.433-.006l1.155-1.167a.322.322,0,0,0,.094-.23.322.322,0,0,0-.1-.229,7.159,7.159,0,0,0-9.752,0,.322.322,0,0,0-.1.229.322.322,0,0,0,.094.23l1.154,1.167a.31.31,0,0,0,.433.006,4.907,4.907,0,0,1,3.292-1.27Zm2.219,2.784a.314.314,0,0,0,.094-.231.314.314,0,0,0-.1-.226,3.422,3.422,0,0,0-4.419,0,.314.314,0,0,0-.1.226.314.314,0,0,0,.094.231l2,2.016a.311.311,0,0,0,.222.093.312.312,0,0,0,.222-.093Z" transform="translate(0 44)" fill="#29339b"/>
    </clipPath>
    <clipPath id="clip-path-5">
      <path id="Shape-5" data-name="Shape" d="M294.667-19.667h1a1,1,0,0,1,1,1v2a1,1,0,0,1-1,1h-1a1,1,0,0,1-1-1v-2a1,1,0,0,1,1-1Zm4.667-2h1a1,1,0,0,1,1,1v4a1,1,0,0,1-1,1h-1a1,1,0,0,1-1-1v-4A1,1,0,0,1,299.333-21.667ZM304-24h1a1,1,0,0,1,1,1v6.333a1,1,0,0,1-1,1h-1a1,1,0,0,1-1-1V-23A1,1,0,0,1,304-24Zm4.667-2.333h1a1,1,0,0,1,1,1v8.667a1,1,0,0,1-1,1h-1a1,1,0,0,1-1-1v-8.667a1,1,0,0,1,1-1Z" transform="translate(0 44)" fill="#29339b"/>
    </clipPath>
  </defs>
  <g id="Group_2532" data-name="Group 2532" transform="translate(-49 -60)">
    <g id="Rectangle_2440" data-name="Rectangle 2440" transform="translate(49 60)" fill="#f9fafc" stroke="#707070" stroke-width="1">
      <rect width="1000" height="765" stroke="none"/>
      <rect x="0.5" y="0.5" width="999" height="764" fill="none"/>
    </g>
    <path id="long-arrow-right-regular" d="M25.083,112.5l-1.666,1.666a1.019,1.019,0,0,0,.015,1.455l6.851,6.58H1.019A1.019,1.019,0,0,0,0,123.219V125.6a1.019,1.019,0,0,0,1.019,1.019H30.283l-6.851,6.58a1.018,1.018,0,0,0-.015,1.455l1.666,1.666a1.019,1.019,0,0,0,1.44,0L37.71,125.127a1.019,1.019,0,0,0,0-1.44L26.523,112.5a1.019,1.019,0,0,0-1.44,0Z" transform="translate(511 415.799)" fill="#29d9c2"/>
    <g id="Group_2527" data-name="Group 2527" transform="translate(59 -24)">
      <g id="Phone_border_screen" data-name="Phone border screen" transform="translate(88 117)" fill="none">
        <path d="M50,0S152.478.229,172.073,0,294,0,294,0a50,50,0,0,1,50,50s.316,175.806,0,221.033,1.418,168.9,0,191.491S344,648,344,648a50,50,0,0,1-50,50s-92.248-1.079-117.546,0S50,698,50,698A50,50,0,0,1,0,648S-.085,538.786-.085,423.6c0-.615.085-243.281.085-243.281V50A50,50,0,0,1,50,0Z" stroke="none"/>
        <path d="M 212.3923797607422 1.89825439453125 C 191.4261932373047 1.89825439453125 177.86865234375 1.93243408203125 172.0962982177734 1.9998779296875 C 166.3073883056641 2.0673828125 152.7213745117188 2.1016845703125 131.7156524658203 2.1016845703125 C 95.95838928222656 2.1016845703125 50.45101928710938 2.0009765625 50.00003051757812 1.99993896484375 C 43.51919555664062 1.99993896484375 37.2332763671875 3.268798828125 31.31683349609375 5.771240234375 C 25.60128784179688 8.18865966796875 20.46774291992188 11.64996337890625 16.058837890625 16.058837890625 C 11.6500244140625 20.4677734375 8.188751220703125 25.60125732421875 5.77130126953125 31.31689453125 C 3.268829345703125 37.23321533203125 2.000030517578125 43.5191650390625 2.000030517578125 49.99993896484375 L 2.000030517578125 180.321533203125 C 1.99920654296875 182.7481689453125 1.91455078125 422.994140625 1.91455078125 423.601318359375 C 1.91455078125 537.4681396484375 1.99920654296875 646.90625 2.000030517578125 647.9999389648438 C 2.000030517578125 654.4807739257812 3.268829345703125 660.7667846679688 5.77130126953125 666.6831665039062 C 8.188751220703125 672.398681640625 11.6500244140625 677.5322265625 16.058837890625 681.941162109375 C 20.46774291992188 686.3499755859375 25.60128784179688 689.8112182617188 31.31683349609375 692.2286987304688 C 37.23318481445312 694.7311401367188 43.51919555664062 695.9999389648438 50.00003051757812 695.9999389648438 L 50.01065063476562 695.9999389648438 L 50.02139282226562 696.0000610351562 C 50.4708251953125 696.0048828125 95.39692687988281 696.4794311523438 132.4258422851562 696.4794311523438 C 154.1511077880859 696.4794311523438 168.9356536865234 696.3186645507812 176.36865234375 696.0017700195312 C 183.8576507568359 695.6824340820312 197.9224700927734 695.5205078125 218.1724700927734 695.5205078125 C 252.3585815429688 695.5205078125 293.0079956054688 695.9883422851562 294.0076293945312 695.9999389648438 C 300.4859313964844 695.9990234375 306.7689208984375 694.730224609375 312.68310546875 692.2286987304688 C 318.3987426757812 689.8112182617188 323.5321960449219 686.3499755859375 327.9411010742188 681.941162109375 C 332.3500061035156 677.5322265625 335.811279296875 672.398681640625 338.228759765625 666.6831665039062 C 340.7302856445312 660.7688598632812 341.9990844726562 654.4850463867188 342.0000305175781 648.0067138671875 C 341.9407348632812 641.1922607421875 340.59814453125 484.7958984375 342.0039367675781 462.3987731933594 C 342.8754577636719 448.5121459960938 342.541015625 394.740966796875 342.2459411621094 347.2995910644531 C 342.0572814941406 316.9717712402344 341.8791198730469 288.3258666992188 342.0001220703125 271.0186767578125 C 342.3125610351562 226.3183288574219 342.0032043457031 51.761474609375 342.0000305175781 49.99993896484375 C 342.0000305175781 43.5191650390625 340.731201171875 37.23321533203125 338.228759765625 31.31689453125 C 335.811279296875 25.60125732421875 332.3500061035156 20.4677734375 327.9411010742188 16.058837890625 C 323.5321960449219 11.64996337890625 318.3987426757812 8.18865966796875 312.68310546875 5.771240234375 C 306.7667541503906 3.268798828125 300.4808349609375 1.99993896484375 293.9955749511719 1.99993896484375 C 293.5407409667969 1.99896240234375 248.1041107177734 1.89825439453125 212.3923797607422 1.89825439453125 M 212.3923797607422 -0.10174560546875 C 248.5194549560547 -0.10174560546875 294.0000305175781 -6.103515625e-05 294.0000305175781 -6.103515625e-05 C 321.6141967773438 -6.103515625e-05 344.0000305175781 22.38580322265625 344.0000305175781 49.99993896484375 C 344.0000305175781 49.99993896484375 344.3161926269531 225.8064270019531 344.0000305175781 271.0326843261719 C 343.683837890625 316.259033203125 345.418212890625 439.92822265625 344.0000305175781 462.5240478515625 C 342.5817565917969 485.119873046875 344.0000305175781 647.9999389648438 344.0000305175781 647.9999389648438 C 344.0000305175781 675.6142578125 321.6141967773438 697.9999389648438 294.0000305175781 697.9999389648438 C 294.0000305175781 697.9999389648438 252.9996185302734 697.5205078125 218.1724853515625 697.5205078125 C 200.7557373046875 697.5205078125 184.8876495361328 697.6403198242188 176.4538421630859 697.9999389648438 C 168.0215606689453 698.3594970703125 151.1583251953125 698.4793701171875 132.4257965087891 698.4793701171875 C 94.95730590820312 698.4793701171875 50.00003051757812 697.9999389648438 50.00003051757812 697.9999389648438 C 22.3857421875 697.9999389648438 3.0517578125e-05 675.6142578125 3.0517578125e-05 647.9999389648438 C 3.0517578125e-05 647.9999389648438 -0.08544921875 538.7861328125 -0.08544921875 423.601318359375 C -0.08544921875 422.9867858886719 3.0517578125e-05 180.32080078125 3.0517578125e-05 180.32080078125 L 3.0517578125e-05 49.99993896484375 C 3.0517578125e-05 22.38580322265625 22.3857421875 -6.103515625e-05 50.00003051757812 -6.103515625e-05 C 50.00003051757812 -6.103515625e-05 95.54698181152344 0.10162353515625 131.7156677246094 0.10162353515625 C 149.8033294677734 0.10162353515625 165.5405883789062 0.07623291015625 172.0729217529297 -6.103515625e-05 C 178.6040802001953 -0.0762939453125 194.3304901123047 -0.10174560546875 212.3923797607422 -0.10174560546875 Z" stroke="none" fill="#29339b"/>
      </g>
      <g id="Phone_screen" data-name="Phone screen" transform="translate(2223 677)" fill="#fff" opacity="0.6">
        <path d="M -1843.000244140625 116.9998779296875 L -2082.999755859375 116.9998779296875 C -2087.18505859375 116.9998779296875 -2091.244873046875 116.1803741455078 -2095.06640625 114.5641250610352 C -2098.757568359375 113.0027923583984 -2102.072998046875 110.7673797607422 -2104.919921875 107.9201278686523 C -2107.76708984375 105.0732955932617 -2110.002685546875 101.7580413818359 -2111.564453125 98.06629180908203 C -2113.180419921875 94.24471282958984 -2114 90.18512725830078 -2114 86.00038146972656 L -2114 -58.67995452880859 L -2114 -393.1208801269531 L -2114 -506.9996948242188 C -2114 -511.1846923828125 -2113.180419921875 -515.2444458007812 -2111.564453125 -519.0662231445312 C -2110.002685546875 -522.7578735351562 -2107.76708984375 -526.0733032226562 -2104.920166015625 -528.9202270507812 C -2102.07275390625 -531.7676391601562 -2098.75732421875 -534.0030517578125 -2095.066162109375 -535.5643920898438 C -2091.244873046875 -537.1806030273438 -2087.18505859375 -538.0001220703125 -2082.999755859375 -538.0001220703125 L -2047.961547851562 -538.0001220703125 C -2047.986938476562 -537.6674194335938 -2047.999633789062 -537.33349609375 -2047.999633789062 -537.0003051757812 L -2047.999633789062 -525.9996337890625 C -2047.999633789062 -522.5275268554688 -2046.647583007812 -519.2631225585938 -2044.192504882812 -516.8076782226562 C -2041.737060546875 -514.3522338867188 -2038.472412109375 -512.9999389648438 -2035 -512.9999389648438 L -1890 -512.9999389648438 C -1886.527587890625 -512.9999389648438 -1883.262939453125 -514.3522338867188 -1880.8076171875 -516.8076782226562 C -1878.352416992188 -519.2631225585938 -1877.000366210938 -522.5275268554688 -1877.000366210938 -525.9996337890625 L -1877.000366210938 -537.0003051757812 C -1877.000366210938 -537.3336791992188 -1877.013061523438 -537.6676025390625 -1877.038452148438 -538.0001220703125 L -1843.000244140625 -538.0001220703125 C -1838.814697265625 -538.0001220703125 -1834.7548828125 -537.1806030273438 -1830.933715820312 -535.5643920898438 C -1827.242431640625 -534.0030517578125 -1823.927001953125 -531.7677001953125 -1821.079711914062 -528.9202880859375 C -1818.232299804688 -526.0729370117188 -1815.996948242188 -522.757568359375 -1814.435546875 -519.0661010742188 C -1812.8193359375 -515.2448120117188 -1811.999877929688 -511.1850280761719 -1811.999877929688 -506.9996948242188 L -1811.999877929688 86.00038146972656 C -1811.999877929688 90.18546295166016 -1812.8193359375 94.24504089355469 -1814.435546875 98.06637573242188 C -1815.996948242188 101.7576293945312 -1818.232299804688 105.0728759765625 -1821.079711914062 107.9200439453125 C -1823.926635742188 110.7672958374023 -1827.242065429688 113.0026245117188 -1830.933715820312 114.5641250610352 C -1834.7548828125 116.1803741455078 -1838.814697265625 116.9998779296875 -1843.000244140625 116.9998779296875 Z" stroke="none"/>
        <path d="M -1843.000244140625 115.9998779296875 C -1838.94921875 115.9998779296875 -1835.020629882812 115.2069625854492 -1831.3232421875 113.6431274414062 C -1827.750854492188 112.1320419311523 -1824.542358398438 109.9687118530273 -1821.786743164062 107.2129592895508 C -1819.030883789062 104.4572982788086 -1816.867553710938 101.2488784790039 -1815.3564453125 97.67679595947266 C -1813.792724609375 93.97946166992188 -1812.999877929688 90.05088043212891 -1812.999877929688 86.00038146972656 L -1812.999877929688 -506.9996948242188 C -1812.999877929688 -511.0504455566406 -1813.792724609375 -514.9791870117188 -1815.3564453125 -518.676513671875 C -1816.867553710938 -522.248779296875 -1819.030883789062 -525.4573974609375 -1821.786865234375 -528.2131958007812 C -1824.542602539062 -530.9690551757812 -1827.751220703125 -533.1324462890625 -1831.3232421875 -534.6433715820312 C -1835.020629882812 -536.2072143554688 -1838.94921875 -537.0001220703125 -1843.000244140625 -537.0001220703125 L -1876.000366210938 -537.0003051757812 L -1876.000366210938 -525.9996337890625 C -1876.000366210938 -522.2604370117188 -1877.456420898438 -518.744873046875 -1880.100463867188 -516.1005249023438 C -1882.744750976562 -513.456298828125 -1886.260498046875 -511.9999694824219 -1890 -511.9999694824219 L -2035 -511.9999694824219 C -2038.739501953125 -511.9999694824219 -2042.255249023438 -513.456298828125 -2044.899536132812 -516.1006469726562 C -2047.543579101562 -518.744873046875 -2048.999755859375 -522.2604370117188 -2048.999755859375 -525.9996337890625 L -2048.999755859375 -537.0001220703125 L -2082.999755859375 -537.0001220703125 C -2087.050537109375 -537.0001220703125 -2090.979248046875 -536.2072143554688 -2094.6767578125 -534.6433715820312 C -2098.248779296875 -533.1324462890625 -2101.457275390625 -530.9689331054688 -2104.212890625 -528.213134765625 C -2106.968505859375 -525.4577026367188 -2109.132080078125 -522.2491455078125 -2110.643310546875 -518.6766967773438 C -2112.20703125 -514.9788818359375 -2113 -511.0501098632812 -2113 -506.9996948242188 L -2113 -393.1208801269531 L -2113 -58.67995452880859 L -2113 86.00038146972656 C -2113 90.05054473876953 -2112.20703125 93.9791259765625 -2110.643310546875 97.67662811279297 C -2109.132080078125 101.2492141723633 -2106.968505859375 104.4577102661133 -2104.212890625 107.2130432128906 C -2101.457275390625 109.9687957763672 -2098.248779296875 112.132209777832 -2094.6767578125 113.6431274414062 C -2090.979248046875 115.2069625854492 -2087.050537109375 115.9998779296875 -2082.999755859375 115.9998779296875 L -1843.000244140625 115.9998779296875 M -1843.000244140625 117.9998779296875 L -2082.999755859375 117.9998779296875 C -2087.319580078125 117.9998779296875 -2091.510498046875 117.1537933349609 -2095.455810546875 115.4851303100586 C -2099.266357421875 113.8733749389648 -2102.6884765625 111.566047668457 -2105.627197265625 108.6272125244141 C -2108.56591796875 105.6887969970703 -2110.873291015625 102.2666244506836 -2112.4853515625 98.45587921142578 C -2114.15380859375 94.51054382324219 -2115 90.31996154785156 -2115 86.00038146972656 L -2115 -58.67995452880859 L -2115 -393.1208801269531 L -2115 -506.9996948242188 C -2115 -511.3195495605469 -2114.15380859375 -515.5103149414062 -2112.4853515625 -519.4556884765625 C -2110.873291015625 -523.2665405273438 -2108.56591796875 -526.6887817382812 -2105.627197265625 -529.6273803710938 C -2102.688232421875 -532.5662841796875 -2099.26611328125 -534.8735961914062 -2095.455810546875 -536.4853515625 C -2091.510498046875 -538.154052734375 -2087.319580078125 -539.0001220703125 -2082.999755859375 -539.0001220703125 L -2046.833740234375 -539.0001220703125 C -2046.943359375 -538.3458862304688 -2046.999633789062 -537.6732788085938 -2046.999633789062 -537.0003051757812 L -2046.999633789062 -525.9996337890625 C -2046.999633789062 -522.7945556640625 -2045.75146484375 -519.7811889648438 -2043.4853515625 -517.5147705078125 C -2041.21875 -515.2482299804688 -2038.205322265625 -513.9999389648438 -2035 -513.9999389648438 L -1890 -513.9999389648438 C -1886.794677734375 -513.9999389648438 -1883.78125 -515.2482299804688 -1881.5146484375 -517.5147705078125 C -1879.24853515625 -519.7811889648438 -1878.000366210938 -522.7945556640625 -1878.000366210938 -525.9996337890625 L -1878.000366210938 -537.0003051757812 C -1878.000366210938 -537.6710205078125 -1878.05615234375 -538.3438720703125 -1878.166259765625 -539.0001220703125 L -1843.000244140625 -539.0001220703125 C -1838.68017578125 -539.0001220703125 -1834.489379882812 -538.154052734375 -1830.544189453125 -536.4853515625 C -1826.733764648438 -534.8737182617188 -1823.3115234375 -532.5663452148438 -1820.37255859375 -529.6273803710938 C -1817.433715820312 -526.6885986328125 -1815.126342773438 -523.266357421875 -1813.514526367188 -519.4556884765625 C -1811.845947265625 -515.5104370117188 -1810.999877929688 -511.3197021484375 -1810.999877929688 -506.9996948242188 L -1810.999877929688 86.00038146972656 C -1810.999877929688 90.32012939453125 -1811.845947265625 94.51071166992188 -1813.514526367188 98.45587921142578 C -1815.126342773438 102.2663803100586 -1817.433715820312 105.6885452270508 -1820.37255859375 108.6272125244141 C -1823.311279296875 111.566047668457 -1826.733642578125 113.8733749389648 -1830.544189453125 115.4851303100586 C -1834.489379882812 117.1537933349609 -1838.68017578125 117.9998779296875 -1843.000244140625 117.9998779296875 Z" stroke="none" fill="#29339b"/>
      </g>
      <g id="Header_icon" data-name="Header icon" transform="translate(-5335 -2068)">
        <path id="Line" d="M1.47,75.29c.415.23,16.24.3,24.779.058,7.515-.212,15.03-.818,22.563-.882.454,0,3.09,0,3.561,0,.525.132,1.292-.592,1.293-1.211s-1.024-1.127-1.935-1.083c-7.412-.046-14.717.324-22.176.376-7.977.327-25.064.07-25.064.07l-3.1-.184S.132,72.578.1,73.743,1.055,75.06,1.47,75.29Z" transform="translate(5568.247 2141.488)" fill="#29339b"/>
        <circle id="Ellipse_335" data-name="Ellipse 335" cx="3.5" cy="3.5" r="3.5" transform="translate(5626 2211)" fill="#29339b"/>
      </g>
      <path id="Line-2" data-name="Line" d="M2.6,75.378c1.069.236,41.843.308,63.843.06,19.363-.218,38.725-.841,58.134-.907,1.169,0,7.961,0,9.175,0,1.352.136,1.133-.818,1.135-1.454s-.443-.95-2.788-.9c-19.1-.047-37.919.333-57.138.387-20.552.336-64.578.072-64.578.072l-7.987-.189S.833,72.6.758,73.8,1.53,75.141,2.6,75.378Z" transform="translate(191.747 701.488)" fill="#29339b" stroke="#29339b" stroke-width="1"/>
      <g id="status_bar_light" data-name="status bar/light" transform="translate(31 65)">
        <g id="Battery" transform="translate(13 80)">
          <g id="Border" clip-path="url(#clip-path)">
            <path id="Fill" d="M2.667,0H19.333A2.667,2.667,0,0,1,22,2.667v6h0a2.667,2.667,0,0,1-2.667,2.667H2.667A2.667,2.667,0,0,1,0,8.667v-6H0A2.667,2.667,0,0,1,2.667,0Z" transform="translate(336 17.333)" fill="none" stroke="rgba(21,131,216,0.5)" stroke-width="2"/>
          </g>
          <g id="Cap" clip-path="url(#clip-path-2)">
            <path id="Fill-2" data-name="Fill" d="M354-28h11.328v14H354Z" transform="translate(0 44)" fill="#29339b"/>
          </g>
          <g id="Capacity" clip-path="url(#clip-path-3)">
            <path id="Fill-3" data-name="Fill" d="M333-29.667h28v17.333H333Z" transform="translate(0 44)" fill="#29339b"/>
          </g>
        </g>
        <g id="Wifi" transform="translate(13 80)">
          <g id="Wifi-2" data-name="Wifi" clip-path="url(#clip-path-4)">
            <path id="Fill-4" data-name="Fill" d="M310.694-31.669h25.272V-10.7H310.694Z" transform="translate(0 44)" fill="#29339b"/>
          </g>
        </g>
        <g id="Cellular_Connection" data-name="Cellular Connection" transform="translate(13 80)">
          <g id="Cellular_Connection-2" data-name="Cellular Connection" clip-path="url(#clip-path-5)">
            <path id="Fill-5" data-name="Fill" d="M288.667-31.333h27v20.667h-27Z" transform="translate(0 44)" fill="#29339b"/>
          </g>
        </g>
        <g id="Bars___Time_Black" data-name="Bars/_/Time Black" transform="translate(62 80)">
          <path id="Background" d="M21-19H75V-35H21Z" transform="translate(8 50)" fill="none"/>
          <text id="_10:20" data-name="10:20" transform="translate(33 29)" fill="#29339b" font-size="14" font-family="TektonPro-Bold, Tekton Pro" font-weight="700"><tspan x="0" y="0">10:20</tspan></text>
        </g>
      </g>
      <g id="Buttons_Pill_Button_Large" data-name="Buttons / Pill Button / Large" transform="translate(65 127)">
        <path id="Pill_Button" data-name="Pill Button" d="M82.537,57.114c14.663.3,29.322.053,43.985.007,11.334-.039,23.715-3.314,31.8-11.757,8.243-8.609,8.9-23.414,2.3-33.194C153.446,1.536,138.268.329,126.615.141c-6.483-.106-12.97-.22-19.453.007-5.908.209-11.8.554-17.718.518-7.438-.043-14.876.1-22.31-.177C60.373.24,53.623-.058,46.853.031,34.6.184,20.887-.473,10.188,6.55.142,13.143-2.349,27.813,2.161,38.427c4.6,10.837,17.257,16.5,28.254,18.211,6.579,1.022,13.435.5,20.071.557,6.781.06,13.563.124,20.344.078q5.855-.037,11.707-.16a1.065,1.065,0,0,0,0-2.129c-13.694.277-27.378.089-41.072.018-5.8-.028-11.185-.181-16.788-1.852A38.745,38.745,0,0,1,9.4,44.974C.682,36.929-.277,21.993,6.8,12.526c3.68-4.925,9.943-7.381,15.756-8.7a85.142,85.142,0,0,1,18.062-1.59c6.345-.06,12.676-.156,19.017.075,6.04.216,12.076.518,18.123.476,6.916-.05,13.84.114,20.756-.153,5.642-.216,11.274-.515,16.923-.507,11.962.021,25.518-.841,36.363,5.05a20.436,20.436,0,0,1,10.2,13.293,26.535,26.535,0,0,1-1.324,17.786c-4.8,10.2-17.619,15.422-28.236,16.544-3.031.319-6.1.185-9.141.2q-5.158.027-10.316.078c-6.43.057-12.864.106-19.294.06q-5.573-.043-11.143-.16A1.067,1.067,0,0,0,82.537,57.114Z" transform="translate(113 548.985)" fill="#29339b"/>
        <text id="Save_Card" data-name="Save Card" transform="translate(197 582)" fill="#29339b" font-size="18" font-family="TektonPro-Bold, Tekton Pro" font-weight="700"><tspan x="-36.702" y="0">Save Card</tspan></text>
      </g>
      <g id="Group_4" data-name="Group 4" transform="translate(73 67)">
        <text id="Card_Number" data-name="Card Number" transform="translate(44 181)" fill="#29339b" font-size="18" font-family="TektonPro-Bold, Tekton Pro" font-weight="700"><tspan x="0" y="0">Card Number</tspan></text>
        <path id="Base_Box" data-name="Base Box" d="M7.907,34.167c-1.515-.017-3.933.014-4.874-1.7-.677-1.23-.574-3.1-.612-4.516-.126-4.745-.306-9.49-.456-14.232-.074-2.317-.294-4.707-.147-7.024C2.024,3.494,3.906,2.758,6.31,2.595c4.642-.313,9.3-.434,13.952-.49,2.9-.035,5.81-.021,8.713-.021q19.411,0,38.821.014,28.377.016,56.75.049c17.565.021,106.265.049,123.829.108,8.884.028,17.768.153,26.648.188a2.687,2.687,0,0,1,.291.014c.026,0,.053,0,.079.007-.409-.049-.179-.063.188.066a4.084,4.084,0,0,1,1.8.934c1.471,1.587.9,5.457.918,7.573q.04,4.491.035,8.983,0,4.148-.053,8.292c-.015,1.292.262,3.366-.485,4.436a3.341,3.341,0,0,1-2.194,1.059c.435-.083-.332.017-.506.028-3.13.188-6.275.167-9.407.208-14.105.184-99.346.222-113.451.271q-28.84.1-57.68.1-26.938.01-53.876-.042c-10.3-.024-20.606.007-30.908-.156-.618-.007-1.25.01-1.871-.049v2.084h0c1.135,0,1.135-2.084,0-2.084h0c-1.15,0-1.118,1.98,0,2.084,2.271.212,4.6.087,6.875.1q8.243.063,16.485.08,11.843.036,23.686.052,14.124.021,28.246.017,15.038,0,30.075-.017,14.817-.016,29.631-.056,13.229-.036,26.46-.1c6.875-.035,84.882-.076,91.756-.146,4.139-.042,8.278-.073,12.417-.2a20.954,20.954,0,0,0,2.286-.122,5,5,0,0,0,3.092-1.48c1.374-1.546,1.124-4.029,1.147-6.068q.1-8.811.012-17.622c-.021-2.247.277-4.96-.477-7.086A4.953,4.953,0,0,0,276.06.525a5.42,5.42,0,0,0-1.094-.167C273.877.3,272.783.313,271.694.3c-4.789-.056-9.578-.073-14.367-.094C249.814.177,171.166.153,163.65.135Q149.795.1,135.942.083,121.059.063,106.179.045,91.6.03,77.015.021,64.285.01,51.555.007,42.192,0,32.834,0H23.615Q15.249.005,6.892.476C5.206.573,3.371.632,1.95,1.851A6.559,6.559,0,0,0,.073,6.444,67.587,67.587,0,0,0,.2,13.724q.11,3.517.229,7.034c.118,3.6-.153,7.559.547,11.091.75,3.783,4.1,4.366,6.928,4.4C9.042,36.265,9.042,34.181,7.907,34.167Z" transform="translate(43.997 195)" fill="#29339b"/>
      </g>
      <g id="Group_64" data-name="Group 64" transform="translate(-857 20)">
        <text id="CVV" transform="translate(974 426)" fill="#29339b" font-size="18" font-family="TektonPro-Bold, Tekton Pro" font-weight="700"><tspan x="0" y="0">CVV</tspan></text>
        <path id="Base_Box-2" data-name="Base Box" d="M7.907,34.167c-1.515-.017-3.933.014-4.874-1.7-.677-1.23-.574-3.1-.612-4.516-.126-4.745-.306-9.49-.456-14.232-.074-2.317-.294-4.707-.147-7.024C2.024,3.494,3.906,2.758,6.31,2.595c4.642-.313,9.3-.434,13.952-.49,2.9-.035,5.81-.021,8.713-.021q19.411,0,38.821.014,28.377.016,56.75.049c17.565.021,106.265.049,123.829.108,8.884.028,17.768.153,26.648.188a2.687,2.687,0,0,1,.291.014c.026,0,.053,0,.079.007-.409-.049-.179-.063.188.066a4.084,4.084,0,0,1,1.8.934c1.471,1.587.9,5.457.918,7.573q.04,4.491.035,8.983,0,4.148-.053,8.292c-.015,1.292.262,3.366-.485,4.436a3.341,3.341,0,0,1-2.194,1.059c.435-.083-.332.017-.506.028-3.13.188-6.275.167-9.407.208-14.105.184-99.346.222-113.451.271q-28.84.1-57.68.1-26.938.01-53.876-.042c-10.3-.024-20.606.007-30.908-.156-.618-.007-1.25.01-1.871-.049v2.084h0c1.135,0,1.135-2.084,0-2.084h0c-1.15,0-1.118,1.98,0,2.084,2.271.212,4.6.087,6.875.1q8.243.063,16.485.08,11.843.036,23.686.052,14.124.021,28.246.017,15.038,0,30.076-.017,14.817-.016,29.631-.056,13.229-.036,26.46-.1c6.875-.035,84.882-.076,91.756-.146,4.139-.042,8.278-.073,12.417-.2a20.954,20.954,0,0,0,2.286-.122,5,5,0,0,0,3.092-1.48c1.374-1.546,1.124-4.029,1.147-6.068q.1-8.811.012-17.622c-.021-2.247.277-4.96-.477-7.086A4.953,4.953,0,0,0,276.06.525a5.42,5.42,0,0,0-1.094-.167C273.877.3,272.783.313,271.694.3c-4.789-.056-9.578-.073-14.367-.094C249.814.177,171.166.153,163.65.135Q149.795.1,135.942.083,121.059.063,106.179.045,91.6.03,77.015.021,64.285.01,51.555.007,42.192,0,32.834,0H23.615Q15.249.005,6.892.476C5.206.573,3.371.632,1.95,1.851A6.559,6.559,0,0,0,.073,6.444,67.587,67.587,0,0,0,.2,13.724q.11,3.517.229,7.034c.118,3.6-.153,7.559.547,11.091.75,3.783,4.1,4.366,6.928,4.4C9.042,36.265,9.042,34.181,7.907,34.167Z" transform="translate(973.997 440)" fill="#29339b"/>
      </g>
      <g id="Group_63" data-name="Group 63" transform="translate(-857 35)">
        <text id="Card_Expiration" data-name="Card Expiration" transform="translate(974 312)" fill="#29339b" font-size="18" font-family="TektonPro-Bold, Tekton Pro" font-weight="700"><tspan x="0" y="0">Card Expiration</tspan></text>
        <path id="Base_Box-3" data-name="Base Box" d="M7.907,34.167c-1.515-.017-3.933.014-4.874-1.7-.677-1.23-.574-3.1-.612-4.516-.126-4.745-.306-9.49-.456-14.232-.074-2.317-.294-4.707-.147-7.024C2.024,3.494,3.906,2.758,6.31,2.595c4.642-.313,9.3-.434,13.952-.49,2.9-.035,5.81-.021,8.713-.021q19.411,0,38.821.014,28.377.016,56.75.049c17.565.021,106.265.049,123.829.108,8.884.028,17.768.153,26.648.188a2.687,2.687,0,0,1,.291.014c.026,0,.053,0,.079.007-.409-.049-.179-.063.188.066a4.085,4.085,0,0,1,1.8.934c1.471,1.587.9,5.457.918,7.573q.04,4.491.035,8.983,0,4.148-.053,8.292c-.015,1.292.262,3.366-.485,4.436a3.341,3.341,0,0,1-2.194,1.059c.435-.083-.332.017-.506.028-3.13.188-6.275.167-9.407.208-14.105.184-99.346.222-113.451.271q-28.84.1-57.68.1-26.938.01-53.876-.042c-10.3-.024-20.606.007-30.908-.156-.618-.007-1.25.01-1.871-.049v2.084h0c1.135,0,1.135-2.084,0-2.084h0c-1.15,0-1.118,1.98,0,2.084,2.271.212,4.6.087,6.875.1q8.243.063,16.485.08,11.843.036,23.686.052,14.124.021,28.246.017,15.038,0,30.076-.017,14.817-.016,29.631-.056,13.229-.036,26.46-.1c6.875-.035,84.882-.076,91.756-.146,4.139-.042,8.278-.073,12.417-.2a20.954,20.954,0,0,0,2.286-.122,5,5,0,0,0,3.092-1.48c1.374-1.546,1.124-4.029,1.147-6.068q.1-8.811.012-17.622c-.021-2.247.277-4.96-.477-7.086A4.953,4.953,0,0,0,276.06.525a5.42,5.42,0,0,0-1.094-.167C273.877.3,272.783.313,271.694.3c-4.789-.056-9.578-.073-14.367-.094C249.814.177,171.166.153,163.65.135Q149.795.1,135.942.083,121.059.063,106.179.045,91.6.03,77.015.021,64.285.01,51.555.007,42.192,0,32.834,0H23.615Q15.249.005,6.892.476C5.206.573,3.371.632,1.95,1.851A6.559,6.559,0,0,0,.073,6.444,67.587,67.587,0,0,0,.2,13.724q.11,3.517.229,7.034c.118,3.6-.153,7.559.547,11.091.75,3.783,4.1,4.366,6.928,4.4C9.042,36.265,9.042,34.181,7.907,34.167Z" transform="translate(973.997 326)" fill="#29339b"/>
        <text id="MM_YY" data-name="MM/YY" transform="translate(986 338)" fill="#29339b" font-size="14" font-family="TektonPro-Bold, Tekton Pro" font-weight="700"><tspan x="0" y="10">MM/YY</tspan></text>
      </g>
      <g id="Group_11" data-name="Group 11" transform="translate(73 364)">
        <text id="Billing_Information" data-name="Billing Information" transform="translate(44 181)" fill="#29339b" font-size="18" font-family="TektonPro-Bold, Tekton Pro" font-weight="700"><tspan x="0" y="0">Billing Information</tspan></text>
        <path id="Base_Box-4" data-name="Base Box" d="M7.907,34.167c-1.515-.017-3.933.014-4.874-1.7-.677-1.23-.574-3.1-.612-4.516-.126-4.745-.306-9.49-.456-14.232-.074-2.317-.294-4.707-.147-7.024C2.024,3.494,3.906,2.758,6.31,2.595c4.642-.313,9.3-.434,13.952-.49,2.9-.035,5.81-.021,8.713-.021q19.411,0,38.821.014,28.377.016,56.75.049c17.565.021,106.265.049,123.829.108,8.884.028,17.768.153,26.648.188a2.687,2.687,0,0,1,.291.014c.026,0,.053,0,.079.007-.409-.049-.179-.063.188.066a4.084,4.084,0,0,1,1.8.934c1.471,1.587.9,5.457.918,7.573q.04,4.491.035,8.983,0,4.148-.053,8.292c-.015,1.292.262,3.366-.485,4.436a3.341,3.341,0,0,1-2.194,1.059c.435-.083-.332.017-.506.028-3.13.188-6.275.167-9.407.208-14.105.184-99.346.222-113.451.271q-28.84.1-57.68.1-26.938.01-53.876-.042c-10.3-.024-20.606.007-30.908-.156-.618-.007-1.25.01-1.871-.049v2.084h0c1.135,0,1.135-2.084,0-2.084h0c-1.15,0-1.118,1.98,0,2.084,2.271.212,4.6.087,6.875.1q8.243.063,16.485.08,11.843.036,23.686.052,14.124.021,28.246.017,15.038,0,30.075-.017,14.817-.016,29.631-.056,13.229-.036,26.46-.1c6.875-.035,84.882-.076,91.756-.146,4.139-.042,8.278-.073,12.417-.2a20.954,20.954,0,0,0,2.286-.122,5,5,0,0,0,3.092-1.48c1.374-1.546,1.124-4.029,1.147-6.068q.1-8.811.012-17.622c-.021-2.247.277-4.96-.477-7.086A4.953,4.953,0,0,0,276.06.525a5.42,5.42,0,0,0-1.094-.167C273.877.3,272.783.313,271.694.3c-4.789-.056-9.578-.073-14.367-.094C249.814.177,171.166.153,163.65.135Q149.795.1,135.942.083,121.059.063,106.179.045,91.6.03,77.015.021,64.285.01,51.555.007,42.192,0,32.834,0H23.615Q15.249.005,6.892.476C5.206.573,3.371.632,1.95,1.851A6.559,6.559,0,0,0,.073,6.444,67.587,67.587,0,0,0,.2,13.724q.11,3.517.229,7.034c.118,3.6-.153,7.559.547,11.091.75,3.783,4.1,4.366,6.928,4.4C9.042,36.265,9.042,34.181,7.907,34.167Z" transform="translate(43.997 195)" fill="#29339b"/>
      </g>
      <text id="Megan_L._Smith_345_W._4th_St._Kansas_Cit..." data-name="Megan L. Smith 345 W. 4th St. Kansas Cit..." transform="translate(126 573)" fill="#29339b" font-size="14" font-family="TektonPro-Bold, Tekton Pro" font-weight="700"><tspan x="0" y="10">Megan L. Smith 345 W. 4th St. Kansas Cit...</tspan></text>
    </g>
    <g id="Group_2528" data-name="Group 2528" transform="translate(79 73)">
      <g id="Rectangle_447" data-name="Rectangle 447" transform="translate(510 258)" fill="#fff" stroke="#29339b" stroke-width="2">
        <rect width="340" height="418" stroke="none"/>
        <rect x="1" y="1" width="338" height="416" fill="none"/>
      </g>
      <g id="Group_15" data-name="Group 15" transform="translate(-424 27)">
        <text id="Name_on_Card" data-name="Name on Card" transform="translate(962 284)" fill="#29339b" font-size="18" font-family="TektonPro-Bold, Tekton Pro" font-weight="700"><tspan x="0" y="0">Name on Card</tspan></text>
        <path id="Base_Box-5" data-name="Base Box" d="M7.907,34.167c-1.515-.017-3.933.014-4.874-1.7-.677-1.23-.574-3.1-.612-4.516-.126-4.745-.306-9.49-.456-14.232-.074-2.317-.294-4.707-.147-7.024C2.024,3.494,3.906,2.758,6.31,2.595c4.642-.313,9.3-.434,13.952-.49,2.9-.035,5.81-.021,8.713-.021q19.411,0,38.821.014,28.377.016,56.75.049c17.565.021,106.265.049,123.829.108,8.884.028,17.768.153,26.648.188a2.687,2.687,0,0,1,.291.014c.026,0,.053,0,.079.007-.409-.049-.179-.063.188.066a4.084,4.084,0,0,1,1.8.934c1.471,1.587.9,5.457.918,7.573q.04,4.491.035,8.983,0,4.148-.053,8.292c-.015,1.292.262,3.366-.485,4.436a3.341,3.341,0,0,1-2.194,1.059c.435-.083-.332.017-.506.028-3.13.188-6.275.167-9.407.208-14.105.184-99.346.222-113.451.271q-28.84.1-57.68.1-26.938.01-53.876-.042c-10.3-.024-20.606.007-30.908-.156-.618-.007-1.25.01-1.871-.049v2.084h0c1.135,0,1.135-2.084,0-2.084h0c-1.15,0-1.118,1.98,0,2.084,2.271.212,4.6.087,6.875.1q8.243.063,16.485.08,11.843.036,23.686.052,14.124.021,28.246.017,15.038,0,30.075-.017,14.817-.016,29.631-.056,13.229-.036,26.46-.1c6.875-.035,84.882-.076,91.756-.146,4.139-.042,8.278-.073,12.417-.2a20.954,20.954,0,0,0,2.286-.122,5,5,0,0,0,3.092-1.48c1.374-1.546,1.124-4.029,1.147-6.068q.1-8.811.012-17.622c-.021-2.247.277-4.96-.477-7.086A4.953,4.953,0,0,0,276.06.525a5.42,5.42,0,0,0-1.094-.167C273.877.3,272.783.313,271.694.3c-4.789-.056-9.578-.073-14.367-.094C249.814.177,171.166.153,163.65.135Q149.795.1,135.942.083,121.059.063,106.179.045,91.6.03,77.015.021,64.285.01,51.555.007,42.192,0,32.834,0H23.615Q15.249.005,6.892.476C5.206.573,3.371.632,1.95,1.851A6.559,6.559,0,0,0,.073,6.444,67.587,67.587,0,0,0,.2,13.724q.11,3.517.229,7.034c.118,3.6-.153,7.559.547,11.091.75,3.783,4.1,4.366,6.928,4.4C9.042,36.265,9.042,34.181,7.907,34.167Z" transform="translate(961.997 298)" fill="#29339b"/>
        <text id="Megan_L._Smith" data-name="Megan L. Smith" transform="translate(971 312)" fill="#29339b" font-size="14" font-family="TektonPro-Bold, Tekton Pro" font-weight="700"><tspan x="0" y="10">Megan L. Smith</tspan></text>
      </g>
      <g id="Group_16" data-name="Group 16" transform="translate(-424 27)">
        <text id="Address" transform="translate(962 375)" fill="#29339b" font-size="18" font-family="TektonPro-Bold, Tekton Pro" font-weight="700"><tspan x="0" y="0">Address</tspan></text>
        <path id="Base_Box-6" data-name="Base Box" d="M7.907,34.167c-1.515-.017-3.933.014-4.874-1.7-.677-1.23-.574-3.1-.612-4.516-.126-4.745-.306-9.49-.456-14.232-.074-2.317-.294-4.707-.147-7.024C2.024,3.494,3.906,2.758,6.31,2.595c4.642-.313,9.3-.434,13.952-.49,2.9-.035,5.81-.021,8.713-.021q19.411,0,38.821.014,28.377.016,56.75.049c17.565.021,106.265.049,123.829.108,8.884.028,17.768.153,26.648.188a2.687,2.687,0,0,1,.291.014c.026,0,.053,0,.079.007-.409-.049-.179-.063.188.066a4.084,4.084,0,0,1,1.8.934c1.471,1.587.9,5.457.918,7.573q.04,4.491.035,8.983,0,4.148-.053,8.292c-.015,1.292.262,3.366-.485,4.436a3.341,3.341,0,0,1-2.194,1.059c.435-.083-.332.017-.506.028-3.13.188-6.275.167-9.407.208-14.105.184-99.346.222-113.451.271q-28.84.1-57.68.1-26.938.01-53.876-.042c-10.3-.024-20.606.007-30.908-.156-.618-.007-1.25.01-1.871-.049v2.084h0c1.135,0,1.135-2.084,0-2.084h0c-1.15,0-1.118,1.98,0,2.084,2.271.212,4.6.087,6.875.1q8.243.063,16.485.08,11.843.036,23.686.052,14.124.021,28.246.017,15.038,0,30.075-.017,14.817-.016,29.631-.056,13.229-.036,26.46-.1c6.875-.035,84.882-.076,91.756-.146,4.139-.042,8.278-.073,12.417-.2a20.954,20.954,0,0,0,2.286-.122,5,5,0,0,0,3.092-1.48c1.374-1.546,1.124-4.029,1.147-6.068q.1-8.811.012-17.622c-.021-2.247.277-4.96-.477-7.086A4.953,4.953,0,0,0,276.06.525a5.42,5.42,0,0,0-1.094-.167C273.877.3,272.783.313,271.694.3c-4.789-.056-9.578-.073-14.367-.094C249.814.177,171.166.153,163.65.135Q149.795.1,135.942.083,121.059.063,106.179.045,91.6.03,77.015.021,64.285.01,51.555.007,42.192,0,32.834,0H23.615Q15.249.005,6.892.476C5.206.573,3.371.632,1.95,1.851A6.559,6.559,0,0,0,.073,6.444,67.587,67.587,0,0,0,.2,13.724q.11,3.517.229,7.034c.118,3.6-.153,7.559.547,11.091.75,3.783,4.1,4.366,6.928,4.4C9.042,36.265,9.042,34.181,7.907,34.167Z" transform="translate(961.997 389)" fill="#29339b"/>
        <text id="_345_W._4th_St." data-name="345 W. 4th St." transform="translate(971 403)" fill="#29339b" font-size="14" font-family="TektonPro-Bold, Tekton Pro" font-weight="700"><tspan x="0" y="10">345 W. 4th St.</tspan></text>
      </g>
      <g id="Group_17" data-name="Group 17" transform="translate(-424 27)">
        <text id="City" transform="translate(962 466)" fill="#29339b" font-size="18" font-family="TektonPro-Bold, Tekton Pro" font-weight="700"><tspan x="0" y="0">City</tspan></text>
        <path id="Base_Box-7" data-name="Base Box" d="M7.907,34.167c-1.515-.017-3.933.014-4.874-1.7-.677-1.23-.574-3.1-.612-4.516-.126-4.745-.306-9.49-.456-14.232-.074-2.317-.294-4.707-.147-7.024C2.024,3.494,3.906,2.758,6.31,2.595c4.642-.313,9.3-.434,13.952-.49,2.9-.035,5.81-.021,8.713-.021q19.411,0,38.821.014,28.377.016,56.75.049c17.565.021,106.265.049,123.829.108,8.884.028,17.768.153,26.648.188a2.687,2.687,0,0,1,.291.014c.026,0,.053,0,.079.007-.409-.049-.179-.063.188.066a4.084,4.084,0,0,1,1.8.934c1.471,1.587.9,5.457.918,7.573q.04,4.491.035,8.983,0,4.148-.053,8.292c-.015,1.292.262,3.366-.485,4.436a3.341,3.341,0,0,1-2.194,1.059c.435-.083-.332.017-.506.028-3.13.188-6.275.167-9.407.208-14.105.184-99.346.222-113.451.271q-28.84.1-57.68.1-26.938.01-53.876-.042c-10.3-.024-20.606.007-30.908-.156-.618-.007-1.25.01-1.871-.049v2.084h0c1.135,0,1.135-2.084,0-2.084h0c-1.15,0-1.118,1.98,0,2.084,2.271.212,4.6.087,6.875.1q8.243.063,16.485.08,11.843.036,23.686.052,14.124.021,28.246.017,15.038,0,30.075-.017,14.817-.016,29.631-.056,13.229-.036,26.46-.1c6.875-.035,84.882-.076,91.756-.146,4.139-.042,8.278-.073,12.417-.2a20.954,20.954,0,0,0,2.286-.122,5,5,0,0,0,3.092-1.48c1.374-1.546,1.124-4.029,1.147-6.068q.1-8.811.012-17.622c-.021-2.247.277-4.96-.477-7.086A4.953,4.953,0,0,0,276.06.525a5.42,5.42,0,0,0-1.094-.167C273.877.3,272.783.313,271.694.3c-4.789-.056-9.578-.073-14.367-.094C249.814.177,171.166.153,163.65.135Q149.795.1,135.942.083,121.059.063,106.179.045,91.6.03,77.015.021,64.285.01,51.555.007,42.192,0,32.834,0H23.615Q15.249.005,6.892.476C5.206.573,3.371.632,1.95,1.851A6.559,6.559,0,0,0,.073,6.444,67.587,67.587,0,0,0,.2,13.724q.11,3.517.229,7.034c.118,3.6-.153,7.559.547,11.091.75,3.783,4.1,4.366,6.928,4.4C9.042,36.265,9.042,34.181,7.907,34.167Z" transform="translate(961.997 480)" fill="#29339b"/>
        <text id="Kansas_City" data-name="Kansas City" transform="translate(971 494)" fill="#29339b" font-size="14" font-family="TektonPro-Bold, Tekton Pro" font-weight="700"><tspan x="0" y="10">Kansas City</tspan></text>
      </g>
      <g id="Group_18" data-name="Group 18" transform="translate(-424 27)">
        <text id="State" transform="translate(962 557)" fill="#29339b" font-size="18" font-family="TektonPro-Bold, Tekton Pro" font-weight="700"><tspan x="0" y="0">State</tspan></text>
        <path id="Base_Box-8" data-name="Base Box" d="M3.188,34.167c-.61-.017-1.585.014-1.964-1.7a25.58,25.58,0,0,1-.247-4.516C.926,23.211.854,18.466.794,13.724.764,11.407.675,9.018.734,6.7c.083-3.206.841-3.943,1.81-4.106a41.44,41.44,0,0,1,5.621-.49c1.17-.035,2.341-.021,3.51-.021q7.82,0,15.64.014,11.433.016,22.864.049c7.077.021,42.813.049,49.889.108,3.579.028,7.158.153,10.736.188a.446.446,0,0,1,.117.014c.011,0,.021,0,.032.007-.165-.049-.072-.063.076.066a1.983,1.983,0,0,1,.727.934c.593,1.587.361,5.457.37,7.573q.016,4.491.014,8.983,0,4.148-.021,8.292a21.6,21.6,0,0,1-.2,4.436,1.483,1.483,0,0,1-.884,1.059c.175-.083-.134.017-.2.028a32.982,32.982,0,0,1-3.79.208c-5.683.184-40.025.222-45.708.271q-11.619.1-23.238.1-10.853.01-21.706-.042c-4.15-.024-8.3.007-12.452-.156a3.673,3.673,0,0,1-.754-.049v2.084h0c.457,0,.457-2.084,0-2.084h0c-.463,0-.45,1.98,0,2.084a13.2,13.2,0,0,0,2.77.1c2.214.042,4.428.063,6.642.08q4.771.036,9.543.052,5.691.021,11.38.017,6.058,0,12.117-.017,5.97-.016,11.938-.056,5.33-.036,10.66-.1c2.77-.035,34.2-.076,36.967-.146,1.668-.042,3.335-.073,5-.2a3.489,3.489,0,0,0,.921-.122,2.2,2.2,0,0,0,1.246-1.48c.553-1.546.453-4.029.462-6.068q.039-8.811,0-17.622a56.206,56.206,0,0,0-.192-7.086A4.335,4.335,0,0,0,111.223.525a1.048,1.048,0,0,0-.441-.167A11.151,11.151,0,0,0,109.464.3c-1.929-.056-3.859-.073-5.788-.094C100.649.177,68.962.153,65.934.135Q60.352.1,54.771.083q-6-.021-11.991-.038Q36.9.03,31.031.021,25.9.01,20.773.007,17,0,13.231,0H9.516A48.249,48.249,0,0,0,2.779.476,2.121,2.121,0,0,0,.788,1.851,12.941,12.941,0,0,0,.032,6.444c-.075,2.4.02,4.88.051,7.281q.044,3.517.092,7.034c.047,3.6-.062,7.559.22,11.091.3,3.783,1.653,4.366,2.791,4.4C3.645,36.265,3.645,34.181,3.188,34.167Z" transform="translate(961.997 571)" fill="#29339b"/>
        <text id="MO" transform="translate(971 585)" fill="#29339b" font-size="14" font-family="TektonPro-Bold, Tekton Pro" font-weight="700"><tspan x="0" y="10">MO</tspan></text>
      </g>
      <g id="Group_19" data-name="Group 19" transform="translate(-424 27)">
        <text id="Zip_Code" data-name="Zip Code" transform="translate(1109 557)" fill="#29339b" font-size="18" font-family="TektonPro-Bold, Tekton Pro" font-weight="700"><tspan x="0" y="0">Zip Code</tspan></text>
        <path id="Base_Box-9" data-name="Base Box" d="M3.188,34.167c-.61-.017-1.585.014-1.964-1.7a25.58,25.58,0,0,1-.247-4.516C.926,23.211.854,18.466.794,13.724.764,11.407.675,9.018.734,6.7c.083-3.206.841-3.943,1.81-4.106a41.44,41.44,0,0,1,5.621-.49c1.17-.035,2.341-.021,3.51-.021q7.82,0,15.64.014,11.433.016,22.864.049c7.077.021,42.813.049,49.889.108,3.579.028,7.158.153,10.736.188a.446.446,0,0,1,.117.014c.011,0,.021,0,.032.007-.165-.049-.072-.063.076.066a1.983,1.983,0,0,1,.727.934c.593,1.587.361,5.457.37,7.573q.016,4.491.014,8.983,0,4.148-.021,8.292a21.6,21.6,0,0,1-.2,4.436,1.483,1.483,0,0,1-.884,1.059c.175-.083-.134.017-.2.028a32.982,32.982,0,0,1-3.79.208c-5.683.184-40.025.222-45.708.271q-11.619.1-23.238.1-10.853.01-21.706-.042c-4.15-.024-8.3.007-12.452-.156a3.673,3.673,0,0,1-.754-.049v2.084h0c.457,0,.457-2.084,0-2.084h0c-.463,0-.45,1.98,0,2.084a13.2,13.2,0,0,0,2.77.1c2.214.042,4.428.063,6.642.08q4.771.036,9.543.052,5.691.021,11.38.017,6.058,0,12.117-.017,5.97-.016,11.938-.056,5.33-.036,10.66-.1c2.77-.035,34.2-.076,36.967-.146,1.668-.042,3.335-.073,5-.2a3.489,3.489,0,0,0,.921-.122,2.2,2.2,0,0,0,1.246-1.48c.553-1.546.453-4.029.462-6.068q.039-8.811,0-17.622a56.206,56.206,0,0,0-.192-7.086A4.335,4.335,0,0,0,111.223.525a1.048,1.048,0,0,0-.441-.167A11.151,11.151,0,0,0,109.464.3c-1.929-.056-3.859-.073-5.788-.094C100.649.177,68.962.153,65.934.135Q60.352.1,54.771.083q-6-.021-11.991-.038Q36.9.03,31.031.021,25.9.01,20.773.007,17,0,13.231,0H9.516A48.249,48.249,0,0,0,2.779.476,2.121,2.121,0,0,0,.788,1.851,12.941,12.941,0,0,0,.032,6.444c-.075,2.4.02,4.88.051,7.281q.044,3.517.092,7.034c.047,3.6-.062,7.559.22,11.091.3,3.783,1.653,4.366,2.791,4.4C3.645,36.265,3.645,34.181,3.188,34.167Z" transform="translate(1108.997 571)" fill="#29339b"/>
        <text id="_66411" data-name="66411" transform="translate(1118 585)" fill="#29339b" font-size="14" font-family="TektonPro-Bold, Tekton Pro" font-weight="700"><tspan x="0" y="10">66411</tspan></text>
      </g>
    </g>
    <g id="Rectangle_2441" data-name="Rectangle 2441" transform="translate(170 490)" fill="none" stroke="#29d9c2" stroke-width="5">
      <rect width="294" height="101" rx="10" stroke="none"/>
      <rect x="2.5" y="2.5" width="289" height="96" rx="7.5" fill="none"/>
    </g>
  </g>
</svg>
