<svg xmlns="http://www.w3.org/2000/svg" xmlns:xlink="http://www.w3.org/1999/xlink" width="1000" viewBox="0 0 1000 765" style="max-width:100%;">
  <defs>
    <clipPath id="clip-path">
      <path id="Shape" d="M338.667-26.667h16.667A2.667,2.667,0,0,1,358-24v6h0a2.667,2.667,0,0,1-2.667,2.667H338.667A2.667,2.667,0,0,1,336-18v-6h0A2.667,2.667,0,0,1,338.667-26.667Z" transform="translate(0 44)" fill="none" clip-rule="evenodd"/>
    </clipPath>
    <clipPath id="clip-path-2">
      <path id="Shape-2" data-name="Shape" d="M359-23v4a2.17,2.17,0,0,0,1.328-2A2.17,2.17,0,0,0,359-23" transform="translate(0 44)" fill="#29339b"/>
    </clipPath>
    <clipPath id="clip-path-3">
      <path id="Shape-3" data-name="Shape" d="M339.333-24.667h15.333A1.333,1.333,0,0,1,356-23.333v4.667h0a1.333,1.333,0,0,1-1.333,1.333H339.333A1.333,1.333,0,0,1,338-18.667v-4.667h0A1.333,1.333,0,0,1,339.333-24.667Z" transform="translate(0 44)" fill="#29339b"/>
    </clipPath>
    <clipPath id="clip-path-4">
      <path id="Shape-4" data-name="Shape" d="M323.33-24.392a8.64,8.64,0,0,1,5.953,2.378.308.308,0,0,0,.433,0l1.156-1.167a.322.322,0,0,0,.093-.229.322.322,0,0,0-.1-.227,10.9,10.9,0,0,0-15.08,0,.322.322,0,0,0-.1.227.322.322,0,0,0,.093.229l1.156,1.167a.308.308,0,0,0,.433,0,8.641,8.641,0,0,1,5.954-2.378Zm0,3.8a4.907,4.907,0,0,1,3.294,1.27.31.31,0,0,0,.433-.006l1.155-1.167a.322.322,0,0,0,.094-.23.322.322,0,0,0-.1-.229,7.159,7.159,0,0,0-9.752,0,.322.322,0,0,0-.1.229.322.322,0,0,0,.094.23l1.154,1.167a.31.31,0,0,0,.433.006,4.907,4.907,0,0,1,3.292-1.27Zm2.219,2.784a.314.314,0,0,0,.094-.231.314.314,0,0,0-.1-.226,3.422,3.422,0,0,0-4.419,0,.314.314,0,0,0-.1.226.314.314,0,0,0,.094.231l2,2.016a.311.311,0,0,0,.222.093.312.312,0,0,0,.222-.093Z" transform="translate(0 44)" fill="#29339b"/>
    </clipPath>
    <clipPath id="clip-path-5">
      <path id="Shape-5" data-name="Shape" d="M294.667-19.667h1a1,1,0,0,1,1,1v2a1,1,0,0,1-1,1h-1a1,1,0,0,1-1-1v-2a1,1,0,0,1,1-1Zm4.667-2h1a1,1,0,0,1,1,1v4a1,1,0,0,1-1,1h-1a1,1,0,0,1-1-1v-4A1,1,0,0,1,299.333-21.667ZM304-24h1a1,1,0,0,1,1,1v6.333a1,1,0,0,1-1,1h-1a1,1,0,0,1-1-1V-23A1,1,0,0,1,304-24Zm4.667-2.333h1a1,1,0,0,1,1,1v8.667a1,1,0,0,1-1,1h-1a1,1,0,0,1-1-1v-8.667a1,1,0,0,1,1-1Z" transform="translate(0 44)" fill="#29339b"/>
    </clipPath>
  </defs>
  <g id="Group_2564" data-name="Group 2564" transform="translate(-149 -119)">
    <g id="Rectangle_2445" data-name="Rectangle 2445" transform="translate(149 119)" fill="#a4acbc" stroke="#707070" stroke-width="1">
      <rect width="1000" height="765" rx="10" stroke="none"/>
      <rect x="0.5" y="0.5" width="999" height="764" rx="9.5" fill="none"/>
    </g>
    <g id="Group_2535" data-name="Group 2535" transform="translate(-88 -190)">
      <text id="Enter_payment_info" data-name="Enter payment info" transform="translate(374 949)" fill="#fff" font-size="16" font-family="TektonPro-Bold, Tekton Pro" font-weight="700" letter-spacing="0.003em"><tspan x="0" y="11">Enter payment info</tspan></text>
      <g id="Group_2500" data-name="Group 2500" transform="translate(2003 -631)">
        <circle id="Ellipse_569" data-name="Ellipse 569" cx="20" cy="20" r="20" transform="translate(-1679 1568)" fill="#29d9c2"/>
        <text id="_1" data-name="1" transform="translate(-1673 1575)" fill="#fff" font-size="20" font-family="NunitoSans-Black, Nunito Sans" font-weight="800" letter-spacing="0.003em"><tspan x="8" y="20">1</tspan></text>
      </g>
    </g>
    <g id="Group_2534" data-name="Group 2534" transform="translate(-126 -190)">
      <text id="Enter_billing_info" data-name="Enter billing info" transform="translate(744 949)" fill="#fff" font-size="16" font-family="TektonPro-Bold, Tekton Pro" font-weight="700" letter-spacing="0.003em"><tspan x="0" y="11">Enter billing info</tspan></text>
      <g id="Group_2501" data-name="Group 2501" transform="translate(2297 -631)">
        <circle id="Ellipse_571" data-name="Ellipse 571" cx="20" cy="20" r="20" transform="translate(-1603 1568)" fill="#29d9c2"/>
        <text id="_2" data-name="2" transform="translate(-1597 1575)" fill="#fff" font-size="20" font-family="NunitoSans-Black, Nunito Sans" font-weight="800" letter-spacing="0.003em"><tspan x="7.99" y="20">2</tspan></text>
      </g>
    </g>
    <g id="Group_2533" data-name="Group 2533" transform="translate(-159 -190)">
      <text id="Enter_contact_info" data-name="Enter contact info" transform="translate(1094 949)" fill="#fff" font-size="16" font-family="TektonPro-Bold, Tekton Pro" font-weight="700" letter-spacing="0.003em"><tspan x="0" y="11">Enter contact info</tspan></text>
      <g id="Group_2502" data-name="Group 2502" transform="translate(2575 -631)">
        <circle id="Ellipse_570" data-name="Ellipse 570" cx="20" cy="20" r="20" transform="translate(-1531 1568)" fill="#29d9c2"/>
        <text id="_3" data-name="3" transform="translate(-1525 1575)" fill="#fff" font-size="20" font-family="NunitoSans-Black, Nunito Sans" font-weight="800" letter-spacing="0.003em"><tspan x="8" y="20">3</tspan></text>
      </g>
    </g>
    <g id="Phone_border_screen" data-name="Phone border screen" transform="translate(201 217)" fill="#fff">
      <path d="M 95.25665283203125 501.5284729003906 C 68.61190032958984 501.5284729003906 36.28521347045898 501.1870422363281 35.96183776855469 501.18359375 L 35.95646286010742 501.1835327148438 L 35.95115280151367 501.1835327148438 C 31.22908973693848 501.1835327148438 26.64883804321289 500.2589111328125 22.33758926391602 498.4354248046875 C 18.17290115356445 496.6739196777344 14.43240165710449 494.1519165039062 11.22002601623535 490.9395446777344 C 8.007651329040527 487.7271728515625 5.48565149307251 483.9866638183594 3.724151372909546 479.8219604492188 C 1.900651335716248 475.5107116699219 0.9760263562202454 470.9304809570312 0.9760263562202454 466.2084045410156 C 0.9754013419151306 465.4218444824219 0.9145263433456421 386.6807861328125 0.9145263433456421 304.7532348632812 C 0.9145263433456421 304.3163452148438 0.9754013419151306 131.4589080810547 0.9760263562202454 129.7129669189453 L 0.9760263562202454 35.94653701782227 C 0.9760263562202454 31.22447395324707 1.900651335716248 26.64422416687012 3.724151372909546 22.33297538757324 C 5.48565149307251 18.16828727722168 8.007651329040527 14.42784976959229 11.22002601623535 11.21547412872314 C 14.43240165710449 8.00309944152832 18.17290115356445 5.481099605560303 22.33758926391602 3.719599485397339 C 26.64883804321289 1.896099448204041 31.22908973693848 0.9714744687080383 35.95115280151367 0.9714744687080383 C 36.27664947509766 0.9722244739532471 69.01877593994141 1.044661998748779 94.74571228027344 1.044661998748779 C 109.8594665527344 1.044661998748779 119.6329040527344 1.01997447013855 123.7945251464844 0.9714120030403137 C 127.9484024047852 0.9229120016098022 137.704833984375 0.8982869982719421 152.7927703857422 0.8982869982719421 C 178.4878387451172 0.8982869982719421 211.1801452636719 0.9707244634628296 211.5073394775391 0.9714744687080383 C 216.2316589355469 0.9714744687080383 220.8119049072266 1.896099448204041 225.1231536865234 3.719599485397339 C 229.287841796875 5.481099605560303 233.0283355712891 8.00309944152832 236.2407073974609 11.21547412872314 C 239.4530944824219 14.42784976959229 241.9750823974609 18.16828727722168 243.7365875244141 22.33297538757324 C 245.5600891113281 26.64422416687012 246.4847106933594 31.22447395324707 246.4847106933594 35.94653701782227 C 246.4869689941406 37.21322631835938 246.7095947265625 162.8090362548828 246.4847106933594 194.9729156494141 C 246.3977203369141 207.4219818115234 246.5258941650391 228.0299682617188 246.6616516113281 249.8480377197266 C 246.8740234375 283.9906005859375 247.1147766113281 322.6886596679688 246.4866485595703 332.6955871582031 C 245.4775695800781 348.7740783691406 246.4709930419922 464.6337890625 246.4847106933594 466.2099304199219 C 246.4844818115234 470.9313659667969 245.5598602294922 475.5112609863281 243.7365875244141 479.8219604492188 C 241.9750823974609 483.9866638183594 239.4530944824219 487.7271728515625 236.2407073974609 490.9395446777344 C 233.0283355712891 494.1519165039062 229.287841796875 496.6739196777344 225.1231536865234 498.4354248046875 C 220.8137359619141 500.2581176757812 216.2356719970703 501.1827392578125 211.5157470703125 501.1835327148438 C 210.9671020507812 501.1771545410156 181.6200714111328 500.8385314941406 156.9515838623047 500.8385314941406 C 142.3879089355469 500.8385314941406 132.2745208740234 500.9549255371094 126.8923416137695 501.1844787597656 C 121.5384674072266 501.4127197265625 110.8946533203125 501.5284729003906 95.25665283203125 501.5284729003906 Z" stroke="none"/>
      <path d="M 152.7927703857422 1.898284912109375 C 137.7072448730469 1.898284912109375 127.954704284668 1.922821044921875 123.8061752319336 1.971282958984375 C 119.6375732421875 2.01995849609375 109.8602447509766 2.04461669921875 94.74571228027344 2.04461669921875 C 69.01763916015625 2.04461669921875 36.27436828613281 1.97216796875 35.95111083984375 1.971435546875 C 31.36363220214844 1.971435546875 26.91444396972656 2.869415283203125 22.72711181640625 4.64056396484375 C 18.681640625 6.35162353515625 15.0479736328125 8.8016357421875 11.92710876464844 11.9224853515625 C 8.806243896484375 15.04336547851562 6.356231689453125 18.67703247070312 4.645172119140625 22.72250366210938 C 2.874038696289062 26.90982055664062 1.976043701171875 31.35910034179688 1.976043701171875 35.94656372070312 L 1.976043701171875 129.7132873535156 C 1.975433349609375 131.459228515625 1.914566040039062 304.3164978027344 1.914566040039062 304.7532348632812 C 1.914566040039062 386.6803588867188 1.975433349609375 465.4210815429688 1.976043701171875 466.2084350585938 C 1.976043701171875 470.7958984375 2.874038696289062 475.2450866699219 4.645172119140625 479.4324340820312 C 6.356231689453125 483.4779052734375 8.806243896484375 487.111572265625 11.92710876464844 490.232421875 C 15.0479736328125 493.3533020019531 18.681640625 495.8032836914062 22.72711181640625 497.5143432617188 C 26.91444396972656 499.2854919433594 31.36363220214844 500.1835021972656 35.95111083984375 500.1835021972656 L 35.96177673339844 500.1835021972656 L 35.97244262695312 500.1836242675781 C 36.2957763671875 500.18701171875 68.617431640625 500.5284118652344 95.25663757324219 500.5284118652344 C 110.8801727294922 500.5284118652344 121.5095748901367 500.4129638671875 126.8497085571289 500.185302734375 C 132.2459716796875 499.9552307128906 142.3737030029297 499.8385620117188 156.9515686035156 499.8385620117188 C 181.5472106933594 499.8385620117188 210.7915344238281 500.1750183105469 211.5212707519531 500.1834716796875 C 216.1045837402344 500.1819458007812 220.5498809814453 499.2839660644531 224.733642578125 497.5143432617188 C 228.7791137695312 495.8032836914062 232.4127807617188 493.3533020019531 235.5336456298828 490.232421875 C 238.6545104980469 487.111572265625 241.1045074462891 483.4779052734375 242.8155670166016 479.4324340820312 C 244.5855102539062 475.2478942871094 245.4834899902344 470.8019714355469 245.4846954345703 466.2177734375 C 245.4420471191406 461.31396484375 244.4759979248047 348.7674865722656 245.4886322021484 332.6329650878906 C 246.114501953125 322.6605529785156 245.8739013671875 283.981689453125 245.6616363525391 249.8560943603516 C 245.5259094238281 228.0339050292969 245.397705078125 207.4219055175781 245.4847717285156 194.9658813476562 C 245.7095794677734 162.8063659667969 245.4869689941406 37.21502685546875 245.4847106933594 35.94656372070312 C 245.4847106933594 31.35910034179688 244.5867004394531 26.90982055664062 242.8155670166016 22.72250366210938 C 241.1045074462891 18.67703247070312 238.6545104980469 15.04336547851562 235.5336456298828 11.9224853515625 C 232.4127807617188 8.8016357421875 228.7791137695312 6.35162353515625 224.733642578125 4.64056396484375 C 220.5463104248047 2.869415283203125 216.0971069335938 1.971435546875 211.5051727294922 1.971435546875 C 211.177978515625 1.970703125 178.4868469238281 1.898284912109375 152.7927703857422 1.898284912109375 M 152.7927856445312 -0.10174560546875 C 178.7862854003906 -0.10174560546875 211.5096435546875 -0.028564453125 211.5096435546875 -0.028564453125 C 231.3781127929688 -0.028564453125 247.4847106933594 16.07803344726562 247.4847106933594 35.94656372070312 C 247.4847106933594 35.94656372070312 247.7121734619141 162.4394836425781 247.4847106933594 194.9798889160156 C 247.2572326660156 227.5203552246094 248.5051116943359 316.5004272460938 247.4847106933594 332.7582397460938 C 246.4643096923828 349.0159606933594 247.4847106933594 466.2084350585938 247.4847106933594 466.2084350585938 C 247.4847106933594 486.076904296875 231.3781127929688 502.1835021972656 211.5096435546875 502.1835021972656 C 211.5096435546875 502.1835021972656 182.0097808837891 501.8385314941406 156.9515838623047 501.8385314941406 C 144.4201965332031 501.8385314941406 133.0030670166016 501.9247436523438 126.9349060058594 502.1835021972656 C 120.8678741455078 502.4421997070312 108.7347412109375 502.5284423828125 95.25665283203125 502.5284423828125 C 68.29798889160156 502.5284423828125 35.95111083984375 502.1835021972656 35.95111083984375 502.1835021972656 C 16.0826416015625 502.1835021972656 -0.023956298828125 486.076904296875 -0.023956298828125 466.2084350585938 C -0.023956298828125 466.2084350585938 -0.0854339599609375 387.62890625 -0.0854339599609375 304.7532348632812 C -0.0854339599609375 304.3110961914062 -0.023956298828125 129.7125549316406 -0.023956298828125 129.7125549316406 L -0.023956298828125 35.94656372070312 C -0.023956298828125 16.07803344726562 16.0826416015625 -0.028564453125 35.95111083984375 -0.028564453125 C 35.95111083984375 -0.028564453125 68.72224426269531 0.04461669921875 94.74569702148438 0.04461669921875 C 107.7597961425781 0.04461669921875 119.0827941894531 0.02630615234375 123.7828369140625 -0.028564453125 C 128.4820251464844 -0.08343505859375 139.7972106933594 -0.101715087890625 152.7927856445312 -0.10174560546875 Z" stroke="none" fill="#29339b"/>
    </g>
    <g id="Phone_screen" data-name="Phone screen" transform="translate(215.366 232.081)" fill="#fff" opacity="0.6">
      <path d="M 195.7041015625 471.7124938964844 L 23.0238151550293 471.7124938964844 C 20.05022621154785 471.7124938964844 17.16599082946777 471.1303100585938 14.45122623443604 469.9821166992188 C 11.82881450653076 468.8728332519531 9.473402976989746 467.28466796875 7.450461387634277 465.2616577148438 C 5.427579402923584 463.2386474609375 3.8394615650177 460.8832397460938 2.730226278305054 458.2607727050781 C 1.582108616828918 455.5461730957031 0.9999909996986389 452.6620788574219 0.9999909996986389 449.6886596679688 L 0.9999909996986389 345.5910034179688 L 0.9999909996986389 104.9598388671875 L 0.9999909996986389 23.02383613586426 C 0.9999909996986389 20.05036544799805 1.582108616828918 17.16624641418457 2.730226278305054 14.45165824890137 C 3.8394615650177 11.82924652099609 5.427579402923584 9.473834991455078 7.450461387634277 7.450893878936768 C 9.473402976989746 5.427894115447998 11.82881450653076 3.839717626571655 14.45128536224365 2.730423450469971 C 17.16599082946777 1.582246899604797 20.05022621154785 1.000070452690125 23.0238151550293 1.000070452690125 L 48.49107360839844 1.000070452690125 C 48.11554336547852 2.226158142089844 47.92581558227539 3.500681161880493 47.92581558227539 4.805129528045654 L 47.92581558227539 5.987776279449463 C 47.92581558227539 9.460247039794922 49.27816772460938 12.72483539581299 51.73369598388672 15.1800708770752 C 54.18910980224609 17.63530540466309 57.45381546020508 18.98742294311523 60.9264030456543 18.98742294311523 L 158.5215148925781 18.98742294311523 C 161.9941101074219 18.98742294311523 165.2588195800781 17.63530540466309 167.7142333984375 15.1800708770752 C 170.1697540283203 12.72483539581299 171.5221099853516 9.460247039794922 171.5221099853516 5.987776279449463 L 171.5221099853516 4.805129528045654 C 171.5221099853516 3.500681161880493 171.3323822021484 2.226158142089844 170.9568328857422 1.000070452690125 L 195.7041015625 1.000070452690125 C 198.6777496337891 1.000070452690125 201.5619964599609 1.582246899604797 204.2768096923828 2.730423450469971 C 206.8993377685547 3.839717626571655 209.2548217773438 5.427894115447998 211.2778778076172 7.450893878936768 C 213.3009338378906 9.473894119262695 214.88916015625 11.82930564880371 215.9983978271484 14.45171737670898 C 217.1466369628906 17.16624641418457 217.7288208007812 20.05036544799805 217.7288208007812 23.02383613586426 L 217.7288208007812 449.6886596679688 C 217.7288208007812 452.6620788574219 217.1466369628906 455.5461730957031 215.9983978271484 458.2607727050781 C 214.88916015625 460.8832397460938 213.3009338378906 463.2386474609375 211.2778778076172 465.2616577148438 C 209.2548217773438 467.28466796875 206.8993377685547 468.8728332519531 204.2767486572266 469.9821166992188 C 201.5619964599609 471.1303100585938 198.6777496337891 471.7124938964844 195.7041015625 471.7124938964844 Z" stroke="none"/>
      <path d="M 195.7040863037109 470.7124938964844 C 198.5430908203125 470.7124938964844 201.2963409423828 470.1568603515625 203.8872222900391 469.0611267089844 C 206.3905944824219 468.0022583007812 208.6392822265625 466.4859924316406 210.5707702636719 464.5545043945312 C 212.5023345947266 462.623046875 214.0185852050781 460.3744201660156 215.0774078369141 457.8711242675781 C 216.1732177734375 455.2806091308594 216.7288360595703 452.5276184082031 216.7288360595703 449.6886291503906 L 216.7288360595703 23.0238094329834 C 216.7288360595703 20.1848087310791 216.1732177734375 17.43181037902832 215.0774078369141 14.84124660491943 C 214.0186462402344 12.33812236785889 212.5023956298828 10.08949661254883 210.5707702636719 8.157997131347656 C 208.6392211914062 6.226497173309326 206.3905944824219 4.710309505462646 203.8872833251953 3.651434421539307 C 201.2964630126953 2.555684566497803 198.543212890625 2.000059366226196 195.7040863037109 2.000059366226196 L 172.2418518066406 2.000059366226196 C 172.4282379150391 2.916188716888428 172.5220947265625 3.853352308273315 172.5220947265625 4.805121898651123 L 172.5220947265625 5.987746715545654 C 172.5220947265625 9.727372169494629 171.0657196044922 13.2430591583252 168.4212799072266 15.88718414306641 C 165.7770233154297 18.53130912780762 162.2612152099609 19.98743438720703 158.5215301513672 19.98743438720703 L 60.9264030456543 19.98743438720703 C 57.18671417236328 19.98743438720703 53.67090225219727 18.53130912780762 51.02665328979492 15.88724708557129 C 48.3822135925293 13.2430591583252 46.92583847045898 9.727372169494629 46.92583847045898 5.987746715545654 L 46.92583847045898 4.805121898651123 C 46.92583847045898 3.853294610977173 47.01967239379883 2.916289329528809 47.20608520507812 2.000059366226196 L 23.02383995056152 2.000059366226196 C 20.18471527099609 2.000059366226196 17.43152809143066 2.555684566497803 14.84084033966064 3.651434421539307 C 12.33771514892578 4.710247039794922 10.08909034729004 6.226497173309326 8.157589912414551 8.157934188842773 C 6.226215362548828 10.08930969238281 4.710090160369873 12.33793449401855 3.651215314865112 14.84118461608887 C 2.555527687072754 17.43193435668945 1.999965310096741 20.18493461608887 1.999965310096741 23.0238094329834 L 1.999965310096741 104.9598083496094 L 1.999965310096741 345.591064453125 L 1.999965310096741 449.6886291503906 C 1.999965310096741 452.5274963378906 2.555527687072754 455.2804870605469 3.651215314865112 457.8711853027344 C 4.710090160369873 460.3745727539062 6.226277828216553 462.6231994628906 8.157527923583984 464.5545654296875 C 10.08909034729004 466.4860534667969 12.33765316009521 468.0023193359375 14.84077739715576 469.0611267089844 C 17.4316520690918 470.1568603515625 20.18484115600586 470.7124938964844 23.02383995056152 470.7124938964844 L 195.7040863037109 470.7124938964844 M 195.7040863037109 472.7124938964844 L 23.02383995056152 472.7124938964844 C 19.91565322875977 472.7124938964844 16.90034103393555 472.1036987304688 14.0617151260376 470.9031372070312 C 11.32009029388428 469.7434387207031 8.857840538024902 468.083251953125 6.743340492248535 465.96875 C 4.628902912139893 463.854248046875 2.968902826309204 461.3919982910156 1.809215307235718 458.6502990722656 C 0.608715295791626 455.8117980957031 -3.472900425549597e-05 452.7966918945312 -3.472900425549597e-05 449.6886291503906 L -3.472900425549597e-05 345.591064453125 L -3.472900425549597e-05 104.9598083496094 L -3.472900425549597e-05 23.0238094329834 C -3.472900425549597e-05 19.91574668884277 0.608715295791626 16.90062141418457 1.809215307235718 14.0621223449707 C 2.968902826309204 11.3204345703125 4.628965377807617 8.858184814453125 6.743340492248535 6.743746757507324 C 8.857840538024902 4.62930965423584 11.32009029388428 2.969121932983398 14.0617151260376 1.809434413909912 C 16.90034103393555 0.6088094711303711 19.91565322875977 5.944824079051614e-05 23.02383995056152 5.944824079051614e-05 L 49.92658996582031 5.944824079051614e-05 C 49.26284027099609 1.517246961593628 48.92583847045898 3.133371829986572 48.92583847045898 4.805121898651123 L 48.92583847045898 5.987746715545654 C 48.92583847045898 9.193121910095215 50.17409133911133 12.20649719238281 52.44077682495117 14.47293472290039 C 54.70734024047852 16.73930931091309 57.72090148925781 17.98743438720703 60.9264030456543 17.98743438720703 L 158.5215301513672 17.98743438720703 C 161.7269592285156 17.98743438720703 164.7405853271484 16.73930931091309 167.0071563720703 14.47293472290039 C 169.2738342285156 12.20649719238281 170.5220947265625 9.193121910095215 170.5220947265625 5.987746715545654 L 170.5220947265625 4.805121898651123 C 170.5220947265625 3.134621858596802 170.1854095458984 1.517934441566467 169.5212707519531 5.944824079051614e-05 L 195.7040863037109 5.944824079051614e-05 C 198.8123474121094 5.944824079051614e-05 201.8276519775391 0.6088094711303711 204.6663360595703 1.809434413909912 C 207.4080963134766 2.969121932983398 209.8704681396484 4.62930965423584 211.9849700927734 6.743746757507324 C 214.0996551513672 8.858371734619141 215.7597808837891 11.32055950164795 216.9194030761719 14.0621223449707 C 218.1200866699219 16.90062141418457 218.7288360595703 19.91574668884277 218.7288360595703 23.0238094329834 L 218.7288360595703 449.6886291503906 C 218.7288360595703 452.7966918945312 218.1200866699219 455.8117980957031 216.9194030761719 458.6502990722656 C 215.7597808837891 461.3919372558594 214.0995941162109 463.854248046875 211.9849700927734 465.96875 C 209.8704681396484 468.083251953125 207.4080963134766 469.7434387207031 204.6663360595703 470.9031372070312 C 201.8276519775391 472.1036987304688 198.8123474121094 472.7124938964844 195.7040863037109 472.7124938964844 Z" stroke="none" fill="#29339b"/>
    </g>
    <g id="Header_icon" data-name="Header icon" transform="translate(305.554 235.342)">
      <path id="Line" d="M1.086,74.414c.3.165,11.685.215,17.828.042,5.407-.153,10.814-.589,16.234-.635.326,0,2.223,0,2.562,0,.378.1.93-.426.93-.871s-.737-.811-1.392-.779c-5.333-.033-10.589.233-15.956.271-5.739.235-18.033.05-18.033.05l-2.23-.132s-.906.1-.927.942S.787,74.249,1.086,74.414Z" transform="translate(-0.102 -69.92)" fill="#29339b"/>
      <ellipse id="Ellipse_335" data-name="Ellipse 335" cx="3" cy="2.5" rx="3" ry="2.5" transform="translate(41.446 -0.342)" fill="#29339b"/>
    </g>
    <path id="Line-2" data-name="Line" d="M2.081,74.477c.769.17,30.106.221,45.935.043,13.931-.157,27.863-.605,41.828-.653.841,0,5.728,0,6.6,0,.973.1.815-.588.816-1.046s-.319-.683-2.006-.65c-13.74-.034-27.283.24-41.111.278-14.787.242-46.464.052-46.464.052l-5.747-.136s-1.124.115-1.177.977S1.312,74.307,2.081,74.477Z" transform="translate(275.411 617.269)" fill="#29339b" stroke="#29339b" stroke-width="1"/>
    <g id="Phone_border_screen-2" data-name="Phone border screen" transform="translate(525 217)" fill="#fff">
      <path d="M 95.25665283203125 501.5284729003906 C 68.61190032958984 501.5284729003906 36.28521347045898 501.1870422363281 35.96183776855469 501.18359375 L 35.95646286010742 501.1835327148438 L 35.95115280151367 501.1835327148438 C 31.22908973693848 501.1835327148438 26.64883804321289 500.2589111328125 22.33758926391602 498.4354248046875 C 18.17290115356445 496.6739196777344 14.43240165710449 494.1519165039062 11.22002601623535 490.9395446777344 C 8.007651329040527 487.7271728515625 5.48565149307251 483.9866638183594 3.724151372909546 479.8219604492188 C 1.900651335716248 475.5107116699219 0.9760263562202454 470.9304809570312 0.9760263562202454 466.2084045410156 C 0.9754013419151306 465.4218444824219 0.9145263433456421 386.6807861328125 0.9145263433456421 304.7532348632812 C 0.9145263433456421 304.3163452148438 0.9754013419151306 131.4589080810547 0.9760263562202454 129.7129669189453 L 0.9760263562202454 35.94653701782227 C 0.9760263562202454 31.22447395324707 1.900651335716248 26.64422416687012 3.724151372909546 22.33297538757324 C 5.48565149307251 18.16828727722168 8.007651329040527 14.42784976959229 11.22002601623535 11.21547412872314 C 14.43240165710449 8.00309944152832 18.17290115356445 5.481099605560303 22.33758926391602 3.719599485397339 C 26.64883804321289 1.896099448204041 31.22908973693848 0.9714744687080383 35.95115280151367 0.9714744687080383 C 36.27664947509766 0.9722244739532471 69.01877593994141 1.044661998748779 94.74571228027344 1.044661998748779 C 109.8594665527344 1.044661998748779 119.6329040527344 1.01997447013855 123.7945251464844 0.9714120030403137 C 127.9484024047852 0.9229120016098022 137.704833984375 0.8982869982719421 152.7927703857422 0.8982869982719421 C 178.4878387451172 0.8982869982719421 211.1801452636719 0.9707244634628296 211.5073394775391 0.9714744687080383 C 216.2316589355469 0.9714744687080383 220.8119049072266 1.896099448204041 225.1231536865234 3.719599485397339 C 229.287841796875 5.481099605560303 233.0283355712891 8.00309944152832 236.2407073974609 11.21547412872314 C 239.4530944824219 14.42784976959229 241.9750823974609 18.16828727722168 243.7365875244141 22.33297538757324 C 245.5600891113281 26.64422416687012 246.4847106933594 31.22447395324707 246.4847106933594 35.94653701782227 C 246.4869689941406 37.21322631835938 246.7095947265625 162.8090362548828 246.4847106933594 194.9729156494141 C 246.3977203369141 207.4219818115234 246.5258941650391 228.0299682617188 246.6616516113281 249.8480377197266 C 246.8740234375 283.9906005859375 247.1147766113281 322.6886596679688 246.4866485595703 332.6955871582031 C 245.4775695800781 348.7740783691406 246.4709930419922 464.6337890625 246.4847106933594 466.2099304199219 C 246.4844818115234 470.9313659667969 245.5598602294922 475.5112609863281 243.7365875244141 479.8219604492188 C 241.9750823974609 483.9866638183594 239.4530944824219 487.7271728515625 236.2407073974609 490.9395446777344 C 233.0283355712891 494.1519165039062 229.287841796875 496.6739196777344 225.1231536865234 498.4354248046875 C 220.8137359619141 500.2581176757812 216.2356719970703 501.1827392578125 211.5157470703125 501.1835327148438 C 210.9671020507812 501.1771545410156 181.6200714111328 500.8385314941406 156.9515838623047 500.8385314941406 C 142.3879089355469 500.8385314941406 132.2745208740234 500.9549255371094 126.8923416137695 501.1844787597656 C 121.5384674072266 501.4127197265625 110.8946533203125 501.5284729003906 95.25665283203125 501.5284729003906 Z" stroke="none"/>
      <path d="M 152.7927703857422 1.898284912109375 C 137.7072448730469 1.898284912109375 127.954704284668 1.922821044921875 123.8061752319336 1.971282958984375 C 119.6375732421875 2.01995849609375 109.8602447509766 2.04461669921875 94.74571228027344 2.04461669921875 C 69.01763916015625 2.04461669921875 36.27436828613281 1.97216796875 35.95111083984375 1.971435546875 C 31.36363220214844 1.971435546875 26.91444396972656 2.869415283203125 22.72711181640625 4.64056396484375 C 18.681640625 6.35162353515625 15.0479736328125 8.8016357421875 11.92710876464844 11.9224853515625 C 8.806243896484375 15.04336547851562 6.356231689453125 18.67703247070312 4.645172119140625 22.72250366210938 C 2.874038696289062 26.90982055664062 1.976043701171875 31.35910034179688 1.976043701171875 35.94656372070312 L 1.976043701171875 129.7132873535156 C 1.975433349609375 131.459228515625 1.914566040039062 304.3164978027344 1.914566040039062 304.7532348632812 C 1.914566040039062 386.6803588867188 1.975433349609375 465.4210815429688 1.976043701171875 466.2084350585938 C 1.976043701171875 470.7958984375 2.874038696289062 475.2450866699219 4.645172119140625 479.4324340820312 C 6.356231689453125 483.4779052734375 8.806243896484375 487.111572265625 11.92710876464844 490.232421875 C 15.0479736328125 493.3533020019531 18.681640625 495.8032836914062 22.72711181640625 497.5143432617188 C 26.91444396972656 499.2854919433594 31.36363220214844 500.1835021972656 35.95111083984375 500.1835021972656 L 35.96177673339844 500.1835021972656 L 35.97244262695312 500.1836242675781 C 36.2957763671875 500.18701171875 68.617431640625 500.5284118652344 95.25663757324219 500.5284118652344 C 110.8801727294922 500.5284118652344 121.5095748901367 500.4129638671875 126.8497085571289 500.185302734375 C 132.2459716796875 499.9552307128906 142.3737030029297 499.8385620117188 156.9515686035156 499.8385620117188 C 181.5472106933594 499.8385620117188 210.7915344238281 500.1750183105469 211.5212707519531 500.1834716796875 C 216.1045837402344 500.1819458007812 220.5498809814453 499.2839660644531 224.733642578125 497.5143432617188 C 228.7791137695312 495.8032836914062 232.4127807617188 493.3533020019531 235.5336456298828 490.232421875 C 238.6545104980469 487.111572265625 241.1045074462891 483.4779052734375 242.8155670166016 479.4324340820312 C 244.5855102539062 475.2478942871094 245.4834899902344 470.8019714355469 245.4846954345703 466.2177734375 C 245.4420471191406 461.31396484375 244.4759979248047 348.7674865722656 245.4886322021484 332.6329650878906 C 246.114501953125 322.6605529785156 245.8739013671875 283.981689453125 245.6616363525391 249.8560943603516 C 245.5259094238281 228.0339050292969 245.397705078125 207.4219055175781 245.4847717285156 194.9658813476562 C 245.7095794677734 162.8063659667969 245.4869689941406 37.21502685546875 245.4847106933594 35.94656372070312 C 245.4847106933594 31.35910034179688 244.5867004394531 26.90982055664062 242.8155670166016 22.72250366210938 C 241.1045074462891 18.67703247070312 238.6545104980469 15.04336547851562 235.5336456298828 11.9224853515625 C 232.4127807617188 8.8016357421875 228.7791137695312 6.35162353515625 224.733642578125 4.64056396484375 C 220.5463104248047 2.869415283203125 216.0971069335938 1.971435546875 211.5051727294922 1.971435546875 C 211.177978515625 1.970703125 178.4868469238281 1.898284912109375 152.7927703857422 1.898284912109375 M 152.7927856445312 -0.10174560546875 C 178.7862854003906 -0.10174560546875 211.5096435546875 -0.028564453125 211.5096435546875 -0.028564453125 C 231.3781127929688 -0.028564453125 247.4847106933594 16.07803344726562 247.4847106933594 35.94656372070312 C 247.4847106933594 35.94656372070312 247.7121734619141 162.4394836425781 247.4847106933594 194.9798889160156 C 247.2572326660156 227.5203552246094 248.5051116943359 316.5004272460938 247.4847106933594 332.7582397460938 C 246.4643096923828 349.0159606933594 247.4847106933594 466.2084350585938 247.4847106933594 466.2084350585938 C 247.4847106933594 486.076904296875 231.3781127929688 502.1835021972656 211.5096435546875 502.1835021972656 C 211.5096435546875 502.1835021972656 182.0097808837891 501.8385314941406 156.9515838623047 501.8385314941406 C 144.4201965332031 501.8385314941406 133.0030670166016 501.9247436523438 126.9349060058594 502.1835021972656 C 120.8678741455078 502.4421997070312 108.7347412109375 502.5284423828125 95.25665283203125 502.5284423828125 C 68.29798889160156 502.5284423828125 35.95111083984375 502.1835021972656 35.95111083984375 502.1835021972656 C 16.0826416015625 502.1835021972656 -0.023956298828125 486.076904296875 -0.023956298828125 466.2084350585938 C -0.023956298828125 466.2084350585938 -0.0854339599609375 387.62890625 -0.0854339599609375 304.7532348632812 C -0.0854339599609375 304.3110961914062 -0.023956298828125 129.7125549316406 -0.023956298828125 129.7125549316406 L -0.023956298828125 35.94656372070312 C -0.023956298828125 16.07803344726562 16.0826416015625 -0.028564453125 35.95111083984375 -0.028564453125 C 35.95111083984375 -0.028564453125 68.72224426269531 0.04461669921875 94.74569702148438 0.04461669921875 C 107.7597961425781 0.04461669921875 119.0827941894531 0.02630615234375 123.7828369140625 -0.028564453125 C 128.4820251464844 -0.08343505859375 139.7972106933594 -0.101715087890625 152.7927856445312 -0.10174560546875 Z" stroke="none" fill="#29339b"/>
    </g>
    <g id="Phone_screen-2" data-name="Phone screen" transform="translate(539.366 232.081)" fill="#fff" opacity="0.6">
      <path d="M 195.7041015625 471.7124938964844 L 23.0238151550293 471.7124938964844 C 20.05022621154785 471.7124938964844 17.16599082946777 471.1303100585938 14.45122623443604 469.9821166992188 C 11.82881450653076 468.8728332519531 9.473402976989746 467.28466796875 7.450461387634277 465.2616577148438 C 5.427579402923584 463.2386474609375 3.8394615650177 460.8832397460938 2.730226278305054 458.2607727050781 C 1.582108616828918 455.5461730957031 0.9999909996986389 452.6620788574219 0.9999909996986389 449.6886596679688 L 0.9999909996986389 345.5910034179688 L 0.9999909996986389 104.9598388671875 L 0.9999909996986389 23.02383613586426 C 0.9999909996986389 20.05036544799805 1.582108616828918 17.16624641418457 2.730226278305054 14.45165824890137 C 3.8394615650177 11.82924652099609 5.427579402923584 9.473834991455078 7.450461387634277 7.450893878936768 C 9.473402976989746 5.427894115447998 11.82881450653076 3.839717626571655 14.45128536224365 2.730423450469971 C 17.16599082946777 1.582246899604797 20.05022621154785 1.000070452690125 23.0238151550293 1.000070452690125 L 48.49107360839844 1.000070452690125 C 48.11554336547852 2.226158142089844 47.92581558227539 3.500681161880493 47.92581558227539 4.805129528045654 L 47.92581558227539 5.987776279449463 C 47.92581558227539 9.460247039794922 49.27816772460938 12.72483539581299 51.73369598388672 15.1800708770752 C 54.18910980224609 17.63530540466309 57.45381546020508 18.98742294311523 60.9264030456543 18.98742294311523 L 158.5215148925781 18.98742294311523 C 161.9941101074219 18.98742294311523 165.2588195800781 17.63530540466309 167.7142333984375 15.1800708770752 C 170.1697540283203 12.72483539581299 171.5221099853516 9.460247039794922 171.5221099853516 5.987776279449463 L 171.5221099853516 4.805129528045654 C 171.5221099853516 3.500681161880493 171.3323822021484 2.226158142089844 170.9568328857422 1.000070452690125 L 195.7041015625 1.000070452690125 C 198.6777496337891 1.000070452690125 201.5619964599609 1.582246899604797 204.2768096923828 2.730423450469971 C 206.8993377685547 3.839717626571655 209.2548217773438 5.427894115447998 211.2778778076172 7.450893878936768 C 213.3009338378906 9.473894119262695 214.88916015625 11.82930564880371 215.9983978271484 14.45171737670898 C 217.1466369628906 17.16624641418457 217.7288208007812 20.05036544799805 217.7288208007812 23.02383613586426 L 217.7288208007812 449.6886596679688 C 217.7288208007812 452.6620788574219 217.1466369628906 455.5461730957031 215.9983978271484 458.2607727050781 C 214.88916015625 460.8832397460938 213.3009338378906 463.2386474609375 211.2778778076172 465.2616577148438 C 209.2548217773438 467.28466796875 206.8993377685547 468.8728332519531 204.2767486572266 469.9821166992188 C 201.5619964599609 471.1303100585938 198.6777496337891 471.7124938964844 195.7041015625 471.7124938964844 Z" stroke="none"/>
      <path d="M 195.7040863037109 470.7124938964844 C 198.5430908203125 470.7124938964844 201.2963409423828 470.1568603515625 203.8872222900391 469.0611267089844 C 206.3905944824219 468.0022583007812 208.6392822265625 466.4859924316406 210.5707702636719 464.5545043945312 C 212.5023345947266 462.623046875 214.0185852050781 460.3744201660156 215.0774078369141 457.8711242675781 C 216.1732177734375 455.2806091308594 216.7288360595703 452.5276184082031 216.7288360595703 449.6886291503906 L 216.7288360595703 23.0238094329834 C 216.7288360595703 20.1848087310791 216.1732177734375 17.43181037902832 215.0774078369141 14.84124660491943 C 214.0186462402344 12.33812236785889 212.5023956298828 10.08949661254883 210.5707702636719 8.157997131347656 C 208.6392211914062 6.226497173309326 206.3905944824219 4.710309505462646 203.8872833251953 3.651434421539307 C 201.2964630126953 2.555684566497803 198.543212890625 2.000059366226196 195.7040863037109 2.000059366226196 L 172.2418518066406 2.000059366226196 C 172.4282379150391 2.916188716888428 172.5220947265625 3.853352308273315 172.5220947265625 4.805121898651123 L 172.5220947265625 5.987746715545654 C 172.5220947265625 9.727372169494629 171.0657196044922 13.2430591583252 168.4212799072266 15.88718414306641 C 165.7770233154297 18.53130912780762 162.2612152099609 19.98743438720703 158.5215301513672 19.98743438720703 L 60.9264030456543 19.98743438720703 C 57.18671417236328 19.98743438720703 53.67090225219727 18.53130912780762 51.02665328979492 15.88724708557129 C 48.3822135925293 13.2430591583252 46.92583847045898 9.727372169494629 46.92583847045898 5.987746715545654 L 46.92583847045898 4.805121898651123 C 46.92583847045898 3.853294610977173 47.01967239379883 2.916289329528809 47.20608520507812 2.000059366226196 L 23.02383995056152 2.000059366226196 C 20.18471527099609 2.000059366226196 17.43152809143066 2.555684566497803 14.84084033966064 3.651434421539307 C 12.33771514892578 4.710247039794922 10.08909034729004 6.226497173309326 8.157589912414551 8.157934188842773 C 6.226215362548828 10.08930969238281 4.710090160369873 12.33793449401855 3.651215314865112 14.84118461608887 C 2.555527687072754 17.43193435668945 1.999965310096741 20.18493461608887 1.999965310096741 23.0238094329834 L 1.999965310096741 104.9598083496094 L 1.999965310096741 345.591064453125 L 1.999965310096741 449.6886291503906 C 1.999965310096741 452.5274963378906 2.555527687072754 455.2804870605469 3.651215314865112 457.8711853027344 C 4.710090160369873 460.3745727539062 6.226277828216553 462.6231994628906 8.157527923583984 464.5545654296875 C 10.08909034729004 466.4860534667969 12.33765316009521 468.0023193359375 14.84077739715576 469.0611267089844 C 17.4316520690918 470.1568603515625 20.18484115600586 470.7124938964844 23.02383995056152 470.7124938964844 L 195.7040863037109 470.7124938964844 M 195.7040863037109 472.7124938964844 L 23.02383995056152 472.7124938964844 C 19.91565322875977 472.7124938964844 16.90034103393555 472.1036987304688 14.0617151260376 470.9031372070312 C 11.32009029388428 469.7434387207031 8.857840538024902 468.083251953125 6.743340492248535 465.96875 C 4.628902912139893 463.854248046875 2.968902826309204 461.3919982910156 1.809215307235718 458.6502990722656 C 0.608715295791626 455.8117980957031 -3.472900425549597e-05 452.7966918945312 -3.472900425549597e-05 449.6886291503906 L -3.472900425549597e-05 345.591064453125 L -3.472900425549597e-05 104.9598083496094 L -3.472900425549597e-05 23.0238094329834 C -3.472900425549597e-05 19.91574668884277 0.608715295791626 16.90062141418457 1.809215307235718 14.0621223449707 C 2.968902826309204 11.3204345703125 4.628965377807617 8.858184814453125 6.743340492248535 6.743746757507324 C 8.857840538024902 4.62930965423584 11.32009029388428 2.969121932983398 14.0617151260376 1.809434413909912 C 16.90034103393555 0.6088094711303711 19.91565322875977 5.944824079051614e-05 23.02383995056152 5.944824079051614e-05 L 49.92658996582031 5.944824079051614e-05 C 49.26284027099609 1.517246961593628 48.92583847045898 3.133371829986572 48.92583847045898 4.805121898651123 L 48.92583847045898 5.987746715545654 C 48.92583847045898 9.193121910095215 50.17409133911133 12.20649719238281 52.44077682495117 14.47293472290039 C 54.70734024047852 16.73930931091309 57.72090148925781 17.98743438720703 60.9264030456543 17.98743438720703 L 158.5215301513672 17.98743438720703 C 161.7269592285156 17.98743438720703 164.7405853271484 16.73930931091309 167.0071563720703 14.47293472290039 C 169.2738342285156 12.20649719238281 170.5220947265625 9.193121910095215 170.5220947265625 5.987746715545654 L 170.5220947265625 4.805121898651123 C 170.5220947265625 3.134621858596802 170.1854095458984 1.517934441566467 169.5212707519531 5.944824079051614e-05 L 195.7040863037109 5.944824079051614e-05 C 198.8123474121094 5.944824079051614e-05 201.8276519775391 0.6088094711303711 204.6663360595703 1.809434413909912 C 207.4080963134766 2.969121932983398 209.8704681396484 4.62930965423584 211.9849700927734 6.743746757507324 C 214.0996551513672 8.858371734619141 215.7597808837891 11.32055950164795 216.9194030761719 14.0621223449707 C 218.1200866699219 16.90062141418457 218.7288360595703 19.91574668884277 218.7288360595703 23.0238094329834 L 218.7288360595703 449.6886291503906 C 218.7288360595703 452.7966918945312 218.1200866699219 455.8117980957031 216.9194030761719 458.6502990722656 C 215.7597808837891 461.3919372558594 214.0995941162109 463.854248046875 211.9849700927734 465.96875 C 209.8704681396484 468.083251953125 207.4080963134766 469.7434387207031 204.6663360595703 470.9031372070312 C 201.8276519775391 472.1036987304688 198.8123474121094 472.7124938964844 195.7040863037109 472.7124938964844 Z" stroke="none" fill="#29339b"/>
    </g>
    <g id="Header_icon-2" data-name="Header icon" transform="translate(629.554 235.342)">
      <path id="Line-3" data-name="Line" d="M1.086,74.414c.3.165,11.685.215,17.828.042,5.407-.153,10.814-.589,16.234-.635.326,0,2.223,0,2.562,0,.378.1.93-.426.93-.871s-.737-.811-1.392-.779c-5.333-.033-10.589.233-15.956.271-5.739.235-18.033.05-18.033.05l-2.23-.132s-.906.1-.927.942S.787,74.249,1.086,74.414Z" transform="translate(-0.102 -69.92)" fill="#29339b"/>
      <ellipse id="Ellipse_335-2" data-name="Ellipse 335" cx="3" cy="2.5" rx="3" ry="2.5" transform="translate(41.446 -0.342)" fill="#29339b"/>
    </g>
    <path id="Line-4" data-name="Line" d="M2.081,74.477c.769.17,30.106.221,45.935.043,13.931-.157,27.863-.605,41.828-.653.841,0,5.728,0,6.6,0,.973.1.815-.588.816-1.046s-.319-.683-2.006-.65c-13.74-.034-27.283.24-41.111.278-14.787.242-46.464.052-46.464.052l-5.747-.136s-1.124.115-1.177.977S1.312,74.307,2.081,74.477Z" transform="translate(599.411 617.269)" fill="#29339b" stroke="#29339b" stroke-width="1"/>
    <g id="Phone_border_screen-3" data-name="Phone border screen" transform="translate(849 217)" fill="#fff">
      <path d="M 95.25665283203125 501.5284729003906 C 68.61190032958984 501.5284729003906 36.28521347045898 501.1870422363281 35.96183776855469 501.18359375 L 35.95646286010742 501.1835327148438 L 35.95115280151367 501.1835327148438 C 31.22908973693848 501.1835327148438 26.64883804321289 500.2589111328125 22.33758926391602 498.4354248046875 C 18.17290115356445 496.6739196777344 14.43240165710449 494.1519165039062 11.22002601623535 490.9395446777344 C 8.007651329040527 487.7271728515625 5.48565149307251 483.9866638183594 3.724151372909546 479.8219604492188 C 1.900651335716248 475.5107116699219 0.9760263562202454 470.9304809570312 0.9760263562202454 466.2084045410156 C 0.9754013419151306 465.4218444824219 0.9145263433456421 386.6807861328125 0.9145263433456421 304.7532348632812 C 0.9145263433456421 304.3163452148438 0.9754013419151306 131.4589080810547 0.9760263562202454 129.7129669189453 L 0.9760263562202454 35.94653701782227 C 0.9760263562202454 31.22447395324707 1.900651335716248 26.64422416687012 3.724151372909546 22.33297538757324 C 5.48565149307251 18.16828727722168 8.007651329040527 14.42784976959229 11.22002601623535 11.21547412872314 C 14.43240165710449 8.00309944152832 18.17290115356445 5.481099605560303 22.33758926391602 3.719599485397339 C 26.64883804321289 1.896099448204041 31.22908973693848 0.9714744687080383 35.95115280151367 0.9714744687080383 C 36.27664947509766 0.9722244739532471 69.01877593994141 1.044661998748779 94.74571228027344 1.044661998748779 C 109.8594665527344 1.044661998748779 119.6329040527344 1.01997447013855 123.7945251464844 0.9714120030403137 C 127.9484024047852 0.9229120016098022 137.704833984375 0.8982869982719421 152.7927703857422 0.8982869982719421 C 178.4878387451172 0.8982869982719421 211.1801452636719 0.9707244634628296 211.5073394775391 0.9714744687080383 C 216.2316589355469 0.9714744687080383 220.8119049072266 1.896099448204041 225.1231536865234 3.719599485397339 C 229.287841796875 5.481099605560303 233.0283355712891 8.00309944152832 236.2407073974609 11.21547412872314 C 239.4530944824219 14.42784976959229 241.9750823974609 18.16828727722168 243.7365875244141 22.33297538757324 C 245.5600891113281 26.64422416687012 246.4847106933594 31.22447395324707 246.4847106933594 35.94653701782227 C 246.4869689941406 37.21322631835938 246.7095947265625 162.8090362548828 246.4847106933594 194.9729156494141 C 246.3977203369141 207.4219818115234 246.5258941650391 228.0299682617188 246.6616516113281 249.8480377197266 C 246.8740234375 283.9906005859375 247.1147766113281 322.6886596679688 246.4866485595703 332.6955871582031 C 245.4775695800781 348.7740783691406 246.4709930419922 464.6337890625 246.4847106933594 466.2099304199219 C 246.4844818115234 470.9313659667969 245.5598602294922 475.5112609863281 243.7365875244141 479.8219604492188 C 241.9750823974609 483.9866638183594 239.4530944824219 487.7271728515625 236.2407073974609 490.9395446777344 C 233.0283355712891 494.1519165039062 229.287841796875 496.6739196777344 225.1231536865234 498.4354248046875 C 220.8137359619141 500.2581176757812 216.2356719970703 501.1827392578125 211.5157470703125 501.1835327148438 C 210.9671020507812 501.1771545410156 181.6200714111328 500.8385314941406 156.9515838623047 500.8385314941406 C 142.3879089355469 500.8385314941406 132.2745208740234 500.9549255371094 126.8923416137695 501.1844787597656 C 121.5384674072266 501.4127197265625 110.8946533203125 501.5284729003906 95.25665283203125 501.5284729003906 Z" stroke="none"/>
      <path d="M 152.7927703857422 1.898284912109375 C 137.7072448730469 1.898284912109375 127.954704284668 1.922821044921875 123.8061752319336 1.971282958984375 C 119.6375732421875 2.01995849609375 109.8602447509766 2.04461669921875 94.74571228027344 2.04461669921875 C 69.01763916015625 2.04461669921875 36.27436828613281 1.97216796875 35.95111083984375 1.971435546875 C 31.36363220214844 1.971435546875 26.91444396972656 2.869415283203125 22.72711181640625 4.64056396484375 C 18.681640625 6.35162353515625 15.0479736328125 8.8016357421875 11.92710876464844 11.9224853515625 C 8.806243896484375 15.04336547851562 6.356231689453125 18.67703247070312 4.645172119140625 22.72250366210938 C 2.874038696289062 26.90982055664062 1.976043701171875 31.35910034179688 1.976043701171875 35.94656372070312 L 1.976043701171875 129.7132873535156 C 1.975433349609375 131.459228515625 1.914566040039062 304.3164978027344 1.914566040039062 304.7532348632812 C 1.914566040039062 386.6803588867188 1.975433349609375 465.4210815429688 1.976043701171875 466.2084350585938 C 1.976043701171875 470.7958984375 2.874038696289062 475.2450866699219 4.645172119140625 479.4324340820312 C 6.356231689453125 483.4779052734375 8.806243896484375 487.111572265625 11.92710876464844 490.232421875 C 15.0479736328125 493.3533020019531 18.681640625 495.8032836914062 22.72711181640625 497.5143432617188 C 26.91444396972656 499.2854919433594 31.36363220214844 500.1835021972656 35.95111083984375 500.1835021972656 L 35.96177673339844 500.1835021972656 L 35.97244262695312 500.1836242675781 C 36.2957763671875 500.18701171875 68.617431640625 500.5284118652344 95.25663757324219 500.5284118652344 C 110.8801727294922 500.5284118652344 121.5095748901367 500.4129638671875 126.8497085571289 500.185302734375 C 132.2459716796875 499.9552307128906 142.3737030029297 499.8385620117188 156.9515686035156 499.8385620117188 C 181.5472106933594 499.8385620117188 210.7915344238281 500.1750183105469 211.5212707519531 500.1834716796875 C 216.1045837402344 500.1819458007812 220.5498809814453 499.2839660644531 224.733642578125 497.5143432617188 C 228.7791137695312 495.8032836914062 232.4127807617188 493.3533020019531 235.5336456298828 490.232421875 C 238.6545104980469 487.111572265625 241.1045074462891 483.4779052734375 242.8155670166016 479.4324340820312 C 244.5855102539062 475.2478942871094 245.4834899902344 470.8019714355469 245.4846954345703 466.2177734375 C 245.4420471191406 461.31396484375 244.4759979248047 348.7674865722656 245.4886322021484 332.6329650878906 C 246.114501953125 322.6605529785156 245.8739013671875 283.981689453125 245.6616363525391 249.8560943603516 C 245.5259094238281 228.0339050292969 245.397705078125 207.4219055175781 245.4847717285156 194.9658813476562 C 245.7095794677734 162.8063659667969 245.4869689941406 37.21502685546875 245.4847106933594 35.94656372070312 C 245.4847106933594 31.35910034179688 244.5867004394531 26.90982055664062 242.8155670166016 22.72250366210938 C 241.1045074462891 18.67703247070312 238.6545104980469 15.04336547851562 235.5336456298828 11.9224853515625 C 232.4127807617188 8.8016357421875 228.7791137695312 6.35162353515625 224.733642578125 4.64056396484375 C 220.5463104248047 2.869415283203125 216.0971069335938 1.971435546875 211.5051727294922 1.971435546875 C 211.177978515625 1.970703125 178.4868469238281 1.898284912109375 152.7927703857422 1.898284912109375 M 152.7927856445312 -0.10174560546875 C 178.7862854003906 -0.10174560546875 211.5096435546875 -0.028564453125 211.5096435546875 -0.028564453125 C 231.3781127929688 -0.028564453125 247.4847106933594 16.07803344726562 247.4847106933594 35.94656372070312 C 247.4847106933594 35.94656372070312 247.7121734619141 162.4394836425781 247.4847106933594 194.9798889160156 C 247.2572326660156 227.5203552246094 248.5051116943359 316.5004272460938 247.4847106933594 332.7582397460938 C 246.4643096923828 349.0159606933594 247.4847106933594 466.2084350585938 247.4847106933594 466.2084350585938 C 247.4847106933594 486.076904296875 231.3781127929688 502.1835021972656 211.5096435546875 502.1835021972656 C 211.5096435546875 502.1835021972656 182.0097808837891 501.8385314941406 156.9515838623047 501.8385314941406 C 144.4201965332031 501.8385314941406 133.0030670166016 501.9247436523438 126.9349060058594 502.1835021972656 C 120.8678741455078 502.4421997070312 108.7347412109375 502.5284423828125 95.25665283203125 502.5284423828125 C 68.29798889160156 502.5284423828125 35.95111083984375 502.1835021972656 35.95111083984375 502.1835021972656 C 16.0826416015625 502.1835021972656 -0.023956298828125 486.076904296875 -0.023956298828125 466.2084350585938 C -0.023956298828125 466.2084350585938 -0.0854339599609375 387.62890625 -0.0854339599609375 304.7532348632812 C -0.0854339599609375 304.3110961914062 -0.023956298828125 129.7125549316406 -0.023956298828125 129.7125549316406 L -0.023956298828125 35.94656372070312 C -0.023956298828125 16.07803344726562 16.0826416015625 -0.028564453125 35.95111083984375 -0.028564453125 C 35.95111083984375 -0.028564453125 68.72224426269531 0.04461669921875 94.74569702148438 0.04461669921875 C 107.7597961425781 0.04461669921875 119.0827941894531 0.02630615234375 123.7828369140625 -0.028564453125 C 128.4820251464844 -0.08343505859375 139.7972106933594 -0.101715087890625 152.7927856445312 -0.10174560546875 Z" stroke="none" fill="#29339b"/>
    </g>
    <g id="Phone_screen-3" data-name="Phone screen" transform="translate(863.366 232.081)" fill="#fff" opacity="0.6">
      <path d="M 195.7041015625 471.7124938964844 L 23.0238151550293 471.7124938964844 C 20.05022621154785 471.7124938964844 17.16599082946777 471.1303100585938 14.45122623443604 469.9821166992188 C 11.82881450653076 468.8728332519531 9.473402976989746 467.28466796875 7.450461387634277 465.2616577148438 C 5.427579402923584 463.2386474609375 3.8394615650177 460.8832397460938 2.730226278305054 458.2607727050781 C 1.582108616828918 455.5461730957031 0.9999909996986389 452.6620788574219 0.9999909996986389 449.6886596679688 L 0.9999909996986389 345.5910034179688 L 0.9999909996986389 104.9598388671875 L 0.9999909996986389 23.02383613586426 C 0.9999909996986389 20.05036544799805 1.582108616828918 17.16624641418457 2.730226278305054 14.45165824890137 C 3.8394615650177 11.82924652099609 5.427579402923584 9.473834991455078 7.450461387634277 7.450893878936768 C 9.473402976989746 5.427894115447998 11.82881450653076 3.839717626571655 14.45128536224365 2.730423450469971 C 17.16599082946777 1.582246899604797 20.05022621154785 1.000070452690125 23.0238151550293 1.000070452690125 L 48.49107360839844 1.000070452690125 C 48.11554336547852 2.226158142089844 47.92581558227539 3.500681161880493 47.92581558227539 4.805129528045654 L 47.92581558227539 5.987776279449463 C 47.92581558227539 9.460247039794922 49.27816772460938 12.72483539581299 51.73369598388672 15.1800708770752 C 54.18910980224609 17.63530540466309 57.45381546020508 18.98742294311523 60.9264030456543 18.98742294311523 L 158.5215148925781 18.98742294311523 C 161.9941101074219 18.98742294311523 165.2588195800781 17.63530540466309 167.7142333984375 15.1800708770752 C 170.1697540283203 12.72483539581299 171.5221099853516 9.460247039794922 171.5221099853516 5.987776279449463 L 171.5221099853516 4.805129528045654 C 171.5221099853516 3.500681161880493 171.3323822021484 2.226158142089844 170.9568328857422 1.000070452690125 L 195.7041015625 1.000070452690125 C 198.6777496337891 1.000070452690125 201.5619964599609 1.582246899604797 204.2768096923828 2.730423450469971 C 206.8993377685547 3.839717626571655 209.2548217773438 5.427894115447998 211.2778778076172 7.450893878936768 C 213.3009338378906 9.473894119262695 214.88916015625 11.82930564880371 215.9983978271484 14.45171737670898 C 217.1466369628906 17.16624641418457 217.7288208007812 20.05036544799805 217.7288208007812 23.02383613586426 L 217.7288208007812 449.6886596679688 C 217.7288208007812 452.6620788574219 217.1466369628906 455.5461730957031 215.9983978271484 458.2607727050781 C 214.88916015625 460.8832397460938 213.3009338378906 463.2386474609375 211.2778778076172 465.2616577148438 C 209.2548217773438 467.28466796875 206.8993377685547 468.8728332519531 204.2767486572266 469.9821166992188 C 201.5619964599609 471.1303100585938 198.6777496337891 471.7124938964844 195.7041015625 471.7124938964844 Z" stroke="none"/>
      <path d="M 195.7040863037109 470.7124938964844 C 198.5430908203125 470.7124938964844 201.2963409423828 470.1568603515625 203.8872222900391 469.0611267089844 C 206.3905944824219 468.0022583007812 208.6392822265625 466.4859924316406 210.5707702636719 464.5545043945312 C 212.5023345947266 462.623046875 214.0185852050781 460.3744201660156 215.0774078369141 457.8711242675781 C 216.1732177734375 455.2806091308594 216.7288360595703 452.5276184082031 216.7288360595703 449.6886291503906 L 216.7288360595703 23.0238094329834 C 216.7288360595703 20.1848087310791 216.1732177734375 17.43181037902832 215.0774078369141 14.84124660491943 C 214.0186462402344 12.33812236785889 212.5023956298828 10.08949661254883 210.5707702636719 8.157997131347656 C 208.6392211914062 6.226497173309326 206.3905944824219 4.710309505462646 203.8872833251953 3.651434421539307 C 201.2964630126953 2.555684566497803 198.543212890625 2.000059366226196 195.7040863037109 2.000059366226196 L 172.2418518066406 2.000059366226196 C 172.4282379150391 2.916188716888428 172.5220947265625 3.853352308273315 172.5220947265625 4.805121898651123 L 172.5220947265625 5.987746715545654 C 172.5220947265625 9.727372169494629 171.0657196044922 13.2430591583252 168.4212799072266 15.88718414306641 C 165.7770233154297 18.53130912780762 162.2612152099609 19.98743438720703 158.5215301513672 19.98743438720703 L 60.9264030456543 19.98743438720703 C 57.18671417236328 19.98743438720703 53.67090225219727 18.53130912780762 51.02665328979492 15.88724708557129 C 48.3822135925293 13.2430591583252 46.92583847045898 9.727372169494629 46.92583847045898 5.987746715545654 L 46.92583847045898 4.805121898651123 C 46.92583847045898 3.853294610977173 47.01967239379883 2.916289329528809 47.20608520507812 2.000059366226196 L 23.02383995056152 2.000059366226196 C 20.18471527099609 2.000059366226196 17.43152809143066 2.555684566497803 14.84084033966064 3.651434421539307 C 12.33771514892578 4.710247039794922 10.08909034729004 6.226497173309326 8.157589912414551 8.157934188842773 C 6.226215362548828 10.08930969238281 4.710090160369873 12.33793449401855 3.651215314865112 14.84118461608887 C 2.555527687072754 17.43193435668945 1.999965310096741 20.18493461608887 1.999965310096741 23.0238094329834 L 1.999965310096741 104.9598083496094 L 1.999965310096741 345.591064453125 L 1.999965310096741 449.6886291503906 C 1.999965310096741 452.5274963378906 2.555527687072754 455.2804870605469 3.651215314865112 457.8711853027344 C 4.710090160369873 460.3745727539062 6.226277828216553 462.6231994628906 8.157527923583984 464.5545654296875 C 10.08909034729004 466.4860534667969 12.33765316009521 468.0023193359375 14.84077739715576 469.0611267089844 C 17.4316520690918 470.1568603515625 20.18484115600586 470.7124938964844 23.02383995056152 470.7124938964844 L 195.7040863037109 470.7124938964844 M 195.7040863037109 472.7124938964844 L 23.02383995056152 472.7124938964844 C 19.91565322875977 472.7124938964844 16.90034103393555 472.1036987304688 14.0617151260376 470.9031372070312 C 11.32009029388428 469.7434387207031 8.857840538024902 468.083251953125 6.743340492248535 465.96875 C 4.628902912139893 463.854248046875 2.968902826309204 461.3919982910156 1.809215307235718 458.6502990722656 C 0.608715295791626 455.8117980957031 -3.472900425549597e-05 452.7966918945312 -3.472900425549597e-05 449.6886291503906 L -3.472900425549597e-05 345.591064453125 L -3.472900425549597e-05 104.9598083496094 L -3.472900425549597e-05 23.0238094329834 C -3.472900425549597e-05 19.91574668884277 0.608715295791626 16.90062141418457 1.809215307235718 14.0621223449707 C 2.968902826309204 11.3204345703125 4.628965377807617 8.858184814453125 6.743340492248535 6.743746757507324 C 8.857840538024902 4.62930965423584 11.32009029388428 2.969121932983398 14.0617151260376 1.809434413909912 C 16.90034103393555 0.6088094711303711 19.91565322875977 5.944824079051614e-05 23.02383995056152 5.944824079051614e-05 L 49.92658996582031 5.944824079051614e-05 C 49.26284027099609 1.517246961593628 48.92583847045898 3.133371829986572 48.92583847045898 4.805121898651123 L 48.92583847045898 5.987746715545654 C 48.92583847045898 9.193121910095215 50.17409133911133 12.20649719238281 52.44077682495117 14.47293472290039 C 54.70734024047852 16.73930931091309 57.72090148925781 17.98743438720703 60.9264030456543 17.98743438720703 L 158.5215301513672 17.98743438720703 C 161.7269592285156 17.98743438720703 164.7405853271484 16.73930931091309 167.0071563720703 14.47293472290039 C 169.2738342285156 12.20649719238281 170.5220947265625 9.193121910095215 170.5220947265625 5.987746715545654 L 170.5220947265625 4.805121898651123 C 170.5220947265625 3.134621858596802 170.1854095458984 1.517934441566467 169.5212707519531 5.944824079051614e-05 L 195.7040863037109 5.944824079051614e-05 C 198.8123474121094 5.944824079051614e-05 201.8276519775391 0.6088094711303711 204.6663360595703 1.809434413909912 C 207.4080963134766 2.969121932983398 209.8704681396484 4.62930965423584 211.9849700927734 6.743746757507324 C 214.0996551513672 8.858371734619141 215.7597808837891 11.32055950164795 216.9194030761719 14.0621223449707 C 218.1200866699219 16.90062141418457 218.7288360595703 19.91574668884277 218.7288360595703 23.0238094329834 L 218.7288360595703 449.6886291503906 C 218.7288360595703 452.7966918945312 218.1200866699219 455.8117980957031 216.9194030761719 458.6502990722656 C 215.7597808837891 461.3919372558594 214.0995941162109 463.854248046875 211.9849700927734 465.96875 C 209.8704681396484 468.083251953125 207.4080963134766 469.7434387207031 204.6663360595703 470.9031372070312 C 201.8276519775391 472.1036987304688 198.8123474121094 472.7124938964844 195.7040863037109 472.7124938964844 Z" stroke="none" fill="#29339b"/>
    </g>
    <g id="Header_icon-3" data-name="Header icon" transform="translate(953.554 235.342)">
      <path id="Line-5" data-name="Line" d="M1.086,74.414c.3.165,11.685.215,17.828.042,5.407-.153,10.814-.589,16.234-.635.326,0,2.223,0,2.562,0,.378.1.93-.426.93-.871s-.737-.811-1.392-.779c-5.333-.033-10.589.233-15.956.271-5.739.235-18.033.05-18.033.05l-2.23-.132s-.906.1-.927.942S.787,74.249,1.086,74.414Z" transform="translate(-0.102 -69.92)" fill="#29339b"/>
      <ellipse id="Ellipse_335-3" data-name="Ellipse 335" cx="3" cy="2.5" rx="3" ry="2.5" transform="translate(41.446 -0.342)" fill="#29339b"/>
    </g>
    <path id="Line-6" data-name="Line" d="M2.081,74.477c.769.17,30.106.221,45.935.043,13.931-.157,27.863-.605,41.828-.653.841,0,5.728,0,6.6,0,.973.1.815-.588.816-1.046s-.319-.683-2.006-.65c-13.74-.034-27.283.24-41.111.278-14.787.242-46.464.052-46.464.052l-5.747-.136s-1.124.115-1.177.977S1.312,74.307,2.081,74.477Z" transform="translate(923.411 617.269)" fill="#29339b" stroke="#29339b" stroke-width="1"/>
    <g id="Group_2557" data-name="Group 2557" transform="translate(0 7)">
      <g id="Group_2556" data-name="Group 2556" transform="translate(-383 3)">
        <g id="Battery" transform="translate(1101 226)">
          <g id="Border" clip-path="url(#clip-path)">
            <path id="Fill" d="M2.667,0H19.333A2.667,2.667,0,0,1,22,2.667v6h0a2.667,2.667,0,0,1-2.667,2.667H2.667A2.667,2.667,0,0,1,0,8.667v-6H0A2.667,2.667,0,0,1,2.667,0Z" transform="translate(336 17.333)" fill="none" stroke="rgba(21,131,216,0.5)" stroke-width="2"/>
          </g>
          <g id="Cap" clip-path="url(#clip-path-2)">
            <path id="Fill-2" data-name="Fill" d="M354-28h11.328v14H354Z" transform="translate(0 44)" fill="#29339b"/>
          </g>
          <g id="Capacity" clip-path="url(#clip-path-3)">
            <path id="Fill-3" data-name="Fill" d="M333-29.667h28v17.333H333Z" transform="translate(0 44)" fill="#29339b"/>
          </g>
        </g>
        <g id="Wifi" transform="translate(1101 226)">
          <g id="Wifi-2" data-name="Wifi" clip-path="url(#clip-path-4)">
            <path id="Fill-4" data-name="Fill" d="M310.694-31.669h25.272V-10.7H310.694Z" transform="translate(0 44)" fill="#29339b"/>
          </g>
        </g>
        <g id="Cellular_Connection" data-name="Cellular Connection" transform="translate(1101 226)">
          <g id="Cellular_Connection-2" data-name="Cellular Connection" clip-path="url(#clip-path-5)">
            <path id="Fill-5" data-name="Fill" d="M288.667-31.333h27v20.667h-27Z" transform="translate(0 44)" fill="#29339b"/>
          </g>
        </g>
      </g>
      <g id="Bars___Time_Black" data-name="Bars/_/Time Black" transform="translate(838 228)">
        <path id="Background" d="M21-19H75V-35H21Z" transform="translate(8 50)" fill="none"/>
        <text id="_10:20" data-name="10:20" transform="translate(33 29)" fill="#29339b" font-size="14" font-family="TektonPro-Bold, Tekton Pro" font-weight="700"><tspan x="0" y="0">10:20</tspan></text>
      </g>
    </g>
    <g id="Group_2558" data-name="Group 2558" transform="translate(-324 7)">
      <g id="Group_2556-2" data-name="Group 2556" transform="translate(-383 3)">
        <g id="Battery-2" data-name="Battery" transform="translate(1101 226)">
          <g id="Border-2" data-name="Border" clip-path="url(#clip-path)">
            <path id="Fill-6" data-name="Fill" d="M2.667,0H19.333A2.667,2.667,0,0,1,22,2.667v6h0a2.667,2.667,0,0,1-2.667,2.667H2.667A2.667,2.667,0,0,1,0,8.667v-6H0A2.667,2.667,0,0,1,2.667,0Z" transform="translate(336 17.333)" fill="none" stroke="rgba(21,131,216,0.5)" stroke-width="2"/>
          </g>
          <g id="Cap-2" data-name="Cap" clip-path="url(#clip-path-2)">
            <path id="Fill-7" data-name="Fill" d="M354-28h11.328v14H354Z" transform="translate(0 44)" fill="#29339b"/>
          </g>
          <g id="Capacity-2" data-name="Capacity" clip-path="url(#clip-path-3)">
            <path id="Fill-8" data-name="Fill" d="M333-29.667h28v17.333H333Z" transform="translate(0 44)" fill="#29339b"/>
          </g>
        </g>
        <g id="Wifi-3" data-name="Wifi" transform="translate(1101 226)">
          <g id="Wifi-4" data-name="Wifi" clip-path="url(#clip-path-4)">
            <path id="Fill-9" data-name="Fill" d="M310.694-31.669h25.272V-10.7H310.694Z" transform="translate(0 44)" fill="#29339b"/>
          </g>
        </g>
        <g id="Cellular_Connection-3" data-name="Cellular Connection" transform="translate(1101 226)">
          <g id="Cellular_Connection-4" data-name="Cellular Connection" clip-path="url(#clip-path-5)">
            <path id="Fill-10" data-name="Fill" d="M288.667-31.333h27v20.667h-27Z" transform="translate(0 44)" fill="#29339b"/>
          </g>
        </g>
      </g>
      <g id="Bars___Time_Black-2" data-name="Bars/_/Time Black" transform="translate(838 228)">
        <path id="Background-2" data-name="Background" d="M21-19H75V-35H21Z" transform="translate(8 50)" fill="none"/>
        <text id="_10:20-2" data-name="10:20" transform="translate(33 29)" fill="#29339b" font-size="14" font-family="TektonPro-Bold, Tekton Pro" font-weight="700"><tspan x="0" y="0">10:20</tspan></text>
      </g>
    </g>
    <g id="Group_2559" data-name="Group 2559" transform="translate(-648 7)">
      <g id="Group_2556-3" data-name="Group 2556" transform="translate(-383 3)">
        <g id="Battery-3" data-name="Battery" transform="translate(1101 226)">
          <g id="Border-3" data-name="Border" clip-path="url(#clip-path)">
            <path id="Fill-11" data-name="Fill" d="M2.667,0H19.333A2.667,2.667,0,0,1,22,2.667v6h0a2.667,2.667,0,0,1-2.667,2.667H2.667A2.667,2.667,0,0,1,0,8.667v-6H0A2.667,2.667,0,0,1,2.667,0Z" transform="translate(336 17.333)" fill="none" stroke="rgba(21,131,216,0.5)" stroke-width="2"/>
          </g>
          <g id="Cap-3" data-name="Cap" clip-path="url(#clip-path-2)">
            <path id="Fill-12" data-name="Fill" d="M354-28h11.328v14H354Z" transform="translate(0 44)" fill="#29339b"/>
          </g>
          <g id="Capacity-3" data-name="Capacity" clip-path="url(#clip-path-3)">
            <path id="Fill-13" data-name="Fill" d="M333-29.667h28v17.333H333Z" transform="translate(0 44)" fill="#29339b"/>
          </g>
        </g>
        <g id="Wifi-5" data-name="Wifi" transform="translate(1101 226)">
          <g id="Wifi-6" data-name="Wifi" clip-path="url(#clip-path-4)">
            <path id="Fill-14" data-name="Fill" d="M310.694-31.669h25.272V-10.7H310.694Z" transform="translate(0 44)" fill="#29339b"/>
          </g>
        </g>
        <g id="Cellular_Connection-5" data-name="Cellular Connection" transform="translate(1101 226)">
          <g id="Cellular_Connection-6" data-name="Cellular Connection" clip-path="url(#clip-path-5)">
            <path id="Fill-15" data-name="Fill" d="M288.667-31.333h27v20.667h-27Z" transform="translate(0 44)" fill="#29339b"/>
          </g>
        </g>
      </g>
      <g id="Bars___Time_Black-3" data-name="Bars/_/Time Black" transform="translate(838 228)">
        <path id="Background-3" data-name="Background" d="M21-19H75V-35H21Z" transform="translate(8 50)" fill="none"/>
        <text id="_10:20-3" data-name="10:20" transform="translate(33 29)" fill="#29339b" font-size="14" font-family="TektonPro-Bold, Tekton Pro" font-weight="700"><tspan x="0" y="0">10:20</tspan></text>
      </g>
    </g>
    <g id="Group_2561" data-name="Group 2561" transform="translate(0 7)">
      <g id="Buttons_Pill_Button_Large" data-name="Buttons / Pill Button / Large" transform="translate(266.491 623.682)">
        <path id="Pill_Button" data-name="Pill Button" d="M59.166,40.945c10.511.214,21.019.038,31.53.005,8.125-.028,17-2.376,22.795-8.427,5.909-6.171,6.38-16.784,1.648-23.794C110,1.1,99.116.24,90.762.105c-4.647-.076-9.3-.158-13.945.005-4.235.15-8.461.4-12.7.371C58.784.451,53.452.55,48.123.355,43.277.176,38.439-.037,33.586.026,24.8.136,14.973-.335,7.3,4.7.1,9.426-1.684,19.942,1.549,27.55,4.849,35.319,13.92,39.381,21.8,40.6c4.716.733,9.631.359,14.388.4,4.861.043,9.722.089,14.583.056q4.2-.027,8.392-.114a.764.764,0,0,0,0-1.526c-9.816.2-19.625.064-29.442.013A41.414,41.414,0,0,1,17.69,38.1,27.773,27.773,0,0,1,6.736,32.243C.489,26.476-.2,15.77,4.872,8.983,7.509,5.452,12,3.692,16.166,2.748a61.033,61.033,0,0,1,12.948-1.14c4.548-.043,9.086-.112,13.632.053,4.329.155,8.656.371,12.991.341,4.958-.036,9.921.081,14.878-.109,4.045-.155,8.082-.369,12.131-.364,8.575.015,18.292-.6,26.066,3.62a14.65,14.65,0,0,1,7.311,9.529,19.021,19.021,0,0,1-.949,12.749c-3.442,7.311-12.63,11.055-20.241,11.859-2.172.229-4.373.132-6.553.145q-3.7.019-7.395.056c-4.609.041-9.221.076-13.83.043q-3.995-.031-7.987-.114A.765.765,0,0,0,59.166,40.945Z" transform="translate(0 -0.015)" fill="#29339b"/>
        <text id="Next" transform="translate(60.509 24.318)" fill="#29339b" font-size="13" font-family="TektonPro-Bold, Tekton Pro" font-weight="700"><tspan x="-12.922" y="0">Next</tspan></text>
      </g>
      <g id="Group_4" data-name="Group 4" transform="translate(222.764 314.009)">
        <text id="Card_Number" data-name="Card Number" transform="translate(0.236 7.991)" fill="#29339b" font-size="12" font-family="TektonPro-Bold, Tekton Pro" font-weight="700"><tspan x="0" y="0">Card Number</tspan></text>
        <path id="Base_Box" data-name="Base Box" d="M5.669,24.492c-1.086-.012-2.819.01-3.494-1.215a7.636,7.636,0,0,1-.439-3.237c-.091-3.4-.219-6.8-.327-10.2C1.357,8.177,1.2,6.464,1.3,4.8c.148-2.3,1.5-2.826,3.22-2.943,3.327-.224,6.668-.311,10-.351,2.081-.025,4.165-.015,6.246-.015q13.914,0,27.828.01,20.341.011,40.681.035c12.591.015,76.174.035,88.765.077,6.368.02,12.736.11,19.1.134a1.926,1.926,0,0,1,.209.01l.057,0c-.293-.035-.129-.045.135.047a2.928,2.928,0,0,1,1.293.67c1.054,1.138.643,3.912.658,5.428q.028,3.22.025,6.439,0,2.973-.038,5.944c-.011.926.188,2.413-.348,3.18a2.4,2.4,0,0,1-1.573.759c.312-.06-.238.012-.363.02-2.244.134-4.5.12-6.744.149-10.111.132-71.215.159-81.326.194q-20.673.071-41.347.072-19.31.007-38.62-.03c-7.385-.017-14.771,0-22.156-.112-.443,0-.9.007-1.341-.035v1.494h0c.814,0,.814-1.494,0-1.494h0c-.824,0-.8,1.419,0,1.494,1.628.152,3.3.062,4.928.075q5.909.045,11.817.057,8.49.026,16.979.037,10.125.015,20.248.012,10.78,0,21.559-.012,10.621-.011,21.241-.04,9.483-.026,18.968-.072c4.928-.025,60.846-.055,65.774-.1,2.967-.03,5.934-.052,8.9-.142a15.021,15.021,0,0,0,1.638-.087,3.587,3.587,0,0,0,2.216-1.061c.985-1.108.806-2.888.822-4.35q.07-6.316.008-12.632c-.015-1.611.2-3.556-.342-5.08A3.551,3.551,0,0,0,197.89.376a3.885,3.885,0,0,0-.784-.12c-.78-.045-1.565-.032-2.345-.04-3.433-.04-6.866-.052-10.3-.067C179.076.127,122.7.11,117.311.1Q107.379.075,97.449.06,86.78.045,76.114.032,65.66.021,55.208.015,46.083.007,36.958,0L23.538,0H16.929q-6,0-11.988.341A5.613,5.613,0,0,0,1.4,1.327,4.7,4.7,0,0,0,.053,4.619,48.448,48.448,0,0,0,.144,9.838q.079,2.521.164,5.042A50.448,50.448,0,0,0,.7,22.831c.538,2.712,2.942,3.13,4.966,3.155C6.483,26,6.483,24.5,5.669,24.492Z" transform="translate(-0.004 18.638)" fill="#29339b"/>
      </g>
      <g id="Group_3" data-name="Group 3" transform="translate(222.764 388.56)">
        <text id="Confirm_Card_Number" data-name="Confirm Card Number" transform="translate(0.236 8.44)" fill="#29339b" font-size="12" font-family="TektonPro-Bold, Tekton Pro" font-weight="700"><tspan x="0" y="0">Confirm Card Number</tspan></text>
        <path id="Base_Box-2" data-name="Base Box" d="M5.669,24.492c-1.086-.012-2.819.01-3.494-1.215a7.636,7.636,0,0,1-.439-3.237c-.091-3.4-.219-6.8-.327-10.2C1.357,8.177,1.2,6.464,1.3,4.8c.148-2.3,1.5-2.826,3.22-2.943,3.327-.224,6.668-.311,10-.351,2.081-.025,4.165-.015,6.246-.015q13.914,0,27.828.01,20.341.011,40.681.035c12.591.015,76.174.035,88.765.077,6.368.02,12.736.11,19.1.134a1.926,1.926,0,0,1,.209.01l.057,0c-.293-.035-.129-.045.135.047a2.928,2.928,0,0,1,1.293.67c1.054,1.138.643,3.912.658,5.428q.028,3.22.025,6.439,0,2.973-.038,5.944c-.011.926.188,2.413-.348,3.18a2.4,2.4,0,0,1-1.573.759c.312-.06-.238.012-.363.02-2.244.134-4.5.12-6.744.149-10.111.132-71.215.159-81.326.194q-20.673.071-41.347.072-19.31.007-38.62-.03c-7.385-.017-14.771,0-22.156-.112-.443,0-.9.007-1.341-.035v1.494h0c.814,0,.814-1.494,0-1.494h0c-.824,0-.8,1.419,0,1.494,1.628.152,3.3.062,4.928.075q5.909.045,11.817.057,8.49.026,16.979.037,10.125.015,20.248.012,10.78,0,21.559-.012,10.621-.011,21.241-.04,9.483-.026,18.968-.072c4.928-.025,60.846-.055,65.774-.1,2.967-.03,5.934-.052,8.9-.142a15.021,15.021,0,0,0,1.638-.087,3.587,3.587,0,0,0,2.216-1.061c.985-1.108.806-2.888.822-4.35q.07-6.316.008-12.632c-.015-1.611.2-3.556-.342-5.08A3.551,3.551,0,0,0,197.89.376a3.885,3.885,0,0,0-.784-.12c-.78-.045-1.565-.032-2.345-.04-3.433-.04-6.866-.052-10.3-.067C179.076.127,122.7.11,117.311.1Q107.379.075,97.449.06,86.78.045,76.114.032,65.66.021,55.208.015,46.083.007,36.958,0L23.538,0H16.929q-6,0-11.988.341A5.613,5.613,0,0,0,1.4,1.327,4.7,4.7,0,0,0,.053,4.619,48.448,48.448,0,0,0,.144,9.838q.079,2.521.164,5.042A50.448,50.448,0,0,0,.7,22.831c.538,2.712,2.942,3.13,4.966,3.155C6.483,26,6.483,24.5,5.669,24.492Z" transform="translate(-0.004 18.638)" fill="#29339b"/>
      </g>
      <g id="Group_2" data-name="Group 2" transform="translate(222.764 537.662)">
        <text id="CVV" transform="translate(0.236 9.339)" fill="#29339b" font-size="13" font-family="TektonPro-Bold, Tekton Pro" font-weight="700"><tspan x="0" y="0">CVV</tspan></text>
        <path id="Base_Box-3" data-name="Base Box" d="M5.669,24.492c-1.086-.012-2.819.01-3.494-1.215a7.636,7.636,0,0,1-.439-3.237c-.091-3.4-.219-6.8-.327-10.2C1.357,8.177,1.2,6.464,1.3,4.8c.148-2.3,1.5-2.826,3.22-2.943,3.327-.224,6.668-.311,10-.351,2.081-.025,4.165-.015,6.246-.015q13.914,0,27.828.01,20.341.011,40.681.035c12.591.015,76.174.035,88.765.077,6.368.02,12.736.11,19.1.134a1.926,1.926,0,0,1,.209.01l.057,0c-.293-.035-.129-.045.135.047a2.928,2.928,0,0,1,1.293.67c1.054,1.138.643,3.912.658,5.428q.028,3.22.025,6.439,0,2.973-.038,5.944c-.011.926.188,2.413-.348,3.18a2.4,2.4,0,0,1-1.573.759c.312-.06-.238.012-.363.02-2.244.134-4.5.12-6.744.149-10.111.132-71.215.159-81.326.194q-20.673.071-41.347.072-19.31.007-38.62-.03c-7.385-.017-14.771,0-22.156-.112-.443,0-.9.007-1.341-.035v1.494h0c.814,0,.814-1.494,0-1.494h0c-.824,0-.8,1.419,0,1.494,1.628.152,3.3.062,4.928.075q5.909.045,11.817.057,8.49.026,16.979.037,10.125.015,20.248.012,10.78,0,21.559-.012,10.621-.011,21.241-.04,9.483-.026,18.968-.072c4.928-.025,60.846-.055,65.774-.1,2.967-.03,5.934-.052,8.9-.142a15.021,15.021,0,0,0,1.638-.087,3.587,3.587,0,0,0,2.216-1.061c.985-1.108.806-2.888.822-4.35q.07-6.316.008-12.632c-.015-1.611.2-3.556-.342-5.08A3.551,3.551,0,0,0,197.89.376a3.885,3.885,0,0,0-.784-.12c-.78-.045-1.565-.032-2.345-.04-3.433-.04-6.866-.052-10.3-.067C179.076.127,122.7.11,117.311.1Q107.379.075,97.449.06,86.78.045,76.114.032,65.66.021,55.208.015,46.083.007,36.958,0L23.538,0H16.929q-6,0-11.988.341A5.613,5.613,0,0,0,1.4,1.327,4.7,4.7,0,0,0,.053,4.619,48.448,48.448,0,0,0,.144,9.838q.079,2.521.164,5.042A50.448,50.448,0,0,0,.7,22.831c.538,2.712,2.942,3.13,4.966,3.155C6.483,26,6.483,24.5,5.669,24.492Z" transform="translate(-0.004 18.638)" fill="#29339b"/>
      </g>
      <g id="Group_2560" data-name="Group 2560">
        <text id="Card_Expiration" data-name="Card Expiration" transform="translate(223 471)" fill="#29339b" font-size="12" font-family="TektonPro-Bold, Tekton Pro" font-weight="700"><tspan x="0" y="0">Card Expiration</tspan></text>
        <path id="Base_Box-4" data-name="Base Box" d="M5.669,24.492c-1.086-.012-2.819.01-3.494-1.215a7.636,7.636,0,0,1-.439-3.237c-.091-3.4-.219-6.8-.327-10.2C1.357,8.177,1.2,6.464,1.3,4.8c.148-2.3,1.5-2.826,3.22-2.943,3.327-.224,6.668-.311,10-.351,2.081-.025,4.165-.015,6.246-.015q13.914,0,27.828.01,20.341.011,40.681.035c12.591.015,76.174.035,88.765.077,6.368.02,12.736.11,19.1.134a1.926,1.926,0,0,1,.209.01l.057,0c-.293-.035-.129-.045.135.047a2.928,2.928,0,0,1,1.293.67c1.054,1.138.643,3.912.658,5.428q.028,3.22.025,6.439,0,2.973-.038,5.944c-.011.926.188,2.413-.348,3.18a2.4,2.4,0,0,1-1.573.759c.312-.06-.238.012-.363.02-2.244.134-4.5.12-6.744.149-10.111.132-71.215.159-81.326.194q-20.673.071-41.347.072-19.31.007-38.62-.03c-7.385-.017-14.771,0-22.156-.112-.443,0-.9.007-1.341-.035v1.494h0c.814,0,.814-1.494,0-1.494h0c-.824,0-.8,1.419,0,1.494,1.628.152,3.3.062,4.928.075q5.909.045,11.817.057,8.49.026,16.979.037,10.125.015,20.248.012,10.78,0,21.559-.012,10.621-.011,21.241-.04,9.483-.026,18.968-.072c4.928-.025,60.846-.055,65.774-.1,2.967-.03,5.934-.052,8.9-.142a15.021,15.021,0,0,0,1.638-.087,3.587,3.587,0,0,0,2.216-1.061c.985-1.108.806-2.888.822-4.35q.07-6.316.008-12.632c-.015-1.611.2-3.556-.342-5.08A3.551,3.551,0,0,0,197.89.376a3.885,3.885,0,0,0-.784-.12c-.78-.045-1.565-.032-2.345-.04-3.433-.04-6.866-.052-10.3-.067C179.076.127,122.7.11,117.311.1Q107.379.075,97.449.06,86.78.045,76.114.032,65.66.021,55.208.015,46.083.007,36.958,0L23.538,0H16.929q-6,0-11.988.341A5.613,5.613,0,0,0,1.4,1.327,4.7,4.7,0,0,0,.053,4.619,48.448,48.448,0,0,0,.144,9.838q.079,2.521.164,5.042A50.448,50.448,0,0,0,.7,22.831c.538,2.712,2.942,3.13,4.966,3.155C6.483,26,6.483,24.5,5.669,24.492Z" transform="translate(222.761 481.749)" fill="#29339b"/>
        <text id="MM_YY" data-name="MM/YY" transform="translate(236 490)" fill="#29339b" font-size="14" font-family="TektonPro-Bold, Tekton Pro" font-weight="700"><tspan x="0" y="10">MM/YY</tspan></text>
      </g>
    </g>
    <g id="Group_2562" data-name="Group 2562" transform="translate(0 7)">
      <g id="Buttons_Pill_Button_Large-2" data-name="Buttons / Pill Button / Large" transform="translate(590.491 633)">
        <path id="Pill_Button-2" data-name="Pill Button" d="M59.166,40.945c10.511.214,21.019.038,31.53.005,8.125-.028,17-2.376,22.795-8.427,5.909-6.171,6.38-16.784,1.648-23.794C110,1.1,99.116.24,90.762.105c-4.647-.076-9.3-.158-13.945.005-4.235.15-8.461.4-12.7.371C58.784.451,53.452.55,48.123.355,43.277.176,38.439-.037,33.586.026,24.8.136,14.973-.335,7.3,4.7.1,9.426-1.684,19.942,1.549,27.55,4.849,35.319,13.92,39.381,21.8,40.6c4.716.733,9.631.359,14.388.4,4.861.043,9.722.089,14.583.056q4.2-.027,8.392-.114a.764.764,0,0,0,0-1.526c-9.816.2-19.625.064-29.442.013A41.414,41.414,0,0,1,17.69,38.1,27.773,27.773,0,0,1,6.736,32.243C.489,26.476-.2,15.77,4.872,8.983,7.509,5.452,12,3.692,16.166,2.748a61.033,61.033,0,0,1,12.948-1.14c4.548-.043,9.086-.112,13.632.053,4.329.155,8.656.371,12.991.341,4.958-.036,9.921.081,14.878-.109,4.045-.155,8.082-.369,12.131-.364,8.575.015,18.292-.6,26.066,3.62a14.65,14.65,0,0,1,7.311,9.529,19.021,19.021,0,0,1-.949,12.749c-3.442,7.311-12.63,11.055-20.241,11.859-2.172.229-4.373.132-6.553.145q-3.7.019-7.395.056c-4.609.041-9.221.076-13.83.043q-3.995-.031-7.987-.114A.765.765,0,0,0,59.166,40.945Z" transform="translate(0 -0.015)" fill="#29339b"/>
        <text id="Next-2" data-name="Next" transform="translate(59.509 24)" fill="#29339b" font-size="12" font-family="TektonPro-Bold, Tekton Pro" font-weight="700"><tspan x="-11.928" y="0">Next</tspan></text>
      </g>
      <g id="Group_4-2" data-name="Group 4" transform="translate(546.764 295.604)">
        <text id="Name_on_Card" data-name="Name on Card" transform="translate(0.236 8.396)" fill="#29339b" font-size="12" font-family="TektonPro-Bold, Tekton Pro" font-weight="700"><tspan x="0" y="0">Name on Card</tspan></text>
        <path id="Base_Box-5" data-name="Base Box" d="M5.669,24.492c-1.086-.012-2.819.01-3.494-1.215a7.636,7.636,0,0,1-.439-3.237c-.091-3.4-.219-6.8-.327-10.2C1.357,8.177,1.2,6.464,1.3,4.8c.148-2.3,1.5-2.826,3.22-2.943,3.327-.224,6.668-.311,10-.351,2.081-.025,4.165-.015,6.246-.015q13.914,0,27.828.01,20.341.011,40.681.035c12.591.015,76.174.035,88.765.077,6.368.02,12.736.11,19.1.134a1.927,1.927,0,0,1,.209.01l.057,0c-.293-.035-.129-.045.135.047a2.928,2.928,0,0,1,1.293.67c1.054,1.138.643,3.912.658,5.428q.028,3.22.025,6.439,0,2.973-.038,5.944c-.011.926.188,2.413-.348,3.18a2.4,2.4,0,0,1-1.573.759c.312-.06-.238.012-.363.02-2.244.134-4.5.12-6.744.149-10.111.132-71.215.159-81.326.194q-20.673.071-41.347.072-19.31.007-38.62-.03c-7.385-.017-14.771,0-22.156-.112-.443,0-.9.007-1.341-.035v1.494h0c.814,0,.814-1.494,0-1.494h0c-.824,0-.8,1.419,0,1.494,1.628.152,3.3.062,4.928.075q5.909.045,11.817.057,8.49.026,16.979.037,10.125.015,20.248.012,10.78,0,21.559-.012,10.621-.011,21.241-.04,9.483-.026,18.968-.072c4.928-.025,60.846-.055,65.774-.1,2.967-.03,5.934-.052,8.9-.142a15.021,15.021,0,0,0,1.638-.087,3.587,3.587,0,0,0,2.216-1.061c.985-1.108.806-2.888.822-4.35q.07-6.316.008-12.632c-.015-1.611.2-3.556-.342-5.08A3.551,3.551,0,0,0,197.89.376a3.885,3.885,0,0,0-.784-.12c-.78-.045-1.565-.032-2.345-.04-3.433-.04-6.866-.052-10.3-.067C179.076.127,122.7.11,117.311.1Q107.379.075,97.449.06,86.78.045,76.114.032,65.66.021,55.208.015,46.083.007,36.958,0L23.538,0H16.929q-6,0-11.988.341A5.613,5.613,0,0,0,1.4,1.327,4.7,4.7,0,0,0,.053,4.619,48.448,48.448,0,0,0,.144,9.838q.079,2.521.164,5.042A50.448,50.448,0,0,0,.7,22.831c.538,2.712,2.942,3.13,4.966,3.155C6.483,26,6.483,24.5,5.669,24.492Z" transform="translate(-0.004 19.122)" fill="#29339b"/>
      </g>
      <g id="Group_3-2" data-name="Group 3" transform="translate(546.764 360.377)">
        <text id="Address_Line_1" data-name="Address Line 1" transform="translate(0.236 7.623)" fill="#29339b" font-size="12" font-family="TektonPro-Bold, Tekton Pro" font-weight="700"><tspan x="0" y="0">Address Line 1</tspan></text>
        <path id="Base_Box-6" data-name="Base Box" d="M5.669,24.492c-1.086-.012-2.819.01-3.494-1.215a7.636,7.636,0,0,1-.439-3.237c-.091-3.4-.219-6.8-.327-10.2C1.357,8.177,1.2,6.464,1.3,4.8c.148-2.3,1.5-2.826,3.22-2.943,3.327-.224,6.668-.311,10-.351,2.081-.025,4.165-.015,6.246-.015q13.914,0,27.828.01,20.341.011,40.681.035c12.591.015,76.174.035,88.765.077,6.368.02,12.736.11,19.1.134a1.927,1.927,0,0,1,.209.01l.057,0c-.293-.035-.129-.045.135.047a2.928,2.928,0,0,1,1.293.67c1.054,1.138.643,3.912.658,5.428q.028,3.22.025,6.439,0,2.973-.038,5.944c-.011.926.188,2.413-.348,3.18a2.4,2.4,0,0,1-1.573.759c.312-.06-.238.012-.363.02-2.244.134-4.5.12-6.744.149-10.111.132-71.215.159-81.326.194q-20.673.071-41.347.072-19.31.007-38.62-.03c-7.385-.017-14.771,0-22.156-.112-.443,0-.9.007-1.341-.035v1.494h0c.814,0,.814-1.494,0-1.494h0c-.824,0-.8,1.419,0,1.494,1.628.152,3.3.062,4.928.075q5.909.045,11.817.057,8.49.026,16.979.037,10.125.015,20.248.012,10.78,0,21.559-.012,10.621-.011,21.241-.04,9.483-.026,18.968-.072c4.928-.025,60.846-.055,65.774-.1,2.967-.03,5.934-.052,8.9-.142a15.021,15.021,0,0,0,1.638-.087,3.587,3.587,0,0,0,2.216-1.061c.985-1.108.806-2.888.822-4.35q.07-6.316.008-12.632c-.015-1.611.2-3.556-.342-5.08A3.551,3.551,0,0,0,197.89.376a3.885,3.885,0,0,0-.784-.12c-.78-.045-1.565-.032-2.345-.04-3.433-.04-6.866-.052-10.3-.067C179.076.127,122.7.11,117.311.1Q107.379.075,97.449.06,86.78.045,76.114.032,65.66.021,55.208.015,46.083.007,36.958,0L23.538,0H16.929q-6,0-11.988.341A5.613,5.613,0,0,0,1.4,1.327,4.7,4.7,0,0,0,.053,4.619,48.448,48.448,0,0,0,.144,9.838q.079,2.521.164,5.042A50.448,50.448,0,0,0,.7,22.831c.538,2.712,2.942,3.13,4.966,3.155C6.483,26,6.483,24.5,5.669,24.492Z" transform="translate(-0.004 18.147)" fill="#29339b"/>
      </g>
      <g id="Group_2-2" data-name="Group 2" transform="translate(546.764 487.692)">
        <text id="City" transform="translate(0.236 9.308)" fill="#29339b" font-size="13" font-family="TektonPro-Bold, Tekton Pro" font-weight="700"><tspan x="0" y="0">City</tspan></text>
        <path id="Base_Box-7" data-name="Base Box" d="M5.669,24.492c-1.086-.012-2.819.01-3.494-1.215a7.636,7.636,0,0,1-.439-3.237c-.091-3.4-.219-6.8-.327-10.2C1.357,8.177,1.2,6.464,1.3,4.8c.148-2.3,1.5-2.826,3.22-2.943,3.327-.224,6.668-.311,10-.351,2.081-.025,4.165-.015,6.246-.015q13.914,0,27.828.01,20.341.011,40.681.035c12.591.015,76.174.035,88.765.077,6.368.02,12.736.11,19.1.134a1.927,1.927,0,0,1,.209.01l.057,0c-.293-.035-.129-.045.135.047a2.928,2.928,0,0,1,1.293.67c1.054,1.138.643,3.912.658,5.428q.028,3.22.025,6.439,0,2.973-.038,5.944c-.011.926.188,2.413-.348,3.18a2.4,2.4,0,0,1-1.573.759c.312-.06-.238.012-.363.02-2.244.134-4.5.12-6.744.149-10.111.132-71.215.159-81.326.194q-20.673.071-41.347.072-19.31.007-38.62-.03c-7.385-.017-14.771,0-22.156-.112-.443,0-.9.007-1.341-.035v1.494h0c.814,0,.814-1.494,0-1.494h0c-.824,0-.8,1.419,0,1.494,1.628.152,3.3.062,4.928.075q5.909.045,11.817.057,8.49.026,16.979.037,10.125.015,20.248.012,10.78,0,21.559-.012,10.621-.011,21.241-.04,9.483-.026,18.968-.072c4.928-.025,60.846-.055,65.774-.1,2.967-.03,5.934-.052,8.9-.142a15.021,15.021,0,0,0,1.638-.087,3.587,3.587,0,0,0,2.216-1.061c.985-1.108.806-2.888.822-4.35q.07-6.316.008-12.632c-.015-1.611.2-3.556-.342-5.08A3.551,3.551,0,0,0,197.89.376a3.885,3.885,0,0,0-.784-.12c-.78-.045-1.565-.032-2.345-.04-3.433-.04-6.866-.052-10.3-.067C179.076.127,122.7.11,117.311.1Q107.379.075,97.449.06,86.78.045,76.114.032,65.66.021,55.208.015,46.083.007,36.958,0L23.538,0H16.929q-6,0-11.988.341A5.613,5.613,0,0,0,1.4,1.327,4.7,4.7,0,0,0,.053,4.619,48.448,48.448,0,0,0,.144,9.838q.079,2.521.164,5.042A50.448,50.448,0,0,0,.7,22.831c.538,2.712,2.942,3.13,4.966,3.155C6.483,26,6.483,24.5,5.669,24.492Z" transform="translate(-0.004 18.429)" fill="#29339b"/>
      </g>
      <g id="Group_6" data-name="Group 6" transform="translate(546.764 551.349)">
        <text id="State" transform="translate(0.236 7.651)" fill="#29339b" font-size="12" font-family="TektonPro-Bold, Tekton Pro" font-weight="700"><tspan x="0" y="0">State</tspan></text>
        <path id="Base_Box-8" data-name="Base Box" d="M2.16,24.492c-.413-.012-1.073.01-1.33-1.215A19.4,19.4,0,0,1,.663,20.04c-.035-3.4-.083-6.8-.124-10.2C.519,8.177.458,6.464.5,4.8c.056-2.3.57-2.826,1.225-2.943A26.545,26.545,0,0,1,5.53,1.509c.792-.025,1.585-.015,2.377-.015q5.3,0,10.59.01,7.741.011,15.482.035c4.792.015,28.989.035,33.781.077,2.424.02,4.847.11,7.27.134a.286.286,0,0,1,.079.01l.022,0c-.112-.035-.049-.045.051.047a1.41,1.41,0,0,1,.492.67c.4,1.138.245,3.912.25,5.428q.011,3.22.01,6.439,0,2.973-.014,5.944a16.384,16.384,0,0,1-.132,3.18,1.045,1.045,0,0,1-.6.759c.119-.06-.091.012-.138.02a21.109,21.109,0,0,1-2.566.149c-3.848.132-27.1.159-30.95.194q-7.868.071-15.735.072-7.349.007-14.7-.03c-2.81-.017-5.621,0-8.432-.112a2.352,2.352,0,0,1-.51-.035v1.494h0c.31,0,.31-1.494,0-1.494h0c-.314,0-.3,1.419,0,1.494a8.45,8.45,0,0,0,1.875.075c1.5.03,3,.045,4.5.057q3.231.026,6.462.037,3.853.015,7.706.012,4.1,0,8.2-.012,4.042-.011,8.083-.04,3.609-.026,7.218-.072c1.875-.025,23.156-.055,25.031-.1,1.129-.03,2.258-.052,3.387-.142a2.239,2.239,0,0,0,.624-.087,1.548,1.548,0,0,0,.843-1.061A16.166,16.166,0,0,0,76.4,20.3q.026-6.316,0-12.632a42.642,42.642,0,0,0-.13-5.08A3.175,3.175,0,0,0,75.312.376a.686.686,0,0,0-.3-.12,7.135,7.135,0,0,0-.892-.04C72.815.177,71.509.164,70.2.149,68.153.127,46.7.11,44.647.1Q40.867.075,37.088.06q-4.06-.015-8.12-.027Q24.99.021,21.013.015,17.54.007,14.067,0L8.96,0H6.445A30.893,30.893,0,0,0,1.883.341a1.435,1.435,0,0,0-1.348.986A9.767,9.767,0,0,0,.023,4.619c-.051,1.718.014,3.5.035,5.219q.03,2.521.063,5.042C.152,17.46.078,20.3.269,22.831c.2,2.712,1.119,3.13,1.89,3.155C2.469,26,2.469,24.5,2.16,24.492Z" transform="translate(-0.004 18.57)" fill="#29339b"/>
      </g>
      <g id="Group_7" data-name="Group 7" transform="translate(648.857 551.349)">
        <text id="Zip_Code" data-name="Zip Code" transform="translate(0.143 7.651)" fill="#29339b" font-size="12" font-family="TektonPro-Bold, Tekton Pro" font-weight="700"><tspan x="0" y="0">Zip Code</tspan></text>
        <path id="Base_Box-9" data-name="Base Box" d="M2.16,24.492c-.413-.012-1.073.01-1.33-1.215A19.4,19.4,0,0,1,.663,20.04c-.035-3.4-.083-6.8-.124-10.2C.519,8.177.458,6.464.5,4.8c.056-2.3.57-2.826,1.225-2.943A26.545,26.545,0,0,1,5.53,1.509c.792-.025,1.585-.015,2.377-.015q5.3,0,10.59.01,7.741.011,15.482.035c4.792.015,28.989.035,33.781.077,2.424.02,4.847.11,7.27.134a.286.286,0,0,1,.079.01l.022,0c-.112-.035-.049-.045.051.047a1.41,1.41,0,0,1,.492.67c.4,1.138.245,3.912.25,5.428q.011,3.22.01,6.439,0,2.973-.014,5.944a16.384,16.384,0,0,1-.132,3.18,1.045,1.045,0,0,1-.6.759c.119-.06-.091.012-.138.02a21.109,21.109,0,0,1-2.566.149c-3.848.132-27.1.159-30.95.194q-7.868.071-15.735.072-7.349.007-14.7-.03c-2.81-.017-5.621,0-8.432-.112a2.352,2.352,0,0,1-.51-.035v1.494h0c.31,0,.31-1.494,0-1.494h0c-.314,0-.3,1.419,0,1.494a8.45,8.45,0,0,0,1.875.075c1.5.03,3,.045,4.5.057q3.231.026,6.462.037,3.853.015,7.706.012,4.1,0,8.2-.012,4.042-.011,8.083-.04,3.609-.026,7.218-.072c1.875-.025,23.156-.055,25.031-.1,1.129-.03,2.258-.052,3.387-.142a2.239,2.239,0,0,0,.624-.087,1.548,1.548,0,0,0,.843-1.061A16.166,16.166,0,0,0,76.4,20.3q.026-6.316,0-12.632a42.642,42.642,0,0,0-.13-5.08A3.175,3.175,0,0,0,75.312.376a.686.686,0,0,0-.3-.12,7.135,7.135,0,0,0-.892-.04C72.815.177,71.509.164,70.2.149,68.153.127,46.7.11,44.647.1Q40.867.075,37.088.06q-4.06-.015-8.12-.027Q24.99.021,21.013.015,17.54.007,14.067,0L8.96,0H6.445A30.893,30.893,0,0,0,1.883.341a1.435,1.435,0,0,0-1.348.986A9.767,9.767,0,0,0,.023,4.619c-.051,1.718.014,3.5.035,5.219q.03,2.521.063,5.042C.152,17.46.078,20.3.269,22.831c.2,2.712,1.119,3.13,1.89,3.155C2.469,26,2.469,24.5,2.16,24.492Z" transform="translate(0.411 18.57)" fill="#29339b"/>
      </g>
      <g id="Group_5" data-name="Group 5" transform="translate(546.764 424.035)">
        <text id="Address_Line_2" data-name="Address Line 2" transform="translate(0.236 7.965)" fill="#29339b" font-size="12" font-family="TektonPro-Bold, Tekton Pro" font-weight="700"><tspan x="0" y="0">Address Line 2</tspan></text>
        <path id="Base_Box-10" data-name="Base Box" d="M5.669,24.492c-1.086-.012-2.819.01-3.494-1.215a7.636,7.636,0,0,1-.439-3.237c-.091-3.4-.219-6.8-.327-10.2C1.357,8.177,1.2,6.464,1.3,4.8c.148-2.3,1.5-2.826,3.22-2.943,3.327-.224,6.668-.311,10-.351,2.081-.025,4.165-.015,6.246-.015q13.914,0,27.828.01,20.341.011,40.681.035c12.591.015,76.174.035,88.765.077,6.368.02,12.736.11,19.1.134a1.927,1.927,0,0,1,.209.01l.057,0c-.293-.035-.129-.045.135.047a2.928,2.928,0,0,1,1.293.67c1.054,1.138.643,3.912.658,5.428q.028,3.22.025,6.439,0,2.973-.038,5.944c-.011.926.188,2.413-.348,3.18a2.4,2.4,0,0,1-1.573.759c.312-.06-.238.012-.363.02-2.244.134-4.5.12-6.744.149-10.111.132-71.215.159-81.326.194q-20.673.071-41.347.072-19.31.007-38.62-.03c-7.385-.017-14.771,0-22.156-.112-.443,0-.9.007-1.341-.035v1.494h0c.814,0,.814-1.494,0-1.494h0c-.824,0-.8,1.419,0,1.494,1.628.152,3.3.062,4.928.075q5.909.045,11.817.057,8.49.026,16.979.037,10.125.015,20.248.012,10.78,0,21.559-.012,10.621-.011,21.241-.04,9.483-.026,18.968-.072c4.928-.025,60.846-.055,65.774-.1,2.967-.03,5.934-.052,8.9-.142a15.021,15.021,0,0,0,1.638-.087,3.587,3.587,0,0,0,2.216-1.061c.985-1.108.806-2.888.822-4.35q.07-6.316.008-12.632c-.015-1.611.2-3.556-.342-5.08A3.551,3.551,0,0,0,197.89.376a3.885,3.885,0,0,0-.784-.12c-.78-.045-1.565-.032-2.345-.04-3.433-.04-6.866-.052-10.3-.067C179.076.127,122.7.11,117.311.1Q107.379.075,97.449.06,86.78.045,76.114.032,65.66.021,55.208.015,46.083.007,36.958,0L23.538,0H16.929q-6,0-11.988.341A5.613,5.613,0,0,0,1.4,1.327,4.7,4.7,0,0,0,.053,4.619,48.448,48.448,0,0,0,.144,9.838q.079,2.521.164,5.042A50.448,50.448,0,0,0,.7,22.831c.538,2.712,2.942,3.13,4.966,3.155C6.483,26,6.483,24.5,5.669,24.492Z" transform="translate(-0.004 18.288)" fill="#29339b"/>
      </g>
    </g>
    <g id="Group_2563" data-name="Group 2563" transform="translate(0 7)">
      <g id="Buttons_Pill_Button_Large-3" data-name="Buttons / Pill Button / Large" transform="translate(914.491 633)">
        <path id="Pill_Button-3" data-name="Pill Button" d="M59.166,40.945c10.511.214,21.019.038,31.53.005,8.125-.028,17-2.376,22.795-8.428,5.909-6.171,6.38-16.784,1.648-23.794C110,1.1,99.116.24,90.762.105c-4.647-.076-9.3-.158-13.945.005-4.235.15-8.461.4-12.7.371C58.784.451,53.452.55,48.123.355,43.277.176,38.439-.037,33.586.026,24.8.136,14.973-.335,7.3,4.7.1,9.426-1.684,19.942,1.549,27.55,4.849,35.319,13.92,39.381,21.8,40.6c4.716.733,9.631.359,14.388.4,4.861.043,9.722.089,14.583.056q4.2-.027,8.392-.114a.764.764,0,0,0,0-1.526c-9.816.2-19.625.064-29.442.013A41.414,41.414,0,0,1,17.69,38.1,27.773,27.773,0,0,1,6.736,32.243C.489,26.476-.2,15.77,4.872,8.983,7.509,5.452,12,3.692,16.166,2.748a61.033,61.033,0,0,1,12.948-1.14c4.548-.043,9.086-.112,13.632.053,4.329.155,8.656.371,12.991.341,4.958-.036,9.921.081,14.878-.109,4.045-.155,8.082-.369,12.131-.364,8.575.015,18.292-.6,26.066,3.62a14.65,14.65,0,0,1,7.311,9.529,19.021,19.021,0,0,1-.949,12.749c-3.442,7.311-12.63,11.055-20.241,11.859-2.172.229-4.373.132-6.553.145q-3.7.019-7.395.056c-4.609.041-9.221.076-13.83.043q-3.995-.031-7.987-.114A.765.765,0,0,0,59.166,40.945Z" transform="translate(0 -0.015)" fill="#29339b"/>
        <text id="Save_Card" data-name="Save Card" transform="translate(60.509 24)" fill="#29339b" font-size="13" font-family="TektonPro-Bold, Tekton Pro" font-weight="700"><tspan x="-26.507" y="0">Save Card</tspan></text>
      </g>
      <g id="Group_4-3" data-name="Group 4" transform="translate(872.915 356.876)">
        <text id="Email" transform="translate(0.085 8.124)" fill="#29339b" font-size="12" font-family="TektonPro-Bold, Tekton Pro" font-weight="700"><tspan x="0" y="0">Email</tspan></text>
        <path id="Base_Box-11" data-name="Base Box" d="M5.669,24.492c-1.086-.012-2.819.01-3.494-1.215a7.636,7.636,0,0,1-.439-3.237c-.091-3.4-.219-6.8-.327-10.2C1.357,8.177,1.2,6.464,1.3,4.8c.148-2.3,1.5-2.826,3.22-2.943,3.327-.224,6.668-.311,10-.351,2.081-.025,4.165-.015,6.246-.015q13.914,0,27.828.01,20.341.011,40.681.035c12.591.015,76.174.035,88.765.077,6.368.02,12.736.11,19.1.134a1.926,1.926,0,0,1,.209.01l.057,0c-.293-.035-.129-.045.135.047a2.928,2.928,0,0,1,1.293.67c1.054,1.138.643,3.912.658,5.428q.028,3.22.025,6.439,0,2.973-.038,5.944c-.011.926.188,2.413-.348,3.18a2.4,2.4,0,0,1-1.573.759c.312-.06-.238.012-.363.02-2.244.134-4.5.12-6.744.149-10.111.132-71.215.159-81.326.194q-20.673.071-41.347.072-19.31.007-38.62-.03c-7.385-.017-14.771,0-22.156-.112-.443,0-.9.007-1.341-.035v1.494h0c.814,0,.814-1.494,0-1.494h0c-.824,0-.8,1.419,0,1.494,1.628.152,3.3.062,4.928.075q5.909.045,11.817.057,8.49.026,16.979.037,10.125.015,20.248.012,10.78,0,21.559-.012,10.621-.011,21.241-.04,9.483-.026,18.968-.072c4.928-.025,60.846-.055,65.774-.1,2.967-.03,5.934-.052,8.9-.142a15.021,15.021,0,0,0,1.638-.087,3.587,3.587,0,0,0,2.216-1.061c.985-1.108.806-2.888.822-4.35q.07-6.316.008-12.632c-.015-1.611.2-3.556-.342-5.08A3.551,3.551,0,0,0,197.89.376a3.885,3.885,0,0,0-.784-.12c-.78-.045-1.565-.032-2.345-.04-3.433-.04-6.866-.052-10.3-.067C179.076.127,122.7.11,117.311.1Q107.379.075,97.449.06,86.78.045,76.114.032,65.66.021,55.208.015,46.083.007,36.958,0L23.538,0H16.929q-6,0-11.988.341A5.613,5.613,0,0,0,1.4,1.327,4.7,4.7,0,0,0,.053,4.619,48.448,48.448,0,0,0,.144,9.838q.079,2.521.164,5.042A50.448,50.448,0,0,0,.7,22.831c.538,2.712,2.942,3.13,4.966,3.155C6.483,26,6.483,24.5,5.669,24.492Z" transform="translate(-0.004 18.78)" fill="#29339b"/>
      </g>
      <g id="Group_3-3" data-name="Group 3" transform="translate(872.915 438.311)">
        <text id="Phone_Number" data-name="Phone Number" transform="translate(0.085 7.689)" fill="#29339b" font-size="12" font-family="TektonPro-Bold, Tekton Pro" font-weight="700"><tspan x="0" y="0">Phone Number</tspan></text>
        <path id="Base_Box-12" data-name="Base Box" d="M5.669,24.492c-1.086-.012-2.819.01-3.494-1.215a7.636,7.636,0,0,1-.439-3.237c-.091-3.4-.219-6.8-.327-10.2C1.357,8.177,1.2,6.464,1.3,4.8c.148-2.3,1.5-2.826,3.22-2.943,3.327-.224,6.668-.311,10-.351,2.081-.025,4.165-.015,6.246-.015q13.914,0,27.828.01,20.341.011,40.681.035c12.591.015,76.174.035,88.765.077,6.368.02,12.736.11,19.1.134a1.926,1.926,0,0,1,.209.01l.057,0c-.293-.035-.129-.045.135.047a2.928,2.928,0,0,1,1.293.67c1.054,1.138.643,3.912.658,5.428q.028,3.22.025,6.439,0,2.973-.038,5.944c-.011.926.188,2.413-.348,3.18a2.4,2.4,0,0,1-1.573.759c.312-.06-.238.012-.363.02-2.244.134-4.5.12-6.744.149-10.111.132-71.215.159-81.326.194q-20.673.071-41.347.072-19.31.007-38.62-.03c-7.385-.017-14.771,0-22.156-.112-.443,0-.9.007-1.341-.035v1.494h0c.814,0,.814-1.494,0-1.494h0c-.824,0-.8,1.419,0,1.494,1.628.152,3.3.062,4.928.075q5.909.045,11.817.057,8.49.026,16.979.037,10.125.015,20.248.012,10.78,0,21.559-.012,10.621-.011,21.241-.04,9.483-.026,18.968-.072c4.928-.025,60.846-.055,65.774-.1,2.967-.03,5.934-.052,8.9-.142a15.021,15.021,0,0,0,1.638-.087,3.587,3.587,0,0,0,2.216-1.061c.985-1.108.806-2.888.822-4.35q.07-6.316.008-12.632c-.015-1.611.2-3.556-.342-5.08A3.551,3.551,0,0,0,197.89.376a3.885,3.885,0,0,0-.784-.12c-.78-.045-1.565-.032-2.345-.04-3.433-.04-6.866-.052-10.3-.067C179.076.127,122.7.11,117.311.1Q107.379.075,97.449.06,86.78.045,76.114.032,65.66.021,55.208.015,46.083.007,36.958,0L23.538,0H16.929q-6,0-11.988.341A5.613,5.613,0,0,0,1.4,1.327,4.7,4.7,0,0,0,.053,4.619,48.448,48.448,0,0,0,.144,9.838q.079,2.521.164,5.042A50.448,50.448,0,0,0,.7,22.831c.538,2.712,2.942,3.13,4.966,3.155C6.483,26,6.483,24.5,5.669,24.492Z" transform="translate(-0.004 19.065)" fill="#29339b"/>
      </g>
    </g>
  </g>
</svg>
