<svg xmlns="http://www.w3.org/2000/svg" xmlns:xlink="http://www.w3.org/1999/xlink" width="1000" viewBox="0 0 1000 765" style="max-width:100%;">
  <defs>
    <clipPath id="clip-path">
      <path id="Shape" d="M338.667-26.667h16.667A2.667,2.667,0,0,1,358-24v6h0a2.667,2.667,0,0,1-2.667,2.667H338.667A2.667,2.667,0,0,1,336-18v-6h0A2.667,2.667,0,0,1,338.667-26.667Z" transform="translate(0 44)" fill="none" clip-rule="evenodd"/>
    </clipPath>
    <clipPath id="clip-path-2">
      <path id="Shape-2" data-name="Shape" d="M359-23v4a2.17,2.17,0,0,0,1.328-2A2.17,2.17,0,0,0,359-23" transform="translate(0 44)" fill="#29339b"/>
    </clipPath>
    <clipPath id="clip-path-3">
      <path id="Shape-3" data-name="Shape" d="M339.333-24.667h15.333A1.333,1.333,0,0,1,356-23.333v4.667h0a1.333,1.333,0,0,1-1.333,1.333H339.333A1.333,1.333,0,0,1,338-18.667v-4.667h0A1.333,1.333,0,0,1,339.333-24.667Z" transform="translate(0 44)" fill="#29339b"/>
    </clipPath>
    <clipPath id="clip-path-4">
      <path id="Shape-4" data-name="Shape" d="M323.33-24.392a8.64,8.64,0,0,1,5.953,2.378.308.308,0,0,0,.433,0l1.156-1.167a.322.322,0,0,0,.093-.229.322.322,0,0,0-.1-.227,10.9,10.9,0,0,0-15.08,0,.322.322,0,0,0-.1.227.322.322,0,0,0,.093.229l1.156,1.167a.308.308,0,0,0,.433,0,8.641,8.641,0,0,1,5.954-2.378Zm0,3.8a4.907,4.907,0,0,1,3.294,1.27.31.31,0,0,0,.433-.006l1.155-1.167a.322.322,0,0,0,.094-.23.322.322,0,0,0-.1-.229,7.159,7.159,0,0,0-9.752,0,.322.322,0,0,0-.1.229.322.322,0,0,0,.094.23l1.154,1.167a.31.31,0,0,0,.433.006,4.907,4.907,0,0,1,3.292-1.27Zm2.219,2.784a.314.314,0,0,0,.094-.231.314.314,0,0,0-.1-.226,3.422,3.422,0,0,0-4.419,0,.314.314,0,0,0-.1.226.314.314,0,0,0,.094.231l2,2.016a.311.311,0,0,0,.222.093.312.312,0,0,0,.222-.093Z" transform="translate(0 44)" fill="#29339b"/>
    </clipPath>
    <clipPath id="clip-path-5">
      <path id="Shape-5" data-name="Shape" d="M294.667-19.667h1a1,1,0,0,1,1,1v2a1,1,0,0,1-1,1h-1a1,1,0,0,1-1-1v-2a1,1,0,0,1,1-1Zm4.667-2h1a1,1,0,0,1,1,1v4a1,1,0,0,1-1,1h-1a1,1,0,0,1-1-1v-4A1,1,0,0,1,299.333-21.667ZM304-24h1a1,1,0,0,1,1,1v6.333a1,1,0,0,1-1,1h-1a1,1,0,0,1-1-1V-23A1,1,0,0,1,304-24Zm4.667-2.333h1a1,1,0,0,1,1,1v8.667a1,1,0,0,1-1,1h-1a1,1,0,0,1-1-1v-8.667a1,1,0,0,1,1-1Z" transform="translate(0 44)" fill="#29339b"/>
    </clipPath>
  </defs>
  <g id="Group_2594" data-name="Group 2594" transform="translate(-113 -149)">
    <g id="Rectangle_2454" data-name="Rectangle 2454" transform="translate(113 149)" fill="#a4acbc" stroke="#707070" stroke-width="1">
      <rect width="1000" height="765" rx="10" stroke="none"/>
      <rect x="0.5" y="0.5" width="999" height="764" rx="9.5" fill="none"/>
    </g>
    <g id="Group_2592" data-name="Group 2592" transform="translate(141 117)">
      <g id="Mobile_wireframe" data-name="Mobile wireframe" transform="translate(-17 17)">
        <g id="Phone_border_screen" data-name="Phone border screen" transform="translate(527 57)" fill="#fff">
          <path d="M 132.4258422851562 697.4794921875 C 95.39110565185547 697.4794921875 50.46020126342773 697.0048828125 50.01065444946289 697.0001220703125 L 50.0053825378418 697.0000610351562 L 50.00001907348633 697.0000610351562 C 43.3846549987793 697.0000610351562 36.96765518188477 695.70458984375 30.92729187011719 693.1497802734375 C 25.09256362915039 690.681884765625 19.85219955444336 687.148681640625 15.35174560546875 682.6482543945312 C 10.8513822555542 678.1478881835938 7.31820011138916 672.9075317382812 4.850290775299072 667.0726928710938 C 2.295472860336304 661.0324096679688 1.000018239021301 654.6154174804688 1.000018239021301 648.0000610351562 C 0.9992000460624695 646.9071655273438 0.9145636558532715 537.468505859375 0.9145636558532715 423.601318359375 C 0.9145636558532715 422.9939575195312 0.9992000460624695 182.7477722167969 1.000018239021301 180.3211364746094 L 1.000018239021301 50.00004959106445 C 1.000018239021301 43.38468551635742 2.295472860336304 36.96768569946289 4.850290775299072 30.92732048034668 C 7.31820011138916 25.09259414672852 10.8513822555542 19.85223007202148 15.35174560546875 15.35177516937256 C 19.85219955444336 10.85141181945801 25.09256362915039 7.318230152130127 30.92729187011719 4.850320816040039 C 36.96765518188477 2.295502662658691 43.3846549987793 1.000048160552979 50.00001907348633 1.000048160552979 C 50.45328903198242 1.00104820728302 95.95947265625 1.101775407791138 131.7156524658203 1.101775407791138 C 152.7200164794922 1.101775407791138 166.3020172119141 1.067502737045288 172.0845642089844 0.999957263469696 C 177.859375 0.9325027465820312 191.4209289550781 0.8983209133148193 212.3923797607422 0.8983209133148193 C 248.1051940917969 0.8983209133148193 293.5430297851562 0.9990481734275818 293.9977416992188 1.000048160552979 C 300.6153869628906 1.000048160552979 307.0323791503906 2.295502662658691 313.0726623535156 4.850320816040039 C 318.907470703125 7.318230152130127 324.1478271484375 10.85141181945801 328.648193359375 15.35177516937256 C 333.1486511230469 19.85223007202148 336.6818237304688 25.09259414672852 339.1497497558594 30.92732048034668 C 341.7045593261719 36.96768569946289 343.0000305175781 43.38468551635742 343.0000305175781 50.00004959106445 C 343.0032043457031 51.75986480712891 343.3125610351562 226.3209533691406 343.0000305175781 271.0256958007812 C 342.8791198730469 288.3263244628906 343.0572814941406 316.9689636230469 343.2459411621094 347.2934265136719 C 343.5555725097656 397.0694885253906 343.875732421875 448.5403137207031 343.0020141601562 462.46142578125 C 341.5979309082031 484.8326721191406 342.9856567382812 646.3598022460938 343 648.0084228515625 C 342.9989013671875 654.6207885742188 341.7034606933594 661.0349731445312 339.1497497558594 667.0726928710938 C 336.6818237304688 672.9075317382812 333.1486511230469 678.1478881835938 328.648193359375 682.6482543945312 C 324.1478271484375 687.148681640625 318.907470703125 690.681884765625 313.0726623535156 693.1497802734375 C 307.0334777832031 695.7041015625 300.6180419921875 696.9995727539062 294.0039367675781 697.0000610351562 C 293.2414245605469 696.9911499023438 252.4557800292969 696.5205688476562 218.1724700927734 696.5205688476562 C 197.9366607666016 696.5205688476562 183.8861083984375 696.6822509765625 176.4111938476562 697.0009765625 C 168.9645690917969 697.3184814453125 154.1657409667969 697.4794921875 132.4258422851562 697.4794921875 Z" stroke="none"/>
          <path d="M 212.3923797607422 1.89825439453125 C 191.4261932373047 1.89825439453125 177.86865234375 1.93243408203125 172.0962982177734 1.9998779296875 C 166.3073883056641 2.0673828125 152.7213745117188 2.1016845703125 131.7156524658203 2.1016845703125 C 95.95838928222656 2.1016845703125 50.45101928710938 2.0009765625 50.00003051757812 1.99993896484375 C 43.51919555664062 1.99993896484375 37.2332763671875 3.268798828125 31.31683349609375 5.771240234375 C 25.60128784179688 8.18865966796875 20.46774291992188 11.64996337890625 16.058837890625 16.058837890625 C 11.6500244140625 20.4677734375 8.188751220703125 25.60125732421875 5.77130126953125 31.31689453125 C 3.268829345703125 37.23321533203125 2.000030517578125 43.5191650390625 2.000030517578125 49.99993896484375 L 2.000030517578125 180.321533203125 C 1.99920654296875 182.7481689453125 1.91455078125 422.994140625 1.91455078125 423.601318359375 C 1.91455078125 537.4681396484375 1.99920654296875 646.90625 2.000030517578125 647.9999389648438 C 2.000030517578125 654.4807739257812 3.268829345703125 660.7667846679688 5.77130126953125 666.6831665039062 C 8.188751220703125 672.398681640625 11.6500244140625 677.5322265625 16.058837890625 681.941162109375 C 20.46774291992188 686.3499755859375 25.60128784179688 689.8112182617188 31.31683349609375 692.2286987304688 C 37.23318481445312 694.7311401367188 43.51919555664062 695.9999389648438 50.00003051757812 695.9999389648438 L 50.01065063476562 695.9999389648438 L 50.02139282226562 696.0000610351562 C 50.4708251953125 696.0048828125 95.39692687988281 696.4794311523438 132.4258422851562 696.4794311523438 C 154.1511077880859 696.4794311523438 168.9356536865234 696.3186645507812 176.36865234375 696.0017700195312 C 183.8576507568359 695.6824340820312 197.9224700927734 695.5205078125 218.1724700927734 695.5205078125 C 252.3585815429688 695.5205078125 293.0079956054688 695.9883422851562 294.0076293945312 695.9999389648438 C 300.4859313964844 695.9990234375 306.7689208984375 694.730224609375 312.68310546875 692.2286987304688 C 318.3987426757812 689.8112182617188 323.5321960449219 686.3499755859375 327.9411010742188 681.941162109375 C 332.3500061035156 677.5322265625 335.811279296875 672.398681640625 338.228759765625 666.6831665039062 C 340.7302856445312 660.7688598632812 341.9990844726562 654.4850463867188 342.0000305175781 648.0067138671875 C 341.9407348632812 641.1922607421875 340.59814453125 484.7958984375 342.0039367675781 462.3987731933594 C 342.8754577636719 448.5121459960938 342.541015625 394.740966796875 342.2459411621094 347.2995910644531 C 342.0572814941406 316.9717712402344 341.8791198730469 288.3258666992188 342.0001220703125 271.0186767578125 C 342.3125610351562 226.3183288574219 342.0032043457031 51.761474609375 342.0000305175781 49.99993896484375 C 342.0000305175781 43.5191650390625 340.731201171875 37.23321533203125 338.228759765625 31.31689453125 C 335.811279296875 25.60125732421875 332.3500061035156 20.4677734375 327.9411010742188 16.058837890625 C 323.5321960449219 11.64996337890625 318.3987426757812 8.18865966796875 312.68310546875 5.771240234375 C 306.7667541503906 3.268798828125 300.4808349609375 1.99993896484375 293.9955749511719 1.99993896484375 C 293.5407409667969 1.99896240234375 248.1041107177734 1.89825439453125 212.3923797607422 1.89825439453125 M 212.3923797607422 -0.10174560546875 C 248.5194549560547 -0.10174560546875 294.0000305175781 -6.103515625e-05 294.0000305175781 -6.103515625e-05 C 321.6141967773438 -6.103515625e-05 344.0000305175781 22.38580322265625 344.0000305175781 49.99993896484375 C 344.0000305175781 49.99993896484375 344.3161926269531 225.8064270019531 344.0000305175781 271.0326843261719 C 343.683837890625 316.259033203125 345.418212890625 439.92822265625 344.0000305175781 462.5240478515625 C 342.5817565917969 485.119873046875 344.0000305175781 647.9999389648438 344.0000305175781 647.9999389648438 C 344.0000305175781 675.6142578125 321.6141967773438 697.9999389648438 294.0000305175781 697.9999389648438 C 294.0000305175781 697.9999389648438 252.9996185302734 697.5205078125 218.1724853515625 697.5205078125 C 200.7557373046875 697.5205078125 184.8876495361328 697.6403198242188 176.4538421630859 697.9999389648438 C 168.0215606689453 698.3594970703125 151.1583251953125 698.4793701171875 132.4257965087891 698.4793701171875 C 94.95730590820312 698.4793701171875 50.00003051757812 697.9999389648438 50.00003051757812 697.9999389648438 C 22.3857421875 697.9999389648438 3.0517578125e-05 675.6142578125 3.0517578125e-05 647.9999389648438 C 3.0517578125e-05 647.9999389648438 -0.08544921875 538.7861328125 -0.08544921875 423.601318359375 C -0.08544921875 422.9867858886719 3.0517578125e-05 180.32080078125 3.0517578125e-05 180.32080078125 L 3.0517578125e-05 49.99993896484375 C 3.0517578125e-05 22.38580322265625 22.3857421875 -6.103515625e-05 50.00003051757812 -6.103515625e-05 C 50.00003051757812 -6.103515625e-05 95.54698181152344 0.10162353515625 131.7156677246094 0.10162353515625 C 149.8033294677734 0.10162353515625 165.5405883789062 0.07623291015625 172.0729217529297 -6.103515625e-05 C 178.6040802001953 -0.0762939453125 194.3304901123047 -0.10174560546875 212.3923797607422 -0.10174560546875 Z" stroke="none" fill="#29339b"/>
        </g>
        <g id="Phone_screen" data-name="Phone screen" transform="translate(2662 617)" fill="#fff" opacity="0.6">
          <path d="M -1843.000244140625 116.9998779296875 L -2082.999755859375 116.9998779296875 C -2087.18505859375 116.9998779296875 -2091.244873046875 116.1803741455078 -2095.06640625 114.5641250610352 C -2098.757568359375 113.0027923583984 -2102.072998046875 110.7673797607422 -2104.919921875 107.9201278686523 C -2107.76708984375 105.0732955932617 -2110.002685546875 101.7580413818359 -2111.564453125 98.06629180908203 C -2113.180419921875 94.24471282958984 -2114 90.18512725830078 -2114 86.00038146972656 L -2114 -58.67995452880859 L -2114 -393.1208801269531 L -2114 -506.9996948242188 C -2114 -511.1846923828125 -2113.180419921875 -515.2444458007812 -2111.564453125 -519.0662231445312 C -2110.002685546875 -522.7578735351562 -2107.76708984375 -526.0733032226562 -2104.920166015625 -528.9202270507812 C -2102.07275390625 -531.7676391601562 -2098.75732421875 -534.0030517578125 -2095.066162109375 -535.5643920898438 C -2091.244873046875 -537.1806030273438 -2087.18505859375 -538.0001220703125 -2082.999755859375 -538.0001220703125 L -2047.961547851562 -538.0001220703125 C -2047.986938476562 -537.6674194335938 -2047.999633789062 -537.33349609375 -2047.999633789062 -537.0003051757812 L -2047.999633789062 -525.9996337890625 C -2047.999633789062 -522.5275268554688 -2046.647583007812 -519.2631225585938 -2044.192504882812 -516.8076782226562 C -2041.737060546875 -514.3522338867188 -2038.472412109375 -512.9999389648438 -2035 -512.9999389648438 L -1890 -512.9999389648438 C -1886.527587890625 -512.9999389648438 -1883.262939453125 -514.3522338867188 -1880.8076171875 -516.8076782226562 C -1878.352416992188 -519.2631225585938 -1877.000366210938 -522.5275268554688 -1877.000366210938 -525.9996337890625 L -1877.000366210938 -537.0003051757812 C -1877.000366210938 -537.3336791992188 -1877.013061523438 -537.6676025390625 -1877.038452148438 -538.0001220703125 L -1843.000244140625 -538.0001220703125 C -1838.814697265625 -538.0001220703125 -1834.7548828125 -537.1806030273438 -1830.933715820312 -535.5643920898438 C -1827.242431640625 -534.0030517578125 -1823.927001953125 -531.7677001953125 -1821.079711914062 -528.9202880859375 C -1818.232299804688 -526.0729370117188 -1815.996948242188 -522.757568359375 -1814.435546875 -519.0661010742188 C -1812.8193359375 -515.2448120117188 -1811.999877929688 -511.1850280761719 -1811.999877929688 -506.9996948242188 L -1811.999877929688 86.00038146972656 C -1811.999877929688 90.18546295166016 -1812.8193359375 94.24504089355469 -1814.435546875 98.06637573242188 C -1815.996948242188 101.7576293945312 -1818.232299804688 105.0728759765625 -1821.079711914062 107.9200439453125 C -1823.926635742188 110.7672958374023 -1827.242065429688 113.0026245117188 -1830.933715820312 114.5641250610352 C -1834.7548828125 116.1803741455078 -1838.814697265625 116.9998779296875 -1843.000244140625 116.9998779296875 Z" stroke="none"/>
          <path d="M -1843.000244140625 115.9998779296875 C -1838.94921875 115.9998779296875 -1835.020629882812 115.2069625854492 -1831.3232421875 113.6431274414062 C -1827.750854492188 112.1320419311523 -1824.542358398438 109.9687118530273 -1821.786743164062 107.2129592895508 C -1819.030883789062 104.4572982788086 -1816.867553710938 101.2488784790039 -1815.3564453125 97.67679595947266 C -1813.792724609375 93.97946166992188 -1812.999877929688 90.05088043212891 -1812.999877929688 86.00038146972656 L -1812.999877929688 -506.9996948242188 C -1812.999877929688 -511.0504455566406 -1813.792724609375 -514.9791870117188 -1815.3564453125 -518.676513671875 C -1816.867553710938 -522.248779296875 -1819.030883789062 -525.4573974609375 -1821.786865234375 -528.2131958007812 C -1824.542602539062 -530.9690551757812 -1827.751220703125 -533.1324462890625 -1831.3232421875 -534.6433715820312 C -1835.020629882812 -536.2072143554688 -1838.94921875 -537.0001220703125 -1843.000244140625 -537.0001220703125 L -1876.000366210938 -537.0003051757812 L -1876.000366210938 -525.9996337890625 C -1876.000366210938 -522.2604370117188 -1877.456420898438 -518.744873046875 -1880.100463867188 -516.1005249023438 C -1882.744750976562 -513.456298828125 -1886.260498046875 -511.9999694824219 -1890 -511.9999694824219 L -2035 -511.9999694824219 C -2038.739501953125 -511.9999694824219 -2042.255249023438 -513.456298828125 -2044.899536132812 -516.1006469726562 C -2047.543579101562 -518.744873046875 -2048.999755859375 -522.2604370117188 -2048.999755859375 -525.9996337890625 L -2048.999755859375 -537.0001220703125 L -2082.999755859375 -537.0001220703125 C -2087.050537109375 -537.0001220703125 -2090.979248046875 -536.2072143554688 -2094.6767578125 -534.6433715820312 C -2098.248779296875 -533.1324462890625 -2101.457275390625 -530.9689331054688 -2104.212890625 -528.213134765625 C -2106.968505859375 -525.4577026367188 -2109.132080078125 -522.2491455078125 -2110.643310546875 -518.6766967773438 C -2112.20703125 -514.9788818359375 -2113 -511.0501098632812 -2113 -506.9996948242188 L -2113 -393.1208801269531 L -2113 -58.67995452880859 L -2113 86.00038146972656 C -2113 90.05054473876953 -2112.20703125 93.9791259765625 -2110.643310546875 97.67662811279297 C -2109.132080078125 101.2492141723633 -2106.968505859375 104.4577102661133 -2104.212890625 107.2130432128906 C -2101.457275390625 109.9687957763672 -2098.248779296875 112.132209777832 -2094.6767578125 113.6431274414062 C -2090.979248046875 115.2069625854492 -2087.050537109375 115.9998779296875 -2082.999755859375 115.9998779296875 L -1843.000244140625 115.9998779296875 M -1843.000244140625 117.9998779296875 L -2082.999755859375 117.9998779296875 C -2087.319580078125 117.9998779296875 -2091.510498046875 117.1537933349609 -2095.455810546875 115.4851303100586 C -2099.266357421875 113.8733749389648 -2102.6884765625 111.566047668457 -2105.627197265625 108.6272125244141 C -2108.56591796875 105.6887969970703 -2110.873291015625 102.2666244506836 -2112.4853515625 98.45587921142578 C -2114.15380859375 94.51054382324219 -2115 90.31996154785156 -2115 86.00038146972656 L -2115 -58.67995452880859 L -2115 -393.1208801269531 L -2115 -506.9996948242188 C -2115 -511.3195495605469 -2114.15380859375 -515.5103149414062 -2112.4853515625 -519.4556884765625 C -2110.873291015625 -523.2665405273438 -2108.56591796875 -526.6887817382812 -2105.627197265625 -529.6273803710938 C -2102.688232421875 -532.5662841796875 -2099.26611328125 -534.8735961914062 -2095.455810546875 -536.4853515625 C -2091.510498046875 -538.154052734375 -2087.319580078125 -539.0001220703125 -2082.999755859375 -539.0001220703125 L -2046.833740234375 -539.0001220703125 C -2046.943359375 -538.3458862304688 -2046.999633789062 -537.6732788085938 -2046.999633789062 -537.0003051757812 L -2046.999633789062 -525.9996337890625 C -2046.999633789062 -522.7945556640625 -2045.75146484375 -519.7811889648438 -2043.4853515625 -517.5147705078125 C -2041.21875 -515.2482299804688 -2038.205322265625 -513.9999389648438 -2035 -513.9999389648438 L -1890 -513.9999389648438 C -1886.794677734375 -513.9999389648438 -1883.78125 -515.2482299804688 -1881.5146484375 -517.5147705078125 C -1879.24853515625 -519.7811889648438 -1878.000366210938 -522.7945556640625 -1878.000366210938 -525.9996337890625 L -1878.000366210938 -537.0003051757812 C -1878.000366210938 -537.6710205078125 -1878.05615234375 -538.3438720703125 -1878.166259765625 -539.0001220703125 L -1843.000244140625 -539.0001220703125 C -1838.68017578125 -539.0001220703125 -1834.489379882812 -538.154052734375 -1830.544189453125 -536.4853515625 C -1826.733764648438 -534.8737182617188 -1823.3115234375 -532.5663452148438 -1820.37255859375 -529.6273803710938 C -1817.433715820312 -526.6885986328125 -1815.126342773438 -523.266357421875 -1813.514526367188 -519.4556884765625 C -1811.845947265625 -515.5104370117188 -1810.999877929688 -511.3197021484375 -1810.999877929688 -506.9996948242188 L -1810.999877929688 86.00038146972656 C -1810.999877929688 90.32012939453125 -1811.845947265625 94.51071166992188 -1813.514526367188 98.45587921142578 C -1815.126342773438 102.2663803100586 -1817.433715820312 105.6885452270508 -1820.37255859375 108.6272125244141 C -1823.311279296875 111.566047668457 -1826.733642578125 113.8733749389648 -1830.544189453125 115.4851303100586 C -1834.489379882812 117.1537933349609 -1838.68017578125 117.9998779296875 -1843.000244140625 117.9998779296875 Z" stroke="none" fill="#29339b"/>
        </g>
        <g id="Header_icon" data-name="Header icon" transform="translate(-4896 -2128)">
          <path id="Line" d="M1.47,75.29c.415.23,16.24.3,24.779.058,7.515-.212,15.03-.818,22.563-.882.454,0,3.09,0,3.561,0,.525.132,1.292-.592,1.293-1.211s-1.024-1.127-1.935-1.083c-7.412-.046-14.717.324-22.176.376-7.977.327-25.064.07-25.064.07l-3.1-.184S.132,72.578.1,73.743,1.055,75.06,1.47,75.29Z" transform="translate(5568.247 2141.488)" fill="#29339b"/>
          <circle id="Ellipse_335" data-name="Ellipse 335" cx="3.5" cy="3.5" r="3.5" transform="translate(5626 2211)" fill="#29339b"/>
        </g>
        <path id="Line-2" data-name="Line" d="M2.6,75.378c1.069.236,41.843.308,63.843.06,19.363-.218,38.725-.841,58.134-.907,1.169,0,7.961,0,9.175,0,1.352.136,1.133-.818,1.135-1.454s-.443-.95-2.788-.9c-19.1-.047-37.919.333-57.138.387-20.552.336-64.578.072-64.578.072l-7.987-.189S.833,72.6.758,73.8,1.53,75.141,2.6,75.378Z" transform="translate(630.747 641.488)" fill="#29339b" stroke="#29339b" stroke-width="1"/>
        <g id="status_bar_light" data-name="status bar/light" transform="translate(470 5)">
          <g id="Battery" transform="translate(13 80)">
            <g id="Border" clip-path="url(#clip-path)">
              <path id="Fill" d="M2.667,0H19.333A2.667,2.667,0,0,1,22,2.667v6h0a2.667,2.667,0,0,1-2.667,2.667H2.667A2.667,2.667,0,0,1,0,8.667v-6H0A2.667,2.667,0,0,1,2.667,0Z" transform="translate(336 17.333)" fill="none" stroke="rgba(21,131,216,0.5)" stroke-width="2"/>
            </g>
            <g id="Cap" clip-path="url(#clip-path-2)">
              <path id="Fill-2" data-name="Fill" d="M354-28h11.328v14H354Z" transform="translate(0 44)" fill="#29339b"/>
            </g>
            <g id="Capacity" clip-path="url(#clip-path-3)">
              <path id="Fill-3" data-name="Fill" d="M333-29.667h28v17.333H333Z" transform="translate(0 44)" fill="#29339b"/>
            </g>
          </g>
          <g id="Wifi" transform="translate(13 80)">
            <g id="Wifi-2" data-name="Wifi" clip-path="url(#clip-path-4)">
              <path id="Fill-4" data-name="Fill" d="M310.694-31.669h25.272V-10.7H310.694Z" transform="translate(0 44)" fill="#29339b"/>
            </g>
          </g>
          <g id="Cellular_Connection" data-name="Cellular Connection" transform="translate(13 80)">
            <g id="Cellular_Connection-2" data-name="Cellular Connection" clip-path="url(#clip-path-5)">
              <path id="Fill-5" data-name="Fill" d="M288.667-31.333h27v20.667h-27Z" transform="translate(0 44)" fill="#29339b"/>
            </g>
          </g>
          <g id="Bars___Time_Black" data-name="Bars/_/Time Black" transform="translate(62 80)">
            <path id="Background" d="M21-19H75V-35H21Z" transform="translate(8 50)" fill="none"/>
            <text id="_10:20" data-name="10:20" transform="translate(33 29)" fill="#29339b" font-size="14" font-family="tekton-pro, tekton-pro" font-weight="700"><tspan x="0" y="0">10:20</tspan></text>
          </g>
        </g>
      </g>
      <text id="Hello_Megan" data-name="Hello, Megan" transform="translate(549 188)" fill="#29339b" font-size="40" font-family="tekton-pro, tekton-pro" font-weight="700"><tspan x="0" y="27">Hello, Megan</tspan></text>
      <text id="_120.00" data-name="$120.00" transform="translate(549 284)" fill="#29339b" font-size="30" font-family="tekton-pro, tekton-pro" font-weight="700"><tspan x="0" y="20">$120.00</tspan></text>
      <text id="AutoPay_on_2_1_20" data-name="AutoPay on 2/1/20" transform="translate(705 277)" fill="#29339b" font-size="14" font-family="tekton-pro, tekton-pro" font-weight="700"><tspan x="0" y="10">AutoPay on 2/1/20</tspan></text>
      <text id="My_AutoPay" data-name="My AutoPay" transform="translate(705 298)" fill="#29339b" font-size="14" font-family="tekton-pro, tekton-pro" font-weight="700" text-decoration="underline"><tspan x="0" y="10">My AutoPay</tspan></text>
      <g id="Buttons_Pill_Button_Large" data-name="Buttons / Pill Button / Large" transform="translate(487 84)">
        <path id="Pill_Button" data-name="Pill Button" d="M82.537,57.114c14.663.3,29.322.053,43.985.007,11.334-.039,23.715-3.314,31.8-11.757,8.243-8.609,8.9-23.414,2.3-33.194C153.446,1.536,138.268.329,126.615.141c-6.483-.106-12.97-.22-19.453.007-5.908.209-11.8.554-17.718.518-7.438-.043-14.876.1-22.31-.177C60.373.24,53.623-.058,46.853.031,34.6.184,20.887-.473,10.188,6.55.142,13.143-2.349,27.813,2.161,38.427c4.6,10.837,17.257,16.5,28.254,18.211,6.579,1.022,13.435.5,20.071.557,6.781.06,13.563.124,20.344.078q5.855-.037,11.707-.16a1.065,1.065,0,0,0,0-2.129c-13.694.277-27.378.089-41.072.018-5.8-.028-11.185-.181-16.788-1.852A38.745,38.745,0,0,1,9.4,44.974C.682,36.929-.277,21.993,6.8,12.526c3.68-4.925,9.943-7.381,15.756-8.7a85.142,85.142,0,0,1,18.062-1.59c6.345-.06,12.676-.156,19.017.075,6.04.216,12.076.518,18.123.476,6.916-.05,13.84.114,20.756-.153,5.642-.216,11.274-.515,16.923-.507,11.962.021,25.518-.841,36.363,5.05a20.436,20.436,0,0,1,10.2,13.293,26.535,26.535,0,0,1-1.324,17.786c-4.8,10.2-17.619,15.422-28.236,16.544-3.031.319-6.1.185-9.141.2q-5.158.027-10.316.078c-6.43.057-12.864.106-19.294.06q-5.573-.043-11.143-.16A1.067,1.067,0,0,0,82.537,57.114Z" transform="translate(113 548.985)" fill="#29339b"/>
        <text id="Make_a_Payment" data-name="Make a Payment" transform="translate(197 582)" fill="#29339b" font-size="18" font-family="tekton-pro, tekton-pro" font-weight="700"><tspan x="-59.4" y="0">Make a Payment</tspan></text>
      </g>
      <g id="Group_31" data-name="Group 31" transform="translate(436 -21)">
        <g id="Group_29" data-name="Group 29" transform="translate(0 50)">
          <path id="Base" d="M0,.977V140.6a1,1,0,0,0,1,.979l84.993.212q67.191.165,134.375.337,15.392.035,30.777.078a1,1,0,0,0,1-.979c-.008-46.751-.591-93.5-.6-140.253a1,1,0,0,0-1-.979h-84.33Q99.023,0,31.823,0H1A.979.979,0,0,0,1,1.957H250.552l-1-.979c.008,46.751.591,93.5.6,140.253l1-.979-84.993-.212q-67.191-.165-134.375-.337-15.392-.035-30.777-.078l1,.979V.985A1,1,0,0,0,0,.977Z" transform="translate(105 385.01)" fill="#29339b"/>
          <g id="Group_8" data-name="Group 8" transform="translate(-19 -18.619)">
            <path id="Path_1005" data-name="Path 1005" d="M2682.357,2747.487a2.429,2.429,0,0,0-.085-.6c-.782-5.215-4.673-7.285-9.771-7.34q-8-.087-16-.124c-13.65-.065-27.306-.059-40.953.265-5.083.121-11.244-.419-13.42,5.347-.7,1.856-.527,3.889-.518,5.836l.09,22.79c.027,6.937-.027,13.881.083,20.817.045,2.872.658,5.53,3.05,7.417,2.28,1.8,4.97,1.759,7.749,1.892,3.677.176,7.352.326,11.032.36,7.563.068,15.126-.143,22.688-.161,7.176-.016,14.419.3,21.583-.145,5.246-.328,12.365.108,14.509-5.907a16.388,16.388,0,0,0,.459-5.755Zm-76.212.4c.482-4.1,4.71-3.521,7.81-3.6s6.225-.14,9.338-.185q10.208-.152,20.417-.146,9.409-.007,18.816.061c3.731.027,14.768-1.668,15.278,3.476q.156,14.28.313,28.561-3.644-3.4-7.325-6.766c-2.3-2.1-4.813-4.938-8.148-5.155-3.294-.215-5.951,2.11-8.336,4.075a71.89,71.89,0,0,0-7.44,7.07c-4.741-4.764-9.953-9.029-15.829-11.344-5.636-2.22-8.758,1.244-12.554,4.911l-12.209,11.794-.08-20.143C2606.18,2756.4,2605.667,2751.956,2606.146,2747.883Zm72.18,47.254c-.552,5.37-11.272,4.275-15.36,4.3-6.595.034-13.19-.023-19.784.012-6.524.035-13.049.208-19.574.149-2.862-.026-5.721-.115-8.58-.245-3.228-.145-8.145.626-8.694-3.672a54.84,54.84,0,0,1-.124-8.684,2.061,2.061,0,0,0,.173-.137l11.623-11.227c2.071-2,4.076-4.344,6.34-6.124,3.309-2.6,5.577-1.316,8.654.652,8.508,5.444,15.257,13.3,21.914,20.779,1.952,2.194,5.162-1.036,3.22-3.219-2.574-2.892-5.276-6.074-8.148-9.186,3.412-3.972,9.844-11,13.708-9.253,2.589,1.171,5,4.239,7.09,6.162q3.725,3.43,7.409,6.908C2678.268,2786.533,2678.753,2790.987,2678.326,2795.138Z" transform="translate(-2391.884 -2297.219)" fill="#29339b" stroke="rgba(0,0,0,0)" stroke-width="1"/>
            <path id="Path_1006" data-name="Path 1006" d="M2656.165,2767.9a8.88,8.88,0,0,0,9.082-8.665,9.247,9.247,0,0,0-9.1-9.188c-5.359-.066-8.39,3.877-8.516,8.922C2647.732,2763.834,2651.058,2767.917,2656.165,2767.9Zm-.387-13.305a4.669,4.669,0,0,1,4.917,4.64,4.227,4.227,0,0,1-4.144,4.087c-2.73.225-4.312-1.788-4.365-4.354C2652.244,2756.6,2653.119,2754.715,2655.777,2754.6Z" transform="translate(-2402.992 -2299.79)" fill="#29339b" stroke="rgba(0,0,0,0)" stroke-width="1"/>
          </g>
          <g id="Rectangle_446" data-name="Rectangle 446" transform="translate(365 385)" fill="#fff" stroke="#29339b" stroke-width="2">
            <rect width="32" height="142.21" stroke="none"/>
            <rect x="1" y="1" width="30" height="140.21" fill="none"/>
          </g>
          <g id="Ellipse_336" data-name="Ellipse 336" transform="translate(352 340)" fill="#fff" stroke="#29339b" stroke-width="2">
            <circle cx="17" cy="17" r="17" stroke="none"/>
            <circle cx="17" cy="17" r="16" fill="none"/>
          </g>
          <g id="Icon_-_Plus" data-name="Icon - Plus" transform="translate(360.557 349.5)">
            <path id="Icon_-_Plus-2" data-name="Icon - Plus" d="M6.521,13.991q.256-2.431.43-4.868-2.834-.079-5.666-.268c-1.708-.116-1.717-2.8,0-2.684q2.916.195,5.833.272Q7.253,3.872,7.3,1.3a1.335,1.335,0,0,1,2.669,0q-.047,2.6-.185,5.193,2.709.023,5.42-.053c1.722-.049,1.713,2.634,0,2.684q-2.795.081-5.587.053-.173,2.41-.426,4.818a1.432,1.432,0,0,1-1.474,1.283A1.113,1.113,0,0,1,6.521,13.991Z" transform="translate(0 0)" fill="#29339b"/>
          </g>
        </g>
        <text id="Saved_Accounts" data-name="Saved Accounts" transform="translate(105 409)" fill="#29339b" font-size="20" font-family="tekton-pro, tekton-pro" font-weight="700"><tspan x="0" y="14">Saved Accounts</tspan></text>
      </g>
      <text id="ACCOUNT_BALANCE" data-name="ACCOUNT BALANCE" transform="translate(549 265)" fill="#29339b" font-size="10" font-family="tekton-pro, tekton-pro" font-weight="700"><tspan x="0" y="7">ACCOUNT BALANCE</tspan></text>
      <path id="Path_3423" data-name="Path 3423" d="M224.732,108.373c-27.036-2.116-56.057,1.766-81.088,15.884-12.294,6.934-29.227,20.3-27.586,40.808,1.476,18.446,17.577,29.615,29.263,35.653,28.555,14.758,64.757,16.059,94.017,4.075,11.021-4.513,23.067-11.614,31.364-22.441,11.17-14.574,6.235-35.765-4.567-47.879-14.268-16.08-34.9-20.172-53.122-20.412-16.633-.218-32.349,4.668-47.233,14.214l-.263-.631c23.551-16.68,51.561-21.019,77.622-12.55,13.307,4.323,27.2,13.182,34.293,29.269,6.856,15.551,4.188,33.492-6.069,45.13-23.264,26.4-55.853,32.333-85.564,29.36-15.812-1.582-31.68-5.912-46.1-14.747-11.641-7.132-25.48-19.04-27.391-37.164-3.527-33.435,31.43-48.65,50.43-54.254a152.111,152.111,0,0,1,36-5.871q8.028-.377,16.065.023C217.117,106.958,223.818,106.239,224.732,108.373Z" transform="translate(566.675 128.367)" fill="#29d9c2"/>
    </g>
    <g id="Group_2593" data-name="Group 2593" transform="translate(155 117)">
      <g id="Mobile_wireframe-2" data-name="Mobile wireframe" transform="translate(-452 17)">
        <g id="Phone_border_screen-2" data-name="Phone border screen" transform="translate(527 57)" fill="#fff">
          <path d="M 132.4258422851562 697.4794921875 C 95.39110565185547 697.4794921875 50.46020126342773 697.0048828125 50.01065444946289 697.0001220703125 L 50.0053825378418 697.0000610351562 L 50.00001907348633 697.0000610351562 C 43.3846549987793 697.0000610351562 36.96765518188477 695.70458984375 30.92729187011719 693.1497802734375 C 25.09256362915039 690.681884765625 19.85219955444336 687.148681640625 15.35174560546875 682.6482543945312 C 10.8513822555542 678.1478881835938 7.31820011138916 672.9075317382812 4.850290775299072 667.0726928710938 C 2.295472860336304 661.0324096679688 1.000018239021301 654.6154174804688 1.000018239021301 648.0000610351562 C 0.9992000460624695 646.9071655273438 0.9145636558532715 537.468505859375 0.9145636558532715 423.601318359375 C 0.9145636558532715 422.9939575195312 0.9992000460624695 182.7477722167969 1.000018239021301 180.3211364746094 L 1.000018239021301 50.00004959106445 C 1.000018239021301 43.38468551635742 2.295472860336304 36.96768569946289 4.850290775299072 30.92732048034668 C 7.31820011138916 25.09259414672852 10.8513822555542 19.85223007202148 15.35174560546875 15.35177516937256 C 19.85219955444336 10.85141181945801 25.09256362915039 7.318230152130127 30.92729187011719 4.850320816040039 C 36.96765518188477 2.295502662658691 43.3846549987793 1.000048160552979 50.00001907348633 1.000048160552979 C 50.45328903198242 1.00104820728302 95.95947265625 1.101775407791138 131.7156524658203 1.101775407791138 C 152.7200164794922 1.101775407791138 166.3020172119141 1.067502737045288 172.0845642089844 0.999957263469696 C 177.859375 0.9325027465820312 191.4209289550781 0.8983209133148193 212.3923797607422 0.8983209133148193 C 248.1051940917969 0.8983209133148193 293.5430297851562 0.9990481734275818 293.9977416992188 1.000048160552979 C 300.6153869628906 1.000048160552979 307.0323791503906 2.295502662658691 313.0726623535156 4.850320816040039 C 318.907470703125 7.318230152130127 324.1478271484375 10.85141181945801 328.648193359375 15.35177516937256 C 333.1486511230469 19.85223007202148 336.6818237304688 25.09259414672852 339.1497497558594 30.92732048034668 C 341.7045593261719 36.96768569946289 343.0000305175781 43.38468551635742 343.0000305175781 50.00004959106445 C 343.0032043457031 51.75986480712891 343.3125610351562 226.3209533691406 343.0000305175781 271.0256958007812 C 342.8791198730469 288.3263244628906 343.0572814941406 316.9689636230469 343.2459411621094 347.2934265136719 C 343.5555725097656 397.0694885253906 343.875732421875 448.5403137207031 343.0020141601562 462.46142578125 C 341.5979309082031 484.8326721191406 342.9856567382812 646.3598022460938 343 648.0084228515625 C 342.9989013671875 654.6207885742188 341.7034606933594 661.0349731445312 339.1497497558594 667.0726928710938 C 336.6818237304688 672.9075317382812 333.1486511230469 678.1478881835938 328.648193359375 682.6482543945312 C 324.1478271484375 687.148681640625 318.907470703125 690.681884765625 313.0726623535156 693.1497802734375 C 307.0334777832031 695.7041015625 300.6180419921875 696.9995727539062 294.0039367675781 697.0000610351562 C 293.2414245605469 696.9911499023438 252.4557800292969 696.5205688476562 218.1724700927734 696.5205688476562 C 197.9366607666016 696.5205688476562 183.8861083984375 696.6822509765625 176.4111938476562 697.0009765625 C 168.9645690917969 697.3184814453125 154.1657409667969 697.4794921875 132.4258422851562 697.4794921875 Z" stroke="none"/>
          <path d="M 212.3923797607422 1.89825439453125 C 191.4261932373047 1.89825439453125 177.86865234375 1.93243408203125 172.0962982177734 1.9998779296875 C 166.3073883056641 2.0673828125 152.7213745117188 2.1016845703125 131.7156524658203 2.1016845703125 C 95.95838928222656 2.1016845703125 50.45101928710938 2.0009765625 50.00003051757812 1.99993896484375 C 43.51919555664062 1.99993896484375 37.2332763671875 3.268798828125 31.31683349609375 5.771240234375 C 25.60128784179688 8.18865966796875 20.46774291992188 11.64996337890625 16.058837890625 16.058837890625 C 11.6500244140625 20.4677734375 8.188751220703125 25.60125732421875 5.77130126953125 31.31689453125 C 3.268829345703125 37.23321533203125 2.000030517578125 43.5191650390625 2.000030517578125 49.99993896484375 L 2.000030517578125 180.321533203125 C 1.99920654296875 182.7481689453125 1.91455078125 422.994140625 1.91455078125 423.601318359375 C 1.91455078125 537.4681396484375 1.99920654296875 646.90625 2.000030517578125 647.9999389648438 C 2.000030517578125 654.4807739257812 3.268829345703125 660.7667846679688 5.77130126953125 666.6831665039062 C 8.188751220703125 672.398681640625 11.6500244140625 677.5322265625 16.058837890625 681.941162109375 C 20.46774291992188 686.3499755859375 25.60128784179688 689.8112182617188 31.31683349609375 692.2286987304688 C 37.23318481445312 694.7311401367188 43.51919555664062 695.9999389648438 50.00003051757812 695.9999389648438 L 50.01065063476562 695.9999389648438 L 50.02139282226562 696.0000610351562 C 50.4708251953125 696.0048828125 95.39692687988281 696.4794311523438 132.4258422851562 696.4794311523438 C 154.1511077880859 696.4794311523438 168.9356536865234 696.3186645507812 176.36865234375 696.0017700195312 C 183.8576507568359 695.6824340820312 197.9224700927734 695.5205078125 218.1724700927734 695.5205078125 C 252.3585815429688 695.5205078125 293.0079956054688 695.9883422851562 294.0076293945312 695.9999389648438 C 300.4859313964844 695.9990234375 306.7689208984375 694.730224609375 312.68310546875 692.2286987304688 C 318.3987426757812 689.8112182617188 323.5321960449219 686.3499755859375 327.9411010742188 681.941162109375 C 332.3500061035156 677.5322265625 335.811279296875 672.398681640625 338.228759765625 666.6831665039062 C 340.7302856445312 660.7688598632812 341.9990844726562 654.4850463867188 342.0000305175781 648.0067138671875 C 341.9407348632812 641.1922607421875 340.59814453125 484.7958984375 342.0039367675781 462.3987731933594 C 342.8754577636719 448.5121459960938 342.541015625 394.740966796875 342.2459411621094 347.2995910644531 C 342.0572814941406 316.9717712402344 341.8791198730469 288.3258666992188 342.0001220703125 271.0186767578125 C 342.3125610351562 226.3183288574219 342.0032043457031 51.761474609375 342.0000305175781 49.99993896484375 C 342.0000305175781 43.5191650390625 340.731201171875 37.23321533203125 338.228759765625 31.31689453125 C 335.811279296875 25.60125732421875 332.3500061035156 20.4677734375 327.9411010742188 16.058837890625 C 323.5321960449219 11.64996337890625 318.3987426757812 8.18865966796875 312.68310546875 5.771240234375 C 306.7667541503906 3.268798828125 300.4808349609375 1.99993896484375 293.9955749511719 1.99993896484375 C 293.5407409667969 1.99896240234375 248.1041107177734 1.89825439453125 212.3923797607422 1.89825439453125 M 212.3923797607422 -0.10174560546875 C 248.5194549560547 -0.10174560546875 294.0000305175781 -6.103515625e-05 294.0000305175781 -6.103515625e-05 C 321.6141967773438 -6.103515625e-05 344.0000305175781 22.38580322265625 344.0000305175781 49.99993896484375 C 344.0000305175781 49.99993896484375 344.3161926269531 225.8064270019531 344.0000305175781 271.0326843261719 C 343.683837890625 316.259033203125 345.418212890625 439.92822265625 344.0000305175781 462.5240478515625 C 342.5817565917969 485.119873046875 344.0000305175781 647.9999389648438 344.0000305175781 647.9999389648438 C 344.0000305175781 675.6142578125 321.6141967773438 697.9999389648438 294.0000305175781 697.9999389648438 C 294.0000305175781 697.9999389648438 252.9996185302734 697.5205078125 218.1724853515625 697.5205078125 C 200.7557373046875 697.5205078125 184.8876495361328 697.6403198242188 176.4538421630859 697.9999389648438 C 168.0215606689453 698.3594970703125 151.1583251953125 698.4793701171875 132.4257965087891 698.4793701171875 C 94.95730590820312 698.4793701171875 50.00003051757812 697.9999389648438 50.00003051757812 697.9999389648438 C 22.3857421875 697.9999389648438 3.0517578125e-05 675.6142578125 3.0517578125e-05 647.9999389648438 C 3.0517578125e-05 647.9999389648438 -0.08544921875 538.7861328125 -0.08544921875 423.601318359375 C -0.08544921875 422.9867858886719 3.0517578125e-05 180.32080078125 3.0517578125e-05 180.32080078125 L 3.0517578125e-05 49.99993896484375 C 3.0517578125e-05 22.38580322265625 22.3857421875 -6.103515625e-05 50.00003051757812 -6.103515625e-05 C 50.00003051757812 -6.103515625e-05 95.54698181152344 0.10162353515625 131.7156677246094 0.10162353515625 C 149.8033294677734 0.10162353515625 165.5405883789062 0.07623291015625 172.0729217529297 -6.103515625e-05 C 178.6040802001953 -0.0762939453125 194.3304901123047 -0.10174560546875 212.3923797607422 -0.10174560546875 Z" stroke="none" fill="#29339b"/>
        </g>
        <g id="Phone_screen-2" data-name="Phone screen" transform="translate(2662 617)" fill="#fff" opacity="0.6">
          <path d="M -1843.000244140625 116.9998779296875 L -2082.999755859375 116.9998779296875 C -2087.18505859375 116.9998779296875 -2091.244873046875 116.1803741455078 -2095.06640625 114.5641250610352 C -2098.757568359375 113.0027923583984 -2102.072998046875 110.7673797607422 -2104.919921875 107.9201278686523 C -2107.76708984375 105.0732955932617 -2110.002685546875 101.7580413818359 -2111.564453125 98.06629180908203 C -2113.180419921875 94.24471282958984 -2114 90.18512725830078 -2114 86.00038146972656 L -2114 -58.67995452880859 L -2114 -393.1208801269531 L -2114 -506.9996948242188 C -2114 -511.1846923828125 -2113.180419921875 -515.2444458007812 -2111.564453125 -519.0662231445312 C -2110.002685546875 -522.7578735351562 -2107.76708984375 -526.0733032226562 -2104.920166015625 -528.9202270507812 C -2102.07275390625 -531.7676391601562 -2098.75732421875 -534.0030517578125 -2095.066162109375 -535.5643920898438 C -2091.244873046875 -537.1806030273438 -2087.18505859375 -538.0001220703125 -2082.999755859375 -538.0001220703125 L -2047.961547851562 -538.0001220703125 C -2047.986938476562 -537.6674194335938 -2047.999633789062 -537.33349609375 -2047.999633789062 -537.0003051757812 L -2047.999633789062 -525.9996337890625 C -2047.999633789062 -522.5275268554688 -2046.647583007812 -519.2631225585938 -2044.192504882812 -516.8076782226562 C -2041.737060546875 -514.3522338867188 -2038.472412109375 -512.9999389648438 -2035 -512.9999389648438 L -1890 -512.9999389648438 C -1886.527587890625 -512.9999389648438 -1883.262939453125 -514.3522338867188 -1880.8076171875 -516.8076782226562 C -1878.352416992188 -519.2631225585938 -1877.000366210938 -522.5275268554688 -1877.000366210938 -525.9996337890625 L -1877.000366210938 -537.0003051757812 C -1877.000366210938 -537.3336791992188 -1877.013061523438 -537.6676025390625 -1877.038452148438 -538.0001220703125 L -1843.000244140625 -538.0001220703125 C -1838.814697265625 -538.0001220703125 -1834.7548828125 -537.1806030273438 -1830.933715820312 -535.5643920898438 C -1827.242431640625 -534.0030517578125 -1823.927001953125 -531.7677001953125 -1821.079711914062 -528.9202880859375 C -1818.232299804688 -526.0729370117188 -1815.996948242188 -522.757568359375 -1814.435546875 -519.0661010742188 C -1812.8193359375 -515.2448120117188 -1811.999877929688 -511.1850280761719 -1811.999877929688 -506.9996948242188 L -1811.999877929688 86.00038146972656 C -1811.999877929688 90.18546295166016 -1812.8193359375 94.24504089355469 -1814.435546875 98.06637573242188 C -1815.996948242188 101.7576293945312 -1818.232299804688 105.0728759765625 -1821.079711914062 107.9200439453125 C -1823.926635742188 110.7672958374023 -1827.242065429688 113.0026245117188 -1830.933715820312 114.5641250610352 C -1834.7548828125 116.1803741455078 -1838.814697265625 116.9998779296875 -1843.000244140625 116.9998779296875 Z" stroke="none"/>
          <path d="M -1843.000244140625 115.9998779296875 C -1838.94921875 115.9998779296875 -1835.020629882812 115.2069625854492 -1831.3232421875 113.6431274414062 C -1827.750854492188 112.1320419311523 -1824.542358398438 109.9687118530273 -1821.786743164062 107.2129592895508 C -1819.030883789062 104.4572982788086 -1816.867553710938 101.2488784790039 -1815.3564453125 97.67679595947266 C -1813.792724609375 93.97946166992188 -1812.999877929688 90.05088043212891 -1812.999877929688 86.00038146972656 L -1812.999877929688 -506.9996948242188 C -1812.999877929688 -511.0504455566406 -1813.792724609375 -514.9791870117188 -1815.3564453125 -518.676513671875 C -1816.867553710938 -522.248779296875 -1819.030883789062 -525.4573974609375 -1821.786865234375 -528.2131958007812 C -1824.542602539062 -530.9690551757812 -1827.751220703125 -533.1324462890625 -1831.3232421875 -534.6433715820312 C -1835.020629882812 -536.2072143554688 -1838.94921875 -537.0001220703125 -1843.000244140625 -537.0001220703125 L -1876.000366210938 -537.0003051757812 L -1876.000366210938 -525.9996337890625 C -1876.000366210938 -522.2604370117188 -1877.456420898438 -518.744873046875 -1880.100463867188 -516.1005249023438 C -1882.744750976562 -513.456298828125 -1886.260498046875 -511.9999694824219 -1890 -511.9999694824219 L -2035 -511.9999694824219 C -2038.739501953125 -511.9999694824219 -2042.255249023438 -513.456298828125 -2044.899536132812 -516.1006469726562 C -2047.543579101562 -518.744873046875 -2048.999755859375 -522.2604370117188 -2048.999755859375 -525.9996337890625 L -2048.999755859375 -537.0001220703125 L -2082.999755859375 -537.0001220703125 C -2087.050537109375 -537.0001220703125 -2090.979248046875 -536.2072143554688 -2094.6767578125 -534.6433715820312 C -2098.248779296875 -533.1324462890625 -2101.457275390625 -530.9689331054688 -2104.212890625 -528.213134765625 C -2106.968505859375 -525.4577026367188 -2109.132080078125 -522.2491455078125 -2110.643310546875 -518.6766967773438 C -2112.20703125 -514.9788818359375 -2113 -511.0501098632812 -2113 -506.9996948242188 L -2113 -393.1208801269531 L -2113 -58.67995452880859 L -2113 86.00038146972656 C -2113 90.05054473876953 -2112.20703125 93.9791259765625 -2110.643310546875 97.67662811279297 C -2109.132080078125 101.2492141723633 -2106.968505859375 104.4577102661133 -2104.212890625 107.2130432128906 C -2101.457275390625 109.9687957763672 -2098.248779296875 112.132209777832 -2094.6767578125 113.6431274414062 C -2090.979248046875 115.2069625854492 -2087.050537109375 115.9998779296875 -2082.999755859375 115.9998779296875 L -1843.000244140625 115.9998779296875 M -1843.000244140625 117.9998779296875 L -2082.999755859375 117.9998779296875 C -2087.319580078125 117.9998779296875 -2091.510498046875 117.1537933349609 -2095.455810546875 115.4851303100586 C -2099.266357421875 113.8733749389648 -2102.6884765625 111.566047668457 -2105.627197265625 108.6272125244141 C -2108.56591796875 105.6887969970703 -2110.873291015625 102.2666244506836 -2112.4853515625 98.45587921142578 C -2114.15380859375 94.51054382324219 -2115 90.31996154785156 -2115 86.00038146972656 L -2115 -58.67995452880859 L -2115 -393.1208801269531 L -2115 -506.9996948242188 C -2115 -511.3195495605469 -2114.15380859375 -515.5103149414062 -2112.4853515625 -519.4556884765625 C -2110.873291015625 -523.2665405273438 -2108.56591796875 -526.6887817382812 -2105.627197265625 -529.6273803710938 C -2102.688232421875 -532.5662841796875 -2099.26611328125 -534.8735961914062 -2095.455810546875 -536.4853515625 C -2091.510498046875 -538.154052734375 -2087.319580078125 -539.0001220703125 -2082.999755859375 -539.0001220703125 L -2046.833740234375 -539.0001220703125 C -2046.943359375 -538.3458862304688 -2046.999633789062 -537.6732788085938 -2046.999633789062 -537.0003051757812 L -2046.999633789062 -525.9996337890625 C -2046.999633789062 -522.7945556640625 -2045.75146484375 -519.7811889648438 -2043.4853515625 -517.5147705078125 C -2041.21875 -515.2482299804688 -2038.205322265625 -513.9999389648438 -2035 -513.9999389648438 L -1890 -513.9999389648438 C -1886.794677734375 -513.9999389648438 -1883.78125 -515.2482299804688 -1881.5146484375 -517.5147705078125 C -1879.24853515625 -519.7811889648438 -1878.000366210938 -522.7945556640625 -1878.000366210938 -525.9996337890625 L -1878.000366210938 -537.0003051757812 C -1878.000366210938 -537.6710205078125 -1878.05615234375 -538.3438720703125 -1878.166259765625 -539.0001220703125 L -1843.000244140625 -539.0001220703125 C -1838.68017578125 -539.0001220703125 -1834.489379882812 -538.154052734375 -1830.544189453125 -536.4853515625 C -1826.733764648438 -534.8737182617188 -1823.3115234375 -532.5663452148438 -1820.37255859375 -529.6273803710938 C -1817.433715820312 -526.6885986328125 -1815.126342773438 -523.266357421875 -1813.514526367188 -519.4556884765625 C -1811.845947265625 -515.5104370117188 -1810.999877929688 -511.3197021484375 -1810.999877929688 -506.9996948242188 L -1810.999877929688 86.00038146972656 C -1810.999877929688 90.32012939453125 -1811.845947265625 94.51071166992188 -1813.514526367188 98.45587921142578 C -1815.126342773438 102.2663803100586 -1817.433715820312 105.6885452270508 -1820.37255859375 108.6272125244141 C -1823.311279296875 111.566047668457 -1826.733642578125 113.8733749389648 -1830.544189453125 115.4851303100586 C -1834.489379882812 117.1537933349609 -1838.68017578125 117.9998779296875 -1843.000244140625 117.9998779296875 Z" stroke="none" fill="#29339b"/>
        </g>
        <g id="Header_icon-2" data-name="Header icon" transform="translate(-4896 -2128)">
          <path id="Line-3" data-name="Line" d="M1.47,75.29c.415.23,16.24.3,24.779.058,7.515-.212,15.03-.818,22.563-.882.454,0,3.09,0,3.561,0,.525.132,1.292-.592,1.293-1.211s-1.024-1.127-1.935-1.083c-7.412-.046-14.717.324-22.176.376-7.977.327-25.064.07-25.064.07l-3.1-.184S.132,72.578.1,73.743,1.055,75.06,1.47,75.29Z" transform="translate(5568.247 2141.488)" fill="#29339b"/>
          <circle id="Ellipse_335-2" data-name="Ellipse 335" cx="3.5" cy="3.5" r="3.5" transform="translate(5626 2211)" fill="#29339b"/>
        </g>
        <path id="Line-4" data-name="Line" d="M2.6,75.378c1.069.236,41.843.308,63.843.06,19.363-.218,38.725-.841,58.134-.907,1.169,0,7.961,0,9.175,0,1.352.136,1.133-.818,1.135-1.454s-.443-.95-2.788-.9c-19.1-.047-37.919.333-57.138.387-20.552.336-64.578.072-64.578.072l-7.987-.189S.833,72.6.758,73.8,1.53,75.141,2.6,75.378Z" transform="translate(630.747 641.488)" fill="#29339b" stroke="#29339b" stroke-width="1"/>
        <g id="status_bar_light-2" data-name="status bar/light" transform="translate(470 5)">
          <g id="Battery-2" data-name="Battery" transform="translate(13 80)">
            <g id="Border-2" data-name="Border" clip-path="url(#clip-path)">
              <path id="Fill-6" data-name="Fill" d="M2.667,0H19.333A2.667,2.667,0,0,1,22,2.667v6h0a2.667,2.667,0,0,1-2.667,2.667H2.667A2.667,2.667,0,0,1,0,8.667v-6H0A2.667,2.667,0,0,1,2.667,0Z" transform="translate(336 17.333)" fill="none" stroke="rgba(21,131,216,0.5)" stroke-width="2"/>
            </g>
            <g id="Cap-2" data-name="Cap" clip-path="url(#clip-path-2)">
              <path id="Fill-7" data-name="Fill" d="M354-28h11.328v14H354Z" transform="translate(0 44)" fill="#29339b"/>
            </g>
            <g id="Capacity-2" data-name="Capacity" clip-path="url(#clip-path-3)">
              <path id="Fill-8" data-name="Fill" d="M333-29.667h28v17.333H333Z" transform="translate(0 44)" fill="#29339b"/>
            </g>
          </g>
          <g id="Wifi-3" data-name="Wifi" transform="translate(13 80)">
            <g id="Wifi-4" data-name="Wifi" clip-path="url(#clip-path-4)">
              <path id="Fill-9" data-name="Fill" d="M310.694-31.669h25.272V-10.7H310.694Z" transform="translate(0 44)" fill="#29339b"/>
            </g>
          </g>
          <g id="Cellular_Connection-3" data-name="Cellular Connection" transform="translate(13 80)">
            <g id="Cellular_Connection-4" data-name="Cellular Connection" clip-path="url(#clip-path-5)">
              <path id="Fill-10" data-name="Fill" d="M288.667-31.333h27v20.667h-27Z" transform="translate(0 44)" fill="#29339b"/>
            </g>
          </g>
          <g id="Bars___Time_Black-2" data-name="Bars/_/Time Black" transform="translate(62 80)">
            <path id="Background-2" data-name="Background" d="M21-19H75V-35H21Z" transform="translate(8 50)" fill="none"/>
            <text id="_10:20-2" data-name="10:20" transform="translate(33 29)" fill="#29339b" font-size="14" font-family="tekton-pro, tekton-pro" font-weight="700"><tspan x="0" y="0">10:20</tspan></text>
          </g>
        </g>
      </g>
      <text id="Hello_Megan-2" data-name="Hello, Megan" transform="translate(114 188)" fill="#29339b" font-size="40" font-family="tekton-pro, tekton-pro" font-weight="700"><tspan x="0" y="27">Hello, Megan</tspan></text>
      <text id="_120.00-2" data-name="$120.00" transform="translate(114 284)" fill="#29339b" font-size="30" font-family="tekton-pro, tekton-pro" font-weight="700"><tspan x="0" y="20">$120.00</tspan></text>
      <text id="Due_2_1_20" data-name="Due 2/1/20" transform="translate(285 277)" fill="#29339b" font-size="14" font-family="tekton-pro, tekton-pro" font-weight="700"><tspan x="0" y="10">Due 2/1/20</tspan></text>
      <text id="Setup_AutoPay" data-name="Setup AutoPay" transform="translate(285 298)" fill="#29339b" font-size="14" font-family="tekton-pro, tekton-pro" font-weight="700" text-decoration="underline"><tspan x="0" y="10">Setup AutoPay</tspan></text>
      <g id="Buttons_Pill_Button_Large-2" data-name="Buttons / Pill Button / Large" transform="translate(52 84)">
        <path id="Pill_Button-2" data-name="Pill Button" d="M82.537,57.114c14.663.3,29.322.053,43.985.007,11.334-.039,23.715-3.314,31.8-11.757,8.243-8.609,8.9-23.414,2.3-33.194C153.446,1.536,138.268.329,126.615.141c-6.483-.106-12.97-.22-19.453.007-5.908.209-11.8.554-17.718.518-7.438-.043-14.876.1-22.31-.177C60.373.24,53.623-.058,46.853.031,34.6.184,20.887-.473,10.188,6.55.142,13.143-2.349,27.813,2.161,38.427c4.6,10.837,17.257,16.5,28.254,18.211,6.579,1.022,13.435.5,20.071.557,6.781.06,13.563.124,20.344.078q5.855-.037,11.707-.16a1.065,1.065,0,0,0,0-2.129c-13.694.277-27.378.089-41.072.018-5.8-.028-11.185-.181-16.788-1.852A38.745,38.745,0,0,1,9.4,44.974C.682,36.929-.277,21.993,6.8,12.526c3.68-4.925,9.943-7.381,15.756-8.7a85.142,85.142,0,0,1,18.062-1.59c6.345-.06,12.676-.156,19.017.075,6.04.216,12.076.518,18.123.476,6.916-.05,13.84.114,20.756-.153,5.642-.216,11.274-.515,16.923-.507,11.962.021,25.518-.841,36.363,5.05a20.436,20.436,0,0,1,10.2,13.293,26.535,26.535,0,0,1-1.324,17.786c-4.8,10.2-17.619,15.422-28.236,16.544-3.031.319-6.1.185-9.141.2q-5.158.027-10.316.078c-6.43.057-12.864.106-19.294.06q-5.573-.043-11.143-.16A1.067,1.067,0,0,0,82.537,57.114Z" transform="translate(113 548.985)" fill="#29339b"/>
        <text id="Make_a_Payment-2" data-name="Make a Payment" transform="translate(197 582)" fill="#29339b" font-size="18" font-family="tekton-pro, tekton-pro" font-weight="700"><tspan x="-59.4" y="0">Make a Payment</tspan></text>
      </g>
      <g id="Group_30" data-name="Group 30" transform="translate(1 -21)">
        <g id="Group_29-2" data-name="Group 29" transform="translate(0 50)">
          <path id="Base-2" data-name="Base" d="M0,.977V140.6a1,1,0,0,0,1,.979l84.993.212q67.191.165,134.375.337,15.392.035,30.777.078a1,1,0,0,0,1-.979c-.008-46.751-.591-93.5-.6-140.253a1,1,0,0,0-1-.979h-84.33Q99.023,0,31.823,0H1A.979.979,0,0,0,1,1.957H250.552l-1-.979c.008,46.751.591,93.5.6,140.253l1-.979-84.993-.212q-67.191-.165-134.375-.337-15.392-.035-30.777-.078l1,.979V.985A1,1,0,0,0,0,.977Z" transform="translate(105 385.01)" fill="#29339b"/>
          <g id="Group_8-2" data-name="Group 8" transform="translate(-19 -18.619)">
            <path id="Path_1005-2" data-name="Path 1005" d="M2682.357,2747.487a2.429,2.429,0,0,0-.085-.6c-.782-5.215-4.673-7.285-9.771-7.34q-8-.087-16-.124c-13.65-.065-27.306-.059-40.953.265-5.083.121-11.244-.419-13.42,5.347-.7,1.856-.527,3.889-.518,5.836l.09,22.79c.027,6.937-.027,13.881.083,20.817.045,2.872.658,5.53,3.05,7.417,2.28,1.8,4.97,1.759,7.749,1.892,3.677.176,7.352.326,11.032.36,7.563.068,15.126-.143,22.688-.161,7.176-.016,14.419.3,21.583-.145,5.246-.328,12.365.108,14.509-5.907a16.388,16.388,0,0,0,.459-5.755Zm-76.212.4c.482-4.1,4.71-3.521,7.81-3.6s6.225-.14,9.338-.185q10.208-.152,20.417-.146,9.409-.007,18.816.061c3.731.027,14.768-1.668,15.278,3.476q.156,14.28.313,28.561-3.644-3.4-7.325-6.766c-2.3-2.1-4.813-4.938-8.148-5.155-3.294-.215-5.951,2.11-8.336,4.075a71.89,71.89,0,0,0-7.44,7.07c-4.741-4.764-9.953-9.029-15.829-11.344-5.636-2.22-8.758,1.244-12.554,4.911l-12.209,11.794-.08-20.143C2606.18,2756.4,2605.667,2751.956,2606.146,2747.883Zm72.18,47.254c-.552,5.37-11.272,4.275-15.36,4.3-6.595.034-13.19-.023-19.784.012-6.524.035-13.049.208-19.574.149-2.862-.026-5.721-.115-8.58-.245-3.228-.145-8.145.626-8.694-3.672a54.84,54.84,0,0,1-.124-8.684,2.061,2.061,0,0,0,.173-.137l11.623-11.227c2.071-2,4.076-4.344,6.34-6.124,3.309-2.6,5.577-1.316,8.654.652,8.508,5.444,15.257,13.3,21.914,20.779,1.952,2.194,5.162-1.036,3.22-3.219-2.574-2.892-5.276-6.074-8.148-9.186,3.412-3.972,9.844-11,13.708-9.253,2.589,1.171,5,4.239,7.09,6.162q3.725,3.43,7.409,6.908C2678.268,2786.533,2678.753,2790.987,2678.326,2795.138Z" transform="translate(-2391.884 -2297.219)" fill="#29339b" stroke="rgba(0,0,0,0)" stroke-width="1"/>
            <path id="Path_1006-2" data-name="Path 1006" d="M2656.165,2767.9a8.88,8.88,0,0,0,9.082-8.665,9.247,9.247,0,0,0-9.1-9.188c-5.359-.066-8.39,3.877-8.516,8.922C2647.732,2763.834,2651.058,2767.917,2656.165,2767.9Zm-.387-13.305a4.669,4.669,0,0,1,4.917,4.64,4.227,4.227,0,0,1-4.144,4.087c-2.73.225-4.312-1.788-4.365-4.354C2652.244,2756.6,2653.119,2754.715,2655.777,2754.6Z" transform="translate(-2402.992 -2299.79)" fill="#29339b" stroke="rgba(0,0,0,0)" stroke-width="1"/>
          </g>
          <g id="Rectangle_446-2" data-name="Rectangle 446" transform="translate(365 385)" fill="#fff" stroke="#29339b" stroke-width="2">
            <rect width="32" height="142.21" stroke="none"/>
            <rect x="1" y="1" width="30" height="140.21" fill="none"/>
          </g>
          <g id="Ellipse_336-2" data-name="Ellipse 336" transform="translate(352 340)" fill="#fff" stroke="#29339b" stroke-width="2">
            <circle cx="17" cy="17" r="17" stroke="none"/>
            <circle cx="17" cy="17" r="16" fill="none"/>
          </g>
          <g id="Icon_-_Plus-3" data-name="Icon - Plus" transform="translate(360.557 349.5)">
            <path id="Icon_-_Plus-4" data-name="Icon - Plus" d="M6.521,13.991q.256-2.431.43-4.868-2.834-.079-5.666-.268c-1.708-.116-1.717-2.8,0-2.684q2.916.195,5.833.272Q7.253,3.872,7.3,1.3a1.335,1.335,0,0,1,2.669,0q-.047,2.6-.185,5.193,2.709.023,5.42-.053c1.722-.049,1.713,2.634,0,2.684q-2.795.081-5.587.053-.173,2.41-.426,4.818a1.432,1.432,0,0,1-1.474,1.283A1.113,1.113,0,0,1,6.521,13.991Z" transform="translate(0 0)" fill="#29339b"/>
          </g>
        </g>
        <text id="Saved_Accounts-2" data-name="Saved Accounts" transform="translate(105 409)" fill="#29339b" font-size="20" font-family="tekton-pro, tekton-pro" font-weight="700"><tspan x="0" y="14">Saved Accounts</tspan></text>
      </g>
      <text id="ACCOUNT_BALANCE-2" data-name="ACCOUNT BALANCE" transform="translate(114 265)" fill="#29339b" font-size="10" font-family="tekton-pro, tekton-pro" font-weight="700"><tspan x="0" y="7">ACCOUNT BALANCE</tspan></text>
      <path id="Path_3429" data-name="Path 3429" d="M771.283,324.476c-30.66-7.568-65.828,19.55-73.846,45.451-6.586,18.668,3.267,41.48,18.455,54.315,12.7,10.732,31.158,15.527,47.993,17,21.359,1.872,44.417-1.44,63.674-10.259,17.407-7.972,35.193-23.56,35.7-42.5.476-17.673-14.081-32.628-30.192-40.6-19.11-9.458-41.979-11.92-63.359-9.858-32.553,3.141-62.12,17.2-86.254,36.981l-.55-.512c27.155-25.819,64.048-42.858,103.73-42.973,36.6-.105,91.062,19.842,84.254,61.637-6.538,40.153-61.741,55.272-99.475,53.58-17.762-.8-37.042-5-51.784-14.563-16.728-10.853-27.117-29.644-27.389-48.33-.26-17.9,11.312-33.87,25.676-45.3A75.139,75.139,0,0,1,749.2,323.5C751.771,322.974,771.477,320.706,771.283,324.476Z" transform="translate(-446.906 -92.344)" fill="#29d9c2" stroke="#29d9c2" stroke-miterlimit="10" stroke-width="2"/>
    </g>
  </g>
</svg>
