<svg xmlns="http://www.w3.org/2000/svg" xmlns:xlink="http://www.w3.org/1999/xlink" width="1000" viewBox="0 0 1000 765" style="max-width:100%;">
  <defs>
    <clipPath id="clip-path">
      <path id="Shape" d="M338.667-26.667h16.667A2.667,2.667,0,0,1,358-24v6h0a2.667,2.667,0,0,1-2.667,2.667H338.667A2.667,2.667,0,0,1,336-18v-6h0A2.667,2.667,0,0,1,338.667-26.667Z" transform="translate(-336 26.667)" fill="none" clip-rule="evenodd"/>
    </clipPath>
    <clipPath id="clip-path-2">
      <path id="Shape-2" data-name="Shape" d="M359-23v4a2.17,2.17,0,0,0,1.328-2A2.17,2.17,0,0,0,359-23" transform="translate(-359 23)" fill="#29339b"/>
    </clipPath>
    <clipPath id="clip-path-3">
      <path id="Shape-3" data-name="Shape" d="M339.333-24.667h15.333A1.333,1.333,0,0,1,356-23.333v4.667h0a1.333,1.333,0,0,1-1.333,1.333H339.333A1.333,1.333,0,0,1,338-18.667v-4.667h0A1.333,1.333,0,0,1,339.333-24.667Z" transform="translate(-338 24.667)" fill="#29339b"/>
    </clipPath>
    <clipPath id="clip-path-4">
      <path id="Shape-4" data-name="Shape" d="M323.33-24.392a8.64,8.64,0,0,1,5.953,2.378.308.308,0,0,0,.433,0l1.156-1.167a.322.322,0,0,0,.093-.229.322.322,0,0,0-.1-.227,10.9,10.9,0,0,0-15.08,0,.322.322,0,0,0-.1.227.322.322,0,0,0,.093.229l1.156,1.167a.308.308,0,0,0,.433,0,8.641,8.641,0,0,1,5.954-2.378Zm0,3.8a4.907,4.907,0,0,1,3.294,1.27.31.31,0,0,0,.433-.006l1.155-1.167a.322.322,0,0,0,.094-.23.322.322,0,0,0-.1-.229,7.159,7.159,0,0,0-9.752,0,.322.322,0,0,0-.1.229.322.322,0,0,0,.094.23l1.154,1.167a.31.31,0,0,0,.433.006,4.907,4.907,0,0,1,3.292-1.27Zm2.219,2.784a.314.314,0,0,0,.094-.231.314.314,0,0,0-.1-.226,3.422,3.422,0,0,0-4.419,0,.314.314,0,0,0-.1.226.314.314,0,0,0,.094.231l2,2.016a.311.311,0,0,0,.222.093.312.312,0,0,0,.222-.093Z" transform="translate(-315.694 26.669)" fill="#29339b"/>
    </clipPath>
    <clipPath id="clip-path-5">
      <path id="Shape-5" data-name="Shape" d="M294.667-19.667h1a1,1,0,0,1,1,1v2a1,1,0,0,1-1,1h-1a1,1,0,0,1-1-1v-2a1,1,0,0,1,1-1Zm4.667-2h1a1,1,0,0,1,1,1v4a1,1,0,0,1-1,1h-1a1,1,0,0,1-1-1v-4A1,1,0,0,1,299.333-21.667ZM304-24h1a1,1,0,0,1,1,1v6.333a1,1,0,0,1-1,1h-1a1,1,0,0,1-1-1V-23A1,1,0,0,1,304-24Zm4.667-2.333h1a1,1,0,0,1,1,1v8.667a1,1,0,0,1-1,1h-1a1,1,0,0,1-1-1v-8.667a1,1,0,0,1,1-1Z" transform="translate(-293.667 26.333)" fill="#29339b"/>
    </clipPath>
  </defs>
  <g id="Group_2538" data-name="Group 2538" transform="translate(-49 -68)">
    <g id="Group_2526" data-name="Group 2526">
      <g id="Rectangle_2440" data-name="Rectangle 2440" transform="translate(49 68)" fill="#f9fafc" stroke="#707070" stroke-width="1">
        <rect width="1000" height="765" stroke="none"/>
        <rect x="0.5" y="0.5" width="999" height="764" fill="none"/>
      </g>
      <g id="Mobile_wireframe" data-name="Mobile wireframe" transform="translate(421.915 100.898)">
        <g id="Phone_border_screen" data-name="Phone border screen" transform="translate(0.085 0.102)" fill="none">
          <path d="M50,0S152.478.229,172.073,0,294,0,294,0a50,50,0,0,1,50,50s.316,175.806,0,221.033,1.418,168.9,0,191.491S344,648,344,648a50,50,0,0,1-50,50s-92.248-1.079-117.546,0S50,698,50,698A50,50,0,0,1,0,648S-.085,538.786-.085,423.6c0-.615.085-243.281.085-243.281V50A50,50,0,0,1,50,0Z" stroke="none"/>
          <path d="M 212.3923797607422 1.89825439453125 C 191.4261932373047 1.89825439453125 177.86865234375 1.93243408203125 172.0962982177734 1.9998779296875 C 166.3073883056641 2.0673828125 152.7213745117188 2.1016845703125 131.7156524658203 2.1016845703125 C 95.95838928222656 2.1016845703125 50.45101928710938 2.0009765625 50.00003051757812 1.99993896484375 C 43.51919555664062 1.99993896484375 37.2332763671875 3.268798828125 31.31683349609375 5.771240234375 C 25.60128784179688 8.18865966796875 20.46774291992188 11.64996337890625 16.058837890625 16.058837890625 C 11.6500244140625 20.4677734375 8.188751220703125 25.60125732421875 5.77130126953125 31.31689453125 C 3.268829345703125 37.23321533203125 2.000030517578125 43.5191650390625 2.000030517578125 49.99993896484375 L 2.000030517578125 180.321533203125 C 1.99920654296875 182.7481689453125 1.91455078125 422.994140625 1.91455078125 423.601318359375 C 1.91455078125 537.4681396484375 1.99920654296875 646.90625 2.000030517578125 647.9999389648438 C 2.000030517578125 654.4807739257812 3.268829345703125 660.7667846679688 5.77130126953125 666.6831665039062 C 8.188751220703125 672.398681640625 11.6500244140625 677.5322265625 16.058837890625 681.941162109375 C 20.46774291992188 686.3499755859375 25.60128784179688 689.8112182617188 31.31683349609375 692.2286987304688 C 37.23318481445312 694.7311401367188 43.51919555664062 695.9999389648438 50.00003051757812 695.9999389648438 L 50.01065063476562 695.9999389648438 L 50.02139282226562 696.0000610351562 C 50.4708251953125 696.0048828125 95.39692687988281 696.4794311523438 132.4258422851562 696.4794311523438 C 154.1511077880859 696.4794311523438 168.9356536865234 696.3186645507812 176.36865234375 696.0017700195312 C 183.8576507568359 695.6824340820312 197.9224700927734 695.5205078125 218.1724700927734 695.5205078125 C 252.3585815429688 695.5205078125 293.0079956054688 695.9883422851562 294.0076293945312 695.9999389648438 C 300.4859313964844 695.9990234375 306.7689208984375 694.730224609375 312.68310546875 692.2286987304688 C 318.3987426757812 689.8112182617188 323.5321960449219 686.3499755859375 327.9411010742188 681.941162109375 C 332.3500061035156 677.5322265625 335.811279296875 672.398681640625 338.228759765625 666.6831665039062 C 340.7302856445312 660.7688598632812 341.9990844726562 654.4850463867188 342.0000305175781 648.0067138671875 C 341.9407348632812 641.1922607421875 340.59814453125 484.7958984375 342.0039367675781 462.3987731933594 C 342.8754577636719 448.5121459960938 342.541015625 394.740966796875 342.2459411621094 347.2995910644531 C 342.0572814941406 316.9717712402344 341.8791198730469 288.3258666992188 342.0001220703125 271.0186767578125 C 342.3125610351562 226.3183288574219 342.0032043457031 51.761474609375 342.0000305175781 49.99993896484375 C 342.0000305175781 43.5191650390625 340.731201171875 37.23321533203125 338.228759765625 31.31689453125 C 335.811279296875 25.60125732421875 332.3500061035156 20.4677734375 327.9411010742188 16.058837890625 C 323.5321960449219 11.64996337890625 318.3987426757812 8.18865966796875 312.68310546875 5.771240234375 C 306.7667541503906 3.268798828125 300.4808349609375 1.99993896484375 293.9955749511719 1.99993896484375 C 293.5407409667969 1.99896240234375 248.1041107177734 1.89825439453125 212.3923797607422 1.89825439453125 M 212.3923797607422 -0.10174560546875 C 248.5194549560547 -0.10174560546875 294.0000305175781 -6.103515625e-05 294.0000305175781 -6.103515625e-05 C 321.6141967773438 -6.103515625e-05 344.0000305175781 22.38580322265625 344.0000305175781 49.99993896484375 C 344.0000305175781 49.99993896484375 344.3161926269531 225.8064270019531 344.0000305175781 271.0326843261719 C 343.683837890625 316.259033203125 345.418212890625 439.92822265625 344.0000305175781 462.5240478515625 C 342.5817565917969 485.119873046875 344.0000305175781 647.9999389648438 344.0000305175781 647.9999389648438 C 344.0000305175781 675.6142578125 321.6141967773438 697.9999389648438 294.0000305175781 697.9999389648438 C 294.0000305175781 697.9999389648438 252.9996185302734 697.5205078125 218.1724853515625 697.5205078125 C 200.7557373046875 697.5205078125 184.8876495361328 697.6403198242188 176.4538421630859 697.9999389648438 C 168.0215606689453 698.3594970703125 151.1583251953125 698.4793701171875 132.4257965087891 698.4793701171875 C 94.95730590820312 698.4793701171875 50.00003051757812 697.9999389648438 50.00003051757812 697.9999389648438 C 22.3857421875 697.9999389648438 3.0517578125e-05 675.6142578125 3.0517578125e-05 647.9999389648438 C 3.0517578125e-05 647.9999389648438 -0.08544921875 538.7861328125 -0.08544921875 423.601318359375 C -0.08544921875 422.9867858886719 3.0517578125e-05 180.32080078125 3.0517578125e-05 180.32080078125 L 3.0517578125e-05 49.99993896484375 C 3.0517578125e-05 22.38580322265625 22.3857421875 -6.103515625e-05 50.00003051757812 -6.103515625e-05 C 50.00003051757812 -6.103515625e-05 95.54698181152344 0.10162353515625 131.7156677246094 0.10162353515625 C 149.8033294677734 0.10162353515625 165.5405883789062 0.07623291015625 172.0729217529297 -6.103515625e-05 C 178.6040802001953 -0.0762939453125 194.3304901123047 -0.10174560546875 212.3923797607422 -0.10174560546875 Z" stroke="none" fill="#29339b"/>
        </g>
        <g id="Phone_screen" data-name="Phone screen" transform="translate(20.085 21.102)" fill="#fff" opacity="0.6">
          <path d="M 271.9998474121094 656 L 32.00043869018555 656 C 27.81502342224121 656 23.75527381896973 655.1804809570312 19.93402290344238 653.5642700195312 C 16.24243927001953 652.0028076171875 12.92702388763428 649.7675170898438 10.07985687255859 646.9202270507812 C 7.232439994812012 644.0729370117188 4.997023582458496 640.7576904296875 3.435773372650146 637.06640625 C 1.819523453712463 633.2452392578125 1.000023484230042 629.1856689453125 1.000023484230042 625.00048828125 L 1.000023484230042 480.320068359375 L 1.000023484230042 145.8791656494141 L 1.000023484230042 32.00041580200195 C 1.000023484230042 27.81500053405762 1.819523453712463 23.75525093078613 3.435773372650146 19.93400001525879 C 4.997023582458496 16.24258422851562 7.232439994812012 12.92716693878174 10.07985687255859 10.07983303070068 C 12.92718982696533 7.23241662979126 16.24260711669922 4.997000217437744 19.93402290344238 3.435750007629395 C 23.75527381896973 1.819499969482422 27.81502342224121 1 32.00043869018555 1 L 67.03853607177734 1 C 67.01319885253906 1.33246374130249 67.00044250488281 1.666401267051697 67.00044250488281 1.999833345413208 L 67.00044250488281 13.0004997253418 C 67.00044250488281 16.47266578674316 68.35252380371094 19.73716735839844 70.80769348144531 22.1924991607666 C 73.26319122314453 24.64800071716309 76.52777099609375 26.0002498626709 80.00010681152344 26.0002498626709 L 225.0000305175781 26.0002498626709 C 228.4723510742188 26.0002498626709 231.7369384765625 24.64800071716309 234.1923522949219 22.1924991607666 C 236.6476135253906 19.73716735839844 237.9996948242188 16.47266578674316 237.9996948242188 13.0004997253418 L 237.9996948242188 1.999833345413208 C 237.9996948242188 1.666401267051697 237.9869384765625 1.33246374130249 237.9615936279297 1 L 271.9998474121094 1 C 276.1851806640625 1 280.2449340820312 1.819499969482422 284.0663452148438 3.435750007629395 C 287.7575988769531 4.997000217437744 291.0729370117188 7.23241662979126 293.9203491210938 10.07983303070068 C 296.7677612304688 12.92716693878174 299.0032043457031 16.24258422851562 300.564453125 19.93400001525879 C 302.1806945800781 23.75525093078613 303.0001831054688 27.81500053405762 303.0001831054688 32.00041580200195 L 303.0001831054688 625.00048828125 C 303.0001831054688 629.1856689453125 302.1806945800781 633.2452392578125 300.564453125 637.06640625 C 299.0032043457031 640.7576904296875 296.7677612304688 644.0729370117188 293.9203491210938 646.920166015625 C 291.0731201171875 649.7675170898438 287.7577819824219 652.0029296875 284.0662841796875 653.5642700195312 C 280.2449340820312 655.1804809570312 276.1851806640625 656 271.9998474121094 656 Z" stroke="none"/>
          <path d="M 271.9998474121094 655 C 276.0505981445312 655 279.9792785644531 654.2070922851562 283.6767883300781 652.6432495117188 C 287.2490234375 651.13232421875 290.45751953125 648.9689331054688 293.2132873535156 646.2130737304688 C 295.9691772460938 643.4573364257812 298.1325988769531 640.2488403320312 299.6434326171875 636.6769409179688 C 301.207275390625 632.9795532226562 302.0001831054688 629.0510864257812 302.0001831054688 625.00048828125 L 302.0001831054688 32.00041580200195 C 302.0001831054688 27.94958305358887 301.207275390625 24.02091598510742 299.6434326171875 20.32349967956543 C 298.1325988769531 16.75133323669434 295.9691162109375 13.54283332824707 293.2131958007812 10.78691673278809 C 290.4573669433594 8.031000137329102 287.2488708496094 5.867583274841309 283.6767883300781 4.356750011444092 C 279.9792785644531 2.792916774749756 276.0505981445312 2 271.9998474121094 2 L 238.9996948242188 1.999833345413208 L 238.9996948242188 13.0004997253418 C 238.9996948242188 16.73983383178711 237.5435180664062 20.25533294677734 234.8995208740234 22.89966583251953 C 232.2551879882812 25.54391670227051 228.7394409179688 27.0002498626709 225.0000305175781 27.0002498626709 L 80.00010681152344 27.0002498626709 C 76.26068878173828 27.0002498626709 72.74494171142578 25.54391670227051 70.10060882568359 22.89958381652832 C 67.45660400390625 20.25533294677734 66.00044250488281 16.73983383178711 66.00044250488281 13.0004997253418 L 66.00044250488281 2 L 32.00043869018555 2 C 27.94960594177246 2 24.02094078063965 2.792916774749756 20.32352256774902 4.356750011444092 C 16.75135612487793 5.867583274841309 13.54285717010498 8.031083106994629 10.786940574646 10.78699970245361 C 8.031106948852539 13.54283332824707 5.867606639862061 16.75133323669434 4.356773376464844 20.32349967956543 C 2.792940139770508 24.02091598510742 2.000023365020752 27.94958305358887 2.000023365020752 32.00041580200195 L 2.000023365020752 145.8791656494141 L 2.000023365020752 480.320068359375 L 2.000023365020752 625.00048828125 C 2.000023365020752 629.0510864257812 2.792940139770508 632.9795532226562 4.356773376464844 636.6769409179688 C 5.867606639862061 640.2488403320312 8.031023025512695 643.4573364257812 10.78702354431152 646.2131958007812 C 13.54269027709961 648.9688110351562 16.75119018554688 651.1322631835938 20.32352256774902 652.6432495117188 C 24.02094078063965 654.2070922851562 27.94960594177246 655 32.00043869018555 655 L 271.9998474121094 655 M 271.9998474121094 657 L 32.00043869018555 657 C 27.68044090270996 657 23.48969078063965 656.1539306640625 19.5444393157959 654.4852294921875 C 15.73385715484619 652.8734741210938 12.3115234375 650.566162109375 9.372773170471191 647.6273193359375 C 6.433856964111328 644.6885986328125 4.126440048217773 641.2664184570312 2.514773368835449 637.4559936523438 C 0.8461068272590637 633.5108032226562 2.347819099668413e-05 629.3202514648438 2.347819099668413e-05 625.00048828125 L 2.347819099668413e-05 480.320068359375 L 2.347819099668413e-05 145.8791656494141 L 2.347819099668413e-05 32.00041580200195 C 2.347819099668413e-05 27.68041610717773 0.8461068272590637 23.48966598510742 2.514773368835449 19.5444164276123 C 4.126440048217773 15.73391628265381 6.433773517608643 12.31166648864746 9.372773170471191 9.372750282287598 C 12.31169033050537 6.433750152587891 15.73394012451172 4.126416683197021 19.5444393157959 2.514750003814697 C 23.48969078063965 0.8460833430290222 27.68044090270996 5.684341886080801e-14 32.00043869018555 5.684341886080801e-14 L 68.16635894775391 5.684341886080801e-14 C 68.05661010742188 0.6540833115577698 68.00044250488281 1.326583385467529 68.00044250488281 1.999833345413208 L 68.00044250488281 13.0004997253418 C 68.00044250488281 16.2055835723877 69.24851989746094 19.21891593933105 71.51485443115234 21.48541641235352 C 73.78144073486328 23.75200080871582 76.79485321044922 25.0002498626709 80.00010681152344 25.0002498626709 L 225.0000305175781 25.0002498626709 C 228.2052764892578 25.0002498626709 231.2186889648438 23.75200080871582 233.4852752685547 21.48541641235352 C 235.7516021728516 19.21891593933105 236.9996948242188 16.2055835723877 236.9996948242188 13.0004997253418 L 236.9996948242188 1.999833345413208 C 236.9996948242188 1.328916668891907 236.9438629150391 0.656083345413208 236.8337707519531 5.684341886080801e-14 L 271.9998474121094 5.684341886080801e-14 C 276.3197631835938 5.684341886080801e-14 280.5105285644531 0.8460833430290222 284.4558715820312 2.514750003814697 C 288.266357421875 4.126416683197021 291.6885986328125 6.433833122253418 294.62744140625 9.372750282287598 C 297.5664367675781 12.31166648864746 299.873779296875 15.73391628265381 301.4854431152344 19.5444164276123 C 303.1541137695312 23.48966598510742 304.0001831054688 27.68041610717773 304.0001831054688 32.00041580200195 L 304.0001831054688 625.00048828125 C 304.0001831054688 629.3202514648438 303.1541137695312 633.5108032226562 301.4854431152344 637.4559936523438 C 299.873779296875 641.2664184570312 297.5663452148438 644.6885986328125 294.62744140625 647.6273193359375 C 291.6886901855469 650.566162109375 288.2664489746094 652.8734741210938 284.4558715820312 654.4852294921875 C 280.5105285644531 656.1539306640625 276.3197631835938 657 271.9998474121094 657 Z" stroke="none" fill="#29339b"/>
        </g>
        <g id="Header_icon" data-name="Header icon" transform="translate(145.434 26.102)">
          <path id="Line" d="M1.47,75.29c.415.23,16.24.3,24.779.058,7.515-.212,15.03-.818,22.563-.882.454,0,3.09,0,3.561,0,.525.132,1.292-.592,1.293-1.211s-1.024-1.127-1.935-1.083c-7.412-.046-14.717.324-22.176.376-7.977.327-25.064.07-25.064.07l-3.1-.184S.132,72.578.1,73.743,1.055,75.06,1.47,75.29Z" transform="translate(-0.102 -69.512)" fill="#29339b"/>
          <circle id="Ellipse_335" data-name="Ellipse 335" cx="3.5" cy="3.5" r="3.5" transform="translate(57.651)" fill="#29339b"/>
        </g>
        <path id="Line-2" data-name="Line" d="M2.6,75.378c1.069.236,41.843.308,63.843.06,19.363-.218,38.725-.841,58.134-.907,1.169,0,7.961,0,9.175,0,1.352.136,1.133-.818,1.135-1.454s-.443-.95-2.788-.9c-19.1-.047-37.919.333-57.138.387-20.552.336-64.578.072-64.578.072l-7.987-.189S.833,72.6.758,73.8,1.53,75.141,2.6,75.378Z" transform="translate(103.832 584.59)" fill="#29339b" stroke="#29339b" stroke-width="1"/>
        <g id="status_bar_light" data-name="status bar/light" transform="translate(34.085 43.102)">
          <g id="Battery" transform="translate(258 2.333)">
            <g id="Border" clip-path="url(#clip-path)">
              <path id="Fill" d="M2.667,0H19.333A2.667,2.667,0,0,1,22,2.667v6h0a2.667,2.667,0,0,1-2.667,2.667H2.667A2.667,2.667,0,0,1,0,8.667v-6H0A2.667,2.667,0,0,1,2.667,0Z" fill="none" stroke="rgba(21,131,216,0.5)" stroke-width="2"/>
            </g>
            <g id="Cap" transform="translate(23 3.667)" clip-path="url(#clip-path-2)">
              <path id="Fill-2" data-name="Fill" d="M354-28h11.328v14H354Z" transform="translate(-359 23)" fill="#29339b"/>
            </g>
            <g id="Capacity" transform="translate(2 2)" clip-path="url(#clip-path-3)">
              <path id="Fill-3" data-name="Fill" d="M333-29.667h28v17.333H333Z" transform="translate(-338 24.667)" fill="#29339b"/>
            </g>
          </g>
          <g id="Wifi" transform="translate(237.694 2.331)">
            <g id="Wifi-2" data-name="Wifi" clip-path="url(#clip-path-4)">
              <path id="Fill-4" data-name="Fill" d="M310.694-31.669h25.272V-10.7H310.694Z" transform="translate(-315.694 26.669)" fill="#29339b"/>
            </g>
          </g>
          <g id="Cellular_Connection" data-name="Cellular Connection" transform="translate(215.667 2.667)">
            <g id="Cellular_Connection-2" data-name="Cellular Connection" clip-path="url(#clip-path-5)">
              <path id="Fill-5" data-name="Fill" d="M288.667-31.333h27v20.667h-27Z" transform="translate(-293.667 26.333)" fill="#29339b"/>
            </g>
          </g>
          <g id="Bars___Time_Black" data-name="Bars/_/Time Black">
            <path id="Background" d="M21-19H75V-35H21Z" transform="translate(-21 35)" fill="none"/>
            <text id="_10:20" data-name="10:20" transform="translate(4 14)" fill="#29339b" font-size="14" font-family="TektonPro-Bold, Tekton Pro" font-weight="700"><tspan x="0" y="0">10:20</tspan></text>
          </g>
        </g>
      </g>
      <g id="Buttons_Pill_Button_Default_Submit" data-name="Buttons / Pill Button / Default / Submit" transform="translate(628 681)">
        <path id="Pill_Button" data-name="Pill Button" d="M95.425,5.153C87.659-1.136,76.98.046,67.637.2,60.95.3,54.27-.122,47.587.046,41.057.207,34.57.193,28.04.091,18.924-.052,8.466.525,3.083,9.082c-4.261,6.771-4.5,17.383,1.772,23.063,6.785,6.148,16.292,5.107,24.692,4.866,6.9-.2,13.807.409,20.714.357,4.174-.031,8.337.042,12.507-.171,2.835-.143,5.659-.273,8.5-.213,8.473.171,17.806,1.493,24.978-4.184,6.739-5.334,6.98-15.817,3.041-22.9a17.643,17.643,0,0,0-3.862-4.747c-1.017-.877-2.506.6-1.482,1.482,6.079,5.257,8.207,16.233,2.831,22.755-5.582,6.767-15.5,5.851-23.266,5.561-5.844-.217-11.654.3-17.495.339-7.11.042-14.174-.192-21.27-.391-7.61-.217-15.425,1.433-22.8-1.087-3.967-1.353-7.333-3.929-8.8-7.952a18.323,18.323,0,0,1,.094-12.307,15.891,15.891,0,0,1,8.6-9.3c4.292-1.9,9.148-2.1,13.769-2.087,5.974.014,11.937.245,17.914.084,6.673-.178,13.314.1,19.983.091,7.889-.007,16.383-1.2,24.063,1.024a18.044,18.044,0,0,1,6.383,3.272C94.981,7.477,96.474,6,95.425,5.153Z" transform="translate(0.001 -0.006)" fill="#29339b"/>
        <text id="Pay_120" data-name="Pay $120" transform="translate(51 24)" fill="#29339b" font-size="16" font-family="TektonPro-Bold, Tekton Pro" font-weight="700"><tspan x="-33.856" y="0">Pay $120</tspan></text>
      </g>
      <g id="Buttons_Pill_Button_Default_Submit-2" data-name="Buttons / Pill Button / Default / Submit" transform="translate(464 681)">
        <path id="Pill_Button-2" data-name="Pill Button" d="M95.425,5.153C87.659-1.136,76.98.046,67.637.2,60.95.3,54.27-.122,47.587.046,41.057.207,34.57.193,28.04.091,18.924-.052,8.466.525,3.083,9.082c-4.261,6.771-4.5,17.383,1.772,23.063,6.785,6.148,16.292,5.107,24.692,4.866,6.9-.2,13.807.409,20.714.357,4.174-.031,8.337.042,12.507-.171,2.835-.143,5.659-.273,8.5-.213,8.473.171,17.806,1.493,24.978-4.184,6.739-5.334,6.98-15.817,3.041-22.9a17.643,17.643,0,0,0-3.862-4.747c-1.017-.877-2.506.6-1.482,1.482,6.079,5.257,8.207,16.233,2.831,22.755-5.582,6.767-15.5,5.851-23.266,5.561-5.844-.217-11.654.3-17.495.339-7.11.042-14.174-.192-21.27-.391-7.61-.217-15.425,1.433-22.8-1.087-3.967-1.353-7.333-3.929-8.8-7.952a18.323,18.323,0,0,1,.094-12.307,15.891,15.891,0,0,1,8.6-9.3c4.292-1.9,9.148-2.1,13.769-2.087,5.974.014,11.937.245,17.914.084,6.673-.178,13.314.1,19.983.091,7.889-.007,16.383-1.2,24.063,1.024a18.044,18.044,0,0,1,6.383,3.272C94.981,7.477,96.474,6,95.425,5.153Z" transform="translate(0.001 -0.006)" fill="#29339b"/>
        <text id="Pay_Other" data-name="Pay Other" transform="translate(51 23)" fill="#29339b" font-size="16" font-family="TektonPro-Bold, Tekton Pro" font-weight="700"><tspan x="-32.136" y="0">Pay Other</tspan></text>
      </g>
      <text id="_120.00" data-name="$120.00" transform="translate(502 234)" fill="#29339b" font-size="40" font-family="TektonPro-Bold, Tekton Pro" font-weight="700"><tspan x="8.98" y="27">$120.00</tspan></text>
      <text id="Due_2_1_20" data-name="Due 2/1/20" transform="translate(502 282)" fill="#29339b" font-size="20" font-family="TektonPro-Bold, Tekton Pro" font-weight="700"><tspan x="41.61" y="14">Due 2/1/20</tspan></text>
      <text id="Checking_account_ending_in_3458_" data-name="Checking account ending in 3458           &gt;" transform="translate(453 358)" fill="#29339b" font-size="16" font-family="TektonPro-Bold, Tekton Pro" font-weight="700"><tspan x="0" y="11" xml:space="preserve">Checking account ending in 3458           &gt;</tspan></text>
      <text id="Debit_card_ending_in_8942_" data-name="Debit card ending in 8942                          &gt;" transform="translate(453 404)" fill="#29339b" font-size="16" font-family="TektonPro-Bold, Tekton Pro" font-weight="700"><tspan x="0" y="11" xml:space="preserve">Debit card ending in 8942                          &gt;</tspan></text>
      <text id="_Add_Bank" data-name="+          Add Bank" transform="translate(461 488)" fill="#29339b" font-size="16" font-family="TektonPro-Bold, Tekton Pro" font-weight="700"><tspan x="0" y="11" xml:space="preserve">+          Add Bank</tspan></text>
      <text id="_Add_Card" data-name="+          Add Card" transform="translate(461 524)" fill="#29339b" font-size="16" font-family="TektonPro-Bold, Tekton Pro" font-weight="700"><tspan x="0" y="11" xml:space="preserve">+          Add Card</tspan></text>
      <g id="Group_2483" data-name="Group 2483" transform="translate(331 469)">
        <g id="Group_2482" data-name="Group 2482">
          <circle id="Ellipse_563" data-name="Ellipse 563" cx="29" cy="29" r="29" fill="#29d9c2"/>
          <text id="_2" data-name="2" transform="translate(15 10)" fill="#fff" font-size="30" font-family="NunitoSans-Black, Nunito Sans" font-weight="800" letter-spacing="0.003em"><tspan x="4.985" y="30">2</tspan></text>
        </g>
        <path id="long-arrow-right-regular" d="M25.083,112.5l-1.666,1.666a1.019,1.019,0,0,0,.015,1.455l6.851,6.58H1.019A1.019,1.019,0,0,0,0,123.219V125.6a1.019,1.019,0,0,0,1.019,1.019H30.283l-6.851,6.58a1.018,1.018,0,0,0-.015,1.455l1.666,1.666a1.019,1.019,0,0,0,1.44,0L37.71,125.127a1.019,1.019,0,0,0,0-1.44L26.523,112.5a1.019,1.019,0,0,0-1.44,0Z" transform="translate(65 -96.201)" fill="#29d9c2"/>
      </g>
      <g id="Group_2481" data-name="Group 2481" transform="translate(331 329)">
        <g id="Group_2480" data-name="Group 2480">
          <circle id="Ellipse_565" data-name="Ellipse 565" cx="29" cy="29" r="29" fill="#29d9c2"/>
          <text id="_1" data-name="1" transform="translate(15 10)" fill="#fff" font-size="30" font-family="NunitoSans-Black, Nunito Sans" font-weight="800" letter-spacing="0.003em"><tspan x="5" y="30">1</tspan></text>
        </g>
        <path id="long-arrow-right-regular-2" data-name="long-arrow-right-regular" d="M25.083,112.5l-1.666,1.666a1.019,1.019,0,0,0,.015,1.455l6.851,6.58H1.019A1.019,1.019,0,0,0,0,123.219V125.6a1.019,1.019,0,0,0,1.019,1.019H30.283l-6.851,6.58a1.018,1.018,0,0,0-.015,1.455l1.666,1.666a1.019,1.019,0,0,0,1.44,0L37.71,125.127a1.019,1.019,0,0,0,0-1.44L26.523,112.5a1.019,1.019,0,0,0-1.44,0Z" transform="translate(65 -92.201)" fill="#29d9c2"/>
      </g>
    </g>
  </g>
</svg>
