<svg xmlns="http://www.w3.org/2000/svg" xmlns:xlink="http://www.w3.org/1999/xlink" width="1000" viewBox="0 0 1000 765" style="max-width:100%;">
  <defs>
    <clipPath id="clip-path">
      <path id="Shape" d="M338.667-26.667h16.667A2.667,2.667,0,0,1,358-24v6h0a2.667,2.667,0,0,1-2.667,2.667H338.667A2.667,2.667,0,0,1,336-18v-6h0A2.667,2.667,0,0,1,338.667-26.667Z" transform="translate(0 44)" fill="none" clip-rule="evenodd"/>
    </clipPath>
    <clipPath id="clip-path-2">
      <path id="Shape-2" data-name="Shape" d="M359-23v4a2.17,2.17,0,0,0,1.328-2A2.17,2.17,0,0,0,359-23" transform="translate(0 44)" fill="#29339b"/>
    </clipPath>
    <clipPath id="clip-path-3">
      <path id="Shape-3" data-name="Shape" d="M339.333-24.667h15.333A1.333,1.333,0,0,1,356-23.333v4.667h0a1.333,1.333,0,0,1-1.333,1.333H339.333A1.333,1.333,0,0,1,338-18.667v-4.667h0A1.333,1.333,0,0,1,339.333-24.667Z" transform="translate(0 44)" fill="#29339b"/>
    </clipPath>
    <clipPath id="clip-path-4">
      <path id="Shape-4" data-name="Shape" d="M323.33-24.392a8.64,8.64,0,0,1,5.953,2.378.308.308,0,0,0,.433,0l1.156-1.167a.322.322,0,0,0,.093-.229.322.322,0,0,0-.1-.227,10.9,10.9,0,0,0-15.08,0,.322.322,0,0,0-.1.227.322.322,0,0,0,.093.229l1.156,1.167a.308.308,0,0,0,.433,0,8.641,8.641,0,0,1,5.954-2.378Zm0,3.8a4.907,4.907,0,0,1,3.294,1.27.31.31,0,0,0,.433-.006l1.155-1.167a.322.322,0,0,0,.094-.23.322.322,0,0,0-.1-.229,7.159,7.159,0,0,0-9.752,0,.322.322,0,0,0-.1.229.322.322,0,0,0,.094.23l1.154,1.167a.31.31,0,0,0,.433.006,4.907,4.907,0,0,1,3.292-1.27Zm2.219,2.784a.314.314,0,0,0,.094-.231.314.314,0,0,0-.1-.226,3.422,3.422,0,0,0-4.419,0,.314.314,0,0,0-.1.226.314.314,0,0,0,.094.231l2,2.016a.311.311,0,0,0,.222.093.312.312,0,0,0,.222-.093Z" transform="translate(0 44)" fill="#29339b"/>
    </clipPath>
    <clipPath id="clip-path-5">
      <path id="Shape-5" data-name="Shape" d="M294.667-19.667h1a1,1,0,0,1,1,1v2a1,1,0,0,1-1,1h-1a1,1,0,0,1-1-1v-2a1,1,0,0,1,1-1Zm4.667-2h1a1,1,0,0,1,1,1v4a1,1,0,0,1-1,1h-1a1,1,0,0,1-1-1v-4A1,1,0,0,1,299.333-21.667ZM304-24h1a1,1,0,0,1,1,1v6.333a1,1,0,0,1-1,1h-1a1,1,0,0,1-1-1V-23A1,1,0,0,1,304-24Zm4.667-2.333h1a1,1,0,0,1,1,1v8.667a1,1,0,0,1-1,1h-1a1,1,0,0,1-1-1v-8.667a1,1,0,0,1,1-1Z" transform="translate(0 44)" fill="#29339b"/>
    </clipPath>
  </defs>
  <g id="Group_2598" data-name="Group 2598" transform="translate(-232 -111)">
    <g id="Rectangle_2455" data-name="Rectangle 2455" transform="translate(232 111)" fill="#a4acbc" stroke="#707070" stroke-width="1">
      <rect width="1000" height="765" rx="10" stroke="none"/>
      <rect x="0.5" y="0.5" width="999" height="764" rx="9.5" fill="none"/>
    </g>
    <g id="Group_2596" data-name="Group 2596" transform="translate(480 73)">
      <g id="Mobile_wireframe" data-name="Mobile wireframe" transform="translate(-447 14)">
        <g id="Phone_border_screen" data-name="Phone border screen" transform="translate(527 57)" fill="#fff">
          <path d="M 132.4258422851562 697.4794921875 C 95.39110565185547 697.4794921875 50.46020126342773 697.0048828125 50.01065444946289 697.0001220703125 L 50.0053825378418 697.0000610351562 L 50.00001907348633 697.0000610351562 C 43.3846549987793 697.0000610351562 36.96765518188477 695.70458984375 30.92729187011719 693.1497802734375 C 25.09256362915039 690.681884765625 19.85219955444336 687.148681640625 15.35174560546875 682.6482543945312 C 10.8513822555542 678.1478881835938 7.31820011138916 672.9075317382812 4.850290775299072 667.0726928710938 C 2.295472860336304 661.0324096679688 1.000018239021301 654.6154174804688 1.000018239021301 648.0000610351562 C 0.9992000460624695 646.9071655273438 0.9145636558532715 537.468505859375 0.9145636558532715 423.601318359375 C 0.9145636558532715 422.9939575195312 0.9992000460624695 182.7477722167969 1.000018239021301 180.3211364746094 L 1.000018239021301 50.00004959106445 C 1.000018239021301 43.38468551635742 2.295472860336304 36.96768569946289 4.850290775299072 30.92732048034668 C 7.31820011138916 25.09259414672852 10.8513822555542 19.85223007202148 15.35174560546875 15.35177516937256 C 19.85219955444336 10.85141181945801 25.09256362915039 7.318230152130127 30.92729187011719 4.850320816040039 C 36.96765518188477 2.295502662658691 43.3846549987793 1.000048160552979 50.00001907348633 1.000048160552979 C 50.45328903198242 1.00104820728302 95.95947265625 1.101775407791138 131.7156524658203 1.101775407791138 C 152.7200164794922 1.101775407791138 166.3020172119141 1.067502737045288 172.0845642089844 0.999957263469696 C 177.859375 0.9325027465820312 191.4209289550781 0.8983209133148193 212.3923797607422 0.8983209133148193 C 248.1051940917969 0.8983209133148193 293.5430297851562 0.9990481734275818 293.9977416992188 1.000048160552979 C 300.6153869628906 1.000048160552979 307.0323791503906 2.295502662658691 313.0726623535156 4.850320816040039 C 318.907470703125 7.318230152130127 324.1478271484375 10.85141181945801 328.648193359375 15.35177516937256 C 333.1486511230469 19.85223007202148 336.6818237304688 25.09259414672852 339.1497497558594 30.92732048034668 C 341.7045593261719 36.96768569946289 343.0000305175781 43.38468551635742 343.0000305175781 50.00004959106445 C 343.0032043457031 51.75986480712891 343.3125610351562 226.3209533691406 343.0000305175781 271.0256958007812 C 342.8791198730469 288.3263244628906 343.0572814941406 316.9689636230469 343.2459411621094 347.2934265136719 C 343.5555725097656 397.0694885253906 343.875732421875 448.5403137207031 343.0020141601562 462.46142578125 C 341.5979309082031 484.8326721191406 342.9856567382812 646.3598022460938 343 648.0084228515625 C 342.9989013671875 654.6207885742188 341.7034606933594 661.0349731445312 339.1497497558594 667.0726928710938 C 336.6818237304688 672.9075317382812 333.1486511230469 678.1478881835938 328.648193359375 682.6482543945312 C 324.1478271484375 687.148681640625 318.907470703125 690.681884765625 313.0726623535156 693.1497802734375 C 307.0334777832031 695.7041015625 300.6180419921875 696.9995727539062 294.0039367675781 697.0000610351562 C 293.2414245605469 696.9911499023438 252.4557800292969 696.5205688476562 218.1724700927734 696.5205688476562 C 197.9366607666016 696.5205688476562 183.8861083984375 696.6822509765625 176.4111938476562 697.0009765625 C 168.9645690917969 697.3184814453125 154.1657409667969 697.4794921875 132.4258422851562 697.4794921875 Z" stroke="none"/>
          <path d="M 212.3923797607422 1.89825439453125 C 191.4261932373047 1.89825439453125 177.86865234375 1.93243408203125 172.0962982177734 1.9998779296875 C 166.3073883056641 2.0673828125 152.7213745117188 2.1016845703125 131.7156524658203 2.1016845703125 C 95.95838928222656 2.1016845703125 50.45101928710938 2.0009765625 50.00003051757812 1.99993896484375 C 43.51919555664062 1.99993896484375 37.2332763671875 3.268798828125 31.31683349609375 5.771240234375 C 25.60128784179688 8.18865966796875 20.46774291992188 11.64996337890625 16.058837890625 16.058837890625 C 11.6500244140625 20.4677734375 8.188751220703125 25.60125732421875 5.77130126953125 31.31689453125 C 3.268829345703125 37.23321533203125 2.000030517578125 43.5191650390625 2.000030517578125 49.99993896484375 L 2.000030517578125 180.321533203125 C 1.99920654296875 182.7481689453125 1.91455078125 422.994140625 1.91455078125 423.601318359375 C 1.91455078125 537.4681396484375 1.99920654296875 646.90625 2.000030517578125 647.9999389648438 C 2.000030517578125 654.4807739257812 3.268829345703125 660.7667846679688 5.77130126953125 666.6831665039062 C 8.188751220703125 672.398681640625 11.6500244140625 677.5322265625 16.058837890625 681.941162109375 C 20.46774291992188 686.3499755859375 25.60128784179688 689.8112182617188 31.31683349609375 692.2286987304688 C 37.23318481445312 694.7311401367188 43.51919555664062 695.9999389648438 50.00003051757812 695.9999389648438 L 50.01065063476562 695.9999389648438 L 50.02139282226562 696.0000610351562 C 50.4708251953125 696.0048828125 95.39692687988281 696.4794311523438 132.4258422851562 696.4794311523438 C 154.1511077880859 696.4794311523438 168.9356536865234 696.3186645507812 176.36865234375 696.0017700195312 C 183.8576507568359 695.6824340820312 197.9224700927734 695.5205078125 218.1724700927734 695.5205078125 C 252.3585815429688 695.5205078125 293.0079956054688 695.9883422851562 294.0076293945312 695.9999389648438 C 300.4859313964844 695.9990234375 306.7689208984375 694.730224609375 312.68310546875 692.2286987304688 C 318.3987426757812 689.8112182617188 323.5321960449219 686.3499755859375 327.9411010742188 681.941162109375 C 332.3500061035156 677.5322265625 335.811279296875 672.398681640625 338.228759765625 666.6831665039062 C 340.7302856445312 660.7688598632812 341.9990844726562 654.4850463867188 342.0000305175781 648.0067138671875 C 341.9407348632812 641.1922607421875 340.59814453125 484.7958984375 342.0039367675781 462.3987731933594 C 342.8754577636719 448.5121459960938 342.541015625 394.740966796875 342.2459411621094 347.2995910644531 C 342.0572814941406 316.9717712402344 341.8791198730469 288.3258666992188 342.0001220703125 271.0186767578125 C 342.3125610351562 226.3183288574219 342.0032043457031 51.761474609375 342.0000305175781 49.99993896484375 C 342.0000305175781 43.5191650390625 340.731201171875 37.23321533203125 338.228759765625 31.31689453125 C 335.811279296875 25.60125732421875 332.3500061035156 20.4677734375 327.9411010742188 16.058837890625 C 323.5321960449219 11.64996337890625 318.3987426757812 8.18865966796875 312.68310546875 5.771240234375 C 306.7667541503906 3.268798828125 300.4808349609375 1.99993896484375 293.9955749511719 1.99993896484375 C 293.5407409667969 1.99896240234375 248.1041107177734 1.89825439453125 212.3923797607422 1.89825439453125 M 212.3923797607422 -0.10174560546875 C 248.5194549560547 -0.10174560546875 294.0000305175781 -6.103515625e-05 294.0000305175781 -6.103515625e-05 C 321.6141967773438 -6.103515625e-05 344.0000305175781 22.38580322265625 344.0000305175781 49.99993896484375 C 344.0000305175781 49.99993896484375 344.3161926269531 225.8064270019531 344.0000305175781 271.0326843261719 C 343.683837890625 316.259033203125 345.418212890625 439.92822265625 344.0000305175781 462.5240478515625 C 342.5817565917969 485.119873046875 344.0000305175781 647.9999389648438 344.0000305175781 647.9999389648438 C 344.0000305175781 675.6142578125 321.6141967773438 697.9999389648438 294.0000305175781 697.9999389648438 C 294.0000305175781 697.9999389648438 252.9996185302734 697.5205078125 218.1724853515625 697.5205078125 C 200.7557373046875 697.5205078125 184.8876495361328 697.6403198242188 176.4538421630859 697.9999389648438 C 168.0215606689453 698.3594970703125 151.1583251953125 698.4793701171875 132.4257965087891 698.4793701171875 C 94.95730590820312 698.4793701171875 50.00003051757812 697.9999389648438 50.00003051757812 697.9999389648438 C 22.3857421875 697.9999389648438 3.0517578125e-05 675.6142578125 3.0517578125e-05 647.9999389648438 C 3.0517578125e-05 647.9999389648438 -0.08544921875 538.7861328125 -0.08544921875 423.601318359375 C -0.08544921875 422.9867858886719 3.0517578125e-05 180.32080078125 3.0517578125e-05 180.32080078125 L 3.0517578125e-05 49.99993896484375 C 3.0517578125e-05 22.38580322265625 22.3857421875 -6.103515625e-05 50.00003051757812 -6.103515625e-05 C 50.00003051757812 -6.103515625e-05 95.54698181152344 0.10162353515625 131.7156677246094 0.10162353515625 C 149.8033294677734 0.10162353515625 165.5405883789062 0.07623291015625 172.0729217529297 -6.103515625e-05 C 178.6040802001953 -0.0762939453125 194.3304901123047 -0.10174560546875 212.3923797607422 -0.10174560546875 Z" stroke="none" fill="#29339b"/>
        </g>
        <g id="Phone_screen" data-name="Phone screen" transform="translate(2662 617)" fill="#fff" opacity="0.6">
          <path d="M -1843.000244140625 116.9998779296875 L -2082.999755859375 116.9998779296875 C -2087.18505859375 116.9998779296875 -2091.244873046875 116.1803741455078 -2095.06640625 114.5641250610352 C -2098.757568359375 113.0027923583984 -2102.072998046875 110.7673797607422 -2104.919921875 107.9201278686523 C -2107.76708984375 105.0732955932617 -2110.002685546875 101.7580413818359 -2111.564453125 98.06629180908203 C -2113.180419921875 94.24471282958984 -2114 90.18512725830078 -2114 86.00038146972656 L -2114 -58.67995452880859 L -2114 -393.1208801269531 L -2114 -506.9996948242188 C -2114 -511.1846923828125 -2113.180419921875 -515.2444458007812 -2111.564453125 -519.0662231445312 C -2110.002685546875 -522.7578735351562 -2107.76708984375 -526.0733032226562 -2104.920166015625 -528.9202270507812 C -2102.07275390625 -531.7676391601562 -2098.75732421875 -534.0030517578125 -2095.066162109375 -535.5643920898438 C -2091.244873046875 -537.1806030273438 -2087.18505859375 -538.0001220703125 -2082.999755859375 -538.0001220703125 L -2047.961547851562 -538.0001220703125 C -2047.986938476562 -537.6674194335938 -2047.999633789062 -537.33349609375 -2047.999633789062 -537.0003051757812 L -2047.999633789062 -525.9996337890625 C -2047.999633789062 -522.5275268554688 -2046.647583007812 -519.2631225585938 -2044.192504882812 -516.8076782226562 C -2041.737060546875 -514.3522338867188 -2038.472412109375 -512.9999389648438 -2035 -512.9999389648438 L -1890 -512.9999389648438 C -1886.527587890625 -512.9999389648438 -1883.262939453125 -514.3522338867188 -1880.8076171875 -516.8076782226562 C -1878.352416992188 -519.2631225585938 -1877.000366210938 -522.5275268554688 -1877.000366210938 -525.9996337890625 L -1877.000366210938 -537.0003051757812 C -1877.000366210938 -537.3336791992188 -1877.013061523438 -537.6676025390625 -1877.038452148438 -538.0001220703125 L -1843.000244140625 -538.0001220703125 C -1838.814697265625 -538.0001220703125 -1834.7548828125 -537.1806030273438 -1830.933715820312 -535.5643920898438 C -1827.242431640625 -534.0030517578125 -1823.927001953125 -531.7677001953125 -1821.079711914062 -528.9202880859375 C -1818.232299804688 -526.0729370117188 -1815.996948242188 -522.757568359375 -1814.435546875 -519.0661010742188 C -1812.8193359375 -515.2448120117188 -1811.999877929688 -511.1850280761719 -1811.999877929688 -506.9996948242188 L -1811.999877929688 86.00038146972656 C -1811.999877929688 90.18546295166016 -1812.8193359375 94.24504089355469 -1814.435546875 98.06637573242188 C -1815.996948242188 101.7576293945312 -1818.232299804688 105.0728759765625 -1821.079711914062 107.9200439453125 C -1823.926635742188 110.7672958374023 -1827.242065429688 113.0026245117188 -1830.933715820312 114.5641250610352 C -1834.7548828125 116.1803741455078 -1838.814697265625 116.9998779296875 -1843.000244140625 116.9998779296875 Z" stroke="none"/>
          <path d="M -1843.000244140625 115.9998779296875 C -1838.94921875 115.9998779296875 -1835.020629882812 115.2069625854492 -1831.3232421875 113.6431274414062 C -1827.750854492188 112.1320419311523 -1824.542358398438 109.9687118530273 -1821.786743164062 107.2129592895508 C -1819.030883789062 104.4572982788086 -1816.867553710938 101.2488784790039 -1815.3564453125 97.67679595947266 C -1813.792724609375 93.97946166992188 -1812.999877929688 90.05088043212891 -1812.999877929688 86.00038146972656 L -1812.999877929688 -506.9996948242188 C -1812.999877929688 -511.0504455566406 -1813.792724609375 -514.9791870117188 -1815.3564453125 -518.676513671875 C -1816.867553710938 -522.248779296875 -1819.030883789062 -525.4573974609375 -1821.786865234375 -528.2131958007812 C -1824.542602539062 -530.9690551757812 -1827.751220703125 -533.1324462890625 -1831.3232421875 -534.6433715820312 C -1835.020629882812 -536.2072143554688 -1838.94921875 -537.0001220703125 -1843.000244140625 -537.0001220703125 L -1876.000366210938 -537.0003051757812 L -1876.000366210938 -525.9996337890625 C -1876.000366210938 -522.2604370117188 -1877.456420898438 -518.744873046875 -1880.100463867188 -516.1005249023438 C -1882.744750976562 -513.456298828125 -1886.260498046875 -511.9999694824219 -1890 -511.9999694824219 L -2035 -511.9999694824219 C -2038.739501953125 -511.9999694824219 -2042.255249023438 -513.456298828125 -2044.899536132812 -516.1006469726562 C -2047.543579101562 -518.744873046875 -2048.999755859375 -522.2604370117188 -2048.999755859375 -525.9996337890625 L -2048.999755859375 -537.0001220703125 L -2082.999755859375 -537.0001220703125 C -2087.050537109375 -537.0001220703125 -2090.979248046875 -536.2072143554688 -2094.6767578125 -534.6433715820312 C -2098.248779296875 -533.1324462890625 -2101.457275390625 -530.9689331054688 -2104.212890625 -528.213134765625 C -2106.968505859375 -525.4577026367188 -2109.132080078125 -522.2491455078125 -2110.643310546875 -518.6766967773438 C -2112.20703125 -514.9788818359375 -2113 -511.0501098632812 -2113 -506.9996948242188 L -2113 -393.1208801269531 L -2113 -58.67995452880859 L -2113 86.00038146972656 C -2113 90.05054473876953 -2112.20703125 93.9791259765625 -2110.643310546875 97.67662811279297 C -2109.132080078125 101.2492141723633 -2106.968505859375 104.4577102661133 -2104.212890625 107.2130432128906 C -2101.457275390625 109.9687957763672 -2098.248779296875 112.132209777832 -2094.6767578125 113.6431274414062 C -2090.979248046875 115.2069625854492 -2087.050537109375 115.9998779296875 -2082.999755859375 115.9998779296875 L -1843.000244140625 115.9998779296875 M -1843.000244140625 117.9998779296875 L -2082.999755859375 117.9998779296875 C -2087.319580078125 117.9998779296875 -2091.510498046875 117.1537933349609 -2095.455810546875 115.4851303100586 C -2099.266357421875 113.8733749389648 -2102.6884765625 111.566047668457 -2105.627197265625 108.6272125244141 C -2108.56591796875 105.6887969970703 -2110.873291015625 102.2666244506836 -2112.4853515625 98.45587921142578 C -2114.15380859375 94.51054382324219 -2115 90.31996154785156 -2115 86.00038146972656 L -2115 -58.67995452880859 L -2115 -393.1208801269531 L -2115 -506.9996948242188 C -2115 -511.3195495605469 -2114.15380859375 -515.5103149414062 -2112.4853515625 -519.4556884765625 C -2110.873291015625 -523.2665405273438 -2108.56591796875 -526.6887817382812 -2105.627197265625 -529.6273803710938 C -2102.688232421875 -532.5662841796875 -2099.26611328125 -534.8735961914062 -2095.455810546875 -536.4853515625 C -2091.510498046875 -538.154052734375 -2087.319580078125 -539.0001220703125 -2082.999755859375 -539.0001220703125 L -2046.833740234375 -539.0001220703125 C -2046.943359375 -538.3458862304688 -2046.999633789062 -537.6732788085938 -2046.999633789062 -537.0003051757812 L -2046.999633789062 -525.9996337890625 C -2046.999633789062 -522.7945556640625 -2045.75146484375 -519.7811889648438 -2043.4853515625 -517.5147705078125 C -2041.21875 -515.2482299804688 -2038.205322265625 -513.9999389648438 -2035 -513.9999389648438 L -1890 -513.9999389648438 C -1886.794677734375 -513.9999389648438 -1883.78125 -515.2482299804688 -1881.5146484375 -517.5147705078125 C -1879.24853515625 -519.7811889648438 -1878.000366210938 -522.7945556640625 -1878.000366210938 -525.9996337890625 L -1878.000366210938 -537.0003051757812 C -1878.000366210938 -537.6710205078125 -1878.05615234375 -538.3438720703125 -1878.166259765625 -539.0001220703125 L -1843.000244140625 -539.0001220703125 C -1838.68017578125 -539.0001220703125 -1834.489379882812 -538.154052734375 -1830.544189453125 -536.4853515625 C -1826.733764648438 -534.8737182617188 -1823.3115234375 -532.5663452148438 -1820.37255859375 -529.6273803710938 C -1817.433715820312 -526.6885986328125 -1815.126342773438 -523.266357421875 -1813.514526367188 -519.4556884765625 C -1811.845947265625 -515.5104370117188 -1810.999877929688 -511.3197021484375 -1810.999877929688 -506.9996948242188 L -1810.999877929688 86.00038146972656 C -1810.999877929688 90.32012939453125 -1811.845947265625 94.51071166992188 -1813.514526367188 98.45587921142578 C -1815.126342773438 102.2663803100586 -1817.433715820312 105.6885452270508 -1820.37255859375 108.6272125244141 C -1823.311279296875 111.566047668457 -1826.733642578125 113.8733749389648 -1830.544189453125 115.4851303100586 C -1834.489379882812 117.1537933349609 -1838.68017578125 117.9998779296875 -1843.000244140625 117.9998779296875 Z" stroke="none" fill="#29339b"/>
        </g>
        <g id="Header_icon" data-name="Header icon" transform="translate(-4896 -2128)">
          <path id="Line" d="M1.47,75.29c.415.23,16.24.3,24.779.058,7.515-.212,15.03-.818,22.563-.882.454,0,3.09,0,3.561,0,.525.132,1.292-.592,1.293-1.211s-1.024-1.127-1.935-1.083c-7.412-.046-14.717.324-22.176.376-7.977.327-25.064.07-25.064.07l-3.1-.184S.132,72.578.1,73.743,1.055,75.06,1.47,75.29Z" transform="translate(5568.247 2141.488)" fill="#29339b"/>
          <circle id="Ellipse_335" data-name="Ellipse 335" cx="3.5" cy="3.5" r="3.5" transform="translate(5626 2211)" fill="#29339b"/>
        </g>
        <path id="Line-2" data-name="Line" d="M2.6,75.378c1.069.236,41.843.308,63.843.06,19.363-.218,38.725-.841,58.134-.907,1.169,0,7.961,0,9.175,0,1.352.136,1.133-.818,1.135-1.454s-.443-.95-2.788-.9c-19.1-.047-37.919.333-57.138.387-20.552.336-64.578.072-64.578.072l-7.987-.189S.833,72.6.758,73.8,1.53,75.141,2.6,75.378Z" transform="translate(630.747 641.488)" fill="#29339b" stroke="#29339b" stroke-width="1"/>
        <g id="status_bar_light" data-name="status bar/light" transform="translate(470 5)">
          <g id="Battery" transform="translate(13 80)">
            <g id="Border" clip-path="url(#clip-path)">
              <path id="Fill" d="M2.667,0H19.333A2.667,2.667,0,0,1,22,2.667v6h0a2.667,2.667,0,0,1-2.667,2.667H2.667A2.667,2.667,0,0,1,0,8.667v-6H0A2.667,2.667,0,0,1,2.667,0Z" transform="translate(336 17.333)" fill="none" stroke="rgba(21,131,216,0.5)" stroke-width="2"/>
            </g>
            <g id="Cap" clip-path="url(#clip-path-2)">
              <path id="Fill-2" data-name="Fill" d="M354-28h11.328v14H354Z" transform="translate(0 44)" fill="#29339b"/>
            </g>
            <g id="Capacity" clip-path="url(#clip-path-3)">
              <path id="Fill-3" data-name="Fill" d="M333-29.667h28v17.333H333Z" transform="translate(0 44)" fill="#29339b"/>
            </g>
          </g>
          <g id="Wifi" transform="translate(13 80)">
            <g id="Wifi-2" data-name="Wifi" clip-path="url(#clip-path-4)">
              <path id="Fill-4" data-name="Fill" d="M310.694-31.669h25.272V-10.7H310.694Z" transform="translate(0 44)" fill="#29339b"/>
            </g>
          </g>
          <g id="Cellular_Connection" data-name="Cellular Connection" transform="translate(13 80)">
            <g id="Cellular_Connection-2" data-name="Cellular Connection" clip-path="url(#clip-path-5)">
              <path id="Fill-5" data-name="Fill" d="M288.667-31.333h27v20.667h-27Z" transform="translate(0 44)" fill="#29339b"/>
            </g>
          </g>
          <g id="Bars___Time_Black" data-name="Bars/_/Time Black" transform="translate(62 80)">
            <path id="Background" d="M21-19H75V-35H21Z" transform="translate(8 50)" fill="none"/>
            <text id="_10:20" data-name="10:20" transform="translate(33 29)" fill="#29339b" font-size="14" font-family="tekton-pro, tekton-pro" font-weight="700"><tspan x="0" y="0">10:20</tspan></text>
          </g>
        </g>
      </g>
      <text id="Account_Activity" data-name="Account Activity" transform="translate(110 165)" fill="#29339b" font-size="20" font-family="tekton-pro, tekton-pro" font-weight="700"><tspan x="0" y="14">Account Activity</tspan></text>
      <g id="Group_56" data-name="Group 56" transform="translate(-430 -3)">
        <g id="Group_48" data-name="Group 48">
          <text id="Installment_6" data-name="Installment 6" transform="translate(548 221)" fill="#29339b" font-size="16" font-family="tekton-pro, tekton-pro" font-weight="700"><tspan x="0" y="11">Installment 6</tspan></text>
          <text id="_120.00" data-name="$120.00" transform="translate(694 221)" fill="#29339b" font-size="16" font-family="tekton-pro, tekton-pro" font-weight="700"><tspan x="0" y="11">$120.00</tspan></text>
          <text id="Due_3_1_20" data-name="Due 3/1/20" transform="translate(548 240)" fill="#29339b" font-size="12" font-family="tekton-pro, tekton-pro" font-weight="700"><tspan x="0" y="8">Due 3/1/20</tspan></text>
        </g>
        <g id="Icon_-_Arrow_Right_1" data-name="Icon - Arrow Right 1" transform="translate(791 227)">
          <path id="Arrow_Right_1" data-name="Arrow Right 1" d="M.3,2.146q2.148,2.22,4.2,4.528c-.09-.337-.177-.678-.268-1.015-.007.024-.01.052-.017.076A1.05,1.05,0,0,0,5.954,6.75,61.71,61.71,0,0,0,9.923,1.82C10.788.8,9.318-.679,8.449.346A60.336,60.336,0,0,1,4.481,5.277c.58.337,1.161.678,1.741,1.015.222-.959-.7-1.6-1.282-2.238Q3.381,2.339,1.77.676c-.931-.97-2.4.5-1.473,1.47Z" transform="translate(0 10.186) rotate(-90)" fill="#29339b"/>
        </g>
      </g>
      <g id="Group_57" data-name="Group 57" transform="translate(-430 3)">
        <g id="Group_49" data-name="Group 49" transform="translate(0 10)">
          <text id="Installment_5" data-name="Installment 5" transform="translate(548 280)" fill="#29339b" font-size="16" font-family="tekton-pro, tekton-pro" font-weight="700"><tspan x="0" y="11">Installment 5</tspan></text>
          <text id="_120.00-2" data-name="$120.00" transform="translate(694 280)" fill="#29339b" font-size="16" font-family="tekton-pro, tekton-pro" font-weight="700"><tspan x="0" y="11">$120.00</tspan></text>
          <text id="Due_2_1_20" data-name="Due 2/1/20" transform="translate(548 299)" fill="#29339b" font-size="12" font-family="tekton-pro, tekton-pro" font-weight="700"><tspan x="0" y="8">Due 2/1/20</tspan></text>
        </g>
        <g id="Icon_-_Arrow_Right_1-2" data-name="Icon - Arrow Right 1" transform="translate(791 301)">
          <path id="Arrow_Right_1-2" data-name="Arrow Right 1" d="M.3,2.146q2.148,2.22,4.2,4.528c-.09-.337-.177-.678-.268-1.015-.007.024-.01.052-.017.076A1.05,1.05,0,0,0,5.954,6.75,61.71,61.71,0,0,0,9.923,1.82C10.788.8,9.318-.679,8.449.346A60.336,60.336,0,0,1,4.481,5.277c.58.337,1.161.678,1.741,1.015.222-.959-.7-1.6-1.282-2.238Q3.381,2.339,1.77.676c-.931-.97-2.4.5-1.473,1.47Z" transform="translate(0 10.186) rotate(-90)" fill="#29339b"/>
        </g>
      </g>
      <g id="Group_58" data-name="Group 58" transform="translate(-430 9)">
        <g id="Group_50" data-name="Group 50" transform="translate(0 20)">
          <text id="Installment_4" data-name="Installment 4" transform="translate(548 339)" fill="#29339b" font-size="16" font-family="tekton-pro, tekton-pro" font-weight="700"><tspan x="0" y="11">Installment 4</tspan></text>
          <text id="_120.00-3" data-name="$120.00" transform="translate(694 339)" fill="#29339b" font-size="16" font-family="tekton-pro, tekton-pro" font-weight="700"><tspan x="0" y="11">$120.00</tspan></text>
          <text id="Due_1_1_20" data-name="Due 1/1/20" transform="translate(548 358)" fill="#29339b" font-size="12" font-family="tekton-pro, tekton-pro" font-weight="700"><tspan x="0" y="8">Due 1/1/20</tspan></text>
          <text id="Paid_12_30_19" data-name="Paid 12/30/19" transform="translate(694 358)" fill="#29339b" font-size="12" font-family="tekton-pro, tekton-pro" font-weight="700"><tspan x="0" y="8">Paid 12/30/19</tspan></text>
        </g>
        <g id="Checked_-_Light" data-name="Checked - Light" transform="translate(791 367)">
          <path id="Box" d="M4.469,14.616c-1.187-.018-2.127-.127-2.257-1.5-.073-.77-.057-1.556-.088-2.329C2.043,8.622,1.913,6.459,1.88,4.3c-.009-.547-.012-1.517.486-1.894.477-.363,1.571-.266,2.148-.29q1.831-.082,3.658-.127t3.661-.048c.867-.006,2.649-.233,3.377.4.767.665.4,3.217.411,4.1q.014,2.053,0,4.1c-.006,1.021.4,3.223-.61,3.846a5.235,5.235,0,0,1-1.942.227,64.34,64.34,0,0,1-8.6,0v1.813h0a.907.907,0,0,0,0-1.813h0a.907.907,0,0,0,0,1.813,56.124,56.124,0,0,0,9.613-.069c1.58-.157,3.045-.583,3.29-2.359a57.681,57.681,0,0,0,.06-8.144C17.414,3.879,17.806,1.4,15.586.52,13.4-.344,10.459.118,8.176.173Q6.2.218,4.236.312A5.426,5.426,0,0,0,1.279.97C-.476,2.206.092,4.891.161,6.713a67.15,67.15,0,0,0,.308,6.978c.308,2.154,2.03,2.7,4.006,2.737A.907.907,0,0,0,4.469,14.616Z" transform="translate(-0.019 -0.001)" fill="#29339b"/>
          <g id="Icon_-_Checked" data-name="Icon - Checked" transform="translate(4.568 4.827)">
            <path id="Icon_-_Checked-2" data-name="Icon - Checked" d="M15.382,19.895a24.3,24.3,0,0,0,2.344,2.6.926.926,0,0,0,1.281,0c1.649-1.586,3.214-3.2,4.7-4.939.755-.882-.52-2.169-1.281-1.281-1.492,1.737-3.057,3.35-4.7,4.939h1.281a24.266,24.266,0,0,1-2.344-2.6c-.779-.873-2.057.414-1.281,1.281Z" transform="translate(-15.141 -15.979)" fill="#29339b"/>
          </g>
        </g>
      </g>
      <g id="Group_59" data-name="Group 59" transform="translate(-430 15)">
        <g id="Group_51" data-name="Group 51" transform="translate(0 30)">
          <text id="Final_Audit" data-name="Final Audit" transform="translate(548 398)" fill="#29339b" font-size="16" font-family="tekton-pro, tekton-pro" font-weight="700"><tspan x="0" y="11">Final Audit</tspan></text>
          <text id="_543.13" data-name="$543.13" transform="translate(694 398)" fill="#29339b" font-size="16" font-family="tekton-pro, tekton-pro" font-weight="700"><tspan x="0" y="11">$543.13</tspan></text>
          <text id="Due_1_1_20-2" data-name="Due 1/1/20" transform="translate(548 417)" fill="#29339b" font-size="12" font-family="tekton-pro, tekton-pro" font-weight="700"><tspan x="0" y="8">Due 1/1/20</tspan></text>
          <text id="Paid_12_14_19" data-name="Paid 12/14/19" transform="translate(694 417)" fill="#29339b" font-size="12" font-family="tekton-pro, tekton-pro" font-weight="700"><tspan x="0" y="8">Paid 12/14/19</tspan></text>
        </g>
        <g id="Checked_-_Light-2" data-name="Checked - Light" transform="translate(791 436)">
          <path id="Box-2" data-name="Box" d="M4.469,14.616c-1.187-.018-2.127-.127-2.257-1.5-.073-.77-.057-1.556-.088-2.329C2.043,8.622,1.913,6.459,1.88,4.3c-.009-.547-.012-1.517.486-1.894.477-.363,1.571-.266,2.148-.29q1.831-.082,3.658-.127t3.661-.048c.867-.006,2.649-.233,3.377.4.767.665.4,3.217.411,4.1q.014,2.053,0,4.1c-.006,1.021.4,3.223-.61,3.846a5.235,5.235,0,0,1-1.942.227,64.34,64.34,0,0,1-8.6,0v1.813h0a.907.907,0,0,0,0-1.813h0a.907.907,0,0,0,0,1.813,56.124,56.124,0,0,0,9.613-.069c1.58-.157,3.045-.583,3.29-2.359a57.681,57.681,0,0,0,.06-8.144C17.414,3.879,17.806,1.4,15.586.52,13.4-.344,10.459.118,8.176.173Q6.2.218,4.236.312A5.426,5.426,0,0,0,1.279.97C-.476,2.206.092,4.891.161,6.713a67.15,67.15,0,0,0,.308,6.978c.308,2.154,2.03,2.7,4.006,2.737A.907.907,0,0,0,4.469,14.616Z" transform="translate(-0.019 -0.001)" fill="#29339b"/>
          <g id="Icon_-_Checked-3" data-name="Icon - Checked" transform="translate(4.568 4.827)">
            <path id="Icon_-_Checked-4" data-name="Icon - Checked" d="M15.382,19.895a24.3,24.3,0,0,0,2.344,2.6.926.926,0,0,0,1.281,0c1.649-1.586,3.214-3.2,4.7-4.939.755-.882-.52-2.169-1.281-1.281-1.492,1.737-3.057,3.35-4.7,4.939h1.281a24.266,24.266,0,0,1-2.344-2.6c-.779-.873-2.057.414-1.281,1.281Z" transform="translate(-15.141 -15.979)" fill="#29339b"/>
          </g>
        </g>
      </g>
      <g id="Group_60" data-name="Group 60" transform="translate(-430 21)">
        <g id="Group_52" data-name="Group 52" transform="translate(0 40)">
          <text id="Installment_3" data-name="Installment 3" transform="translate(548 457)" fill="#29339b" font-size="16" font-family="tekton-pro, tekton-pro" font-weight="700"><tspan x="0" y="11">Installment 3</tspan></text>
          <text id="_120.00-4" data-name="$120.00" transform="translate(694 457)" fill="#29339b" font-size="16" font-family="tekton-pro, tekton-pro" font-weight="700"><tspan x="0" y="11">$120.00</tspan></text>
          <text id="Due_12_1_19" data-name="Due 12/1/19" transform="translate(548 476)" fill="#29339b" font-size="12" font-family="tekton-pro, tekton-pro" font-weight="700"><tspan x="0" y="8">Due 12/1/19</tspan></text>
          <text id="Paid_11_19_19" data-name="Paid 11/19/19" transform="translate(694 476)" fill="#29339b" font-size="12" font-family="tekton-pro, tekton-pro" font-weight="700"><tspan x="0" y="8">Paid 11/19/19</tspan></text>
        </g>
        <g id="Checked_-_Light-3" data-name="Checked - Light" transform="translate(791 505)">
          <path id="Box-3" data-name="Box" d="M4.469,14.616c-1.187-.018-2.127-.127-2.257-1.5-.073-.77-.057-1.556-.088-2.329C2.043,8.622,1.913,6.459,1.88,4.3c-.009-.547-.012-1.517.486-1.894.477-.363,1.571-.266,2.148-.29q1.831-.082,3.658-.127t3.661-.048c.867-.006,2.649-.233,3.377.4.767.665.4,3.217.411,4.1q.014,2.053,0,4.1c-.006,1.021.4,3.223-.61,3.846a5.235,5.235,0,0,1-1.942.227,64.34,64.34,0,0,1-8.6,0v1.813h0a.907.907,0,0,0,0-1.813h0a.907.907,0,0,0,0,1.813,56.124,56.124,0,0,0,9.613-.069c1.58-.157,3.045-.583,3.29-2.359a57.681,57.681,0,0,0,.06-8.144C17.414,3.879,17.806,1.4,15.586.52,13.4-.344,10.459.118,8.176.173Q6.2.218,4.236.312A5.426,5.426,0,0,0,1.279.97C-.476,2.206.092,4.891.161,6.713a67.15,67.15,0,0,0,.308,6.978c.308,2.154,2.03,2.7,4.006,2.737A.907.907,0,0,0,4.469,14.616Z" transform="translate(-0.019 -0.001)" fill="#29339b"/>
          <g id="Icon_-_Checked-5" data-name="Icon - Checked" transform="translate(4.568 4.827)">
            <path id="Icon_-_Checked-6" data-name="Icon - Checked" d="M15.382,19.895a24.3,24.3,0,0,0,2.344,2.6.926.926,0,0,0,1.281,0c1.649-1.586,3.214-3.2,4.7-4.939.755-.882-.52-2.169-1.281-1.281-1.492,1.737-3.057,3.35-4.7,4.939h1.281a24.266,24.266,0,0,1-2.344-2.6c-.779-.873-2.057.414-1.281,1.281Z" transform="translate(-15.141 -15.979)" fill="#29339b"/>
          </g>
        </g>
      </g>
      <g id="Group_61" data-name="Group 61" transform="translate(-430 27)">
        <g id="Group_53" data-name="Group 53" transform="translate(0 50)">
          <text id="Installment_2" data-name="Installment 2" transform="translate(548 516)" fill="#29339b" font-size="16" font-family="tekton-pro, tekton-pro" font-weight="700"><tspan x="0" y="11">Installment 2</tspan></text>
          <text id="_120.00-5" data-name="$120.00" transform="translate(694 516)" fill="#29339b" font-size="16" font-family="tekton-pro, tekton-pro" font-weight="700"><tspan x="0" y="11">$120.00</tspan></text>
          <text id="Due_11_1_19" data-name="Due 11/1/19" transform="translate(548 535)" fill="#29339b" font-size="12" font-family="tekton-pro, tekton-pro" font-weight="700"><tspan x="0" y="8">Due 11/1/19</tspan></text>
          <text id="Paid_10_31_19" data-name="Paid 10/31/19" transform="translate(694 535)" fill="#29339b" font-size="12" font-family="tekton-pro, tekton-pro" font-weight="700"><tspan x="0" y="8">Paid 10/31/19</tspan></text>
        </g>
        <g id="Checked_-_Light-4" data-name="Checked - Light" transform="translate(791 574)">
          <path id="Box-4" data-name="Box" d="M4.469,14.616c-1.187-.018-2.127-.127-2.257-1.5-.073-.77-.057-1.556-.088-2.329C2.043,8.622,1.913,6.459,1.88,4.3c-.009-.547-.012-1.517.486-1.894.477-.363,1.571-.266,2.148-.29q1.831-.082,3.658-.127t3.661-.048c.867-.006,2.649-.233,3.377.4.767.665.4,3.217.411,4.1q.014,2.053,0,4.1c-.006,1.021.4,3.223-.61,3.846a5.235,5.235,0,0,1-1.942.227,64.34,64.34,0,0,1-8.6,0v1.813h0a.907.907,0,0,0,0-1.813h0a.907.907,0,0,0,0,1.813,56.124,56.124,0,0,0,9.613-.069c1.58-.157,3.045-.583,3.29-2.359a57.681,57.681,0,0,0,.06-8.144C17.414,3.879,17.806,1.4,15.586.52,13.4-.344,10.459.118,8.176.173Q6.2.218,4.236.312A5.426,5.426,0,0,0,1.279.97C-.476,2.206.092,4.891.161,6.713a67.15,67.15,0,0,0,.308,6.978c.308,2.154,2.03,2.7,4.006,2.737A.907.907,0,0,0,4.469,14.616Z" transform="translate(-0.019 -0.001)" fill="#29339b"/>
          <g id="Icon_-_Checked-7" data-name="Icon - Checked" transform="translate(4.568 4.827)">
            <path id="Icon_-_Checked-8" data-name="Icon - Checked" d="M15.382,19.895a24.3,24.3,0,0,0,2.344,2.6.926.926,0,0,0,1.281,0c1.649-1.586,3.214-3.2,4.7-4.939.755-.882-.52-2.169-1.281-1.281-1.492,1.737-3.057,3.35-4.7,4.939h1.281a24.266,24.266,0,0,1-2.344-2.6c-.779-.873-2.057.414-1.281,1.281Z" transform="translate(-15.141 -15.979)" fill="#29339b"/>
          </g>
        </g>
      </g>
      <g id="Group_62" data-name="Group 62" transform="translate(-430 33)">
        <g id="Group_54" data-name="Group 54" transform="translate(0 60)">
          <text id="Installment_1" data-name="Installment 1" transform="translate(548 575)" fill="#29339b" font-size="16" font-family="tekton-pro, tekton-pro" font-weight="700"><tspan x="0" y="11">Installment 1</tspan></text>
          <text id="_120.00-6" data-name="$120.00" transform="translate(694 575)" fill="#29339b" font-size="16" font-family="tekton-pro, tekton-pro" font-weight="700"><tspan x="0" y="11">$120.00</tspan></text>
          <text id="Due_10_1_19" data-name="Due 10/1/19" transform="translate(548 594)" fill="#29339b" font-size="12" font-family="tekton-pro, tekton-pro" font-weight="700"><tspan x="0" y="8">Due 10/1/19</tspan></text>
          <text id="Paid_10_1_19" data-name="Paid 10/1/19" transform="translate(694 594)" fill="#29339b" font-size="12" font-family="tekton-pro, tekton-pro" font-weight="700"><tspan x="0" y="8">Paid 10/1/19</tspan></text>
        </g>
        <g id="Checked_-_Light-5" data-name="Checked - Light" transform="translate(791 643)">
          <path id="Box-5" data-name="Box" d="M4.469,14.616c-1.187-.018-2.127-.127-2.257-1.5-.073-.77-.057-1.556-.088-2.329C2.043,8.622,1.913,6.459,1.88,4.3c-.009-.547-.012-1.517.486-1.894.477-.363,1.571-.266,2.148-.29q1.831-.082,3.658-.127t3.661-.048c.867-.006,2.649-.233,3.377.4.767.665.4,3.217.411,4.1q.014,2.053,0,4.1c-.006,1.021.4,3.223-.61,3.846a5.235,5.235,0,0,1-1.942.227,64.34,64.34,0,0,1-8.6,0v1.813h0a.907.907,0,0,0,0-1.813h0a.907.907,0,0,0,0,1.813,56.124,56.124,0,0,0,9.613-.069c1.58-.157,3.045-.583,3.29-2.359a57.681,57.681,0,0,0,.06-8.144C17.414,3.879,17.806,1.4,15.586.52,13.4-.344,10.459.118,8.176.173Q6.2.218,4.236.312A5.426,5.426,0,0,0,1.279.97C-.476,2.206.092,4.891.161,6.713a67.15,67.15,0,0,0,.308,6.978c.308,2.154,2.03,2.7,4.006,2.737A.907.907,0,0,0,4.469,14.616Z" transform="translate(-0.019 -0.001)" fill="#29339b"/>
          <g id="Icon_-_Checked-9" data-name="Icon - Checked" transform="translate(4.568 4.827)">
            <path id="Icon_-_Checked-10" data-name="Icon - Checked" d="M15.382,19.895a24.3,24.3,0,0,0,2.344,2.6.926.926,0,0,0,1.281,0c1.649-1.586,3.214-3.2,4.7-4.939.755-.882-.52-2.169-1.281-1.281-1.492,1.737-3.057,3.35-4.7,4.939h1.281a24.266,24.266,0,0,1-2.344-2.6c-.779-.873-2.057.414-1.281,1.281Z" transform="translate(-15.141 -15.979)" fill="#29339b"/>
          </g>
        </g>
      </g>
    </g>
  </g>
</svg>
