<svg xmlns="http://www.w3.org/2000/svg" width="800" height="" viewBox="0 0 800 500" style="max-width:100%;">
  <g id="Group_2805" data-name="Group 2805" transform="translate(-5002 18413)">
    <g id="Rectangle_2474" data-name="Rectangle 2474" transform="translate(5002 -18413)" fill="#f9fafc" stroke="#707070" stroke-width="1">
      <rect width="800" height="500" stroke="none"/>
      <rect x="0.5" y="0.5" width="799" height="499" fill="none"/>
    </g>
    <rect id="Rectangle_2475" data-name="Rectangle 2475" width="200" height="28" rx="14" transform="translate(5058 -18304)" fill="#aab0bb"/>
    <rect id="Rectangle_2476" data-name="Rectangle 2476" width="200" height="28" rx="14" transform="translate(5058 -18194)" fill="#aab0bb"/>
    <rect id="Rectangle_2479" data-name="Rectangle 2479" width="200" height="28" rx="14" transform="translate(5058 -18084)" fill="#aab0bb"/>
    <g id="Rectangle_2477" data-name="Rectangle 2477" transform="translate(5058 -18268)" fill="#e2e6eb" stroke="#e50a45" stroke-width="2">
      <rect width="400" height="26" rx="13" stroke="none"/>
      <rect x="1" y="1" width="398" height="24" rx="12" fill="none"/>
    </g>
    <g id="Rectangle_2478" data-name="Rectangle 2478" transform="translate(5058 -18158)" fill="#e2e6eb" stroke="#e50a45" stroke-width="2">
      <rect width="400" height="26" rx="13" stroke="none"/>
      <rect x="1" y="1" width="398" height="24" rx="12" fill="none"/>
    </g>
    <rect id="Rectangle_2480" data-name="Rectangle 2480" width="400" height="26" rx="13" transform="translate(5058 -18048)" fill="#e2e6eb"/>
    <g id="Group_2517" data-name="Group 2517" transform="translate(-1527 -3293)">
      <path id="exclamation-circle-solid" d="M38,23A15,15,0,1,1,23,8,15,15,0,0,1,38,23ZM23,26.024a2.782,2.782,0,1,0,2.782,2.782A2.782,2.782,0,0,0,23,26.024Zm-2.642-10,.449,8.226a.726.726,0,0,0,.725.686h2.936a.726.726,0,0,0,.725-.686l.449-8.226a.726.726,0,0,0-.725-.765H21.083a.726.726,0,0,0-.725.765Z" transform="translate(7026 -14985)" fill="#e50a45"/>
      <text id="Lorem_Ipsum_dolor_sit_amet." data-name="Lorem Ipsum dolor sit amet." transform="translate(7076 -14974)" fill="#e50a45" font-size="18" font-family="SourceSansPro-SemiBold, Source Sans Pro" font-weight="600" letter-spacing="0.004em"><tspan x="0" y="18">Lorem Ipsum dolor sit amet.</tspan></text>
    </g>
    <g id="Group_2518" data-name="Group 2518" transform="translate(-1527 -3183)">
      <path id="exclamation-circle-solid-2" data-name="exclamation-circle-solid" d="M38,23A15,15,0,1,1,23,8,15,15,0,0,1,38,23ZM23,26.024a2.782,2.782,0,1,0,2.782,2.782A2.782,2.782,0,0,0,23,26.024Zm-2.642-10,.449,8.226a.726.726,0,0,0,.725.686h2.936a.726.726,0,0,0,.725-.686l.449-8.226a.726.726,0,0,0-.725-.765H21.083a.726.726,0,0,0-.725.765Z" transform="translate(7026 -14985)" fill="#e50a45"/>
      <text id="Lorem_Ipsum_dolor_sit_amet.-2" data-name="Lorem Ipsum dolor sit amet." transform="translate(7076 -14974)" fill="#e50a45" font-size="18" font-family="SourceSansPro-SemiBold, Source Sans Pro" font-weight="600" letter-spacing="0.004em"><tspan x="0" y="18">Lorem Ipsum dolor sit amet.</tspan></text>
    </g>
  </g>
</svg>
