<svg xmlns="http://www.w3.org/2000/svg" width="800" viewBox="0 0 800 500" style="max-width:100%;">
  <g id="Group_2809" data-name="Group 2809" transform="translate(-4076 19194)">
    <g id="Rectangle_2465" data-name="Rectangle 2465" transform="translate(4076 -19194)" fill="#f9fafc" stroke="#707070" stroke-width="1">
      <rect width="800" height="500" stroke="none"/>
      <rect x="0.5" y="0.5" width="799" height="499" fill="none"/>
    </g>
    <g id="Group_2526" data-name="Group 2526" transform="translate(-1196 -1354)">
      <rect id="Rectangle_2468" data-name="Rectangle 2468" width="187" height="28" rx="14" transform="translate(5301 -17793)" fill="#aab0bb"/>
      <rect id="Rectangle_2471" data-name="Rectangle 2471" width="110" height="26" rx="13" transform="translate(5301 -17752)" fill="#e2e6eb"/>
      <rect id="Rectangle_2485" data-name="Rectangle 2485" width="159" height="26" rx="13" transform="translate(5776 -17711)" fill="#e2e6eb"/>
      <rect id="Rectangle_2481" data-name="Rectangle 2481" width="254" height="26" rx="13" transform="translate(5424 -17752)" fill="#e2e6eb"/>
      <rect id="Rectangle_2489" data-name="Rectangle 2489" width="266" height="26" rx="13" transform="translate(5757 -17672)" fill="#e2e6eb"/>
      <rect id="Rectangle_2484" data-name="Rectangle 2484" width="462" height="26" rx="13" transform="translate(5301 -17713)" fill="#e2e6eb"/>
      <rect id="Rectangle_2487" data-name="Rectangle 2487" width="307" height="26" rx="13" transform="translate(5301 -17674)" fill="#e2e6eb"/>
      <rect id="Rectangle_2482" data-name="Rectangle 2482" width="72" height="26" rx="13" transform="translate(5691 -17752)" fill="#e2e6eb"/>
      <rect id="Rectangle_2488" data-name="Rectangle 2488" width="115" height="26" rx="13" transform="translate(5619 -17674)" fill="#e2e6eb"/>
      <rect id="Rectangle_2486" data-name="Rectangle 2486" width="75" height="26" rx="13" transform="translate(5948 -17713)" fill="#e2e6eb"/>
      <rect id="Rectangle_2483" data-name="Rectangle 2483" width="247" height="26" rx="13" transform="translate(5776 -17752)" fill="#e2e6eb"/>
    </g>
    <g id="Group_2527" data-name="Group 2527" transform="translate(-1196 -1171)">
      <rect id="Rectangle_2468-2" data-name="Rectangle 2468" width="187" height="28" rx="14" transform="translate(5301 -17793)" fill="#aab0bb"/>
      <rect id="Rectangle_2471-2" data-name="Rectangle 2471" width="110" height="26" rx="13" transform="translate(5301 -17752)" fill="#e2e6eb"/>
      <rect id="Rectangle_2485-2" data-name="Rectangle 2485" width="159" height="26" rx="13" transform="translate(5776 -17711)" fill="#e2e6eb"/>
      <rect id="Rectangle_2481-2" data-name="Rectangle 2481" width="254" height="26" rx="13" transform="translate(5424 -17752)" fill="#e2e6eb"/>
      <rect id="Rectangle_2489-2" data-name="Rectangle 2489" width="266" height="26" rx="13" transform="translate(5757 -17672)" fill="#e2e6eb"/>
      <rect id="Rectangle_2484-2" data-name="Rectangle 2484" width="462" height="26" rx="13" transform="translate(5301 -17713)" fill="#e2e6eb"/>
      <rect id="Rectangle_2487-2" data-name="Rectangle 2487" width="307" height="26" rx="13" transform="translate(5301 -17674)" fill="#e2e6eb"/>
      <rect id="Rectangle_2482-2" data-name="Rectangle 2482" width="72" height="26" rx="13" transform="translate(5691 -17752)" fill="#e2e6eb"/>
      <rect id="Rectangle_2488-2" data-name="Rectangle 2488" width="115" height="26" rx="13" transform="translate(5619 -17674)" fill="#e2e6eb"/>
      <rect id="Rectangle_2486-2" data-name="Rectangle 2486" width="75" height="26" rx="13" transform="translate(5948 -17713)" fill="#e2e6eb"/>
      <rect id="Rectangle_2483-2" data-name="Rectangle 2483" width="247" height="26" rx="13" transform="translate(5776 -17752)" fill="#e2e6eb"/>
    </g>
    <rect id="bg" width="178" height="52" rx="26" transform="translate(4387 -18781)" fill="rgba(0,0,0,0.5)"/>
    <text id="Submit" transform="translate(4476 -18748)" fill="#fff" font-size="18" font-family="SourceSansPro-SemiBold, Source Sans Pro" font-weight="600" letter-spacing="0.004em"><tspan x="-28.35" y="0">Submit</tspan></text>
    <path id="Path_3424" data-name="Path 3424" d="M267.411,108.613c-37.278-2.409-77.29,2.011-111.8,18.083-16.951,7.894-40.3,23.106-38.036,46.458,2.035,21,24.236,33.715,40.348,40.59,39.371,16.8,89.286,18.282,129.63,4.639,15.2-5.138,31.8-13.222,43.245-25.548,15.4-16.591,8.6-40.717-6.3-54.508-19.672-18.307-48.126-22.965-73.244-23.238-22.933-.248-44.6,5.315-65.124,16.183l-.363-.718a140.168,140.168,0,0,1,107.024-14.287c18.347,4.921,37.506,15.007,47.284,33.322a42.129,42.129,0,0,1-8.367,51.379c-32.076,30.053-77.01,36.809-117.976,33.425-21.8-1.8-43.68-6.73-63.561-16.789-16.05-8.12-35.131-21.676-37.767-42.309-4.863-38.064,43.336-55.386,69.532-61.766a250.6,250.6,0,0,1,49.639-6.684q11.069-.429,22.15.026C256.911,107,266.15,106.184,267.411,108.613Z" transform="translate(4247.675 -18935.633)" fill="#29d9c2"/>
  </g>
</svg>
