<svg xmlns="http://www.w3.org/2000/svg" xmlns:xlink="http://www.w3.org/1999/xlink" width="1739" height="" viewBox="0 0 1739 885" style="max-width:100%;">
  <defs>
    <clipPath id="clip-path">
      <path id="Path_2810" data-name="Path 2810" d="M101.566,144.217a8.076,8.076,0,0,1-.9,2.726c-2.058,2.058-1.451,3.59-2.911,6a6.7,6.7,0,0,1,4.043.391,26.749,26.749,0,0,0,4.887.844c4.043.463,7.664,0,11.646,0,3.086.1,6.173.679,9.177.628,2.531-.144,11.2-1.553,12.345,1.5.566-3.261-2.448-7.2-4.043-9.866-.586-.946-.381-3.611-1.265-4.3-1.245-1.121-2.726,1.132-4.537,2-6.08,2.49-13.868,5.36-20.256,2.634-2.87-1.245-5.236-2.387-7.808-2.562Z" transform="translate(-97.76 -141.832)" fill="#fecde2"/>
    </clipPath>
    <clipPath id="clip-path-2">
      <path id="Path_2837" data-name="Path 2837" d="M101.245,145.8a15.753,15.753,0,0,1-.772,1.523,62.233,62.233,0,0,1-3.343,7.3,6.512,6.512,0,0,1,4.033.391c1.677.586,3.9-.473,5.524-.2a94.655,94.655,0,0,0,11.45,1.029c3.086.1,6.173.679,9.166.628,2.541-.144,11.409-2.582,12.582.463.556-3.251-1.811-7.2-3.416-9.784-.576-.946-1.029-3.683-1.893-4.372-1.255-1.121-2.737,1.132-4.547,1.986-6.07,2.5-13.857,5.37-20.256,2.644-2.86-1.245-5.483-2.551-8.055-2.716Z" transform="translate(-97.13 -142.482)" fill="#fecde2"/>
    </clipPath>
    <clipPath id="clip-User_Journey_Map">
      <rect width="1739" height="885"/>
    </clipPath>
  </defs>
  <g id="User_Journey_Map" data-name="User Journey Map" clip-path="url(#clip-User_Journey_Map)">
    <rect width="1739" height="885" fill="#fff"/>
    <g id="Group_2819" data-name="Group 2819">
      <g id="Rectangle_1665" data-name="Rectangle 1665" fill="#fff" stroke="#707070" stroke-width="1">
        <rect width="1739" height="885" stroke="none"/>
        <rect x="0.5" y="0.5" width="1738" height="884" fill="none"/>
      </g>
      <line id="Line_101" data-name="Line 101" y2="480" transform="translate(667.5 215.5)" fill="none" stroke="#707070" stroke-width="1"/>
      <line id="Line_115" data-name="Line 115" y2="480" transform="translate(194.5 215.5)" fill="none" stroke="#707070" stroke-width="1"/>
      <line id="Line_114" data-name="Line 114" y2="480" transform="translate(1206.5 215.5)" fill="none" stroke="#707070" stroke-width="1"/>
      <line id="Line_102" data-name="Line 102" x1="1739" transform="translate(0 215)" fill="none" stroke="#707070" stroke-width="1"/>
      <line id="Line_116" data-name="Line 116" x1="1739" transform="translate(0 695)" fill="none" stroke="#707070" stroke-width="1"/>
      <line id="Line_117" data-name="Line 117" x1="1739" transform="translate(0 317)" fill="none" stroke="#707070" stroke-width="1"/>
      <line id="Line_118" data-name="Line 118" x1="1739" transform="translate(0 437)" fill="none" stroke="#707070" stroke-width="1"/>
      <line id="Line_119" data-name="Line 119" x1="1739" transform="translate(0 557)" fill="none" stroke="#707070" stroke-width="1"/>
      <text id="Lola_uses_the_Premium_Audit_application_to_complete_the_yearly_audit_for_her_insurance_premiums." data-name="Lola uses the Premium Audit application to complete the yearly audit for her insurance premiums." transform="translate(306 67)" font-size="22" font-family="Montserrat-Bold, Montserrat" font-weight="700"><tspan x="0" y="21">Lola uses the Premium Audit application </tspan><tspan x="0" y="58">to complete the yearly audit for her </tspan><tspan x="0" y="95">insurance premiums.</tspan></text>
      <text id="Lola_starts_her_yearly_audit." data-name="Lola starts her yearly audit." transform="translate(232 270)" font-size="22" font-family="Montserrat-Bold, Montserrat" font-weight="700"><tspan x="0" y="21">Lola starts her yearly audit.</tspan></text>
      <text id="I_hope_this_process_is_easy_and_doesn_t_ruin_my_good_mood_" data-name="I hope this process is easy and doesn’t ruin my good mood!" transform="translate(232 459)" font-size="22" font-family="Montserrat-Regular, Montserrat"><tspan x="0" y="21">I hope this process is easy and </tspan><tspan x="0" y="58">doesn’t ruin my good mood!</tspan></text>
      <text id="This_sure_is_a_lot_of_work._I_hope_all_this_information_I_m_entering_is_being_saved." data-name="This sure is a lot of work. I hope all this information I’m entering is being saved." transform="translate(710 459)" font-size="22" font-family="Montserrat-Regular, Montserrat"><tspan x="0" y="21">This sure is a lot of work. I hope all this </tspan><tspan x="0" y="58">information I’m entering is being saved.</tspan></text>
      <text id="Answers_all_questions_and_enters_all_required_information." data-name="Answers all questions and enters all required information." transform="translate(710 345)" font-size="22" font-family="Montserrat-Regular, Montserrat"><tspan x="0" y="21">Answers all questions and enters </tspan><tspan x="0" y="58">all required information.</tspan></text>
      <text id="_I_d_be_really_upset_if_I_had_to_re-do_all_of_this._I_really_hope_it_s_being_saved._" data-name="“I’d be really upset if I had to re-do all of this. I really hope it’s being saved.”" transform="translate(710 585)" font-size="22" font-family="Montserrat-Regular, Montserrat"><tspan x="0" y="21">“I’d be really upset if I had to re-do all </tspan><tspan x="0" y="58">of this. I really hope it’s being saved.”</tspan></text>
      <text id="Logs_into_the_audit_application." data-name="Logs into the audit application." transform="translate(232 351)" font-size="22" font-family="Montserrat-Regular, Montserrat"><tspan x="0" y="21">Logs into the audit application.</tspan></text>
      <text id="Lack_of_system_feedback_causes_the_most_confusion_for_Lola._There_aren_t_clear_error_messages_so_she_doesn_t_understand_why_she_can_t_submit_the_audit_on_the_final_step." data-name="Lack of system feedback causes the most confusion for Lola. There aren’t clear error messages, so she doesn’t understand why she can’t submit the audit on the final step." transform="translate(232 742)" font-size="22" font-family="Montserrat-Bold, Montserrat" font-weight="700"><tspan x="0" y="21">Lack of system feedback causes the most confusion for Lola. There aren’t clear </tspan><tspan x="0" y="58">error messages, so she doesn’t understand why she can’t submit the audit on the </tspan><tspan x="0" y="95">final step.</tspan></text>
      <text id="This_has_been_a_really_stressful_process_I_hope_it_s_finally_over." data-name="This has been a really stressful process…I hope it’s finally over." transform="translate(1249 460)" font-size="22" font-family="Montserrat-Regular, Montserrat"><tspan x="0" y="21">This has been a really stressful </tspan><tspan x="0" y="58">process…I hope it’s finally over.</tspan></text>
      <text id="Clicks_the_final_button_to_submit_the_audit." data-name="Clicks the final button to submit the audit." transform="translate(1249 340)" font-size="22" font-family="Montserrat-Regular, Montserrat"><tspan x="0" y="21">Clicks the final button to submit </tspan><tspan x="0" y="58">the audit.</tspan></text>
      <text id="_What_accounting_information_will_they_ask_for_I_wonder_how_long_this_will_take_" data-name="“What accounting information will they ask for? I wonder how long this will take…”" transform="translate(232 579)" font-size="22" font-family="Montserrat-Regular, Montserrat"><tspan x="0" y="21">“What accounting information will </tspan><tspan x="0" y="58">they ask for? I wonder how long </tspan><tspan x="0" y="95">this will take…”</tspan></text>
      <text id="_Why_won_t_this_submit_I_don_t_see_anything_wrong._" data-name="“Why won’t this submit? I don’t see anything wrong.”" transform="translate(1249 584)" font-size="22" font-family="Montserrat-Regular, Montserrat"><tspan x="0" y="21">“Why won’t this submit? I don’t </tspan><tspan x="0" y="58">see anything wrong.”</tspan></text>
      <text id="Lola_goes_through_the_audit_stepper." data-name="Lola goes through the audit stepper." transform="translate(710 270)" font-size="22" font-family="Montserrat-Bold, Montserrat" font-weight="700"><tspan x="0" y="21">Lola goes through the audit stepper.</tspan></text>
      <text id="Lola_submits_the_audit." data-name="Lola submits the audit." transform="translate(1249 270)" font-size="22" font-family="Montserrat-Bold, Montserrat" font-weight="700"><tspan x="0" y="21">Lola submits the audit.</tspan></text>
      <text id="Lola_knows_it_will_probably_be_a_long_process_but_she_expects_the_application_to_save_her_work_as_she_goes_show_her_progress_and_clearly_display_any_errors_that_need_her_attention." data-name="Lola knows it will probably be a long process, but she expects the application to save her work as she goes, show her progress, and clearly display any errors that need her attention." transform="translate(922 67)" font-size="22" font-family="Montserrat-Bold, Montserrat" font-weight="700"><tspan x="0" y="21">Lola knows it will probably be a long process, but she expects </tspan><tspan x="0" y="58">the application to save her work as she goes, show her </tspan><tspan x="0" y="95">progress, and clearly display any errors that need her attention.</tspan></text>
      <text id="SCENARIO" transform="translate(306 29)" font-size="20" font-family="Montserrat-Medium, Montserrat" font-weight="500"><tspan x="0" y="19">SCENARIO</tspan></text>
      <text id="PHASE_1" data-name="PHASE 1" transform="translate(232 237)" font-size="20" font-family="Montserrat-Medium, Montserrat" font-weight="500"><tspan x="0" y="19">PHASE 1</tspan></text>
      <text id="DOING" transform="translate(49 353)" font-size="20" font-family="Montserrat-Medium, Montserrat" font-weight="500"><tspan x="0" y="19">DOING</tspan></text>
      <text id="THINKING" transform="translate(49 473)" font-size="20" font-family="Montserrat-Medium, Montserrat" font-weight="500"><tspan x="0" y="19">THINKING</tspan></text>
      <text id="SAYING" transform="translate(49 611)" font-size="20" font-family="Montserrat-Medium, Montserrat" font-weight="500"><tspan x="0" y="19">SAYING</tspan></text>
      <text id="INSIGHTS" transform="translate(49 742)" font-size="20" font-family="Montserrat-Medium, Montserrat" font-weight="500"><tspan x="0" y="19">INSIGHTS</tspan></text>
      <text id="PHASE_2" data-name="PHASE 2" transform="translate(710 237)" font-size="20" font-family="Montserrat-Medium, Montserrat" font-weight="500"><tspan x="0" y="19">PHASE 2</tspan></text>
      <text id="PHASE_3" data-name="PHASE 3" transform="translate(1249 237)" font-size="20" font-family="Montserrat-Medium, Montserrat" font-weight="500"><tspan x="0" y="19">PHASE 3</tspan></text>
      <text id="USER_EXPECTATIONS" data-name="USER EXPECTATIONS" transform="translate(922 26)" font-size="20" font-family="Montserrat-Medium, Montserrat" font-weight="500"><tspan x="0" y="19">USER EXPECTATIONS</tspan></text>
      <g id="Head" transform="translate(49.02 29)">
        <g id="Ivory" transform="translate(-0.02 0)">
          <path id="Path_2791" data-name="Path 2791" d="M101.566,144.217a8.076,8.076,0,0,1-.9,2.726c-2.058,2.058-1.451,3.59-2.911,6a6.7,6.7,0,0,1,4.043.391,26.749,26.749,0,0,0,4.887.844c4.043.463,7.664,0,11.646,0,3.086.1,6.173.679,9.177.628,2.531-.144,11.2-1.553,12.345,1.5.566-3.261-2.448-7.2-4.043-9.866-.586-.946-.381-3.611-1.265-4.3-1.245-1.121-2.726,1.132-4.537,2-6.08,2.49-13.868,5.36-20.256,2.634-2.87-1.245-5.236-2.387-7.808-2.562Z" transform="translate(-41.589 -24.314)" fill="#fecde2"/>
          <g id="Group_1999" data-name="Group 1999" transform="translate(56.171 117.518)" clip-path="url(#clip-path)">
            <path id="Path_2792" data-name="Path 2792" d="M104.177,144.506c-.566-.206-1.111-.411-1.677-.566.566,1.9,2.058,3.086,3.385,2.2-.082-.4-.185-.833-.309-1.265A11.221,11.221,0,0,1,104.177,144.506Z" transform="translate(-97.624 -141.772)" fill="#eb80a8" fill-rule="evenodd"/>
            <path id="Path_2793" data-name="Path 2793" d="M101.344,144.4v.062a8.23,8.23,0,0,1-1.183,2.675,7.067,7.067,0,0,0-1.461,2.582C101.591,150.758,102.63,146.406,101.344,144.4Z" transform="translate(-97.733 -141.758)" fill="#eb80a8" fill-rule="evenodd"/>
            <path id="Path_2794" data-name="Path 2794" d="M132.538,143.536a10.188,10.188,0,0,0-.165-1.358,4.289,4.289,0,0,1,1.358-.144,1.408,1.408,0,0,1-.206-.267c-.391-.751-2.13.576-2.809,1.029a4.609,4.609,0,0,0,.113,3.343,3.086,3.086,0,0,0,2.983.669C134.3,144.914,133.732,143.906,132.538,143.536Z" transform="translate(-96.819 -141.841)" fill="#eb80a8" fill-rule="evenodd"/>
            <path id="Path_2795" data-name="Path 2795" d="M115.405,147.943c-.8-.123-1.152,1.687-1.625.885a4.434,4.434,0,0,1,.237-1.461,8.231,8.231,0,0,1-2.376-.237c.319,1.08.946,1.975,1.893,2.058-.37.905-.751,3.971.782,4.033.7-1.543,2.253-2.3,2.685-4.115C116.383,148.848,115.7,148.683,115.405,147.943Z" transform="translate(-97.361 -141.68)" fill="#eb80a8" fill-rule="evenodd"/>
            <path id="Path_2796" data-name="Path 2796" d="M129.147,143.76c-.669.35-1.337.689-2.058,1.029h0v.082a1.317,1.317,0,0,1-1.348.854,1.3,1.3,0,0,0-.093-.37l-1.759.525a5.01,5.01,0,0,0,1.574,2.284c1.564-.545,2.4-1.769,4.115-2.212A6.019,6.019,0,0,0,129.147,143.76Z" transform="translate(-97.008 -141.777)" fill="#eb80a8" fill-rule="evenodd"/>
            <path id="Path_2797" data-name="Path 2797" d="M103.1,147.07c1.214-.123,1.677.905,2,2.16-.2.319-.751.3-.772.782C103.5,149.673,103.254,148.439,103.1,147.07Z" transform="translate(-97.606 -141.682)" fill="#eb80a8" fill-rule="evenodd"/>
            <path id="Path_2798" data-name="Path 2798" d="M121.834,146.53a15.834,15.834,0,0,1-3.745.669v.072c-.257.5.72,1.656-.319,2.057.8,2.109,6.44,3.58,6.6-.463A12.346,12.346,0,0,0,121.834,146.53Zm-1.955,1.543c.8-.6,1.451-.237,1.584,1.183-.8.6-1.4.237-1.584-1.214Z" transform="translate(-97.184 -141.697)" fill="#eb80a8" fill-rule="evenodd"/>
            <path id="Path_2799" data-name="Path 2799" d="M108.915,150.467c.134,2.058-1.09,2.942-1.913,4.115h2.737c.7-2.881,1.914-5.02-.916-7.2-1.1-.123-1.307.586-2.232.617C106.683,149.86,107.855,150.076,108.915,150.467Z" transform="translate(-97.506 -141.673)" fill="#eb80a8" fill-rule="evenodd"/>
            <path id="Path_2800" data-name="Path 2800" d="M99.9,150.473c.082.977-.165,1.656-1.265,1.533C98.232,150.412,99.014,150.154,99.9,150.473Z" transform="translate(-97.738 -141.587)" fill="#eb80a8" fill-rule="evenodd"/>
            <path id="Path_2801" data-name="Path 2801" d="M132.182,149.274c0,2.376-2.284,4.609-3.539,1.811-.391-1.029.648-.792.689-1.461-.165-.7-1.265.062-1.512-.5a2.191,2.191,0,0,0,.123-1.389C129.651,145.972,131.236,147.638,132.182,149.274Z" transform="translate(-96.895 -141.684)" fill="#eb80a8" fill-rule="evenodd"/>
            <path id="Path_2802" data-name="Path 2802" d="M99.4,153.066a8.23,8.23,0,0,1,2.274.319A11.049,11.049,0,0,1,102,151.2c-.422-.309-1.09-.206-1.512-.5-.35,1.255,1.173,1.625.535,2-.854.2-1.245-.957-1.749-.134a1.378,1.378,0,0,0,.093.5Z" transform="translate(-97.717 -141.577)" fill="#eb80a8" fill-rule="evenodd"/>
            <path id="Path_2803" data-name="Path 2803" d="M107.359,153.668a2.932,2.932,0,0,1-3.179-2.366c.329-1.162,1.893-.833,2.562-.309C106.567,152.516,106.844,152.506,107.359,153.668Z" transform="translate(-97.575 -141.582)" fill="#eb80a8" fill-rule="evenodd"/>
            <path id="Path_2804" data-name="Path 2804" d="M136.918,149.506c-.422-.833-1.029-1.553-1.471-2.366a11.543,11.543,0,0,0-2.4,1.029c-.082,2.263,1.368,2.191,2.613,2.428-.268-.782-.638-1.523.36-1.769.175,1.029.257,2.058-.278,2.448-.823.185-.977-.669-1.8-.473a2.469,2.469,0,0,1-.442,1.09c1.337,2.654,3.693,1.7,4.588-.4a14.407,14.407,0,0,1-1.173-1.986Z" transform="translate(-96.745 -141.679)" fill="#eb80a8" fill-rule="evenodd"/>
            <path id="Path_2805" data-name="Path 2805" d="M127.377,154.278a3.323,3.323,0,0,1-.689.73l2.253-.051c-.926-.73-1.584-1.379-.679-2.85-1.337-.319-.638-1.368-.936-2.973C124.342,147.972,124.991,154.206,127.377,154.278Z" transform="translate(-96.967 -141.626)" fill="#eb80a8" fill-rule="evenodd"/>
            <path id="Path_2806" data-name="Path 2806" d="M130.57,154.784h.864a7.706,7.706,0,0,1,2.191-.339,2.829,2.829,0,0,0-2.983-.71C130.848,153.776,130.786,154.3,130.57,154.784Z" transform="translate(-96.816 -141.494)" fill="#eb80a8" fill-rule="evenodd"/>
            <path id="Path_2807" data-name="Path 2807" d="M115.48,154.528l2.058.051c.576-.442,1.965-.113,2.3-.782,0-2.747-2.14-2.788-3.714-1.955A3.405,3.405,0,0,1,115.48,154.528Z" transform="translate(-97.25 -141.558)" fill="#eb80a8" fill-rule="evenodd"/>
            <path id="Path_2808" data-name="Path 2808" d="M113.907,154.469a5.236,5.236,0,0,0-.093-1.029c-1.461-.823-2.058-.072-3,1.029Z" transform="translate(-97.385 -141.508)" fill="#eb80a8" fill-rule="evenodd"/>
            <path id="Path_2809" data-name="Path 2809" d="M121.431,154.75a22.46,22.46,0,0,0,2.356.175c-.216-2.058-1.317-3.92-3.086-1.625a2.222,2.222,0,0,0,.37,1.43Z" transform="translate(-97.1 -141.533)" fill="#eb80a8" fill-rule="evenodd"/>
          </g>
          <path id="Path_2811" data-name="Path 2811" d="M165.152,156.862s2.232,3.477,2.387,1.029c.082-1.3,1.934-2.891,2.387-4.012a92.318,92.318,0,0,1-8.662-5.607c-1.183-.844-9.578-8.076-11.44-9.825-1.78-3.683-4.629-16.357-4.815-17.232-.72-3.333,1.276-11.2-2.51-18.518-.123-.247-1.512-2.983-2.541-5.144a9.156,9.156,0,0,0-4.239-4.321c-6.1-2.448-11.522-1.883-12.551-3.086-.648-.514-2.14-1.914-2.232-2.726a56.862,56.862,0,0,1-6.378.3,10.432,10.432,0,0,1-5.73,3.488,12.17,12.17,0,0,0-4.979,1.029c-4.588,1.842-7.1,1.893-10.648,4-3.364,2-4.876,5.144-4.743,13.816.113,7.592.309,11.985-.319,17.407-.463,3.992-.833,11.039-2.973,13.189a136.832,136.832,0,0,1-14.608,11.779s-5.967,3.086-8.138,3.364c0,0,.844,1.409,2.263,3.6.6.916.8.71.73,1.121,5.144-1.79,20.071-6.419,22.633-8.961,2.747-2.839,7.3-9.362,7.891-11.687s1.286-7.2,1.708-9.084c.206-.885,1.09-14.475,1.831-19.372.535-.823,1.029-1.029,1.625-.885l.123-.165a5.143,5.143,0,0,1,.545-.792,9.671,9.671,0,0,0,.844-1.811c.535-1.358,2.438-2.3,3.58-.946,2.058,2.4,3.8,4.948,5.689,7.325h0a30.358,30.358,0,0,0,5.607,5.648,17,17,0,0,1,2.52-2.819,12.06,12.06,0,0,1,1.029-.833,34.9,34.9,0,0,1,6.512-7.2,1.8,1.8,0,0,1,.658-.329,2.058,2.058,0,0,1,2.8.5,22.139,22.139,0,0,1,3.446,2.994,1.564,1.564,0,0,0,.175-.463c.154-1.029.844,9.465.905,10.658a98.63,98.63,0,0,0,1.553,10.637c.71,4.269,2.438,8.23,2.263,10.442-.113,1.451.751,1.255,3.765,2.428S155.369,153.714,165.152,156.862Z" transform="translate(-42.606 -25.879)" fill="#f0c7ad"/>
          <path id="Path_2812" data-name="Path 2812" d="M173.014,156.8a27.437,27.437,0,0,0,12.345-.247l.1-.216c-3.086-1.029-6.018,0-8.9-1.245,2.006-.216,4.115,0,5.308-1.492a16.459,16.459,0,0,0,1.512-3.539,15.152,15.152,0,0,0,1.183-2.634c.093-.566-.36-1.214-.432-1.78l-.381.062a9.258,9.258,0,0,1-2.983-.062h0c-3.313.576-7.448-.8-10.36.576-2.747,1.3-5.957,4.99-7.531,8.158-.062.113.113-.072,0,0,.432,1.163,1.255,1.173,1.245,2.51,3.21-.905,7.788,2.294,11.687,3.457C176.121,158.758,174.32,157.873,173.014,156.8Zm1.142-5.74c.267-1.6,1.79-1.687,2.839-1.924,1.79-.411,3.714-.7,5.051-2.058a.1.1,0,0,1,.165-.051C180.184,150.384,177.756,152.483,174.156,151.063Z" transform="translate(-39.717 -24.206)" fill="#f0c7ad" fill-rule="evenodd"/>
          <path id="Path_2813" data-name="Path 2813" d="M100.451,180.607s-11.234-.278-13.569-.051c-.772.082-1.451.144-2.87.206H81.017c-2.87.123-14.608-.319-16.717-.442-3.086-.175-12.232-3.94-13.8-10.216-1.4-5.586,7.2-9.259,9.6-9.958,5.072-1.461,17.376-2.058,22.1-1.913,0,0,13.5.412,15.37-2.274a41.727,41.727,0,0,0,3.94-7.932c.226-1.142,33.239.926,35.534-.453s3.3,8.292,4.187,8.528c6.522,1.739,37.55-2.222,40.328,5.144.288.761,2.531,4.166,2.16,4.887s-.658,3.992-1.574,4.66c-3.611,2.6-11.234,7.6-20.575,8.961-11.656,1.7-25.9,1.276-37.663,1.029C110.687,180.618,100.523,180.453,100.451,180.607Z" transform="translate(-42.953 -24.153)"/>
          <path id="Path_2814" data-name="Path 2814" d="M52.583,162.555c3.961-.926,9.773-4.208,13.374-3.817.072-1.327-1.183-1.533-.679-2.665a3.593,3.593,0,0,1-.309-.247c-2.49-2.191-3.477-5.576-6.173-7.037-2.819-1.553-7.037-.442-10.288-1.214h0a9.475,9.475,0,0,1-2.983-.123l-.381-.082c-.1.556-.6,1.173-.545,1.749a15.534,15.534,0,0,0,1.029,2.7,17.1,17.1,0,0,0,1.286,3.632c1.111,1.574,3.22,1.481,5.216,1.821-2.963,1.029-5.782-.2-8.971.689l.093.226A27.581,27.581,0,0,0,55.6,159.211C54.23,160.168,52.357,160.939,52.583,162.555Zm-5.566-13.683c.082-.051.113,0,.154.072,1.255,1.409,3.148,1.811,4.907,2.335,1.029.309,2.551.483,2.726,2.109C51.123,154.582,48.828,152.329,47.018,148.872Z" transform="translate(-43.16 -24.155)" fill="#f0c7ad" fill-rule="evenodd"/>
          <path id="Path_2815" data-name="Path 2815" d="M133.709,111.572c-6.029-5.926-2.459-19.793-2.459-19.793a3.673,3.673,0,0,0-1.811-.658c-2.058.257-.936,8.878-2.058,13.374-1.2,4.938-8.024,11.8-10.154,13.508-2.181-1.708-9.485-8.477-10.679-13.374s-.062-11.779-2.274-12.973a1.358,1.358,0,0,0-1.481.5s1.7,13.292-4.331,19.228c0,0-3.477,12.15,8.168,14.218,0,0,3.3,3.086-6.358,24.155l17.026.833h19.989c-9.681-16.46-9.67-24.989-9.67-24.989C138.122,122.816,133.709,111.572,133.709,111.572Z" transform="translate(-41.583 -25.773)" fill="#2e3192"/>
          <path id="Path_2816" data-name="Path 2816" d="M116.908,113.51a15.226,15.226,0,0,1-1.358,2.767l1.245,1.029,1.307-1.152C117.247,116.36,116.908,113.51,116.908,113.51Z" transform="translate(-41.078 -25.129)" fill="#bf8c6f"/>
          <path id="Path_2817" data-name="Path 2817" d="M76.1,164.56c-5.658,0-9.67.442-9.67.442a72.764,72.764,0,0,1,14.753.7c1.78.267,3.58.566,5.35.874,2.181.391,4.424,1.337,6.44,1.749,6.821,1.368,12,2.119,12.026,2.119s-5.6-.9-12.037-2.356c-2.253-.5-4.7-1.564-6.913-2.058A65.667,65.667,0,0,0,76.1,164.56Z" transform="translate(-42.491 -23.66)" fill="gray"/>
          <path id="Path_2818" data-name="Path 2818" d="M101.245,145.8a15.753,15.753,0,0,1-.772,1.523,62.233,62.233,0,0,1-3.343,7.3,6.512,6.512,0,0,1,4.033.391c1.677.586,3.9-.473,5.524-.2a94.655,94.655,0,0,0,11.45,1.029c3.086.1,6.173.679,9.166.628,2.541-.144,11.409-2.582,12.582.463.556-3.251-1.811-7.2-3.416-9.784-.576-.946-1.029-3.683-1.893-4.372-1.255-1.121-2.737,1.132-4.547,1.986-6.07,2.5-13.857,5.37-20.256,2.644-2.86-1.245-5.483-2.551-8.055-2.716Z" transform="translate(-41.608 -24.295)" fill="#fecde2"/>
          <g id="Group_2000" data-name="Group 2000" transform="translate(55.522 118.187)" clip-path="url(#clip-path-2)">
            <path id="Path_2819" data-name="Path 2819" d="M104.157,145.156c-.556-.206-1.1-.411-1.677-.566.566,1.9,2.058,3.086,3.385,2.2-.072-.4-.185-.833-.309-1.265a11.712,11.712,0,0,1-1.4-.37Z" transform="translate(-96.976 -142.421)" fill="#eb80a8" fill-rule="evenodd"/>
            <path id="Path_2820" data-name="Path 2820" d="M101.334,145a.659.659,0,0,1,0,.072,8,8,0,0,1-1.183,2.675,7.2,7.2,0,0,0-1.461,2.582C101.581,151.409,102.62,147.058,101.334,145Z" transform="translate(-97.085 -142.41)" fill="#eb80a8" fill-rule="evenodd"/>
            <path id="Path_2821" data-name="Path 2821" d="M132.528,144.186c-.062-.453-.113-.905-.165-1.358a4.26,4.26,0,0,1,1.358-.144.812.812,0,0,1-.206-.278c-.391-.741-2.14.586-2.809,1.029a4.506,4.506,0,0,0,.113,3.344,3.014,3.014,0,0,0,2.973.669C134.277,145.564,133.722,144.556,132.528,144.186Z" transform="translate(-96.172 -142.491)" fill="#eb80a8" fill-rule="evenodd"/>
            <path id="Path_2822" data-name="Path 2822" d="M115.385,148.593c-.792-.123-1.142,1.687-1.625.885a4.433,4.433,0,0,1,.237-1.461,8.3,8.3,0,0,1-2.376-.237c.319,1.08.957,1.975,1.893,2.058-.36.905-.741,3.971.782,4.033.71-1.553,2.253-2.3,2.685-4.115C116.373,149.5,115.694,149.333,115.385,148.593Z" transform="translate(-96.713 -142.33)" fill="#eb80a8" fill-rule="evenodd"/>
            <path id="Path_2823" data-name="Path 2823" d="M129.147,144.41c-.658.35-1.337.689-2.058,1.029h0v.082a1.307,1.307,0,0,1-1.337.854,1.771,1.771,0,0,0-.093-.37c-.6.165-1.183.339-1.769.525a5.144,5.144,0,0,0,1.574,2.284c1.564-.556,2.407-1.769,4.115-2.212a5.607,5.607,0,0,0-.432-2.191Z" transform="translate(-96.36 -142.427)" fill="#eb80a8" fill-rule="evenodd"/>
            <path id="Path_2824" data-name="Path 2824" d="M103.08,147.72c1.214-.123,1.687.905,2.058,2.16-.2.319-.761.3-.772.782C103.481,150.323,103.245,149.089,103.08,147.72Z" transform="translate(-96.959 -142.332)" fill="#eb80a8" fill-rule="evenodd"/>
            <path id="Path_2825" data-name="Path 2825" d="M121.814,147.18a15.753,15.753,0,0,1-3.745.669.442.442,0,0,0,0,.072c-.267.5.71,1.656-.329,2.058.813,2.109,6.44,3.58,6.6-.463A12.108,12.108,0,0,0,121.814,147.18Zm-1.955,1.543c.813-.6,1.451-.237,1.595,1.183C120.641,150.5,120,150.143,119.859,148.723Z" transform="translate(-96.537 -142.347)" fill="#eb80a8" fill-rule="evenodd"/>
            <path id="Path_2826" data-name="Path 2826" d="M108.9,151.087c.134,2.058-1.09,2.942-1.913,4.115h2.737c.7-2.881,1.913-5.02-.905-7.2-1.111-.123-1.317.586-2.243.617C106.663,150.511,107.835,150.727,108.9,151.087Z" transform="translate(-96.858 -142.324)" fill="#eb80a8" fill-rule="evenodd"/>
            <path id="Path_2827" data-name="Path 2827" d="M99.878,151.123c.082.977-.165,1.656-1.255,1.533C98.212,151.062,99.014,150.8,99.878,151.123Z" transform="translate(-97.09 -142.237)" fill="#eb80a8" fill-rule="evenodd"/>
            <path id="Path_2828" data-name="Path 2828" d="M132.122,149.924c0,2.376-2.284,4.609-3.539,1.811-.381-1.029.648-.8.689-1.461-.165-.7-1.265.062-1.512-.5a2.191,2.191,0,0,0,.123-1.389C129.643,146.662,131.217,148.288,132.122,149.924Z" transform="translate(-96.249 -142.334)" fill="#eb80a8" fill-rule="evenodd"/>
            <path id="Path_2829" data-name="Path 2829" d="M99.384,153.756a8.231,8.231,0,0,1,2.274.319,11.049,11.049,0,0,1,.319-2.181c-.411-.309-1.09-.206-1.5-.5-.36,1.255,1.163,1.625.525,2-.854.2-1.234-.957-1.749-.134a1.636,1.636,0,0,0,.093.5Z" transform="translate(-97.069 -142.226)" fill="#eb80a8" fill-rule="evenodd"/>
            <path id="Path_2830" data-name="Path 2830" d="M107.339,154.318a2.942,2.942,0,0,1-3.179-2.366c.339-1.163,1.893-.833,2.572-.309C106.547,153.166,106.824,153.156,107.339,154.318Z" transform="translate(-96.928 -142.232)" fill="#eb80a8" fill-rule="evenodd"/>
            <path id="Path_2831" data-name="Path 2831" d="M136.9,150.156c-.422-.833-1.029-1.553-1.471-2.366a11.542,11.542,0,0,0-2.4,1.029c-.082,2.263,1.368,2.191,2.613,2.428-.267-.782-.628-1.523.36-1.769.175,1.029.257,2.058-.278,2.448-.823.185-.967-.669-1.79-.473a2.51,2.51,0,0,1-.453,1.029c1.348,2.665,3.693,1.708,4.588-.391a15.579,15.579,0,0,1-1.173-1.934Z" transform="translate(-96.097 -142.329)" fill="#eb80a8" fill-rule="evenodd"/>
            <path id="Path_2832" data-name="Path 2832" d="M127.357,154.928a3.539,3.539,0,0,1-.679.73l2.243-.062c-.926-.72-1.584-1.368-.669-2.839-1.337-.329-.648-1.368-.946-2.973C124.322,148.652,124.991,154.856,127.357,154.928Z" transform="translate(-96.319 -142.276)" fill="#eb80a8" fill-rule="evenodd"/>
            <path id="Path_2833" data-name="Path 2833" d="M130.55,155.434h.874a7.635,7.635,0,0,1,2.181-.339,2.819,2.819,0,0,0-2.973-.71C130.828,154.426,130.776,154.95,130.55,155.434Z" transform="translate(-96.169 -142.144)" fill="#eb80a8" fill-rule="evenodd"/>
            <path id="Path_2834" data-name="Path 2834" d="M115.46,155.18h2.058c.576-.442,1.975-.123,2.3-.782,0-2.747-2.14-2.788-3.714-1.955A3.405,3.405,0,0,1,115.46,155.18Z" transform="translate(-96.603 -142.209)" fill="#eb80a8" fill-rule="evenodd"/>
            <path id="Path_2835" data-name="Path 2835" d="M113.886,155.109a4.445,4.445,0,0,0-.093-1.029c-1.451-.823-2.058-.072-2.994,1.029Z" transform="translate(-96.737 -142.159)" fill="#eb80a8" fill-rule="evenodd"/>
            <path id="Path_2836" data-name="Path 2836" d="M121.411,155.4a22.451,22.451,0,0,0,2.356.175c-.206-2.058-1.307-3.92-3.086-1.625a2.356,2.356,0,0,0,.37,1.43Z" transform="translate(-96.453 -142.183)" fill="#eb80a8" fill-rule="evenodd"/>
          </g>
          <path id="Path_2838" data-name="Path 2838" d="M121.394,170.847a3.323,3.323,0,0,1-1.173-.916c-.741-.782-3.086-3.446-5.062-3.621s-5.072,3.086-5.854,3.837-1.44,1.965-2.747,2.181-6.5-.566-8.23-.916-2.294-.648-3.3-.432-2.664,1.615-3.405,2.058-1.307,0-2.15.648-2.6,2.593-2.562,3.621a1.893,1.893,0,0,0,1.121,1.759s0,.319.525.514a3.261,3.261,0,0,0,1.152.144.443.443,0,0,0,.535.422,12.013,12.013,0,0,0,1.924-.082,7.418,7.418,0,0,1,3.241-.936c1.286.134,10.288,1.029,13.744,1.029s9.948.144,10.617,0,2.6-.329,2.6-.329l-.72-8.93Z" transform="translate(-41.902 -23.61)" fill="#f0c7ad"/>
          <path id="Path_2839" data-name="Path 2839" d="M156.757,163.6a41.245,41.245,0,0,1,9.835-.73c-2.428-.185-8.055.895-14.557,1.852-1.78.267-3.426,1.029-5.206,1.317-2.181.391-5.247,1.924-7.263,2.335-6.821,1.368-12,2.119-12.026,2.119s5.6-.9,12.037-2.356c2.253-.5,5.823-2.14,8-2.737A82.644,82.644,0,0,1,156.757,163.6Z" transform="translate(-40.733 -23.71)" fill="gray"/>
          <g id="Lola" transform="translate(58.975)">
            <path id="Path_2840" data-name="Path 2840" d="M129.618,62.358a6.5,6.5,0,0,0,.453-2.726c-.628-3.086-5.751-4.383-8.1-5.082-4.619-1.286-11.316-1.872-15.431,1.163-1.214.885-2.86,2.2-3.241,3.724-.514,1.769,1.193,2.6,2.654,2.983,2.058.514,4.3.514,6.45.967a53.3,53.3,0,0,0,6.265,1.152c3.734.267,7.726.6,10.637-2.058" transform="translate(-100.407 -26.855)" fill="#bc7d54"/>
            <path id="Path_2841" data-name="Path 2841" d="M116.309,82.83a8.58,8.58,0,0,1-2.356-.35,24.688,24.688,0,0,1-.453,3.405s3.662-.71,5-3.271v-.093A8.961,8.961,0,0,1,116.309,82.83Z" transform="translate(-100.111 -26.021)" fill="#bf8c6f"/>
            <path id="Path_2842" data-name="Path 2842" d="M130.1,60.869h0c.247-4.732,0-11.5-9.177-14.6a26.75,26.75,0,0,0-4.2-1.111,26.255,26.255,0,0,0-4.2,1.09c-8.858,2.953-9.465,9.4-9.259,14.1a46.45,46.45,0,0,0-.093,7.777,11.237,11.237,0,0,0,.247,1.183s0-.093,0-.144a3.56,3.56,0,1,1,.648,2.058,30.657,30.657,0,0,0,9.022,11.831,6.223,6.223,0,0,0,1.132.463v.494a14.8,14.8,0,0,1-2.87,8.024c-.144.2,7.675.556,9.259,0a5.707,5.707,0,0,1,.833-.175,16.687,16.687,0,0,1-2.6-7.777c0-.154,0-.288,0-.432-1.337,2.562-5,3.271-5,3.271a24.686,24.686,0,0,0,.453-3.405,8.559,8.559,0,0,0,2.346.35,8.982,8.982,0,0,0,2.243-.309,6,6,0,0,0,1.276-.494,30.348,30.348,0,0,0,9.187-12.057,2.65,2.65,0,1,1,.5-1.337,9.773,9.773,0,0,0,.35-1.5,45.952,45.952,0,0,0-.1-7.3ZM123.625,58.6c1.749-.247,6.018-.267,6.029,2.9a5.473,5.473,0,0,0-2.294-1.9c-3.086-.967-5.823,1.2-7.572-.484,0,0,2.088-.267,3.837-.514Zm-13.518.123,3.693,1.162c-2.058,1.358-4.29-1.235-7.541-.833a5.5,5.5,0,0,0-2.592,1.481C104.223,57.413,108.43,58.174,110.107,58.719Zm-.278,6.738c-1.029.607-3.8-.432-4.321-1.409a11.048,11.048,0,0,1-.453-1.461,2.057,2.057,0,0,1-1.317-.556.885.885,0,0,1-.4-.772s1.337.946,2.058.453,3.086-1.553,4.887-.607a5.936,5.936,0,0,1,2.839,3.909.69.69,0,0,1,0,.175H112.9a7.016,7.016,0,0,0-3.066.267Zm13.559,9.588h.093a6.748,6.748,0,0,1-2.058,2.325,21.89,21.89,0,0,1-2.356,2.058,5.072,5.072,0,0,1-2.541.309A5.041,5.041,0,0,1,114,79.418a21.943,21.943,0,0,1-2.356-2.058,6.615,6.615,0,0,1-1.986-2.335h.093a2.767,2.767,0,0,0,1.481-.154c1.934-.566,3.086-1.358,3.7-1.162s1.029.607,1.6.73c.566-.123,1.029-.556,1.615-.72s1.769.6,3.7,1.173A2.87,2.87,0,0,0,123.389,75.046Zm6.224-12.952a2.058,2.058,0,0,1-1.317.545,12.951,12.951,0,0,1-.5,1.471c-.525,1.029-3.282,2-4.331,1.389a7.129,7.129,0,0,0-3.086-.309h-.237v-.175a5.957,5.957,0,0,1,2.85-3.9c1.8-.936,4.115.134,4.887.638s2.058-.442,2.058-.442a.875.875,0,0,1-.319.782Z" transform="translate(-100.412 -27.095)" fill="#f0c7ad"/>
            <path id="Path_2843" data-name="Path 2843" d="M77.7,47.37l-.072.648.072-.648Z" transform="translate(-56.721 1.363)" fill="#bc7d54"/>
            <path id="Path_2844" data-name="Path 2844" d="M68.36,47.35l.072.648-.072-.648Z" transform="translate(-56.988 1.362)" fill="#bc7d54"/>
            <path id="Path_2845" data-name="Path 2845" d="M129.013,69a14.017,14.017,0,0,1-.463,1.337A3.508,3.508,0,0,0,129.013,69Z" transform="translate(-99.679 -26.409)" fill="#e07b88" opacity="0.61"/>
            <path id="Path_2846" data-name="Path 2846" d="M125.72,65.11a3.549,3.549,0,1,0,3.035,5.36,14.02,14.02,0,0,0,.442-1.358,3.782,3.782,0,0,0-3.477-4Z" transform="translate(-99.863 -26.521)" fill="#f0c7ad"/>
            <path id="Path_2847" data-name="Path 2847" d="M104.018,70.543a17.918,17.918,0,0,1-.638-1.9,3.57,3.57,0,0,0,.638,1.9Z" transform="translate(-100.403 -26.419)" fill="#e07b88" opacity="0.61"/>
            <path id="Path_2848" data-name="Path 2848" d="M106.939,72.2a3.549,3.549,0,1,0-3.539-3.56v.144a17.922,17.922,0,0,0,.638,1.9A3.549,3.549,0,0,0,106.939,72.2Z" transform="translate(-100.402 -26.521)" fill="#f0c7ad"/>
            <path id="Path_2849" data-name="Path 2849" d="M107.472,61.91a13.765,13.765,0,0,1-1.852.206,1.162,1.162,0,0,1,.288.658,2.243,2.243,0,0,0,1.831,1.955,3.446,3.446,0,0,0,1.029.082,2.252,2.252,0,0,1-.339-.123,2.119,2.119,0,0,1-.957-2.778Z" transform="translate(-100.338 -26.613)" fill="#f1e5e9"/>
            <path id="Path_2850" data-name="Path 2850" d="M112.85,64.46a.886.886,0,0,1,0,.175.689.689,0,0,0,0-.175Z" transform="translate(-100.13 -26.54)" fill="#f1e5e9"/>
            <path id="Path_2851" data-name="Path 2851" d="M111.979,63.106a4.631,4.631,0,0,0-.6-.576,1.514,1.514,0,0,1,0,.288,2.191,2.191,0,0,1-.216.874,2.325,2.325,0,0,1-.6.73,2.983,2.983,0,0,1,2.356.267s-.4-.607-.8-1.327A2.056,2.056,0,0,0,111.979,63.106Z" transform="translate(-100.196 -26.595)" fill="#f1e5e9"/>
            <path id="Path_2852" data-name="Path 2852" d="M112.886,64.63h0Z" transform="translate(-100.136 -26.535)" fill="#f1e5e9"/>
            <path id="Path_2853" data-name="Path 2853" d="M111.282,63.714a2.191,2.191,0,0,0,.216-.874,1.029,1.029,0,0,1-.1.381.823.823,0,0,0-.545-.113,1.2,1.2,0,0,1-.113.339,1.533,1.533,0,0,1-2.716-1.348,1.739,1.739,0,0,1,.216-.319l-.782.134a2.119,2.119,0,0,0,1.029,2.778,2.254,2.254,0,0,0,.339.123,14.783,14.783,0,0,0,1.924-.37A2.325,2.325,0,0,0,111.282,63.714Z" transform="translate(-100.291 -26.617)" fill="#00b5cc"/>
            <path id="Path_2854" data-name="Path 2854" d="M112.88,64.682h.226a2.983,2.983,0,0,0-2.356-.267,14.783,14.783,0,0,1-1.924.37A3.446,3.446,0,0,1,107.8,64.7a2.243,2.243,0,0,1-1.831-1.955,1.163,1.163,0,0,0-.288-.658,4.938,4.938,0,0,1-.679,0,11.048,11.048,0,0,0,.494,1.461c.525.977,3.271,2.058,4.321,1.409a7.016,7.016,0,0,1,3.066-.278Z" transform="translate(-100.356 -26.608)" fill="#453530"/>
            <path id="Path_2855" data-name="Path 2855" d="M111.33,63.213a1.029,1.029,0,0,0,.1-.381,1.512,1.512,0,0,0,0-.288,4.362,4.362,0,0,0-.854-.525,1.307,1.307,0,0,1-1.029.617.37.37,0,0,0,.35.494,7.737,7.737,0,0,0,.957,0,.823.823,0,0,1,.473.082Z" transform="translate(-100.226 -26.61)" fill="#bca584"/>
            <path id="Path_2856" data-name="Path 2856" d="M103.691,61.582a1.667,1.667,0,0,1-.4-.772A.885.885,0,0,0,103.691,61.582Z" transform="translate(-100.405 -26.645)" fill="#453530"/>
            <path id="Path_2857" data-name="Path 2857" d="M105.048,61.627c2-.154,5.267-1.821,7.109,1.564h0a2.056,2.056,0,0,1,.165.257c.4.72.8,1.327.8,1.327a.884.884,0,0,0,0-.175,5.936,5.936,0,0,0-2.839-3.909c-1.8-.946-4.115.113-4.887.607s-2.058-.453-2.058-.453A3.179,3.179,0,0,0,105.048,61.627Z" transform="translate(-100.404 -26.659)" fill="#453530"/>
            <path id="Path_2858" data-name="Path 2858" d="M105.689,62.149a13.765,13.765,0,0,0,1.852-.206l.782-.134a1.739,1.739,0,0,0-.216.319,1.533,1.533,0,0,0,2.747,1.348,1.2,1.2,0,0,0,.113-.339,7.74,7.74,0,0,1-.957,0,.37.37,0,0,1-.35-.494,1.307,1.307,0,0,0,1.029-.617,4.363,4.363,0,0,1,.854.525,4.631,4.631,0,0,1,.6.576h0c-1.841-3.385-5.144-1.718-7.109-1.564a3.179,3.179,0,0,1-1.8-.8,1.667,1.667,0,0,0,.4.772,2.058,2.058,0,0,0,1.317.556A4.937,4.937,0,0,0,105.689,62.149Z" transform="translate(-100.407 -26.646)"/>
            <path id="Path_2859" data-name="Path 2859" d="M124.159,64.728a2.253,2.253,0,0,1-.339.123,3.178,3.178,0,0,0,1.029-.082,2.232,2.232,0,0,0,1.831-1.944,1.245,1.245,0,0,1,.288-.648,13.807,13.807,0,0,1-1.841-.226A2.13,2.13,0,0,1,124.159,64.728Z" transform="translate(-99.815 -26.612)" fill="#f1e5e9"/>
            <path id="Path_2860" data-name="Path 2860" d="M119.887,64.63h0Z" transform="translate(-99.935 -26.535)" fill="#f1e5e9"/>
            <path id="Path_2861" data-name="Path 2861" d="M122.066,64.453a1.965,1.965,0,0,1-.586-.73,1.985,1.985,0,0,1-.216-.864.927.927,0,0,1,0-.288,3.868,3.868,0,0,0-.607.586h0l-.154.226c-.411.72-.813,1.327-.813,1.327A3,3,0,0,1,122.066,64.453Z" transform="translate(-99.933 -26.594)" fill="#f1e5e9"/>
            <path id="Path_2862" data-name="Path 2862" d="M119.65,64.655v0Z" transform="translate(-99.935 -26.539)" fill="#f1e5e9"/>
            <path id="Path_2863" data-name="Path 2863" d="M121.263,63.26a1.143,1.143,0,0,1-.093-.381,1.985,1.985,0,0,0,.216.864,1.965,1.965,0,0,0,.586.73,14.467,14.467,0,0,0,1.924.381,2.253,2.253,0,0,0,.339-.123,2.13,2.13,0,0,0,1.029-2.778l-.782-.123a1.656,1.656,0,0,1,.216.309,1.534,1.534,0,1,1-2.757,1.348,2.192,2.192,0,0,1-.113-.339A.73.73,0,0,0,121.263,63.26Z" transform="translate(-99.891 -26.615)" fill="#00b5cc"/>
            <path id="Path_2864" data-name="Path 2864" d="M127.128,62.17a1.245,1.245,0,0,0-.288.648,2.232,2.232,0,0,1-1.831,1.944,3.179,3.179,0,0,1-1.029.082,14.463,14.463,0,0,1-1.913-.381,3,3,0,0,0-2.366.257h.237a7.129,7.129,0,0,1,3.086.309c1.029.607,3.806-.412,4.331-1.389a12.949,12.949,0,0,0,.5-1.471A5.038,5.038,0,0,1,127.128,62.17Z" transform="translate(-99.933 -26.606)" fill="#453530"/>
            <path id="Path_2865" data-name="Path 2865" d="M121.17,62.874a1.141,1.141,0,0,0,.093.381.73.73,0,0,1,.545-.113h.967a.381.381,0,0,0,.35-.494,1.317,1.317,0,0,1-1.029-.628,3.776,3.776,0,0,0-.864.535.926.926,0,0,0-.062.319Z" transform="translate(-99.891 -26.61)" fill="#bca584"/>
            <path id="Path_2866" data-name="Path 2866" d="M127.426,61.338c-.761-.5-3.086-1.574-4.887-.638a5.957,5.957,0,0,0-2.85,3.9c0,.062,0,.123,0,.175a12.783,12.783,0,0,0,.813-1.327l.154-.226c1.862-3.374,5.144-1.7,7.119-1.533a3.189,3.189,0,0,0,1.8-.792S128.239,61.832,127.426,61.338Z" transform="translate(-99.933 -26.659)" fill="#453530"/>
            <path id="Path_2867" data-name="Path 2867" d="M129.271,60.88a1.79,1.79,0,0,1-.4.761A.874.874,0,0,0,129.271,60.88Z" transform="translate(-99.669 -26.643)" fill="#453530"/>
            <path id="Path_2868" data-name="Path 2868" d="M127.709,61.671c-2-.165-5.257-1.841-7.119,1.533h0a3.869,3.869,0,0,1,.607-.586,3.776,3.776,0,0,1,.864-.535,1.317,1.317,0,0,0,1.029.628.381.381,0,0,1-.35.494h-.967a2.188,2.188,0,0,0,.113.339,1.534,1.534,0,0,0,2.757-1.348,1.656,1.656,0,0,0-.216-.309l.782.123a13.805,13.805,0,0,0,1.842.226,5.04,5.04,0,0,0,.689,0,2.057,2.057,0,0,0,1.317-.545,1.79,1.79,0,0,0,.4-.761,3.189,3.189,0,0,1-1.749.741Z" transform="translate(-99.907 -26.641)"/>
            <path id="Path_2869" data-name="Path 2869" d="M120.922,74.58v.412h0l-.072.648a10.358,10.358,0,0,0,1.656-.772,2.654,2.654,0,0,0,.381-.514.875.875,0,0,1,.093-.144h0c-.226.339-.823.35-1.667.4A2.409,2.409,0,0,0,120.922,74.58Z" transform="translate(-99.9 -26.259)"/>
            <path id="Path_2870" data-name="Path 2870" d="M116.389,78.842a5.072,5.072,0,0,0,2.541-.309,21.893,21.893,0,0,0,2.356-2.058,6.749,6.749,0,0,0,2.058-2.325h0a.876.876,0,0,0-.093.144,2.656,2.656,0,0,1-.381.514,10.36,10.36,0,0,1-1.656.772c-.525.237-1.029.442-1.368.566a19,19,0,0,1-3.323.658h-.082a20.29,20.29,0,0,1-3.323-.679c-.339-.113-.854-.329-1.368-.566a10.514,10.514,0,0,1-1.646-.782,2.562,2.562,0,0,1-.381-.514l-.093-.144h0a6.615,6.615,0,0,0,1.986,2.335,21.942,21.942,0,0,0,2.356,2.058A5.041,5.041,0,0,0,116.389,78.842Z" transform="translate(-100.223 -26.262)" fill="#cc2230"/>
            <path id="Path_2871" data-name="Path 2871" d="M111.557,74.6a25.029,25.029,0,0,0,2.592-.4,8.826,8.826,0,0,1,2.253.4,9.463,9.463,0,0,1,2.263-.391,24.694,24.694,0,0,0,2.582.412h.381c.844,0,1.44-.062,1.667-.4H123.2a2.87,2.87,0,0,1-1.481-.175c-1.934-.576-3.025-1.368-3.7-1.173s-1.029.6-1.615.72c-.556-.123-1.029-.566-1.6-.73s-1.769.6-3.7,1.162a2.767,2.767,0,0,1-1.481.154h-.093c.226.35.823.36,1.667.422Z" transform="translate(-100.226 -26.299)" fill="#cc2230"/>
            <path id="Path_2872" data-name="Path 2872" d="M109.642,74.325a2.561,2.561,0,0,0,.381.514,10.515,10.515,0,0,0,1.646.782l-.072-.648h0v-.412h-.37c-.844-.062-1.44-.072-1.667-.422h0Z" transform="translate(-100.225 -26.261)"/>
            <path id="Path_2873" data-name="Path 2873" d="M121.151,75.023h0v-.412a24.691,24.691,0,0,1-2.582-.411,9.464,9.464,0,0,0-2.263.391,8.828,8.828,0,0,0-2.253-.4,25.028,25.028,0,0,1-2.592.4V75h0l.072.648c.514.237,1.029.453,1.368.566a20.289,20.289,0,0,0,3.323.679h.082a19,19,0,0,0,3.323-.658c.339-.123.844-.329,1.368-.566l.072-.648Z" transform="translate(-100.17 -26.26)" fill="#fff"/>
            <path id="Path_2874" data-name="Path 2874" d="M113.783,59.516l-3.693-1.163c-1.677-.545-5.874-1.307-6.44,1.811a5.5,5.5,0,0,1,2.592-1.481C109.493,58.282,111.767,60.874,113.783,59.516Z" transform="translate(-100.395 -26.73)" fill="#592d04"/>
            <path id="Path_2875" data-name="Path 2875" d="M126.891,59.222a5.473,5.473,0,0,1,2.294,1.862c0-3.169-4.28-3.148-6.029-2.9s-3.827.514-3.827.514C121.048,60.425,123.764,58.255,126.891,59.222Z" transform="translate(-99.944 -26.723)" fill="#592d04"/>
            <path id="Path_2876" data-name="Path 2876" d="M103.123,65.674s.309-6.018,1.492-8.971c.792-1.986-.37-4.012,1.389-4.65s6.306,1.132,8.415,1.3,3.868-.576,5.514-.936,6.44-.576,6.975,1.348,1.584,2.551,2.274,4.578c.391,1.163,1.121,7.86,1.121,7.86a15.667,15.667,0,0,1,.813-4.557,13.374,13.374,0,0,0,.514-6.275c-.309-1.44-1.255-8.354-2.788-9.372s.206,0,.206,0,2.87,0,3.148-2.119c0,0-3.673.1-3.138-1.872a11.419,11.419,0,0,0-.411-5.422c-.206-.638.545-3.57-.514-5.062s-2.551-3.138-4.413-2.932c0,0-2.335-1.029-3.611,0,0,0-2.13-.628-2.881.813,0,0-.628-2.13-2.232-1.708s-1.862,1.163-1.862,1.163-1.595-.586-2.181.206,0,.586,0,.586-2.181-.381-2.881.422A8.3,8.3,0,0,0,106.8,31.6c-.1.319.844,1.173-.535,1.656s-2.243,1.111-3.632,4.671.36,6.543,1.42,6.81-.216.586-.216.586-3.683,6.317-3.271,9.516,1.029,5,1.9,5.854S103.123,65.674,103.123,65.674Z" transform="translate(-100.485 -27.599)" fill="#cb6639"/>
            <path id="Path_2877" data-name="Path 2877" d="M105,42.731s.545-2.6,2.191-2.87a31.892,31.892,0,0,1,6.07-.3c1.965.1,5.524-.411,5.792-.792a6.286,6.286,0,0,0-4.763-1.389c-2.737.412-3.59,1.317-5.144,1.368S104.784,40.015,105,42.731Z" transform="translate(-100.356 -27.32)" fill="#ac4435"/>
            <path id="Path_2878" data-name="Path 2878" d="M104.27,41.953s.8-3.086,2.613-3.724,5.432-2.212,6.821-2.582,6.584,1.769,7.86,3.9a10.36,10.36,0,0,0-3.241-3.251c-1.965-1.121-3.251-2.191-6.224-1.183a50.87,50.87,0,0,0-5.144,1.955C105.71,37.591,104.27,39.926,104.27,41.953Z" transform="translate(-100.377 -27.396)" fill="#ac4435"/>
            <path id="Path_2879" data-name="Path 2879" d="M117.16,35.37s6.008,1.986,5.257,3.786a2.171,2.171,0,0,0-.792-2.4,12.129,12.129,0,0,0-4.465-1.389Z" transform="translate(-100.006 -27.376)" fill="#ac4435"/>
            <path id="Path_2880" data-name="Path 2880" d="M117.167,35.54l-.267-1.029s.751-.319.905,0,.813-4.413,2.778-4.887c0,0-1.7,1.749-1.543,3.56s.309,1.667.309,1.667a28.549,28.549,0,0,1,1.5-4.434s-.484,2.058-.7,3.251a4.239,4.239,0,0,0,.257,2.232s2.809-7.654,5.7-6.265a3.539,3.539,0,0,0-3.343,2.438c-1.029,2.6-.8,2.284-.8,2.284s5.545-1.523,5.905-.617a20.914,20.914,0,0,0-4.629,1.121c-1.029.617-1.883,1.749-3.025,1.389S117.167,35.54,117.167,35.54Z" transform="translate(-100.014 -27.546)" fill="#ac4435"/>
            <path id="Path_2881" data-name="Path 2881" d="M113.81,31.07s1.43,2.819,2.654,3.251c0,0-2.253.051-2.376-.751S113.81,31.07,113.81,31.07Z" transform="translate(-100.103 -27.5)" fill="#ac4435"/>
            <path id="Path_2882" data-name="Path 2882" d="M112.753,29.009s-.319,2.87.556,3.745c0,0-2.87-3.086-2.387-3.755S112.753,29.009,112.753,29.009Z" transform="translate(-100.187 -27.568)" fill="#ac4435"/>
            <path id="Path_2883" data-name="Path 2883" d="M116.4,28.71a12.808,12.808,0,0,1,.309,4.208S118.149,30.037,116.4,28.71Z" transform="translate(-100.028 -27.568)" fill="#ac4435"/>
            <path id="Path_2884" data-name="Path 2884" d="M123.385,28.731s-1.595.566-1.913,1.523C121.471,30.253,120.988,28.514,123.385,28.731Z" transform="translate(-99.883 -27.568)" fill="#ac4435"/>
            <path id="Path_2885" data-name="Path 2885" d="M122.64,36.15s6.378,2.953,5.782,5.607C128.422,41.757,129.924,37.858,122.64,36.15Z" transform="translate(-99.849 -27.354)" fill="#ac4435"/>
            <path id="Path_2886" data-name="Path 2886" d="M121.65,36.83s3.827,3.086,4.413,4.907,1.913,1.029,2.284,1.029a2.14,2.14,0,0,1-2.058-1.5C125.744,39.659,123.924,37,121.65,36.83Z" transform="translate(-99.877 -27.334)" fill="#ac4435"/>
            <path id="Path_2887" data-name="Path 2887" d="M105.35,43.226s1.975-2.654,4.115-2.706a7.479,7.479,0,0,0-2.418,1.8s2.058-.36,3.344-.73,3.786-1.481,5.01-.844c0,0-2.418.257-3.313,1.142S106.358,44.234,105.35,43.226Z" transform="translate(-100.346 -27.228)" fill="#ac4435"/>
            <path id="Path_2888" data-name="Path 2888" d="M113.78,42.73s4.629,1.564,7.2.813,4.845-.926,5.535-.278c0,0-2.716-.391-3.673.278S117.34,45.065,113.78,42.73Z" transform="translate(-100.103 -27.165)" fill="#ac4435"/>
            <path id="Path_2889" data-name="Path 2889" d="M115.07,42.605s4.9-.412,5.586,0C120.656,42.626,117.5,43.922,115.07,42.605Z" transform="translate(-100.066 -27.174)" fill="#ac4435"/>
            <path id="Path_2890" data-name="Path 2890" d="M123.61,42.456s3.673-.494,3.343,1.368C126.953,43.824,127.807,40.645,123.61,42.456Z" transform="translate(-99.821 -27.189)" fill="#ac4435"/>
            <path id="Path_2891" data-name="Path 2891" d="M127.27,44.7s2.613-.2,2.942-3.714C130.212,41,131.488,46.37,127.27,44.7Z" transform="translate(-99.715 -27.215)" fill="#ac4435"/>
            <path id="Path_2892" data-name="Path 2892" d="M106.167,37.4s1.235-3.971,4.475-3.642c0,0-2.551-.7-3.827.73a2.4,2.4,0,0,0-2.5.226s1.965-.6,1.43,1.029-1.656,2.181-1.975,3.93-.916,3.086.946,4.115.154-.339.154-.339S103.07,41.213,106.167,37.4Z" transform="translate(-100.401 -27.428)" fill="#ac4435"/>
            <path id="Path_2893" data-name="Path 2893" d="M108,49.806a6.646,6.646,0,0,1,2.253-4.9c2.294-1.8,2.531-1.749,2.531-1.749s-1.471,1.492-2.325,2.181A12.531,12.531,0,0,0,108,49.806Z" transform="translate(-100.27 -27.152)" fill="#ac4435"/>
            <path id="Path_2894" data-name="Path 2894" d="M115.17,44.2s-.854.854-1.924,2.058-1.543,1.327-1.656,2.6a8.035,8.035,0,0,0,1.029,3.354s-1.132-2.932,0-4.259A27.633,27.633,0,0,0,115.17,44.2Z" transform="translate(-100.166 -27.122)" fill="#ac4435"/>
            <path id="Path_2895" data-name="Path 2895" d="M116.943,44.21s1.687.432.339,1.7-2,.905-2.428,2.315,0,4.177.411,4.393c0,0-.185-3.251.669-4.208S119.917,44.477,116.943,44.21Z" transform="translate(-100.078 -27.122)" fill="#fc9b4c"/>
            <path id="Path_2896" data-name="Path 2896" d="M120.067,44.68a6.914,6.914,0,0,0-1.337,2.058c-.638,1.379-1.379,4.249-.936,4.887a6.368,6.368,0,0,0,.936-2.284C118.977,47.931,120.253,45.184,120.067,44.68Z" transform="translate(-99.992 -27.109)" fill="#fc9b4c"/>
            <path id="Path_2897" data-name="Path 2897" d="M120.514,44.48a2.829,2.829,0,0,1,0,3.138,4.115,4.115,0,0,0,0,3.992c.165-.113-.473-2.243.216-2.983S122.85,45.6,120.514,44.48Z" transform="translate(-99.925 -27.114)" fill="#fc9b4c"/>
            <path id="Path_2898" data-name="Path 2898" d="M123.491,43.72s1.235,7.2-.381,7.531c0,0,2.2-.741,1.677-4.033S123.491,43.72,123.491,43.72Z" transform="translate(-99.835 -27.136)" fill="#ac4435"/>
            <path id="Path_2899" data-name="Path 2899" d="M106.143,51.244s-1.265-4.948,1.5-6.594A2.757,2.757,0,0,0,105,47.356,4.866,4.866,0,0,0,106.143,51.244Z" transform="translate(-100.357 -27.11)" fill="#fc9b4c"/>
            <path id="Path_2900" data-name="Path 2900" d="M104.829,55.221s-4.578.844-4.228-2.881C100.6,52.34,100.384,54.449,104.829,55.221Z" transform="translate(-100.483 -26.888)" fill="#ac4435"/>
            <path id="Path_2901" data-name="Path 2901" d="M104.8,53.951s-3.673-3.086-2.654-6.1C102.145,47.85,103.03,52.181,104.8,53.951Z" transform="translate(-100.443 -27.017)" fill="#fc9b4c"/>
            <path id="Path_2902" data-name="Path 2902" d="M105.81,43.565s6.173.73,8.23-.319,4.784-2.13,7.294-1.173a4.825,4.825,0,0,0-5.957-.9C111.828,43.071,110.5,43.071,105.81,43.565Z" transform="translate(-100.333 -27.228)" fill="#f7871e"/>
            <path id="Path_2903" data-name="Path 2903" d="M112.886,43.5s1.142.689-.566,1.409c-2.387,1.029-4.691,5.37-2.994,6.7l3.292,1.029s-3.292-3.086-.679-5.37,3.22-2.407,2.922-3.755Z" transform="translate(-100.248 -27.143)" fill="#fc9b4c"/>
            <path id="Path_2904" data-name="Path 2904" d="M115.761,44.214c-.586-1.533-.442.751-1.687,2.881s-1.245,5.72.638,5.813c0,0-2.119-2.51-.648-4.115S116.4,45.87,115.761,44.214Z" transform="translate(-100.12 -27.136)" fill="#f7871e"/>
            <path id="Path_2905" data-name="Path 2905" d="M122.252,44.89s1.841.175.422,1.574-3.3,3.426-1.6,4.815a3.446,3.446,0,0,1,1.317-3.086C123.908,47.277,124.546,45.106,122.252,44.89Z" transform="translate(-99.913 -27.103)" fill="#f7871e"/>
            <path id="Path_2906" data-name="Path 2906" d="M124.38,43.9s2.911,5.144.679,7.952c-.4.494.473,1.029,1.245,1.708a7.346,7.346,0,0,1,2.16,3.405c0,.905.648,3.457.4,4.259s.792-1.029,1.111-3.724.339-4.362-.35-6.173S127.415,44.5,124.38,43.9Z" transform="translate(-99.798 -27.131)" fill="#fc9b4c"/>
            <path id="Path_2907" data-name="Path 2907" d="M111.4,43.73s.062-.062-1.492,1.163-2.551,1.533-2.664,3.323a6.368,6.368,0,0,0,.36,2.819s-2.6-1.255-1.687-3.467,1.862-2.881,3.251-3.364a6.9,6.9,0,0,1,2.232-.473Z" transform="translate(-100.335 -27.136)" fill="#f7871e"/>
            <path id="Path_2908" data-name="Path 2908" d="M105.829,44.655c.586.216-1.831,1.584-1.523,3.457a9.166,9.166,0,0,0,1.512,3.457s-.216,1.667-1.029,1.029-3.148-3.086-2.346-4.64S103.515,43.791,105.829,44.655Z" transform="translate(-100.434 -27.114)" fill="#f7871e"/>
            <path id="Path_2909" data-name="Path 2909" d="M114.14,27.6c-.453.422-1.512.37-1.43.8s2.058,5.267,3.786,6.018c0,0,.185-3.241.288-4.115s-1.029,1.111-1.235,0A7.613,7.613,0,0,0,114.14,27.6Z" transform="translate(-100.134 -27.6)" fill="#f7871e"/>
            <path id="Path_2910" data-name="Path 2910" d="M125.685,29.406c.216.165-3.56-.545-4.568,4.033,0,0-1.389-2.109,0-3.189S124.1,28.171,125.685,29.406Z" transform="translate(-99.91 -27.564)" fill="#f7871e"/>
            <path id="Path_2911" data-name="Path 2911" d="M124.756,31.1c-.669,0-1.914,1.379-.874,1.615a15.648,15.648,0,0,0,2.418.669C127.1,33.446,126.412,31.1,124.756,31.1Z" transform="translate(-99.824 -27.499)" fill="#f7871e"/>
            <path id="Path_2912" data-name="Path 2912" d="M122.64,35.38s5.751,3.086,5.73,3.8a4.465,4.465,0,0,0-1.245-2.294A19.2,19.2,0,0,0,122.64,35.38Z" transform="translate(-99.849 -27.376)" fill="#f7871e"/>
            <path id="Path_2913" data-name="Path 2913" d="M109.5,38.291a21.7,21.7,0,0,0,4.7-.874c1.255-.586,6.45,1.913,6.533,2.664l1.029-.185s-3.395-4.115-6.111-3.765a23.414,23.414,0,0,0-6.152,2.16Z" transform="translate(-100.227 -27.355)" fill="#f7871e"/>
            <path id="Path_2914" data-name="Path 2914" d="M107.17,40.543a25.009,25.009,0,0,1,6.173-.3c2.181.381,5.977-.442,6.173-.833a29.433,29.433,0,0,0-3.343,0C114.464,39.5,109.156,39.1,107.17,40.543Z" transform="translate(-100.294 -27.262)" fill="#f7871e"/>
            <path id="Path_2915" data-name="Path 2915" d="M119.75,41.029a2.058,2.058,0,0,0,2.531.648,6.173,6.173,0,0,1,3.755-.2s-1.193-1.78-2.315-1.461S120.563,41.791,119.75,41.029Z" transform="translate(-99.932 -27.244)" fill="#f7871e"/>
            <path id="Path_2916" data-name="Path 2916" d="M110.25,29.519s1.029,4.9,4.66,4.671c0,0-4.259-3.385-3.95-4.66C110.96,29.529,111.022,28.789,110.25,29.519Z" transform="translate(-100.205 -27.554)" fill="#f7871e"/>
            <path id="Path_2917" data-name="Path 2917" d="M101.323,49.88s1.029,4.557,3.518,4.352c0,0,.545,1.44-1.029.823s-3.662-2.284-3.282-3.014A20.133,20.133,0,0,0,101.323,49.88Z" transform="translate(-100.486 -26.959)" fill="#fc9b4c"/>
            <path id="Path_2918" data-name="Path 2918" d="M103.636,60.663s-3.2-5.247-3.086-6.173a8.127,8.127,0,0,1,3.086,6.173Z" transform="translate(-100.484 -26.826)" fill="#fc9b4c"/>
            <path id="Path_2919" data-name="Path 2919" d="M128.422,56.7c-.134-.247,1.492-8.1-2.572-11.481,0,0,2.675.638,3.539,7.4.576,4.537-.113,6.759-.772,7.4C128.617,60.014,128.947,57.668,128.422,56.7Z" transform="translate(-99.756 -27.093)" fill="#cb6639"/>
            <path id="Path_2920" data-name="Path 2920" d="M124.7,44.23a8.035,8.035,0,0,1,1.265,9.022l1.029,1.574s.957-3.446.7-4.959S126.089,44.23,124.7,44.23Z" transform="translate(-99.789 -27.122)" fill="#cb6639"/>
            <path id="Path_2921" data-name="Path 2921" d="M107.19,31.094a8,8,0,0,0,3.282,2.294c2.191.864,3.652,1.163,3.806.967s-3.086-.957-3.734-2.058-1.029-3.343-1.975-2.665S107.19,30.189,107.19,31.094Z" transform="translate(-100.293 -27.545)" fill="#fc9b4c"/>
            <path id="Path_2922" data-name="Path 2922" d="M119.627,28.535a2.953,2.953,0,0,1-.72,2.294,13.055,13.055,0,0,0-1.667,3.57,27.231,27.231,0,0,0,.463-3.652C117.651,29.882,116.808,27.763,119.627,28.535Z" transform="translate(-100.004 -27.578)" fill="#fc9b4c"/>
            <path id="Path_2923" data-name="Path 2923" d="M122.64,35.026s4.115,1.358,5.206.412l.226-1.348s-2.274.967-3.292.669A3.364,3.364,0,0,0,122.64,35.026Z" transform="translate(-99.849 -27.413)" fill="#fc9b4c"/>
            <path id="Path_2924" data-name="Path 2924" d="M105.006,42.588s-.185-2.253,2.644-3.467,7.006-3.343,9.094-2.932c0,0-.936-1.5-4.773,0s-5.144,1.739-6.173,2.726A3.487,3.487,0,0,0,105.006,42.588Z" transform="translate(-100.362 -27.372)" fill="#fc9b4c"/>
            <path id="Path_2925" data-name="Path 2925" d="M105.859,34.69a22.2,22.2,0,0,0-2.459,4.115c-.35,1.245-.823,5.051,1.7,5.288a2.819,2.819,0,0,1-2.757-3.086C102.433,37.951,104.048,34.68,105.859,34.69Z" transform="translate(-100.433 -27.396)" fill="#fc9b4c"/>
            <path id="Path_2926" data-name="Path 2926" d="M119.56,36.82s3.446,3.59,2.562,3.961c0,0,1.276-.689.782-1.337S120.589,37.005,119.56,36.82Z" transform="translate(-99.937 -27.335)" fill="#fc9b4c"/>
            <path id="Path_2927" data-name="Path 2927" d="M124.72,38.06s3.086,2.757,2.9,3.642.628.484.689.247S128.588,39.737,124.72,38.06Z" transform="translate(-99.789 -27.299)" fill="#fc9b4c"/>
            <path id="Path_2928" data-name="Path 2928" d="M125.86,43.528s1.3,2.953,3.765,1.79,2.644-2.479,2.8-3.158c0,0-1.152,2.181-2.243,2.459S128.5,45.843,125.86,43.528Z" transform="translate(-99.756 -27.181)" fill="#fc9b4c"/>
            <path id="Path_2929" data-name="Path 2929" d="M125.72,65.11a3.549,3.549,0,1,0,3.035,5.36,14.02,14.02,0,0,0,.442-1.358,3.782,3.782,0,0,0-3.477-4Z" transform="translate(-99.863 -26.521)" fill="#e07b88" opacity="0.29"/>
            <path id="Path_2930" data-name="Path 2930" d="M106.939,72.2a3.549,3.549,0,1,0-3.539-3.56v.144a17.922,17.922,0,0,0,.638,1.9A3.549,3.549,0,0,0,106.939,72.2Z" transform="translate(-100.402 -26.521)" fill="#e07b88" opacity="0.29"/>
          </g>
          <path id="Path_2931" data-name="Path 2931" d="M115.572,70.123a1.43,1.43,0,0,0-.473-.288.669.669,0,0,0-.278-.154.72.72,0,0,0-.7.154.247.247,0,0,0,.144.381c.36.093.7-.072,1.029,0l.123.062h0S115.644,70.2,115.572,70.123Z" transform="translate(-41.12 -26.39)" fill="#763c24"/>
          <path id="Path_2932" data-name="Path 2932" d="M117,70.167h0l.113-.051c.36-.082.7.082,1.029,0a.247.247,0,0,0,.165-.381.771.771,0,0,0-.71-.165.689.689,0,0,0-.278.165,1.152,1.152,0,0,0-.473.288C116.84,70.075,116.912,70.167,117,70.167Z" transform="translate(-41.04 -26.393)" fill="#763c24"/>
        </g>
      </g>
    </g>
  </g>
</svg>
