<svg xmlns="http://www.w3.org/2000/svg" width="1811" viewBox="0 0 1811 537" style="max-width:100%;">
  <g id="Group_2810" data-name="Group 2810" transform="translate(2067 17888)">
    <g id="Rectangle_2391" data-name="Rectangle 2391" transform="translate(-2067 -17888)" fill="#fff" stroke="#707070" stroke-width="1">
      <rect width="1811" height="537" stroke="none"/>
      <rect x="0.5" y="0.5" width="1810" height="536" fill="none"/>
    </g>
    <g id="Rectangle_1684" data-name="Rectangle 1684" transform="translate(-2009 -17674)" fill="rgba(41,51,155,0.1)" stroke="#29339b" stroke-width="2" stroke-dasharray="5">
      <rect width="107" height="63" rx="10" stroke="none"/>
      <rect x="1" y="1" width="105" height="61" rx="9" fill="none"/>
    </g>
    <text id="Audit_Intro" data-name="Audit Intro" transform="translate(-1989 -17649)" fill="rgba(0,0,0,0.87)" font-size="12" font-family="Montserrat-SemiBold, Montserrat" font-weight="600"><tspan x="0.026" y="12">Audit Intro</tspan></text>
    <g id="Group_2323" data-name="Group 2323" transform="translate(-1860 -18074)">
      <line id="Line_26" data-name="Line 26" x2="30" transform="translate(138.092 432.646)" fill="none" stroke="#e2e6eb" stroke-width="4"/>
      <path id="Path_35" data-name="Path 35" d="M10.689,13.191A1.635,1.635,0,0,1,9.5,10.43l3.657-3.846L9.508,2.764A1.635,1.635,0,0,1,11.871.5L16.6,5.45a1.636,1.636,0,0,1,0,2.256l-4.731,4.976A1.633,1.633,0,0,1,10.689,13.191Z" transform="translate(154.592 426.182)" fill="#aab0bb"/>
    </g>
    <g id="Group_2324" data-name="Group 2324" transform="translate(-2025 -18073)">
      <line id="Line_26-2" data-name="Line 26" x2="30" transform="translate(138.092 432.646)" fill="none" stroke="#e2e6eb" stroke-width="4"/>
      <path id="Path_35-2" data-name="Path 35" d="M10.689,13.191A1.635,1.635,0,0,1,9.5,10.43l3.657-3.846L9.508,2.764A1.635,1.635,0,0,1,11.871.5L16.6,5.45a1.636,1.636,0,0,1,0,2.256l-4.731,4.976A1.633,1.633,0,0,1,10.689,13.191Z" transform="translate(154.592 426.182)" fill="#aab0bb"/>
    </g>
    <g id="Group_2325" data-name="Group 2325" transform="translate(-1522.354 -17858.092) rotate(90)">
      <line id="Line_26-3" data-name="Line 26" x2="30" transform="translate(138.092 432.646)" fill="none" stroke="#e2e6eb" stroke-width="4"/>
      <path id="Path_35-3" data-name="Path 35" d="M10.689,13.191A1.635,1.635,0,0,1,9.5,10.43l3.657-3.846L9.508,2.764A1.635,1.635,0,0,1,11.871.5L16.6,5.45a1.636,1.636,0,0,1,0,2.256l-4.731,4.976A1.633,1.633,0,0,1,10.689,13.191Z" transform="translate(154.592 426.182)" fill="#aab0bb"/>
    </g>
    <path id="Path_3406" data-name="Path 3406" d="M0,164.307v939.764" transform="translate(-1824.682 -17769.545) rotate(-90)" fill="none" stroke="#e2e6eb" stroke-width="4"/>
    <line id="Line_977" data-name="Line 977" y2="47" transform="translate(-722.5 -17769.5)" fill="none" stroke="#e2e6eb" stroke-width="4"/>
    <line id="Line_976" data-name="Line 976" y2="47" transform="translate(-1658.5 -17771.5)" fill="none" stroke="#e2e6eb" stroke-width="4"/>
    <g id="Rectangle_2392" data-name="Rectangle 2392" transform="translate(-1668 -17674)" fill="rgba(41,51,155,0.1)" stroke="#29339b" stroke-width="2" stroke-dasharray="5">
      <rect width="107" height="63" rx="10" stroke="none"/>
      <rect x="1" y="1" width="105" height="61" rx="9" fill="none"/>
    </g>
    <g id="Rectangle_2393" data-name="Rectangle 2393" transform="translate(-1497 -17674)" fill="rgba(41,51,155,0.1)" stroke="#29339b" stroke-width="2" stroke-dasharray="5">
      <rect width="107" height="63" rx="10" stroke="none"/>
      <rect x="1" y="1" width="105" height="61" rx="9" fill="none"/>
    </g>
    <g id="Rectangle_2395" data-name="Rectangle 2395" transform="translate(-1326 -17674)" fill="rgba(41,51,155,0.1)" stroke="#29339b" stroke-width="2" stroke-dasharray="5">
      <rect width="107" height="63" rx="10" stroke="none"/>
      <rect x="1" y="1" width="105" height="61" rx="9" fill="none"/>
    </g>
    <g id="Rectangle_2396" data-name="Rectangle 2396" transform="translate(-1155 -17674)" fill="rgba(41,51,155,0.1)" stroke="#29339b" stroke-width="2" stroke-dasharray="5">
      <rect width="107" height="63" rx="10" stroke="none"/>
      <rect x="1" y="1" width="105" height="61" rx="9" fill="none"/>
    </g>
    <g id="Rectangle_2401" data-name="Rectangle 2401" transform="translate(-984 -17674)" fill="rgba(41,51,155,0.1)" stroke="#29339b" stroke-width="2" stroke-dasharray="5">
      <rect width="107" height="63" rx="10" stroke="none"/>
      <rect x="1" y="1" width="105" height="61" rx="9" fill="none"/>
    </g>
    <g id="Rectangle_2397" data-name="Rectangle 2397" transform="translate(-824 -17674)" fill="rgba(41,51,155,0.1)" stroke="#29339b" stroke-width="2" stroke-dasharray="5">
      <rect width="107" height="63" rx="10" stroke="none"/>
      <rect x="1" y="1" width="105" height="61" rx="9" fill="none"/>
    </g>
    <g id="Rectangle_2394" data-name="Rectangle 2394" transform="translate(-2009 -17795)" fill="#707070" stroke="#707070" stroke-width="2" stroke-dasharray="5">
      <rect width="107" height="63" rx="30" stroke="none"/>
      <rect x="1" y="1" width="105" height="61" rx="29" fill="none"/>
    </g>
    <text id="Login" transform="translate(-1998 -17772)" fill="#fff" font-size="12" font-family="Montserrat-SemiBold, Montserrat" font-weight="600"><tspan x="25.558" y="12">Login</tspan></text>
    <g id="Rectangle_2399" data-name="Rectangle 2399" transform="translate(-1838 -17673)" fill="#707070" stroke="#707070" stroke-width="2" stroke-dasharray="5">
      <rect width="107" height="63" rx="30" stroke="none"/>
      <rect x="1" y="1" width="105" height="61" rx="29" fill="none"/>
    </g>
    <text id="Start_Audit" data-name="Start Audit" transform="translate(-1827 -17649)" fill="#fff" font-size="12" font-family="Montserrat-SemiBold, Montserrat" font-weight="600"><tspan x="9.31" y="12">Start Audit</tspan></text>
    <g id="Rectangle_2400" data-name="Rectangle 2400" transform="translate(-426 -17607)" fill="#707070" stroke="#707070" stroke-width="2" stroke-dasharray="5">
      <rect width="107" height="63" rx="30" stroke="none"/>
      <rect x="1" y="1" width="105" height="61" rx="29" fill="none"/>
    </g>
    <text id="Submit_Audit" data-name="Submit Audit" transform="translate(-415 -17584)" fill="#fff" font-size="12" font-family="Montserrat-SemiBold, Montserrat" font-weight="600"><tspan x="1.852" y="12">Submit Audit</tspan></text>
    <text id="Enter_Policy_Information" data-name="Enter Policy Information" transform="translate(-1657 -17657)" fill="rgba(0,0,0,0.87)" font-size="12" font-family="Montserrat-SemiBold, Montserrat" font-weight="600"><tspan x="5.992" y="12">Enter Policy </tspan><tspan x="6.232" y="26">Information</tspan></text>
    <text id="STEP_1" data-name="STEP 1" transform="translate(-1659 -17688)" fill="rgba(0,0,0,0.87)" font-size="9" font-family="Montserrat-Medium, Montserrat" font-weight="500"><tspan x="0" y="9">STEP 1</tspan></text>
    <text id="AUDIT_STEPPER" data-name="AUDIT STEPPER" transform="translate(-1248 -17792)" fill="rgba(0,0,0,0.87)" font-size="14" font-family="Montserrat-Medium, Montserrat" font-weight="500"><tspan x="15.177" y="14">AUDIT STEPPER</tspan></text>
    <text id="STEP_2" data-name="STEP 2" transform="translate(-1490 -17688)" fill="rgba(0,0,0,0.87)" font-size="9" font-family="Montserrat-Medium, Montserrat" font-weight="500"><tspan x="0" y="9">STEP 2</tspan></text>
    <text id="STEP_3" data-name="STEP 3" transform="translate(-1321 -17688)" fill="rgba(0,0,0,0.87)" font-size="9" font-family="Montserrat-Medium, Montserrat" font-weight="500"><tspan x="0" y="9">STEP 3</tspan></text>
    <text id="STEP_4" data-name="STEP 4" transform="translate(-1152 -17688)" fill="rgba(0,0,0,0.87)" font-size="9" font-family="Montserrat-Medium, Montserrat" font-weight="500"><tspan x="0" y="9">STEP 4</tspan></text>
    <text id="STEP_5" data-name="STEP 5" transform="translate(-981 -17688)" fill="rgba(0,0,0,0.87)" font-size="9" font-family="Montserrat-Medium, Montserrat" font-weight="500"><tspan x="0" y="9">STEP 5</tspan></text>
    <text id="STEP_6" data-name="STEP 6" transform="translate(-823 -17688)" fill="rgba(0,0,0,0.87)" font-size="9" font-family="Montserrat-Medium, Montserrat" font-weight="500"><tspan x="0" y="9">STEP 6</tspan></text>
    <text id="Enter_Locations" data-name="Enter Locations" transform="translate(-1486 -17657)" fill="rgba(0,0,0,0.87)" font-size="12" font-family="Montserrat-SemiBold, Montserrat" font-weight="600"><tspan x="26.182" y="12">Enter </tspan><tspan x="13.09" y="26">Locations</tspan></text>
    <text id="Enter_Payroll" data-name="Enter Payroll" transform="translate(-1315 -17650)" fill="rgba(0,0,0,0.87)" font-size="12" font-family="Montserrat-SemiBold, Montserrat" font-weight="600"><tspan x="3.412" y="12">Enter Payroll</tspan></text>
    <text id="Enter_Owners" data-name="Enter Owners" transform="translate(-1144 -17649)" fill="rgba(0,0,0,0.87)" font-size="12" font-family="Montserrat-SemiBold, Montserrat" font-weight="600"><tspan x="0.496" y="12">Enter Owners</tspan></text>
    <text id="Enter_Claims" data-name="Enter Claims" transform="translate(-973 -17649)" fill="rgba(0,0,0,0.87)" font-size="12" font-family="Montserrat-SemiBold, Montserrat" font-weight="600"><tspan x="3.646" y="12">Enter Claims</tspan></text>
    <text id="Upload_Documents" data-name="Upload Documents" transform="translate(-813 -17656)" fill="rgba(0,0,0,0.87)" font-size="12" font-family="Montserrat-SemiBold, Montserrat" font-weight="600"><tspan x="20.794" y="12">Upload </tspan><tspan x="6.778" y="26">Documents</tspan></text>
    <g id="Group_2327" data-name="Group 2327" transform="translate(-1689 -18074)">
      <line id="Line_26-4" data-name="Line 26" x2="30" transform="translate(138.092 432.646)" fill="none" stroke="#e2e6eb" stroke-width="4"/>
      <path id="Path_35-4" data-name="Path 35" d="M10.689,13.191A1.635,1.635,0,0,1,9.5,10.43l3.657-3.846L9.508,2.764A1.635,1.635,0,0,1,11.871.5L16.6,5.45a1.636,1.636,0,0,1,0,2.256l-4.731,4.976A1.633,1.633,0,0,1,10.689,13.191Z" transform="translate(154.592 426.182)" fill="#aab0bb"/>
    </g>
    <g id="Group_2328" data-name="Group 2328" transform="translate(-1518 -18074)">
      <line id="Line_26-5" data-name="Line 26" x2="30" transform="translate(138.092 432.646)" fill="none" stroke="#e2e6eb" stroke-width="4"/>
      <path id="Path_35-5" data-name="Path 35" d="M10.689,13.191A1.635,1.635,0,0,1,9.5,10.43l3.657-3.846L9.508,2.764A1.635,1.635,0,0,1,11.871.5L16.6,5.45a1.636,1.636,0,0,1,0,2.256l-4.731,4.976A1.633,1.633,0,0,1,10.689,13.191Z" transform="translate(154.592 426.182)" fill="#aab0bb"/>
    </g>
    <g id="Group_2329" data-name="Group 2329" transform="translate(-1347 -18074)">
      <line id="Line_26-6" data-name="Line 26" x2="30" transform="translate(138.092 432.646)" fill="none" stroke="#e2e6eb" stroke-width="4"/>
      <path id="Path_35-6" data-name="Path 35" d="M10.689,13.191A1.635,1.635,0,0,1,9.5,10.43l3.657-3.846L9.508,2.764A1.635,1.635,0,0,1,11.871.5L16.6,5.45a1.636,1.636,0,0,1,0,2.256l-4.731,4.976A1.633,1.633,0,0,1,10.689,13.191Z" transform="translate(154.592 426.182)" fill="#aab0bb"/>
    </g>
    <g id="Group_2330" data-name="Group 2330" transform="translate(-1176 -18074)">
      <line id="Line_26-7" data-name="Line 26" x2="30" transform="translate(138.092 432.646)" fill="none" stroke="#e2e6eb" stroke-width="4"/>
      <path id="Path_35-7" data-name="Path 35" d="M10.689,13.191A1.635,1.635,0,0,1,9.5,10.43l3.657-3.846L9.508,2.764A1.635,1.635,0,0,1,11.871.5L16.6,5.45a1.636,1.636,0,0,1,0,2.256l-4.731,4.976A1.633,1.633,0,0,1,10.689,13.191Z" transform="translate(154.592 426.182)" fill="#aab0bb"/>
    </g>
    <g id="Group_2340" data-name="Group 2340" transform="translate(-1005 -18074)">
      <line id="Line_26-8" data-name="Line 26" x2="30" transform="translate(138.092 432.646)" fill="none" stroke="#e2e6eb" stroke-width="4"/>
      <path id="Path_35-8" data-name="Path 35" d="M10.689,13.191A1.635,1.635,0,0,1,9.5,10.43l3.657-3.846L9.508,2.764A1.635,1.635,0,0,1,11.871.5L16.6,5.45a1.636,1.636,0,0,1,0,2.256l-4.731,4.976A1.633,1.633,0,0,1,10.689,13.191Z" transform="translate(154.592 426.182)" fill="#aab0bb"/>
    </g>
    <g id="Group_2532" data-name="Group 2532" transform="translate(-168.354 -17730.094) rotate(90)">
      <line id="Line_26-9" data-name="Line 26" x2="30" transform="translate(138.092 432.646)" fill="none" stroke="#e2e6eb" stroke-width="4"/>
      <path id="Path_35-9" data-name="Path 35" d="M10.689,13.191A1.635,1.635,0,0,1,9.5,10.43l3.657-3.846L9.508,2.764A1.635,1.635,0,0,1,11.871.5L16.6,5.45a1.636,1.636,0,0,1,0,2.256l-4.731,4.976A1.633,1.633,0,0,1,10.689,13.191Z" transform="translate(154.592 426.182)" fill="#aab0bb"/>
    </g>
    <g id="Group_2533" data-name="Group 2533" transform="translate(-847 -18072)">
      <line id="Line_26-10" data-name="Line 26" x2="30" transform="translate(138.092 432.646)" fill="none" stroke="#e2e6eb" stroke-width="4"/>
      <path id="Path_35-10" data-name="Path 35" d="M10.689,13.191A1.635,1.635,0,0,1,9.5,10.43l3.657-3.846L9.508,2.764A1.635,1.635,0,0,1,11.871.5L16.6,5.45a1.636,1.636,0,0,1,0,2.256l-4.731,4.976A1.633,1.633,0,0,1,10.689,13.191Z" transform="translate(154.592 426.182)" fill="#aab0bb"/>
    </g>
    <g id="Rectangle_2491" data-name="Rectangle 2491" transform="translate(-655 -17672)" fill="#e50a45" stroke="#e50a45" stroke-width="2">
      <rect width="107" height="63" rx="5" stroke="none"/>
      <rect x="1" y="1" width="105" height="61" rx="4" fill="none"/>
    </g>
    <text id="Audit_Summary" data-name="Audit Summary" transform="translate(-646 -17654)" fill="#fff" font-size="12" font-family="Montserrat-SemiBold, Montserrat" font-weight="600"><tspan x="27.58" y="12">Audit </tspan><tspan x="14.284" y="26">Summary</tspan></text>
    <g id="Rectangle_2492" data-name="Rectangle 2492" transform="translate(-655 -17541)" fill="#fff" stroke="#707070" stroke-width="2" stroke-dasharray="5">
      <rect width="107" height="63" stroke="none"/>
      <rect x="1" y="1" width="105" height="61" fill="none"/>
    </g>
    <g id="Rectangle_2493" data-name="Rectangle 2493" transform="translate(-421 -17471)" fill="#fff" stroke="#707070" stroke-width="2" stroke-dasharray="5">
      <rect width="107" height="72" stroke="none"/>
      <rect x="1" y="1" width="105" height="70" fill="none"/>
    </g>
    <text id="Do_all_steps_validate_" data-name="Do all steps validate?" transform="translate(-641 -17524)" fill="rgba(0,0,0,0.87)" font-size="12" font-family="Montserrat-SemiBold, Montserrat" font-weight="600"><tspan x="3.788" y="12">Do all steps </tspan><tspan x="11.876" y="26">validate?</tspan></text>
    <text id="User_guided_back_to_incomplete_steps" data-name="User guided back
to incomplete steps" transform="translate(-415 -17464)" fill="rgba(0,0,0,0.87)" font-size="12" font-family="Montserrat-SemiBold, Montserrat" font-weight="600"><tspan x="10.308" y="12">User guided </tspan><tspan x="32.982" y="26">back</tspan><tspan x="4.788" y="40">to incomplete </tspan><tspan x="31.536" y="54">steps</tspan></text>
    <line id="Line_1002" data-name="Line 1002" y2="50" transform="translate(-490.75 -17511.25) rotate(90)" fill="none" stroke="#e2e6eb" stroke-width="4"/>
    <path id="Path_3425" data-name="Path 3425" d="M88.975,0H0" transform="translate(-491 -17558.414) rotate(90)" fill="none" stroke="#e2e6eb" stroke-width="4"/>
    <line id="Line_1003" data-name="Line 1003" y2="50" transform="translate(-490.75 -17511.25) rotate(90)" fill="none" stroke="#e2e6eb" stroke-width="4"/>
    <path id="Path_3426" data-name="Path 3426" d="M145.006,0H0" transform="translate(-491 -17580.346) rotate(90)" fill="none" stroke="#e2e6eb" stroke-width="4"/>
    <text id="No" transform="translate(-484 -17428)" fill="rgba(0,0,0,0.87)" font-size="12" font-family="Montserrat-Bold, Montserrat" font-weight="700"><tspan x="3.222" y="12">No</tspan></text>
    <g id="Group_1952" data-name="Group 1952" transform="translate(-1011.593 -17755)">
      <g id="Group_1081" data-name="Group 1081" transform="translate(571.74 311.182) rotate(90)">
        <line id="Line_33" data-name="Line 33" y2="47.621" transform="translate(6.465 51.147) rotate(180)" fill="none" stroke="#e2e6eb" stroke-width="4"/>
        <path id="Path_45" data-name="Path 45" d="M1.634,13.191A1.635,1.635,0,0,1,.45,10.43L4.107,6.584.453,2.765A1.635,1.635,0,0,1,2.816.5L7.547,5.45a1.636,1.636,0,0,1,0,2.256L2.82,12.683A1.633,1.633,0,0,1,1.634,13.191Z" transform="translate(0 8) rotate(-90)" fill="#aab0bb"/>
      </g>
    </g>
    <text id="Yes" transform="translate(-484 -17599)" fill="rgba(0,0,0,0.87)" font-size="12" font-family="Montserrat-Bold, Montserrat" font-weight="700"><tspan x="1.332" y="12">Yes</tspan></text>
    <g id="Group_1953" data-name="Group 1953" transform="translate(-1011.593 -17896)">
      <g id="Group_1081-2" data-name="Group 1081" transform="translate(571.74 311.182) rotate(90)">
        <line id="Line_33-2" data-name="Line 33" y2="47.621" transform="translate(6.465 51.147) rotate(180)" fill="none" stroke="#e2e6eb" stroke-width="4"/>
        <path id="Path_45-2" data-name="Path 45" d="M1.634,13.191A1.635,1.635,0,0,1,.45,10.43L4.107,6.584.453,2.765A1.635,1.635,0,0,1,2.816.5L7.547,5.45a1.636,1.636,0,0,1,0,2.256L2.82,12.683A1.633,1.633,0,0,1,1.634,13.191Z" transform="translate(0 8) rotate(-90)" fill="#aab0bb"/>
      </g>
    </g>
  </g>
</svg>
