<svg xmlns="http://www.w3.org/2000/svg" width="1495" viewBox="0 0 1495 450" style="max-width:100%;">
  <g id="Group_2810" data-name="Group 2810" transform="translate(3738 17857)">
    <g id="Rectangle_2391" data-name="Rectangle 2391" transform="translate(-3738 -17857)" fill="#fff" stroke="#707070" stroke-width="1">
      <rect width="1495" height="450" stroke="none"/>
      <rect x="0.5" y="0.5" width="1494" height="449" fill="none"/>
    </g>
    <g id="Rectangle_1684" data-name="Rectangle 1684" transform="translate(-3670 -17648)" fill="#e50a45" stroke="#e50a45" stroke-width="1">
      <rect width="107" height="63" rx="10" stroke="none"/>
      <rect x="0.5" y="0.5" width="106" height="62" rx="9.5" fill="none"/>
    </g>
    <text id="Audit_Intro" data-name="Audit Intro" transform="translate(-3650 -17623)" fill="#fafafa" font-size="12" font-family="Montserrat-SemiBold, Montserrat" font-weight="600"><tspan x="0.026" y="12">Audit Intro</tspan></text>
    <g id="Group_2323" data-name="Group 2323" transform="translate(-3521 -18048)">
      <line id="Line_26" data-name="Line 26" x2="30" transform="translate(138.092 432.646)" fill="none" stroke="#e2e6eb" stroke-width="4"/>
      <path id="Path_35" data-name="Path 35" d="M10.689,13.191A1.635,1.635,0,0,1,9.5,10.43l3.657-3.846L9.508,2.764A1.635,1.635,0,0,1,11.871.5L16.6,5.45a1.636,1.636,0,0,1,0,2.256l-4.731,4.976A1.633,1.633,0,0,1,10.689,13.191Z" transform="translate(154.592 426.182)" fill="#aab0bb"/>
    </g>
    <g id="Group_2324" data-name="Group 2324" transform="translate(-3686 -18047)">
      <line id="Line_26-2" data-name="Line 26" x2="30" transform="translate(138.092 432.646)" fill="none" stroke="#e2e6eb" stroke-width="4"/>
      <path id="Path_35-2" data-name="Path 35" d="M10.689,13.191A1.635,1.635,0,0,1,9.5,10.43l3.657-3.846L9.508,2.764A1.635,1.635,0,0,1,11.871.5L16.6,5.45a1.636,1.636,0,0,1,0,2.256l-4.731,4.976A1.633,1.633,0,0,1,10.689,13.191Z" transform="translate(154.592 426.182)" fill="#aab0bb"/>
    </g>
    <g id="Group_2325" data-name="Group 2325" transform="translate(-3183.354 -17832.092) rotate(90)">
      <line id="Line_26-3" data-name="Line 26" x2="30" transform="translate(138.092 432.646)" fill="none" stroke="#e2e6eb" stroke-width="4"/>
      <path id="Path_35-3" data-name="Path 35" d="M10.689,13.191A1.635,1.635,0,0,1,9.5,10.43l3.657-3.846L9.508,2.764A1.635,1.635,0,0,1,11.871.5L16.6,5.45a1.636,1.636,0,0,1,0,2.256l-4.731,4.976A1.633,1.633,0,0,1,10.689,13.191Z" transform="translate(154.592 426.182)" fill="#aab0bb"/>
    </g>
    <path id="Path_3406" data-name="Path 3406" d="M0,164.307v939.764" transform="translate(-3485.682 -17743.545) rotate(-90)" fill="none" stroke="#e2e6eb" stroke-width="4"/>
    <line id="Line_977" data-name="Line 977" y2="47" transform="translate(-2383.5 -17743.5)" fill="none" stroke="#e2e6eb" stroke-width="4"/>
    <line id="Line_976" data-name="Line 976" y2="47" transform="translate(-3319.5 -17745.5)" fill="none" stroke="#e2e6eb" stroke-width="4"/>
    <g id="Rectangle_2392" data-name="Rectangle 2392" transform="translate(-3329 -17648)" fill="rgba(41,51,155,0.1)" stroke="#29339b" stroke-width="2" stroke-dasharray="5">
      <rect width="107" height="63" rx="10" stroke="none"/>
      <rect x="1" y="1" width="105" height="61" rx="9" fill="none"/>
    </g>
    <g id="Rectangle_2393" data-name="Rectangle 2393" transform="translate(-3158 -17648)" fill="rgba(41,51,155,0.1)" stroke="#29339b" stroke-width="2" stroke-dasharray="5">
      <rect width="107" height="63" rx="10" stroke="none"/>
      <rect x="1" y="1" width="105" height="61" rx="9" fill="none"/>
    </g>
    <g id="Rectangle_2395" data-name="Rectangle 2395" transform="translate(-2987 -17648)" fill="rgba(41,51,155,0.1)" stroke="#29339b" stroke-width="2" stroke-dasharray="5">
      <rect width="107" height="63" rx="10" stroke="none"/>
      <rect x="1" y="1" width="105" height="61" rx="9" fill="none"/>
    </g>
    <g id="Rectangle_2396" data-name="Rectangle 2396" transform="translate(-2816 -17648)" fill="rgba(41,51,155,0.1)" stroke="#29339b" stroke-width="2" stroke-dasharray="5">
      <rect width="107" height="63" rx="10" stroke="none"/>
      <rect x="1" y="1" width="105" height="61" rx="9" fill="none"/>
    </g>
    <g id="Rectangle_2401" data-name="Rectangle 2401" transform="translate(-2645 -17648)" fill="rgba(41,51,155,0.1)" stroke="#29339b" stroke-width="2" stroke-dasharray="5">
      <rect width="107" height="63" rx="10" stroke="none"/>
      <rect x="1" y="1" width="105" height="61" rx="9" fill="none"/>
    </g>
    <g id="Rectangle_2397" data-name="Rectangle 2397" transform="translate(-2485 -17648)" fill="rgba(41,51,155,0.1)" stroke="#29339b" stroke-width="2" stroke-dasharray="5">
      <rect width="107" height="63" rx="10" stroke="none"/>
      <rect x="1" y="1" width="105" height="61" rx="9" fill="none"/>
    </g>
    <g id="Rectangle_2394" data-name="Rectangle 2394" transform="translate(-3670 -17769)" fill="#707070" stroke="#707070" stroke-width="2" stroke-dasharray="5">
      <rect width="107" height="63" rx="30" stroke="none"/>
      <rect x="1" y="1" width="105" height="61" rx="29" fill="none"/>
    </g>
    <text id="Login" transform="translate(-3659 -17746)" fill="#fff" font-size="12" font-family="Montserrat-SemiBold, Montserrat" font-weight="600"><tspan x="25.558" y="12">Login</tspan></text>
    <g id="Rectangle_2399" data-name="Rectangle 2399" transform="translate(-3499 -17647)" fill="#707070" stroke="#707070" stroke-width="2" stroke-dasharray="5">
      <rect width="107" height="63" rx="30" stroke="none"/>
      <rect x="1" y="1" width="105" height="61" rx="29" fill="none"/>
    </g>
    <text id="Start_Audit" data-name="Start Audit" transform="translate(-3488 -17623)" fill="#fff" font-size="12" font-family="Montserrat-SemiBold, Montserrat" font-weight="600"><tspan x="9.31" y="12">Start Audit</tspan></text>
    <g id="Rectangle_2400" data-name="Rectangle 2400" transform="translate(-2485 -17523)" fill="#707070" stroke="#707070" stroke-width="2" stroke-dasharray="5">
      <rect width="107" height="63" rx="30" stroke="none"/>
      <rect x="1" y="1" width="105" height="61" rx="29" fill="none"/>
    </g>
    <text id="Submit_Audit" data-name="Submit Audit" transform="translate(-2474 -17499)" fill="#fff" font-size="12" font-family="Montserrat-SemiBold, Montserrat" font-weight="600"><tspan x="1.852" y="12">Submit Audit</tspan></text>
    <text id="Enter_Policy_Information" data-name="Enter Policy Information" transform="translate(-3318 -17630)" fill="rgba(0,0,0,0.87)" font-size="12" font-family="Montserrat-SemiBold, Montserrat" font-weight="600"><tspan x="5.992" y="12">Enter Policy </tspan><tspan x="6.232" y="26">Information</tspan></text>
    <text id="STEP_1" data-name="STEP 1" transform="translate(-3320 -17662)" fill="rgba(0,0,0,0.87)" font-size="9" font-family="Montserrat-Medium, Montserrat" font-weight="500"><tspan x="0" y="9">STEP 1</tspan></text>
    <text id="AUDIT_STEPPER" data-name="AUDIT STEPPER" transform="translate(-2945 -17766)" fill="rgba(0,0,0,0.87)" font-size="14" font-family="Montserrat-Medium, Montserrat" font-weight="500"><tspan x="26.177" y="14">AUDIT STEPPER</tspan></text>
    <text id="STEP_2" data-name="STEP 2" transform="translate(-3151 -17662)" fill="rgba(0,0,0,0.87)" font-size="9" font-family="Montserrat-Medium, Montserrat" font-weight="500"><tspan x="0" y="9">STEP 2</tspan></text>
    <text id="STEP_3" data-name="STEP 3" transform="translate(-2982 -17662)" fill="rgba(0,0,0,0.87)" font-size="9" font-family="Montserrat-Medium, Montserrat" font-weight="500"><tspan x="0" y="9">STEP 3</tspan></text>
    <text id="STEP_4" data-name="STEP 4" transform="translate(-2813 -17662)" fill="rgba(0,0,0,0.87)" font-size="9" font-family="Montserrat-Medium, Montserrat" font-weight="500"><tspan x="0" y="9">STEP 4</tspan></text>
    <text id="STEP_5" data-name="STEP 5" transform="translate(-2642 -17662)" fill="rgba(0,0,0,0.87)" font-size="9" font-family="Montserrat-Medium, Montserrat" font-weight="500"><tspan x="0" y="9">STEP 5</tspan></text>
    <text id="STEP_6" data-name="STEP 6" transform="translate(-2484 -17662)" fill="rgba(0,0,0,0.87)" font-size="9" font-family="Montserrat-Medium, Montserrat" font-weight="500"><tspan x="0" y="9">STEP 6</tspan></text>
    <text id="Enter_Locations" data-name="Enter Locations" transform="translate(-3147 -17630)" fill="rgba(0,0,0,0.87)" font-size="12" font-family="Montserrat-SemiBold, Montserrat" font-weight="600"><tspan x="26.182" y="12">Enter </tspan><tspan x="13.09" y="26">Locations</tspan></text>
    <text id="Enter_Payroll" data-name="Enter Payroll" transform="translate(-2976 -17623)" fill="rgba(0,0,0,0.87)" font-size="12" font-family="Montserrat-SemiBold, Montserrat" font-weight="600"><tspan x="3.412" y="12">Enter Payroll</tspan></text>
    <text id="Enter_Owners" data-name="Enter Owners" transform="translate(-2805 -17624)" fill="rgba(0,0,0,0.87)" font-size="12" font-family="Montserrat-SemiBold, Montserrat" font-weight="600"><tspan x="0.496" y="12">Enter Owners</tspan></text>
    <text id="Enter_Claims" data-name="Enter Claims" transform="translate(-2634 -17623)" fill="rgba(0,0,0,0.87)" font-size="12" font-family="Montserrat-SemiBold, Montserrat" font-weight="600"><tspan x="3.646" y="12">Enter Claims</tspan></text>
    <text id="Upload_Documents" data-name="Upload Documents" transform="translate(-2474 -17631)" fill="rgba(0,0,0,0.87)" font-size="12" font-family="Montserrat-SemiBold, Montserrat" font-weight="600"><tspan x="20.794" y="12">Upload </tspan><tspan x="6.778" y="26">Documents</tspan></text>
    <g id="Group_2327" data-name="Group 2327" transform="translate(-3350 -18048)">
      <line id="Line_26-4" data-name="Line 26" x2="30" transform="translate(138.092 432.646)" fill="none" stroke="#e2e6eb" stroke-width="4"/>
      <path id="Path_35-4" data-name="Path 35" d="M10.689,13.191A1.635,1.635,0,0,1,9.5,10.43l3.657-3.846L9.508,2.764A1.635,1.635,0,0,1,11.871.5L16.6,5.45a1.636,1.636,0,0,1,0,2.256l-4.731,4.976A1.633,1.633,0,0,1,10.689,13.191Z" transform="translate(154.592 426.182)" fill="#aab0bb"/>
    </g>
    <g id="Group_2328" data-name="Group 2328" transform="translate(-3179 -18048)">
      <line id="Line_26-5" data-name="Line 26" x2="30" transform="translate(138.092 432.646)" fill="none" stroke="#e2e6eb" stroke-width="4"/>
      <path id="Path_35-5" data-name="Path 35" d="M10.689,13.191A1.635,1.635,0,0,1,9.5,10.43l3.657-3.846L9.508,2.764A1.635,1.635,0,0,1,11.871.5L16.6,5.45a1.636,1.636,0,0,1,0,2.256l-4.731,4.976A1.633,1.633,0,0,1,10.689,13.191Z" transform="translate(154.592 426.182)" fill="#aab0bb"/>
    </g>
    <g id="Group_2329" data-name="Group 2329" transform="translate(-3008 -18048)">
      <line id="Line_26-6" data-name="Line 26" x2="30" transform="translate(138.092 432.646)" fill="none" stroke="#e2e6eb" stroke-width="4"/>
      <path id="Path_35-6" data-name="Path 35" d="M10.689,13.191A1.635,1.635,0,0,1,9.5,10.43l3.657-3.846L9.508,2.764A1.635,1.635,0,0,1,11.871.5L16.6,5.45a1.636,1.636,0,0,1,0,2.256l-4.731,4.976A1.633,1.633,0,0,1,10.689,13.191Z" transform="translate(154.592 426.182)" fill="#aab0bb"/>
    </g>
    <g id="Group_2330" data-name="Group 2330" transform="translate(-2837 -18048)">
      <line id="Line_26-7" data-name="Line 26" x2="30" transform="translate(138.092 432.646)" fill="none" stroke="#e2e6eb" stroke-width="4"/>
      <path id="Path_35-7" data-name="Path 35" d="M10.689,13.191A1.635,1.635,0,0,1,9.5,10.43l3.657-3.846L9.508,2.764A1.635,1.635,0,0,1,11.871.5L16.6,5.45a1.636,1.636,0,0,1,0,2.256l-4.731,4.976A1.633,1.633,0,0,1,10.689,13.191Z" transform="translate(154.592 426.182)" fill="#aab0bb"/>
    </g>
    <g id="Group_2340" data-name="Group 2340" transform="translate(-2666 -18048)">
      <line id="Line_26-8" data-name="Line 26" x2="30" transform="translate(138.092 432.646)" fill="none" stroke="#e2e6eb" stroke-width="4"/>
      <path id="Path_35-8" data-name="Path 35" d="M10.689,13.191A1.635,1.635,0,0,1,9.5,10.43l3.657-3.846L9.508,2.764A1.635,1.635,0,0,1,11.871.5L16.6,5.45a1.636,1.636,0,0,1,0,2.256l-4.731,4.976A1.633,1.633,0,0,1,10.689,13.191Z" transform="translate(154.592 426.182)" fill="#aab0bb"/>
    </g>
    <g id="Group_2331" data-name="Group 2331" transform="translate(-1998.354 -17706.092) rotate(90)">
      <line id="Line_26-9" data-name="Line 26" x2="30" transform="translate(138.092 432.646)" fill="none" stroke="#e2e6eb" stroke-width="4"/>
      <path id="Path_35-9" data-name="Path 35" d="M10.689,13.191A1.635,1.635,0,0,1,9.5,10.43l3.657-3.846L9.508,2.764A1.635,1.635,0,0,1,11.871.5L16.6,5.45a1.636,1.636,0,0,1,0,2.256l-4.731,4.976A1.633,1.633,0,0,1,10.689,13.191Z" transform="translate(154.592 426.182)" fill="#aab0bb"/>
    </g>
  </g>
</svg>
